<svg id="圖層_1" data-name="圖層 1" xmlns="http://www.w3.org/2000/svg" viewBox="0 0 40 140"><defs><style>.cls-1{fill:#994628;}.cls-2{fill:#fff;}</style></defs><rect class="cls-1" width="40" height="140" rx="20"/><path class="cls-2" d="M18.17,33.34v5.07c0,1.12,0,2.13.07,3H16.91V40.37H14v2h-1.4c0-.79.07-1.83.07-3.09v-6c0-1.12,0-2.15-.07-3.09h5.69C18.2,31.16,18.17,32.22,18.17,33.34Zm-1.26,1.2V31.37H14v3.17Zm0,4.57V35.66H14v3.45Zm10.26-6.4V42.83c0,.89-.1,1.47-.46,1.73a6.36,6.36,0,0,1-2.35.67,5.2,5.2,0,0,0-.7-1.69,7.46,7.46,0,0,0,1.68,0c.33-.07.47-.31.43-.74V39H21.62a14.36,14.36,0,0,1-2.39,6.54,4.6,4.6,0,0,0-1.48-.92c1.83-1.83,2.67-4.8,2.53-8.93V32.78c0-1.12,0-2.18-.07-3.16h7C27.2,30.51,27.17,31.54,27.17,32.71Zm-1.4,1V30.81H21.69v2.95Zm0,4.08V35H21.69v2.88Z"/><path class="cls-2" d="M14.3,60.07c-.37.49-.91,1.18-1.61,2.07a5.59,5.59,0,0,0-1.06-.84A13.88,13.88,0,0,0,14,57.92a9.1,9.1,0,0,0,1.34.91C15,59.16,14.68,59.57,14.3,60.07Zm3.94-6.86c.8,0,1.62,0,2.46-.07v1.41c-.79,0-2-.07-3.58-.07v1.75c1.45,0,2.6,0,3.44-.07v1.41c-.84,0-2-.07-3.44-.07v4.29a1.44,1.44,0,0,1-.67,1.4,3.63,3.63,0,0,1-1.72.36A7.87,7.87,0,0,0,14,62a7.44,7.44,0,0,0,1.37,0q.39-.07.39-.63V57.5c-1.5,0-2.67,0-3.51.07V56.16c.89.05,2.06.07,3.51.07V54.48c-1.73,0-3,0-3.87.07V53.14c.85,0,1.64.07,2.39.07H17c.37-1.13.65-2,.84-2.6.38.09.89.23,1.55.42A4.46,4.46,0,0,0,18.24,53.21ZM17.4,49c1.08,0,2.08,0,3-.07v1.41c-1,0-1.78-.07-2.39-.07H14.66c-.8,0-1.58,0-2.32.07V48.92c.79,0,1.57.07,2.32.07h1.26a11.42,11.42,0,0,0-.42-1.62L17,47Q17.33,48.43,17.4,49Zm-2,3.66a5,5,0,0,0-1.2.42,14.16,14.16,0,0,0-.77-1.9,5.91,5.91,0,0,1,1.13-.49A20.79,20.79,0,0,1,15.43,52.65Zm4.78,7.8a3.1,3.1,0,0,0-1.12.92,12.09,12.09,0,0,0-1.48-2.46,8.92,8.92,0,0,1,1.05-.78A24.65,24.65,0,0,1,20.21,60.45ZM23,49.13v3.59h3.66c.52,0,1.05,0,1.62-.07V54c-.66,0-1.22-.07-1.69-.07v7.25c0,.79,0,1.64.07,2.53H25.2c.05-.89.07-1.72.07-2.46V53.91H23c0,1.18,0,2.3-.14,3.38a16.83,16.83,0,0,1-.59,3.2,17.14,17.14,0,0,1-1.38,3.27,9.7,9.7,0,0,0-1.4-.71,10.55,10.55,0,0,0,1.58-3.41,16.9,16.9,0,0,0,.53-3.13c0-.89.07-2.22.07-4s0-3.28-.07-4.36a20.84,20.84,0,0,0,5.69-1,8.73,8.73,0,0,0,.92,1.55C27.52,48.71,25.79,48.85,23,49.13Z"/><path class="cls-2" d="M26.26,66.54c-.05.66-.07,1.26-.07,1.83.61,0,1.24,0,1.9-.07v1c-.57,0-1.2-.07-1.9-.07,0,.61,0,1.2.07,1.76H20.63V72h2.75c.93,0,1.87,0,2.81-.07v1.06c-.94,0-1.88-.07-2.81-.07H20.63v1h4.64A26.63,26.63,0,0,0,28,73.78v1.13c-1,0-1.88-.07-2.68-.07H14.8c-.94,0-1.83,0-2.68.07V73.85c.94.05,1.83.07,2.68.07h4.57v-1H16.62c-.7,0-1.5,0-2.39.07V71.88c.89.05,1.69.07,2.39.07h2.75V71h-3c-.56,0-1.29,0-2.18.07V70.05c.89,0,1.62.07,2.18.07h3v-.84H14.23c-.7,0-1.5,0-2.39.07V68.23a23.42,23.42,0,0,0,2.46.14h5.07v-.92H16.55c-.7,0-1.47,0-2.32.07v-1c.85,0,1.62.07,2.32.07h2.82a4.31,4.31,0,0,0-.14-1.13h1.54a4.31,4.31,0,0,0-.14,1.13Zm-.71,13.15c0,.65,0,1.24.07,1.76H24.29v-.71H15.85v.71H14.52c0-.57.07-1.15.07-1.76v-2c0-.75,0-1.41-.07-2h11.1c0,.47-.07,1.12-.07,2Zm-1.26-2V76.59H15.85v1.13Zm0,2.11v-1.2H15.85v1.2Zm.56-11.46v-.92H20.63v.92Zm0,1.75v-.84H20.63v.84Z"/><path class="cls-2" d="M16.7,87.18c-.29.94-.59,1.87-.92,2.81a11.44,11.44,0,0,1,1.69,2.64,3.22,3.22,0,0,1,.14,1.86,2.31,2.31,0,0,1-.91,1.41,3.26,3.26,0,0,1-1.9.49,5.41,5.41,0,0,0-.28-1.62c.89.14,1.41,0,1.58-.28a2,2,0,0,0,.14-1.19,3.52,3.52,0,0,0-.6-1.44c-.33-.5-.73-1-1.19-1.59.18-.6.41-1.3.66-2.07a16.84,16.84,0,0,0,.6-2.29h-2V100H12.41c0-.89.07-2,.07-3.24V87.81c0-1,0-2-.07-2.88h5.06A21.84,21.84,0,0,0,16.7,87.18ZM24.92,92c.85,0,1.62,0,2.32-.07v1.2c-.7,0-1.19-.07-1.47-.07h-1.2v4.43q0,.84.6.87a5.75,5.75,0,0,0,1,0,.69.69,0,0,0,.6-.38A4.76,4.76,0,0,0,27,96.53a5,5,0,0,0,1.34.63c-.24,1.22-.58,1.93-1,2.11a6.16,6.16,0,0,1-2.39.21,1.54,1.54,0,0,1-1.66-1.82V93H21.69a10.81,10.81,0,0,1-.35,3.27,4.77,4.77,0,0,1-1.48,2.39,7.32,7.32,0,0,1-2.25,1.3,2.81,2.81,0,0,0-1.06-1.06q3-.92,3.45-2.49A10,10,0,0,0,20.42,93c-1.08,0-1.85,0-2.32.07v-1.2c.61,0,1.34.07,2.18.07Zm2.81-4.85c0,.42,0,.87.07,1.34H26.4V86.83h-7v1.55H18a10.24,10.24,0,0,0,.07-1.2c0-.38,0-.82-.07-1.34H27.8C27.76,86.27,27.73,86.69,27.73,87.11Zm-3.86,2c1,0,1.75,0,2.32-.07v1.19c-.61,0-1.39-.07-2.32-.07h-2c-1,0-1.88,0-2.53.07V89.08c.61,0,1.43.07,2.46.07ZM22.6,85.77A8.24,8.24,0,0,0,21.34,84a3.52,3.52,0,0,0,1.05-.71c.75,1,1.22,1.62,1.41,1.9A4.32,4.32,0,0,0,22.6,85.77Z"/></svg>