<svg id="圖層_1" data-name="圖層 1" xmlns="http://www.w3.org/2000/svg" viewBox="0 0 40 184"><defs><style>.cls-1{fill:#994628;}.cls-2{fill:#fff;}</style></defs><rect class="cls-1" y="1" width="40" height="182" rx="20"/><path class="cls-2" d="M16.7,26.14a4.3,4.3,0,0,0-.5.87h8.65c.7,0,1.48,0,2.32-.07v1.13h-5.9v1.12H24c.56,0,1.22,0,2-.07v1.2c-.75-.05-1.41-.07-2-.07H21.27v1.12h2.88c.61,0,1.31,0,2.11-.07v1.2c-.8,0-1.5-.07-2.11-.07H21.27v1h3.44c.75,0,1.5,0,2.25-.07v1.2c-.7,0-1.43-.07-2.18-.07H15.64V35H14.23a19.82,19.82,0,0,0,.15-2.32V29.48a9.79,9.79,0,0,1-.74,1l-.74.84a6.52,6.52,0,0,0-1.06-.84c.33-.38.87-1,1.62-2a19.73,19.73,0,0,0,1.65-2.32,7.92,7.92,0,0,0,.74-1.62l1.55.85A3.72,3.72,0,0,0,16.7,26.14Zm2.67,9.73c0-.18,0-.58-.07-1.19h1.47c0,.66-.07,1-.07,1.19h4.5c.85,0,1.67,0,2.46-.07v1.13h-5a7.55,7.55,0,0,0,2.18,1.3,26.11,26.11,0,0,0,3.31,1,4.81,4.81,0,0,0-.92,1.4c-.94-.32-1.7-.62-2.28-.87a12.3,12.3,0,0,1-1.62-.85A8.19,8.19,0,0,1,22.11,38l-1.06-1H20.7v1.62a20.32,20.32,0,0,0,.14,2.53H19.3c0-.66.07-1.5.07-2.53V36.93h-.28A7.16,7.16,0,0,1,18,38.19a9.2,9.2,0,0,1-1.37,1c-.49.31-1,.6-1.58.88a12.88,12.88,0,0,1-2,.78,5.57,5.57,0,0,0-.85-1.41,22.39,22.39,0,0,0,3-1,5.3,5.3,0,0,0,2.32-1.58H12.41V35.8c.56.05,1.4.07,2.53.07Zm.49-6.68V28.07H15.64v1.12Zm0,2.18V30.25H15.64v1.12Zm0,2v-1H15.64v1Zm1.58-8.22c.26.28.53.61.81,1a7,7,0,0,1-1.2.77l-.7-.91a5.13,5.13,0,0,0-.7-.7,6,6,0,0,0,1.05-.85A6.85,6.85,0,0,1,21.44,25.19Z"/><path class="cls-2" d="M24.78,48.5c.56,0,1.27,0,2.11-.07v1.48c-.84,0-1.55-.08-2.11-.08H22.46v6.4c0,.66.35,1,1.06,1h2c.47,0,.8-.66,1-2a4.16,4.16,0,0,0,1.55.63c-.24,1.64-1,2.51-2.18,2.6H22.67q-1.62,0-1.62-1.68v-7H18.52q.29,6.48-5,9.29a5.22,5.22,0,0,0-1.41-1.2q5.21-1.89,4.93-8.09H15.22c-.7,0-1.5,0-2.39.08V48.43c.89,0,1.69.07,2.39.07ZM23.52,44c.42,0,1.07,0,2-.07v1.33c-.84,0-1.5-.07-2-.07H16.27c-.56,0-1.19,0-1.89.07V43.93c.7,0,1.31.07,1.82.07Z"/><path class="cls-2" d="M19.37,77.09c0-.85.07-1.88.07-3.1V71.11h-.28A11.06,11.06,0,0,1,18,72.8a8.14,8.14,0,0,1-1.44,1.37c-.54.4-1.13.78-1.76,1.16a17.5,17.5,0,0,1-1.93,1,6.3,6.3,0,0,0-.78-1.47,7.48,7.48,0,0,0,1.62-.6c.52-.26,1-.54,1.55-.85a6.64,6.64,0,0,0,1.33-1,9.51,9.51,0,0,0,1.06-1.27H14.87c-.71,0-1.57,0-2.6.14V69.84a24.32,24.32,0,0,0,2.6.14h4.57V68.72H14.23c0-1.13.07-2.37.07-3.73s0-2.51-.07-3.44H26c-.05.93-.07,2.08-.07,3.44s0,2.6.07,3.73H20.77V70H25.2c.94,0,1.76,0,2.46-.07v1.34a20.61,20.61,0,0,0-2.32-.14H22.6a6.54,6.54,0,0,0,2.25,2.25A11.25,11.25,0,0,0,28,74.55a4.9,4.9,0,0,0-.78,1.55,14.13,14.13,0,0,1-3.79-2,6.73,6.73,0,0,1-2.11-3h-.57v3c0,1,0,2,.07,3Zm.07-12.38V62.6H15.71v2.11Zm0,3V65.77H15.71v1.89Zm5.13-3V62.6h-3.8v2.11Zm0,3V65.77h-3.8v1.89Z"/><path class="cls-2" d="M16.7,87.18c-.19-.42-.36-.8-.5-1.13a4.66,4.66,0,0,0,.71-.35H16.7V82.82h3.44V85.7H17.26c.28.47.47.8.56,1a7.13,7.13,0,0,0-.77.49H18.1c.61,0,1.27,0,2-.07v1c-.84,0-1.66-.07-2.46-.07v1.06c.66,0,1.36,0,2.11-.07v1c-.75,0-1.45-.07-2.11-.07v1.06c.89,0,1.59,0,2.11-.07v1.12c-.75,0-1.45-.07-2.11-.07v1.13h.49c.42,0,1.06,0,1.9-.07v1c-.84,0-1.48-.07-1.9-.07H14.45V95.2H13.18c.05-1,.07-1.86.07-2.61V89.22c-.19.28-.45.63-.77,1-.33-.37-.64-.7-.92-1a12.57,12.57,0,0,0,1.62-1.86,7.22,7.22,0,0,0,1-1.73H12.41V82.82H16V85.7H14.52a4.38,4.38,0,0,0,1.12.5,4.48,4.48,0,0,0-.84,1Zm-2.47-8.09h1.34c-.05.52-.07,1-.07,1.34h1.76c0-.38,0-.82-.07-1.34h1.33c0,.52-.07,1-.07,1.34.61,0,1.24,0,1.9-.07v1.12c-.66,0-1.29-.07-1.9-.07v.92H17.26v-.92H15.5v.92H14.3v-.92c-.84,0-1.59,0-2.25.07V80.36c.61,0,1.36.07,2.25.07C14.3,80.05,14.28,79.61,14.23,79.09Zm.64,5.7V83.73H13.53v1.06Zm1.54,4.36V88.09h-2v1.06Zm0,2V90.06h-2v1.06Zm0,2.11V92.1h-2v1.13ZM19,84.79V83.73h-1.2v1.06ZM28,94.42c-.19.38-.42.58-.67.6s-.53,0-.81,0a7.17,7.17,0,0,1-1.09-.1c-.45-.07-.67-.43-.67-1.09V88.73H23.59c-.05.84-.13,1.66-.25,2.46a10.2,10.2,0,0,1-.6,2.25,7.89,7.89,0,0,1-1.4,2.18,5.24,5.24,0,0,0-1.41-.78,5.35,5.35,0,0,0,1.41-1.54,7.08,7.08,0,0,0,.73-1.9,14.55,14.55,0,0,0,.32-2.67H21.05c.05-.61.07-1.55.07-2.82V83c0-1.45,0-2.53-.07-3.23h6.33c0,.47-.07,1.45-.07,3v4c0,.7,0,1.36.07,2H25.91v4.43c0,.37,0,.59.14.66a.56.56,0,0,0,.35.11,1.24,1.24,0,0,0,.39,0c.07,0,.12-.15.17-.38s.09-.66.14-1.27a2.66,2.66,0,0,0,1.27.64A5.58,5.58,0,0,1,28,94.42ZM26.12,82.33V80.85h-3.8v1.48Zm0,2.67V83.45h-3.8V85Zm0,2.67V86.05h-3.8v1.62Z"/><path class="cls-2" d="M28,105.5c-.52,0-1.36-.07-2.54-.07H22.39v5.41c0,.66.35,1,1.06,1H25c.61,0,1-.15,1.13-.46a6.9,6.9,0,0,0,.35-1.79,4.13,4.13,0,0,0,1.69.91,7.83,7.83,0,0,1-.74,1.76A1.55,1.55,0,0,1,26,113H22.53A1.37,1.37,0,0,1,21,111.48v-6H18.8q.15,6.18-6.18,8.16a12.65,12.65,0,0,0-1-1.48A7.91,7.91,0,0,0,15.89,110a6.73,6.73,0,0,0,1.51-4.61H15.08c-1.55,0-2.56,0-3,.07v-1.34c.47,0,1.46.07,3,.07H19.3V99.88c0-.85,0-1.65-.07-2.4h1.68a14.42,14.42,0,0,0-.14,2.4v4.35h4.71c1.08,0,1.93,0,2.54-.07Zm-14.14-5.2c.47-.28,1-.57,1.48-.85.47.66.85,1.22,1.16,1.69s.62,1,.95,1.55a8.67,8.67,0,0,0-1.48.84A21.91,21.91,0,0,0,13.88,100.3Zm10.83-1.2a9.21,9.21,0,0,0,1.69.85,9.26,9.26,0,0,0-1.13,1.44c-.42.63-.89,1.3-1.4,2-.52-.28-1-.54-1.34-.77A11.66,11.66,0,0,0,24.71,99.1Z"/><path class="cls-2" d="M23.59,117c1.12,0,2.15,0,3.09-.07v1.41c-.94,0-2-.07-3.09-.07H20.7v11.11h4.57c1.08,0,2.07,0,3-.08v1.41c-.89-.05-1.86-.07-2.89-.07H14.45c-1,0-1.93,0-2.68.07V129.3c.8,0,1.71.08,2.75.08h4.64V118.27H16.34c-1.22,0-2.27,0-3.16.07v-1.41c.89,0,1.94.07,3.16.07Z"/><path class="cls-2" d="M12.48,146.82c.14-.68.25-1.38.35-2.11s.15-1.54.17-2.43,0-3.3,0-7.24h7.31c-.05-.14-.16-.52-.35-1.12a12,12,0,0,0,1.41-.29l.35,1.41h3.37c.85,0,1.83,0,3-.07v1.27c-1.13-.05-2.11-.07-3-.07H14.3q0,5.13,0,6.71a29.3,29.3,0,0,1-.25,3.2,16,16,0,0,1-.91,3.51,11.39,11.39,0,0,0-1.48-.63A7.56,7.56,0,0,0,12.48,146.82Zm2.32-8.48a6.47,6.47,0,0,0,1.26-.56c.66,1.22,1.08,2,1.27,2.46a8.23,8.23,0,0,1-1.34.5C15.71,140.08,15.31,139.28,14.8,138.34Zm4.29.57v2.25h2.46a11.26,11.26,0,0,0,1.83-4.29c.51.19,1,.35,1.47.49a5,5,0,0,0-1,1.83h2.67a14.84,14.84,0,0,0,1.55-.07v1.19a9.37,9.37,0,0,0-1.13-.07,16.52,16.52,0,0,1-1.48,6.19,5.64,5.64,0,0,0,1,1,10.59,10.59,0,0,0,1.69,1.16,6.17,6.17,0,0,0-.92,1.13,9.63,9.63,0,0,1-1.4-1.16c-.29-.31-.64-.72-1.06-1.24a8.64,8.64,0,0,1-.91,1.2,14.33,14.33,0,0,1-1.41,1.34,10,10,0,0,0-1-1.13,6.11,6.11,0,0,0,1.23-.88,8,8,0,0,0,1.23-1.44,15,15,0,0,1-1.41-4.36l-1-.77c-.05.61-.07,1.26-.07,2v4.64a1.17,1.17,0,0,1-.43,1,4.27,4.27,0,0,1-1.68.52,6.42,6.42,0,0,0-.35-1.33c.84,0,1.28-.05,1.33-.28v-5.77H16.41v7.38H15.15c0-.84.07-1.71.07-2.6V143.9c0-.94,0-1.85-.07-2.74h2.74v-2.25c0-.52,0-1.1-.07-1.76h1.34C19.11,137.71,19.09,138.3,19.09,138.91ZM17,145.09c0-.6,0-1.19-.07-1.75h2.95a16.93,16.93,0,0,0-.07,1.83,13.93,13.93,0,0,0,.07,1.68H16.91C17,146.29,17,145.7,17,145.09Zm1.82.78v-1.62H18v1.62Zm1.9-5.2c-.28-.15-.7-.33-1.26-.57a11.52,11.52,0,0,0,1.4-2.46,10.25,10.25,0,0,1,1.27.56C21.59,139.19,21.12,140,20.7,140.67Zm3.94,4.57a12.64,12.64,0,0,0,1.13-5H23.52a15.08,15.08,0,0,1-.71,1.48l.78-.28A15.28,15.28,0,0,0,24.64,145.24Z"/></svg>