<svg id="圖層_1" data-name="圖層 1" xmlns="http://www.w3.org/2000/svg" viewBox="0 0 90 90"><defs><style>.cls-1{fill:#994628;}.cls-2{font-size:13.85px;font-family:SimHei;}.cls-2,.cls-3{fill:#f4d66e;}</style></defs><circle class="cls-1" cx="45" cy="45" r="45"/><text class="cls-2" transform="translate(17.31 66.51)">水里肉圓</text><g id="si8CQI.tif"><path class="cls-3" d="M65.55,31.24c-.24-4.37-2.2-7.64-6.11-9.51a10.13,10.13,0,0,0-11.1,1.18,10.21,10.21,0,0,0-4.12,8.33h4a6.71,6.71,0,0,1,6.39-6.59,6.43,6.43,0,0,1,4,1.17,6.61,6.61,0,0,1,2.88,5.44h3.8Zm-14.66,0H58.8a4,4,0,0,0-7.91,0Z"/><path class="cls-3" d="M20.29,33.91H65.5a9.73,9.73,0,0,1-1.43,6.31,9.33,9.33,0,0,1-6.69,4.3,2.34,2.34,0,0,0-.24.09H28.69a2.34,2.34,0,0,0-.24-.09,9.28,9.28,0,0,1-7.56-6.06,20,20,0,0,1-.6-2.34Z"/><path class="cls-3" d="M65.55,31.24l-.27,0h-3.8a6.61,6.61,0,0,0-2.88-5.44,6.43,6.43,0,0,0-4-1.17,6.71,6.71,0,0,0-6.39,6.59h-4a10.21,10.21,0,0,1,4.12-8.33,10.13,10.13,0,0,1,11.1-1.18C63.35,23.6,65.31,26.87,65.55,31.24Z"/><path class="cls-3" d="M50.89,31.24a4,4,0,0,1,7.91,0Z"/><path class="cls-3" d="M41.79,31.24c-.25-4.37-2.21-7.64-6.12-9.51a10.11,10.11,0,0,0-11.09,1.18,10.21,10.21,0,0,0-4.12,8.33h3.95a6.69,6.69,0,0,1,6.39-6.59,6.45,6.45,0,0,1,4,1.17,6.66,6.66,0,0,1,2.88,5.44h3.8Zm-14.67,0H35a4,4,0,0,0-7.91,0Z"/><path class="cls-3" d="M41.79,31.24l-.27,0h-3.8a6.66,6.66,0,0,0-2.88-5.44,6.45,6.45,0,0,0-4-1.17,6.69,6.69,0,0,0-6.39,6.59H20.46a10.21,10.21,0,0,1,4.12-8.33,10.11,10.11,0,0,1,11.09-1.18C39.58,23.6,41.54,26.87,41.79,31.24Z"/><path class="cls-3" d="M27.12,31.24a4,4,0,0,1,7.91,0Z"/></g></svg>