<svg id="圖層_1" data-name="圖層 1" xmlns="http://www.w3.org/2000/svg" viewBox="0 0 90 90"><defs><style>.cls-1{fill:#994628;}.cls-2{font-size:13.85px;font-family:SimHei;}.cls-2,.cls-3{fill:#f4d66e;}</style></defs><circle class="cls-1" cx="45" cy="45" r="45"/><text class="cls-2" transform="translate(10.38 66.51)">八張牛肉麵</text><path class="cls-3" d="M60.23,18.82a.95.95,0,1,0,0-1.9H42V15H60.23a.95.95,0,0,0,0-1.9H29.66a1,1,0,1,0,0,1.9h2.85v1.9H29.66a1,1,0,1,0,0,1.9h2.85v7.62H29.66a1,1,0,0,0-1,.95,16.43,16.43,0,0,0,8.35,14.28,1,1,0,0,0,.46.12H52.37a1,1,0,0,0,.46-.12,16.43,16.43,0,0,0,8.35-14.28,1,1,0,0,0-1-.95H42V18.82ZM36.32,26.44H34.41V15h1.91Zm3.8,0h-1.9V15h1.9Z"/><path class="cls-3" d="M36.49,43.69a2.85,2.85,0,0,0,2.68,1.9H50.71a2.85,2.85,0,0,0,2.68-1.9Z"/></svg>