<svg id="圖層_1" data-name="圖層 1" xmlns="http://www.w3.org/2000/svg" xmlns:xlink="http://www.w3.org/1999/xlink" viewBox="0 0 100 100"><defs><style>.cls-1{fill:none;}.cls-2{fill:#82b4be;}.cls-3{clip-path:url(#clip-path);}.cls-4{fill:#3798bd;}.cls-5{fill:#84c6e1;}.cls-6{fill:#a77d4d;}.cls-7{fill:#906342;}.cls-8{fill:#eec8a9;}.cls-9{fill:#ecbb8e;}</style><clipPath id="clip-path"><circle class="cls-1" cx="50" cy="50" r="50"/></clipPath></defs><circle class="cls-2" cx="50" cy="50" r="50"/><g class="cls-3"><g id="Flat"><path class="cls-4" d="M86.33,83.5v6.24c0,6-16.77,10.92-37.45,10.92S11.44,95.77,11.44,89.74V83.5Z"/><ellipse class="cls-5" cx="48.88" cy="83.5" rx="37.45" ry="10.92"/><path class="cls-5" d="M84.88,46.24a41,41,0,0,0-6.51-10.88l-2-2.35,2.4-2,2,2.35a44.06,44.06,0,0,1,7,11.71Z"/><path class="cls-5" d="M12.17,48.13l-2.95-1A44.23,44.23,0,0,1,17,33.36l.65-.79,2.4,2-.66.79a41.09,41.09,0,0,0-7.22,12.77Z"/><path class="cls-5" d="M18.82,48.22,15.94,47a38.11,38.11,0,0,1,4.65-8.13l2.5,1.87A34.56,34.56,0,0,0,18.82,48.22Z"/><path class="cls-5" d="M83.48,71.42l-3-.8a34.84,34.84,0,0,0,1.18-9h3.12A37.93,37.93,0,0,1,83.48,71.42Z"/><path class="cls-5" d="M79,48.22a35,35,0,0,0-4.27-7.47l2.49-1.87A38.15,38.15,0,0,1,81.83,47Z"/><path class="cls-6" d="M77,61.65c0,.77,0,1.53-.09,2.29a30.15,30.15,0,0,1-3.71,12.35A14,14,0,0,1,60.91,83.5H36.85a14,14,0,0,1-12.26-7.21,30.15,30.15,0,0,1,3.19-33.94l.82-1H69.16l.82,1a30,30,0,0,1,4.46,7.22A31.27,31.27,0,0,1,75.69,53a30.51,30.51,0,0,1,1.24,7.21C77,60.66,77,61.15,77,61.65Z"/><path class="cls-7" d="M77,61.65c0,.77,0,1.53-.09,2.29a53.57,53.57,0,0,1-13.54,5.87l-.84-3a50.51,50.51,0,0,0,13-5.67c.49-.3,1-.62,1.43-1C77,60.66,77,61.15,77,61.65Z"/><path class="cls-7" d="M53.7,71.57l-.28-3.11c1-.09,2-.21,3-.36l.47,3.08C55.85,71.34,54.77,71.47,53.7,71.57Z"/><path class="cls-7" d="M53.73,62.16l-.34-3.1c1-.11,2-.26,3-.44L57,61.68C55.9,61.88,54.81,62,53.73,62.16Z"/><path class="cls-7" d="M75.69,53a16,16,0,0,1-3.46,2.85A43.79,43.79,0,0,1,63.34,60l-1-2.95a41.65,41.65,0,0,0,8.27-3.9,13.41,13.41,0,0,0,3.84-3.59A31.27,31.27,0,0,1,75.69,53Z"/><path class="cls-7" d="M31.26,37h0a33.64,33.64,0,0,1,35.25,0h0a5.59,5.59,0,0,1,0,9.51h0a33.64,33.64,0,0,1-35.25,0h0a5.58,5.58,0,0,1,0-9.51Z"/><path class="cls-8" d="M50.44,36.69,44.63,51.23a35.17,35.17,0,0,1-3.55-.64C40,50.33,39,50,38,49.68v5.74a9.37,9.37,0,0,1-9.36-9.37V41.37l-.73-.72a19.13,19.13,0,0,1-5.43-11.56l-.08-.1-3.12-3.77L5.46,8.61,21.85-1.32Z"/><path class="cls-9" d="M22.36,19.53V29l-3.12-3.77V19.53Z"/><path class="cls-9" d="M41.08,38.25V50.59C40,50.33,39,50,38,49.68V38.25Z"/><path class="cls-8" d="M48.88,75.7a3.12,3.12,0,0,1-3.12,3.12H42.64a3.12,3.12,0,0,1,0,6.24H39.52a3.12,3.12,0,0,1,0,6.24H34.84l-14-3.12L8.32,81.94h-14V60.1H11.44l9.36-9.36H27a15.1,15.1,0,0,1-4.41,10.65L20.8,63.22l14,3.12h7.8a3.12,3.12,0,1,1,0,6.24h3.12a3.12,3.12,0,0,1,3.12,3.11Z"/><path class="cls-9" d="M42.64,80.38h-7.8a1.32,1.32,0,0,1-.34,0L23.58,77.92a1.56,1.56,0,0,1,.68-3h0L35,77.26h7.63a1.56,1.56,0,0,1,0,3.12Z"/><path class="cls-9" d="M42.64,74.14h-7.8a1.32,1.32,0,0,1-.34,0L23.58,71.67a1.56,1.56,0,1,1,.68-3L35,71h7.63a1.56,1.56,0,0,1,0,3.12Z"/><path class="cls-9" d="M39.52,86.62H34.84a1.32,1.32,0,0,1-.34,0L23.58,84.16a1.56,1.56,0,0,1,.68-3h0L35,83.5h4.51a1.56,1.56,0,0,1,0,3.12Z"/></g></g></svg>