<svg id="圖層_1" data-name="圖層 1" xmlns="http://www.w3.org/2000/svg" xmlns:xlink="http://www.w3.org/1999/xlink" viewBox="0 0 100 100"><defs><style>.cls-1{fill:none;}.cls-2{fill:#82b4be;}.cls-3{clip-path:url(#clip-path);}.cls-4{fill:#9f6a43;}.cls-5{fill:#c58052;}.cls-6{fill:#c9916a;}.cls-7{fill:#f7d1a7;}.cls-8{fill:#f3c18f;}</style><clipPath id="clip-path"><circle class="cls-1" cx="50" cy="50" r="50"/></clipPath></defs><circle class="cls-2" cx="50" cy="50" r="50"/><g class="cls-3"><path id="Shape" class="cls-4" d="M76.25,91.77a13.34,13.34,0,0,1-8.53,4.37H37.36a13.32,13.32,0,0,1-8.55-4.37,21.48,21.48,0,0,1-4.66-13.14l8.29-23.35C39.17,43.13,46.57,31,40.05,18.8a24,24,0,0,0-1.86-2.92c-1.85-2.42-2.11-4.38.34-4.38h28c2.44,0,2.17,2,.34,4.38A24,24,0,0,0,65,18.8C52,43.13,94.6,67.45,76.25,91.77Z"/><path id="Shape-2" data-name="Shape" class="cls-5" d="M70.29,91.77c-1.43,2.42-4.61,4.37-6.39,4.37H41.18c-1.79,0-5-2-6.4-4.37a26.44,26.44,0,0,1-3.49-13.14L37.5,55.28c5-12.15,10.57-24.33,5.69-36.48h18.7C52.11,43.13,84,67.45,70.29,91.77Z"/><path id="Shape-3" data-name="Shape" class="cls-5" d="M66.89,15.88A24,24,0,0,0,65,18.8h-25a24,24,0,0,0-1.86-2.92c-1.85-2.42-2.11-4.38.34-4.38h28c2.44,0,2.17,2,.34,4.38Z"/><path id="Shape-4" data-name="Shape" class="cls-6" d="M63.28,15.88a26,26,0,0,0-1.39,2.92H43.19a27.89,27.89,0,0,0-1.39-2.92c-1.39-2.42-1.59-4.38.25-4.38H63C64.86,11.5,64.65,13.46,63.28,15.88Z"/><path id="Shape-5" data-name="Shape" class="cls-7" d="M62.1,57.74a2.93,2.93,0,0,1,3.84,1.5l1.76,4a2.92,2.92,0,1,1,5.35-2.35l2.34,5.35a2.92,2.92,0,1,1,5.35-2.34l6.44,14.7a17.94,17.94,0,0,1,1.36,9.46,13.4,13.4,0,0,0,1.08,7l1.76,4a1.46,1.46,0,0,1-.75,1.92l-13.37,5.86a1.46,1.46,0,0,1-1.92-.75l-2-4.6a3.88,3.88,0,0,0-2.19-2L54.9,93.19a3.67,3.67,0,0,1-2.07-4.73,3.61,3.61,0,0,1,1.94-2,7.08,7.08,0,0,1,2.79-.07l5.2.88a1.46,1.46,0,0,0,1.87-2L58.24,70.75a3,3,0,0,1,1.21-3.87,2.94,2.94,0,0,1,2.34-.2,3,3,0,0,1,1.74,1.58l-2.87-6.53a3,3,0,0,1,1.2-3.88l.24-.11Z"/><path id="Shape-6" data-name="Shape" class="cls-8" d="M69.2,59.4l7.6,17.34a1.48,1.48,0,0,1-.74,2,1.52,1.52,0,0,1-1.11,0,1.44,1.44,0,0,1-.8-.77L67.7,63.25a2.94,2.94,0,0,1,1.5-3.85Z"/><path id="Shape-7" data-name="Shape" class="cls-8" d="M76.89,62.4l5.26,12a1.49,1.49,0,0,1-.74,2,1.43,1.43,0,0,1-1.11,0,1.47,1.47,0,0,1-.81-.76l-4.1-9.36a2.94,2.94,0,0,1,1.5-3.85Z"/><path id="Shape-8" data-name="Shape" class="cls-8" d="M62.1,57.74l9.36,21.34a1.5,1.5,0,0,1-.74,2,1.43,1.43,0,0,1-1.11,0,1.46,1.46,0,0,1-.81-.77L60.66,61.73a3,3,0,0,1,1.2-3.88l.24-.11Z"/><path id="Shape-9" data-name="Shape" class="cls-7" d="M39.94,40.58l.24.12a3,3,0,0,1,1.2,3.87l-2.87,6.54a3,3,0,0,1,1.74-1.58,2.9,2.9,0,0,1,2.34.2,3,3,0,0,1,1.2,3.87L37.41,68.16a1.46,1.46,0,0,0,1.87,2l5.2-.88a6.9,6.9,0,0,1,2.79.06,3.63,3.63,0,0,1,1.94,2A3.68,3.68,0,0,1,47.14,76L30.91,82.37a3.89,3.89,0,0,0-2.19,2l-4,9.6a1.46,1.46,0,0,1-1.92.75L9.41,88.85a1.48,1.48,0,0,1-.75-1.93l3.75-9a13.33,13.33,0,0,0,1.09-7,17.87,17.87,0,0,1,1.36-9.46l6.44-14.7a2.92,2.92,0,1,1,5.35,2.35L29,43.75a2.92,2.92,0,0,1,5.35,2.34l1.76-4a2.94,2.94,0,0,1,3.84-1.5Z"/><path id="Shape-10" data-name="Shape" class="cls-8" d="M32.84,42.25a2.93,2.93,0,0,1,1.5,3.84L27.89,60.8a1.44,1.44,0,0,1-1.91.73,1.48,1.48,0,0,1-.74-2l7.6-17.33Z"/><path id="Shape-11" data-name="Shape" class="cls-8" d="M25.15,45.25a2.94,2.94,0,0,1,1.5,3.85l-4.1,9.35a1.49,1.49,0,0,1-.81.77,1.43,1.43,0,0,1-1.11,0,1.49,1.49,0,0,1-.74-1.95l5.26-12Z"/><path id="Shape-12" data-name="Shape" class="cls-8" d="M39.94,40.58l.24.12a3,3,0,0,1,1.2,3.87L33.24,63.14a1.49,1.49,0,0,1-.81.77,1.52,1.52,0,0,1-1.11,0,1.5,1.5,0,0,1-.74-2l9.36-21.35Z"/></g></svg>