<svg id="圖層_1" data-name="圖層 1" xmlns="http://www.w3.org/2000/svg" viewBox="0 0 100 100"><defs><style>.cls-1{fill:#82b4be;}.cls-2{fill:#80adb7;}.cls-3{fill:#f7d1a7;}.cls-4{fill:#c58052;}.cls-5{fill:#9f6a43;}</style></defs><circle class="cls-1" cx="50" cy="50" r="49.92"/><circle class="cls-2" cx="50" cy="50" r="49.92"/><path class="cls-3" d="M26.46,55.9S36.35,45,46.69,46.32,61.59,50,62.81,52.25,64.48,59.7,71.17,57s11.71-9.27,16-5,1.67,9.88-4.26,13.38S62.2,81.14,60.53,82.66,36.8,89.05,31,78.25,22.21,64.42,26.46,55.9Z"/><g id="Drqe1C.tif"><path d="M55.53,64.81a3.26,3.26,0,0,1,3.19-3.05A3.33,3.33,0,0,1,62,64.7c.06.77-.27,1.29-.87,1.39s-1.13-.21-1.3-1c-.13-.63-.42-1.06-1.08-1.07s-1,.47-1.12,1.12-.58,1.09-1.25,1S55.51,65.56,55.53,64.81Z"/><path d="M48.13,67.43a4.63,4.63,0,0,1-3.41-1.51,1.07,1.07,0,0,1,0-1.61,1.08,1.08,0,0,1,1.56,0c1.37,1.15,2.43,1.16,3.77,0a1.1,1.1,0,1,1,1.54,1.57A4.72,4.72,0,0,1,48.13,67.43Z"/><path d="M38.93,64.13c0,.35,0,.71,0,1.06a1,1,0,0,1-1.06,1,.94.94,0,0,1-1-.91,16.15,16.15,0,0,1,0-2.2,1,1,0,0,1,1.1-.91,1,1,0,0,1,1,1C39,63.47,38.93,63.8,38.93,64.13Z"/></g><rect class="cls-4" x="44.71" y="14.08" width="10.34" height="24.94" rx="5.17"/><rect class="cls-5" x="27.49" y="22.08" width="10.34" height="20.14" rx="5.17" transform="translate(-5.32 6.5) rotate(-10.52)"/><rect class="cls-4" x="12.26" y="36.67" width="10.87" height="15.14" rx="5.43" transform="translate(-16.8 11.37) rotate(-24.59)"/><rect class="cls-5" x="62.02" y="20.2" width="10.34" height="23.83" rx="5.17" transform="translate(7.16 -11.96) rotate(10.74)"/></svg>