<svg id="圖層_1" data-name="圖層 1" xmlns="http://www.w3.org/2000/svg" viewBox="0 0 560 420"><defs><style>.cls-1{fill:#dcc8b4;}.cls-2{fill:#473245;}.cls-3{fill:#43b7a8;}.cls-4{fill:#ff987f;}.cls-5{fill:#6884a6;}.cls-6{fill:#38aad4;}.cls-7{fill:#fff;}.cls-8{fill:#809cb9;}.cls-9{fill:#d33468;}.cls-10{fill:#9ea0a3;}.cls-11{fill:#2d5a62;}.cls-12{fill:#4294b5;}.cls-13{fill:#145d4f;}.cls-14{fill:#e85b34;}.cls-15{fill:#e77555;}.cls-16{fill:#87b256;}.cls-17{fill:#42654c;}.cls-18{fill:#7ca245;}.cls-19{fill:#a4b760;}</style></defs><path class="cls-1" d="M424.34,217.74a21.65,21.65,0,0,1-8.08,7.09c-14.33,7.25-35.75,5.22-51.17,5.22-24.29,0-154.38-12.44-161.21,20-1.88,8.94,5.87,16.73,12.89,22.58l49.25,41c13,10.83,20.66,29.68.85,38.61-17,7.64-36,9.13-54.53,9.89-30.49,1.25-61.08.35-91.51-.51-18-.5-36.06,3.06-54,3.33-42.42.62-13.46,28.86,14.93,29.51,57.88,1.31,115.76-1.48,173.58-4.28,18.44-.89,49.08,1.19,59.38-17.46,10.9-19.72-7.81-40.4-20.25-53.58-9.47-10-53.26-42.8-53.46-52.53-.16-7.23,9.58-9.58,16.81-9.57,27.59,0,54.93,2.29,82.17,2.85,24.55.5,126.88,4.6,134.21-30.39,1.75-8.37-2.14-16.88-6.94-23.95-22.45-44.91-81.68-47.92-123.56-48.72L162,153.4c-6.27-.12-12.82-.18-18.42,2.65s-9.78,9.52-7.6,15.4c1.09,3,3.57,5.21,6.17,7,14.29,9.8,33.07,8.79,50.36,7.68q74.66-4.83,149.55-2.73c18.45.52,79.94-1.93,84.94,23A15,15,0,0,1,424.34,217.74Z"/><path class="cls-2" d="M201.37,174.67a3.48,3.48,0,1,0,3.48-3.48A3.48,3.48,0,0,0,201.37,174.67Z"/><path class="cls-2" d="M160.05,174.67a3.48,3.48,0,1,0,3.48-3.48A3.48,3.48,0,0,0,160.05,174.67Z"/><rect class="cls-3" x="149.14" y="160.66" width="69.82" height="12.31" rx="3.07" transform="translate(368.09 333.64) rotate(-180)"/><path class="cls-4" d="M249.45,45.37h.2a11.38,11.38,0,0,1,2.1.11,5.65,5.65,0,0,1,2.37,1.22,1,1,0,0,0,.62.34.52.52,0,0,0,.46-.33c.22-.47-.06-.71-.24-1.15a.27.27,0,0,1,0-.23.33.33,0,0,1,.14-.12,3.73,3.73,0,0,1,1.92-.17,1.92,1.92,0,0,0,1.74-.58,1.3,1.3,0,0,0-.08-1.41,3,3,0,0,0-1.2-1h0a7.24,7.24,0,0,0-3.64-.62c-.89,0-1.8.16-2.7.18a9.56,9.56,0,0,1-1.31,0,7.29,7.29,0,0,0-1.31-.14c-.43,0-.7.43-.9.79a4.1,4.1,0,0,0-.23,2.59.67.67,0,0,0,.1.28.61.61,0,0,0,.39.19A8.16,8.16,0,0,0,249.45,45.37Z"/><path class="cls-5" d="M199,43.36a10.85,10.85,0,0,0,5.7,6.69c3.14,1.72,5.35.35,8.6-.39,3.5-.79,6.73-2.31,10.38-2.66,5.53-.51,25.33-1.37,25.33-1.37l-.65-4.32-23.21-3.23a21.85,21.85,0,0,0-4.57-.15,73.16,73.16,0,0,1-9.79.57c-3.2-.19-6.58.46-9.75,0a2.52,2.52,0,0,0-1.25,0,2,2,0,0,0-1,1.83A8.48,8.48,0,0,0,199,43.36Z"/><path class="cls-6" d="M171.38,137.76c.61-1.37,1.4-2.64,2-4a8.61,8.61,0,0,0,.67-5.75c-.32-1-.46-2.16-.69-3.22-.48-2.23-1-4.46-1.39-6.7-.68-3.51-1.29-7-1.65-10.58s-1.14-7.19-1.39-10.84c-.23-3.34-.46-7.81.76-11L172.24,79l11.87,4.22c5.41,1.93,10.86,3.69,16.32,5.46.91.3,2.37,7.74,2.71,8.87,2.5,8.16,6,16.2,9.17,24.12a9.52,9.52,0,0,1,.65,2c.32,2-.8,4.59-1.27,6.5-.66,2.75-1.44,5.46-2.23,8.17-1.51,5.12-3.12,10.21-4.3,15.42L203,163.29A21.93,21.93,0,0,1,200,163c.1-1.16.2-2.33.29-3.49.66-7.83,1.09-15.72,1.6-23.58.1-1.49.4-3,.51-4.45A8.65,8.65,0,0,0,201,125.9c-.67-.85-1.19-1.87-1.77-2.78q-6.84-10.78-13.74-21.53c.65,1-.26,5.07-.32,6.33-.34,6.48.33,12.94.72,19.43a9.34,9.34,0,0,1-.09,2.59,8.42,8.42,0,0,1-.73,1.88c-2.33,4.76-5.71,8.76-8.62,13.09-3.62,5.41-8.15,10.39-12.18,15.51l-1.34,1.7-.17-.15-1.37-1.65s0-.08,0-.12Z"/><path class="cls-4" d="M195.81,37.15a22.92,22.92,0,0,1,1.06-3.85c.49-1.28.65-1.36,0-2.66-2.07-4.37-1-12.59,5.72-11.22a4.67,4.67,0,0,1,2.8,1.92,7.83,7.83,0,0,1-1.61,9.77c-.91.79-2,1-2.35,2.26l-1.41,5.07A19.94,19.94,0,0,0,195.81,37.15Z"/><path class="cls-2" d="M207.2,18.74a3,3,0,0,0,1.58.35.75.75,0,0,1-.34.71c-.22.17-.48.28-.71.44a.44.44,0,0,0-.2.33c0,.13.14.21.24.28l.85.54a2.21,2.21,0,0,1-.68.44A10.82,10.82,0,0,1,205,23a3.69,3.69,0,0,1-3-.64,3.42,3.42,0,0,0-2.46-1.07,1.75,1.75,0,0,0-1.64,1.58,9.11,9.11,0,0,0-.19,1.81c0-.13-.56-.34-.65-.38-.79-.35-.91.27-.93.95a1.79,1.79,0,0,0,.7,1.68s.1.07.12.12a.31.31,0,0,1,0,.21,3.83,3.83,0,0,0-.26,2.74c-.06-.19-.43-.49-.56-.66-.65-.86-.77-2-1.33-2.8-.22-.32-2.51-1.34-2.43-.87a2.4,2.4,0,0,1,.48-1.86,1.52,1.52,0,0,0,.42-.68c.11-.64-.73-1-1.38-1.06a1.48,1.48,0,0,1,.72-1.33,5.4,5.4,0,0,0,1.23-1,1,1,0,0,0-.11-1.4c-.38-.22-1.06-.23-1-.66,0-.19.23-.31.4-.39a4.43,4.43,0,0,1,2.44-.3,3.73,3.73,0,0,0-.9-1.52,7.59,7.59,0,0,1,4.69.09c0-.29-.07-.57-.11-.86a5.6,5.6,0,0,1,4.19.85C204.79,16.36,205.8,18,207.2,18.74Z"/><path class="cls-7" d="M204.76,28a2.37,2.37,0,1,1-4.65-.92Z"/><path class="cls-2" d="M209.57,165.62a8,8,0,0,0-4.91-3.73c-.29-.09-.58-.16-.87-.23a21.92,21.92,0,0,0-3.89-.22h0l0,5a2.36,2.36,0,0,0,2.34,2.39l5.89,0C209.39,168.85,210.39,167.08,209.57,165.62Z"/><path class="cls-2" d="M169.63,165.2a8.7,8.7,0,0,0-2.5-5.84c-.21-.23-.43-.45-.65-.66a23.47,23.47,0,0,0-3.28-2.29h0l-2.41,4.29a2.37,2.37,0,0,0,.8,3.17l5.23,3.29A2,2,0,0,0,169.63,165.2Z"/><path class="cls-4" d="M151.91,69.4l-.16.12a12.19,12.19,0,0,0-1.62,1.33,5.61,5.61,0,0,0-1.19,2.39,1.07,1.07,0,0,1-.3.64.56.56,0,0,1-.57,0c-.46-.25-.37-.61-.48-1.07a.33.33,0,0,0-.11-.2.34.34,0,0,0-.2,0,3.69,3.69,0,0,0-1.64,1,1.94,1.94,0,0,1-1.74.57,1.31,1.31,0,0,1-.77-1.19,3,3,0,0,1,.39-1.5v0a7.26,7.26,0,0,1,2.58-2.64c.74-.5,1.54-.94,2.28-1.46a9,9,0,0,0,1-.81,6.71,6.71,0,0,1,1-.88,1.26,1.26,0,0,1,1.2.1,4.07,4.07,0,0,1,1.71,2,.48.48,0,0,1-.11.67A8.49,8.49,0,0,1,151.91,69.4Z"/><path class="cls-5" d="M176.07,36.53h31.19a0,0,0,0,1,0,0V79a7.87,7.87,0,0,1-7.87,7.87H183.94A7.87,7.87,0,0,1,176.07,79V36.53a0,0,0,0,1,0,0Z" transform="matrix(-0.97, -0.23, 0.23, -0.97, 363.82, 166.09)"/><path class="cls-8" d="M191,38.26c2,.57,3.33,2,3.15,4.81-.15,2.4-2,4.34-4,5.68-5,3.36-11.3,3.58-16.5,6.7-4.76,2.85-21.23,13.87-21.23,13.87l-2-3.86L167.2,49.12a20.89,20.89,0,0,1,3.61-2.82c3.5-2.19,7-4.48,10.59-6.51C183.68,38.51,188,37.38,191,38.26Z"/><path class="cls-2" d="M111.13,331.58a26.77,26.77,0,1,0,26.77,26.77A26.8,26.8,0,0,0,111.13,331.58Zm0,49.22a22.45,22.45,0,1,1,22.45-22.45A22.47,22.47,0,0,1,111.13,380.8Z"/><path class="cls-9" d="M111.13,382a23.63,23.63,0,1,1,23.62-23.62A23.65,23.65,0,0,1,111.13,382Zm0-45.48A21.86,21.86,0,1,0,133,358.35,21.89,21.89,0,0,0,111.13,336.49Zm27.11,22.74a.87.87,0,0,1-.88-.88,26.26,26.26,0,0,0-26.23-26.23.89.89,0,1,1,0-1.77,28,28,0,0,1,28,28A.88.88,0,0,1,138.24,359.23Z"/><path class="cls-10" d="M111.13,382.23A23.89,23.89,0,1,1,135,358.35,23.91,23.91,0,0,1,111.13,382.23Zm0-45.76A21.88,21.88,0,1,0,133,358.35,21.9,21.9,0,0,0,111.13,336.47Z"/><polygon class="cls-10" points="134.69 358.58 134.69 358.12 111.68 358.12 127.95 341.85 127.63 341.52 111.36 357.8 111.36 334.78 110.9 334.78 110.9 358.12 110.77 358.12 94.63 341.98 94.3 342.31 110.12 358.12 87.56 358.12 87.56 358.58 110.58 358.58 110.58 358.58 94.3 374.85 94.63 375.17 110.9 358.9 110.9 381.91 111.36 381.91 111.36 359.36 127.63 375.63 127.95 375.31 111.36 358.71 111.36 358.58 134.69 358.58"/><polygon class="cls-10" points="132.59 367.94 132.77 367.52 111.61 358.48 132.96 349.9 132.79 349.48 111.44 358.05 120.47 336.89 120.05 336.71 110.89 358.17 110.77 358.12 102.26 336.94 101.84 337.11 110.17 357.87 89.43 349.01 89.25 349.43 110.41 358.47 110.41 358.47 89.06 367.04 89.23 367.46 110.58 358.89 101.55 380.05 101.97 380.23 110.82 359.49 119.4 380.85 119.82 380.68 111.08 358.9 111.13 358.77 132.59 367.94"/><path class="cls-2" d="M221,354.33a26.76,26.76,0,1,0-22.43,30.49A26.8,26.8,0,0,0,221,354.33Zm-23.08,26.22A22.45,22.45,0,1,1,216.69,355,22.47,22.47,0,0,1,197.87,380.55Z"/><path class="cls-9" d="M221.77,355.11a.9.9,0,0,1-.9-.77,26.67,26.67,0,0,0-43.45-16.48.91.91,0,0,1-1.17-1.4,28.5,28.5,0,0,1,46.42,17.61.9.9,0,0,1-.76,1Z"/><path class="cls-10" d="M198.08,382a23.89,23.89,0,1,1,20-27.21A23.91,23.91,0,0,1,198.08,382Zm-6.88-45.25a21.88,21.88,0,1,0,24.92,18.34A21.91,21.91,0,0,0,191.2,336.72Z"/><polygon class="cls-10" points="217.82 355.04 217.75 354.58 195 358.04 208.64 339.51 208.27 339.24 194.63 357.77 191.17 335.02 190.72 335.09 194.23 358.16 194.1 358.18 175.72 344.65 175.44 345.02 193.46 358.28 171.16 361.67 171.23 362.12 193.98 358.66 193.98 358.66 180.34 377.2 180.71 377.47 194.35 358.93 197.81 381.69 198.26 381.62 194.87 359.32 213.4 372.96 213.68 372.59 194.77 358.68 194.75 358.55 217.82 355.04"/><polygon class="cls-10" points="217.15 364.6 217.27 364.16 194.98 358.41 214.81 346.72 214.57 346.33 194.75 358.02 200.5 335.74 200.06 335.62 194.23 358.22 194.1 358.18 182.5 338.52 182.11 338.75 193.47 358.02 171.63 352.38 171.52 352.83 193.8 358.58 193.8 358.58 173.98 370.27 174.21 370.66 194.03 358.97 188.28 381.25 188.72 381.37 194.36 359.53 206.05 379.35 206.44 379.12 194.52 358.9 194.56 358.77 217.15 364.6"/><path class="cls-9" d="M111.19,359.37a.9.9,0,0,1-.36-.08.88.88,0,0,1-.43-1.16L134,307.28c1.4-3,4.64-4.48,7.24-3.27l.89.41c2.59,1.21,3.56,4.64,2.16,7.65a.88.88,0,0,1-1.16.42.86.86,0,0,1-.42-1.16c1-2.14.4-4.52-1.32-5.32l-.89-.42c-1.72-.8-3.92.29-4.92,2.43L112,358.86A.86.86,0,0,1,111.19,359.37Z"/><path class="cls-9" d="M194.5,359.77a.89.89,0,0,1-.74-.41l-18.38-29.62-46.64-8.47a.87.87,0,0,1-.7-1,.88.88,0,0,1,1-.71l47,8.54a.89.89,0,0,1,.58.4l18.59,29.95a.87.87,0,0,1-.28,1.2A.84.84,0,0,1,194.5,359.77Z"/><path class="cls-9" d="M162.34,359a.8.8,0,0,1-.37-.08.87.87,0,0,1-.42-1.16L178.39,322a.87.87,0,0,1,1.16-.42.88.88,0,0,1,.41,1.17l-16.83,35.72A.86.86,0,0,1,162.34,359Z"/><path class="cls-9" d="M185.75,322.55c0,1.18-3.49,2.13-7.81,2.13s-7.81-.95-7.81-2.13,3.5-2.14,7.81-2.14S185.75,321.37,185.75,322.55Z"/><rect class="cls-9" x="144.89" y="314.09" width="3.19" height="46.74" transform="matrix(0.55, -0.84, 0.84, 0.55, -216.16, 275.63)"/><path class="cls-9" d="M113.62,358.58A2.61,2.61,0,1,1,111,356,2.61,2.61,0,0,1,113.62,358.58Z"/><path class="cls-9" d="M197.4,358.58a2.62,2.62,0,1,1-2.61-2.62A2.61,2.61,0,0,1,197.4,358.58Z"/><path class="cls-2" d="M178.24,262.66c0,.21.06.42.08.62a3.94,3.94,0,0,1-.86,2.6,6.87,6.87,0,0,1-5.65,2.85A7,7,0,0,1,167,266.9a4.79,4.79,0,0,1-1.31-1.81,22.59,22.59,0,0,0-.72-2.15,1.63,1.63,0,0,1-.27-.81c0-.35.33-.61.47-.93.3-.66-.07-1.53.38-2.1a2.46,2.46,0,0,1,.8-.54c.75-.45,1.13-1.28,1.9-1.72,1.3-.73,2.75.15,4.12-.13.86-.17,2.1-.9,2.84-.07a10.83,10.83,0,0,1,.59,1.12c.42.61,1.35.9,1.43,1.64,0,.24-.05.5,0,.74.09.55.62,1,.78,1.54A5.86,5.86,0,0,1,178.24,262.66Z"/><path class="cls-4" d="M176.41,322c0-.44,0-.89-.08-1.34a13.25,13.25,0,0,0-.56-3.2,7.46,7.46,0,0,0-4.53-4.29,10.58,10.58,0,0,0-6.35-.05,6.67,6.67,0,0,0-1.64.89c-.56.33-1.17.59-1.73.91-1.47.82-2.91,1.71-4.37,2.56-3,1.76-6.16,3.36-9.06,5.34a24.27,24.27,0,0,0-4.07,3.28,3.73,3.73,0,0,0-.62,3.05,35.83,35.83,0,0,0,2.81,6.53c.52,1.11,1,2.24,1.53,3.35,2.29,4.84,5.43,9.14,8.29,13.62.65,1,1.3,2,2,3s1.41,1.54,2.06,2.4c.21.29,2,3.18,2.09,3.16,1.19-.27,2.45-.67,2.62-2s-.92-2.54-1.42-3.81a34.88,34.88,0,0,1-1.26-4.27c-.46-1.86-.92-3.71-1.39-5.57a18.67,18.67,0,0,0-1.44-4.31,18.87,18.87,0,0,0-1.34-2.12l-1.74-2.48a28.06,28.06,0,0,1-2.56-4.15c-.21-.44-.83-1.4-.49-1.84s1.28-.31,1.67-.38c1.78-.29,3.63-.24,5.42-.42a43.47,43.47,0,0,0,10.95-2.65c2.1-.81,4.68-1.31,5.13-3.86A7.37,7.37,0,0,0,176.41,322Z"/><path class="cls-4" d="M173.17,272.81c-1.06-1.57-1.7-3.36-.47-4.9,2.54-3.13,3.25-10-2.44-10.23a3.88,3.88,0,0,0-2.65,1,6.54,6.54,0,0,0-.61,8.25c.58.82,1.42,1.22,1.46,2.3a22.73,22.73,0,0,1,0,2.61,3.65,3.65,0,0,1-1.25,2.19L165,276.37a4.81,4.81,0,0,0-1.27,3,.27.27,0,0,0,0,.15s.06.06.1.09c.22.14.41.31.63.43l.82.4c.55.26,1.11.51,1.68.74,1.12.45,2.27.85,3.43,1.21l.75.23a4.05,4.05,0,0,0,2.61.16,4.25,4.25,0,0,0,1.43-1.14c1-1.08,2-1.45,1.87-3.13a5.57,5.57,0,0,0-1.71-3A26.08,26.08,0,0,1,173.17,272.81Z"/><path class="cls-2" d="M168.26,262.3c.25.38.44.85.81,1.06.53.31,1.09,0,1.62.06a2.58,2.58,0,0,1,1.45,1.25,5.2,5.2,0,0,0,1.29,1.6,3.76,3.76,0,0,0,2.09.46,1.49,1.49,0,0,0,1-.25,1.14,1.14,0,0,0,.32-.87,3.15,3.15,0,0,0-.75-1.85,12.36,12.36,0,0,1-1.77-2.38,12.07,12.07,0,0,0-1.55-2.76c-.82-1-2.21-2-3.47-1.91a4.1,4.1,0,0,0-3.28,3.38,1.44,1.44,0,0,0,.69,1.49c.32.13.68.05,1,.19A1.33,1.33,0,0,1,168.26,262.3Z"/><path class="cls-7" d="M170.13,265.57a1.73,1.73,0,1,1-3.46-.05Z"/><path class="cls-3" d="M164.79,307.46c.12,1.14.25,1.73.48,3.32l15.87-.23c-.67-1.22-1.13-2.09-1.79-3.31-2.36-4.33-2-10.2-1.41-14.92a49.32,49.32,0,0,0,.61-9.7,15.57,15.57,0,0,0-1.6-5.91c-.92-1.78-1.72-3-3.84-2.58a8.18,8.18,0,0,0-2.35,1c-1.41.81-2.86,1.3-4.33,2a1.59,1.59,0,0,1-.73.19c-.26,0-.52-.24-.5-.49s.07-.22.08-.34-.06-.26-.17-.24a.24.24,0,0,0-.15.09c-.44.43-.89.84-1.29,1.31-1.15,1.37-2.35,2.84-2.59,4.61-.28,2.1.85,4.1,1.61,6.07C165.1,294.54,164.13,301,164.79,307.46Z"/><path class="cls-11" d="M180.27,309.23s0,0,0,0H165c.05,1.14.3,2.31-.21,3.31s-2.27,1.79-3.31,2.38c-1.47.82-2.91,1.71-4.37,2.56-2.37,1.38-4.81,2.66-7.14,4.11,1.42,2,2.53,4.32,3.75,6.4.39.66.78,1.33,1.18,2l.15.26c1.7-.25,3.46-.22,5.16-.39a43.47,43.47,0,0,0,10.95-2.65c3.28-1.26,7-2.81,9.59-5.26a9,9,0,0,0,.82-.91C184,318,182.48,312,180.27,309.23Z"/><path class="cls-4" d="M147.8,304.81c-1.21.22-2.45.22-3.68.46a3,3,0,0,0-2,1.24,1.86,1.86,0,0,0,.13,2.25,1,1,0,0,0,1.29.21,2.46,2.46,0,0,0,.43-.48,3,3,0,0,1,1.18-.73c1.34-.53,3.35-.33,4.22-1.69a2.57,2.57,0,0,0,.35-1.41.32.32,0,0,0,0-.17c-.09-.17-.34-.12-.51-.05A8.42,8.42,0,0,1,147.8,304.81Z"/><path class="cls-4" d="M175,281.13c-.37,4.49-3.43,10.92-4.51,12.7-1.71,2.81-3,5.87-4.83,8.62a6.56,6.56,0,0,1-1.29,1.49,6.28,6.28,0,0,1-2,.92A45.61,45.61,0,0,1,147.72,307l-.1-1.7s7.41-4.58,15.83-3.59a73.53,73.53,0,0,1,1.07-9.48c.35-1.91,1-3.71,1.53-5.57a31.05,31.05,0,0,1,1.95-5.84c.76-1.54,2.4-4.46,4.44-4.24S175.18,278.68,175,281.13Z"/><path class="cls-2" d="M177.18,256.39a1.72,1.72,0,0,1,.93-.21c1.12.14,1.48,1.82,2.58,2,.69.12,1.31-.41,2-.61a3.16,3.16,0,0,1,2.05.22c.6.26.8.83,1.14,1.36a3.66,3.66,0,0,0,2.06,1.49,15.5,15.5,0,0,1,2.47.54,3,3,0,0,1,1.33,3.55,7.66,7.66,0,0,0-.77,2.16c0,.95.67,1.76.88,2.69a2.75,2.75,0,0,1-1.31,2.92c-.92.51-2.06.45-3,.93-.7.36-1.26,1-2,1.15a2.56,2.56,0,0,1-1.93-.33c-.68-.5-.95-1.55-1.76-1.74-.56-.12-1.13.22-1.69.16a2,2,0,0,1-1.31-.94,2.11,2.11,0,0,0-.54-.65c-.52-.33-1.24,0-1.84-.18a2,2,0,0,1-1.16-1.48c-.07-.27-.19-.6-.47-.62a.74.74,0,0,0-.35.1,1.72,1.72,0,0,1-1.78-.29c.42-.72,1.17-1.27,1.31-2.08.27-1.54-1.54-2.55-1.58-4.06-.05-1.83-1.33-2.54-3-3.05-.78-.23-1.62-.8-1.08-1.68s1.71-.93,2.69-.93a5.06,5.06,0,0,0,1.46-.11c.66-.23,1.06-.58,1.82-.4a6.36,6.36,0,0,0,1.73.47A3.36,3.36,0,0,0,177.18,256.39Z"/><path class="cls-3" d="M157.43,368.63l3-1.76,4.1-2.45a5.91,5.91,0,0,0,2.21-2c.35-.72-.2-1.74-.48-2.32L165,357.5l-4.62,2.77a1.19,1.19,0,0,1,.17.51,3.6,3.6,0,0,1-.41,1.69,34.76,34.76,0,0,1-2.65,4.49c-.26.36-.52.74-.76,1.09s-.66.76-.64,1C156.1,369.63,157.17,368.79,157.43,368.63Z"/><path class="cls-2" d="M272.75,192.1a28.65,28.65,0,1,0,28.64,28.64A28.68,28.68,0,0,0,272.75,192.1Zm0,52.67a24,24,0,1,1,24-24A24.06,24.06,0,0,1,272.75,244.77Z"/><path class="cls-12" d="M272.75,246A25.28,25.28,0,1,1,298,220.74,25.31,25.31,0,0,1,272.75,246Zm0-48.66a23.39,23.39,0,1,0,23.38,23.38A23.41,23.41,0,0,0,272.75,197.36Zm29,24.33a1,1,0,0,1-.95-.95,28.09,28.09,0,0,0-28.06-28.06.95.95,0,0,1,0-1.9,30,30,0,0,1,30,30A1,1,0,0,1,301.76,221.69Z"/><path class="cls-10" d="M272.75,246.3a25.56,25.56,0,1,1,25.56-25.56A25.58,25.58,0,0,1,272.75,246.3Zm0-49a23.41,23.41,0,1,0,23.41,23.41A23.43,23.43,0,0,0,272.75,197.33Z"/><polygon class="cls-10" points="297.96 220.99 297.96 220.5 273.34 220.5 290.75 203.09 290.4 202.74 272.99 220.15 272.99 195.53 272.5 195.53 272.5 220.5 272.36 220.5 255.09 203.23 254.74 203.57 271.67 220.5 247.53 220.5 247.53 220.99 272.15 220.99 272.16 220.99 254.74 238.4 255.09 238.75 272.5 221.33 272.5 245.96 272.99 245.96 272.99 221.82 290.4 239.24 290.75 238.89 272.99 221.13 272.99 220.99 297.96 220.99"/><polygon class="cls-10" points="295.71 231 295.91 230.55 273.26 220.88 296.11 211.71 295.93 211.25 273.08 220.43 282.75 197.78 282.3 197.59 272.49 220.55 272.36 220.5 263.26 197.84 262.81 198.02 271.72 220.23 249.53 210.75 249.33 211.2 271.98 220.87 271.98 220.87 249.13 230.04 249.31 230.5 272.16 221.32 262.49 243.97 262.94 244.16 272.42 221.97 281.6 244.82 282.05 244.63 272.69 221.33 272.75 221.2 295.71 231"/><path class="cls-2" d="M390.27,216.44a28.65,28.65,0,1,0-24,32.63A28.69,28.69,0,0,0,390.27,216.44ZM365.56,244.5a24,24,0,1,1,20.14-27.37A24.05,24.05,0,0,1,365.56,244.5Z"/><path class="cls-12" d="M391.14,217.28a1,1,0,0,1-1-.83,28.54,28.54,0,0,0-46.5-17.63,1,1,0,0,1-1.25-1.5,30.5,30.5,0,0,1,49.67,18.84,1,1,0,0,1-.81,1.11Z"/><path class="cls-10" d="M365.8,246a25.56,25.56,0,1,1,21.42-29.12A25.59,25.59,0,0,1,365.8,246Zm-7.37-48.42a23.41,23.41,0,1,0,26.67,19.63A23.44,23.44,0,0,0,358.43,197.6Z"/><polygon class="cls-10" points="386.92 217.2 386.84 216.71 362.5 220.42 377.09 200.58 376.7 200.29 362.1 220.13 358.4 195.78 357.92 195.86 361.67 220.54 361.53 220.56 341.86 206.09 341.57 206.48 360.85 220.67 336.99 224.3 337.06 224.78 361.4 221.08 361.4 221.08 346.81 240.91 347.2 241.2 361.8 221.37 365.5 245.71 365.99 245.64 362.36 221.78 382.19 236.37 382.48 235.98 362.25 221.09 362.23 220.95 386.92 217.2"/><polygon class="cls-10" points="386.2 227.44 386.32 226.96 362.48 220.81 383.69 208.3 383.44 207.88 362.23 220.39 368.38 196.54 367.91 196.42 361.67 220.6 361.53 220.56 349.13 199.53 348.7 199.78 360.86 220.39 337.49 214.36 337.37 214.83 361.21 220.99 361.21 220.99 340 233.5 340.25 233.92 361.46 221.41 355.31 245.25 355.78 245.38 361.81 222.01 374.32 243.22 374.74 242.97 361.99 221.34 362.02 221.2 386.2 227.44"/><path class="cls-12" d="M272.82,221.83a1.1,1.1,0,0,1-.4-.08,1,1,0,0,1-.45-1.25l25.3-54.4a7,7,0,0,1,3.31-3.41,5.14,5.14,0,0,1,4.43-.09l.95.44a5.19,5.19,0,0,1,2.79,3.44,7,7,0,0,1-.47,4.74.94.94,0,0,1-1.7-.79,5.07,5.07,0,0,0,.36-3.46,3.31,3.31,0,0,0-1.76-2.24l-1-.44a3.32,3.32,0,0,0-2.85.09,5.1,5.1,0,0,0-2.41,2.5l-25.3,54.41A.92.92,0,0,1,272.82,221.83Z"/><path class="cls-12" d="M362,222.26a.92.92,0,0,1-.8-.44L341.5,190.13l-49.9-9.06a1,1,0,0,1-.76-1.09.93.93,0,0,1,1.09-.75l50.31,9.14a.88.88,0,0,1,.62.42l19.9,32.05a.94.94,0,0,1-.3,1.28A.92.92,0,0,1,362,222.26Z"/><path class="cls-12" d="M327.54,221.43a.94.94,0,0,1-.84-1.33l18-38.23a.93.93,0,1,1,1.69.8l-18,38.23A1,1,0,0,1,327.54,221.43Z"/><path class="cls-12" d="M352.6,182.43c0,1.26-3.74,2.29-8.36,2.29s-8.35-1-8.35-2.29,3.74-2.28,8.35-2.28S352.6,181.17,352.6,182.43Z"/><rect class="cls-12" x="308.87" y="173.38" width="3.42" height="50.02" transform="translate(-25.33 350) rotate(-56.86)"/><path class="cls-12" d="M275.42,221a2.8,2.8,0,1,1-2.8-2.8A2.8,2.8,0,0,1,275.42,221Z"/><path class="cls-12" d="M365.06,221a2.8,2.8,0,1,1-2.79-2.8A2.79,2.79,0,0,1,365.06,221Z"/><path class="cls-4" d="M333.33,128.4a21.46,21.46,0,0,0-1.13-3.63c-.52-1.2-.67-1.28-.13-2.54a11.47,11.47,0,0,0,.86-4.63,6.51,6.51,0,0,0-.35-1.91,8,8,0,0,0-1.13-2.3,4.77,4.77,0,0,0-5.19-1.67,4.43,4.43,0,0,0-2.61,1.93,7.48,7.48,0,0,0,1.86,9.26c.89.72,1.93.9,2.31,2.08.5,1.59,1,3.19,1.51,4.79A18.76,18.76,0,0,1,333.33,128.4Z"/><path class="cls-7" d="M324.26,120.5a2.26,2.26,0,0,0,4.41-1Z"/><path class="cls-2" d="M323.9,111.8a5.17,5.17,0,0,0-.83,1.08c-1.19,2,.88,2.45,2.48,2.38,1.35-.06,2.86-1.32,3.85.19a5.89,5.89,0,0,0,.67,1,.75.75,0,0,0,.66.24,1,1,0,0,0,.4-.25,1.6,1.6,0,0,1,.57-.35c.79-.26.92.56.86,1.14-.19,1.65-.37,3.3-.56,5,1.78-.52,3.63-.65,5.39-1.27.23-.08.51-.22.51-.47s-.41-.45-.73-.49-.74-.27-.63-.57a.48.48,0,0,1,.19-.23c.79-.59,1.86-.62,2.76-1a.55.55,0,0,0,.32-.26c.09-.22-.1-.46-.29-.6s-.44-.26-.52-.48a11.65,11.65,0,0,0,1.36-.93.69.69,0,0,0,.29-.42c0-.35-.44-.5-.79-.52l-1.17-.09a.68.68,0,0,1-.37-.09c-.27-.17-.23-.6,0-.85a6.41,6.41,0,0,1,.76-.59,1,1,0,0,0-.06-1.61,2.25,2.25,0,0,0-1.54-.19,3.25,3.25,0,0,1-1.58,0,.32.32,0,0,1-.17-.11c-.09-.13,0-.31.14-.43s.39-.43.58-.64a.3.3,0,0,0,.1-.19c0-.1-.14-.15-.25-.16a22,22,0,0,0-3.78.21c-.16,0-.35,0-.42-.17-.17-.32.48-.74.21-1C329.42,109,326,109.68,323.9,111.8Z"/><path class="cls-13" d="M347.93,182.93l.08,0c2.93-1.44,5.23-3.65,5.58-7.06s-.94-6.88-2.22-10l0-.08c-.14-.34-.3-1.14-.59-1.36s-.91-.07-1.25-.08c-1.06,0-2.12-.17-3.18-.25-1.57-.12-3.14-.22-4.72-.3a60.41,60.41,0,0,0-8.71-.21c-.34,1,.11,1.86,0,2.85-.45,3-3.83,4.58-6.44,5.1a77.7,77.7,0,0,0-7.71,1.8c-4,1.23-9.38,3.15-10.92,7.18-1.11,2.9.72,6.76,1.55,9.53a109.62,109.62,0,0,0,6.47,16.33,66.21,66.21,0,0,1,3,6c.82,2.23,1.64,4.46,2.48,6.68l3.49-1.89a1,1,0,0,0,.35-.26,1,1,0,0,0,.15-.59c.08-1.92.24-3.72.24-5.64a44.19,44.19,0,0,0-5-18.66c-.53-1-2.5-4.05-1.43-5.17.85-.87,2.75-.47,3.8-.35,1.73.19,3.47.31,5.2.38A41.77,41.77,0,0,0,347.93,182.93Z"/><path class="cls-14" d="M329.09,218.37a10.12,10.12,0,0,1-2-1.72c-.4-.46-.74-1.44-1.24-1.86l-.18-.11h-.07a23.38,23.38,0,0,1-5.11,3.81c0,.13.09.25.12.38.37,2.09-1.08,4-2.36,5.52-.37.42-1,.82-1,1.41a1.23,1.23,0,0,0,1,1.28,3.26,3.26,0,0,0,2.12-.5c1.71-.88,3.4-1.79,5-2.81a12.62,12.62,0,0,0,4.05-3.26A1.49,1.49,0,0,0,329.09,218.37Z"/><path class="cls-14" d="M351.4,165.49a112.12,112.12,0,0,1-22,3.59.52.52,0,0,1-.35-.05.61.61,0,0,1-.21-.46c-.69-5.29-1.23-10.61-2.33-15.83a116.18,116.18,0,0,1-2.34-11.45,21.42,21.42,0,0,1,.62-8.58,7.54,7.54,0,0,1,5-5.19c.36-.12.73-.24,1.1-.34s.75-.19,1.13-.27c4.82-1,9.88,4.4,11.94,8.33a36.76,36.76,0,0,1,2.76,8.44c.84,3.5,1.71,7,2.81,10.43.7,2.19,1.59,4.34,2.28,6.54a10.91,10.91,0,0,0,.53,2c.17.34,1.55,2.17,1.94,2C353.35,165,352.38,165.23,351.4,165.49Z"/><path class="cls-4" d="M336.21,133.07a5.82,5.82,0,0,1,.89,2.5,31.69,31.69,0,0,1,.19,10c-.38,3.94-.09,8.12-.83,12-.42,2.19-2.62,3.86-4.62,2.1a2.79,2.79,0,0,1-.65-.84,3.6,3.6,0,0,1-.28-1,82.78,82.78,0,0,1-1.35-10.17,47.48,47.48,0,0,1-.13-10,6.83,6.83,0,0,1,2.25-4.57,4,4,0,0,1,3.38-.72A2.14,2.14,0,0,1,336.21,133.07Z"/><path class="cls-4" d="M313.07,163.93l-.19,0c-1.75.36-3.72.54-4.88,1.89a5,5,0,0,1-1,1.07,1.72,1.72,0,0,1-2.24-.65c-1.61-2.62,2.47-5,4.55-5.22.68-.08,1.39-.09,2.08-.19a6.57,6.57,0,0,0,1-.21,4.51,4.51,0,0,1,1-.28c1.08-.09,1.61,2.25,1,2.9A2.52,2.52,0,0,1,313.07,163.93Z"/><path class="cls-4" d="M334.66,159.89a9,9,0,0,1-4.05,1.66,102.85,102.85,0,0,1-17.35,2.38,1.11,1.11,0,0,0-.33,0h-.11v-3.41l.53-.16h0c4.38-1.3,8.62-3.1,13-4.32,2.43-.68,6.9-3,9-.37.95,1.18.46,3.06-.66,4.09A.94.94,0,0,1,334.66,159.89Z"/><path class="cls-15" d="M328.67,137.29a24.32,24.32,0,0,1,.26-2.72,6.33,6.33,0,0,1,2.64-4.35,3.72,3.72,0,0,1,4.27.24c1.61,1.23,2.42,3.66,2.68,6s.07,4.78.17,7.17c0-.6-6.78-.94-7.44-1a14.42,14.42,0,0,1-2.59.06C328.66,141,328.59,139.11,328.67,137.29Z"/><path class="cls-16" d="M455.55,159.24a16.79,16.79,0,0,1,24.83-6.76,13.6,13.6,0,0,1,22.89,6.07l.5,0a17.15,17.15,0,1,1-10.92,30.38,13,13,0,0,1-22.51-.07,17,17,0,1,1-14.79-29.6Z"/><path class="cls-17" d="M481.64,211.06a1.05,1.05,0,0,0,.64-.22,1,1,0,0,0,.42-.84V185.07c1.74-.86,6.14-3.78,9.92-12.62a1.06,1.06,0,0,0-1.95-.83c-4.36,10.17-9.28,11.72-9.33,11.73a1.06,1.06,0,0,0-.76,1v24.16c-3.83-1.39-14.41-6.3-14.41-17.9a1.06,1.06,0,0,0-2.12,0c0,15.5,17.14,20.34,17.31,20.39A.9.9,0,0,0,481.64,211.06Z"/><path class="cls-17" d="M483.81,203c12.77,0,16.6-14.08,16.64-14.23a1.06,1.06,0,1,0-2.05-.54c-.15.57-3.88,14.11-16.63,12.51a1.06,1.06,0,0,0-.26,2.11A18.48,18.48,0,0,0,483.81,203Z"/><path class="cls-17" d="M481.64,185.43a1.06,1.06,0,0,0,.44-2c-12.4-5.7-12.9-19.27-12.9-19.41a1.07,1.07,0,0,0-2.13.06c0,.15.51,15,14.15,21.28A1,1,0,0,0,481.64,185.43Z"/><path class="cls-18" d="M293.6,297.14c0-.08,0-.15,0-.23a9.94,9.94,0,0,1,17.48-6.53,14,14,0,0,1,27,1,8.36,8.36,0,0,1,12.81,5.76Z"/><path class="cls-19" d="M204.72,315.55c0-.06,0-.12,0-.18a7.79,7.79,0,0,1,13.68-5.11,11,11,0,0,1,21.09.78,6.55,6.55,0,0,1,10,4.51Z"/></svg>