<svg xmlns="http://www.w3.org/2000/svg" viewBox="0 0 214.43 221.69"><defs><style>.cls-1{fill:#5d956e;}.cls-2{fill:#b39975;}.cls-3{fill:#dbac55;}.cls-4{fill:#727272;}.cls-5{fill:#f6bf53;}.cls-6{fill:#49a8d4;}.cls-7{fill:#6fbfeb;}.cls-8{fill:#f7bb9a;}.cls-9{fill:#693d1c;}.cls-10{fill:#fff;}.cls-11{fill:#e17f4e;}.cls-12{fill:#040000;}.cls-13{fill:#e4e4e4;}.cls-14{fill:#6bbe86;}</style></defs><g id="圖層_2" data-name="圖層 2"><g id="圖層_1-2" data-name="圖層 1"><path class="cls-1" d="M29.56,187.47a7.13,7.13,0,0,0-2.89-.83,13.44,13.44,0,0,0-8.59,1.26,24.65,24.65,0,0,0-8.3,6.81,89.67,89.67,0,0,0-6.37,9.75c-.42.73-.86,1.44-1.33,2.14a1.07,1.07,0,0,1-1.18.58A1.13,1.13,0,0,1,0,206a11.06,11.06,0,0,1,0-1.82A31.87,31.87,0,0,1,1.87,196c3-7.66,8.55-12.06,16.6-13.48a23.71,23.71,0,0,1,11.91.78,2.53,2.53,0,0,0,.5.09c.27-.19.13-.38.05-.52a20.53,20.53,0,0,0-7.07-7.45,13.07,13.07,0,0,0-10-1.48,25.26,25.26,0,0,0-5.75,2.22C6.53,177,5,177.87,3.4,178.7a1.26,1.26,0,0,1-1.57,0c-.5-.46-.3-1-.07-1.57a8.44,8.44,0,0,1,1.47-2.21A16,16,0,0,1,9,170.73,26.3,26.3,0,0,1,25.31,169a17,17,0,0,1,11.41,8.4c.09.16.16.35.43.43a5.09,5.09,0,0,0,.19-2.05A49.68,49.68,0,0,1,40.8,158,12,12,0,0,1,42,155.58a1.23,1.23,0,0,1,1.13-.71,1.25,1.25,0,0,1,1.07,1A17.82,17.82,0,0,1,45,161a128.39,128.39,0,0,1-.41,16.41c0,.33,0,.66,0,1,.44.16.55-.25.73-.47,6.13-7.56,17.06-9.64,25.15-6.66a21.41,21.41,0,0,1,7.53,5c.34.34.73.7.46,1.21s-.88.4-1.37.25a29.72,29.72,0,0,0-18.75.84c-4.61,1.64-8.12,4.73-11.13,8.49a1.92,1.92,0,0,0-.17.4c.54.11.92-.21,1.34-.36a26.18,26.18,0,0,1,13.83-1.2,12.56,12.56,0,0,1,10.19,10.17c.1.44.15.85-.27,1.13s-1,0-1.35-.36a21.93,21.93,0,0,0-6.64-4.14,25.11,25.11,0,0,0-16.51-1.05A27.84,27.84,0,0,0,40,194.49a1.59,1.59,0,0,1-2-.2,9.66,9.66,0,0,0-4.16-1.94,9,9,0,0,0-7.65,1.82,14.72,14.72,0,0,0-2.77,3,78,78,0,0,0-4.48,7.3,8.12,8.12,0,0,1-1,1.51,1.13,1.13,0,0,1-2-.38,4.75,4.75,0,0,1-.33-2.21c.55-6.86,3.7-12,10.11-14.82A21,21,0,0,1,29.56,187.47Z"/><path class="cls-2" d="M37.47,219.72h-6a6.94,6.94,0,0,1-1.91-.27,2.67,2.67,0,0,1-1.72-2.15,29,29,0,0,1-.62-5.12c-.36-4.28-.69-8.56-1-12.83L26,196.88a7.23,7.23,0,0,1,.09-1.68,1.63,1.63,0,0,1,1-1.46,3.6,3.6,0,0,1,1.22-.09l13.27.13c2.15,0,4.31,0,6.46,0a9.5,9.5,0,0,1,2.69.34c.67.2.89.6.91,1.6a7.19,7.19,0,0,1,0,1c-.59,5-.87,10-1.55,15a35.57,35.57,0,0,1-1.17,5.72c-.61,1.94-1.53,3-3,2.81C43.42,220,41,219.94,37.47,219.72Z"/><path class="cls-3" d="M136.07,115.59l32.73-.26a11.81,11.81,0,0,1,1.46,0,2.28,2.28,0,0,1,.33,4.47,5.64,5.64,0,0,1-1.69.14l-45.38.37-11.32.11c-1.18,0-1.17,0-1.29,1.19q-1.05,10.83-2.13,21.67-1,10.53-2,21.06-.7,7.1-1.42,14.17a3.39,3.39,0,0,1-.11.71,2.29,2.29,0,0,1-4.52-.44,6.29,6.29,0,0,1,0-1q.9-9.15,1.81-18.28l1.56-16q.8-8.11,1.6-16.22c.19-1.9.38-3.79.56-5.69.1-1.17.09-1.18-1.14-1.18-1.06,0-2.12,0-3.17,0a2.3,2.3,0,0,1-.18-4.58,8,8,0,0,1,1.09,0Z"/><path class="cls-4" d="M128.58,197c2.54.15,5.07.48,7.63.46a17.64,17.64,0,0,1,2.17.18c1.28.17,1.41.37,1.71,1.65a16.61,16.61,0,0,0,3.2,6.61c.6.77,1.21,1.52,1.81,2.28a18.57,18.57,0,0,1,1.66,2.55,9,9,0,0,1,.86,2.13c.19.79.35,1.64-.39,2.26a2.09,2.09,0,0,1-2.3,0,13.65,13.65,0,0,1-2.17-1.32,51.15,51.15,0,0,1-5.87-4.9,29,29,0,0,0-4.9-3.78,35.56,35.56,0,0,1-5.23-3.74,4.6,4.6,0,0,1-1.44-2.06c-.38-1.29,0-1.93,1.32-2.18A8.39,8.39,0,0,1,128.58,197Z"/><path class="cls-4" d="M171.92,195.42a1.79,1.79,0,0,0,.24,0,2.19,2.19,0,0,1,2.68,1.31,11.87,11.87,0,0,0,4.1,4.23c1.17.81,2.34,1.61,3.49,2.43a6.49,6.49,0,0,1,1.77,1.81c.9,1.46.35,2.66-1.35,2.89a8.39,8.39,0,0,1-3.48-.39c-1.51-.46-3-1-4.49-1.5-3.06-1.09-6.26-1.62-9.39-2.44a17.29,17.29,0,0,1-3.42-1.25,4,4,0,0,1-2.33-3.06c-.09-.55-.23-1.1-.31-1.66-.13-.83.16-1.23,1-1.33,1.45-.18,2.9-.34,4.35-.46,2.38-.21,4.76-.37,7.14-.55Z"/><path class="cls-5" d="M116.73,99.33c2.88,0,5.76,0,8.64,0a22.7,22.7,0,0,1,3.39.29A6.94,6.94,0,0,1,133,102a30.92,30.92,0,0,1,3.22,4.41,102.48,102.48,0,0,1,8.64,17.94,47,47,0,0,1,2.79,13c.26,3.32.66,6.62.8,9.94a83.47,83.47,0,0,1-.71,14.57c-1.36,10.33-3.17,20.59-5,30.85a56.67,56.67,0,0,1-1.22,5.58,4.25,4.25,0,0,1-.94,1.81,3.32,3.32,0,0,1-3,.85c-2.1-.25-4.19-.5-6.28-.78-1.41-.18-2.81-.4-4.21-.61a8,8,0,0,1-2.1-.6,3.73,3.73,0,0,1-2.59-4,41.7,41.7,0,0,1,1.27-9.5,137.52,137.52,0,0,0,3.56-20.84c.45-4.11.92-8.22,1.34-12.33a32.57,32.57,0,0,0,.16-4.74,7.72,7.72,0,0,0-2-4.84,13.93,13.93,0,0,0-2.67-2.29c-2.39-1.61-4.7-3.32-7-5.09a39,39,0,0,1-6.23-5.95,25.88,25.88,0,0,1-5-11A58.57,58.57,0,0,1,104.16,103c0-.37,0-.73,0-1.1A2.62,2.62,0,0,1,107,98.9c1.58,0,3.16.12,4.74.14s3.33,0,5,0Z"/><path class="cls-5" d="M179,162.6a150.78,150.78,0,0,1-1,15.89c-.53,5.28-1.29,10.53-2.11,15.78a14.2,14.2,0,0,1-.55,2.49,3.72,3.72,0,0,1-3.34,2.61c-.36,0-.72.08-1.09.09a62.35,62.35,0,0,1-11.74-.86c-.28,0-.55-.13-.83-.2a3.14,3.14,0,0,1-2.6-3.22,25,25,0,0,1,.29-4.24,166.17,166.17,0,0,0,1.23-17.83c0-3.32.23-6.64.08-10a86.64,86.64,0,0,0-3.14-18.78A77.11,77.11,0,0,0,149,130.21a13.38,13.38,0,0,1-1.2-3.31,2.27,2.27,0,0,1,1.19-2.77,6.85,6.85,0,0,1,2.24-.92,47.59,47.59,0,0,0,9.43-3.52,20.8,20.8,0,0,1,2.38-.91c2.31-.71,3.44-.31,4.73,1.74a61.07,61.07,0,0,1,6.69,14,96.24,96.24,0,0,1,4.44,23C179,159.19,179,160.9,179,162.6Z"/><path class="cls-6" d="M203.32,85.25c0,.31.05.68-.37.77s-.49-.22-.64-.46c-2.13-3.3-5.35-3.91-8.92-3.61-.77.07-.9.06-1-.65a12.71,12.71,0,0,0-2.4-5.65,31.88,31.88,0,0,0-5.69-6.14A149.63,149.63,0,0,0,169,58.33a59.51,59.51,0,0,0-9.43-4.5q-5.81-2.47-11.83-4.45c-1.4-.45-1.4-.53-1.19-2a43.07,43.07,0,0,0,.65-7.26,19.91,19.91,0,0,0-.55-4.21,8.73,8.73,0,0,0-2.87-4.55c-.27-.24-.86-.39-.58-.9s.74-.25,1.12-.2a58.23,58.23,0,0,1,14,3.83,98.43,98.43,0,0,1,28,17.31,50.56,50.56,0,0,1,14.95,23.23A57.94,57.94,0,0,1,203.32,85.25Z"/><path class="cls-7" d="M116.19,102.22c-2.33-.27-4.55-.49-6.75-.8-1.33-.2-2.68-.1-4-.3-1.53-.24-1.82-.5-1.63-2.07.22-1.81.56-3.6.87-5.4a191.86,191.86,0,0,1,6.54-25A145.8,145.8,0,0,1,118,50.4,60.94,60.94,0,0,1,126,37.13,22.21,22.21,0,0,1,131.86,32a14.08,14.08,0,0,1,4.78-1.73,3.85,3.85,0,0,1,1-.07c.61.05.84.46.61,1a2.26,2.26,0,0,1-.11.22,81,81,0,0,0-7.62,17.05A91.26,91.26,0,0,1,126,59.29a95,95,0,0,0-7.81,27.12,59.8,59.8,0,0,0-.85,10.77c0,1.21.15,2.43.17,3.64S117.26,102.26,116.19,102.22Z"/><path class="cls-8" d="M186.9,14.61a9.2,9.2,0,0,1-1,4.11c-.72,1.45-1.43,2.91-2.15,4.36-.85,1.72-1.45,3.45-.48,5.34a.74.74,0,0,1-.17,1,.75.75,0,0,1-.91,0,13.12,13.12,0,0,1-1.34-.84.62.62,0,0,0-1,.12c-.76.95-1.55,1.88-2.31,2.83A15.62,15.62,0,0,1,175,34.09a6,6,0,0,1-5.54.84c-.69-.18-1.43-.87-2-.49s-.78,1.19-1.17,1.81A7,7,0,0,0,165,39.51c0,.6-.36.74-.86.77a13.34,13.34,0,0,1-3-.16,15.61,15.61,0,0,1-4.83-1.6,30.88,30.88,0,0,1-8.47-6.46c-.75-.82-.8-.85-.24-1.78,3.82-6.41,7.48-12.92,12-18.86A35.91,35.91,0,0,1,165,5.64,10,10,0,0,1,175.55,4a32.42,32.42,0,0,1,9.12,5.73A6.11,6.11,0,0,1,186.9,14.61Z"/><path class="cls-9" d="M179.75,17.88a4.12,4.12,0,0,1,.67.24,9.24,9.24,0,0,1,2.4,1.81c.33.35.57.74.21,1.18s-.72.28-1.1.07a16.73,16.73,0,0,1-2.7-2,.71.71,0,0,1-.21-.88C179.16,18,179.46,18,179.75,17.88Z"/><path class="cls-10" d="M181.39,22.83a.86.86,0,0,1-1.1.8,3.47,3.47,0,0,1-2.11-1.52.87.87,0,0,1,0-1,.83.83,0,0,1,1-.26,4,4,0,0,1,2,1.34A1.16,1.16,0,0,1,181.39,22.83Z"/><path class="cls-11" d="M178.9,29.83c-.07.39-.33.55-.62.43a4.86,4.86,0,0,1-2.31-2,.44.44,0,0,1,.15-.54.42.42,0,0,1,.55-.08c.73.62,1.44,1.27,2.14,1.92C178.89,29.6,178.88,29.75,178.9,29.83Z"/><path class="cls-9" d="M195.18,16c.16,1.77-2,3.84-4.48,3.64a9.09,9.09,0,0,1-3.54-1.21,44.67,44.67,0,0,1-7.06-4.74,10.61,10.61,0,0,1-1-.88c-.4-.41-.7-.4-1.09,0-.92,1-1.88,2-2.82,3a1.29,1.29,0,0,1-1.64.33c-1.24-.54-1.42-1-.87-2.26.37-.85.21-1.21-.67-1.53a2.7,2.7,0,0,0-1.9.13A6.54,6.54,0,0,0,168,13.89c-.76.72-1.51,1.47-2.27,2.2a17.59,17.59,0,0,1-3.93,3,6.13,6.13,0,0,1-4.48.56,3,3,0,0,1-2.52-3.1,7.44,7.44,0,0,1,.26-2.05A19.16,19.16,0,0,1,164.29,2c4.46-2.63,9.09-2.59,13.73-.38a21.17,21.17,0,0,1,3.72,2.3,110.77,110.77,0,0,0,9.92,6.59A7.36,7.36,0,0,1,194.3,13,5.58,5.58,0,0,1,195.18,16Z"/><circle class="cls-12" cx="180.08" cy="22.47" r="1.07"/><path class="cls-13" d="M120,74.28l1.35-3.87c2.09-6,4.22-11.92,6.58-17.78A35.09,35.09,0,0,1,130.75,47a23.22,23.22,0,0,1,1.53-2,4,4,0,0,1,4.65-1.46,42.76,42.76,0,0,1,6.28,2.26c1.32.62,2.61,1.3,3.89,2a21.36,21.36,0,0,0,5.05,2.06A13.47,13.47,0,0,1,156,51.27a1.54,1.54,0,0,0,1.9-.13,5.45,5.45,0,0,0,1.67-2.2c1.32-2.74,2.62-5.49,3.94-8.23.37-.77.77-1.51,1.19-2.26a6.83,6.83,0,0,1,.63-.89,1.39,1.39,0,0,1,1.61-.54,1.51,1.51,0,0,1,.95,1.55,5.44,5.44,0,0,1-.23,1.19c-1,3.39-2.12,6.72-3.36,10-.18.5-.39,1-.56,1.48s-.62,1.22-.45,1.86,1,.67,1.46,1a3.74,3.74,0,0,1,1.91,3.19,11.83,11.83,0,0,1-.61,4.3c-1,3-2.19,5.85-3.41,8.72-2.25,5.3-4.54,10.58-6.33,16.06a47.79,47.79,0,0,0-1.94,8.52,10.24,10.24,0,0,0,.8,5.7,25.15,25.15,0,0,0,3.38,5.33,96.53,96.53,0,0,1,6.4,8.41,17.72,17.72,0,0,1,2.25,4.83,3.28,3.28,0,0,1-1.41,3.82,9.33,9.33,0,0,1-2.14,1.13q-9.64,3.72-19.3,7.4a43.64,43.64,0,0,1-5.13,1.5,13.85,13.85,0,0,1-4.11.35,5.7,5.7,0,0,1-3.79-1.71,12.3,12.3,0,0,1-2-2.57A153.33,153.33,0,0,1,118,105.54a34.42,34.42,0,0,1-1.41-17.85c.41-2.44.87-4.87,1.51-7.26.25-.93.23-.94-.67-1.34-2.31-1-4.61-2-6.86-3.14a7.42,7.42,0,0,1-1.65-1,1.45,1.45,0,0,1-.44-2c.25-.55.51-1.1.8-1.64a1.31,1.31,0,0,1,1.81-.75,7.93,7.93,0,0,1,1,.37Z"/><path class="cls-2" d="M183.77,105a27.37,27.37,0,0,1-9.73-1.1,9.63,9.63,0,0,1-6.58-12.07,12.59,12.59,0,0,1,6.77-8.59c.81-.39.84-.47.62-1.31-.4-1.49-.84-3-1.26-4.44-.09-.31-.21-.62-.28-.93-.22-1,.09-1.43,1.11-1.6a7.91,7.91,0,0,1,1-.07c4.61-.24,9.24-.23,13.85-.63a16.18,16.18,0,0,1,2.31,0,1.74,1.74,0,0,1,1.89,2,19.38,19.38,0,0,1-.65,3.7c-.18,1-.38,1.91-.56,2.86a.77.77,0,0,0,.5,1,21,21,0,0,1,6,4.92c3,3.28,2.78,10.19-1.92,13.45a14.49,14.49,0,0,1-6.11,2.24A61.19,61.19,0,0,1,183.77,105Z"/><path class="cls-7" d="M127.13,58.24a51.67,51.67,0,0,1,3-17.15A25.77,25.77,0,0,1,135,32.86a7.69,7.69,0,0,1,4.72-2.78A6.06,6.06,0,0,1,146,32.7,12.91,12.91,0,0,1,148,41.5a122.6,122.6,0,0,1-2.22,13,33.26,33.26,0,0,0-.57,4.21c-.06.79,0,.77.8.73a54,54,0,0,0,11.2-2.14,53.56,53.56,0,0,1,11-1.78c2-.1,2-.4,2.32,1.9s.65,4.41.79,6.64a13.82,13.82,0,0,1,0,1.82A2.1,2.1,0,0,1,169.64,68l-5.4,1.46a57.68,57.68,0,0,0-9.51,3.67,42.49,42.49,0,0,1-13.59,4,16.34,16.34,0,0,1-5.08-.12,8.24,8.24,0,0,1-4.71-2.81A16.71,16.71,0,0,1,128,66.57,34.25,34.25,0,0,1,127.13,58.24Z"/><path class="cls-8" d="M192.75,84.8l-2.46-.3a2.59,2.59,0,0,1-1.16-.33.62.62,0,0,1,0-1.15,1.92,1.92,0,0,1,.56-.22,42.45,42.45,0,0,1,7.69-1,7.79,7.79,0,0,1,3.19.69,5.05,5.05,0,0,1,2.68,6.3,7.42,7.42,0,0,1-1.14,2.13,25.22,25.22,0,0,1-5.68,5.28,4.22,4.22,0,0,1-1.52.74.67.67,0,0,1-.77-.18.74.74,0,0,1,0-.81,4.2,4.2,0,0,1,1-1.19c.57-.52,1.15-1,1.7-1.56.37-.36.69-.78,1.13-1.29a2.52,2.52,0,0,0-1.36.48c-1.41.72-2.81,1.45-4.29,2a3.11,3.11,0,0,1-1.53.3c-.61-.08-.82-.54-.46-1a3.49,3.49,0,0,1,1.12-.93c.89-.56,1.79-1.11,2.67-1.68a3.67,3.67,0,0,0,1-.85c-.43-.18-.71.13-1,.28a24.45,24.45,0,0,1-4.75,1.84,5.82,5.82,0,0,1-.83.17c-.33,0-.68,0-.82-.36a.78.78,0,0,1,.29-.87,7.07,7.07,0,0,1,1.39-1,39.1,39.1,0,0,0,3.84-2.49c-.34-.22-.57,0-.8,0l-3.22,1.11a4.34,4.34,0,0,1-1.43.24c-.29,0-.59,0-.72-.33a.67.67,0,0,1,.32-.84,9.84,9.84,0,0,1,1-.62c1.25-.67,2.57-1.2,3.75-2C192.46,85.25,192.74,85.2,192.75,84.8Z"/><path class="cls-8" d="M183.21,67.6c.19.34.36.69.56,1a23.94,23.94,0,0,1,1.74,3.47,2.42,2.42,0,0,1,.26,1.18.68.68,0,0,1-1.06.55,3.45,3.45,0,0,1-1-1c-.94-1.16-1.75-2.43-2.79-3.56-.22.39.09.62.21.88.49,1,1,2,1.52,3a4,4,0,0,1,.3.92.51.51,0,0,1-.25.62.52.52,0,0,1-.66-.15,9.46,9.46,0,0,1-.66-.87c-.86-1.23-1.7-2.46-2.57-3.69a3.24,3.24,0,0,0-1.06-1c.5.95,1,1.88,1.51,2.84.27.54.52,1.1.74,1.66a.52.52,0,0,1-.23.73.56.56,0,0,1-.67-.14,10.21,10.21,0,0,1-.84-1q-1.38-2-2.94-3.87a8.37,8.37,0,0,0-3.82-2.7,1.61,1.61,0,0,1-1.21-1.68c-.18-2.34-.46-4.67-.7-7,0-.28-.09-.56-.1-.84,0-.76.13-1,.86-1,3.15,0,6.13.54,8.58,2.73a19.19,19.19,0,0,1,2.95,3.22c1.39,1.94,2.77,3.9,4.14,5.86a12.13,12.13,0,0,1,1.47,2.78c.13.34.23.75-.14,1a.79.79,0,0,1-1.08-.26c-.42-.49-.81-1-1.2-1.52A8.48,8.48,0,0,0,183.21,67.6Z"/><path class="cls-3" d="M147.35,102.64l61.81.4a14.17,14.17,0,0,1,1.46,0,3,3,0,0,1,2.58,3.21,2.92,2.92,0,0,1-2.61,3c-1.33.08-2.67,0-4,0-.29,0-.57,0-.85,0-.89,0-.91,0-.83,1,.16,2,.35,3.89.52,5.84q.95,10.65,1.89,21.3.9,10.23,1.83,20.48c.61,6.87,1.2,13.75,1.81,20.62s1.23,13.75,1.84,20.62q.81,9.23,1.6,18.46a6.22,6.22,0,0,1,0,1.22,2.94,2.94,0,0,1-2.56,2.8,2.8,2.8,0,0,1-2.86-2.24,26.16,26.16,0,0,1-.46-4.05q-1.22-13.44-2.38-26.87-1-11.73-2.06-23.47T202,141.58q-1-11.67-2-23.34c-.23-2.58-.47-5.16-.7-7.74-.1-1.17-.1-1.19-1.15-1.2l-12.65-.08-90.29-.55c-1.71,0-1.5-.28-1.73,1.74q-1.84,16.22-3.64,32.46-1.52,13.66-3,27.32Q84.88,187,83,203.87c-.43,3.88-.85,7.76-1.29,11.63a7,7,0,0,1-.21,1.21A2.75,2.75,0,0,1,78.33,219,3,3,0,0,1,76,215.8c0-1.36.22-2.72.37-4.07L79.29,186q1.51-13.59,3-27.19,1.27-11.42,2.54-22.86c.94-8.38,1.9-16.77,2.82-25.15.28-2.66.48-2.17-1.66-2.24-.73,0-1.47,0-2.19-.06a3,3,0,0,1-2.62-3,3.05,3.05,0,0,1,2.48-3.19,10.7,10.7,0,0,1,1.7-.06Z"/><path class="cls-14" d="M33.5,191.74a4.21,4.21,0,0,0-1.72-.5,8,8,0,0,0-5.1.75,14.63,14.63,0,0,0-4.93,4A52.78,52.78,0,0,0,18,201.83c-.25.43-.51.85-.79,1.27a.62.62,0,0,1-.7.34.67.67,0,0,1-.52-.68,6.49,6.49,0,0,1,0-1.08,18.57,18.57,0,0,1,1.09-4.87,12.12,12.12,0,0,1,9.85-8,14.17,14.17,0,0,1,7.08.46,1.88,1.88,0,0,0,.29.06c.16-.12.08-.23,0-.31a12.22,12.22,0,0,0-4.2-4.43,7.74,7.74,0,0,0-5.94-.88A14.7,14.7,0,0,0,20.76,185c-.94.49-1.86,1-2.8,1.5-.3.16-.64.28-.93,0s-.18-.62,0-.93a5,5,0,0,1,.87-1.32,9.43,9.43,0,0,1,3.41-2.49,15.61,15.61,0,0,1,9.71-1,10.1,10.1,0,0,1,6.77,5c.06.09.09.2.26.25a3.13,3.13,0,0,0,.11-1.22,29.75,29.75,0,0,1,2.05-10.58,6.9,6.9,0,0,1,.71-1.41.74.74,0,0,1,.67-.43c.35,0,.52.29.63.59a10.43,10.43,0,0,1,.47,3,77.43,77.43,0,0,1-.24,9.75,5.61,5.61,0,0,0,0,.58c.26.1.33-.14.43-.28a13.72,13.72,0,0,1,14.94-4,12.62,12.62,0,0,1,4.47,3c.21.2.43.41.27.72s-.52.23-.81.15a17.53,17.53,0,0,0-11.13.5,14.84,14.84,0,0,0-6.61,5,.9.9,0,0,0-.11.24c.32.06.55-.13.8-.22a15.52,15.52,0,0,1,8.21-.71,7.44,7.44,0,0,1,6.05,6c.06.26.1.5-.16.67s-.58,0-.8-.21A12.63,12.63,0,0,0,54,194.84a14.93,14.93,0,0,0-9.8-.63c-1.57.4-3.25-.6-4.65.24a1.47,1.47,0,0,1-1.41.29c-1.21-.32-1.21.09-2.13-.1a5.32,5.32,0,0,0-4.55,1.08,8.62,8.62,0,0,0-1.65,1.76,45.72,45.72,0,0,0-2.65,4.34,5.6,5.6,0,0,1-.61.89.67.67,0,0,1-1.19-.22,3,3,0,0,1-.2-1.31c.33-4.08,2.2-7.11,6-8.81A13,13,0,0,1,33.5,191.74Z"/></g></g></svg>