<svg id="圖層_1" data-name="圖層 1" xmlns="http://www.w3.org/2000/svg" viewBox="0 0 500 440"><defs><style>.cls-1{fill:#d6c7b9;}.cls-2{fill:#c5bba0;}.cls-3{fill:#af6d68;}.cls-4{fill:#ffbda1;}.cls-5{fill:#77523e;}.cls-6{fill:#a29882;}.cls-7{fill:#aeaf96;}.cls-8{fill:#fff;}.cls-9{fill:#406668;}.cls-10{fill:#798080;}.cls-11{fill:#757e7d;}.cls-12{fill:#909d9b;}.cls-13{fill:#705480;}.cls-14{fill:#7c564f;}.cls-15{fill:#d5857a;}.cls-16{fill:#807c7a;}.cls-17{fill:#9d8984;}.cls-18{fill:#b6aca4;}.cls-19{fill:none;stroke:#9d8984;stroke-miterlimit:10;stroke-width:2px;}.cls-20{fill:#ae945c;}.cls-21{fill:#bea264;}.cls-22{fill:#95804f;}.cls-23{fill:#bcbeaa;}.cls-24{fill:#cfd1bb;}</style></defs><path class="cls-1" d="M434.78,126.52c-5.33-4-8.66-19.34-2-24.67s2-11.33,2-11.33c-.51-2.06-58.63-2.06-59.14,0,0,0-4.67,6,2,11.33s3.33,20.67-2,24.67-20,2.66-18,28,10.54,53.66,15.94,73.83S379,270.52,377,279.18s2.48,16,28.24,16,30.24-7.35,28.24-16-2-30.66,3.39-50.83,13.94-48.5,15.94-73.83S440.12,130.52,434.78,126.52Z"/><path class="cls-1" d="M149.32,148.52c-.5-3.5,2-12,6-12s3-4,3-9.5c0-4.25-59.85-4.25-59.85,0,0,5.5-1,9.5,3,9.5s6.5,8.5,6,12S88,153.52,90,203s8,47,20,48a170.37,170.37,0,0,0,18.42.34,170.51,170.51,0,0,0,18.43-.34c12-1,18,1.5,20-48S149.82,152,149.32,148.52Z"/><path class="cls-2" d="M101.76,180c-3-5.5-8.5-10-9-12.5s1-5,1.5-10-5-4.32-7-4.5c-4-.37-18.61-.37-22.62,0-2.06.18-7.5-.5-7,4.5s2,7.5,1.5,10-6,7-9,12.5-3,19,0,30.5,12.5,32.5,13,38.5c.42,5,3.62,8.47,12.81,8.47s12.39-3.44,12.81-8.47c.5-6,10-27,13-38.5S104.76,185.52,101.76,180Z"/><path class="cls-3" d="M291.69,354.77l3.53,0,.07-.07c1.39-1.73.62-7.9.62-7.9s7.12,7.35,9.64,7.86c3.28.66,14.72-.16,18.17-.2s6.56-1.8,5.84-4.91-4.22-5.85-8.41-7.88c-3-1.46-5-3.89-8.38-7.62-5-5.49-7.4-7.09-9.89-8.31-6.28-3.07-10.34.26-10.34.26a70.22,70.22,0,0,0-2.37,10.87c-.51,3.51-.11,12.47.26,15.53A3.63,3.63,0,0,0,291.69,354.77Z"/><path class="cls-4" d="M290.84,244.92s-2.74,21.17-.35,40.77,1.95,38.38,2.75,42.07,1,7.16,6.74,11,11.83,4.38,16.32,2.59c2.23-.88-8.55-11.13-10.84-14.36s6.65-56.43,8.87-78.09S296.52,223.85,290.84,244.92Z"/><path class="cls-5" d="M289.6,195.72c-15.16-3.44-37.28,16.64-32,26.63,4.18,7.83,29.29,23.29,29.29,23.29s-5.41,57.12.88,63.61,22.4,6.08,25.32,2.59,13.07-59,12.71-71.91S304.24,199.05,289.6,195.72Z"/><path class="cls-3" d="M202.29,354.77l-3.53,0-.07-.07c-1.39-1.73-.62-7.9-.62-7.9s-7.12,7.35-9.64,7.86c-3.28.66-14.72-.16-18.17-.2s-6.56-1.8-5.84-4.91,4.22-5.85,8.41-7.88c3-1.46,5-3.89,8.38-7.62,5-5.49,7.4-7.09,9.89-8.31,6.28-3.07,10.34.26,10.34.26a70.22,70.22,0,0,1,2.37,10.87c.51,3.51.11,12.47-.25,15.53A3.68,3.68,0,0,1,202.29,354.77Z"/><path class="cls-4" d="M203.14,244.92s2.74,21.17.35,40.77-1.94,38.38-2.75,42.07-1,7.16-6.74,11-11.83,4.38-16.32,2.59c-2.22-.88,8.55-11.13,10.84-14.36s-6.65-56.43-8.87-78.09S197.46,223.85,203.14,244.92Z"/><path class="cls-5" d="M204.38,195.72c15.16-3.44,37.28,16.64,32,26.63-4.18,7.83-29.28,23.29-29.28,23.29s5.4,57.12-.89,63.61-22.4,6.08-25.32,2.59-13.07-59-12.71-71.91S189.74,199.05,204.38,195.72Z"/><path class="cls-6" d="M288.59,355.58c0,5.59-18.62,6.25-41.6,6.25s-41.6-.66-41.6-6.25S224,345.44,247,345.44,288.59,350,288.59,355.58Z"/><path class="cls-7" d="M240.52,238.59V350.14h0c.14,2,3,3.6,6.45,3.6s6.31-1.6,6.45-3.6h0V238.59Z"/><path class="cls-8" d="M275.39,185.57c-5,8-25.62,10-35.71,10-6.61,0-16.7.57-23-4.9s-1-20.2-2.41-25.68c-2.47-9.31-6.09-23.72-7.38-27.57-2-6.13-14.4-22.14-8.79-30.82S226.3,90.43,226.3,90.43s19.34-2.92,29.92-2.24,28.38,4.46,30.13,13.68c2.22,11.63-10.08,55.06-11.1,61.19C274.87,165.35,278.31,180.88,275.39,185.57Z"/><path class="cls-9" d="M218.91,93.16c.87,1.47.67,13.21,1.33,18.91S223.3,132,223.3,132s8.55-.82,18.24-1.3c8.77-.44,17.75-.45,17.75-.45s3.51-18.66,2.64-25.68-2.2-15.81-2.2-15.81,5-.52,7.54,1.12c1.08.71,2.67,6.21,3.11,10.2s-.33,15.24-.55,18.31-.34,12.31-.34,12.31,10.87,4.59,10,10.74-1.75,21.29-.87,28.31,9.06,40.84,17.06,59.24c6.66,15.31,8.66,37.94,8.66,37.94s-32.62,12-53.25,11.32c-9-.29-20.2-2.62-29.29-4-11.76-1.78-31.29-6-31.29-6s9.35-39.23,12-55.91,11.15-40.84,10.27-47-3.22-13.46-4.1-19.61,5-12.43,5-12.43-3.08-19.54-3.08-22.83-.14-11.56.44-13.9C212.1,95.14,217.81,92.51,218.91,93.16Z"/><path class="cls-8" d="M199,105.87c-3.84,3.84-11,17-13.71,26.33s-6.3,16.93-5.86,20.44,19.31,5.42,22.24,5.42,12-19.2,11.7-24-2.85-18.87-5.59-23.26S202.81,102,199,105.87Z"/><rect class="cls-10" x="74.82" y="279.4" width="13.31" height="152.13"/><rect class="cls-10" x="113.42" y="238.13" width="13.31" height="141.12"/><rect class="cls-10" x="415.17" y="279.4" width="13.31" height="152.13"/><rect class="cls-11" x="376.56" y="238.13" width="13.31" height="141.12"/><path class="cls-12" d="M449.78,284.72,408.6,213.2s-6.06-11.23-9.41-14.15c-6.65-5.81-22.63-5.33-33.94-5.33H138.05c-11.31,0-27.29-.48-33.94,5.33C100.75,202,94.7,213.2,94.7,213.2L53.52,284.72s-5.33,10.65,4,13.32c3.88,1.1,384.4,1.1,388.28,0C455.11,295.37,449.78,284.72,449.78,284.72Z"/><path class="cls-13" d="M231.68,28.83s-11-15.38,1.14-23.68S264.44,9,261.59,21.69s-13.86,14.36-13.86,14.36Z"/><path class="cls-4" d="M252.19,92.1,248,73.31l-20.61,3.26.44,18.64s5.32,18.2,13.31,17.31S252.19,92.1,252.19,92.1Z"/><path class="cls-4" d="M266.83,58.38c.86-5.59-3.48-8.53-6-7.55a43.81,43.81,0,0,0-9.8-20.48c-13-15.31-32.12-4.87-38.19,11a36.92,36.92,0,0,0-2.45,13.18c-2.78-.75-6.05.33-6.63,3.45S205,64.14,207,66.35c1.46,1.63,3.87,3.31,6.12,3.23.08.23.16.46.25.69,1.83,4.94,6,16.57,17.44,20.13s16-1.44,20.41-7.14c3.35-4.37,6.84-11.08,8-16A10.77,10.77,0,0,0,266.83,58.38Z"/><path class="cls-14" d="M244.55,78.38c-4.48,1.23-9.4,4.27-13.81,1.1-.79-.57-1.6.63-1,1.29,3.6,3.94,13.17,3.44,15.16-2A.29.29,0,0,0,244.55,78.38Z"/><path class="cls-13" d="M226.19,62.21c-.3-.71-1.77-.4-2.33-.33a4.25,4.25,0,0,0-2.41,1.17c-.65.64.31,1.57,1,1a4.09,4.09,0,0,1,2.63-.68C225.77,63.33,226.54,63,226.19,62.21Z"/><path class="cls-13" d="M244,61.23c.31-.71,1.77-.4,2.33-.33a4.22,4.22,0,0,1,2.41,1.17c.65.64-.31,1.56-1,1a4.08,4.08,0,0,0-2.62-.68C244.41,62.35,243.63,62,244,61.23Z"/><path class="cls-14" d="M249.52,69.48A3.55,3.55,0,1,1,246,65.92,3.55,3.55,0,0,1,249.52,69.48Z"/><path class="cls-14" d="M228.67,70.36a3.55,3.55,0,1,1-3.55-3.55A3.55,3.55,0,0,1,228.67,70.36Z"/><path class="cls-15" d="M238.12,73.88a1.29,1.29,0,0,0-.58-.12c.6,0-.66-.39-.79-.42-.41-.08-.81-.21-1.21-.32a4.15,4.15,0,0,0-.78-.16l-.21,0a14.87,14.87,0,0,1,.67-1.79,8.09,8.09,0,0,0,.26-3.32,1,1,0,0,0-2.08,0c-.26,2.17-3.17,5.24-1.08,7.31,1,1,2.27,1,3.64,1.12a2.07,2.07,0,0,0,1.79-.35c.39-.33.34-.75.59-1.07A.5.5,0,0,0,238.12,73.88Z"/><path class="cls-15" d="M245.05,88.92c-2.5.45-4.75,1.6-7.31,1.87-2.37.25-4.58-.46-6.9-.6a.54.54,0,0,0-.27,1c3.88,2.35,12.22,2.48,14.81-1.85A.29.29,0,0,0,245.05,88.92Z"/><path class="cls-13" d="M256.87,29.65c-3.06-5.61-10-10.67-13-11.44a14.6,14.6,0,0,0-12.67,3s-5.63-.2-7.3.49a21.25,21.25,0,0,0-8.17,6.57c-4.88,6.46-8.07,15.21-7.83,23.33,0,.86,2.39,10.13,3.36,10.25,1,1.21,5.58-2.68,6.55-3.78,4.54-3.11,6.09-7.18,8-8.15,9.24,11.68,32.59,12,33.28,10.14.87-2.4,2.94-7,3-10C262.61,49.48,259.93,35.27,256.87,29.65Z"/><path class="cls-4" d="M182.76,145.18s-5.57,9-2.9,19.7c2.06,8.27,30.49,28.72,32.83,31.06s11.63-13.89,11.63-13.89-18.84-16.61-19.61-20.28,2.92-8.48,0-13.75c-1.19-2.13-7.5-6.14-11.1-6.21C188.28,141.7,182.76,145.18,182.76,145.18Z"/><path class="cls-16" d="M247,216.25c-11.6,0-25.68,9.11-25.68,9.11l.11,18.93C222.57,250.83,233.58,256,247,256s24.42-5.13,25.57-11.67l.11-18.93S258.6,216.25,247,216.25Z"/><path class="cls-17" d="M247,194c-25.87,0-57.24,17.5-57.24,17.5l.23,9.28c2.57,12.57,27.1,22.42,57,22.42s54.44-9.85,57-22.42l.23-9.28S272.86,194,247,194Z"/><path class="cls-18" d="M304.23,211.5c0,13.59-25.63,24.6-57.24,24.6s-57.24-11-57.24-24.6,25.63-24.6,57.24-24.6S304.23,197.92,304.23,211.5Z"/><path class="cls-19" d="M285.59,209.76c0,8.19-17.28,14.84-38.6,14.84S208.4,218,208.4,209.76s17.27-14.84,38.59-14.84S285.59,201.56,285.59,209.76Z"/><path class="cls-20" d="M250.09,185.48h-25s.18,19.86,5.08,24.74c3.68,3.67,9.19,5.82,16.73,5.82s13.05-2.15,16.73-5.82c4.91-4.88,5.08-24.74,5.08-24.74Z"/><path class="cls-21" d="M268.85,185.48c0,3.33-9.79,6-21.86,6s-21.86-2.71-21.86-6,9.79-6,21.86-6S268.85,182.14,268.85,185.48Z"/><path class="cls-22" d="M247,183.09c-10,0-18.07,2.24-18.07,5a1.61,1.61,0,0,0,.31.91c4,1.53,10.44,2.53,17.76,2.53s13.8-1,17.77-2.53a1.67,1.67,0,0,0,.3-.91C265.06,185.33,257,183.09,247,183.09Z"/><path class="cls-22" d="M259.37,197.4a10,10,0,0,0-5.27-.14,25,25,0,0,1-11-.34.83.83,0,0,0-.44,1.6c5.38,1.53,11.45,1.69,16.72-.48A.33.33,0,0,0,259.37,197.4Z"/><path class="cls-22" d="M258,201.66a17.33,17.33,0,0,0-3.89,1.14c-1.87.57-4.35.35-6.31.51a.63.63,0,0,0,0,1.25c3.71.29,7.86,1.18,10.56-2.05C258.56,202.21,258.43,201.62,258,201.66Z"/><path class="cls-4" d="M222.2,180.17s10.58-.94,12.93,2.82c2.12,3.39-.94,5.17-.94,5.17s3.17,4,5.59,4.05c2.91.07,6.28,3.47,3.57,4.88,3,1.65,2.48,4.24,1,4.94a19.73,19.73,0,0,0-3.06,2.35s.62,2.56-.47,3.06c-2.59,1.17-4.06,2.89-6.11,3.52a13,13,0,0,1-8-.7c-9.17-4.23-17.87-14.58-17.87-18.81S222.2,180.17,222.2,180.17Z"/><path class="cls-15" d="M225.34,197.28c4.67,1.44,12.21,9,17.2,5.73.2-.14.42.12.31.31-3.33,6-15.28-2.11-17.85-5.6C224.84,197.5,225.1,197.21,225.34,197.28Z"/><path class="cls-15" d="M223.33,184.71c4.4-1.05,8.25.38,12.14,2.41a.67.67,0,0,1-.52,1.21c-3.66-1.23-7.7-3.06-11.57-3.29C223.2,185,223.14,184.76,223.33,184.71Z"/><path class="cls-15" d="M226.65,191.85a.26.26,0,0,1,.32-.18,6.3,6.3,0,0,1,2.08,1.16,25.49,25.49,0,0,0,3.9,1.8c3.24,1.34,7,2.82,10.51,1.75a.5.5,0,0,1,.26,1c-3.65,1.23-7.68-.06-11.12-1.42C231.14,195.35,226,194.16,226.65,191.85Z"/><path class="cls-15" d="M222.08,202.15c4.1,3.3,9.57,6.58,14.93,6.81a.6.6,0,0,1,0,1.19,20.65,20.65,0,0,1-9.27-2.83c-2.4-1.26-5.05-2.24-5.93-5C221.75,202.14,222,202.06,222.08,202.15Z"/><path class="cls-4" d="M296.12,137.81s4,15.53,4,23.08-6.43,27.16-9.36,34.19-15.08-4.57-16.38-8,6.05-26.26,4.88-33.28l-1.77-10.65Z"/><path class="cls-4" d="M291.68,192.84c3.1-5.62-1.91-9-5.77-11.1s-8.24-1.87-11.51-2.16c-3.75-.33-8.21-5.58-11.43-1.31A5.5,5.5,0,0,0,263,184a6.65,6.65,0,0,0,1,1.07,27.87,27.87,0,0,0-9.26,5.75c-1.49,1.44-1,4.63,1.46,4.63.38,0,.76,0,1.14,0a11,11,0,0,0-2.56,3.62c-.78,1.91,1,3.57,2.86,3.41.8-.08,1.6-.21,2.39-.37a6.27,6.27,0,0,0-.42.63,2.33,2.33,0,0,0,1.69,3.6,21.33,21.33,0,0,0,4.81-.19,2,2,0,0,0,1.67.85c5.29.11,11.21-2.14,15.64-4.91C285,201.09,290.67,194.67,291.68,192.84Z"/><path class="cls-15" d="M276.72,182.79c-3.85-1.25-8.65-.26-12.22,1.46a.4.4,0,0,0,.22.75,72.44,72.44,0,0,1,11.92-1.84C276.83,183.15,276.94,182.86,276.72,182.79Z"/><path class="cls-15" d="M276.56,187.5c-3.51-1.48-6.89.16-10.14,1.61-3.08,1.39-7.15,3-8.83,6.09-.22.41.21.91.61.59,4.86-3.88,12.1-7.32,18.32-7.86C276.76,187.91,276.75,187.58,276.56,187.5Z"/><path class="cls-15" d="M275.34,192.68c-4.55,1.76-12.91,2.72-14.56,8.16a.27.27,0,0,0,.41.29c4.38-3.57,9.69-5.08,14.42-8C275.86,193,275.6,192.58,275.34,192.68Z"/><path class="cls-15" d="M278.38,197.4a27.1,27.1,0,0,0-6.75,2.68c-2,1.06-4.57,2.27-5.91,4.22-.16.24,0,.66.35.57a18.63,18.63,0,0,0,4.9-2.74,58.26,58.26,0,0,1,7.62-4C279,197.94,278.8,197.3,278.38,197.4Z"/><path class="cls-15" d="M291.11,183.35a19.27,19.27,0,0,0-5.83-4.66c-2.45-1.29-5.24-.35-7.8-.07a.46.46,0,0,0,0,.92c2.18.24,4.79,0,6.78.9a14,14,0,0,1,4.83,4.47A1.28,1.28,0,1,0,291.11,183.35Z"/><path class="cls-8" d="M271.88,100.11s-1.76,15.81-1.17,21.66c.76,7.63,6.59,25.15,7,29.85.58,6.44,21.07-1.6,22.82-3.6s-4.95-32.08-12-44.38S273.05,94.84,271.88,100.11Z"/><path class="cls-23" d="M371.55,241.76c0,8.64-16.88,18.53-37.72,18.53s-37.71-9.89-37.71-18.53,16.88-15.64,37.71-15.64S371.55,233.12,371.55,241.76Z"/><path class="cls-24" d="M371.55,240.54c0,7.23-16.88,13.09-37.72,13.09s-37.71-5.86-37.71-13.09,16.88-13.09,37.71-13.09S371.55,233.31,371.55,240.54Z"/><path class="cls-21" d="M356.24,224.22c-4.66-9.76-9.32-2.79-13.31-4.88s-5.32-8.36-13.31-7-6.66,9.06-12,9.76-14,9.06-12.65,17.43a23.43,23.43,0,0,0,2.46,8c6.26,2.37,15.76,3.88,26.38,3.88,12.17,0,22.85-2,28.9-5,1.49-2.92,2.29-7.32-.05-12.78C361.44,230.78,357.76,227.4,356.24,224.22Z"/><path class="cls-22" d="M333.07,231.45c-2.19-1.07-3.35-3-5.27-4.33-1.54-1.09-4.63-.88-6.11.17-1.27.9,0,3,1.22,2.09,2.25-1.69,4.44.1,6,1.65a3.78,3.78,0,0,0,4.08.87A.24.24,0,0,0,333.07,231.45Z"/><path class="cls-22" d="M337.65,231c-.88-1.05-2.47.69-1.21,1.57a5.53,5.53,0,0,0,1.37.64c.45.16.76.46,1.26.31a.51.51,0,0,0,.35-.35C339.64,232.08,338.21,231.63,337.65,231Z"/><path class="cls-22" d="M352.43,229a4.57,4.57,0,0,0-2.6-2,9.78,9.78,0,0,0-4.13.28c-1.83.38-1.05,3.32.77,2.81a10.09,10.09,0,0,1,2.71-.48,10.79,10.79,0,0,0,2,0c.27.05.54.1.8.17A.5.5,0,0,0,352.43,229Z"/><path class="cls-22" d="M351.5,240.11c-1.51-2.73-3.79-2.75-6.57-2.57-3.24.22-4.6-3.47-7.72-.62-2.31,2.12-8.63,5-11.68,3.65a9,9,0,0,0-4.65-.59c-2.15.24-3.65,1.35-3.89,3.44-.14,1.12,1.61,1.1,1.74,0,.59-4.63,7.66.57,9.89-.08a27.83,27.83,0,0,0,7.47-3.1c1-.73,3.65-2.84,4.82-1.89a6.38,6.38,0,0,0,1.54,1.14,6.83,6.83,0,0,0,2.74,0c3.62-.56,3.34.83,5.84,1.21A.42.42,0,0,0,351.5,240.11Z"/><path class="cls-22" d="M357.06,241c-.18-.13-.19-.59-.33-.77a2.52,2.52,0,0,1-.44-.76c-.09-.9-1.5-.91-1.42,0s1,2.45,2.12,2.06A.3.3,0,0,0,357.06,241Z"/><path class="cls-22" d="M315,231.21a2.83,2.83,0,0,0-3.1-.49,7,7,0,0,0-2.17,2.78c-.88,1.47,1.56,2.59,2.2.93a6.34,6.34,0,0,1,1-2.1,1.19,1.19,0,0,1,1.14-.31,1.26,1.26,0,0,0,.94-.34A.33.33,0,0,0,315,231.21Z"/><path class="cls-22" d="M340.93,222.64a2.47,2.47,0,0,1-2-.91.81.81,0,0,0-.69-.4,16.88,16.88,0,0,1-3.95-.33,6.55,6.55,0,0,1-4.22-2.34c-1.51-1.45-4.11-.37-5.69.31-1.27.55-.17,2.45,1.1,1.87,2-.9,3-.94,4.37.65a3.71,3.71,0,0,0,2.7,1.29c1.49-.18,4.19-1.47,5.28.14a2.56,2.56,0,0,0,2,1.34.82.82,0,0,0,.8-.22,7.36,7.36,0,0,0,.63-.84A.38.38,0,0,0,340.93,222.64Z"/></svg>