<svg xmlns="http://www.w3.org/2000/svg" viewBox="0 0 360 440"><defs><style>.cls-1{isolation:isolate;}.cls-2{fill:#b9a494;}.cls-3{fill:#d0b8a6;}.cls-4{fill:#f89472;}.cls-12,.cls-14,.cls-5{fill:#532f53;}.cls-5{opacity:0.75;}.cls-12,.cls-5{mix-blend-mode:soft-light;}.cls-6{fill:#6b4a74;}.cls-7{fill:#dcc8b4;}.cls-8{fill:#a39082;}.cls-9{fill:#e8dfd5;}.cls-10{fill:#43254c;}.cls-11{fill:#f9feff;}.cls-13{fill:#a64360;}.cls-15{fill:#fff;}.cls-16{fill:#807967;}.cls-17{fill:#80483a;}.cls-18{fill:#a78072;}</style></defs><g class="cls-1"><g id="圖層_1" data-name="圖層 1"><path class="cls-2" d="M289,41.13l1.13-22.65H276.51V40c-8.5,3.85-19.25,13.62-19.25,20.89,0,9.74,10.64,17.63,23.78,17.63s23.78-7.89,23.78-17.63C304.82,54,296.7,45.24,289,41.13Z"/><path class="cls-3" d="M185.49,135.37c10-.5,17.64-8.38,15.32-15.86a57.35,57.35,0,0,0-13.56,15"/><path class="cls-2" d="M184,135.54c7.9-3.09,12.84-14.14,9.58-21.44-6.41,5.91-10.21,15-9.77,23.22"/><path class="cls-3" d="M185.6,133.38a34.37,34.37,0,0,0-1.84-23.18,19.74,19.74,0,0,0,1,26.62"/><path class="cls-3" d="M180.51,135.37c-10-.5-17.63-8.38-15.31-15.86a57.35,57.35,0,0,1,13.56,15"/><path class="cls-2" d="M182.06,135.54c-7.9-3.09-12.84-14.14-9.59-21.44,6.41,5.91,10.22,15,9.78,23.22"/><path class="cls-4" d="M183,154.47h0c9.27,0,16.78-7.24,16.78-16.17V132H166.18v6.29A15.87,15.87,0,0,0,172,150.57,17.09,17.09,0,0,0,183,154.47Z"/><path class="cls-4" d="M183,154.47h0c9.27,0,16.78-7.24,16.78-16.17V132H166.18v6.29A15.87,15.87,0,0,0,172,150.57,17.09,17.09,0,0,0,183,154.47Z"/><path class="cls-5" d="M183,154.47h0c9.27,0,16.78-7.24,16.78-16.17V132H166.18v6.29A15.87,15.87,0,0,0,172,150.57,17.09,17.09,0,0,0,183,154.47Z"/><path class="cls-4" d="M136.63,23l4.86-7.38h-38.7L107,22C94.44,27.64,85.65,40.25,85.65,51c0,14.37,15.72,26,35.11,26s35.1-11.65,35.1-26C155.86,40.86,148,29.07,136.63,23Z"/><path class="cls-6" d="M239.7,104.58h16.73s-7.91,13.46.93,22.3c12.08,12.08,13,27.88-11.15,27.88s-17.33-15.3-9.29-26C248.07,113.87,239.7,104.58,239.7,104.58Z"/><polyline class="cls-7" points="79.99 74.08 316.93 74.08 317.28 79.49 83.77 79.49"/><path class="cls-8" d="M131.9,111.76l3.22-9.47H113.6l2,9.15c-9.07,2.62-15.57,9.71-15.57,17.41,0,9.73,10.39,25.55,23.21,25.55s23.22-15.82,23.22-25.55C146.44,121.45,140.42,114.61,131.9,111.76Z"/><polyline class="cls-7" points="79.99 150.83 257.06 150.83 257.06 156.41 83.77 156.41"/><path class="cls-4" d="M223.41,45.24a.9.9,0,0,1,.86-.53c.34.06.52.4.71.68.87,1.33,1,2.18,2.54,5.74a32.8,32.8,0,0,1-2.1-9.2c-.06-1,.14-1.7.53-2s.9,0,1.24.33a10.83,10.83,0,0,1,2,3.87c1,2.65.71,1.77,1.71,4.42-.7-2.84-2.25-9.46-1.22-10.16s2.36,1.81,2.64,2.66c1,3.09,1.4,3.4,2.43,6.5-1.1-4.14-2.27-9-1.06-9.27s4.26,7.58,4.94,11.26c1.68-1.89,3.75-3.83,4.17-2.49.48,1.55-2.34,7.41-3.65,10.32,1.5,8.73,1.63,25.05,13.26,41.59s52.49,31.22,52.49,31.22l-22.73,16.68c-10-7.2-37.11-16.19-49.75-39.45s-8.09-52.79-8.09-52.79h.1a38.09,38.09,0,0,1-1.35-7.91A4.64,4.64,0,0,1,223.41,45.24Z"/><path class="cls-5" d="M232.39,107.44s12.33-1.27,14,16.56A57.39,57.39,0,0,1,232.39,107.44Z"/><path class="cls-9" d="M306.53,125.21l-31.82-10.79s-12.11,14.92-9.94,25.26L288.51,156S335.7,144,306.53,125.21Z"/><path class="cls-10" d="M288.72,81.86c-7-2-14.87,3.49-16.28,10.64-1.07,5.41.91,11.28-1.14,16.4-1.19,3-3.58,5.27-5.38,7.92A21.93,21.93,0,0,0,262.24,130c.16,3.27,1.38,6.89,4.35,8.27,1.13.53,2.42.67,3.55,1.21,3.41,1.64,4.26,6.14,7,8.73,3.2,3,8.55,2.81,12.27.46s6.1-6.35,7.8-10.42a51.23,51.23,0,0,0,3.31-11.53c.57-3.5.84-7.21,2.77-10.18,1.16-1.78,2.83-3.15,4.13-4.82,4.3-5.49,4-13.63.63-19.75s-9.23-10.46-15.42-13.69"/><path class="cls-11" d="M231.49,30l14.76-11.36L220.77,3.54,217,20.92A25.4,25.4,0,0,0,191.1,32.79C184.44,44,183,67.87,194.51,74.7s31.72-6,38.37-17.21A25.43,25.43,0,0,0,231.49,30Z"/><path class="cls-4" d="M283.16,87c2.29,0,14.44-2.26,22.64,6.57,5.65,6.55,3.47,12.8,3.83,12.83a5.6,5.6,0,1,1-3.12,10.47l-2.58,16.5a13.92,13.92,0,0,1-.14,1.69,12.84,12.84,0,0,1-25.37-4,13.55,13.55,0,0,1,.35-1.56l1.11-7c-6.33-3.27-6.29-10.29-4.45-16.24S283,87.27,283.16,87Z"/><path class="cls-12" d="M279.88,122.47a20,20,0,0,0,7.35,1.94l-8.51,5.41Z"/><path class="cls-13" d="M311.18,112.82a4.31,4.31,0,0,0-1.77-2,1.47,1.47,0,0,1,.89-.33,11.74,11.74,0,0,1,2.1.09,3,3,0,0,0-3.2-.13,3.13,3.13,0,0,0-1.58,2.77s.74-1.87,1.54-2.13Z"/><path class="cls-14" d="M292.31,97.08c-1,0-1.24-.93-2.08-1.33-1.07-.5-2.64.21-3-1.26-.24-.95,1.8-1.63,3.13-1.4,1.67.29,3.47,1.89,2.86,3.41a1.08,1.08,0,0,1-.9.58Z"/><path class="cls-5" d="M286.21,106.7a4.33,4.33,0,1,1,3.05,5.31A4.34,4.34,0,0,1,286.21,106.7Z"/><path class="cls-13" d="M288.42,101.43c-.22.73-.66,1.24-1,1.14s-.41-.77-.19-1.49.67-1.24,1-1.14S288.64,100.71,288.42,101.43Z"/><path class="cls-15" d="M279.79,108.23c1.12-1.17,2.65-1.37,3.21-.47a1.62,1.62,0,0,1-.06,1.71,3.29,3.29,0,0,1-1.41,1.11,3.77,3.77,0,0,1-2.91.07c-.93-.37-1.92-1.5-1.48-2.39.31-.63,1.36-.52,2.65,0"/><polygon class="cls-4" points="274.41 103.21 278.84 105.06 281.88 95.11 280.14 94.39 274.41 103.21"/><polygon class="cls-5" points="274.41 103.21 278.84 105.06 281.88 95.11 280.14 94.39 274.41 103.21"/><path class="cls-4" d="M256.72,145c1.91-5.16-6.66-12.86,21.48-13.65a14.89,14.89,0,0,0,25.22.25c14.27.58,21.58-1.41,29.47,7.48,8.94,14.41-1.06,18.88-1.06,18.88-5.75,8.17-6.77,19.12-6.84,29.1l-.71,42.23a173.9,173.9,0,0,1-32.7,3.21,206.11,206.11,0,0,1-32.32-3.21l4.56-40.48C263.2,187.25,254.8,150.15,256.72,145Z"/><path class="cls-4" d="M324.94,370.26h-.1c-.34-11.42-1-35.81-1-43.76,0-6.47,1.21-40.91,1.81-62.43l-31.85,5c.94,23.76,2.52,57.69,3.34,69.19.65,9.08,2.39,23.4,3.47,31.88h-.07c.09,1.28,6,39.88,7.12,50.78l-9.47,4.73s-11.8,3.22-14,6.23l38.76-1.95.3-8.1h.12s1.58-25.87,1.65-45.48h0s0-.55,0-1.5C325,373.23,325,371.71,324.94,370.26Z"/><path class="cls-4" d="M287.13,268.92l-31.25-4.35c-4.39,17.46-14.76,58.6-14.09,71.82.74,15,1.32,25.38,1.59,30.1h-.14c.11,1.47,6,55.18,6,55.18l-7.9,3.95s-12.56,3.22-14.77,6.23l38.76-1.95.42-11.32-.52,0c.42-11.54,1.72-47.53,1.49-50.82h-.19c0-6.08.07-21.32,2.07-29.14C270.08,332.74,278.88,302.61,287.13,268.92Z"/><path class="cls-10" d="M259.26,229.29s33.52,7.34,65,0c0,0,2,13.75,1.34,34.78s-.62,73.92,1.74,97.6a239,239,0,0,1,.79,41.05s-17.36,5.53-26,.79c0,0-3.94-41.05-5.52-52.1s-2.81-82.48-2.81-82.48h-6.64s-12.65,52.5-15,68.28S269,406.67,269,406.67s-17.36,2.37-25.26-1.58c0,0-5.52-58.41-6.31-67.89s18.15-80.51,18.15-80.51Z"/><path class="cls-9" d="M278.2,131.35s10.49,10.88,27.06.62c0,0,16.58-3.94,27.63,2.37s6.31,24.47-5.53,33.94l3.95,87.62s-40.26,7.11-79.72-.79l8.68-63.94-3.55-36.7s-11.45-9.47-8.29-15.39C256.46,124,278.2,131.35,278.2,131.35Z"/><path class="cls-4" d="M194,54.14a.87.87,0,0,1,.84-.56c.34,0,.53.38.73.66.92,1.28,1.08,2.13,2.76,5.63a33.14,33.14,0,0,1-2.45-9.11c-.1-1,.08-1.71.46-2s.89-.06,1.25.29a10.68,10.68,0,0,1,2.12,3.79c1.1,2.61.77,1.74,1.87,4.34-.81-2.8-2.61-9.36-1.61-10.1s2.43,1.72,2.74,2.55c1.14,3.06,1.54,3.35,2.68,6.41-1.25-4.1-2.61-8.93-1.41-9.22s4.55,7.41,5.36,11.06c1.61-2,3.6-4,4.07-2.65.54,1.53-2.05,7.5-3.24,10.45,1.82,8.67,2.58,25,14.83,41.06s53.64,29.19,53.64,29.19l-22.08,17.54c-10.24-6.82-37.7-14.76-51.22-37.53s-10.09-52.44-10.09-52.44h.1a38.1,38.1,0,0,1-1.65-7.85A4.37,4.37,0,0,1,194,54.14Z"/><path class="cls-5" d="M205.37,116s12.27-1.74,14.64,16A129.33,129.33,0,0,1,205.37,116Z"/><path class="cls-9" d="M280.13,130.89l-32.2-9.57s-11.53,15.37-9,25.62l24.34,15.37S310,148.55,280.13,130.89Z"/><path class="cls-10" d="M280.66,92.6c3.88-16,16.61-19.53,25.49-18.64,13.28,1.32,22.37,8.88,23.31,22.19.51,7.12-1,14.9,2.81,20.92,3.55,5.6,11.19,8.62,12.42,15.13,1.09,5.74-3.54,11.47-2.26,17.17.67,3,2.85,5.35,4.33,8,4.34,7.83,1.87,18.74-5.41,23.93-3,2.11-6.48,3.3-9.57,5.2-7.82,4.81-12.92,14.11-21.82,16.33A15.56,15.56,0,0,1,291.75,182c.86-2.14,2.21-4.15,2.45-6.44.61-5.74-5.48-9.53-9.27-13.87-7.15-8.2-5.92-22.28,2.54-29.11,4.28-3.45,10.8-7.15,9.07-12.37-.62-1.84-2.25-3.24-2.77-5.11-1.07-3.88,2.84-7.15,4.57-10.79a10.86,10.86,0,0,0-3.23-13c-3.88-2.88-10.85-4.55-13.85.34"/><path class="cls-16" d="M111.59,397.84c-.1,1.23-.26,2.45-.48,3.67a35.18,35.18,0,0,1-.83,3.48,35.88,35.88,0,0,1-1.9,5.12v0l-.74,1.6-1.74,3.76-8.38,18.18H75.4L67,415.36,65.39,412l-.85-1.84-.05-.11a36.51,36.51,0,0,1-3.18-12.27,36.27,36.27,0,0,1,7-24.32,36.7,36.7,0,0,0-.5-44.19,1.28,1.28,0,0,1,1-2.07h35.32a1.28,1.28,0,0,1,1,2.07,36.7,36.7,0,0,0-.5,44.19A36.24,36.24,0,0,1,111.59,397.84Z"/><path class="cls-17" d="M43.72,404.2a9.67,9.67,0,0,0-17.22,0l-5.83,1.93,4.78,2.33v.13h.27L34.43,423a18.82,18.82,0,0,0,31,1.67,46.91,46.91,0,0,1,15.09-12.81l7-3.75V404.2Z"/><path class="cls-17" d="M189.53,379.81l-4,17.87-1.12,5-.53,2.37-1.12,5L177.9,432H134.32l-5-22.45-.76-3.46-.83-3.67-1-4.64-4-18a60.27,60.27,0,0,1,10.44-49.05L143,317.49a25.91,25.91,0,0,0,5.09-15.4V288.74a1.93,1.93,0,0,1,1.93-1.93h12.21a1.93,1.93,0,0,1,1.93,1.93v13.35a25.84,25.84,0,0,0,5.09,15.4l9.85,13.27A60.35,60.35,0,0,1,189.53,379.81Z"/><path class="cls-18" d="M104.54,395.18a28.37,28.37,0,1,0,41.91-15.29,4.85,4.85,0,0,1-2.32-4.11v-.2l.9-2.83,7.44-10.49a7.83,7.83,0,0,0,.95-7.23h0l-33.07,12a16.19,16.19,0,0,0-15.81,28.16Zm-2.23-14a11.24,11.24,0,0,1,10.76-10.65,12.12,12.12,0,0,1,1.92.09,4.93,4.93,0,0,1,4.26,4.88h0a4.94,4.94,0,0,1-2.41,4.23,28.6,28.6,0,0,0-10.27,10.76A11.2,11.2,0,0,1,102.31,381.16Z"/></g></g></svg>