<svg id="圖層_1" data-name="圖層 1" xmlns="http://www.w3.org/2000/svg" viewBox="0 0 500 440"><defs><style>.cls-1{fill:#8cbb93;}.cls-2{fill:#2a8a80;}.cls-3{fill:#90c2b6;}.cls-4{fill:#247c70;}.cls-5{fill:#87b6aa;}.cls-6{fill:#599440;}.cls-7{fill:#c7bda4;}.cls-8{fill:#388040;}.cls-9{fill:#c7ac7c;}.cls-10{fill:#ffbda1;}.cls-11{fill:#fff;}.cls-12{fill:#215580;}.cls-13{fill:#d5857a;}.cls-14{fill:#7c564f;}.cls-15{fill:#634148;}.cls-16{fill:#a29882;}.cls-17{fill:#909d9b;}.cls-18{fill:#bc9480;}.cls-19{fill:#deaf96;}.cls-20{fill:#2e282b;}.cls-21{fill:#41383d;}.cls-22{fill:#266190;}.cls-23{fill:#34427c;}.cls-24{fill:#fff3d4;}.cls-25{fill:#d1bb89;}.cls-26{fill:#3e3645;}.cls-27{fill:#af8945;}</style></defs><path class="cls-1" d="M145.25,201.42c-1.24-8.54-3.89-16.73-6.38-25-.73-2.4-1.51-4.79-2.32-7.17a1.59,1.59,0,0,0,.49-.69c.53-1.5,1.78-2.91,2.1-4.4a50.08,50.08,0,0,1,2.11-7,140.13,140.13,0,0,0,4.88-15.59c.52-2.07,4.11-18.34-1-18-6.48.42-9,13.23-10,18-1.1,5-2.65,10.93-2.61,16.53q-3.69-9.35-8.13-18.36c1.47-2.3,8.61-38.94,5.2-43.08-4.56-5.55-8,10.73-8.37,12.49a70.18,70.18,0,0,0-1.13,22.3c-.51-.94-1-1.89-1.53-2.82q-3.52-6.3-7.21-12.49a80.58,80.58,0,0,0,4.4-24.22c0-2.27,1.17-15.8-4.3-14.47-5.27,1.28-5.55,10.68-5.65,14.82-.13,5.1-.4,10.22.22,15.2q-3.65-5.77-7.52-11.39l.07-.18a31,31,0,0,0,1.15-9.09c0-2.13.85-4.35.86-6.56a57.93,57.93,0,0,0-.65-7c-.42-3.57,1-16.74-5-17.23-4.8-.4-4.2,9.57-4,12.18s1.13,5.4,1.14,8.16a36.72,36.72,0,0,0,.4,6.54,35.61,35.61,0,0,0,1.89,7.33c-1.23-1.7-2.47-3.39-3.75-5.06-1.81-2.36-3.68-4.67-5.58-7,.13-3.82,0-7.66,0-11.47,0-5-1.83-9.77-1.86-14.67,0-2.06-.26-15-5.5-12C72.76,42.85,73.51,51,74.14,55.61a45.17,45.17,0,0,0,5.24,16.08c-1.67-1.91-3.34-3.82-5-5.7l-1.13-1.26c-2-3.89-5-7.47-7.55-10.91A100.39,100.39,0,0,0,55,41.78C51.19,38,43,27,37,33.23c-5.58,5.83,4.51,14.28,8,17.87a61.23,61.23,0,0,0,13,10.23c5.14,3,10.61,5.27,15.68,8.35C74.88,71,76,72.25,77.05,73.55c-4.34-1.79-9.15-1.94-14.37-2.27-5.06-.31-13.55.65-16.23,5.86-3,5.8,7.42,4.9,10,4.73,4.11-.27,8.09-1.92,12-3,3.3-.94,6.7-1.45,10.05-2.14a16.35,16.35,0,0,1,2.08,1.22c.59.73,1.16,1.47,1.74,2.2a.81.81,0,0,0,0,.16,1.25,1.25,0,0,0,1.09,1.23c1.74,2.24,3.47,4.5,5.14,6.79l1.87,2.64a43.93,43.93,0,0,0-7.8-.69,55.13,55.13,0,0,0-6.87,1c-2,.26-4.63.23-6.44,1.1-3,1.43-13.11,7.35-7.36,11.35,4,2.8,10.61-.09,14.56-1.64,2.55-1,5-2.15,7.47-3.39a78.11,78.11,0,0,1,9.19-3.71c3.53,5.22,6.85,10.56,10.08,16-3.72-1-8-.74-11.77-.26-4.83.62-11.7,1.31-15.47,4.76-4.12,3.77.52,7.33,4.5,7.85,4.25.57,8.28-.6,12.18-2.15,4.69-1.86,9.55-2.42,14.29-3.85,2.35,4,4.67,8.12,7,12.19,1.72,3,3.34,6.12,4.9,9.23-8.9-3-18.47-4.39-27.64-6.09-4.28-.79-13.16,1.28-12.6,7.1s11.09,6.58,15,7.06c8,1,18.75-.71,25.33-5.65a1,1,0,0,0,.24-.27l.81.2c3.06,6.3,5.8,12.75,8.27,19.31a46.76,46.76,0,0,0-7.33-2.68c-3.08-.89-6.55-2.3-9.76-2.33-3,0-9.58-.05-10.44,3.94-2.39,11.12,21.25,5.65,29.33,6,1.28,3.61,2.5,7.25,3.63,10.92a232.82,232.82,0,0,1,6.3,23.37c1.52,7.65,1.68,15.49,4.23,22.94a1.33,1.33,0,0,0,2.54,0c.72-2.85.2-5.53-.26-8.4C145.94,209.87,145.86,205.62,145.25,201.42Z"/><path class="cls-1" d="M163.49,72.55c2.84-.6,5.66-1.37,8.56-1.74,3.47-.45,7.16-.48,10.44-1.69,2.06-.76,10.44-3.66,6-7.42-4-3.38-10.95-1.21-14.73.82s-7.58,3.91-10.26,6.91c.35-1.46.71-2.91,1.08-4.36,2.77-4.32,6.12-8.15,9-12.4a52.74,52.74,0,0,0,6.22-13c1.39-4.21,6-14.74-.48-17.62-6.94-3.08-9.17,8.87-10.7,13.38a88.62,88.62,0,0,0-3.7,13.69c-.64,3.72-1.65,7.76-1.74,11.68-.13.48-.26,1-.4,1.43-.61,2.16-1.18,4.33-1.76,6.49a42.88,42.88,0,0,0-2-15.15c-1.23-4-3.72-11.06-8.52-11.61-5.15-.59-.51,10.17.26,11.88,1.81,4.07,2.22,8.69,4.07,12.81,1.41,3.16,2.75,6.39,4.28,9.5-.61,2.56-1.19,5.13-1.7,7.72-.36,1.83-.68,3.67-1,5.51a34.91,34.91,0,0,0-1.28-6.74,35.7,35.7,0,0,0-2.15-5.56c-1-2.28-1.32-4.81-2.18-7.15s-4.1-10.7-7.66-8.7c-4.42,2.49,1.62,12.91,2.63,16a57.31,57.31,0,0,0,2.11,6c.84,1.83,2.33,3.36,3.12,5.13a30.14,30.14,0,0,0,4.3,7.13l.12.12c-.6,4-1.1,8-1.54,12.07A100.81,100.81,0,0,0,148.32,95c-1.64-3.39-5.38-11.09-9.93-10.3-4.72.81,1.22,11.62,2.11,13.49A78,78,0,0,0,153,116.71q-.54,6.41-.89,12.86c-.05,1-.08,1.92-.12,2.87a68.76,68.76,0,0,0-9.23-18.08c-.93-1.33-9.71-13.61-11.16-7.42-1.08,4.63,18.18,32.48,20.18,33.88,0,6,.17,12,.6,18.05-2.07-4.65-5.5-9-8.21-12.78-2.58-3.55-9.33-13.28-14.49-11.37-4.08,1.5,4.8,13.73,6,15.26a134,134,0,0,0,9.61,11.22,45.58,45.58,0,0,1,4.24,5c.81,1.12,2.31,1.85,3.28,2.91a1.39,1.39,0,0,0,.63.4q.4,3.38.91,6.75c1.15,7.69,2.18,15.4,4.42,22.91,1.11,3.69,2.64,7.24,3.7,10.93.72,2.53,1.32,4.94,2.95,7.05a1.11,1.11,0,0,0,2-.89c-.82-7.06-3.64-13.62-5.34-20.49-1.76-7.09-2.84-14.36-3.9-21.56-.5-3.43-.92-6.87-1.29-10.32,6.13-3.08,26.43-6.82,20.42-15.19-2.16-3-7.24-.7-9.55.38-2.46,1.15-4.61,3.53-6.66,5.34a38.23,38.23,0,0,0-4.66,4.78c-.55-6.29-.85-12.6-.85-18.89l.56-.45a.64.64,0,0,0,.27.14c6.95,1.8,15.91-.59,21.69-4.17,2.87-1.78,10.71-6.12,9-11.11s-9.38-3.63-12.39-1.47c-6.45,4.61-13.3,9.15-19.07,14.71,0-3.13.13-6.25.32-9.36.26-4.19.52-8.37.82-12.55,4.2-.47,8.17-1.7,12.49-1.8,3.59-.08,7.14-.52,10.21-2.48,2.88-1.82,5.13-6.39.53-8.08-4.2-1.54-9.77.3-13.73,1.47-3.12.93-6.51,2.17-9,4.33.46-5.61,1-11.19,1.79-16.74a63.33,63.33,0,0,1,8.5-.15,66.21,66.21,0,0,0,7,.2c3.63-.1,9.8,0,11.86-3.73,2.94-5.32-7.12-6.68-9.94-6.83-1.73-.09-3.77.86-5.39,1.34a43.7,43.7,0,0,0-5.67,1.6,33.72,33.72,0,0,0-5.76,3.3c.15-1,.29-1.9.45-2.84.43-2.49.92-5,1.43-7.42a1.12,1.12,0,0,0,.38-1.4l-.06-.14c.18-.81.34-1.63.52-2.44A14,14,0,0,1,163.49,72.55Z"/><path class="cls-2" d="M142.75,193.9s-4-66-18.67-86-26.66-47.33-7.33-42.67,38,39.34,43.33,52,6,75.34,6,75.34Z"/><path class="cls-3" d="M163.83,190.57A100.42,100.42,0,0,0,162.05,172c-2.78-13.34-5.59-26.52-10.65-39.26-4.61-11.61-8.55-23.28-15.15-33.93S122.15,78.31,112.68,70a.84.84,0,0,0-1.19,1.19A207.57,207.57,0,0,1,132.42,99,88.81,88.81,0,0,1,141,116.14c1.78,5,3.2,10.15,5.46,15,2.65,5.59,4.2,11.71,5.8,17.67,1.53,5.74,3.36,11.29,4.53,17.14,2,10.14,4.4,20.93,3.87,31.33a.72.72,0,0,0,1.08.62C164.4,196.45,163.89,193.11,163.83,190.57Z"/><path class="cls-4" d="M196.77,103c-.66-6.58-3.12-12.52-4.7-18.86-.95-3.79-6.7-14.15-13.37-6.81s-7.94,27.3-11.08,39.94c-3.69,14.83-6.85,29.45-7.86,44.76-1,14.48-.88,53.76,2.53,56.4,3.21,2.49,8.85,2,12.44.33,4.11-1.92,4.91-6.65,6.24-10.58a154.67,154.67,0,0,0,5.63-23c2.48-14.12,4.74-28.27,7.23-42.37C196.1,129.9,198.1,116.05,196.77,103Z"/><path class="cls-5" d="M193.1,91.42a.41.41,0,0,0-.75-.31c-10.44,20.85-14,45.17-17.15,68-1.54,11.09-3.5,22.24-4.58,33.39-.57,5.87-1,11.75-1.55,17.63a50.11,50.11,0,0,0,.12,10,18,18,0,0,0,2.55-.37c.39-20,4-39.94,6.71-59.72C181.63,136.88,185.57,113.61,193.1,91.42Z"/><path class="cls-6" d="M434.2,266.29c-6.18-9.05-23.58,7.15-28.53,11.29-6.19,5.16-12.56,10.1-18.21,16-.56.59-1.13,1.17-1.7,1.76,1.63-2.16,3.26-4.31,4.87-6.48,6.41-8.64,12.47-17.73,19.31-26,4.45-5.36,9-10.78,11.46-17.52,2-5.34-.28-9.92-5.79-10-8.54-.05-15.77,6.45-22,11.89a126.74,126.74,0,0,0-19.27,20.51c-3,4.08-5.83,8.43-8.51,12.88.83-2.67,1.57-5.37,2.39-8,2.05-6.49,4.62-12.64,7.23-18.89,4.79-11.51,9.24-23.22,13.92-34.8,2.72-6.73,5.5-13.53,8-20.34,1.82-4.93,4.14-11.59,1.87-16.72-3.15-7.12-13.43-1.75-17.63.88-9.09,5.71-13.72,14.59-18,24.54-4.93,11.48-7.86,23.78-9.65,36.23-1.83,12.76-9.6,53.4-9.6,53.4-.44-1.11,14.65-119.92,15.75-126.34s2.24-13.15,3-19.77a124.44,124.44,0,0,0,.79-19.49c-.2-4.46-.54-10.21-4.08-13.18-3.91-3.29-9.84,2.3-12.57,5-5.88,5.67-30.62,40.89-32.08,73.24s2.16,82.49,2.08,84.34c-1.15-6.52-10.45-33-11.8-39.45a242.5,242.5,0,0,0-7.27-25.4c-1.64-5-3.71-11.82-8.15-14.78-5.61-3.74-9.74,5.24-10.48,9.83-.84,5.15-.52,11-.14,16.15q.71,9.57,2.2,19c1.9,12,5.48,23.62,8.68,35.25-4.79-7.71-11.82-13.31-19.5-17.42-4.77-2.55-12.78-4.18-15.29,2.82-3.51,9.79,5.46,19.84,10.66,26.65a149.52,149.52,0,0,0,23.25,23.65c4.29,3.59,9.14,5.77,14.16,7.93,5.64,2.43,11,5.1,16.85,7a85.54,85.54,0,0,0,13.5,3.58,126.77,126.77,0,0,0,17.83,1.5,80.83,80.83,0,0,0,32-6.18,38.77,38.77,0,0,0,9.48-5.1c3.07-2.39,6.36-4.38,9.41-6.81C409.08,313.92,440.38,275.33,434.2,266.29Z"/><path class="cls-7" d="M194.65,203.12c-5.64-4-3.22-12.09,3.22-20.15s-4.83-13.7-4.83-13.7H115.27S104,174.91,110.44,183s8.86,16.12,3.22,20.15-33,14.5-29,53.18,26.6,86.23,26.6,86.23h85.82S219.63,295,223.66,256.3,200.29,207.15,194.65,203.12Z"/><path class="cls-2" d="M225,181c-.93-29.26-6.95-57.62-13.43-86.07-1.44-6.37-3.75-12.43-5.37-18.76-1-4-3.39-9.52-7.72-10.91-4.69-1.5-9.16.1-13,2.87-2.39,1.71-6.52,6.77-9.42,10.55s-.26,12.9,1.35,16.16a139.27,139.27,0,0,1,8.07,21.12c4.56,14.94,9.56,29.89,15.46,44.39,1.22,3,1.47,6.71,2.5,9.83,1.09,3.31,2.79,6.35,3.94,9.62a29.93,29.93,0,0,0,8.14,12.11c2.28,2.07,5.81,2.35,7.78-.23C225.49,188.77,225.14,184.39,225,181Z"/><path class="cls-3" d="M221.24,187.64c-.63-6.15-2.2-12.18-3.41-18.22-2.58-12.82-4.8-25.68-8-38.36s-6.26-25.18-10.45-37.44c-2-5.78-3.48-12.17-6.34-17.56-1.71-3.22-3.45-6.33-5.06-9.52-.61.33-1.21.68-1.8,1.07a53.32,53.32,0,0,0,2.62,5.55c3.38,6.2,5.1,12.73,7.29,19.41,4,12.32,7.23,24.9,10.43,37.46s5.22,25.58,8.09,38.35c1.33,5.93,2.58,11.94,3.64,17.93a59.69,59.69,0,0,0,1.81,7.17,4.53,4.53,0,0,0,2.1-.76A39.75,39.75,0,0,1,221.24,187.64Z"/><path class="cls-8" d="M316.21,328.63c-3-4.39-6.87-7.92-9.38-12.55-2.74-5.05-7.54-9.38-11.31-13.72-8.6-9.85-19.07-18.76-25.91-30a1,1,0,0,0-1.72,1c5.77,11.38,15.85,20.15,24.24,29.6,4.38,4.93,9.69,10.28,12.77,16.06,2.29,4.29,6.79,7.38,10.58,10.3C315.91,329.69,316.49,329.06,316.21,328.63Z"/><path class="cls-8" d="M323.62,327.66c-.91-3.43-2.88-6.18-4.55-9.25-2.33-4.28-3.27-9.41-4.75-14-3.27-10.17-7.39-20-10.3-30.3-2.75-9.73-5-19.58-7.93-29.28-3-10.22-7-20.13-7.53-30.91a.81.81,0,0,0-1.62,0c-.11,9.8,2.52,19.1,5.48,28.37,3.24,10.14,5.26,20.7,7.84,31,2.74,10.94,6.85,21.41,10.33,32.12,1.49,4.6,2.53,9.33,4.5,13.74,1.61,3.6,4.33,6.55,7,9.39A.91.91,0,0,0,323.62,327.66Z"/><path class="cls-8" d="M346.85,139.65c-2.69,7.73-5.79,15.27-8.07,23.13-2.34,8.05-3.39,16.59-4.53,24.87a391.42,391.42,0,0,0-3.94,49.91c-.06,7.78.42,15.56.46,23.34,0,8.18-.95,16.4-.89,24.62.11,15.66-3.53,31.06-.22,46.68.31,1.45,2.37.79,2.17-.6-2.24-16,1.62-31.85,1.82-47.77.09-7.66.35-15.31,1.08-22.93s-.42-15.68-.43-23.34c0-16.88,1.81-34.07,4.12-50.77,1.15-8.29,2.35-16.7,4.6-24.78,2.05-7.4,4.66-14.45,5.67-22.11C348.83,138.79,347.17,138.71,346.85,139.65Z"/><path class="cls-8" d="M384.21,196.58c-2.33,4.63-5,8.7-7,13.55C375,215.52,373,221,371.31,226.62c-1.78,5.9-4.3,11.6-6,17.5s-3.5,11.78-5.76,17.5c-4.32,10.94-6.44,22.66-9.13,34.09a130.08,130.08,0,0,0-3.72,33.19,1,1,0,0,0,2.06,0A189.74,189.74,0,0,1,354.37,295c2.84-10.75,4.73-22,9-32.28a150,150,0,0,0,5.27-15.75c1.73-5.91,4.17-11.59,6-17.5,3.32-10.85,7.74-21.42,10.71-32.36C385.53,196.39,384.53,195.94,384.21,196.58Z"/><path class="cls-8" d="M408.33,246.48c-6.4,6.92-13.43,13.24-19.76,20.24-2.88,3.17-5.11,6.83-7.68,10.24-2.88,3.83-5.91,7.58-8.44,11.64-4.52,7.25-7.7,15.41-10.34,23.5-2.36,7.23-6,14.08-6.45,21.8-.08,1.22,2,1.51,2.14.29,1.09-7.45,5.06-14.16,7.44-21.23a114.54,114.54,0,0,1,11.27-23.81c9.39-15.11,22.38-27.56,32.75-41.95C409.66,246.65,408.78,246,408.33,246.48Z"/><path class="cls-8" d="M419.35,277.23c-4.77,3.68-8.08,8.77-11.9,13.37-4.1,4.94-8.15,9.77-13.08,13.92-5.23,4.4-9.65,10.32-14.1,15.49-3.76,4.37-7.6,8.65-11.49,12.92a1.37,1.37,0,0,0,1.94,1.94c9.43-8.62,17.37-18.57,26.41-27.59a154,154,0,0,0,12.92-14.08c3.72-4.75,6.92-9.95,10.37-14.91C420.86,277.67,420,276.75,419.35,277.23Z"/><path class="cls-9" d="M126.71,259.5c-5.42-2.41-9-10.24-3-17.47s-4.22-11.45-4.22-11.45H66.57S56.32,234.8,62.35,242s2.41,15.06-3,17.47S15.35,277,31,317.34s50.61,34.94,50.61,34.94h22.79s35,5.43,50.61-34.94S132.14,261.91,126.71,259.5Z"/><path class="cls-7" d="M472.68,282.91c-3.56-1.75-5.94-14.44-2-19.7s-2.77-8.32-2.77-8.32h-34.8s-6.74,3.07-2.78,8.32,1.59,18-2,19.7-28.93,24.7-18.62,54S443,362.35,443,362.35h15s23,3.94,33.28-25.4S476.25,284.66,472.68,282.91Z"/><path class="cls-10" d="M277.11,193.48s6.66,17.29,13.33,19.67,40,9,40,9l-2.38,17.14s-40.94-1.43-51.42-8.57-14.76-28.57-14.76-28.57Z"/><path class="cls-11" d="M260.92,161.32s7.14,4.58,10.95,15.76,8.25,16.87,7.78,20.2S263.3,207,258.54,207s-6.67-22.26-7.62-31.41S255.21,157.25,260.92,161.32Z"/><path class="cls-12" d="M246.4,275.72s75.65,1.37,81.3,16.47,7.16,91.89,5.32,94-22.1,1-22.55-1.54c-.81-4.63-10.55-69.63-13.54-74.55s-38.74,12.54-52.59,11.41c-14.36-1.17-30.46-7.95-34.62-16.52-3.88-8,2.05-29.86,2.05-29.86Z"/><path class="cls-11" d="M218.92,153s-31.92,2.94-35.07,16.91c-.91,4,3.79,27.38,4.24,47.8.17,7.92-2.26,16-1.86,23.13.66,11.78,2.84,36.41,3,36.71,2.81,4,22.26,4.35,42.79,2.7s27.11-3.46,30.75-5.67S269.34,223,269.07,213c-.67-24.69.47-43.38-3.89-48.13C252.8,151.38,218.92,153,218.92,153Z"/><path class="cls-10" d="M220.82,140.64l19.8,3.69,1.73,16s-1.42,10.73-11.19,10.47c-9-.24-16.9-12.62-16.9-12.62Z"/><path class="cls-13" d="M224.4,151.53c4.1,1.25,7.91,2.26,12.24,2a.41.41,0,0,1,.2.78C233,156,227,155.17,224,152.07,223.7,151.78,224.11,151.44,224.4,151.53Z"/><path class="cls-10" d="M207.86,119.32l.31,0c-.27-11.59,4.49-22.61,15.41-26.95,8.5-3.39,25.86-.19,30.51,10,3.48,7.63,5.16,20,2.7,30.88-3.48,15.38-22.58,28.16-37.56,13.17A37.85,37.85,0,0,1,210.46,132a2.66,2.66,0,0,1-.63,0,7.05,7.05,0,0,1-6.16-5.4C202.93,123.57,204.6,119.83,207.86,119.32Z"/><path class="cls-14" d="M229.1,130.3c4.15-.2,4.47,6.3.32,6.51S225,130.5,229.1,130.3Z"/><path class="cls-14" d="M250.65,130.11c4.13.44,3.44,6.93-.69,6.49S246.52,129.68,250.65,130.11Z"/><path class="cls-15" d="M248.07,124.52a12.23,12.23,0,0,1,2.76-.37,12.44,12.44,0,0,1,3.23.86c1.36.51.54,2.54-.82,2.1a17.1,17.1,0,0,0-2.66-.61,14,14,0,0,1-2.61-1A.5.5,0,0,1,248.07,124.52Z"/><path class="cls-15" d="M225,126.06c1.35-1.71,3.84-1.53,5.77-1.56a1.06,1.06,0,0,1,.1,2.12c-1.82.15-3.9.68-5.68,0A.37.37,0,0,1,225,126.06Z"/><path class="cls-11" d="M244.65,142.9,230.39,141s-1,6.82,5.6,7.36A8.4,8.4,0,0,0,244.65,142.9Z"/><path class="cls-13" d="M243.12,135c-1.6-1.88-1.85-4.19-2.72-6.37-.4-1-1.86-.72-1.85.19-.66,2.5,1,5.3,2.2,7.39.43.73.93.4-.15.56a3.85,3.85,0,0,0-2,1.54,1.12,1.12,0,0,0,.18,1.38c.8.71,1.23.14,2-.31s2.48-.49,3-1.54S243.87,135.87,243.12,135Z"/><path class="cls-15" d="M260.11,107.72c-.3-1.26-.54-3.06-.94-4.87a3.84,3.84,0,0,0,1.1-4.35,7.48,7.48,0,0,0-2.1-3c-2.52-4-9-7.22-11.87-8.46-4.2-1.78-9.79-2.85-14.31-2.13-3.22.51-4.9,1.58-6,3.43-5.34-2.07-13.3,2.19-16.66,5.91A16.87,16.87,0,0,0,205,104.68c-.14,2.84-.33,6.83,1.11,9.6.41,3.55,2.5,6.24,6.91,6.88a2.06,2.06,0,0,0,1.24-.22c3.37.06,5.5-4.08,5.69-8,.74.53,1.39,1,1.78,1.24,3.63,2.54,9.23,3.61,13.3,1.53a3.77,3.77,0,0,0,2.3-3.65c2.69,2.06,5.77,3.81,9.25,3.24a4.3,4.3,0,0,0,3.79-3.82c2.07,4.42,5.71,8.71,9.29,6.6C262.68,116.28,260.73,110.23,260.11,107.72Z"/><path class="cls-11" d="M194.68,159c-6.13,2-17.71,8.57-23.42,24.84s-6.61,28.06-6.61,28.06,7.75,10.92,23.74,7.35c8.88-2,17.24-26.27,15.52-41.33C202.52,165.87,200.81,157,194.68,159Z"/><path class="cls-16" d="M246,416.49c0,4.91-13.33,7.82-29.76,7.82s-29.76-2.91-29.76-7.82,13.32-8.89,29.76-8.89S246,411.58,246,416.49Z"/><path class="cls-17" d="M211.63,332.54v79.79h0c.1,1.43,2.11,2.57,4.61,2.57s4.51-1.14,4.61-2.57h0V332.54Z"/><path class="cls-18" d="M253.71,313.46H178.8s.34,25.18.34,25.4c0,3.92,16.62,7.11,37.12,7.11s37.12-3.19,37.12-7.11C253.38,338.64,253.71,313.46,253.71,313.46Z"/><path class="cls-19" d="M253.71,313.46c0,4-16.77,7.18-37.45,7.18s-37.46-3.21-37.46-7.18,16.77-7.17,37.46-7.17S253.71,309.5,253.71,313.46Z"/><path class="cls-20" d="M328.83,383.21A82.28,82.28,0,0,1,341.44,398c6.46,9.7,15.5,20.56,5.28,21s-33.8-12.56-35.44-17.53-.64-17.63-.64-17.63Z"/><path class="cls-16" d="M371.55,420.52c0,7-21.35,11.08-47.69,11.08s-47.68-4.12-47.68-11.08,21.35-12.59,47.68-12.59S371.55,413.57,371.55,420.52Z"/><path class="cls-17" d="M319.23,261.72V416.14h0c.1,1.43,2.12,2.57,4.61,2.57s4.52-1.14,4.61-2.57h0V261.72Z"/><path class="cls-21" d="M273.17,390.78s.2,6.26,5.31,15.92c6.25,11.82,12.38,24.1.53,24.52-16.5.59-26-14-27.32-19.05s.47-22.7.47-22.7Z"/><path class="cls-22" d="M223,279.21s58,9.93,62.71,25.36-9.36,86.6-11.33,88.57-22.12-.39-22.4-2.95c-.52-4.67,2-60.54,1.35-63.72S229,325.3,215.21,323.3c-14.26-2.07-27.08-8.39-30.69-17.2-3.37-8.23,3.92-29.67,3.92-29.67Z"/><path class="cls-23" d="M206.41,154.83a50.17,50.17,0,0,1,8.8,17.85c2.38,10,4,22.14,4,22.14l35-1.19s-1.2-17.14-3.58-25.71a34.51,34.51,0,0,0-7.38-13.09s9.53-1.67,12.38,4.52,9.05,30,10,33.81A97.24,97.24,0,0,1,270,221.73c0,15.23,3.81,47.61,10,50s25.71,6.66,30,9.52-9.52,15.71-10.47,31.42,3.33,20-1.91,28.57-11.42,8.1-11.9,3.33-2.38-35.7-19.52-39.51-33.33-5.72-44.76-9.05-13.8-24.28-17.14-34.28-10.95-25.24-9-36.66,10.47-26.67,10.95-31.43,0-17.14-2.15-23.8-8.8-11.19-8.8-11.19A26.21,26.21,0,0,1,206.41,154.83Z"/><path class="cls-10" d="M168.5,211.21s-7,19,.32,26.92,51.82-1.5,58.77-4.5-3.43-9.54-5.23-11.9-26.64-1.53-28.1-3.81S173.59,210.59,168.5,211.21Z"/><path class="cls-18" d="M403.91,254.74H243.81s.72,14.32.72,14.57c0,4.75,35.52,8.6,79.33,8.6s79.34-3.85,79.34-8.6C403.2,269.06,403.91,254.74,403.91,254.74Z"/><path class="cls-19" d="M403.91,254.74c0,4.78-35.84,8.67-80.05,8.67s-80.05-3.89-80.05-8.67,35.84-8.68,80.05-8.68S403.91,250,403.91,254.74Z"/><path class="cls-24" d="M353.76,225.06c0-19.52-18.56-32.85-20.47-34.76s1.43-5.71,4.29-8.57-1-9.52-1-9.52-10.95-.39-22.85-.39-22.85.39-22.85.39-3.81,6.66-1,9.52,6.19,6.67,4.29,8.57-20.47,15.24-20.47,34.76c0,17.56,10.4,29.72,21.15,32,2.24,1.32,9.81,2.29,18.84,2.29s16.6-1,18.84-2.29C343.36,254.78,353.76,242.62,353.76,225.06Z"/><path class="cls-25" d="M336.86,172.92c0,1.84-10.34,3.34-23.09,3.34s-23.09-1.5-23.09-3.34,10.34-3.33,23.09-3.33S336.86,171.08,336.86,172.92Z"/><path class="cls-26" d="M262.21,228.34c3.07-1.43,2.05-2.9,2.05-2.9s-34.56-29.24-40-32.14-8.52-1.39-4,4.32C220.26,197.62,262.1,228.18,262.21,228.34Z"/><path class="cls-10" d="M251.69,209.73c-2.15-2.49-3.86-4.75-6.93-6.09-3.54-1.55-7.86-1.38-11.56-.62-6.61,1.35-12,9-14,15.44-1.24,2.44-3.41,5.88-2.26,8.25,1.5,3.08,4.91,7,9.26,7.48s6.21-.86,8.76-1.83c3.65-1.4,9.55-1.71,12.39-4.7,2.58-2.72,2.54-5.64,2-9.12,1.2-2.63-1.52-4.77-4.35-6-2.39-1-4.64-1.67-6.91-2.79,3.88.37,7.87,2.23,11.26,3.54C251.49,214.14,253.08,211.34,251.69,209.73Z"/><path class="cls-13" d="M248.33,218.32c-1.66-1.59-4.14-2.09-6.31-2.57a12.68,12.68,0,0,0-7.07.1.55.55,0,0,0,.21,1,26.49,26.49,0,0,1,7,.59c1.95.49,3.77,1.55,5.79,1.65A.49.49,0,0,0,248.33,218.32Z"/><path class="cls-13" d="M235.18,223.24c-.52.33-.31,1.3.38,1.1a10.39,10.39,0,0,1,5.53.12c1.67.45,3.23,1.36,5,1.38a.47.47,0,0,0,.38-.78C244.05,222.34,238.25,221.28,235.18,223.24Z"/><path class="cls-13" d="M247.16,211.94c-4.13-2.56-9.55-2.42-14.17-1.49-.74.15-.48,1.16.22,1.11a47.54,47.54,0,0,1,7.16-.05c2.24.18,4.41.74,6.65.88A.25.25,0,0,0,247.16,211.94Z"/><path class="cls-27" d="M262.5,228.21a26.9,26.9,0,0,0,6.08,5c3.69,2.19,10-2.07,11.88-3.8a30.54,30.54,0,0,0-7.42-1.55c-3.21-.1-5.82-2.73-8.31-2.31A2.46,2.46,0,0,0,262.5,228.21Z"/></svg>