<svg id="圖層_1" data-name="圖層 1" xmlns="http://www.w3.org/2000/svg" viewBox="0 0 800 300"><defs><style>.cls-1{fill:#dcc8b4;}.cls-2{fill:#43b7a8;}.cls-3{fill:#665f6c;}.cls-4{fill:#6884a6;}.cls-5{fill:#ff987f;}.cls-6{fill:#3db2bd;}.cls-7{fill:#3c324a;}.cls-8{fill:#2d5a62;}.cls-9{fill:#473245;}.cls-10{fill:#fff;}.cls-11{fill:#bf5444;}.cls-12{fill:#9ea0a3;}.cls-13{fill:#f3666b;}.cls-14{fill:#f37f80;}.cls-15{fill:#4294b5;}.cls-16{fill:#42654c;}.cls-17{fill:#789ac1;}.cls-18{fill:#87b256;}.cls-19{fill:#ffc817;}.cls-20{fill:#7ca245;}.cls-21{fill:#a4b760;}</style></defs><path class="cls-1" d="M33.56,205.53c5.18-6.15,14-7.55,22-8,31.79-1.8,64.29,4.62,95.2-3,5.31-1.31,11.66-4.67,11-10.09-.32-2.55-2.2-4.59-3.31-6.91-3.27-6.9,1.1-15.48,7.6-19.49s14.46-4.62,22.08-5.13c31-2,78.83-9.43,106.26,9.3,8.84,6,12,17.84,21,23.24,12.84,7.76,30.73,2.29,44.56.57,35-4.37,70.37,1.91,104.89,9.13,5.79,1.21,12,2.66,16,7s4.49,12.47-.65,15.41c-2.06,1.17-4.57,1.3-6.71,2.32-7.54,3.62-5.35,16.14,1.88,20.33,10.92,6.32,40.18,6.64,52.67,5.34,20.72-2.15,40.05-8.19,61.06-7.89,68,1,136.21,9.94,204.43,11.26,7.45,10.53-6.59,24.63-19.5,24.49s-24.64-7.63-37.44-9.27c-25.42-3.26-50.75,16.77-75.36,9.62-11.19-3.25-20.49-11.83-32-13.78-8.15-1.39-16.44.75-24.51,2.56a324.09,324.09,0,0,1-102.62,6.24c-15.18-1.5-41.69-1.86-54.8-10.21-11.67-7.43-13.19-23.91-31.53-21-9.44,1.51-17.72,7-26.69,10.27-43.4,15.95-95.55-20.22-136.27,1.67-7,3.76-13.21,9.1-20.76,11.55-6.62,2.16-13.76,1.91-20.72,1.64-50.55-2-105.58,4.58-153.38-15.9-8.75-3.39-17.59-7.73-23.27-15.2S27.52,212.72,33.56,205.53Z"/><path class="cls-2" d="M86,107.44a40.54,40.54,0,0,0,5.06-3,3.28,3.28,0,0,1,1.84-.7c1.1.05,1.83,1.15,2.28,2.16a16.67,16.67,0,0,1,1.21,4.27,2.06,2.06,0,0,1-1,2.44,25.23,25.23,0,0,1-13.53,4.77,2.13,2.13,0,0,1-1.12-.15,2.17,2.17,0,0,1-.92-1.45c-.38-1.36-1.51-6.42-.09-7.42.57-.4,1.78.16,2.42.16A9.9,9.9,0,0,0,86,107.44Z"/><path class="cls-3" d="M85.68,146.45h37v17.29h0c0,8.19-1.25,16.38-2.13,24.57l-2,18.84q-.8,7.46-1.6,14.91c0,.27-.46,5.1-.54,5.1H111l-3-60.61h-7.48L97.43,227H92.11c-.25-2.41-.51-4.81-.77-7.22l-1.82-17q-1-9.88-2.12-19.78c-.68-6.37-1.66-12.84-1.7-19.29h0Z"/><path class="cls-4" d="M103.54,231.23a4.23,4.23,0,0,0-1.07-.68,27.74,27.74,0,0,1-4.38-2.23,1.33,1.33,0,0,1-.55-.6c0-.09-.25-1,0-1-.43,0-5.4.06-5.4,0v4.49a2.9,2.9,0,0,0,2.9,2.9h7c1.33,0,2.66-1.47,1.7-2.71A2.09,2.09,0,0,0,103.54,231.23Z"/><path class="cls-4" d="M122.49,231.23a4.23,4.23,0,0,0-1.07-.68,28.18,28.18,0,0,1-4.38-2.23,1.33,1.33,0,0,1-.55-.6c0-.09-.25-1,0-1-.44,0-5.4.06-5.4,0v4.49a2.9,2.9,0,0,0,2.9,2.9h7c1.33,0,2.66-1.47,1.7-2.71A2.09,2.09,0,0,0,122.49,231.23Z"/><path class="cls-5" d="M102.36,100.89a27.13,27.13,0,0,1-1.46-4.69c-.34-1.65-.23-1.84-1.74-2.78C94.11,90.29,89.79,81,97.62,78a5.62,5.62,0,0,1,4.17.12,9.51,9.51,0,0,1,4.84,6,9.33,9.33,0,0,1,0,5.21c-.41,1.42-1.39,2.38-.92,3.9.64,2.06,1.27,4.12,1.91,6.18A24.66,24.66,0,0,0,102.36,100.89Z"/><path class="cls-5" d="M67.62,143.38l-.13.18a12.27,12.27,0,0,0-1.36,2,6.11,6.11,0,0,0-.44,3,1.09,1.09,0,0,1-.09.8.68.68,0,0,1-.66.18c-.63-.14-.67-.57-1-1-.06-.08-.12-.17-.21-.19a.37.37,0,0,0-.23,0A3.93,3.93,0,0,0,62,149.9a2.22,2.22,0,0,1-1.8,1.16A1.74,1.74,0,0,1,58.86,150a3.23,3.23,0,0,1-.14-1.77v0a7.63,7.63,0,0,1,1.94-3.69c.66-.77,1.41-1.5,2.07-2.29a11.29,11.29,0,0,0,.88-1.21,6.82,6.82,0,0,1,.77-1.27,1.59,1.59,0,0,1,1.42-.25,5.51,5.51,0,0,1,2.76,1.65.61.61,0,0,1,.21.29.63.63,0,0,1-.07.48A9.58,9.58,0,0,1,67.62,143.38Z"/><path class="cls-6" d="M103,108.45s-13.62,11-17.71,15.19-17.89,20-17.89,20L64,140.41l12.42-21.16a21.66,21.66,0,0,1,2.88-3.86l14.6-15.63Z"/><path class="cls-5" d="M158.52,80.65l.19-.13a11.59,11.59,0,0,0,2-1.34,6,6,0,0,0,1.49-2.64,1.09,1.09,0,0,1,.37-.71.65.65,0,0,1,.68.07c.53.35.42.76.53,1.32a.47.47,0,0,0,.13.25.46.46,0,0,0,.23,0,4.06,4.06,0,0,0,2-1,2.21,2.21,0,0,1,2.1-.44,1.73,1.73,0,0,1,.88,1.5,3.29,3.29,0,0,1-.51,1.7l0,0a7.53,7.53,0,0,1-3.13,2.76c-.9.48-1.86.89-2.76,1.4a9.2,9.2,0,0,0-1.25.81,6.82,6.82,0,0,1-1.18.9,1.59,1.59,0,0,1-1.42-.27,5.51,5.51,0,0,1-2-2.53.69.69,0,0,1-.09-.34.61.61,0,0,1,.24-.42A9,9,0,0,1,158.52,80.65Z"/><path class="cls-5" d="M71.26,106a9.47,9.47,0,0,0,.74-1.2c1-2,0-4.9-1.38-6.45a15,15,0,0,1-1.53-1.76c-2.57-4.12,1.18-10.7,5.8-10.86A5.14,5.14,0,0,1,78.42,87a8.56,8.56,0,0,1,2.36,6.51A8.43,8.43,0,0,1,79.23,98c-.77,1.09-1.89,1.62-1.94,3.06a30.73,30.73,0,0,0-.06,3.46c.17,2,2,3.13,3.54,4.09a3.44,3.44,0,0,1,2,2.71,3.59,3.59,0,0,1-.34,2.93,6.58,6.58,0,0,1-2.15,2.27,12.62,12.62,0,0,1-4.84,1.66,8,8,0,0,1-7.58-4.88,4.86,4.86,0,0,1-.43-2.28C67.66,108.89,70.11,107.55,71.26,106Z"/><rect class="cls-7" x="64.62" y="154.54" width="21.22" height="10.8"/><path class="cls-5" d="M91,166.8a95.35,95.35,0,0,1-.7,12.16c-.28,2.78-.63,5.54-.91,8.3q-1,9.62-2,19.23-.87,8.28-1.71,16.53c-.26,2.34-.49,4.68-.73,7H83.21L77.91,179l-.8-7.74h-7L69.29,179,64,230.18H62.19c-.08,0-.49-4.7-.51-5-.5-4.84-1-9.66-1.49-14.5-.64-6.12-1.27-12.21-1.91-18.32-.46-4.49-1-9-1.45-13.44a82.43,82.43,0,0,1,.1-20.1s0-.06,0-.1c.1-.46.2-.91.32-1.37.34-1.29.69-2.52,1.11-3.71.12-.34.22-.68.32-1H88.51c.18.75.4,1.49.64,2.22.36,1.21.71,2.5,1,3.81.2.85.36,1.75.5,2.64,0,.22.08.44.1.65C90.9,163.58,91,165.19,91,166.8Z"/><path class="cls-8" d="M61.1,234.15h1c0-.28,0-.56,0-.84a2,2,0,0,1,.15-.91c.32-.61.89-.46,1.38-.14.64.44.91,1.26,1.49,1.74a.72.72,0,0,0,.47.15h2.59a1.45,1.45,0,0,0,.55,0,.78.78,0,0,0,.36-.36.53.53,0,0,0-.32-.79l-1.5-.57a1.62,1.62,0,0,1-.51-.25,2,2,0,0,1-.4-.46l-.45-.63a14.77,14.77,0,0,1-1.75-2.44H61.92a3.47,3.47,0,0,0-.87,3.13C61.12,232.52,61.05,233.38,61.1,234.15Z"/><path class="cls-8" d="M82.27,234.15h1v-.84a2,2,0,0,1,.15-.91c.32-.61.89-.46,1.38-.14.64.44.91,1.26,1.49,1.74a.72.72,0,0,0,.47.15h2.59a1.45,1.45,0,0,0,.55,0,.78.78,0,0,0,.36-.36.53.53,0,0,0-.32-.79l-1.5-.57a1.62,1.62,0,0,1-.51-.25,2,2,0,0,1-.4-.46l-.45-.63a14.77,14.77,0,0,1-1.75-2.44H83.09a3.44,3.44,0,0,0-.87,3.13C82.29,232.52,82.22,233.38,82.27,234.15Z"/><path class="cls-9" d="M95.09,88.44a1.84,1.84,0,0,1-.15-.47c-.08-.46.27-1.08.72-.93.15,0,.27.19.43.23a.56.56,0,0,0,.63-.48,2.18,2.18,0,0,0-.11-.87c-.71-3,1.37-6.35,4.56-6.27,1.09,0,2.72.45,3.55-.52,2.47-2.91-1.41-7.22-4-8.17-.87,1.87-2.7,3.1-4.5,4.12-1.39.77-3.16,1.5-4.25,2.69s-1,1.72-2.6,2.41c-.36.16-.78.46-.69.85s.77.45,1.14.75c.56.46.22,1.35-.11,2s-.54,1.63.11,1.94c.21.09.47.09.65.24.33.28.11.81.1,1.25a2.33,2.33,0,0,0,.8,1.53,18.49,18.49,0,0,0,4.14,3.76,14.14,14.14,0,0,0,2.65,1,9,9,0,0,0,1.92.34,8.45,8.45,0,0,1-2.34-4.16c-.15.4-.74.3-1.12.11A3.29,3.29,0,0,1,95.09,88.44Z"/><path class="cls-4" d="M158.87,80.48S140.32,90.27,135,92.75c-4.19,1.94-15.34,5.66-19.95,7.17-.28.09-1.92-1-2.27-1.14a19.05,19.05,0,0,0-2.65-.86c-.85-.21-1.48-.19-2-.88-.73-1.08-.53-2.35-.54-3.55l-8.51,1.9a2.26,2.26,0,0,1,.22,1.8,2,2,0,0,1-.88.78c-1.34.73-2.9.93-4.28,1.7a18.41,18.41,0,0,0-5,4,17.92,17.92,0,0,0-4.4,11.67v38h39.09v-38a18,18,0,0,0-.92-5.66l14.65-7.12a21.31,21.31,0,0,0,4.07-2.57l19.19-15.3Z"/><path class="cls-5" d="M113.82,101.46l.25-.08a1.4,1.4,0,0,0,.46-.26,1.54,1.54,0,0,0,.36-.65c.9-2.63-2.24-4.81-4.7-4.64-1,.07-2.36.46-2.44,1.66-.12,1.76,1.82,2.5,3.14,3C112.05,101,112.54,101.84,113.82,101.46Z"/><path class="cls-10" d="M79.54,94.94a2.51,2.51,0,0,1-5,.11Z"/><path class="cls-10" d="M101,87.4a2.5,2.5,0,1,0,5-.12Z"/><path class="cls-5" d="M40.71,84.43l-.1-.17a11.44,11.44,0,0,1-1.07-1.74,5.76,5.76,0,0,1-.37-2.6,1.08,1.08,0,0,0-.09-.69.51.51,0,0,0-.51-.18c-.48.1-.5.46-.73.86a.28.28,0,0,1-.17.15.27.27,0,0,1-.17,0,3.62,3.62,0,0,1-1.19-1.44C36,78,35.5,77.5,34.92,77.52a1.24,1.24,0,0,0-1,.87,3.11,3.11,0,0,0-.08,1.52v0a7.41,7.41,0,0,0,1.54,3.26c.53.69,1.11,1.35,1.63,2.06a8.61,8.61,0,0,1,.69,1.08,7.56,7.56,0,0,0,.61,1.12,1.18,1.18,0,0,0,1.1.27,3.78,3.78,0,0,0,2.11-1.3.78.78,0,0,0,.16-.24.62.62,0,0,0-.07-.42A7.92,7.92,0,0,0,40.71,84.43Z"/><path class="cls-2" d="M95.1,178.39c-.5-4.38-.63-8.75-1.07-13.17a73.5,73.5,0,0,0-4.57-18.11c-1.88-5.07-3.8-10.48-3.27-16,.27-2.87,1.06-5.71,1-8.6,0-4.51-1.67-11-5.29-14-1.35-1.11-3.37-.63-5-.69L70,107.57a9.46,9.46,0,0,0-7.25,3c-3.08-3-6.59-6.49-8.21-8.42-.75-.89-1.91-2.35-3.27-4-3.82-4.84-9.08-11.7-10.43-13.48a2.27,2.27,0,0,1-.25-.34l-.1-.1-2.57,2.65.32.6,0,.06c2.74,5,5,10.28,7.78,15.27s6.6,9.32,10.21,13.89c.06.07.11.16.17.23l1,1.24A14.29,14.29,0,0,0,59,119.53a14,14,0,0,0,.12,1.6,63.44,63.44,0,0,1,.66,7.83c.06,3.38.34,7.06-.38,10.39-1.43,6.57-4,13-5.92,19.39Q50.21,169.27,46,179.47c5.86,2.53,12.48,2.34,18.86,2.23q8-.13,16.07,0,4.09.06,8.19.2c1.8.06,4.82.81,6.5.14C95.41,180.82,95.24,179.61,95.1,178.39Z"/><path class="cls-11" d="M74.52,82.62c-4-.71-11.13-.12-12.44,4.54a6.08,6.08,0,0,1-.43,1.35c-.52.94-1.65,1.29-2.56,1.85s-1.67,1.79-1,2.63c.21.28.54.45.73.74.52.76-.18,1.78-1,2.25s-1.75.79-2.18,1.61c-.7,1.32.51,3.12-.3,4.39-.65,1-2.31,1.11-2.82,2.21-.71,1.57,1.6,2.93,1.79,4.65.26,2.29-3.28,3.82-2.78,6.08.15.67.66,1.22.82,1.89.44,1.85-1.77,3.26-2.19,5.11a3,3,0,0,0,3.09,3.46,5.23,5.23,0,0,1,1.3-.14c1.78.26,1.88,3.53,3.68,3.63,1.36.08,2-1.79,3.28-2.22,1.64-.56,3.38,1.41,5,.78,1.84-.71,1.37-3.89,3.11-4.81,1-.5,2.2-.12,3.09-.72,1.09-.73.89-2.39.39-3.61s-1.2-2.55-.7-3.77c.6-1.49,2.75-2.12,2.89-3.71.2-2.25-3.8-3.41-3.2-5.58.27-1,1.51-1.61,1.58-2.65a2.88,2.88,0,0,0-1.08-2.2,4.69,4.69,0,0,1-1.26-1.21c-1-1.89,1.34-3.12,1.43-4.9s-.9-2.86.34-4.32c1.1-1.29,3.28-2.59,5-2.27,1.21.22,1.43,1.07,2.06,2-.33-.54,0-1.54,0-2.12a3.63,3.63,0,0,0-1.13-2.39A8.19,8.19,0,0,0,74.52,82.62Z"/><path class="cls-12" d="M162.89,80.5a.65.65,0,0,1-.47-1.11l19.94-21a.67.67,0,0,1,.93,0,.66.66,0,0,1,0,.93l-19.94,21A.66.66,0,0,1,162.89,80.5Z"/><polygon class="cls-12" points="187.04 59.44 177.01 59.44 179.62 53.56 189.66 53.56 187.04 59.44"/><path class="cls-5" d="M61.31,132.82l-.16-.2a1.16,1.16,0,0,0-1.14-.44c-2.79.09-3.71,3.8-2.67,6,.43.93,1.27,2,2.42,1.69,1.69-.51,1.69-2.59,1.71-4C61.48,134.65,62.12,133.87,61.31,132.82Z"/><path class="cls-5" d="M358.49,163.71a22.41,22.41,0,0,0,.4-4.09c0-1.42-.13-1.55.95-2.58,3.6-3.44,5.56-11.76-1.37-12.89a4.72,4.72,0,0,0-3.41.82,7.93,7.93,0,0,0-2.94,5.71A7.82,7.82,0,0,0,353,155c.58,1.09,1.55,1.71,1.42,3l-.51,5.4A20.35,20.35,0,0,1,358.49,163.71Z"/><path class="cls-10" d="M353.09,151.59a1.89,1.89,0,1,0,3.56,1.28Z"/><path class="cls-5" d="M327.64,159l-.08,0a5.55,5.55,0,0,1-.82-.49,2.41,2.41,0,0,1-.68-1c0-.11-.07-.22-.17-.27a.27.27,0,0,0-.27,0c-.2.15-.14.31-.17.53a.16.16,0,0,1-.05.1.14.14,0,0,1-.09,0,1.72,1.72,0,0,1-.82-.33.91.91,0,0,0-.85-.13.67.67,0,0,0-.3.61,1.23,1.23,0,0,0,.26.66v0a3.16,3.16,0,0,0,1.34,1c.37.16.77.31,1.14.49a3.92,3.92,0,0,1,.53.29,3.23,3.23,0,0,0,.49.33.62.62,0,0,0,.56-.14,2.05,2.05,0,0,0,.71-1,.22.22,0,0,0,0-.14.33.33,0,0,0-.11-.16A3.86,3.86,0,0,0,327.64,159Z"/><path class="cls-5" d="M346.45,165.84s-6.82-1.75-9-2.61-9.92-4.32-9.92-4.32l-.67,1.72,8.14,5.62a8.82,8.82,0,0,0,1.71.92l8,3.27Z"/><path class="cls-9" d="M367.55,149h2.07a14.42,14.42,0,0,0-2.74-3l1.56-.38a7,7,0,0,0-3.53-2.07l1.38-1.44a18.41,18.41,0,0,0-4.13-.08c.3-.31.6-.61.89-.92a8.19,8.19,0,0,0-8.09,2.73c-.29.34-1.1,2.28-1.31,2.36a6,6,0,0,1,2.29-.4.54.54,0,0,1,.31.09c.16.14.09.39.13.6.08.46.69.59,1.14.47a3.42,3.42,0,0,1,1.35-.27.37.37,0,0,1,.23.12c.17.19,0,.48,0,.73,0,.46.62.56,1,.72,1.55.6,2,3.11,1.07,4.38a.51.51,0,0,1,.81.13.89.89,0,0,1-.11.91,4.09,4.09,0,0,1-.7.68,9.36,9.36,0,0,0-2,3.08c.18-.38,1.8-.72,2.17-1a8.54,8.54,0,0,1,2.63-1.36,2.79,2.79,0,0,0,1.19-.56,1,1,0,0,0,.21-1.2c.47.18.94.34,1.42.48l-.21-2.65a6.53,6.53,0,0,0,1.87.18A4.71,4.71,0,0,0,367.55,149Z"/><path class="cls-13" d="M346.92,193c0-.07-.05-.14-.07-.21a23.37,23.37,0,0,1-.62-7.7c.15-4.79.13-9.55.67-14.31,0-.19,0-.37,0-.55l-4.62.83L341,163.64c3.34-.74,6.77-1.21,10.15-1.69l3.66-.52a11.2,11.2,0,0,1,2.47-.29,10.66,10.66,0,0,1,7.3,2.82,8.19,8.19,0,0,1,2.79,5.67c0,2.44.07,4.72.3,7.19a100.38,100.38,0,0,1,.16,17.25,56.42,56.42,0,0,1-19.57-.15,2,2,0,0,1-1-.39A1.46,1.46,0,0,1,346.92,193Z"/><path class="cls-5" d="M330,175.55h-.1a4.88,4.88,0,0,1-1.07.12,2.7,2.7,0,0,1-1.28-.45.54.54,0,0,0-.34-.12.29.29,0,0,0-.21.22c-.08.27.08.37.2.59a.13.13,0,0,1,0,.12.16.16,0,0,1-.06.08,1.81,1.81,0,0,1-1,.25,1,1,0,0,0-.84.46.74.74,0,0,0,.14.75,1.47,1.47,0,0,0,.67.42h0a3.53,3.53,0,0,0,1.88,0c.45-.1.9-.24,1.35-.33a4,4,0,0,1,.67-.09,3.71,3.71,0,0,0,.67,0c.22-.05.33-.28.4-.49a2.34,2.34,0,0,0-.06-1.41.27.27,0,0,0-.07-.14.29.29,0,0,0-.2-.07A4,4,0,0,0,330,175.55Z"/><path class="cls-5" d="M351.39,169.05s-7.26,3-9.81,3.73-11.77,2.81-11.77,2.81l.56,2,11.05-.45a9.73,9.73,0,0,0,2.14-.33l9.33-2.43Z"/><path class="cls-14" d="M349.05,176.63l-1.71-3.19a14.59,14.59,0,0,1-1.79-3.46c1.48-.83,2.93-1.71,4.38-2.59l5.79-3.52.77-.47a3.4,3.4,0,0,1,4.36,1.12,3.68,3.68,0,0,1,.57,4,11.09,11.09,0,0,1-2.73,2.82C355.89,173.6,352.27,175,349.05,176.63Z"/><path class="cls-15" d="M381.15,230.22l-7.21-8.63-4.87-5.82a4.45,4.45,0,0,1-1-3.33l.09-.76c.48-4.28,1.21-8.64,1.1-13a29.15,29.15,0,0,0-.36-4q-.42-2.43-.81-4.86s0,0,0,0H346.18c-.21,1.28-.43,2.58-.65,3.87a28.65,28.65,0,0,0-.39,3.57,52,52,0,0,0,.21,8.27c.3,3.15.76,6.29,1.12,9.45q.66,5.81,1.31,11.6c.34,3.05.7,6.12,1.05,9.19,0,.16.3,3.13.36,3.13h1.24l3.23-28.4,1-8.92h4.89l.37,3.28,1.11,9.76h0l0,.37a4.43,4.43,0,0,0,1.67,2.92l.32.26h0l3.93,3.21,16.25,13.23.95-.67Z"/><path class="cls-13" d="M348.06,237.21a4.57,4.57,0,0,0-2.7,1.44c-.46.57.08,1.26.8,1.26h4.52v-3.43c-.2,0-1.74,0-1.74,0a2.92,2.92,0,0,1,0,.59C348.66,237.11,348.36,237.15,348.06,237.21Z"/><path class="cls-13" d="M381.15,233.5a3.72,3.72,0,0,0-.95,2.69.93.93,0,0,0,1.53.46l3.37-2.71L384,232.87l-1.24-1.25-.24-.24c-.15.12-1.28,1.06-1.29,1.05a3.58,3.58,0,0,1,.44.43C381.52,233.06,381.33,233.27,381.15,233.5Z"/><path class="cls-5" d="M309.89,143.25a16.77,16.77,0,0,0,1.34-2.84,2.06,2.06,0,0,1,.5-.92.57.57,0,0,1,.87.06,2.15,2.15,0,0,1,.13.81.32.32,0,0,0,.07.19.26.26,0,0,0,.15,0,2.5,2.5,0,0,0,1.32-.57,1.33,1.33,0,0,1,1.37-.2,1.26,1.26,0,0,1,.5,1.1,2.46,2.46,0,0,1-.41,1.18c-1.05,1.71-3,2.36-4.84,2.68Z"/><path class="cls-4" d="M266.67,147.56a3.07,3.07,0,0,0,1.44,2.44,37.34,37.34,0,0,0,4.91,2.72,40.67,40.67,0,0,0,7.68,3c4,1,7.9,2.77,12,3.53a6.75,6.75,0,0,0,2.45.13,6.9,6.9,0,0,0,2.5-1.21,56.82,56.82,0,0,0,14-13.45l-1.52-1.82c-.39-.48-5.58,2.68-6,2.93-3.64,2.27-7.81,4.72-10.54,8.06-.14.17-.3.36-.52.36a.72.72,0,0,1-.4-.16c-3-1.93-5.79-4.17-8.64-6.31-1.46-1.11-3-1.83-4.42-3a12,12,0,0,0-5.1-2.77,14.06,14.06,0,0,0-3.11-.18,5.23,5.23,0,0,0-3.42.88,5,5,0,0,0-1.33,3.46A7.52,7.52,0,0,0,266.67,147.56Z"/><path class="cls-5" d="M267.53,141a46.72,46.72,0,0,1,1.21-5.92c.42-1.49.17-.11-.66-1.51-2.78-4.68-2.38-14,5.25-13.18a5.21,5.21,0,0,1,3.35,1.87,8.69,8.69,0,0,1,1.41,6.89,8.57,8.57,0,0,1-2.21,4.23c-.94,1-2.14,1.35-2.4,2.79-.35,2-.7,3.89-1.06,5.84A21.81,21.81,0,0,0,267.53,141Z"/><path class="cls-9" d="M277.22,119.22c.1,0,.2,0,.3,0a5,5,0,0,0,2.88-1.45,5.57,5.57,0,0,1-.67,4,2.76,2.76,0,0,1-3.06,1.49,24.28,24.28,0,0,0-3.9-.15,3.14,3.14,0,0,0-2.12.93,4.75,4.75,0,0,0-.93,2.18c-.36-.41-.9-.84-1.38-.6a1.08,1.08,0,0,0-.43.51c-.56,1.25-.1,2.64,0,3.93.07.65.09,3.47-1,2.11a3.91,3.91,0,0,1-.34-.49,13.6,13.6,0,0,1-1.12-2.86,29.46,29.46,0,0,1-.94-3.46,6.92,6.92,0,0,1,.33-3.85c1.54-3.89,6.76-4.82,10.2-3a5.68,5.68,0,0,0,1.46.67A2.57,2.57,0,0,0,277.22,119.22Z"/><path class="cls-10" d="M276.56,130.35a2.67,2.67,0,1,1-5.32-.55Z"/><path class="cls-4" d="M258.9,145.71a15.29,15.29,0,0,1,4-3.3,13.21,13.21,0,0,1,2.75-1.21,13.6,13.6,0,0,1,11,1.28c3.49,2.05,6.29,6.48,7.29,10.35.51,2,.73,4,1.1,6l-.52,32c-2.9.67-28.26,5.75-28.26,6.46-.16-3-.36-6-.55-9.06-.66-10.07-1.38-20.15-1.38-30.19A18.77,18.77,0,0,1,258.9,145.71Z"/><path class="cls-16" d="M229.39,232.34v-1.58a.28.28,0,0,1,.05-.2.35.35,0,0,1,.2-.07c2.48-.21,5-.4,7.43-.67q6.57-.73,13.19-.86c2.2,0,4.41,0,6.61,0a39.65,39.65,0,0,1,4.16.19c-1.31-5.44-2.66-10.73-3.44-16.28-.41-2.94-.74-5.9-1-8.87s-.46-6-.6-8.92c-.11-2.28-.18-4.53-.24-6.8l17.54-1.21h.07v0h11.75c0,.1,0,.22,0,.31.37,2.26,1.87,1.95,3.66,2.15l5.83.67c3.1.36,10.6.23,11.67,4.23.66,2.46-.21,5-.63,7.42L304,211.51c-.3,1.74-4.32,23.14-3.72,23.3-.7-.18-3.22.16-3.55-.17a1.27,1.27,0,0,1-.28-.65c-1.51-7.08-1.53-14.48-1.5-21.69,0-1.09-.42-10.45.52-10.67-.24.06-.48.1-.73.15-2.22.41-21.24,2.57-21.22,1.64-.14,5.14-.09,10.26-.73,15.38a133.16,133.16,0,0,1-4,19.55,2.06,2.06,0,0,1-.54,1.07,1.54,1.54,0,0,1-1,.25,127.19,127.19,0,0,1-16.2-.9,112.79,112.79,0,0,1-12.51-2.3c-2.08-.5-4.13-1.05-6.18-1.67l-1.59-.49c-.28-.09-1.16-.21-1.33-.43a.67.67,0,0,1-.06-.12A6.08,6.08,0,0,1,229.39,232.34Z"/><path class="cls-3" d="M227.46,240.33a8.13,8.13,0,0,0,3.64-5.07q.12-.45.21-.9a23,23,0,0,0,.18-4h0l-4.39,0a2.88,2.88,0,0,0-2.88,2.9c0,2.44,0,5.53,0,5.56A2.09,2.09,0,0,0,227.46,240.33Z"/><path class="cls-3" d="M306.21,236.46a8.16,8.16,0,0,0-5.06-3.67c-.3-.09-.59-.16-.89-.22a23.05,23.05,0,0,0-4-.19h0v4.38a2.89,2.89,0,0,0,2.89,2.9h5.56A2.09,2.09,0,0,0,306.21,236.46Z"/><path class="cls-5" d="M309.35,165.16a17.85,17.85,0,0,0,2.29-2.15,2.16,2.16,0,0,1,.8-.68.57.57,0,0,1,.78.38,2,2,0,0,1-.17.81.25.25,0,0,0,0,.19.2.2,0,0,0,.12.1,2.45,2.45,0,0,0,1.44-.05,1.32,1.32,0,0,1,1.35.32,1.29,1.29,0,0,1,.06,1.21,2.55,2.55,0,0,1-.81.94c-1.61,1.2-3.67,1.1-5.49.72Z"/><path class="cls-17" d="M266.05,152.91c2.68,5.49,9.44,11.6,11.58,13.13,3.38,2.41,6.34,5.47,9.9,7.69a6.66,6.66,0,0,0,2.22,1,6.88,6.88,0,0,0,2.77-.2,56.7,56.7,0,0,0,17.94-7.39l-.74-2.25c-.19-.59-6.17.45-6.64.54-4.22.78-9,1.52-12.76,3.63a.56.56,0,0,1-.93-.15c-2.08-2.9-3.85-6-5.72-9-1.35-2.2-3-4-4.55-6.07a37.53,37.53,0,0,0-5.18-6.12c-1.65-1.44-5-4.05-7.25-2.34S264.59,149.93,266.05,152.91Z"/><path class="cls-12" d="M306.44,130.11l16,6.71,1.17-2.07a2.91,2.91,0,0,1,3.95-1.1l.07,0a2.91,2.91,0,0,1,1.09,3.95l-1.17,2.07,14,10.28c1.56,1.15,2.21,2.87,1.53,4.07s-2.38,1.52-4.13.85l-15.79-6.08L315.58,159c-.23.3-.05.79.4,1.08l8,5.16c1.12.72,1.63,1.91,1.16,2.74s-1.75,1-3,.41l-9.28-4.57a.92.92,0,0,0-1,0l-1.55,1.45a.57.57,0,1,1-.94-.53l.46-2.08a.93.93,0,0,0-.49-.88l-8.71-5.61c-1.12-.72-1.63-1.91-1.17-2.74s1.75-1,2.95-.41l8.55,4.21c.49.23,1,.14,1.14-.22l4.76-11.76-13.35-10.4c-1.48-1.15-2.07-2.81-1.41-4S304.65,129.36,306.44,130.11Z"/><path class="cls-16" d="M511.77,259.77a1,1,0,0,0,1-1V183.62a1,1,0,0,0-2,0v75.14A1,1,0,0,0,511.77,259.77Z"/><path class="cls-18" d="M479.6,160.19a8.15,8.15,0,0,1-5.15-7.63,8.06,8.06,0,0,1,7.94-8.18,6.9,6.9,0,0,1,1.3.14,6.85,6.85,0,0,1,6.72-6.32,6.51,6.51,0,0,1,2.54.52c0-.17-.05-.34-.05-.52A10.2,10.2,0,0,1,503,127.86a10,10,0,0,1,9,5.78,10,10,0,0,1,9-5.78A10.2,10.2,0,0,1,531,138.2a10.67,10.67,0,0,1-.43,2.85,6.65,6.65,0,0,1,3.82-1.21,6.82,6.82,0,0,1,6.66,5.79h.12a8.07,8.07,0,0,1,8,8.18,8.24,8.24,0,0,1-3.26,6.57c0,.45,0,.91,0,1.36,0,.2,0,.4,0,.6a12,12,0,0,1,1.46,5.67,11.73,11.73,0,0,1-11.56,11.9,11.16,11.16,0,0,1-3.93-.75l-.31,0-.32,0c0,.25.08.5.08.75a8.83,8.83,0,0,1-8.7,8.95,8.71,8.71,0,0,1-8-5.53,11.24,11.24,0,0,1-9.87,6,11.4,11.4,0,0,1-11.18-10.25h0a11.26,11.26,0,0,1-6.38,2,11.74,11.74,0,0,1-11.56-11.9A12,12,0,0,1,479.6,160.19Z"/><path class="cls-19" d="M520.91,141.85a1.42,1.42,0,1,1,1.42,1.42A1.42,1.42,0,0,1,520.91,141.85Z"/><path class="cls-19" d="M497.76,172.77a1.42,1.42,0,1,1,1.42,1.43A1.43,1.43,0,0,1,497.76,172.77Z"/><path class="cls-19" d="M501.62,136.22a1.42,1.42,0,1,1,2,.29A1.43,1.43,0,0,1,501.62,136.22Z"/><path class="cls-19" d="M510.11,156.11a1.42,1.42,0,1,1,2,.29A1.42,1.42,0,0,1,510.11,156.11Z"/><path class="cls-19" d="M486.45,154.08a1.42,1.42,0,1,1,1.58,1.25A1.42,1.42,0,0,1,486.45,154.08Z"/><path class="cls-19" d="M533.37,160.91a1.42,1.42,0,1,1,1.31,1.53A1.42,1.42,0,0,1,533.37,160.91Z"/><path class="cls-19" d="M519,176.58a1.42,1.42,0,1,1,1.31,1.52A1.41,1.41,0,0,1,519,176.58Z"/><path class="cls-18" d="M436,211.37l.15,0a4.61,4.61,0,0,1,.41-1,1.13,1.13,0,0,1-.38-.94,1.15,1.15,0,0,1,1.24-1,1.09,1.09,0,0,1,.71.34,4.2,4.2,0,0,1,1.23-.53.76.76,0,0,1,0-.15,1.15,1.15,0,1,1,2.29,0c0,.05,0,.1,0,.15a4.57,4.57,0,0,1,1.2.51,1.15,1.15,0,0,1,2,.82,1.12,1.12,0,0,1-.36.83,4.32,4.32,0,0,1,.41,1l.15,0a1.15,1.15,0,0,1,0,2.3l-.15,0a4.32,4.32,0,0,1-.51,1.21,1.14,1.14,0,0,1,.46.91,1.16,1.16,0,0,1-1.15,1.15,1.13,1.13,0,0,1-.93-.49,4.7,4.7,0,0,1-1.07.43s0,.1,0,.15a1.15,1.15,0,1,1-2.29,0,.76.76,0,0,1,0-.15,4.53,4.53,0,0,1-1.09-.44,1.14,1.14,0,0,1-2.09-.65,1.17,1.17,0,0,1,.47-.93,4.48,4.48,0,0,1-.5-1.19l-.15,0a1.15,1.15,0,0,1,0-2.3Z"/><path class="cls-18" d="M402.65,206.57l.15,0a4.61,4.61,0,0,1,.41-1,1.13,1.13,0,0,1-.38-.94,1.15,1.15,0,0,1,1.24-1.05,1.09,1.09,0,0,1,.71.34,4.2,4.2,0,0,1,1.23-.53s0-.1,0-.15a1.15,1.15,0,1,1,2.29,0c0,.05,0,.1,0,.15a4.26,4.26,0,0,1,1.2.51,1.15,1.15,0,0,1,1.95.82,1.14,1.14,0,0,1-.36.83,4.8,4.8,0,0,1,.42,1.05l.15,0a1.15,1.15,0,0,1,0,2.3l-.15,0a4.66,4.66,0,0,1-.52,1.21,1.12,1.12,0,0,1,.46.91,1.15,1.15,0,0,1-2.08.66,4.36,4.36,0,0,1-1.07.43c0,.05,0,.1,0,.15a1.15,1.15,0,1,1-2.29,0c0-.05,0-.1,0-.15a4.7,4.7,0,0,1-1.09-.44,1.15,1.15,0,1,1-1.61-1.58,4.2,4.2,0,0,1-.51-1.19l-.15,0a1.15,1.15,0,0,1,0-2.3Z"/><path class="cls-18" d="M318.85,223.09l.15,0a4.59,4.59,0,0,1,.4-1,1.12,1.12,0,0,1-.37-.94,1.15,1.15,0,0,1,1.24-1,1.11,1.11,0,0,1,.71.34,4.09,4.09,0,0,1,1.23-.53.77.77,0,0,1,0-.15,1.15,1.15,0,0,1,2.3,0,.77.77,0,0,1,0,.15,4.32,4.32,0,0,1,1.21.51,1.15,1.15,0,0,1,1.59,1.65,4.77,4.77,0,0,1,.41,1.05l.15,0a1.15,1.15,0,1,1,0,2.3l-.15,0a4.63,4.63,0,0,1-.51,1.21,1.14,1.14,0,0,1-.69,2,1.16,1.16,0,0,1-.94-.48,4.36,4.36,0,0,1-1.07.43.77.77,0,0,1,0,.15,1.15,1.15,0,0,1-2.3,0,.77.77,0,0,1,0-.15,4.6,4.6,0,0,1-1.1-.44,1.12,1.12,0,0,1-.94.49,1.15,1.15,0,0,1-1.15-1.14,1.14,1.14,0,0,1,.48-.93,4.48,4.48,0,0,1-.5-1.19l-.15,0a1.15,1.15,0,0,1,0-2.3Z"/><path class="cls-18" d="M482.62,262.73c0-.07,0-.14,0-.22a9.47,9.47,0,0,1,16.63-6.21,13.34,13.34,0,0,1,25.65.95,8,8,0,0,1,12.18,5.48Z"/><path class="cls-20" d="M145.57,210.56c0-.07,0-.14,0-.22a9.46,9.46,0,0,1,16.62-6.21,13.34,13.34,0,0,1,25.65,1A8,8,0,0,1,200,210.56Z"/><path class="cls-21" d="M195.78,182.3a1,1,0,0,1,0-.17,7.4,7.4,0,0,1,13-4.86,10.44,10.44,0,0,1,20.07.75,6.14,6.14,0,0,1,3.36-1,6.26,6.26,0,0,1,6.17,5.28Z"/></svg>