<svg id="圖層_1" data-name="圖層 1" xmlns="http://www.w3.org/2000/svg" viewBox="0 0 430 500"><defs><style>.cls-1{fill:#c28032;}.cls-2{fill:#fff;}.cls-3{fill:#998268;}.cls-4{fill:#727272;}.cls-5{fill:#e14f6f;}.cls-6{fill:#f6ba99;}.cls-7{fill:#465ba7;}.cls-8{fill:#5c6db2;}.cls-9{fill:#b19875;}.cls-10{fill:#e4e4e4;}.cls-11{fill:#7282bf;}.cls-12{fill:#c86031;}.cls-13{fill:#df7e4d;}.cls-14{fill:#040000;}</style></defs><circle class="cls-1" cx="262.61" cy="167.39" r="167.39"/><path class="cls-2" d="M255,120c2.11-.1,4-.17,6-.31.29,0,.61-.37.83-.63a23.4,23.4,0,0,1,1.91-2.38,2.62,2.62,0,0,1,3.56,0,12.52,12.52,0,0,1,2.09,2.09,2.58,2.58,0,0,1,.49,1.73c0,.22-.95.46-1.47.49-4.11.21-8.22.37-12.33.54l-1,.06q.33,9.91.67,19.8a1.33,1.33,0,0,0,1.85-.63c2.36-3.45,4.39-3.4,6.64.13a4.36,4.36,0,0,1,.35.59c.45,1,.09,1.57-1,1.57-2.13,0-4.26,0-6.4,0-.44,0-.89,0-1.27,0,0,2.36,0,4.64,0,6.91,0,1.83-.09,2.05-1.88,2.32-1.54.23-3.1.33-4.65.47-1,.09-1.45-.37-1.46-1.4,0-2.29-.07-4.58-.12-6.86,0-.37,0-.74-.08-1.21-2,.13-3.87.27-5.76.37-.56,0-1.38.32-1.43-.62s.79-.87,1.42-.91l5.84-.32-.59-19.71c-2,.14-3.84.26-5.69.41-2.32.19-4.63.45-6.94.59-.42,0-1.17-.25-1.24-.54-.22-.78.48-.88,1.07-.93l11.72-1,.93-.08c0-.36,0-.68,0-1l-.54-10.39c-.07-1.45.26-1.85,1.69-1.67q3.22.4,6.41,1c.5.1,1.23.64,1.27,1,.07.57-.39,1.2-.65,1.8s-.62,1-.61,1.41C254.68,115.12,254.84,117.48,255,120Z"/><path class="cls-2" d="M238.45,128.79a2.49,2.49,0,0,1,.7.18c1.83,1.12,3.69,2.22,5.46,3.44a1.81,1.81,0,0,1,.66,1.51c-.1.44-.8.76-1.28,1.07a16.47,16.47,0,0,0-1.76,1,33.47,33.47,0,0,1-10.61,6.1,3.79,3.79,0,0,1-1.25,0,4.24,4.24,0,0,1,.41-1.08,43.11,43.11,0,0,0,5.91-10.87A1.81,1.81,0,0,1,238.45,128.79Z"/><path class="cls-2" d="M268.7,139.33a13.31,13.31,0,0,1-2.35-1c-3.41-2.26-5.28-5.59-6.32-9.45a2.5,2.5,0,0,1,.08-.85c.43,0,.94,0,1.27.17a18.51,18.51,0,0,0,6.89,2.6c1.8.27,3.63.35,5.44.59a4.11,4.11,0,0,1,1.2.57c-.29.31-.52.74-.88.9-1.84.86-2.49,2.46-2.82,4.28S270.53,139.16,268.7,139.33Z"/><path class="cls-2" d="M243.5,58.06c-1.51.11-2.84.25-4.16.26-.47,0-1.31-.28-1.36-.53-.15-.93.68-.92,1.32-1,1.32-.1,2.65-.17,4.09-.27-.12-2-.22-3.93-.33-5.86,0-.61-.1-1.22-.12-1.83,0-1.22.38-1.75,1.61-1.6a56.94,56.94,0,0,1,5.95,1c1.37.32,1.55,1.24.77,2.41a4,4,0,0,0-.6,1.84c-.1,1.2,0,2.41,0,3.61h8c.09-1.56.18-3,.26-4.5,0-.8,0-1.6.11-2.4s.56-1.34,1.37-1.17a61.66,61.66,0,0,1,6.06,1.51c1.35.44,1.38,1.45.37,2.46a2.62,2.62,0,0,0-.73,1.43,19.52,19.52,0,0,0,0,2.66,1.7,1.7,0,0,0,2.28-.88A2.18,2.18,0,0,1,270.87,54a4.29,4.29,0,0,1,2.22,2.86c0,.8-.47,1.06-1.19,1l-4.34-.13h-1.8V74.82c.7,0,1.49,0,2.27,0a1.48,1.48,0,0,0,.65-.35,1.28,1.28,0,0,0,.26-.38c2-2.89,3.43-2.66,5.58.24a2,2,0,0,1,.29,1.58c-.09.28-.88.45-1.35.45q-10,.09-20,.08a1.89,1.89,0,0,0-1.79.91A29.33,29.33,0,0,1,235.17,89.1a3.62,3.62,0,0,1-1.25-.1,4.94,4.94,0,0,1,.69-1,35.46,35.46,0,0,0,8.59-10.29l.45-.87-5,.27a2.93,2.93,0,0,1-1,0,3.92,3.92,0,0,1-.89-.61c.25-.28.46-.74.77-.82a9.22,9.22,0,0,1,2-.18c1.4,0,2.81,0,4.42,0ZM251,64.67c0,1.47,0,2.69,0,3.9,0,.25.38.59.65.67.9.28,1-.55,1.34-1.06,1.33-2.11,2.57-2.2,3.83-.18a8.67,8.67,0,0,1,.67,2.2,10.32,10.32,0,0,1-2.08.5c-1.46.08-2.93,0-4.31,0v4.13h7.35v-17h-7.55V63c1.09.47,1.46-.08,1.89-.83,1.33-2.38,2.57-2.37,4,0a.33.33,0,0,1,.06.1c.13.64.48,1.34.31,1.89-.1.31-1,.49-1.58.52C254.14,64.72,252.63,64.67,251,64.67Z"/><path class="cls-2" d="M259.12,90.55c.45-.52.77-.93,1.14-1.3,1.39-1.43,3.16-1.37,4.26.27a3.56,3.56,0,0,1,.83,2.42c-.31,1.07-1.52.45-2.33.43-1.33,0-2.65-.22-4.06-.34v5.35c1.81.5,2,.43,3-1,.17-.25.35-.5.53-.74,1.5-2,2.81-2.12,4.55-.29a9.23,9.23,0,0,1,1.33,1.71,2,2,0,0,1,.29,1.43c-.09.28-.8.46-1.25.48-4.6.12-9.21.16-13.81.31-3,.1-5.93.35-8.89.53-.16,0-.34.09-.45,0-.4-.19-.77-.42-1.14-.63.33-.28.64-.76,1-.8,2-.24,4-.42,6-.5,1,0,1.21-.4,1.18-1.3-.06-1.66,0-3.33,0-5.07-1.68-.08-3.15-.1-4.62-.25-.37,0-.71-.47-1.07-.72.37-.23.72-.64,1.09-.66,1.41-.08,2.81,0,4.38,0-.07-1.26-.14-2.61-.22-4,0-.76-.06-1.53-.15-2.28-.1-.93.38-1.35,1.19-1.24,2.36.33,4.72.67,7.05,1.16,1,.22,1.26,1.21.7,2.08A5.38,5.38,0,0,0,259.12,90.55Z"/><path class="cls-2" d="M271.21,87.7c-.9-.34-1.56-.53-2.18-.82a12.56,12.56,0,0,1-7.44-8.95,3.27,3.27,0,0,1,.09-.92,3.21,3.21,0,0,1,.79.28A22.41,22.41,0,0,0,274,81a6.72,6.72,0,0,1,1.35.14.9.9,0,0,1,.56.58.86.86,0,0,1-.37.72,6.13,6.13,0,0,0-3.21,4.08C272.12,87,271.56,87.33,271.21,87.7Z"/><path class="cls-2" d="M257.63,202.57l-8.11.5c-.15,0-.38,0-.42.14-.84,1.67-2.46,1.15-3.81,1.36a11.13,11.13,0,0,1-2.16,0,1.43,1.43,0,0,1-1.54-1.58q-.36-8.38-.79-16.78c-.05-1,.23-1.64,1.27-1.82,1.23-.21,2.46-.52,3.7-.62,1.94-.16,2.25.14,2.52,2.19,1.59.09,3.21.22,4.83.27s3.2,0,4.79,0c.69,0,.94-.23,1-.89.18-1.47.5-1.85,1.89-1.58a32.81,32.81,0,0,1,5.65,1.62c1.41.56,1.39,1.76.23,2.75a1.92,1.92,0,0,0-.65,1.21c-.26,4.25-.51,8.51-.65,12.77,0,1.22-.47,1.92-1.64,2.05a29.7,29.7,0,0,1-4.41.29C257.92,204.42,257.89,204.25,257.63,202.57Zm.13-1.53c.26-4.48.51-8.87.76-13.39H248.39l.25,3.63c1.38.22,2.41.22,3.23-1.09s2.07-1.24,3.07,0a4.77,4.77,0,0,1,.49.77c.72,1.39.35,2-1.19,1.95-1.82,0-3.63,0-5.52,0,0,.68.09,1.28.12,1.88s.06,1.27.09,2c1-.36,2.12.13,2.91-1,1.18-1.76,2.5-1.63,3.78.18a1.82,1.82,0,0,1,.4,1.4c-.15.33-.84.54-1.32.58-1.63.15-3.26.22-4.9.29-.6,0-.9.23-.86.89s0,1.58,0,2.4Z"/><path class="cls-2" d="M261.82,175.43a9.28,9.28,0,0,0,5.15,1.68c2.5.08,5,0,7.53,0a3.28,3.28,0,0,1,1.09.49c-.24.33-.41.82-.73,1a4.75,4.75,0,0,0-2.7,4,1.91,1.91,0,0,1-2.56,1.81,11.48,11.48,0,0,1-8.35-6.11l-.58-1.12a16.12,16.12,0,0,1-6.79,4.46c-1.22.42-2.46.79-3.71,1.12-.29.07-.66-.14-1-.22.09-.3.08-.69.28-.9a21.94,21.94,0,0,0,5.51-10,1.19,1.19,0,0,1,1.6-.88c2,.52,4,1.05,5.89,1.71a1.81,1.81,0,0,1,1,1.27c0,.4-.54.87-.89,1.28A3.22,3.22,0,0,1,261.82,175.43Z"/><path class="cls-2" d="M267,168.74c-3-.18-5.92-.24-8.83-.58a4.29,4.29,0,0,0-3.51,1.17A52.59,52.59,0,0,1,249,173c-.29.18-.75.09-1.14.12A3.67,3.67,0,0,1,248,172a47.06,47.06,0,0,0,3.85-11.31c.18-1,.82-1.39,1.64-1.11a65.57,65.57,0,0,1,6.24,2.44c1.24.58,1.05,1.67-.16,2.41a17.55,17.55,0,0,0-2.15,1.82l.17.4c1.57.12,3.14.27,4.71.34s2.89,0,4.34.08c.66,0,.92-.2,1-.87.26-1.36.89-1.78,2.07-1.13a37,37,0,0,1,5.11,3.37c1.14.91.73,1.77-.61,2.31-2.28.92-4.49,2-6.73,3a6.58,6.58,0,0,1-.94.42c-.75.21-1.08-.13-.86-.9.36-1.24.76-2.47,1.13-3.71A8.06,8.06,0,0,0,267,168.74Z"/><path class="cls-2" d="M234,176.08c.42-.32.79-.83,1.26-.94,3.25-.78,6.52-1.48,9.79-2.17a3.82,3.82,0,0,1,1.15.1c-.07.42,0,.94-.22,1.24-1.5,2-3.06,4-4.61,5.93-.52.66-1.1,1.26-1.6,1.92-.76,1-1.63,1.13-2.32.11-1.13-1.65-2.08-3.42-3.08-5.15a2.72,2.72,0,0,1-.2-.77Z"/><path class="cls-2" d="M238.7,213.17a12.41,12.41,0,0,1,.82-.95c2.07-2,4.18-4,6.22-6,.94-.94,1.65-1.31,2.67-.57a27,27,0,0,1,3.87,3.46,1.13,1.13,0,0,1-.64,1.94c-3.34.84-6.69,1.65-10.06,2.38a12.61,12.61,0,0,1-2.68,0Z"/><path class="cls-2" d="M261.07,206.3c2,.4,2.82.27,4.81.82,1.68.47,2.16,1.81,1.15,3.2a14.36,14.36,0,0,1-3,3c-1.13.84-1.81.48-2.66-.64-1.36-1.77-2.84-3.46-4.25-5.19a7.52,7.52,0,0,1-.54-.91,3.92,3.92,0,0,1,1.09-.41c.68-.07,1.63,0,2.31,0C260,206.08,261.06,206.4,261.07,206.3Z"/><path class="cls-2" d="M245,166.4a6.33,6.33,0,0,1-3.28,4.78,1.47,1.47,0,0,1-1.87-.63c-1.21-1.69-2.45-3.37-3.73-5-.68-.89-.59-1.4.51-1.54a16.74,16.74,0,0,1,7,.53A1.91,1.91,0,0,1,245,166.4Z"/><path class="cls-2" d="M277.15,249.07c.15,4.42.28,8.72.46,13,.08,1.92-.1,2.27-2,2.64-1.16.22-2.34.34-3.51.45s-1.59-.26-1.63-1.46c-.13-4.07-.23-8.15-.34-12.22,0-.46,0-.91,0-1.56-3.4.65-6.71,1.29-10,1.94a8.13,8.13,0,0,1-1.56.31,3.84,3.84,0,0,1-1.22-.47c.3-.36.55-1,.92-1.05,1.92-.46,3.87-.82,5.81-1.18s4-.69,6.06-1.05c0-2.46,0-4.89,0-7.32.14-5.71.32-11.42.49-17.14,0-.45.09-.91.11-1.36,0-1,.62-1.53,1.47-1.35a60.6,60.6,0,0,1,6.35,1.69c1,.33,1,1.55.17,2.37a2.87,2.87,0,0,0-1,2.2q-.27,9.66-.55,19.31a3.08,3.08,0,0,0,.08.53,1.76,1.76,0,0,0,2.27-1.15,3.13,3.13,0,0,1,2.9-2.24,4.36,4.36,0,0,1,3.52,2.23c.75,1.12.37,1.75-1,1.9-2.2.23-4.39.47-6.59.72C278.05,248.87,277.68,249,277.15,249.07Z"/><path class="cls-2" d="M246.9,243.56c0,2.82,0,5.56,0,8.29s.2,5.71.36,8.57a1.36,1.36,0,0,1-1.42,1.64c-1.21.12-2.42.28-3.63.34-1.39.07-1.69-.23-1.75-1.61-.12-2.44-.2-4.88-.3-7.31,0-.37,0-.74-.07-1.39-2.82,2.77-5.48,5.39-9.44,6.76.2-.68.28-1,.39-1.36,1-3,2-5.88,3-8.85.4-1.25.72-1.56,1.94-1.13s2.58,1.07,4,1.67l-.27-6H234a5.69,5.69,0,0,1-1.36,0c-.36-.1-.65-.47-1-.72.32-.26.61-.66,1-.76a6.07,6.07,0,0,1,1.6,0c1.71,0,3.42,0,5.22,0,0-.83,0-1.58,0-2.32q-.39-5.64-.83-11.29c-.14-1.76.24-2.27,2-2.08a31.51,31.51,0,0,1,4.9,1c1.35.37,1.52,1.19.86,2.46a3.8,3.8,0,0,0-.45,1.79c.1,3.05.28,6.09.45,9.14,0,.48.09,1,.14,1.42,1.39.38,2.52.4,3.38-1a1.85,1.85,0,0,1,2.54-.87,4,4,0,0,1,2,3.35c-.12.66-.47.86-1.13.79-1.67-.18-3.34-.3-5-.44C247.79,243.6,247.23,243.58,246.9,243.56Z"/><path class="cls-2" d="M260.1,238.22c1.6.28,3.24.45,4.81.85,1.95.49,2.55,1.62,1.66,3.42A14.67,14.67,0,0,1,263.9,246c-.61.64-1.44.52-2.07-.28-1.57-2-3.18-4-4.76-6-.17-.22-.41-.62-.32-.76a1.18,1.18,0,0,1,.81-.48c.83-.07,1.67,0,2.51,0Z"/><path class="cls-2" d="M262.05,228.16c1.52.25,3.07.41,4.57.78a2.32,2.32,0,0,1,1.66,3.2,12.61,12.61,0,0,1-2.29,3.32c-.85.91-1.7.64-2.49-.3-1.53-1.83-3.12-3.6-4.67-5.4-.16-.18-.36-.54-.29-.65a1.33,1.33,0,0,1,.75-.58c.9-.12,1.82-.14,2.73-.2Z"/><path class="cls-2" d="M249.9,229.59c1.7,1,3.44,1.86,5.07,2.93a.9.9,0,0,1-.23,1.6c-1.87.68-2.7,2.5-4.2,3.57-.52.37-1,.87-1.51,1.2a1.55,1.55,0,0,1-1.14.1c-.14,0-.2-.63-.15-1,.29-2.29.63-4.58.91-6.88A1.51,1.51,0,0,1,249.9,229.59Z"/><path class="cls-2" d="M248.83,247.34c1.85.73,3.74,1.36,5.53,2.23a1.68,1.68,0,0,1,.68,2.69,14.09,14.09,0,0,1-3,3c-1.12.81-2.08.24-2.46-1.1-.51-1.85-1.07-3.7-1.64-5.54-.24-.76-.07-1.11.76-1Z"/><path class="cls-2" d="M232.41,231.64a9.88,9.88,0,0,1,5.35,2.57,2.22,2.22,0,0,1,.08,1.95,5.4,5.4,0,0,1-3,2.79,1.05,1.05,0,0,1-1.6-.72c-.66-1.9-1.28-3.82-1.91-5.73C231,231.69,231.53,231.59,232.41,231.64Z"/><ellipse class="cls-3" cx="129.36" cy="453.58" rx="29.57" ry="6.61"/><path class="cls-4" d="M63,437.28a4.9,4.9,0,0,0,1,2.91,17.1,17.1,0,0,0,2.14,2.51A138.39,138.39,0,0,1,76,453.77a36.63,36.63,0,0,0,4.3,4.59,6.27,6.27,0,0,0,2.27,1.42A1.67,1.67,0,0,0,84.89,458a5.87,5.87,0,0,0-.8-2.55c-.86-1.64-1.77-3.25-2.64-4.89-.47-.88-.92-1.77-1.33-2.68a8.06,8.06,0,0,1-.63-5.7,3.09,3.09,0,0,0-1.46-3.7c-3.15-2.29-6.37-4.48-9.63-6.61-1.29-.85-1.68-.78-2.66.39a24,24,0,0,0-2.15,3.06A3.49,3.49,0,0,0,63,437.28Z"/><path class="cls-4" d="M152.57,446.33c-1.65,0-3.29,0-4.94,0-1.19,0-1.38.15-1.58,1.32a26.17,26.17,0,0,0-.61,4.75,4.13,4.13,0,0,0,3.12,4.39,21.83,21.83,0,0,0,5.41,1.14c5,.47,9.95,1.52,14.9,2.38a28,28,0,0,0,4.46.51,6.78,6.78,0,0,0,1.49-.09,1.41,1.41,0,0,0,.77-2.56,8.4,8.4,0,0,0-1.81-1.32,36.31,36.31,0,0,0-4.41-2.21,22.77,22.77,0,0,1-9.06-7.17,2.64,2.64,0,0,0-2.21-1c-1.84-.05-3.69,0-5.53,0Z"/><path class="cls-5" d="M166.68,379.73a88.37,88.37,0,0,0-1.88-20.92,48.11,48.11,0,0,0-1.2-5.42c-.3-.93-.5-1-1.43-.65-4.59,1.83-9.42,2.58-14.26,3.3-4.2.63-8.43,1-12.65,1.41-.35,0-.7.08-1,.14a.61.61,0,0,0-.51.78,4.6,4.6,0,0,0,.14.74c1.66,5.37,2.63,10.9,3.78,16.39.89,4.26,1.84,8.51,2.52,12.82a38.89,38.89,0,0,1,.55,6.89c-.12,5.26.18,10.52.3,15.78.15,6.62.71,13.21,1.3,19.8.37,4,.51,8.1.76,12.15.08,1.25.17,2.5.3,3.75s.28,1.36,1.45,1.53a32.92,32.92,0,0,0,7,.43c2.64-.18,5.29-.19,7.94-.24.3,0,.6,0,.9,0,1.31-.15,1.74-.59,1.82-1.92.15-2.45.25-4.9.41-7.35.5-7.45,1-14.9,1.52-22.34.48-6.3,1.18-12.58,1.61-18.87C166.42,392,166.84,386,166.68,379.73Z"/><path class="cls-5" d="M119.38,358.15a132.2,132.2,0,0,1-19.66-1.8c-1.18-.23-2.33-.58-3.5-.84-1.42-.31-1.69-.16-1.88,1.26a154.55,154.55,0,0,0-1.79,18.84,4.71,4.71,0,0,1-.58,2.28c-2,3.8-4.46,7.37-6.65,11.08a282.76,282.76,0,0,0-15.16,29.68c-1.72,3.89-3.61,7.7-5.16,11.67-.11.28-.23.56-.33.84-.32,1-.27,1.19.59,1.74,4.07,2.63,8.13,5.27,12.22,7.88a21.14,21.14,0,0,0,2.8,1.44,2,2,0,0,0,3-.83,45.64,45.64,0,0,0,2.61-3.85c7.1-12.27,14.82-24.16,21.79-36.49a170.66,170.66,0,0,0,12.41-26.17,126.56,126.56,0,0,0,4.3-15.32c.29-1.3.15-1.43-1.23-1.42S120.63,358.15,119.38,358.15Z"/><path class="cls-6" d="M199.1,207.49c.25-1.67.47-3.1.67-4.53a3.36,3.36,0,0,0,0-1.34.93.93,0,0,0-1.6-.52,3.62,3.62,0,0,0-.91,1.36,32.66,32.66,0,0,0-1.5,4.08,37.19,37.19,0,0,1-2.18,5.5c-.57-.62-.52-1.36-.75-2A6.8,6.8,0,0,0,192,208a1,1,0,0,0-1.9.24,3.53,3.53,0,0,0-.24,1.47,22.42,22.42,0,0,0,.69,5.35,6.78,6.78,0,0,1-.32,4.4,7.32,7.32,0,0,0-.36,1.15,1.9,1.9,0,0,0,.58,2,1.39,1.39,0,0,0,.21.21c3.09,2,6.21,4,9.84,5,1.09.29,1.48,0,2-1a3,3,0,0,0,.2-.4q3.39-7.53,6.77-15.05a8.34,8.34,0,0,0,.77-2.27c.08-.56.13-1.14-.48-1.45a1.25,1.25,0,0,0-1.49.37c-.39.38-.73.81-1.1,1.22s-.38.68-.88.87a9.84,9.84,0,0,1,.67-2.36,13.14,13.14,0,0,0,.66-2.61c.07-.62.09-1.25-.57-1.57s-1.15,0-1.59.5a13.18,13.18,0,0,0-1.71,2.46c-.15.25-.23.56-.58.74-.17-.55.16-1,.24-1.48.12-.69.33-1.36.43-2.06s.08-1.36-.71-1.63-1.14.24-1.46.78c-.5.86-.95,1.76-1.44,2.63A7.72,7.72,0,0,1,199.1,207.49Z"/><path class="cls-7" d="M173.34,272.81a16.51,16.51,0,0,0,11-5,33.16,33.16,0,0,0,5.43-7.34,203.9,203.9,0,0,0,10.46-21.3c1.31-3,2.56-6,3.83-9,.46-1.1.45-1.12-.59-1.77-2.68-1.66-5.48-3.1-8.27-4.56q-2.52-1.32-5.07-2.6c-1.39-.7-1.75-.57-2.44.85-3.47,7.06-7.54,13.79-11.52,20.57a30,30,0,0,1-4.75,6.18c-2,2-3.44,2.17-5.9.75a12.88,12.88,0,0,1-3.54-3.2c-1-1.29-2-2.66-2.87-4a27.11,27.11,0,0,0-9.46-8.82c-2.27-1.29-4.78-1.68-7.27-2.2a.56.56,0,0,0-.72.38c-.09.36.21.55.5.63a14.65,14.65,0,0,1,2.28,1.13c3.58,1.79,5.3,4.9,6,8.66a61.5,61.5,0,0,1,.81,10.33c.06,2.2,0,4.41,0,6.62a3.29,3.29,0,0,0,.89,2.44,42,42,0,0,0,13.19,9.74A18.48,18.48,0,0,0,173.34,272.81Z"/><path class="cls-8" d="M152.63,262c0-4.66.1-9.32,0-14a36.51,36.51,0,0,0-1.23-8.76c-.16-.58-.36-1.14-.55-1.71a8.56,8.56,0,0,0-7.16-6.24,44.58,44.58,0,0,1-7.47-1.52c-.72-.24-.93,0-.77.89.74,3.74,1.5,7.47,2.22,11.2,1.7,8.75,3.37,17.51,5.69,26.13a42.86,42.86,0,0,0,2.18,6.22c1.16,2.62,3.45,3.8,5.9,4.76.76.29,1.21-.06,1.36-.91a12.77,12.77,0,0,0,.07-3.15C152.55,270.6,152.62,266.29,152.63,262Z"/><path class="cls-9" d="M193.36,172.11c-1.89,0-3.77,0-5.66.17a36.81,36.81,0,0,1-7.49-.33c-1.77-.22-3.54-.26-5.31-.45a4.71,4.71,0,0,0-.84,0,2.83,2.83,0,0,0-2.79,3.78,13.3,13.3,0,0,0,1,2.64,7.27,7.27,0,0,1-.53,7.62,34.77,34.77,0,0,0-2.75,5c-3.11,7.29-2.46,16.14,4.21,22.3a18.2,18.2,0,0,0,12.2,4.66c10.25.32,18.31-8.43,18.48-17.92a22.57,22.57,0,0,0-3.6-13,8.55,8.55,0,0,1-.37-9.72,6.8,6.8,0,0,0,.58-1.39c.56-1.81,0-2.79-1.84-3.14a8.4,8.4,0,0,0-1.66-.14C195.81,172.1,194.58,172.11,193.36,172.11Z"/><path class="cls-10" d="M120.12,359.37c8.9-.08,17.78-.48,26.64-1.27a87.27,87.27,0,0,0,16.34-3,15,15,0,0,0,3.87-1.59,4.51,4.51,0,0,0,2.34-5.34,25.28,25.28,0,0,0-1.24-4.17c-3.29-8.88-7.11-17.54-10.79-26.26-.29-.7-.58-1.39-.9-2.07a36.07,36.07,0,0,1-3.26-15.91c0-5.47.23-10.93.61-16.39a28.35,28.35,0,0,0,0-3.45c-.08-1.48-.53-1.91-2-2.16-.64-.11-1.28-.23-1.92-.32a5.36,5.36,0,0,1-4.68-4.08,64.93,64.93,0,0,1-2.1-8.46c-1.57-10.46-3.61-20.83-5.32-31.26a14.93,14.93,0,0,0-.74-3.51,2.48,2.48,0,0,0-2.42-1.68,2.29,2.29,0,0,0-2.32,1.56,6.4,6.4,0,0,0-.33,2.22c0,3.87.39,7.7.72,11.55a46.67,46.67,0,0,1,.19,10.5c-.05.35-.08.7-.15,1-.69,3.48-1.48,4.22-5,4.67a40.62,40.62,0,0,1-10.45.35c-2-.27-2.52-.63-3.08-2.66a50.79,50.79,0,0,1-1.13-6.82c-.76-5.66-1.06-11.38-1.86-17a17.54,17.54,0,0,0-.8-3.67,2.38,2.38,0,0,0-2.57-1.85c-1.27,0-2,.66-2.39,2.08a8.83,8.83,0,0,0-.26,2.23c-.32,8.82-.7,17.63-.65,26.46,0,3.71-.15,7.42-.25,11.13,0,.6-.13,1.2-.14,1.8a3.76,3.76,0,0,1-2.7,3.59c-.5.21-1,.43-1.5.69A5.47,5.47,0,0,0,97.07,280a16.67,16.67,0,0,0-.46,3,155.32,155.32,0,0,1-3.76,26,135.52,135.52,0,0,0-3,16.85,84.08,84.08,0,0,0,.44,22.63,14.85,14.85,0,0,0,1.5,4.55,10.29,10.29,0,0,0,7.3,5.47c4.79,1,9.63,1,14.48.92C115.73,359.36,117.92,359.37,120.12,359.37Z"/><path class="cls-6" d="M171.23,212.1c.6-1.15,1.23-2.29,1.79-3.45a20.1,20.1,0,0,0,1.09-2.64c.36-1.09.2-1.77-.32-2s-1.14,0-1.84.92c-.39.52-.73,1.07-1.08,1.62-.7,1.1-1.38,2.21-2.08,3.3-.15.23-.21.59-.62.61,0-.54,0-1.06,0-1.59s-.06-1.35-.84-1.6c-.56-.18-1.12.25-1.48,1.2a20.49,20.49,0,0,0-.66,2.15c-.39,1.55-.77,3.11-1.15,4.67a8.31,8.31,0,0,1-2,3.81,4.77,4.77,0,0,0-.53.72c-.55.91-.54,1.22.13,2,.45.54,1,1,1.43,1.55,1.46,1.57,2.92,3.15,4.39,4.72.55.58,1.1,1.17,1.69,1.7a1.33,1.33,0,0,0,1.9.07c.08-.07.16-.12.23-.19a43.18,43.18,0,0,0,11.27-14.25c.29-.63.76-1.33,0-1.92s-1.31,0-1.86.42a13.65,13.65,0,0,0-2,2.05,12.84,12.84,0,0,1-1.34,1.43,2.38,2.38,0,0,1,.52-1.3,48.19,48.19,0,0,0,2.76-5.16,4.21,4.21,0,0,0,.45-1.58,1,1,0,0,0-1.39-1,3.38,3.38,0,0,0-1.42,1.09c-.62.71-1.21,1.44-1.84,2.19-.36-.43,0-.69.13-1a23,23,0,0,0,1.23-2.73c.39-1.15.33-1.8-.25-2-.88-.34-1.42.26-1.9.84s-1.09,1.44-1.63,2.15A13.31,13.31,0,0,1,171.23,212.1Z"/><path class="cls-8" d="M133.85,247.84c0-5.52-.84-11-1.24-16.48-.11-1.51-.23-1.55-1.64-1.08a28,28,0,0,1-18.09.28c-.66-.22-1.29-.54-1.94-.78-.94-.35-1.3-.05-1.2,1a3.11,3.11,0,0,0,.07.44c1.17,3.87,1.24,7.91,1.75,11.88s.67,8.29,1.49,12.37a13.25,13.25,0,0,0,1.23,3.69,3.87,3.87,0,0,0,3,2.2,26.28,26.28,0,0,0,11.12-.65,6.6,6.6,0,0,0,4.78-5.09A30.21,30.21,0,0,0,133.85,247.84Z"/><path class="cls-8" d="M104.89,260.9V253a1.48,1.48,0,0,0,0-.3c-.15-.57-.07-1.31-.7-1.57s-1,.34-1.4.69c-1.85,1.6-3.66,3.25-5.53,4.83a4.67,4.67,0,0,0-1.72,4.1c.1,1.75.24,3.5.43,5.24.46,4.13.57,8.29.82,12.44,0,.57-.17,1.33.55,1.57s1-.46,1.36-.94a10.88,10.88,0,0,1,3.34-3,4.85,4.85,0,0,0,2.43-4.18C104.7,268.43,104.61,265,104.89,260.9Z"/><path class="cls-11" d="M119.12,263.93a32.29,32.29,0,0,0,16.72-4.57,162.8,162.8,0,0,0,24.54-17.7c3.35-3,6.73-6,10.06-9,1.84-1.68,1.8-1.85.1-3.71a44.58,44.58,0,0,0-3.51-3.5,22,22,0,0,1-3.68-4.14,8.23,8.23,0,0,0-1.55-1.83c-1-.81-1.36-.85-2.36,0-1.8,1.43-3.57,2.9-5.34,4.37-3.58,3-7.12,6-10.73,8.92a53.19,53.19,0,0,1-12,7.56,29.54,29.54,0,0,1-18.61,1.81c-2.21-.48-2.19-.45-3.45,1.38a112.94,112.94,0,0,1-7.83,10.26c-.17.19-.33.37-.49.57-1,1.23-1,1.38.24,2.38a49.21,49.21,0,0,0,7.23,4.83,20.12,20.12,0,0,0,7,2.12A16.13,16.13,0,0,0,119.12,263.93Z"/><path class="cls-6" d="M123.84,233.39a13.86,13.86,0,0,0,4.88-.54c1.51-.49,3-1,4.5-1.63s1.83-1,1.65-2.74c-.22-2.14-.51-4.27-.77-6.41,0-.25,0-.5-.09-.74-.13-.64.14-.92.77-1a14,14,0,0,0,3.16-.86,6.11,6.11,0,0,0,4.2-5.67c.16-1.9,0-3.8,0-5.7,0-.41,0-.81,0-1.21-.08-.77.15-1.26,1-1.29a2.9,2.9,0,0,0,.59-.09c.35-.08.7-.19.8-.59s-.25-.73-.62-.89c-1.81-.73-2.55-2.21-3-4a37.42,37.42,0,0,0-2.66-7.48c-.77-1.55-.77-1.46-2.52-1.21a36.26,36.26,0,0,0-8.28,2.49,13,13,0,0,0-7.47,7.36,30.56,30.56,0,0,0-2.1,9.19c-.35,3.73-.4,7.5-.89,11.22a50.37,50.37,0,0,1-1.61,8.09c-.38,1.29-.31,1.47,1,2.08a17.57,17.57,0,0,0,6.5,1.57Z"/><path class="cls-2" d="M137,200.8a5.88,5.88,0,0,0,2.15-.55.91.91,0,0,0,.53-1,1,1,0,0,0-.92-.76,5.26,5.26,0,0,0-2.45.37c-.49.17-.89.45-.84,1s.48.75,1,.88C136.59,200.75,136.79,200.77,137,200.8Z"/><path class="cls-12" d="M137.65,196.22a6.65,6.65,0,0,0-3,.52c-.42.19-.88.42-.71,1s.69.52,1.11.35a8.64,8.64,0,0,1,3.37-.57c.42,0,.83-.08.86-.61s-.41-.63-.81-.66A8.26,8.26,0,0,0,137.65,196.22Z"/><path class="cls-13" d="M141.28,210.18l.38,0a.56.56,0,0,0,.57-.56.58.58,0,0,0-.5-.64,25.38,25.38,0,0,1-2.74-.65.66.66,0,0,0-.87.36c-.19.49.12.76.51.92A7.49,7.49,0,0,0,141.28,210.18Z"/><path class="cls-12" d="M86,261.88a18.56,18.56,0,0,0,9.66-2.53,40.16,40.16,0,0,0,12.45-10.67c4.38-5.74,7.94-11.91,9.38-19.12.67-3.34,1.19-6.7,1.6-10.09a116,116,0,0,1,1.76-11.73,38.38,38.38,0,0,1,1.5-5,12.18,12.18,0,0,1,8.72-7.95,26.2,26.2,0,0,0,5.22-1.8,11.58,11.58,0,0,0,5.17-5.07,7.19,7.19,0,0,0-3.32-10.28,14.92,14.92,0,0,0-9.93-1.11,18.1,18.1,0,0,0-12.42,8.88c-.76,1.29-1.54,2.57-2.27,3.89a14.92,14.92,0,0,1-5.06,5.44c-.92.59-1.81,1.24-2.7,1.88a14.16,14.16,0,0,0-5,6.64,58,58,0,0,0-2.62,9.86,12.94,12.94,0,0,1-8,10,52.34,52.34,0,0,0-10.53,6A20.71,20.71,0,0,0,71,246.45C71.05,255.2,77.13,261.82,86,261.88Z"/><ellipse class="cls-14" cx="137.82" cy="199.54" rx="1.16" ry="1.17"/></svg>