<svg id="圖層_1" data-name="圖層 1" xmlns="http://www.w3.org/2000/svg" viewBox="0 0 540 500"><defs><style>.cls-1{fill:#c28032;}.cls-2{fill:#8cbb93;}.cls-3{fill:#2a8a80;}.cls-4{fill:#90c2b6;}.cls-5{fill:#247c70;}.cls-6{fill:#87b6aa;}.cls-7{fill:#599440;}.cls-8{fill:#c7bda4;}.cls-9{fill:#388040;}.cls-10{fill:#c7ac7c;}.cls-11{fill:#ffbda1;}.cls-12{fill:#fff;}.cls-13{fill:#215580;}.cls-14{fill:#d5857a;}.cls-15{fill:#7c564f;}.cls-16{fill:#634148;}.cls-17{fill:#40346a;}.cls-18{fill:#4a3c7a;}.cls-19{fill:#bc9480;}.cls-20{fill:#deaf96;}.cls-21{fill:#2e282b;}.cls-22{fill:#998268;}.cls-23{fill:#41383d;}.cls-24{fill:#266190;}.cls-25{fill:#34427c;}.cls-26{fill:#fff3d4;}.cls-27{fill:#d1bb89;}.cls-28{fill:#3e3645;}.cls-29{fill:#af8945;}</style></defs><circle class="cls-1" cx="372.61" cy="167.39" r="167.39"/><path class="cls-2" d="M128.61,299.8c-1-6.56-3-12.85-4.9-19.17-.56-1.84-1.16-3.68-1.78-5.51a1.14,1.14,0,0,0,.37-.53c.41-1.15,1.37-2.23,1.62-3.38a37,37,0,0,1,1.62-5.35,108,108,0,0,0,3.74-12c.4-1.59,3.16-14.09-.76-13.83-5,.33-6.92,10.17-7.72,13.8-.84,3.82-2,8.39-2,12.69q-2.83-7.17-6.24-14.1c1.12-1.77,6.61-29.91,4-33.09-3.51-4.26-6.17,8.25-6.43,9.59a54.09,54.09,0,0,0-.87,17.13c-.39-.72-.77-1.45-1.17-2.16q-2.72-4.84-5.54-9.59a61.83,61.83,0,0,0,3.38-18.61c0-1.74.89-12.13-3.31-11.11-4,1-4.25,8.2-4.34,11.38a79.57,79.57,0,0,0,.17,11.67q-2.79-4.43-5.77-8.74a.78.78,0,0,0,0-.14,23.63,23.63,0,0,0,.88-7c0-1.64.66-3.34.67-5a43.63,43.63,0,0,0-.5-5.34c-.33-2.74.77-12.86-3.81-13.24-3.69-.3-3.23,7.36-3.07,9.36s.86,4.15.87,6.27a29.06,29.06,0,0,0,.3,5,28.28,28.28,0,0,0,1.46,5.63c-1-1.3-1.9-2.6-2.88-3.88-1.39-1.82-2.83-3.59-4.29-5.35.1-2.93,0-5.88,0-8.81,0-3.81-1.41-7.5-1.43-11.27,0-1.58-.2-11.48-4.23-9.23-3.75,2.09-3.18,8.36-2.69,11.9a34.48,34.48,0,0,0,4,12.35c-1.29-1.47-2.57-2.94-3.88-4.38-.29-.32-.58-.64-.86-1-1.54-3-3.89-5.73-5.81-8.38a76.18,76.18,0,0,0-8.16-9.24c-3-2.94-9.26-11.36-13.83-6.58-4.28,4.48,3.47,11,6.19,13.73a46.88,46.88,0,0,0,10,7.86c4,2.27,8.15,4.05,12,6.41.84,1,1.68,2,2.51,3-3.33-1.38-7-1.49-11-1.74s-10.4.49-12.46,4.49c-2.3,4.46,5.7,3.77,7.69,3.64,3.16-.21,6.21-1.47,9.24-2.34,2.54-.72,5.15-1.11,7.71-1.64a14.55,14.55,0,0,1,1.61.93c.45.56.89,1.13,1.33,1.7a.49.49,0,0,0,0,.12,1,1,0,0,0,.83.95q2,2.56,4,5.21c.48.67,1,1.35,1.43,2a33.11,33.11,0,0,0-6-.53,40.74,40.74,0,0,0-5.27.74c-1.52.2-3.56.18-5,.85-2.28,1.09-10.07,5.64-5.66,8.71,3.1,2.15,8.15-.07,11.19-1.25,2-.77,3.86-1.66,5.73-2.61A59.68,59.68,0,0,1,88.65,218c2.7,4,5.26,8.11,7.73,12.26a23.48,23.48,0,0,0-9-.2c-3.7.48-9,1-11.88,3.66-3.16,2.89.4,5.63,3.46,6,3.27.43,6.36-.46,9.35-1.65,3.61-1.43,7.34-1.87,11-3,1.81,3.11,3.59,6.24,5.37,9.37,1.32,2.33,2.56,4.7,3.76,7.09-6.84-2.27-14.19-3.37-21.23-4.68-3.29-.61-10.11,1-9.68,5.45S86,257.42,89,257.79c6.11.74,14.4-.54,19.46-4.34a.91.91,0,0,0,.18-.21l.62.15c2.35,4.84,4.46,9.8,6.36,14.83a36.75,36.75,0,0,0-5.64-2.05c-2.36-.68-5-1.77-7.49-1.79-2.31,0-7.36,0-8,3C92.65,276,110.81,271.75,117,272c1,2.78,1.92,5.57,2.78,8.39a180.11,180.11,0,0,1,4.85,17.95c1.16,5.88,1.28,11.9,3.24,17.62a1,1,0,0,0,2,0c.55-2.19.15-4.25-.2-6.45C129.14,306.29,129.08,303,128.61,299.8Z"/><path class="cls-2" d="M142.62,200.82c2.18-.46,4.35-1,6.57-1.34,2.67-.34,5.5-.37,8-1.3,1.58-.58,8-2.81,4.58-5.7-3.1-2.59-8.41-.92-11.32.64s-5.82,3-7.87,5.3c.27-1.12.54-2.23.83-3.34,2.12-3.32,4.7-6.27,6.89-9.53a40.39,40.39,0,0,0,4.78-10c1.07-3.24,4.62-11.33-.37-13.54-5.33-2.36-7,6.82-8.22,10.28a68.59,68.59,0,0,0-2.84,10.52,62.53,62.53,0,0,0-1.34,9l-.3,1.1c-.47,1.65-.91,3.32-1.35,5a33.32,33.32,0,0,0-1.52-11.64c-.95-3.1-2.86-8.49-6.55-8.91-4-.46-.39,7.81.2,9.12,1.39,3.13,1.7,6.67,3.12,9.84,1.09,2.43,2.12,4.91,3.3,7.3-.47,2-.92,3.94-1.31,5.93-.28,1.41-.53,2.82-.77,4.23a27,27,0,0,0-1-5.18,28.7,28.7,0,0,0-1.64-4.27c-.79-1.75-1-3.69-1.68-5.49s-3.15-8.22-5.88-6.68c-3.4,1.91,1.24,9.91,2,12.3a41.83,41.83,0,0,0,1.62,4.6c.64,1.4,1.79,2.58,2.4,3.94a22.9,22.9,0,0,0,3.3,5.47l.09.1q-.69,4.62-1.18,9.26a76.36,76.36,0,0,0-4.25-9.72c-1.25-2.61-4.13-8.52-7.62-7.92s.94,8.93,1.62,10.37a60.26,60.26,0,0,0,9.58,14.23c-.27,3.28-.49,6.57-.68,9.88,0,.73-.06,1.47-.09,2.2a52.85,52.85,0,0,0-7.09-13.89c-.71-1-7.46-10.45-8.57-5.69-.83,3.55,14,24.94,15.5,26q0,6.93.46,13.87c-1.59-3.57-4.22-6.94-6.31-9.82-2-2.72-7.17-10.2-11.13-8.73-3.13,1.16,3.69,10.55,4.59,11.73a104.74,104.74,0,0,0,7.39,8.61,36.66,36.66,0,0,1,3.26,3.87c.62.86,1.77,1.42,2.52,2.23a1,1,0,0,0,.48.31c.21,1.73.43,3.46.69,5.19.89,5.91,1.68,11.83,3.41,17.59.84,2.84,2,5.56,2.83,8.4a15.24,15.24,0,0,0,2.27,5.41.85.85,0,0,0,1.51-.68c-.64-5.42-2.8-10.46-4.11-15.73-1.34-5.45-2.18-11-3-16.57-.38-2.63-.71-5.28-1-7.92,4.7-2.37,20.3-5.24,15.68-11.67-1.66-2.31-5.56-.54-7.33.29s-3.55,2.71-5.12,4.1a29.6,29.6,0,0,0-3.58,3.68c-.42-4.84-.65-9.68-.65-14.51l.43-.35a.61.61,0,0,0,.21.11c5.33,1.38,12.22-.46,16.66-3.21,2.2-1.36,8.22-4.69,6.89-8.53s-7.21-2.79-9.52-1.13c-4.95,3.54-10.22,7-14.65,11.3,0-2.4.1-4.8.25-7.19.2-3.22.4-6.43.63-9.64,3.22-.36,6.27-1.3,9.59-1.38a14.84,14.84,0,0,0,7.85-1.9c2.21-1.41,3.93-4.91.4-6.21-3.23-1.18-7.5.23-10.54,1.13a18.46,18.46,0,0,0-6.91,3.32c.36-4.3.79-8.59,1.38-12.86a50.56,50.56,0,0,1,6.52-.11,51.45,51.45,0,0,0,5.41.16c2.79-.08,7.53,0,9.11-2.87,2.26-4.09-5.47-5.14-7.64-5.25-1.32-.06-2.89.67-4.14,1a34.71,34.71,0,0,0-4.35,1.23,26.86,26.86,0,0,0-4.43,2.53c.12-.72.23-1.45.35-2.18.33-1.91.71-3.81,1.1-5.7a.86.86,0,0,0,.29-1.07s0-.07,0-.11l.39-1.87A10.62,10.62,0,0,1,142.62,200.82Z"/><path class="cls-3" d="M126.69,294s-3.07-50.7-14.34-66.06-20.48-36.36-5.63-32.77S135.9,225.41,140,235.14,144.61,293,144.61,293Z"/><path class="cls-4" d="M142.88,291.47a77.38,77.38,0,0,0-1.36-14.25c-2.14-10.24-4.3-20.37-8.18-30.15-3.55-8.92-6.58-17.89-11.64-26.07a96.77,96.77,0,0,0-18.11-22.16.65.65,0,0,0-.92.91,159.13,159.13,0,0,1,16.08,21.36,67.88,67.88,0,0,1,6.63,13.19c1.37,3.83,2.45,7.79,4.19,11.48A79.78,79.78,0,0,1,134,259.35c1.18,4.41,2.59,8.68,3.48,13.17,1.54,7.79,3.39,16.08,3,24.07a.56.56,0,0,0,.83.47C143.32,296,142.93,293.42,142.88,291.47Z"/><path class="cls-5" d="M168.18,224.2c-.51-5.06-2.4-9.62-3.61-14.49-.72-2.91-5.14-10.86-10.27-5.23s-6.1,21-8.51,30.68c-2.83,11.39-5.26,22.62-6,34.38-.73,11.13-.67,41.29,1.95,43.33,2.46,1.91,6.8,1.53,9.55.24,3.16-1.47,3.78-5.1,4.8-8.12a119.43,119.43,0,0,0,4.32-17.71c1.91-10.84,3.64-21.71,5.55-32.54C167.66,244.87,169.2,234.23,168.18,224.2Z"/><path class="cls-6" d="M165.36,215.32a.31.31,0,0,0-.57-.24c-8,16-10.75,34.69-13.18,52.24-1.18,8.52-2.68,17.09-3.51,25.64-.44,4.52-.73,9-1.19,13.55a38.2,38.2,0,0,0,.08,7.65,11.43,11.43,0,0,0,2-.28c.31-15.33,3.07-30.68,5.16-45.87C156.55,250.23,159.58,232.36,165.36,215.32Z"/><path class="cls-7" d="M350.55,349.63c-4.74-6.95-18.11,5.49-21.91,8.67-4.76,4-9.65,7.76-14,12.27l-1.3,1.35c1.25-1.66,2.5-3.31,3.74-5,4.92-6.63,9.58-13.62,14.83-19.95,3.41-4.12,6.88-8.28,8.8-13.46,1.53-4.1-.22-7.62-4.45-7.65-6.55,0-12.11,5-16.92,9.13a97.88,97.88,0,0,0-14.8,15.75c-2.3,3.14-4.48,6.48-6.53,9.9.63-2.05,1.2-4.12,1.83-6.12,1.57-5,3.55-9.71,5.55-14.5,3.68-8.85,7.1-17.83,10.69-26.73,2.09-5.17,4.23-10.39,6.18-15.63,1.4-3.78,3.18-8.9,1.44-12.84-2.42-5.46-10.32-1.35-13.54.68-7,4.39-10.54,11.21-13.82,18.84a110.23,110.23,0,0,0-7.42,27.83c-1.4,9.81-7.37,41-7.37,41-.34-.85,11.26-92.11,12.1-97s1.72-10.1,2.27-15.19a94.67,94.67,0,0,0,.61-15c-.16-3.43-.41-7.85-3.13-10.13-3-2.53-7.56,1.77-9.66,3.8-4.52,4.36-23.52,31.41-24.64,56.26s1.66,63.36,1.6,64.78c-.89-5-8-25.34-9.07-30.3a185.87,185.87,0,0,0-5.58-19.51c-1.26-3.85-2.85-9.08-6.26-11.35-4.31-2.88-7.48,4-8.05,7.55a55.28,55.28,0,0,0-.11,12.4q.56,7.35,1.69,14.62c1.46,9.21,4.21,18.14,6.67,27.08a38.6,38.6,0,0,0-15-13.38c-3.66-2-9.81-3.22-11.74,2.16-2.7,7.52,4.19,15.24,8.18,20.47a115.45,115.45,0,0,0,17.86,18.17c3.3,2.75,7,4.42,10.88,6.09,4.33,1.86,8.48,3.91,12.94,5.41a66.84,66.84,0,0,0,10.37,2.74,98.15,98.15,0,0,0,13.7,1.16,62.14,62.14,0,0,0,24.59-4.75,29.79,29.79,0,0,0,7.28-3.92c2.36-1.83,4.89-3.36,7.23-5.23C331.25,386.22,355.3,356.57,350.55,349.63Z"/><path class="cls-8" d="M166.55,301.11c-4.33-3.1-2.47-9.29,2.48-15.48s-3.72-10.52-3.72-10.52H105.58s-8.66,4.33-3.71,10.52,6.81,12.38,2.48,15.48S79,312.25,82.06,342s20.43,66.23,20.43,66.23h65.92s17.33-36.52,20.43-66.23S170.89,304.2,166.55,301.11Z"/><path class="cls-3" d="M189.89,284.09c-.72-22.47-5.34-44.25-10.31-66.11-1.12-4.88-2.89-9.54-4.14-14.41-.79-3.09-2.59-7.3-5.92-8.37-3.61-1.16-7,.07-10,2.2-1.84,1.31-5,5.2-7.24,8.1s-.2,9.91,1,12.41a107.53,107.53,0,0,1,6.21,16.23c3.5,11.48,7.33,23,11.87,34.1.93,2.29,1.13,5.15,1.92,7.55s2.14,4.87,3,7.38a23,23,0,0,0,6.26,9.31c1.75,1.58,4.46,1.81,6-.18C190.24,290.08,190,286.72,189.89,284.09Z"/><path class="cls-4" d="M187,289.22c-.49-4.72-1.69-9.35-2.63-14-2-9.84-3.68-19.72-6.14-29.46s-4.82-19.34-8-28.76c-1.52-4.44-2.67-9.34-4.87-13.49-1.31-2.47-2.65-4.86-3.89-7.31-.47.25-.93.53-1.38.83a42.93,42.93,0,0,0,2,4.26c2.6,4.76,3.92,9.78,5.6,14.9,3.11,9.47,5.55,19.13,8,28.78s4,19.65,6.21,29.46c1,4.55,2,9.17,2.8,13.77a46.75,46.75,0,0,0,1.39,5.51,3.62,3.62,0,0,0,1.62-.59A28.71,28.71,0,0,1,187,289.22Z"/><path class="cls-9" d="M259.92,397.52c-2.28-3.37-5.27-6.09-7.2-9.65-2.11-3.88-5.79-7.2-8.69-10.53-6.6-7.57-14.64-14.42-19.9-23a.77.77,0,0,0-1.32.78c4.43,8.73,12.17,15.47,18.62,22.73,3.36,3.79,7.44,7.89,9.81,12.33,1.76,3.3,5.21,5.67,8.12,7.91C259.69,398.33,260.14,397.84,259.92,397.52Z"/><path class="cls-9" d="M265.62,396.77c-.7-2.64-2.22-4.75-3.5-7.11-1.79-3.28-2.51-7.22-3.65-10.77-2.51-7.8-5.68-15.37-7.91-23.27-2.11-7.47-3.88-15-6.09-22.49-2.33-7.85-5.36-15.46-5.78-23.74a.63.63,0,0,0-1.25,0c-.08,7.53,1.94,14.67,4.21,21.79,2.49,7.79,4,15.9,6,23.83,2.11,8.4,5.27,16.44,7.94,24.67,1.14,3.53,1.94,7.17,3.46,10.55a26.89,26.89,0,0,0,5.38,7.22A.71.71,0,0,0,265.62,396.77Z"/><path class="cls-9" d="M283.45,252.36c-2.06,5.93-4.44,11.73-6.19,17.77s-2.61,12.74-3.48,19.1a298.18,298.18,0,0,0-3,38.33c-.05,6,.32,11.95.35,17.93,0,6.28-.73,12.6-.69,18.91.09,12-2.71,23.86-.16,35.86.23,1.11,1.81.61,1.66-.46-1.72-12.27,1.24-24.47,1.4-36.7.07-5.88.27-11.75.83-17.61s-.33-12.05-.33-17.93a284.56,284.56,0,0,1,3.17-39,146.31,146.31,0,0,1,3.52-19c1.58-5.68,3.59-11.09,4.36-17C285,251.7,283.7,251.64,283.45,252.36Z"/><path class="cls-9" d="M312.15,296.09c-1.78,3.55-3.86,6.68-5.4,10.4-1.7,4.15-3.21,8.38-4.5,12.67-1.37,4.53-3.3,8.91-4.6,13.44s-2.69,9-4.42,13.45c-3.32,8.4-5,17.4-7,26.18a99.46,99.46,0,0,0-2.86,25.49.79.79,0,0,0,1.58,0,146.07,146.07,0,0,1,4.29-26.07c2.18-8.25,3.64-16.9,6.93-24.79a114.5,114.5,0,0,0,4-12.1c1.33-4.54,3.2-8.91,4.59-13.44,2.56-8.33,5.95-16.45,8.23-24.86C313.17,295.94,312.4,295.59,312.15,296.09Z"/><path class="cls-9" d="M330.68,334.41c-4.91,5.32-10.32,10.17-15.18,15.55-2.21,2.44-3.92,5.24-5.89,7.87-2.21,2.94-4.54,5.82-6.49,8.94a81.87,81.87,0,0,0-7.94,18.05c-1.81,5.55-4.58,10.81-5,16.74-.06.94,1.51,1.16,1.65.23.84-5.72,3.88-10.88,5.71-16.31a88.24,88.24,0,0,1,8.66-18.29c7.21-11.6,17.19-21.17,25.16-32.22C331.7,334.54,331,334,330.68,334.41Z"/><path class="cls-9" d="M339.15,358c-3.67,2.83-6.21,6.74-9.14,10.27A82.09,82.09,0,0,1,320,379c-4,3.38-7.41,7.92-10.83,11.89-2.89,3.36-5.84,6.65-8.83,9.93a1.05,1.05,0,0,0,1.49,1.49c7.25-6.62,13.34-14.26,20.29-21.2A118.22,118.22,0,0,0,332,370.3c2.86-3.65,5.32-7.65,8-11.45C340.3,358.38,339.63,357.66,339.15,358Z"/><path class="cls-10" d="M114.37,344.42c-4.16-1.86-6.94-7.87-2.31-13.43s-3.24-8.79-3.24-8.79H68.17s-7.87,3.24-3.24,8.79,1.85,11.57-2.31,13.43-33.78,13.42-21.75,44.42,38.87,26.84,38.87,26.84H97.25s26.84,4.17,38.87-26.84S118.54,346.27,114.37,344.42Z"/><path class="cls-8" d="M380.11,362.4c-2.74-1.35-4.57-11.1-1.52-15.13s-2.13-6.4-2.13-6.4H349.73s-5.18,2.36-2.13,6.4,1.21,13.78-1.53,15.13-22.21,19-14.3,41.51,25.57,19.51,25.57,19.51h11.51s17.65,3,25.56-19.51S382.85,363.74,380.11,362.4Z"/><path class="cls-11" d="M229.89,293.7S235,307,240.13,308.82s30.72,6.95,30.72,6.95L269,328.93s-31.45-1.1-39.5-6.58-11.33-21.94-11.33-21.94Z"/><path class="cls-12" d="M217.46,269s5.48,3.52,8.41,12.11,6.34,13,6,15.52-12.56,7.43-16.21,7.43-5.12-17.09-5.85-24.12S213.07,265.88,217.46,269Z"/><path class="cls-13" d="M206.31,356.87s58.1,1.06,62.44,12.66,5.5,70.57,4.08,72.18-17,.77-17.31-1.18c-.63-3.56-8.11-53.49-10.41-57.27s-29.75,9.64-40.39,8.77c-11-.9-23.39-6.11-26.59-12.69-3-6.14,1.57-22.93,1.57-22.93Z"/><path class="cls-12" d="M185.19,262.6s-24.52,2.25-26.93,13c-.7,3.11,2.91,21,3.25,36.72.14,6.08-1.73,12.28-1.43,17.76.51,9.06,2.19,28,2.34,28.2,2.16,3.08,17.1,3.34,32.87,2.08s20.82-2.66,23.62-4.35,5-39.63,4.8-47.28c-.51-19,.37-33.31-3-37C211.22,261.37,185.19,262.6,185.19,262.6Z"/><path class="cls-11" d="M186.65,253.12,201.86,256l1.33,12.27s-1.09,8.25-8.59,8c-6.95-.18-13-9.69-13-9.69Z"/><path class="cls-14" d="M189.4,261.48a26.28,26.28,0,0,0,9.4,1.55.31.31,0,0,1,.16.6c-3,1.27-7.58.65-9.88-1.73C188.86,261.68,189.18,261.41,189.4,261.48Z"/><path class="cls-11" d="M176.7,236.74l.24,0c-.21-8.91,3.44-17.37,11.83-20.7,6.53-2.6,19.87-.15,23.44,7.72,2.67,5.86,4,15.37,2.07,23.71-2.67,11.82-17.34,21.63-28.85,10.12a28.92,28.92,0,0,1-6.73-11.09,2.58,2.58,0,0,1-.48,0,5.41,5.41,0,0,1-4.74-4.15C172.91,240,174.2,237.13,176.7,236.74Z"/><path class="cls-15" d="M193,245.18c3.19-.16,3.44,4.84.25,5S189.83,245.33,193,245.18Z"/><path class="cls-15" d="M209.57,245c3.17.34,2.64,5.32-.53,5S206.39,244.7,209.57,245Z"/><path class="cls-16" d="M207.59,240.74a9.94,9.94,0,0,1,2.12-.29,9.4,9.4,0,0,1,2.48.67c1,.38.41,1.95-.63,1.61a13,13,0,0,0-2.05-.47,11.56,11.56,0,0,1-2-.79A.38.38,0,0,1,207.59,240.74Z"/><path class="cls-16" d="M189.89,241.92c1-1.31,3-1.17,4.43-1.2a.82.82,0,0,1,.08,1.63c-1.4.11-3,.52-4.37,0A.29.29,0,0,1,189.89,241.92Z"/><path class="cls-12" d="M205,254.86l-11-1.48s-.8,5.24,4.29,5.65A6.45,6.45,0,0,0,205,254.86Z"/><path class="cls-14" d="M203.79,248.79c-1.23-1.44-1.43-3.23-2.1-4.89-.3-.76-1.43-.56-1.42.14-.51,1.92.76,4.07,1.69,5.67.33.56.72.31-.11.44a3,3,0,0,0-1.53,1.18.88.88,0,0,0,.14,1.06c.62.54.95.11,1.55-.24s1.9-.38,2.3-1.18A1.89,1.89,0,0,0,203.79,248.79Z"/><path class="cls-16" d="M216.84,227.84c-.24-1-.43-2.36-.73-3.75a3,3,0,0,0,.85-3.34,5.79,5.79,0,0,0-1.62-2.34c-1.94-3-6.88-5.55-9.12-6.5a21.49,21.49,0,0,0-11-1.63c-2.48.39-3.77,1.21-4.65,2.63-4.09-1.59-10.21,1.68-12.79,4.54a13,13,0,0,0-3.32,8.05c-.11,2.18-.25,5.24.85,7.37a5.69,5.69,0,0,0,5.31,5.29,1.65,1.65,0,0,0,1-.17c2.59,0,4.22-3.14,4.37-6.16.57.41,1.07.75,1.37,1,2.79,2,7.09,2.77,10.21,1.17a2.88,2.88,0,0,0,1.77-2.8c2.07,1.58,4.44,2.93,7.11,2.49a3.31,3.31,0,0,0,2.91-2.93c1.59,3.39,4.39,6.68,7.13,5.06C218.81,234.41,217.31,229.76,216.84,227.84Z"/><path class="cls-12" d="M166.58,267.25c-4.71,1.57-13.61,6.58-18,19.08a93,93,0,0,0-5.07,21.55s6,8.39,18.24,5.65c6.81-1.51,13.23-20.18,11.91-31.74C172.6,272.5,171.29,265.69,166.58,267.25Z"/><path class="cls-17" d="M206,465c0,3.77-10.24,6-22.86,6s-22.86-2.24-22.86-6,10.24-6.83,22.86-6.83S206,461.23,206,465Z"/><path class="cls-18" d="M179.6,400.52v61.29h0c.07,1.09,1.62,2,3.54,2s3.47-.88,3.54-2h0V400.52Z"/><path class="cls-19" d="M211.92,385.87H154.38s.26,19.34.26,19.5c0,3,12.76,5.46,28.51,5.46s28.51-2.44,28.51-5.46C211.66,405.21,211.92,385.87,211.92,385.87Z"/><path class="cls-20" d="M211.92,385.87c0,3-12.88,5.51-28.77,5.51s-28.77-2.47-28.77-5.51,12.88-5.52,28.77-5.52S211.92,382.82,211.92,385.87Z"/><path class="cls-21" d="M269.62,439.44a63.44,63.44,0,0,1,9.69,11.39c4.95,7.45,11.9,15.79,4.05,16.15s-26-9.65-27.22-13.47-.5-13.54-.5-13.54Z"/><path class="cls-22" d="M302.43,468.1c0,5.34-16.4,8.51-36.63,8.51s-36.63-3.17-36.63-8.51,16.4-9.68,36.63-9.68S302.43,462.75,302.43,468.1Z"/><path class="cls-18" d="M262.25,346.12V464.73h0c.07,1.1,1.63,2,3.54,2s3.47-.88,3.54-2h0V346.12Z"/><path class="cls-23" d="M226.86,445.25s.16,4.81,4.08,12.23c4.8,9.08,9.51,18.51.41,18.83-12.68.46-20-10.73-21-14.63s.35-17.43.35-17.43Z"/><path class="cls-24" d="M188.3,359.55s44.57,7.63,48.17,19.48-7.19,66.52-8.7,68-17-.29-17.21-2.26c-.4-3.59,1.53-46.51,1-48.94s-18.69-.91-29.25-2.44c-11-1.59-20.8-6.44-23.58-13.21-2.59-6.32,3-22.79,3-22.79Z"/><path class="cls-25" d="M175.58,264a38.42,38.42,0,0,1,6.77,13.71c1.83,7.68,3.11,17,3.11,17l26.88-.92s-.92-13.16-2.75-19.74A26.43,26.43,0,0,0,203.92,264s7.32-1.28,9.51,3.47,6.95,23,7.68,26a74.7,74.7,0,0,1,3.29,21.94c0,11.7,2.93,36.57,7.68,38.4s19.75,5.12,23,7.31-7.31,12.07-8,24.14,2.56,15.36-1.46,21.94-8.78,6.22-9.15,2.56-1.83-27.42-15-30.35-25.6-4.39-34.38-6.95-10.6-18.65-13.16-26.33S165.52,326.74,167,318s8-20.48,8.41-24.14,0-13.16-1.65-18.28-6.76-8.6-6.76-8.6A20,20,0,0,1,175.58,264Z"/><path class="cls-11" d="M146.46,307.32s-5.39,14.64.25,20.68,39.81-1.15,45.15-3.46-2.64-7.33-4-9.14-20.45-1.17-21.57-2.93S150.37,306.85,146.46,307.32Z"/><path class="cls-19" d="M327.29,340.76h-123s.55,11,.55,11.19c0,3.65,27.29,6.6,60.94,6.6s60.94-2.95,60.94-6.6C326.74,351.76,327.29,340.76,327.29,340.76Z"/><path class="cls-20" d="M327.29,340.76c0,3.67-27.53,6.66-61.49,6.66s-61.49-3-61.49-6.66,27.53-6.66,61.49-6.66S327.29,337.08,327.29,340.76Z"/><path class="cls-26" d="M288.77,318c0-15-14.26-25.23-15.73-26.7s1.1-4.38,3.3-6.58-.74-7.31-.74-7.31-8.41-.3-17.55-.3-17.55.3-17.55.3-2.93,5.12-.74,7.31,4.76,5.12,3.3,6.58S227.33,303,227.33,318c0,13.49,8,22.83,16.25,24.57,1.72,1,7.53,1.76,14.47,1.76s12.75-.75,14.47-1.76C280.78,340.79,288.77,331.45,288.77,318Z"/><path class="cls-27" d="M275.79,277.92c0,1.41-7.94,2.55-17.74,2.55s-17.74-1.14-17.74-2.55,7.94-2.56,17.74-2.56S275.79,276.5,275.79,277.92Z"/><path class="cls-28" d="M218.45,320.48c2.35-1.09,1.57-2.23,1.57-2.23s-26.55-22.46-30.71-24.68-6.54-1.07-3.09,3.32C186.22,296.89,218.36,320.36,218.45,320.48Z"/><path class="cls-11" d="M210.37,306.19c-1.66-1.91-3-3.65-5.32-4.68a15.23,15.23,0,0,0-8.89-.48c-5.07,1-9.22,6.91-10.76,11.86-1,1.88-2.62,4.52-1.74,6.34,1.15,2.36,3.77,5.4,7.11,5.75s4.77-.66,6.73-1.41c2.81-1.07,7.34-1.31,9.51-3.61,2-2.09,2-4.33,1.56-7,.92-2-1.17-3.67-3.34-4.6-1.84-.79-3.57-1.29-5.31-2.14,3,.28,6.05,1.71,8.65,2.72C210.21,309.58,211.43,307.42,210.37,306.19Z"/><path class="cls-14" d="M207.79,312.78c-1.28-1.21-3.18-1.6-4.86-2a9.61,9.61,0,0,0-5.42.08.42.42,0,0,0,.16.79,20.65,20.65,0,0,1,5.37.46c1.49.38,2.89,1.19,4.44,1.27A.39.39,0,0,0,207.79,312.78Z"/><path class="cls-14" d="M197.68,316.57c-.4.25-.23,1,.29.84a8,8,0,0,1,4.25.09c1.29.35,2.48,1,3.85,1.06a.36.36,0,0,0,.28-.6C204.49,315.87,200,315.06,197.68,316.57Z"/><path class="cls-14" d="M206.89,307.89c-3.18-2-7.34-1.87-10.88-1.15-.57.11-.38.89.16.85a38.84,38.84,0,0,1,5.5,0c1.72.14,3.38.57,5.11.68A.19.19,0,0,0,206.89,307.89Z"/><path class="cls-29" d="M218.67,320.38a20.38,20.38,0,0,0,4.67,3.83c2.83,1.68,7.68-1.59,9.13-2.92a23.92,23.92,0,0,0-5.7-1.2c-2.47-.07-4.48-2.09-6.39-1.76A1.88,1.88,0,0,0,218.67,320.38Z"/><path class="cls-12" d="M358.86,235.61l17.91.72c.07-.86.11-1.56.2-2.25.12-1,.69-1.58,1.7-1.29a64.23,64.23,0,0,1,6.27,2c1.51.6,1.53,1.66.41,2.82a2.69,2.69,0,0,0-.77,1.56c-.38,7.36-.74,14.72-1,22.08-.12,3.37,0,6.74,0,10.12,0,2-.13,2.28-2.17,2.59a37.06,37.06,0,0,1-4.35.24c-1.17,0-1.76-.52-1.7-1.76.06-1.07,0-2.15,0-3.44l-15.12.7a21.15,21.15,0,0,0,0,2.28,1.44,1.44,0,0,1-1.3,1.79c-1.84.26-3.7.44-5.56.54-1.13.07-1.3-.75-1.31-1.69,0-4.37,0-8.75-.19-13.11-.38-8-.9-16-1.42-24.06-.14-2.33,0-2.68,2.32-3a21.77,21.77,0,0,1,3.23-.27c1.95,0,2.41.45,2.57,2.36,0,.25.05.49.08.74C358.67,235.3,358.73,235.36,358.86,235.61Zm16.35,31.62q.66-14.67,1.32-29.14l-17.77-.78c.22,3.52.44,6.91.66,10.37.67,0,1.25-.11,1.82-.11,1.94,0,3.67-.17,4.86-2.16.86-1.43,2.56-1.31,3.75-.08a7.5,7.5,0,0,1,1.38,1.76,2.5,2.5,0,0,1,.22,1.73c-.09.27-.91.43-1.4.43-1.62,0-3.24-.12-4.86-.1-1.85,0-3.7.14-5.38.21v8.15c2.38.17,4.54.34,5.85-2a1.5,1.5,0,0,1,.36-.35,2,2,0,0,1,2.91-.11,5.07,5.07,0,0,1,1.25,1.37,17,17,0,0,1,.85,2.22,11,11,0,0,1-2.27.54c-2.9.06-5.8,0-8.63,0v8.69Z"/><path class="cls-12" d="M374.78,204.16c.09,1.71-.86,2.17-2.19,2.23s-2.5.16-3.74.18c-1.56,0-1.9-.33-1.92-1.91-.05-4,0-8.08-.16-12.12s-.32-8-.57-12c-.07-1,.28-1.59,1.16-1.71a33.19,33.19,0,0,1,5-.41,1.86,1.86,0,0,1,1.44,1c.18,1,.65,1.13,1.44,1.09.46,0,.91,0,1.59,0-.12-2.46-.2-4.9-.38-7.32-.15-1.95.18-2.47,2.09-2.13a41.64,41.64,0,0,1,6,1.66c1.18.41,1.15,1.48.23,2.33-1.93,1.79-3.77,3.66-5.86,5.71l7.49.39c.12-.19.19-.26.2-.33.3-2.39.72-2.3,2.78-2a23,23,0,0,1,5,1.47c1.49.6,1.53,1.53.43,2.7a2.53,2.53,0,0,0-.72,1.46c-.32,5.81-.63,11.63-.83,17.45-.12,3.34-.1,3.42-3.39,3.6a20.67,20.67,0,0,1-2.36.06c-1.85-.11-1.95-.22-2.32-2.07Zm-.19-8.86c1.82.51,2.13.43,3.33-.79,2-2,3.59-1.88,5.2.44a1.83,1.83,0,0,1,.32.53c.12.5.39,1.15.19,1.49s-.92.4-1.41.39c-2.48-.07-5-.2-7.4-.31v5.47l10.36-.54c.35-6.44.69-12.74,1-19.12l-12.15-.68.33,6.31c2.33.29,2.35.3,3.69-1.25a2.74,2.74,0,0,1,3.08-1.1A3.83,3.83,0,0,1,383.6,189c.23.83-.16,1.36-1.11,1.35s-1.83,0-2.75,0h-5.15Z"/><path class="cls-12" d="M348.78,182.65c-1.61-.11-3-.15-4.42-.33-.42,0-1.08-.44-1.13-.76-.11-.74.51-.92,1.17-.87,3.6.28,7.21.53,10.81.84a2.31,2.31,0,0,0,2.2-.71c3.23-3.47,5-1.83,6.57,1.81.44,1-.15,1.57-1.43,1.43-1.85-.2-3.7-.48-5.57-.73v11.85c2.14-.23,4.09-.47,6-.63a4.51,4.51,0,0,1,1.39.35c-.3.4-.51,1-.91,1.16-4.6,2.3-9.23,4.53-13.84,6.82a15.47,15.47,0,0,0-2.54,1.51c-1.3,1-2,.93-2.62-.52-.83-2.08-1.47-4.23-2.12-6.36-.28-.92.15-1.43,1.15-1.43h5.63Z"/><path class="cls-12" d="M373.86,207.12a8.85,8.85,0,0,1,1.85.79,48.6,48.6,0,0,1,4.26,3.58c.9.88.6,1.92-.58,2.35q-5.88,2.16-11.8,4.21a3.74,3.74,0,0,1-1.45-.15,5.66,5.66,0,0,1,.52-1.34q2.89-4,5.87-8A18,18,0,0,1,373.86,207.12Z"/><path class="cls-12" d="M368.35,167.76c5.76.43,11.53.85,17.29,1.3a2.07,2.07,0,0,0,1.75-.63,15.08,15.08,0,0,1,3-2.14,1.72,1.72,0,0,1,1.62.08,21.63,21.63,0,0,1,2.76,4c.44.9-.34,1.32-1.27,1.22-2.48-.28-4.95-.63-7.44-.82-6.09-.46-12.19-.86-18.29-1.28a4.55,4.55,0,0,1-1.35-.15,1.07,1.07,0,0,1-.59-.78,1,1,0,0,1,.65-.71,11.64,11.64,0,0,1,1.87,0Z"/><path class="cls-12" d="M393.81,212.28c0,1.93-2.24,4.82-4.09,5.22a1.88,1.88,0,0,1-2.14-.87c-1.42-2.18-2.9-4.32-4.33-6.5a5.87,5.87,0,0,1-.46-1.19,4,4,0,0,1,1.12-.36,19,19,0,0,1,8.07,1.16A2.52,2.52,0,0,1,393.81,212.28Z"/><path class="cls-12" d="M379.45,60.66l7.18.37a1.35,1.35,0,0,0,.16-.2c.85-2.53.86-2.62,3.56-2A23.35,23.35,0,0,1,395,60.43c1.3.59,1.25,1.41.26,2.44a3.31,3.31,0,0,0-1,1.86c-.33,5.52-.58,11-.82,16.57-.07,1.74-.35,2.16-2.05,2.3a38.14,38.14,0,0,1-3.85.17c-1.57,0-1.94-.38-2.27-2.07l-9,.57c0,1.44-.88,1.85-2,1.91-1.33.07-2.66.12-4,.1s-1.64-.37-1.65-1.76c-.05-4.82-.06-9.65-.14-14.48,0-2.53-.16-5.07-.32-7.6-.07-1.18.35-1.82,1.55-1.93s2.55-.38,3.83-.37c1.73,0,2,.37,2.41,2.09l1.35.15c.15-1.38.34-2.68.42-4,.12-1.78.19-3.57.21-5.36,0-.94.43-1.33,1.29-1.21a18.54,18.54,0,0,1,7.37,2.53c1.1.68.89,1.68-.27,2.28a10.41,10.41,0,0,0-2.13,1.56C382.68,57.6,381.16,59.06,379.45,60.66Zm-3.1,20,9-.59c.39-5.86.77-11.64,1.16-17.44L376.18,62v5.47c1.1.24,1.92.2,2.47-.81a4,4,0,0,1,1-1.1,1.7,1.7,0,0,1,2.62.19,3.47,3.47,0,0,1,.73,1c.22.62.57,1.39.38,1.91-.13.34-1.11.49-1.72.51-1.77.07-3.55,0-5.31,0V74c1.6.79,2.25-.36,3.08-1.21,1.34-1.41,2.48-1.25,3.48.43a8.39,8.39,0,0,1,.51,1c.63,1.47.22,2-1.35,1.9-1.89-.14-3.77-.24-5.72-.36Z"/><path class="cls-12" d="M348.48,68.77l-5.42-.39c-.25,0-.56,0-.73-.1a6.55,6.55,0,0,1-.83-.91c.31-.23.61-.63.92-.64,1.12,0,2.24.12,3.36.16,4.24.14,8.48.26,12.72.39.2,0,.4,0,.77-.08,0-.68,0-1.33,0-2,.05-1,.69-1.6,1.64-1.27a42.68,42.68,0,0,1,5.53,2.19c1.53.77,1.38,2-.11,2.89a6.8,6.8,0,0,0-1.39,1.18c-1.41,1.47-2.76,3-4.21,4.41-.32.32-.93.33-1.4.48a5.31,5.31,0,0,1-.31-1.34c0-1.53.14-3.07.23-4.72h-2.76c0,.85-.05,1.67,0,2.48.31,4.69.58,9.39,1,14.07.38,4.36-1.71,7.42-6,8.48-1.65.41-2.2,0-2.46-1.63-.4-2.64-1-3.31-3.58-3.92-.33-.07-.58-.45-.86-.69a3.3,3.3,0,0,1,.93-.55c.73-.14,1.48-.11,2.22-.24,1.45-.25,1.78-.75,1.69-2.23C349.12,79.54,348.81,74.27,348.48,68.77Z"/><path class="cls-12" d="M355.43,48c.19-.72.33-1.32.5-1.92a1.57,1.57,0,0,1,2.28-1.17,17.28,17.28,0,0,1,6.36,4.49c.9,1,.57,1.81-.7,2.38a17.49,17.49,0,0,0-2.82,1.68c-1.75,1.24-3.46,2.54-5.19,3.83,0,0,0,.13.08.15,2.79.84,3,2.71,1.37,4.85a12.9,12.9,0,0,1-2.56,2.5,1.87,1.87,0,0,1-3.06-.84A17.9,17.9,0,0,0,347.45,58c-.24-.21-.5-.75-.39-.93a1.35,1.35,0,0,1,1-.54c1.32,0,2.66.08,4,0a1.4,1.4,0,0,0,1.05-.65c.73-2,1.36-4.09,2-6.2-2.72-.5-5.32-1-7.91-1.45a10.36,10.36,0,0,1-2.28-.61c-.34-.15-.52-.69-.77-1.05.38-.14.8-.44,1.15-.38,3.1.54,6.2,1.14,9.3,1.72C354.83,48,355.08,48,355.43,48Z"/><path class="cls-12" d="M372.27,46.75c5.26.44,10,.85,14.7,1.21a2.34,2.34,0,0,0,1.24-.51,36.22,36.22,0,0,1,3.4-2.18,2,2,0,0,1,1.85.24,15.24,15.24,0,0,1,2.68,3.36c.6,1.05,0,1.74-1.26,1.64-8.69-.73-17.38-1.45-26.07-2.22-.42,0-.79-.53-1.18-.81.39-.25.77-.67,1.19-.7C370.14,46.69,371.47,46.75,372.27,46.75Z"/><path class="cls-12" d="M368.87,95.1c-.11-.06-.5-.15-.56-.33a1,1,0,0,1,.17-.87,25.09,25.09,0,0,0,5.12-7.33,1.52,1.52,0,0,1,2-.73,12.66,12.66,0,0,1,5.49,3.54c.69.75.58,1.54-.4,1.88-3.75,1.32-7.53,2.53-11.31,3.78A3,3,0,0,1,368.87,95.1Z"/><path class="cls-12" d="M384.17,86.38c2.35.46,4.71.76,7,1.41,2.44.71,2.91,2.67,1.19,4.59a14.06,14.06,0,0,1-2.74,2.3,2,2,0,0,1-3-.89c-1-1.92-2.18-3.79-3.25-5.69-.19-.34-.46-.87-.33-1.09S383.73,86.6,384.17,86.38Z"/><path class="cls-12" d="M386.63,120.79a78.37,78.37,0,0,1-9.27-.48,9.06,9.06,0,0,0-8.6,2.74,11.72,11.72,0,0,1-2.55,1.77c-.29.17-.76,0-1.14,0a2.64,2.64,0,0,1,.05-1,57.85,57.85,0,0,0,4.78-15.17c.24-1.26.73-1.61,2-1.45a16.3,16.3,0,0,1,6.73,2.49c1.43.89,1.41,1.91.09,2.93a8.66,8.66,0,0,0-1.56,1.69c-.95,1.3-1.85,2.64-2.94,4.21l12.58.68c.09-.75.16-1.35.24-2,.16-1.24.73-1.8,1.91-1.42a51.28,51.28,0,0,1,6.24,2.42c1.3.61,1.31,1.71.1,2.51a2.09,2.09,0,0,0-.94,1.86,170.07,170.07,0,0,0-.59,22.57,14.14,14.14,0,0,1-.42,3.71,7.15,7.15,0,0,1-6.53,5.94c-1,.14-1.8-.16-2-1.32a4.81,4.81,0,0,0-4.1-4.27c-.3-.06-.53-.49-.8-.75a3.36,3.36,0,0,1,1-.56c.9-.12,1.83,0,2.73-.19,1.74-.28,2.17-.88,2.17-2.74,0-2.29-.08-4.58,0-6.86.22-5.37.52-10.73.79-16.09C386.65,121.66,386.63,121.26,386.63,120.79Z"/><path class="cls-12" d="M347.15,121.27c2.42.21,4.51.42,6.61.55a1.17,1.17,0,0,0,.82-.56c.49-.77.88-1.6,1.32-2.4a1.51,1.51,0,0,1,2.19-.79,51.94,51.94,0,0,1,5.12,3.05c1.24.86,1,1.92-.51,2.44a3.19,3.19,0,0,0-1.1.52,51,51,0,0,1-10.3,7.53h5.37c0-.23-.08-.47-.11-.7-.06-.47-.13-.94-.19-1.41a3.86,3.86,0,0,1,1.52,0,40.74,40.74,0,0,1,5.19,2.63,2.1,2.1,0,0,1,.25,3.59,15.2,15.2,0,0,1-4,2.17c-.81.33-1.43-.17-1.56-1.11s-.31-2-.5-3.12c-.77.47-1.39.86-2,1.23-2.17,1.3-4.36,2.58-6.54,3.89-1,.57-1.8.47-2.29-.57-.76-1.65-1.45-3.34-2.12-5-.41-1.05.18-1.66,1.15-1.75a4,4,0,0,0,2.86-1.56c1.52-1.81,3-3.63,4.52-5.46l-.21-.25a5.44,5.44,0,0,0-.71.26L345.36,128c-.7.38-1.51.46-1.84-.33a55.4,55.4,0,0,1-2.09-5.69c-.24-.78.44-1.23,1.18-1.26a2.83,2.83,0,0,0,2.63-1.79c1.14-2.49,2.26-5,3.31-7.52.66-1.57,1.25-2,2.85-1.43a53.09,53.09,0,0,1,5.55,2.49,1.93,1.93,0,0,1,.87,1.45c0,.37-.67.8-1.11,1.1-2.16,1.47-4.35,2.9-6.53,4.34C349.26,119.92,348.33,120.5,347.15,121.27Z"/><path class="cls-12" d="M372.25,132.14c2,.41,4,.68,5.92,1.28,2.54.79,3.15,2.45,1.81,4.7a15,15,0,0,1-2.64,3.25c-1.35,1.25-2.36.93-3.26-.67-1.36-2.42-2.76-4.8-4.16-7.2-.48-.8-.28-1.22.67-1.27a6.36,6.36,0,0,1,.87.06l.74.06Z"/><path class="cls-12" d="M348.31,146c-.22,1.36-.35,2.6-.64,3.81a1.86,1.86,0,0,1-2.49,1.4,8.26,8.26,0,0,1-4.36-3,2.26,2.26,0,0,1,.42-3.11c1.49-1.48,2.88-3.06,4.35-4.56.28-.29.77-.64,1.07-.58a1.39,1.39,0,0,1,.77,1C347.78,142.67,348,144.39,348.31,146Z"/><path class="cls-12" d="M352,149.65c-1.31,0-1.78-.6-1.76-1.73.06-2.15.05-4.3,0-6.45,0-1,.48-1.44,1.4-1a11,11,0,0,1,5.34,4.67,2.11,2.11,0,0,1-.66,2.68A7.43,7.43,0,0,1,352,149.65Z"/><path class="cls-12" d="M364.88,143.5c-.34.65-.5,1.43-1,1.75a21.9,21.9,0,0,1-3.66,2c-.79.35-1.35-.12-1.54-1-.45-1.88-.89-3.77-1.37-5.65-.25-1,0-1.38,1-1.18A11.62,11.62,0,0,1,363.9,142,7.16,7.16,0,0,1,364.88,143.5Z"/></svg>