<svg xmlns="http://www.w3.org/2000/svg" viewBox="0 0 400 440"><defs><style>.cls-1{isolation:isolate;}.cls-2{fill:#d0b8a6;}.cls-3{fill:#f9feff;}.cls-4{fill:#f89472;}.cls-5{fill:#ddc9b6;}.cls-13,.cls-6,.cls-8{fill:#532f53;}.cls-6,.cls-7{opacity:0.75;}.cls-13,.cls-6,.cls-7{mix-blend-mode:soft-light;}.cls-9{fill:#43254c;}.cls-10{fill:#a39082;}.cls-11{fill:#fff;}.cls-12{fill:#a64360;}.cls-14{fill:#e8dfd5;}.cls-15{fill:#b9a494;}.cls-16{fill:#fee6c9;}</style></defs><g class="cls-1"><g id="圖層_1" data-name="圖層 1"><path class="cls-2" d="M111.63,427.18c-16.86,0-30.52,2.54-30.52,5.68v6.25h0c.54,3.05,14,5.49,30.49,5.49s30-2.44,30.48-5.49h0v-6.25C142.14,429.72,128.48,427.18,111.63,427.18Z"/><ellipse class="cls-3" cx="111.21" cy="431.76" rx="31.17" ry="4.58"/><path class="cls-4" d="M75.22,84c-7-2.5-15.74,2.66-16.93,10-.49,3.11.14,6.41-1,9.34-3,7.68-16.47,9.31-16,17.54.22,3.76,3.62,6.54,4.72,10.14,1.67,5.47-2.23,10.89-5.44,15.62s-5.85,11.4-2.17,15.78c1.34,1.59,3.3,2.53,4.74,4,4.07,4.22,2.81,11,2.4,16.82s2,13.4,7.8,13.58c1.82.06,3.66-.69,5.45-.31,2.64.57,4.11,3.31,5.37,5.7,2.9,5.51,7.5,11.29,13.72,11.2s10.55-5.76,16.15-8.24c10.52-4.64,25.84,1.53,32.48-7.86,1.73-2.46,2.54-5.75,5.12-7.32,1.92-1.17,4.32-1,6.53-1.43A14.2,14.2,0,0,0,149.49,174c-.28-3.55-1.94-7-1.47-10.52,1.12-8.45,13.57-12.82,12.77-21.31-.54-5.77-7.16-9.27-8.47-14.91-1.69-7.33,6.09-15.67,1.77-21.83-2.11-3-6.4-4-8.21-7.14s-.37-7.36-1.23-11c-1.35-5.66-7.84-8.42-13.63-9.09s-12-.19-17.08-3c-6-3.25-9.38-9.74-15.33-6.42-2,1.08-4.2,4.1-5.73,5.73-3.48,3.71-8.9-.06-11.69.91-4.58,1.61-5,6.16-5.73,8.94"/><path class="cls-5" d="M75.22,84c-7-2.5-15.74,2.66-16.93,10-.49,3.11.14,6.41-1,9.34-3,7.68-16.47,9.31-16,17.54.22,3.76,3.62,6.54,4.72,10.14,1.67,5.47-2.23,10.89-5.44,15.62s-5.85,11.4-2.17,15.78c1.34,1.59,3.3,2.53,4.74,4,4.07,4.22,2.81,11,2.4,16.82s2,13.4,7.8,13.58c1.82.06,3.66-.69,5.45-.31,2.64.57,4.11,3.31,5.37,5.7,2.9,5.51,7.5,11.29,13.72,11.2s10.55-5.76,16.15-8.24c10.52-4.64,25.84,1.53,32.48-7.86,1.73-2.46,2.54-5.75,5.12-7.32,1.92-1.17,4.32-1,6.53-1.43A14.2,14.2,0,0,0,149.49,174c-.28-3.55-1.94-7-1.47-10.52,1.12-8.45,13.57-12.82,12.77-21.31-.54-5.77-7.16-9.27-8.47-14.91-1.69-7.33,6.09-15.67,1.77-21.83-2.11-3-6.4-4-8.21-7.14s-.37-7.36-1.23-11c-1.35-5.66-7.84-8.42-13.63-9.09s-12-.19-17.08-3c-6-3.25-9.38-9.74-15.33-6.42-2,1.08-4.2,4.1-5.73,5.73-3.48,3.71-8.9-.06-11.69.91-4.58,1.61-5,6.16-5.73,8.94"/><polygon class="cls-2" points="103.38 311.11 107.66 441.85 111.78 441.85 119.87 311.65 103.38 311.11"/><path class="cls-4" d="M111.63,282.34c-24.08,0-43.59,5.36-43.59,12v13.15h0c.77,6.42,20,11.56,43.56,11.56s42.78-5.14,43.55-11.56h0V294.3C155.22,287.7,135.7,282.34,111.63,282.34Z"/><path class="cls-6" d="M111.63,282.34c-24.08,0-43.59,5.36-43.59,12v13.15h0c.77,6.42,20,11.56,43.56,11.56s42.78-5.14,43.55-11.56h0V294.3C155.22,287.7,135.7,282.34,111.63,282.34Z"/><path class="cls-4" d="M233.86,145.37a19.94,19.94,0,0,1,7.68,3.74c.31.25.65.67.42,1a.65.65,0,0,1-.37.25,3.23,3.23,0,0,1-3.12-.52,4.86,4.86,0,0,1,1.67,2.13c.17.41.21,1-.19,1.19a1,1,0,0,1-.68,0,16.71,16.71,0,0,1-4-1.79,14.51,14.51,0,0,1,1.49,1.92,2.44,2.44,0,0,1,.48,1.22,1,1,0,0,1-.68,1,1.58,1.58,0,0,1-1.17-.5,12.32,12.32,0,0,0-7.87-2.63,11.07,11.07,0,0,1-2.23,0,2.35,2.35,0,0,1-1.79-1.2c-.53-1.14.36-2.44,1.33-3.24a13.82,13.82,0,0,1,8.06-2.87"/><g class="cls-7"><path class="cls-8" d="M233.86,145.37a19.94,19.94,0,0,1,7.68,3.74c.31.25.65.67.42,1a.65.65,0,0,1-.37.25,3.23,3.23,0,0,1-3.12-.52,4.86,4.86,0,0,1,1.67,2.13c.17.41.21,1-.19,1.19a1,1,0,0,1-.68,0,16.71,16.71,0,0,1-4-1.79,14.51,14.51,0,0,1,1.49,1.92,2.44,2.44,0,0,1,.48,1.22,1,1,0,0,1-.68,1,1.58,1.58,0,0,1-1.17-.5,12.32,12.32,0,0,0-7.87-2.63,11.07,11.07,0,0,1-2.23,0,2.35,2.35,0,0,1-1.79-1.2c-.53-1.14.36-2.44,1.33-3.24a13.82,13.82,0,0,1,8.06-2.87"/></g><path class="cls-3" d="M268.06,168.38l4-6.12H240l3.48,5.26c-10.4,4.7-17.69,15.16-17.69,24.06,0,11.91,13,21.57,29.1,21.57S284,203.49,284,191.58C284,183.18,277.52,173.41,268.06,168.38Z"/><polygon class="cls-9" points="184.72 219.44 185.1 441 187.86 441 195.75 220.28 184.72 219.44"/><polyline class="cls-10" points="375.68 236.41 154.67 236.41 154.67 215.87 375.68 215.87"/><path class="cls-4" d="M130.86,359.47c-1.11,1.45-8.56,9.33-9.17,10.21l-.32.76,2.3,10.73c.49,0,3.27,6.24,3.48,6.84s-.27,1.42-.89,1.36a1.55,1.55,0,0,1-.6-.27l-.36-.26,0,.08-.92-.74c-.87-.66-1.81-1.42-2.69-2.16l-20.42-19.13s13.15-16,17.38-21.56"/><path class="cls-4" d="M102,365.87a87.31,87.31,0,0,0,17,13.9l4.62-.09a94.61,94.61,0,0,1,10.13,16.67s-12.23-5.89-20.06-12.46-14.7-13.37-14.7-13.37Z"/><path class="cls-4" d="M123.2,101.59c-.06-.36-.14-.69-.22-1-1.32.75-23.55-8.19-31.84-5,0,3.85-2.33,21.82-2.92,19.19a4.9,4.9,0,0,0-1.15-.24,6.22,6.22,0,1,0-1,12.39,6.07,6.07,0,0,0,2.66-.38s.84,24,.84,24.65c0,7.87,5.4,23.51,13.27,23.51s14.25-19.87,14.25-27.74c0-.6-.12-9.69-.12-9.69,7.49-2.5,8.65-10.2,7.66-17S123.2,101.59,123.2,101.59Z"/><path class="cls-6" d="M116.94,137.25a22.08,22.08,0,0,1-8.4.87l8.4,7.4Z"/><path class="cls-2" d="M102,108.86c.66-.13,1.26-.49,1.94-.6a16.2,16.2,0,0,0,2-.22.63.63,0,0,0,.28-1c-1.19-1.35-4.22-.72-5,.83a.71.71,0,0,0,.79,1Z"/><path class="cls-2" d="M119.49,109c-.45-1.77-3.58-2.74-4.93-1.5a.62.62,0,0,0,.13,1,13.73,13.73,0,0,0,2,.5c.7.2,1.26.69,2,.86a.69.69,0,0,0,.84-.83Z"/><path class="cls-10" d="M120,291.56a16.42,16.42,0,0,1,7.28-32c.35.08,64.84,11.43,76.6,17.09s15.66,10.64,12,20.48c-7.9,21.39-13.33,10.86-21.68,9.27l-8.26-.55C102.88,286.94,114.4,290.29,120,291.56Z"/><path class="cls-10" d="M102,239.23a104.35,104.35,0,0,1-30.06-4.57S66.6,252.31,66,256.74c-.72,5.56-1.3,17.95-1.3,17.95,0,7.41,4.42,12.69,10.4,15.3l22.3,2.38h10.63l22.3-2.38c6-2.61,10.06-9.75,10.06-17.16,0,0-.3-8.3-1-16.09s-9.65-20.9-9.65-20.9S118.53,239.23,102,239.23Z"/><path class="cls-11" d="M78.44,243.66a15.33,15.33,0,0,0,2.24-5.3c.08-.4-.53-.57-.61-.17a14.86,14.86,0,0,1-2.18,5.15c-.23.34.32.66.55.32Z"/><path class="cls-11" d="M67.61,250.81A15.14,15.14,0,0,0,76,246.63c.29-.28-.16-.73-.45-.45a14.38,14.38,0,0,1-7.9,4c-.4.06-.41.69,0,.64Z"/><path class="cls-11" d="M66.72,256.75a20.89,20.89,0,0,0,9.89-4.05,24.55,24.55,0,0,0,7.18-8.28,20.32,20.32,0,0,0,2-5.69c.07-.4-.54-.58-.62-.17A21.16,21.16,0,0,1,80.7,248a23.58,23.58,0,0,1-8.39,6.56,18.27,18.27,0,0,1-5.59,1.6c-.4.05-.41.69,0,.64Z"/><path class="cls-11" d="M137.87,250.17a15.7,15.7,0,0,1-11.3-8,13.76,13.76,0,0,1-1.37-3.72c-.08-.4-.69-.23-.61.17a16.2,16.2,0,0,0,9.31,11.1,14.41,14.41,0,0,0,4,1.12c.4.05.4-.58,0-.64Z"/><path class="cls-11" d="M131.22,253.6A24.48,24.48,0,0,1,121,242.73a17.5,17.5,0,0,1-1.23-3.94c-.07-.4-.69-.23-.61.17.94,5.07,4.14,9.47,8.1,12.66a28,28,0,0,0,3.69,2.53.32.32,0,0,0,.32-.55Z"/><path class="cls-11" d="M138.43,256.07a18.11,18.11,0,0,1-4.22-1c-.38-.14-.55.47-.17.61a18.55,18.55,0,0,0,4.39,1.08.32.32,0,0,0,.32-.32.33.33,0,0,0-.32-.32Z"/><path class="cls-11" d="M108.22,240.07c.07,4.79.15,9.58.28,14.37,0,.23,0,.46,0,.69,0,.41.65.41.63,0-.09-3-.14-6-.2-9l-.09-6a.32.32,0,0,0-.64,0Z"/><path class="cls-10" d="M172.06,300.79a15.85,15.85,0,0,0-25.88-18.32L105.56,355.6a47.3,47.3,0,0,0,8.75,7.52,33.87,33.87,0,0,0,12.49,4.67Z"/><path class="cls-10" d="M65.43,269.88c.77-9,10.71-12.17,19.62-10.47.35.07,76.7,15.78,77.29,15.89a15.85,15.85,0,0,1,12.6,18.54c-1.6,8.42-9.92,11.6-18.32,10.31l-5.52-1.06C56.52,298.4,64.17,284.77,65.43,269.88Z"/><path class="cls-11" d="M94.64,261.32q10.94,2,21.83,4.22t21.81,4.66q10.66,2.4,21.28,5a26.75,26.75,0,0,1,8.17,3,15.12,15.12,0,0,1,5.4,6.54,14.35,14.35,0,0,1,1.12,7.49,26.66,26.66,0,0,1-2.66,8.46c-.36.75-.75,1.49-1.14,2.23a.32.32,0,0,0,.55.32c2.68-5,5-10.87,3.48-16.6a17,17,0,0,0-4.14-7.13,16.84,16.84,0,0,0-7.56-4.14c-3.21-1-6.51-1.66-9.77-2.44q-5.55-1.32-11.12-2.59-11-2.52-22.09-4.8t-22.26-4.36l-2.73-.5c-.4-.07-.57.54-.17.61Z"/><path class="cls-11" d="M137.72,262.11a11.53,11.53,0,0,0-2.58.61A5.51,5.51,0,0,0,132.9,264c-.28.3.17.75.45.45a5,5,0,0,1,2-1.14,11,11,0,0,1,2.34-.57.33.33,0,0,0,.32-.31.32.32,0,0,0-.32-.32Z"/><path class="cls-11" d="M91.31,260.78a14.29,14.29,0,0,0-7.08-1.66c-.41,0-.41.65,0,.63A13.71,13.71,0,0,1,91,261.33c.36.19.68-.36.32-.55Z"/><path class="cls-11" d="M88.23,257.05h.54c.1,0,.19,0,.29.06l.14.05.06,0h0a3.43,3.43,0,0,1,.47.28l.2.18a2,2,0,0,1,.17.2.32.32,0,1,0,.55-.32,2.73,2.73,0,0,0-2.45-1.12.32.32,0,0,0-.31.32.31.31,0,0,0,.31.31Z"/><path class="cls-11" d="M132.6,260.21a2.74,2.74,0,0,0-1.83,1.81.32.32,0,1,0,.62.17l0-.13,0-.07c0-.06,0,.05,0,0s.08-.17.13-.25l.08-.12,0-.05c0-.07,0,.05,0,0a1.29,1.29,0,0,1,.19-.21,1,1,0,0,1,.21-.19h0l.06,0,.12-.07.24-.13h0l.07,0,.14,0a.32.32,0,0,0-.17-.62Z"/><path class="cls-4" d="M176.63,367.48c-.74,1.54-6.11,10.19-6.5,11.12l-.14.76,4.13,9.43c.45-.12,4.2,5.12,4.5,5.63s0,1.35-.56,1.41a1.25,1.25,0,0,1-.6-.13l-.39-.17,0,.07-1-.5c-.94-.45-1.94-1-2.89-1.48l-22.39-13.73s9.06-17.2,11.9-23.11"/><path class="cls-4" d="M151.49,378.66a81.79,81.79,0,0,0,18.21,9.58l4.23-1a89.19,89.19,0,0,1,12.46,13.41s-12.36-3.1-20.8-7.66-16-9.51-16-9.51Z"/><path class="cls-12" d="M116.44,114.37c0,.8.29,1.45.64,1.45s.65-.65.65-1.45-.29-1.45-.65-1.45S116.44,113.56,116.44,114.37Z"/><path class="cls-12" d="M103.76,114.37c0,.8.29,1.45.65,1.45s.64-.65.64-1.45-.29-1.45-.64-1.45S103.76,113.56,103.76,114.37Z"/><polygon class="cls-13" points="114.42 121.85 109.22 121.85 110.35 110.64 112.39 110.64 114.42 121.85"/><path class="cls-6" d="M103.82,121.61a4.69,4.69,0,1,0-4.69,4.69A4.69,4.69,0,0,0,103.82,121.61Z"/><path class="cls-6" d="M124,116a5.4,5.4,0,0,0-.91-.09,4.69,4.69,0,0,0,0,9.38,4.58,4.58,0,0,0,2-.44,26.47,26.47,0,0,0-.32-3.67C124.51,119.73,124.26,117.93,124,116Z"/><path class="cls-10" d="M214.6,300.41a15.86,15.86,0,0,0-29.27-12.21l-29,77.12a34.86,34.86,0,0,0,9.78,6.62,28.8,28.8,0,0,0,10.81,2.33Z"/><path class="cls-9" d="M73.64,211.94,67,180.82c-3.59-10.87-7.21-23.15-1.93-25.92,8.87-6.87,13.3-7,24.62-8.11,0,0,3.47,7,13.47,7.23s14.23-6.83,14.23-6.83c11.28,1.49,18.47-.05,28.43,8.43,4,2.65-9.69,26.22-10.25,31.9s-4,13.06-4,13.06l-1.42,17.84,2.56,21.35a256.43,256.43,0,0,1-29.54,1.14c-17.17-.26-31.81-.57-31.81-.57l3.41-19.88"/><path class="cls-4" d="M216.86,150.11c-4.22,15-12.73,32.94-21.55,37.26-23.59,11.56-35.75-15.19-42.15-22.39s-37.51-7.71-18.83,17.75c27.48,37.48,55.13,34.51,70.94,22.44s22.59-32.14,26.49-49.1"/><path class="cls-6" d="M185.06,212.81c-.35-2.55,2.52-5.73,6.85-7.39,4.72-1.8,9.37-1.12,10.39,1.52a2.17,2.17,0,0,1,.07.24C198.18,210.47,192.45,212.55,185.06,212.81Z"/><path class="cls-9" d="M205.31,149.15s17.41,3.45,39.48-2.19l-.08-2.23S222.68,142.07,205.31,149.15Z"/><polygon class="cls-14" points="244.88 147.13 240.47 148.16 240.47 144.38 244.75 144.7 244.88 147.13"/><path class="cls-5" d="M244.88,147.13s5.54,3.09,9.89-1.78l-6.37-.61,4.11-.48a7.71,7.71,0,0,0-7.76.44Z"/><path class="cls-9" d="M189,189.42l7.22,21a41.74,41.74,0,0,1-28.19.69c-15.13-5.15-30.6-20.28-37.81-33.34s-12.87-30.54-12.87-30.54,23.18-.06,29.71,8.19,14.09,22,20.63,26.82S181.8,190.79,189,189.42Z"/><path class="cls-12" d="M105.49,121.35s1.2,3.78,5.5,2.41A14.56,14.56,0,0,1,105.49,121.35Z"/><path class="cls-4" d="M217.09,150.11a23.62,23.62,0,0,0-1.14,3.67l.85,4a8.25,8.25,0,0,0,.94-.59l-.19.36,3,2.29c.27,1.51,1.4-2.54,2.67-1.69a4.87,4.87,0,0,0,3.51.47,12.71,12.71,0,0,0,10.43-8.75c.15-.49.26-1.71-.11-2.06s-2.2.39-2.75.8c-1.51,1.15-3.86,3-5.09,3.22a2.86,2.86,0,0,1-3.19-1.35c-.15-.35-.23-.26-.2-.61"/><path class="cls-4" d="M231.78,144.72a13.59,13.59,0,0,1,2.73-.34c2,0,2.76.84,4.76.59,1.06-.14,2.44-.75,2.19-1.8a1.84,1.84,0,0,0-1.06-1.06c-4.64-2.47-10.78-3.41-15.29-.71a33.22,33.22,0,0,0-5,3.9"/><path class="cls-10" d="M252.51,144.26l-.34-.15a8.51,8.51,0,0,0-3.8-.76c-1.72.23-1.6,1.38-.34,2.06s-1.6,1.26-.46,1.61.12,1.14,1.15,1.14a8.3,8.3,0,0,0,6.05-2.81l-6.37-.61Z"/><path class="cls-10" d="M243.32,210.68a3,3,0,0,0,1.64-.43c1.64-1.23-.3-3.62-.84-5.6a4,4,0,0,1,4.24-4.79c1.54.23,3.21,1.35,4.47.43s.57-3.13.86-4.8c.46-2.66,3.66-3.77,6.34-4s5.76-.21,7.55-2.22c1.95-2.2,1.22-5.86-.81-8s-5-3.07-7.81-3.85-6.68-2.71-6-5.68c.47-1.92,2.62-2.82,4.44-3.6s3.87-2.18,3.66-4.16a2.51,2.51,0,0,0-1-1.76H240l3.48,5.26c-10.4,4.7-17.69,15.16-17.69,24.06,0,8.32,6.36,15.52,15.66,19.12C242.08,210.71,242.7,210.71,243.32,210.68Z"/><path class="cls-5" d="M80.05,146.69c2.8.07,6,1.5,8.59.44s4.53-4.89,4.39-7.69c-.09-2-1.32-3.85-.94-5.79.71-3.56,6.45-5.55,5.23-9-.55-1.55-2.34-2.23-3.41-3.48-4.51-5.27,6.38-14.22,1.79-19.42a6.79,6.79,0,0,1,8.36.52,10.23,10.23,0,0,0,2.3,2.07c2.66,1.27,6.19-1.81,8.57-.07,1.19.87,1.42,2.55,2.3,3.74,1.45,2,4.25,2.15,6.69,2.17,3.43,0,7.83-.69,8.54-4a6.67,6.67,0,0,0-1.07-4.44c-4.44-8-13.15-13.31-22.27-14.48s-30.5,4.06-38.24,9"/><path class="cls-14" d="M86.13,147.31s-2,12.54-.93,21.82c0,0,19.6,3.1,37.47,0,0,0,.69-15.47-1-22a49.31,49.31,0,0,1,7.45.83l1.83,23.58s10.32,15.47,1.38,29.91l-1.38,17.18,2.75,19.25s3.63,14,10.45,19.41l16,10.16s25.44,4.47,4.47,13.06-40.28,5.77-52.25,4.81c-8.59-.68-33.34-6.53-36.09-25.78C74.61,248,82.8,230,81.77,217.6s-11-27.15-3.79-69.44C78,148.16,83.38,147,86.13,147.31Z"/><path class="cls-3" d="M97.12,207.05c-2.24-2.35-5.41-6.47-2.53-9,1.2-1.1,3.74-.69,5-2.05,1.65-1.85,2.07-5.42,4.55-5.46,2.19,0,3.05,2.87,4.86,4.09,2.72,1.84,7.3-.32,9.27,2.31,2.15,2.88-2.07,6.77-1.34,10.28.36,1.72,1.87,3.57.82,5-1.27,1.7-3.88-.08-6-.07-3.31,0-5.46,4.66-8.73,4.12-4-.66-3.1-7.54-6.55-9.75"/><path class="cls-3" d="M110.4,215c-1.08,1.18-2.25,2.39-.86,3.43s4.43-1.52,4.1-3-2.35-1.34-3.24-.42"/><path class="cls-3" d="M135.74,271.38h-7.66a3.59,3.59,0,0,0-1.63.23c-1.06.54-.18,1.75,1.09,2a23.87,23.87,0,0,0,4,.1c1.33.06,2.85.68,2.65,1.56s-1.55,1.41-1,2.07c.4.5,1.5.44,2.33.31l16-2.57a6.84,6.84,0,0,0,2.77-.85c.71-.49.83-1.42,0-1.79a3.71,3.71,0,0,0-1.31-.22l-6.54-.34a6.92,6.92,0,0,1-2.45-.41,11.44,11.44,0,0,1-1.55-1.06c-2.61-1.67-6.91-.33-9.89,1"/><polygon class="cls-2" points="151.09 219.44 154.34 442.54 157.46 442.54 163.6 220.33 151.09 219.44"/><polyline class="cls-15" points="375.68 211.68 143.76 211.68 151.09 223.18 375.68 223.18"/><path class="cls-4" d="M91.37,100c-15,2.72-35.32,10.14-39.15,15.43-8.12,11.22,21,35.87,21,35.87s1.15,12.31-2.06,17.19c-2.9,4.4-5.3,1.75-16.37-8.75C7.44,114.83,30.67,99,57.25,91c6.88-2.08,16.31-2.92,25-3.72"/><path class="cls-6" d="M29,125.88c2.63-.35,4.85-3.84,5.11-8.28.29-4.83-1.85-8.94-4.79-9.19H29.1C27.19,113.15,27,119,29,125.88Z"/><path class="cls-4" d="M67.83,97.64a98.3,98.3,0,0,1,14.72-11.5l.08.08a37,37,0,0,1,5.8-5.86,5,5,0,0,1,1.51-.61,1,1,0,0,1,1,.39c.18.31,0,.67-.11,1-.53,1.52-1.17,2.13-3.15,5.55a31.8,31.8,0,0,1,6.4-7.26c.85-.69,1.54-.91,2-.75s.63.72.56,1.22a10.18,10.18,0,0,1-2,4c-1.57,2.41-1,1.64-2.59,4.06,1.93-2.28,6.51-7.54,7.8-7.11s.06,3-.47,3.76c-1.94,2.7-1.94,3.21-3.88,5.91,2.78-3.39,6.13-7.28,7.16-6.44s-3.55,8.06-6.23,10.83c2.75.25,5.8.78,4.94,1.93-1,1.33-12.88,4.09-18.27,4.35"/><path class="cls-9" d="M67,180.82s-3.09-9.62-18.9-26.12S27.7,129.19,27.7,116.81l22.78,3.51a153.58,153.58,0,0,0,8.94,13.06c3.78,4.82,11.35,11,18.56,14.78,0,0-3.43,14.44-3.43,27.16C74.55,184.9,67,180.82,67,180.82Z"/><path class="cls-2" d="M301.26,99.57a13.87,13.87,0,0,0,4.86-14.43c-.78-2.76-3-5.55-5.86-5.38s-4.67,3.09-5.19,5.85a14,14,0,0,0,2.58,11"/><path class="cls-15" d="M315.85,123.5a37.72,37.72,0,0,0-4.45-19.24c-2.14-4-5.18-7.7-9.35-9.47s-9.57-1.1-12.38,2.44c-2.44,3.07-2.42,7.57-.83,11.14s4.53,6.38,7.59,8.82A68.33,68.33,0,0,0,318,128.72"/><path class="cls-15" d="M346,113.08c-1.14-3.47-2.27-7-2.32-10.67s1.15-7.5,4-9.83,7.4-2.64,10-.06a9.26,9.26,0,0,1,2.2,4.16c1.21,4.4.54,9.5-2.52,12.88S348.6,114,345,111.23"/><path class="cls-10" d="M335.07,180.9a99.27,99.27,0,0,0,17.78-52.21c.27-5.93,0-12-2.18-17.55s-6.4-10.49-12.05-12.33C328.81,95.62,318,103,314,112.49s-3.56,20.35-1.78,30.51c2.85,16.15,8.53,27.54,17,38.26"/><polygon class="cls-4" points="315.98 211.67 346.29 211.67 353.87 167.26 308.4 167.26 315.98 211.67"/><polygon class="cls-6" points="315.98 211.67 346.29 211.67 353.87 167.26 308.4 167.26 315.98 211.67"/><polygon class="cls-4" points="359.02 166.89 303.26 166.89 306.69 183.11 354.73 185.68 359.02 166.89"/><path class="cls-16" d="M356.15,120.05l-5.15.56c-.42,0-.43.71,0,.66l5.15-.55c.42,0,.42-.71,0-.67Z"/><path class="cls-16" d="M341.08,108.68l-2.82,1.23a.33.33,0,0,0-.12.45.35.35,0,0,0,.46.12l2.82-1.23a.33.33,0,1,0-.34-.57Z"/><path class="cls-16" d="M320.31,117.29l2.37,3.95a.33.33,0,0,0,.57-.33q-1.17-2-2.36-4a.34.34,0,0,0-.58.34Z"/><path class="cls-16" d="M335.41,125.36l-4,2.23a.33.33,0,0,0,.34.57l4-2.22a.33.33,0,0,0-.33-.58Z"/><path class="cls-16" d="M341.62,134.46l2.28,2.86a.34.34,0,0,0,.47,0,.33.33,0,0,0,0-.47L342.09,134a.33.33,0,0,0-.47.47Z"/><path class="cls-16" d="M322.17,141.26l-3.27,2.49a.34.34,0,0,0-.12.46.33.33,0,0,0,.45.12l3.28-2.49a.36.36,0,0,0,.12-.46.34.34,0,0,0-.46-.12Z"/><path class="cls-16" d="M324.94,154.8v5.72a.34.34,0,0,0,.67,0V154.8a.34.34,0,0,0-.67,0Z"/><path class="cls-16" d="M336,150.52a9.27,9.27,0,0,1,3.32,3.88.34.34,0,0,0,.45.12.34.34,0,0,0,.12-.46,10,10,0,0,0-3.55-4.12c-.36-.23-.7.34-.34.58Z"/><path class="cls-16" d="M315,130.45h-6.29a.34.34,0,0,0,0,.67H315a.34.34,0,0,0,0-.67Z"/><path class="cls-16" d="M323.17,96.69c.8,1.69,1.61,3.39,2.41,5.09.18.38.76,0,.58-.34-.81-1.7-1.61-3.39-2.41-5.09-.19-.39-.76,0-.58.34Z"/><path class="cls-16" d="M334.08,94.76a15.07,15.07,0,0,1-.53,5.63.33.33,0,0,0,.64.18,15.64,15.64,0,0,0,.56-5.81c0-.43-.71-.43-.67,0Z"/><path class="cls-16" d="M351.17,153.38l-3.35-1.87c-.37-.2-.71.37-.33.58l3.35,1.87c.37.2.71-.37.33-.58Z"/><path class="cls-16" d="M361.8,93.9a6.9,6.9,0,0,0-3.13,2.36.33.33,0,1,0,.57.34A6.15,6.15,0,0,1,362,94.54a.33.33,0,0,0-.18-.64Z"/><path class="cls-16" d="M347.76,88.68c.8,1.7,1.61,3.39,2.41,5.09.18.39.76,0,.58-.34q-1.22-2.54-2.41-5.09c-.19-.38-.76,0-.58.34Z"/><path class="cls-16" d="M351.89,102.92a4.85,4.85,0,0,0,2.38,2.43.35.35,0,0,0,.45-.12.33.33,0,0,0-.12-.46,4.22,4.22,0,0,1-2.13-2.19.34.34,0,0,0-.58.34Z"/><path class="cls-16" d="M302.69,100.07l1.8,2.8a.32.32,0,0,0,.45.12.33.33,0,0,0,.12-.45l-1.8-2.81a.34.34,0,0,0-.45-.12.34.34,0,0,0-.12.46Z"/><path class="cls-16" d="M306.9,114.49l-4,1.2c-.41.13-.23.77.18.64l4-1.2c.41-.13.24-.77-.17-.64Z"/><path class="cls-16" d="M296.68,104.72h-4a.33.33,0,0,0,0,.66h4a.33.33,0,0,0,0-.66Z"/><path class="cls-16" d="M309.09,83.59l-4.62,2.2c-.39.18-.05.75.34.57l4.61-2.2c.39-.18.05-.76-.33-.57Z"/><path class="cls-16" d="M305.61,79.83a7.23,7.23,0,0,1-2.32,3.23.33.33,0,0,0,0,.47.34.34,0,0,0,.47,0,7.82,7.82,0,0,0,2.5-3.52.34.34,0,0,0-.65-.18Z"/><path class="cls-16" d="M298.16,86.89l1.13,2.3a.33.33,0,1,0,.57-.34l-1.12-2.29a.33.33,0,0,0-.58.33Z"/></g></g></svg>