<svg xmlns="http://www.w3.org/2000/svg" viewBox="0 0 112.87 220.9"><defs><style>.cls-1{fill:#727272;}.cls-2{fill:#e2506f;}.cls-3{fill:#f7bb9a;}.cls-4{fill:#475ca8;}.cls-5{fill:#5d6db3;}.cls-6{fill:#b39975;}.cls-7{fill:#e4e4e4;}.cls-8{fill:#7283c0;}.cls-9{fill:#fff;}.cls-10{fill:#c96132;}.cls-11{fill:#e17f4e;}.cls-12{fill:#040000;}</style></defs><g id="圖層_2" data-name="圖層 2"><g id="圖層_1-2" data-name="圖層 1"><path class="cls-1" d="M112.86,202.92a3.75,3.75,0,0,1-.75,2.22,13.56,13.56,0,0,1-1.64,1.91,104.45,104.45,0,0,0-7.57,8.45A28.1,28.1,0,0,1,99.6,219a4.85,4.85,0,0,1-1.74,1.08,1.28,1.28,0,0,1-1.78-1.39,4.42,4.42,0,0,1,.61-1.95c.66-1.25,1.35-2.48,2-3.73.36-.67.71-1.36,1-2.05a6.19,6.19,0,0,0,.48-4.35,2.35,2.35,0,0,1,1.11-2.83c2.42-1.74,4.89-3.41,7.38-5,1-.64,1.29-.59,2,.3a18.36,18.36,0,0,1,1.65,2.35A2.56,2.56,0,0,1,112.86,202.92Z"/><path class="cls-1" d="M44.22,209.83c1.26,0,2.52,0,3.78,0,.92,0,1.06.12,1.21,1a19.3,19.3,0,0,1,.47,3.63,3.15,3.15,0,0,1-2.39,3.35,16.78,16.78,0,0,1-4.14.87c-3.85.36-7.63,1.16-11.43,1.82a22.82,22.82,0,0,1-3.41.39,5.42,5.42,0,0,1-1.14-.08,1.08,1.08,0,0,1-.59-1.95,6.9,6.9,0,0,1,1.38-1,30.59,30.59,0,0,1,3.39-1.69,17.36,17.36,0,0,0,6.94-5.47,2,2,0,0,1,1.69-.79c1.41,0,2.83,0,4.24,0Z"/><path class="cls-2" d="M33.4,159a67.52,67.52,0,0,1,1.45-16,36.71,36.71,0,0,1,.92-4.13c.22-.71.38-.78,1.09-.5a49.41,49.41,0,0,0,10.93,2.52c3.22.48,6.45.78,9.69,1.07a7.32,7.32,0,0,1,.8.11.48.48,0,0,1,.39.6,2.64,2.64,0,0,1-.11.56c-1.27,4.1-2,8.32-2.89,12.51-.69,3.26-1.41,6.5-1.93,9.79a29,29,0,0,0-.42,5.26c.09,4-.15,8-.24,12-.11,5.05-.54,10.08-1,15.11-.28,3.09-.39,6.19-.58,9.28-.06.95-.13,1.91-.23,2.86s-.22,1-1.11,1.17a24.87,24.87,0,0,1-5.38.32c-2-.13-4-.14-6.08-.17-.23,0-.46,0-.69,0-1-.12-1.33-.45-1.4-1.46-.11-1.87-.19-3.75-.31-5.62-.38-5.68-.73-11.37-1.17-17.05-.36-4.81-.9-9.6-1.23-14.41C33.61,168.31,33.29,163.77,33.4,159Z"/><path class="cls-2" d="M69.65,142.51a100.28,100.28,0,0,0,15.07-1.38c.9-.17,1.78-.44,2.67-.64,1.09-.23,1.3-.12,1.44,1a117.22,117.22,0,0,1,1.38,14.38,3.63,3.63,0,0,0,.44,1.74c1.57,2.9,3.42,5.62,5.1,8.45a216.87,216.87,0,0,1,11.61,22.66c1.32,3,2.77,5.89,4,8.91.08.22.18.43.25.65.25.75.2.9-.45,1.32-3.12,2-6.23,4-9.37,6a14.94,14.94,0,0,1-2.14,1.11,1.58,1.58,0,0,1-2.28-.63c-.69-1-1.4-1.93-2-2.95-5.44-9.36-11.36-18.44-16.7-27.85a129.62,129.62,0,0,1-9.51-20,94.78,94.78,0,0,1-3.29-11.69c-.23-1-.12-1.1.94-1.09S68.69,142.51,69.65,142.51Z"/><path class="cls-3" d="M8.56,27.49c-.19-1.27-.35-2.36-.51-3.45a2.55,2.55,0,0,1,0-1,.72.72,0,0,1,1.23-.4,2.91,2.91,0,0,1,.69,1,25.47,25.47,0,0,1,1.16,3.12A26.41,26.41,0,0,0,12.8,31c.43-.47.39-1,.57-1.52A5.21,5.21,0,0,1,14,27.88a.8.8,0,0,1,1.46.19,2.7,2.7,0,0,1,.19,1.12,17,17,0,0,1-.54,4.08,5.27,5.27,0,0,0,.25,3.37,6.31,6.31,0,0,1,.28.87,1.46,1.46,0,0,1-.45,1.56c-.06,0-.1.12-.16.16A25.6,25.6,0,0,1,7.53,43c-.84.21-1.13,0-1.57-.76L5.81,42Q3.22,36.22.63,30.47A6.32,6.32,0,0,1,0,28.74c-.06-.43-.11-.87.36-1.11a1,1,0,0,1,1.14.29,12.49,12.49,0,0,1,.85.93c.19.21.29.52.67.66a7.42,7.42,0,0,0-.51-1.8,10,10,0,0,1-.51-2c-.05-.47-.07-.95.44-1.19s.88,0,1.22.38A10.48,10.48,0,0,1,5,26.77c.12.2.18.43.44.57.13-.42-.12-.76-.18-1.13-.09-.53-.26-1-.33-1.57s-.06-1,.54-1.24.88.18,1.12.59c.39.66.73,1.34,1.1,2A5.81,5.81,0,0,0,8.56,27.49Z"/><path class="cls-4" d="M28.31,77.36a12.64,12.64,0,0,1-8.46-3.83,25.39,25.39,0,0,1-4.16-5.6,156.18,156.18,0,0,1-8-16.26c-1-2.27-2-4.57-2.93-6.86-.35-.83-.35-.85.45-1.35C7.25,42.2,9.39,41.1,11.53,40c1.29-.67,2.58-1.33,3.88-2,1.07-.53,1.34-.44,1.88.64,2.65,5.4,5.77,10.54,8.82,15.71a23.5,23.5,0,0,0,3.64,4.72c1.55,1.53,2.63,1.65,4.52.57A9.72,9.72,0,0,0,37,57.2a35.29,35.29,0,0,0,2.2-3.09,20.79,20.79,0,0,1,7.25-6.73A18.87,18.87,0,0,1,52,45.7a.44.44,0,0,1,.56.29c.06.28-.17.42-.39.49a11.31,11.31,0,0,0-1.75.85,8.69,8.69,0,0,0-4.62,6.61,47.35,47.35,0,0,0-.63,7.89c0,1.68,0,3.37,0,5a2.46,2.46,0,0,1-.68,1.87,32.1,32.1,0,0,1-10.11,7.44A14.24,14.24,0,0,1,28.31,77.36Z"/><path class="cls-5" d="M44.17,69.1c0-3.56-.08-7.12,0-10.68a27.53,27.53,0,0,1,.93-6.69c.13-.44.28-.87.43-1.3a6.54,6.54,0,0,1,5.48-4.77,35,35,0,0,0,5.73-1.15c.55-.19.71,0,.58.67-.56,2.85-1.14,5.7-1.7,8.55-1.29,6.69-2.58,13.37-4.35,20a32.3,32.3,0,0,1-1.68,4.75c-.89,2-2.64,2.9-4.52,3.63-.57.23-.92,0-1-.69A9.26,9.26,0,0,1,44,79C44.23,75.68,44.18,72.39,44.17,69.1Z"/><path class="cls-6" d="M13,.48c1.45,0,2.89,0,4.34.13A27.55,27.55,0,0,0,23,.36C24.39.19,25.75.16,27.11,0a3.42,3.42,0,0,1,.64,0,2.17,2.17,0,0,1,2.14,2.88,9.77,9.77,0,0,1-.8,2,5.53,5.53,0,0,0,.41,5.82,27,27,0,0,1,2.11,3.79c2.38,5.56,1.88,12.32-3.23,17A14,14,0,0,1,19,35.09c-7.85.26-14-6.42-14.16-13.67a17.15,17.15,0,0,1,2.76-9.94,6.51,6.51,0,0,0,.28-7.42A5.16,5.16,0,0,1,7.47,3C7,1.61,7.48.87,8.88.6A7.78,7.78,0,0,1,10.15.49C11.09.47,12,.48,13,.48Z"/><path class="cls-7" d="M69.08,143.44c-6.82-.06-13.62-.36-20.41-1a67.38,67.38,0,0,1-12.52-2.25,11.75,11.75,0,0,1-3-1.21,3.44,3.44,0,0,1-1.8-4.08,20.11,20.11,0,0,1,1-3.19c2.52-6.77,5.45-13.39,8.27-20.05.22-.52.45-1,.69-1.57A27.39,27.39,0,0,0,43.79,98q0-6.25-.46-12.51a21.12,21.12,0,0,1,0-2.64c.06-1.12.41-1.46,1.52-1.65.49-.08,1-.17,1.47-.24a4.09,4.09,0,0,0,3.59-3.12,47.51,47.51,0,0,0,1.61-6.45c1.2-8,2.76-15.9,4.08-23.87a11,11,0,0,1,.56-2.67A1.92,1.92,0,0,1,58,43.53a1.74,1.74,0,0,1,1.77,1.19,4.91,4.91,0,0,1,.26,1.7,86.45,86.45,0,0,1-.56,8.81,35.85,35.85,0,0,0-.14,8c0,.27.06.54.12.8.52,2.65,1.13,3.22,3.81,3.56a31.59,31.59,0,0,0,8,.27c1.56-.21,1.93-.48,2.36-2a40.14,40.14,0,0,0,.86-5.21c.58-4.32.81-8.68,1.43-13a13.32,13.32,0,0,1,.61-2.8,1.82,1.82,0,0,1,2-1.41c1,0,1.52.5,1.83,1.58a7.08,7.08,0,0,1,.21,1.71c.23,6.73.53,13.46.49,20.2,0,2.83.12,5.66.19,8.49,0,.46.1.92.11,1.37a2.88,2.88,0,0,0,2.07,2.75,10.72,10.72,0,0,1,1.14.52,4.17,4.17,0,0,1,2.22,2.79,14.54,14.54,0,0,1,.35,2.26A117.72,117.72,0,0,0,90,105a103.93,103.93,0,0,1,2.33,12.87A64.52,64.52,0,0,1,92,135.1a11.53,11.53,0,0,1-1.15,3.47,7.85,7.85,0,0,1-5.6,4.17,51.46,51.46,0,0,1-11.09.71C72.45,143.43,70.77,143.44,69.08,143.44Z"/><path class="cls-3" d="M29.92,31c-.46-.88-.94-1.74-1.37-2.63a17.45,17.45,0,0,1-.84-2c-.27-.84-.15-1.36.25-1.57s.87,0,1.41.7c.29.4.56.82.83,1.24.53.84,1.05,1.69,1.59,2.52.12.18.16.44.48.46,0-.41,0-.81,0-1.21s0-1,.64-1.22c.43-.14.85.19,1.13.91a13.63,13.63,0,0,1,.5,1.65c.31,1.18.6,2.37.89,3.56A6.31,6.31,0,0,0,37,36.32a3.15,3.15,0,0,1,.41.55c.42.69.41.93-.11,1.54-.34.41-.72.79-1.08,1.18-1.13,1.2-2.25,2.41-3.37,3.61-.42.44-.84.89-1.3,1.3a1,1,0,0,1-1.45,0l-.18-.15a33,33,0,0,1-8.64-10.88c-.22-.47-.57-1,0-1.46s1,0,1.42.32a10.67,10.67,0,0,1,1.52,1.56,8,8,0,0,0,1,1.09,1.8,1.8,0,0,0-.4-1,35.4,35.4,0,0,1-2.11-3.94,3,3,0,0,1-.35-1.2.75.75,0,0,1,1.07-.78,2.52,2.52,0,0,1,1.08.83c.48.54.93,1.1,1.41,1.67.28-.32,0-.52-.09-.72a17.14,17.14,0,0,1-1-2.09c-.3-.87-.25-1.37.2-1.54.67-.26,1.08.2,1.45.65s.83,1.09,1.25,1.64A10,10,0,0,0,29.92,31Z"/><path class="cls-5" d="M58.56,58.3c0-4.22.64-8.39.95-12.58.09-1.16.18-1.19,1.26-.82a21.5,21.5,0,0,0,13.86.2c.5-.16,1-.4,1.49-.59.72-.26,1,0,.92.75,0,.11,0,.23-.06.34-.9,2.95-1,6-1.34,9.06S75.13,61,74.5,64.11a10.52,10.52,0,0,1-.94,2.82,2.94,2.94,0,0,1-2.32,1.67,20.26,20.26,0,0,1-8.52-.49,5.06,5.06,0,0,1-3.67-3.89A23.09,23.09,0,0,1,58.56,58.3Z"/><path class="cls-5" d="M80.75,68.27V62.2a.91.91,0,0,1,0-.23c.12-.43.06-1,.54-1.19s.76.26,1.07.52c1.41,1.23,2.81,2.48,4.24,3.69a3.52,3.52,0,0,1,1.31,3.13c-.08,1.34-.18,2.67-.33,4-.35,3.16-.43,6.33-.62,9.5,0,.43.13,1-.42,1.2s-.79-.36-1-.72a8.42,8.42,0,0,0-2.57-2.26,3.7,3.7,0,0,1-1.86-3.19C80.9,74,81,71.37,80.75,68.27Z"/><path class="cls-8" d="M69.85,70.58A24.86,24.86,0,0,1,57,67.1a125.07,125.07,0,0,1-18.8-13.52c-2.57-2.29-5.17-4.56-7.72-6.87-1.41-1.28-1.37-1.41-.07-2.84a35.54,35.54,0,0,1,2.69-2.66A16.63,16.63,0,0,0,36,38a6.89,6.89,0,0,1,1.19-1.39c.75-.62,1-.65,1.81,0,1.38,1.09,2.74,2.21,4.1,3.33,2.74,2.27,5.45,4.59,8.22,6.82a41.31,41.31,0,0,0,9.21,5.77,22.77,22.77,0,0,0,14.26,1.38c1.7-.37,1.69-.34,2.65,1.05a85.88,85.88,0,0,0,6,7.83l.37.44c.78.94.76,1.05-.18,1.82A38.66,38.66,0,0,1,78,68.74a15.43,15.43,0,0,1-5.35,1.61A12.89,12.89,0,0,1,69.85,70.58Z"/><path class="cls-3" d="M66.23,47.27a10.69,10.69,0,0,1-3.73-.42c-1.17-.37-2.32-.78-3.45-1.24s-1.41-.79-1.27-2.09c.17-1.63.39-3.26.59-4.89a5.22,5.22,0,0,1,.07-.57c.1-.49-.11-.7-.59-.76a10.21,10.21,0,0,1-2.42-.66,4.67,4.67,0,0,1-3.22-4.32c-.12-1.45,0-2.9,0-4.36,0-.3,0-.61,0-.91.06-.59-.12-1-.77-1A2.32,2.32,0,0,1,51,26c-.26-.06-.53-.15-.61-.45s.19-.56.48-.68a4,4,0,0,0,2.3-3.06,28.37,28.37,0,0,1,2-5.71c.59-1.19.59-1.12,1.93-.93a28.67,28.67,0,0,1,6.35,1.9,9.94,9.94,0,0,1,5.72,5.63,23.15,23.15,0,0,1,1.61,7c.27,2.85.31,5.72.68,8.57a39,39,0,0,0,1.23,6.17c.3,1,.25,1.12-.72,1.59a13.38,13.38,0,0,1-5,1.2Z"/><path class="cls-9" d="M56.18,22.39A4.72,4.72,0,0,1,54.53,22a.7.7,0,0,1-.41-.79.75.75,0,0,1,.71-.58,4,4,0,0,1,1.88.29c.37.12.68.33.64.75s-.37.57-.75.67A3.43,3.43,0,0,1,56.18,22.39Z"/><path class="cls-10" d="M55.65,18.89a5.08,5.08,0,0,1,2.28.4c.32.15.67.32.55.75s-.53.4-.85.26a6.73,6.73,0,0,0-2.58-.43c-.33,0-.64-.06-.66-.47s.31-.48.62-.5S55.54,18.89,55.65,18.89Z"/><path class="cls-11" d="M52.87,29.55l-.29,0c-.26,0-.43-.16-.44-.43a.44.44,0,0,1,.38-.49,18.34,18.34,0,0,0,2.1-.5.51.51,0,0,1,.67.28c.14.37-.09.58-.39.7A5.64,5.64,0,0,1,52.87,29.55Z"/><path class="cls-10" d="M95.25,69a14.29,14.29,0,0,1-7.39-1.94,30.51,30.51,0,0,1-9.54-8.14c-3.36-4.38-6.09-9.09-7.19-14.6q-.76-3.83-1.22-7.7a87.67,87.67,0,0,0-1.36-9,26.92,26.92,0,0,0-1.15-3.84,9.3,9.3,0,0,0-6.67-6.07,21.09,21.09,0,0,1-4-1.37,9,9,0,0,1-4-3.87A5.48,5.48,0,0,1,55.3,4.68a11.49,11.49,0,0,1,7.61-.85,13.83,13.83,0,0,1,9.52,6.78c.59,1,1.18,2,1.74,3a11.36,11.36,0,0,0,3.88,4.15c.7.45,1.39.95,2.07,1.44a10.82,10.82,0,0,1,3.81,5.06,45.67,45.67,0,0,1,2,7.53A9.92,9.92,0,0,0,92,39.39,40.49,40.49,0,0,1,100.1,44a15.8,15.8,0,0,1,6.6,13.26C106.68,63.91,102,69,95.25,69Z"/><circle class="cls-12" cx="55.52" cy="21.43" r="0.89"/></g></g></svg>