<svg id="圖層_1" data-name="圖層 1" xmlns="http://www.w3.org/2000/svg" viewBox="0 0 400 440"><defs><style>.cls-1{fill:#727272;}.cls-2{fill:#45aaa4;}.cls-3{fill:#eb7c7c;}.cls-4{fill:#e4e4e4;}.cls-5{fill:#a3a3a3;}.cls-6{fill:#e7504f;}.cls-7{fill:#f5bea3;}.cls-8{fill:#d38677;}.cls-9{fill:#7a554e;}.cls-10{fill:#614047;}.cls-11{fill:#fff;}.cls-12{fill:#bdaa87;}.cls-13{fill:#d5c6b8;}.cls-14{fill:#a28f80;}.cls-15{fill:#cfb6a4;}.cls-16{fill:#b8a292;}.cls-17{fill:#904b27;}.cls-18{fill:#a26c3e;}.cls-19{fill:#f5b998;}</style></defs><path class="cls-1" d="M154.54,403.34h-7.87c-.74,0-1.47.06-2.21.12a2.39,2.39,0,0,0-2.32,2c-.21.83-.55,1.61-.79,2.44a7.72,7.72,0,0,1-4.75,5.2c-2.19.9-4.4,1.76-6.6,2.65-1.06.44-2.12.9-3.17,1.38a6.3,6.3,0,0,0-1.22.74c-1.12.89-2.14,1.95-1.75,3.58s1.75,1.89,3,2a26.43,26.43,0,0,0,8-.57c4.09-.8,8.2-1.55,12.34-2.06,3.56-.43,7.12-.16,10.68-.32a33.79,33.79,0,0,0,4.82-.49c3.2-.61,4.48-2.43,4.22-5.9-.2-2.64-.42-5.29-.68-7.93-.23-2.37-.84-3-3.09-3-2.89,0-5.78,0-8.67,0Z"/><path class="cls-1" d="M218.28,404.63c-5.57.51-11.43,1.39-17.29,2.25-1.71.25-2,.58-1.92,2.35a9.19,9.19,0,0,1-3.46,7.83c-2.6,2.29-5.15,4.62-7.89,6.72a10.13,10.13,0,0,0-2.81,3.05,3.6,3.6,0,0,0-.14,3.86,3.08,3.08,0,0,0,3.39,1.38,15.56,15.56,0,0,0,3.28-1c6.2-2.58,12.46-5,18.44-8.19a28,28,0,0,1,6.69-2.34,13.84,13.84,0,0,0,4.16-1.62,4.6,4.6,0,0,0,2.28-5.23q-.67-3.69-1.43-7.37C221.26,404.76,220.79,404.52,218.28,404.63Z"/><path class="cls-2" d="M200.09,411c2.29-.35,5.22-.81,8.15-1.24,4.6-.68,9.23-1.07,13.78-2.11,4.39-1,4.38-1,3.79-5.83-1.16-9.54-2.27-19.09-3.42-28.64-.66-5.48-1.4-10.95-2-16.44a218.36,218.36,0,0,1-1.18-23.44c-.11-10.27-.33-20.54-.88-30.8-.56-10.61-1.1-21.23-2.34-31.78-.44-3.7-1.08-7.38-1.67-11.05-.22-1.39-.66-1.67-2-1.24a31.58,31.58,0,0,0-3.6,1.41,96.48,96.48,0,0,1-27.6,7.84c-2.44.33-4.92.83-7.42.32-1.09-.23-1.52.29-1.29,1.46s.56,2.06.81,3.11c2.44,10,4,20.22,5.57,30.43,1.49,9.92,3.09,19.83,4.64,29.75,1.12,7.15,1.86,14.37,2.58,21.58a306.33,306.33,0,0,0,6.36,37.27c1.25,5.51,2.64,11,4.22,16.4.12.41.23.82.38,1.23C197.53,410.92,197.78,411.1,200.09,411Z"/><path class="cls-2" d="M134.39,286.42c0,9.7.29,19.38,1,29.05.49,6.53.21,13.07.2,19.61,0,9.34-.13,18.69,0,28,.16,9,.82,18.07,1.8,27.07.58,5.35.91,10.73,1.35,16.09,0,.5,0,1,.11,1.5.23,1.63.51,1.93,2.1,1.94,3.23,0,6.47,0,9.7,0,5.52,0,11-.13,16.55-.44,4.71-.26,3.91-.47,3.95-4.24.09-9.91.19-19.83-.15-29.74-.24-7-.68-13.91-1.09-20.86a323,323,0,0,1-.75-33.37c.22-5,.65-10,.86-15.05.4-9.69.92-19.38.47-29.08-.1-2.09,0-4.16,0-6.25s-.23-2.17-2-2.36c-6.69-.72-13.4-1.3-20-2.91a45,45,0,0,1-11.7-4.59l-.72-.39c-1.14-.54-1.34-.42-1.43,1-.11,1.86-.26,3.73-.27,5.59C134.37,273.49,134.39,280,134.39,286.42Z"/><path class="cls-3" d="M208,155.37c-.07-8.55-.81-17.09-.57-25.64.18-6.24.61-12.48.4-18.74a52.32,52.32,0,0,0-1.54-12.77,12.89,12.89,0,0,0-6.48-8.37A33,33,0,0,1,196,87.51a1.7,1.7,0,0,0-2.33,0,26.73,26.73,0,0,1-10,4.54,27.44,27.44,0,0,1-16.43-1.74,7.39,7.39,0,0,1-2.86-2,6.57,6.57,0,0,0-3.83-2.2c-9.11-1.71-17.5-5.51-25.64-10.07-5.9-3.3-11.72-6.77-17.59-10.13a57.6,57.6,0,0,0-11.21-5.35c-3.48-1.09-7-1.57-10.51-.16a8.68,8.68,0,0,0-2.78,1.7c-2.35,2.16-3,5.13-1.76,8.4a15.12,15.12,0,0,0,4,5.63,73,73,0,0,0,8.14,6.36c10.8,7.71,22,14.79,33.26,21.63a3.42,3.42,0,0,1,1.87,3.55c-.38,8.82-.61,17.64-1.34,26.45-.67,8.16-1.45,16.3-2.24,24.44a23.27,23.27,0,0,0-.07,3c.06,1.42.34,1.72,1.63,2a8.6,8.6,0,0,0,2.81.21,45,45,0,0,0,6-.69,6.37,6.37,0,0,0,4.07-2.93,20.51,20.51,0,0,0,2.21-5.29c1.86-6.33,2.79-12.86,3.94-19.35,1.58-8.9,2.73-17.85,3.73-26.84.42-3.7.24-3,3.09-2.69,8.43.88,16.85,2,25.31,2.51,2,.13,1.78.49,1.86,2,.42,7.89.6,15.79.87,23.68s.4,15.8,1.18,23.66a22.39,22.39,0,0,0,1.09,5.25,4.76,4.76,0,0,0,4.17,3.51,77.42,77.42,0,0,0,8.87.39c2.17,0,2.5-.46,2.51-2.86C208,161.26,208,158.31,208,155.37Z"/><path class="cls-4" d="M131.2,238.73v14.54c0,.86.08,1.72.08,2.58a5.93,5.93,0,0,0,2,4.46,50.72,50.72,0,0,0,17.1,11.17c1.7.7,3.41,1.35,5.13,2a38.06,38.06,0,0,0,16.1,2.22,96.8,96.8,0,0,0,22-3.91A80.13,80.13,0,0,0,213,262.08a35,35,0,0,0,7.27-6.81,4.9,4.9,0,0,0,1.12-4.12c-1.39-11-3.67-21.76-5.6-32.62-2.12-11.85-4.53-23.63-6.44-35.52-.72-4.47-1-9-1.36-13.48-.08-.93-.16-1.87-.32-2.78-.32-1.84-.34-1.84-2-1.87l-8.68-.15a5.37,5.37,0,0,1-1.2-.12,3.2,3.2,0,0,1-2.8-3.39c-.2-4.38-.45-8.75-.85-13.1-1.23-13.7-.36-27.43-.67-41.14a6.67,6.67,0,0,1,.47-2.28c1.2-3.66,2.41-7.31,3.6-11a15.56,15.56,0,0,0,.82-4.64,8.47,8.47,0,0,0-.21-2.13,1,1,0,0,0-1.23-.81,1,1,0,0,0-.7,1.15c.42,3.51-.92,6.63-1.91,9.82-.83,2.66-1.77,5.27-2.55,7.94a1.67,1.67,0,0,1-2.09,1.41c-4.15-.44-8.31-.77-12.46-1.29-3.68-.46-7.36-.75-11.06-.86-1.21,0-2.42-.17-3.63-.19-.88,0-1.22-.37-1.05-1.31.91-5,2.21-9.93,5-14.19.27-.41.58-.8.82-1.23a1,1,0,0,0-.18-1.34.87.87,0,0,0-1.27.21,17.71,17.71,0,0,0-2,2.94,34.84,34.84,0,0,0-4,11.22c-1.35,7.91-2.83,15.8-3.65,23.79a251.4,251.4,0,0,1-5.32,32.2,21.88,21.88,0,0,1-1.45,4.24,3.89,3.89,0,0,1-3.51,2.46,16.63,16.63,0,0,1-4.23-.23,30.56,30.56,0,0,0-3.82-.2c-.89-.06-1.16.4-1.22,1.26-.17,2.29-.44,4.58-.58,6.87-.66,10.89-1.06,21.8-1.41,32.71-.21,6.39-.68,12.77-.94,19.15C131.44,228.12,131.34,233.58,131.2,238.73Z"/><path class="cls-5" d="M138.51,224.89c6.91-.07,13.82-.11,20.74,0,7.91.15,15.85.23,23.76-.13.67,0,1.35-.07,2-.15,2.63-.31,3.35-.73,3.6-2a14,14,0,0,0-.94-9.28c-.56-1.13-1.82-1.68-4.12-1.84s-4.7-.18-7.06-.19c-9.11,0-18.21.27-27.31.41-7.84.13-15.68-.05-23.52-.11-10.55-.07-21.08.09-31.62.23-.42,0-.85,0-1.26,0-2.51.18-2.92.44-3,1.69-.24,3.13.61,6.22,1.19,9.32.23,1.22,1.16,1.68,3.56,1.92a30,30,0,0,0,3,.19c12.48,0,25,.12,37.45,0C136.15,225,137.33,224.92,138.51,224.89Z"/><path class="cls-6" d="M207.25,170.3a1.85,1.85,0,0,1-.49,0c-7.06-2.41-14.34-3.88-21.53-5.74a82.63,82.63,0,0,1-10.77-3.63c-.44-.18-.88-.34-1.33-.49-.87-.31-1.34,0-1.65,1-1.69,5.38-3.43,10.73-5.15,16.1A14.08,14.08,0,0,0,166,179a1.9,1.9,0,0,0,.92,2.18,6.35,6.35,0,0,0,1.27.65c6.83,2.49,13.22,6.06,19.74,9.3,5,2.45,10,4.76,15.37,5.83a31.31,31.31,0,0,0,15.2-.54c6.78-2,11.38-6.52,13.66-13.7a56.63,56.63,0,0,0,2.58-18.44A261.32,261.32,0,0,0,231.32,127a90,90,0,0,0-3.6-15,42.59,42.59,0,0,0-3.13-7,23.89,23.89,0,0,0-14.4-11.71c-1.69-.49-3.39-.92-5.1-1.33s-2.17,0-1.85,1.83c.45,2.61,1,5.2,1.49,7.81a73.8,73.8,0,0,1,1.15,10.91c.21,6.53.37,13.06.1,19.6-.32,7.55.2,15.08.61,22.61.25,4.52.52,9,.75,13.55A4.39,4.39,0,0,1,207.25,170.3Z"/><path class="cls-6" d="M85.63,71.55a35.3,35.3,0,0,0,2.52,10.28,67.91,67.91,0,0,0,6.2,12.31c4.13,6.56,8.41,13,12.9,19.3.49.68,1,1.35,1.51,2,1.9,2.47,2,2.49,4.67,1s5.48-3.37,8.15-5.19c1.13-.77,2.28-1.52,3.37-2.36,1.35-1,1.41-1.52.59-3.06-1.8-3.37-3.54-6.77-5.42-10.09C115.76,88,112,80,107.76,72.23a42.77,42.77,0,0,0-5-7.31,13,13,0,0,0-6.48-4.15,7.37,7.37,0,0,0-8.43,3A13,13,0,0,0,85.63,71.55Z"/><path class="cls-7" d="M187.16,67.5l-20.1,3.63L165.3,86.88s1.44,10.58,11.36,10.33c9.18-.24,17.16-12.44,17.16-12.44Z"/><path class="cls-8" d="M183.53,78.23c-4.17,1.23-8,2.23-12.43,2a.41.41,0,0,0-.21.78c3.94,1.63,10,.83,13.07-2.22C184.24,78.48,183.82,78.14,183.53,78.23Z"/><path class="cls-7" d="M200.31,46.48l-.3,0c.27-11.43-4.56-22.29-15.65-26.57-8.63-3.33-26.26-.18-31,9.91-3.53,7.52-5.24,19.73-2.74,30.44,3.54,15.16,22.92,27.76,38.14,13A37,37,0,0,0,197.67,59a2.76,2.76,0,0,0,.64,0,7.09,7.09,0,0,0,6.26-5.33C205.32,50.67,203.62,47,200.31,46.48Z"/><path class="cls-9" d="M178.75,57.3c-4.21-.2-4.54,6.22-.32,6.42S183,57.5,178.75,57.3Z"/><path class="cls-9" d="M156.87,57.12c-4.19.43-3.49,6.83.7,6.39S161.07,56.69,156.87,57.12Z"/><path class="cls-10" d="M159.49,51.61a13.1,13.1,0,0,0-2.8-.37,13.31,13.31,0,0,0-3.28.85c-1.38.5-.55,2.51.83,2.07a17.84,17.84,0,0,1,2.7-.6,14.11,14.11,0,0,0,2.65-1A.48.48,0,0,0,159.49,51.61Z"/><path class="cls-10" d="M182.88,53.12c-1.36-1.68-3.89-1.5-5.85-1.53a1,1,0,0,0-.11,2.08c1.86.15,4,.67,5.77,0A.37.37,0,0,0,182.88,53.12Z"/><path class="cls-11" d="M163,69.73l14.48-1.9s1.06,6.73-5.68,7.26A8.52,8.52,0,0,1,163,69.73Z"/><path class="cls-8" d="M164.52,61.94c1.62-1.85,1.88-4.14,2.77-6.28.4-1,1.88-.71,1.87.18.67,2.47-1,5.23-2.23,7.29-.44.72-1,.39.14.55a3.89,3.89,0,0,1,2,1.53,1.08,1.08,0,0,1-.18,1.35c-.82.7-1.26.14-2-.3s-2.51-.49-3-1.52S163.76,62.8,164.52,61.94Z"/><path class="cls-10" d="M147.27,35.05c.31-1.24.55-3,1-4.81A3.7,3.7,0,0,1,147.1,26a7.43,7.43,0,0,1,2.14-3c2.56-3.89,9.1-7.11,12.06-8.34a29.35,29.35,0,0,1,14.52-2.09c3.27.5,5,1.55,6.13,3.38,5.42-2,13.5,2.15,16.91,5.82a16.38,16.38,0,0,1,4.39,10.33c.14,2.8.34,6.73-1.13,9.46-.42,3.5-2.54,6.16-7,6.79a2.2,2.2,0,0,1-1.26-.22c-3.42.06-5.58-4-5.77-7.9-.76.53-1.42,1-1.81,1.23-3.69,2.5-9.37,3.55-13.5,1.5a3.69,3.69,0,0,1-2.34-3.59c-2.74,2-5.86,3.75-9.39,3.19a4.31,4.31,0,0,1-3.85-3.76c-2.1,4.35-5.8,8.57-9.43,6.5C144.66,43.48,146.65,37.52,147.27,35.05Z"/><path class="cls-12" d="M265.36,223c4.93-.12,9.85-.32,14.8,0h.24c4.24-3.28,6.7-9.13,6.86-14.23v-.27c.08-4.81-2.87-9.85-4.86-14.18-1-2.18-1.84-5.45-2.87-8.38a66.34,66.34,0,0,1-13.72.28,34.31,34.31,0,0,1-3.06,10.37c-3.18,6.67-4.91,12.07-2.31,19.39A15.31,15.31,0,0,0,265.36,223Z"/><path class="cls-13" d="M298.38,224.3c2.21,0,4.42,0,6.63,0,3.32,0,6.64,0,10,.06.6,0,1.4,0,2.24,0a16.28,16.28,0,0,0,7.51-13.64c0-8.33-10.49-11.89-10.43-19.24a1.31,1.31,0,0,0-.14-.81,1.28,1.28,0,0,0-1.1-.34l-11.55.16a16.51,16.51,0,0,1-5.35,8.91,14.35,14.35,0,0,0-5.27,11.32A16.27,16.27,0,0,0,298.38,224.3Z"/><polyline class="cls-14" points="147.2 246.06 339.28 246.06 339.28 227.32 147.2 227.32"/><polygon class="cls-15" points="342.39 230.58 339.57 434.11 336.85 434.11 331.52 231.39 342.39 230.58"/><polyline class="cls-16" points="147.2 223.5 348.76 223.5 342.39 233.99 147.2 233.99"/><polyline class="cls-14" points="252.8 246.06 60.72 246.06 60.72 227.32 252.8 227.32"/><polygon class="cls-15" points="57.61 230.58 60.43 434.11 63.15 434.11 68.48 231.39 57.61 230.58"/><polyline class="cls-16" points="252.8 223.5 51.23 223.5 57.61 233.99 252.8 233.99"/><path class="cls-17" d="M140.2,130.66c0,2.13-9,3.86-20,3.86s-20-1.73-20-3.86,9-3.85,20-3.85S140.2,128.53,140.2,130.66Z"/><path class="cls-18" d="M137.08,147.37c-1.64-1.81,1.24-5.44,3.71-8.15s-.82-9.06-.82-9.06h-.28c.31.23.48.46.48.69,0,1.75-8.94,3.17-20,3.17s-20-1.42-20-3.17c0-.23.17-.46.48-.69h-.27s-3.29,6.34-.82,9.06,5.35,6.34,3.7,8.15-17.7,14.48-17.7,33c0,16.7,9,28.26,18.29,30.42,1.93,1.25,8.48,2.18,16.29,2.18s14.35-.93,16.28-2.18c9.3-2.16,18.29-13.72,18.29-30.42C154.78,161.85,138.73,149.18,137.08,147.37Z"/><path class="cls-19" d="M157.59,158.33a11.14,11.14,0,0,1-3.66-.12c-2.66-.44-5.3-1-8-1.43a11.79,11.79,0,0,0-3.4-.31c-.4,0-.82.12-1,.62a1.14,1.14,0,0,0,.45,1.31,11,11,0,0,0,3.07,1.6c1.73.61,3.47,1.16,5.2,1.75a2.4,2.4,0,0,1,1.5.85,6.5,6.5,0,0,1-2.81.2c-2.82-.19-5.64-.44-8.46-.65a7.4,7.4,0,0,0-2.61.14,1,1,0,0,0-.76.88,1,1,0,0,0,.46.9,7.56,7.56,0,0,0,2.23,1,68.15,68.15,0,0,0,7.86,1.9,5.42,5.42,0,0,1,2.17.85c-1.39.1-2.78.26-4.17.31-1.61.06-3.23,0-4.84.05a5.08,5.08,0,0,0-1.78.29,1,1,0,0,0-.2,1.83,5.7,5.7,0,0,0,2.46.91,42.83,42.83,0,0,1,5.4,1.32L144,173c-.86.16-1.72.32-2.57.54a1.13,1.13,0,0,0-.94,1,1.09,1.09,0,0,0,.81,1.1,9.66,9.66,0,0,0,1.55.43,26.3,26.3,0,0,0,5.24.36,52,52,0,0,1,17.54,2.32c1.88.58,2,.51,2.71-1.39,1.51-4,3-8,4.47-12,.63-1.77.49-2-1.12-2.77a39.1,39.1,0,0,1-7.35-4.88,63.93,63.93,0,0,0-6.73-4.76,6.09,6.09,0,0,0-2.43-1c-1.31-.13-1.89.78-1.28,2a9.81,9.81,0,0,0,1.78,2.32C156.27,156.88,156.81,157.48,157.59,158.33Z"/><path class="cls-19" d="M120.47,124.63a18.62,18.62,0,0,1,3.21,5c.64,1.18,1.26,2.38,2,3.51.42.69.9,1.72,1.84,1.24s.52-1.54.35-2.33c-.29-1.33-.77-2.6-1.1-3.91-.15-.6-.64-1.14-.3-1.94a36.59,36.59,0,0,1,2.4,4.25c.62,1,1.22,2.06,1.86,3.07.35.53.8,1.12,1.48.85.84-.33.63-1.21.5-1.87a26.24,26.24,0,0,0-2.08-6.27c-.57-1.18-1.21-2.33-1.71-3.56a5.44,5.44,0,0,1,1.73,2c1,1.51,2,3,3,4.56a17.47,17.47,0,0,0,1.3,1.65c.36.41.79.89,1.39.58s.58-1.11.39-1.71a35.06,35.06,0,0,0-3.9-8.47c-.85-1.29-1.73-2.55-2.76-4a3.16,3.16,0,0,1,1.61.61,20.74,20.74,0,0,0,2,1c.58.22,1.24.3,1.6-.42s-.1-1.11-.45-1.54a39.6,39.6,0,0,0-5.18-5.1,26.35,26.35,0,0,1-3.87-3.75c-1.2-1.53-1.42-1.51-3.09-.63a34.37,34.37,0,0,0-5,3.2q-3.12,2.37-6.22,4.79c-1.07.84-1.12,1.14-.38,2.26a7.66,7.66,0,0,0,.63.84,33.38,33.38,0,0,1,5.89,10.21c.39,1.07.86,2.11,1.34,3.14a9.87,9.87,0,0,0,1,1.64c.84,1.14,1.72,1.54,2.38,1.08.89-.64.74-1.58.55-2.53a35.81,35.81,0,0,0-1.57-5.1C121,126.08,120.74,125.36,120.47,124.63Z"/></svg>