<svg id="圖層_1" data-name="圖層 1" xmlns="http://www.w3.org/2000/svg" viewBox="0 0 400 440"><defs><style>.cls-1{fill:#5a483d;}.cls-2{fill:#827873;}.cls-3{fill:#f6c9bd;}.cls-4{fill:#755a4c;}.cls-5{fill:#3ca894;}.cls-6{fill:#367e77;}.cls-7{fill:#c16532;}.cls-8{fill:#914a27;}.cls-11,.cls-9{fill:#fff;}.cls-9{opacity:0.21;}.cls-10{opacity:0.22;}.cls-12{fill:#38302a;}.cls-13{fill:#f4d1c5;}.cls-14{fill:#f0bfb1;}.cls-15{fill:#f2a897;}.cls-16{fill:#3f517a;}.cls-17{fill:#e49d88;}.cls-18,.cls-24{fill:none;}.cls-19{fill:#a29882;}.cls-20{fill:#909d9b;}.cls-21{fill:#807b7a;}.cls-22{fill:#a18d88;}.cls-23{fill:#bab0a8;}.cls-24{stroke:#fff;stroke-miterlimit:10;opacity:0.6;}.cls-25{fill:#904b27;}.cls-26{fill:#a26c3e;}</style></defs><path class="cls-1" d="M153.34,213.14a26.26,26.26,0,0,0-1.91-4.34c-5.63-10.17-16.65-14.29-16.65-14.29a12.62,12.62,0,0,1-.22-4.35,72.71,72.71,0,0,1,1.37-8.55c.54-2.53,1.18-5.19,1.84-7.76,1-3.8,2-7.44,2.85-10.27H101c.83,2.79,1.84,6.36,2.81,10.09.65,2.54,1.29,5.16,1.82,7.66a75.42,75.42,0,0,1,1.39,8.41,13.65,13.65,0,0,1-.18,4.77S95.65,198.68,90.05,209a24.83,24.83,0,0,0-1.94,4.61,28.69,28.69,0,0,0-.18,15.73,42.16,42.16,0,0,0,1.38,4.5c2.26,6.13,6.26,13.08,12.67,20.94l7.56,9.76-.68,4.25-1,6.3a82.77,82.77,0,0,0,25.82-.15l-.94-6-.7-4.42,7.56-9.76c6.42-7.88,10.43-14.86,12.68-21a41.83,41.83,0,0,0,1.51-5.05A28.41,28.41,0,0,0,153.34,213.14Z"/><path class="cls-2" d="M85.52,224a22.75,22.75,0,0,0-1.7-3.88c-5-9.08-14.86-12.76-14.86-12.76a11.27,11.27,0,0,1-.2-3.88A64.8,64.8,0,0,1,70,195.86c.48-2.26,1-4.63,1.64-6.93.88-3.39,1.8-6.63,2.55-9.16H38.76c.74,2.49,1.65,5.67,2.51,9,.58,2.26,1.15,4.6,1.62,6.83a63.6,63.6,0,0,1,1.24,7.5,11.84,11.84,0,0,1-.16,4.26S34,211.1,29,220.27a22.26,22.26,0,0,0-1.74,4.11,25.52,25.52,0,0,0-.16,14,35.11,35.11,0,0,0,1.23,4c2,5.47,5.59,11.68,11.31,18.69l6.75,8.72-.61,3.79-.89,5.62a74,74,0,0,0,23-.13l-.84-5.34-.62-3.94,6.75-8.72c5.73-7,9.31-13.25,11.32-18.73a35.79,35.79,0,0,0,1.34-4.5A25.32,25.32,0,0,0,85.52,224Z"/><path class="cls-1" d="M283.41,225.71l-.46-.5c-.91-1-1.88-1.92-2.84-2.94-3.58-3.81-7-8.2-6.37-13.75,0-.35.11-1,.21-1.71q0-.37.12-.78a2,2,0,0,0-2-2.4H257.34a2,2,0,0,0-2,2.4c.07.44.13.86.18,1.23.07.54.11,1,.14,1.26.63,5.47-2.68,9.81-6.21,13.58-1,1.08-2,2.11-3,3.11l-.28.3A30,30,0,0,0,238,244.92a32.13,32.13,0,0,0,.18,5.18,37.51,37.51,0,0,0,4.41,13.62c.77,1.4,1.6,2.75,2.47,4.07,1.08,1.61,2.22,3.15,3.43,4.65,1.89,2.37,3.91,4.63,6,6.82,1.38,1.45,2.62,3.32,4,5a2,2,0,0,0,1.51.72h9.73a2,2,0,0,0,1.56-.79c1.23-1.6,2.37-3.41,3.76-4.89,1.75-1.86,3.47-3.77,5.11-5.75,1.23-1.49,2.41-3,3.52-4.58a53.37,53.37,0,0,0,3.24-5.21,38,38,0,0,0,4.19-12,33.38,33.38,0,0,0,.44-5.89A30,30,0,0,0,283.41,225.71Z"/><path class="cls-2" d="M363.34,215.28l-.6-.64c-1.17-1.22-2.42-2.48-3.66-3.79-4.61-4.91-9-10.56-8.2-17.72.05-.45.14-1.24.27-2.2,0-.31.09-.65.15-1a2.64,2.64,0,0,0-2.53-3.1h-19a2.64,2.64,0,0,0-2.53,3.1c.09.57.17,1.11.22,1.58.09.7.15,1.26.19,1.62.81,7.05-3.46,12.64-8,17.5-1.3,1.39-2.62,2.72-3.86,4-.12.13-.24.25-.35.38a38.69,38.69,0,0,0-10.62,25,42.47,42.47,0,0,0,.23,6.66,48.19,48.19,0,0,0,5.69,17.55c1,1.81,2,3.55,3.18,5.24,1.38,2.07,2.86,4.07,4.42,6,2.43,3,5,5.95,7.69,8.77,1.77,1.88,3.37,4.29,5.15,6.4a2.54,2.54,0,0,0,1.94.92h12.54a2.52,2.52,0,0,0,2-1c1.58-2.06,3-4.39,4.83-6.3,2.26-2.4,4.49-4.85,6.6-7.41,1.58-1.91,3.09-3.87,4.52-5.9a69.84,69.84,0,0,0,4.19-6.71,49,49,0,0,0,5.39-15.44,43.18,43.18,0,0,0,.56-7.59A38.65,38.65,0,0,0,363.34,215.28Z"/><path class="cls-3" d="M244.42,295.2s-2.74,21.17-.35,40.76,2,38.39,2.75,42.08,1,7.16,6.74,11,11.84,4.38,16.32,2.6c2.23-.89-8.55-11.13-10.84-14.37s6.65-56.43,8.88-78.09S250.1,274.13,244.42,295.2Z"/><path class="cls-4" d="M243.18,246c-15.15-3.45-37.27,16.64-32,26.62,4.18,7.83,29.29,23.3,29.29,23.3s-5.4,57.11.89,63.61,22.39,6.08,25.31,2.58,13.07-59,12.71-71.91S257.83,249.32,243.18,246Z"/><path class="cls-3" d="M156.73,295.2s2.74,21.17.35,40.76-2,38.39-2.75,42.08-1,7.16-6.75,11-11.83,4.38-16.31,2.6c-2.23-.89,8.55-11.13,10.84-14.37s-6.65-56.43-8.88-78.09S151.05,274.13,156.73,295.2Z"/><path class="cls-4" d="M158,246c15.15-3.45,37.27,16.64,31.95,26.62-4.18,7.83-29.29,23.3-29.29,23.3s5.4,57.11-.89,63.61-22.39,6.08-25.31,2.58-13.07-59-12.71-71.91S143.32,249.32,158,246Z"/><path class="cls-2" d="M156.83,385.86a6.29,6.29,0,0,1-3,2.59,21.15,21.15,0,0,1-4,1.39,183.69,183.69,0,0,0-18.2,5.87,45.75,45.75,0,0,1-7.78,2.31,8,8,0,0,1-3.45.1,2.17,2.17,0,0,1-1.41-3.55,7.73,7.73,0,0,1,2.54-2.32c2-1.26,4.09-2.46,6.11-3.7,1.1-.68,2.19-1.37,3.24-2.12a10.33,10.33,0,0,0,4.39-5.92c.54-2.14,1.91-3,4-3.17,5-.49,10-.82,15-1.08,2-.1,2.38.24,2.71,2.17a31,31,0,0,1,.41,4.81A4.46,4.46,0,0,1,156.83,385.86Z"/><path class="cls-2" d="M251.73,377.5c-2.13,0-4.25,0-6.38,0-1.54,0-1.78.19-2,1.69a33.28,33.28,0,0,0-.78,6.12c0,3,1.19,4.64,4,5.65a28.67,28.67,0,0,0,7,1.47c6.49.6,12.85,1.95,19.25,3.06a37.24,37.24,0,0,0,5.75.66,8.29,8.29,0,0,0,1.93-.13c1.83-.39,2.29-1.94,1-3.28a10.93,10.93,0,0,0-2.33-1.71,48,48,0,0,0-5.7-2.84,29.43,29.43,0,0,1-11.7-9.22,3.38,3.38,0,0,0-2.85-1.33c-2.38-.06-4.76,0-7.14,0Z"/><path class="cls-5" d="M280.61,164.92a123.74,123.74,0,0,0-18.54-17.78c-1.05-.82-2.27.85-1.22,1.66A120.84,120.84,0,0,1,307.2,254.26c-.11,1.32,1.94,1.56,2,.24A123.71,123.71,0,0,0,280.61,164.92Z"/><path class="cls-5" d="M263.91,144.49a12.8,12.8,0,0,0-8.61-4.14,5.41,5.41,0,0,0-2.23.29c-2,.81-2.82,3.45-2.15,5.52a9,9,0,0,0,4.31,4.68,18.23,18.23,0,0,0,11,2.32c2.33-.28,1.47-1.87.79-3.61A15.8,15.8,0,0,0,263.91,144.49Z"/><path class="cls-5" d="M279.47,157.89a30.52,30.52,0,0,0,1.22-9.74,10.07,10.07,0,0,0-.69-3.69,4.35,4.35,0,0,0-2.64-2.52c-2-.58-4.13.85-5,2.74a10.14,10.14,0,0,0-.27,6.1,30.49,30.49,0,0,0,3.11,8.59c.47.88,1.17,3,2.37,2.33C278.64,161.13,279.16,158.92,279.47,157.89Z"/><path class="cls-5" d="M272.94,164.36a30.32,30.32,0,0,1-9.29,3.16,10.07,10.07,0,0,1-3.75.08,4.37,4.37,0,0,1-3-2.08c-1-1.82,0-4.22,1.68-5.42a10.18,10.18,0,0,1,5.92-1.5,30.79,30.79,0,0,1,9,1.3c1,.29,3.15.55,2.76,1.86C276,162.89,273.89,163.85,272.94,164.36Z"/><path class="cls-5" d="M279.56,172.1a30.31,30.31,0,0,1-9.3,3.17,10.07,10.07,0,0,1-3.75.07,4.38,4.38,0,0,1-3-2.07c-1-1.83,0-4.22,1.68-5.43a10.25,10.25,0,0,1,5.92-1.49,30.48,30.48,0,0,1,9,1.3c1,.29,3.15.55,2.75,1.86C282.56,170.63,280.5,171.59,279.56,172.1Z"/><path class="cls-5" d="M285.67,182a30.34,30.34,0,0,1-9.29,3.17,10.07,10.07,0,0,1-3.75.07,4.38,4.38,0,0,1-3-2.07c-1-1.83,0-4.22,1.68-5.43a10.16,10.16,0,0,1,5.91-1.49,30.16,30.16,0,0,1,9.05,1.3c1,.29,3.15.55,2.76,1.85C288.68,180.54,286.62,181.5,285.67,182Z"/><path class="cls-5" d="M292.72,192.61a30.25,30.25,0,0,1-9.29,3.17,10.29,10.29,0,0,1-3.75.07,4.38,4.38,0,0,1-3-2.07c-1-1.83,0-4.22,1.68-5.43a10.1,10.1,0,0,1,5.92-1.49,30.16,30.16,0,0,1,9.05,1.3c.95.29,3.15.55,2.75,1.85C295.73,191.14,293.67,192.1,292.72,192.61Z"/><path class="cls-5" d="M298.13,204.72a30,30,0,0,1-9.75,1.16,10,10,0,0,1-3.68-.7,4.44,4.44,0,0,1-2.52-2.66c-.56-2,.89-4.13,2.78-5a10.21,10.21,0,0,1,6.1-.23,30.79,30.79,0,0,1,8.57,3.16c.88.48,3,1.2,2.31,2.39C301.37,203.91,299.16,204.43,298.13,204.72Z"/><path class="cls-5" d="M300.76,216.42a30.29,30.29,0,0,1-9.75,1.16,10,10,0,0,1-3.68-.71,4.35,4.35,0,0,1-2.51-2.65c-.57-2,.88-4.13,2.77-5a10.21,10.21,0,0,1,6.1-.23,30.24,30.24,0,0,1,8.58,3.16c.87.48,3,1.19,2.31,2.39C304,215.61,301.79,216.12,300.76,216.42Z"/><path class="cls-5" d="M286.22,167.51a30.34,30.34,0,0,0,3.81-9,10,10,0,0,0,.33-3.73,4.39,4.39,0,0,0-1.85-3.15c-1.76-1.1-4.21-.3-5.54,1.29a10.18,10.18,0,0,0-1.9,5.8,30.71,30.71,0,0,0,.66,9.12c.22,1,.33,3.18,1.66,2.88C284.54,170.41,285.64,168.42,286.22,167.51Z"/><path class="cls-5" d="M293.2,176.35a30.36,30.36,0,0,0,5.18-8.34,10.28,10.28,0,0,0,.92-3.64A4.41,4.41,0,0,0,298,161c-1.56-1.36-4.12-.95-5.67.41a10.11,10.11,0,0,0-2.79,5.43,30.28,30.28,0,0,0-.77,9.1c.07,1-.18,3.2,1.19,3.11C291.09,179,292.49,177.16,293.2,176.35Z"/><path class="cls-5" d="M300,187.83a30.27,30.27,0,0,0,5.18-8.34,10.08,10.08,0,0,0,.92-3.64,4.4,4.4,0,0,0-1.34-3.4c-1.56-1.35-4.11-.95-5.67.42a10.22,10.22,0,0,0-2.79,5.42,30.7,30.7,0,0,0-.77,9.11c.07,1-.17,3.19,1.19,3.1C297.87,190.43,299.27,188.64,300,187.83Z"/><path class="cls-5" d="M304.7,201.14a30.28,30.28,0,0,0,6-7.78,10.15,10.15,0,0,0,1.28-3.52,4.4,4.4,0,0,0-1-3.52c-1.42-1.51-4-1.36-5.68-.16a10.2,10.2,0,0,0-3.33,5.12,30.61,30.61,0,0,0-1.68,9c0,1-.49,3.16.87,3.21C302.34,203.51,303.91,201.87,304.7,201.14Z"/><path class="cls-5" d="M308.61,213.17a30.51,30.51,0,0,0,7-6.9,10.16,10.16,0,0,0,1.74-3.32,4.38,4.38,0,0,0-.51-3.62c-1.2-1.68-3.78-1.88-5.61-.92a10.16,10.16,0,0,0-4,4.62,30.57,30.57,0,0,0-2.88,8.68c-.17,1-.91,3.06.43,3.29C306,215.2,307.73,213.79,308.61,213.17Z"/><path class="cls-6" d="M320.66,158.75A125.15,125.15,0,0,0,310.87,135c-.63-1.17-2.42-.13-1.79,1a120.86,120.86,0,0,1-.16,115.2c-.63,1.16,1.15,2.21,1.78,1A123.78,123.78,0,0,0,320.66,158.75Z"/><path class="cls-6" d="M313.62,133.32a12.8,12.8,0,0,0-6.21-7.26,5.29,5.29,0,0,0-2.16-.63c-2.17-.07-4,2-4.19,4.17a9,9,0,0,0,2.06,6,18.23,18.23,0,0,0,9.15,6.57c2.24.69,2.1-1.11,2.18-3A15.75,15.75,0,0,0,313.62,133.32Z"/><path class="cls-6" d="M322.45,151.87a30.53,30.53,0,0,0,5-8.42,9.94,9.94,0,0,0,.86-3.66,4.36,4.36,0,0,0-1.39-3.37c-1.58-1.34-4.13-.89-5.66.5a10.18,10.18,0,0,0-2.7,5.47,30.39,30.39,0,0,0-.63,9.12c.08,1-.13,3.2,1.24,3.08C320.38,154.5,321.75,152.69,322.45,151.87Z"/><path class="cls-6" d="M313.87,155.14a30.46,30.46,0,0,1-9.79-.85,10.25,10.25,0,0,1-3.46-1.44,4.39,4.39,0,0,1-1.91-3.12c-.15-2.06,1.7-3.86,3.72-4.28a10.14,10.14,0,0,1,6,1,30.38,30.38,0,0,1,7.75,4.84c.76.65,2.66,1.77,1.78,2.81C317.21,155,314.94,155.06,313.87,155.14Z"/><path class="cls-6" d="M316.79,164.9a30.4,30.4,0,0,1-9.78-.85,10,10,0,0,1-3.46-1.45,4.39,4.39,0,0,1-1.92-3.11c-.15-2.06,1.71-3.86,3.73-4.29a10.31,10.31,0,0,1,6,1,30.42,30.42,0,0,1,7.75,4.85c.76.65,2.66,1.77,1.77,2.81S317.86,164.82,316.79,164.9Z"/><path class="cls-6" d="M318.39,176.44a30.38,30.38,0,0,1-9.78-.86,10.21,10.21,0,0,1-3.47-1.44,4.39,4.39,0,0,1-1.91-3.11c-.15-2.07,1.7-3.86,3.73-4.29a10.12,10.12,0,0,1,6,1,30.38,30.38,0,0,1,7.75,4.84c.76.65,2.66,1.77,1.78,2.81S319.46,176.35,318.39,176.44Z"/><path class="cls-6" d="M320.56,189a30.42,30.42,0,0,1-9.78-.85,10,10,0,0,1-3.46-1.45,4.41,4.41,0,0,1-1.92-3.11c-.15-2.06,1.71-3.86,3.73-4.29a10.23,10.23,0,0,1,6,1,30.15,30.15,0,0,1,7.75,4.85c.76.64,2.66,1.77,1.77,2.8S321.63,188.9,320.56,189Z"/><path class="cls-6" d="M320.62,202.24a30.08,30.08,0,0,1-9.39-2.87,10.22,10.22,0,0,1-3.09-2.13,4.41,4.41,0,0,1-1.22-3.45c.28-2,2.47-3.42,4.54-3.41a10.11,10.11,0,0,1,5.67,2.25A30.22,30.22,0,0,1,323.7,199c.61.79,2.24,2.29,1.15,3.12S321.68,202.39,320.62,202.24Z"/><path class="cls-6" d="M318.31,214a30.53,30.53,0,0,1-9.39-2.87,10.24,10.24,0,0,1-3.09-2.14,4.4,4.4,0,0,1-1.22-3.44c.28-2.05,2.47-3.42,4.54-3.42a10.21,10.21,0,0,1,5.67,2.25,30.44,30.44,0,0,1,6.57,6.35c.61.8,2.23,2.29,1.15,3.12S319.37,214.15,318.31,214Z"/><path class="cls-6" d="M324.74,163.39a30.68,30.68,0,0,0,7.14-6.74,10.06,10.06,0,0,0,1.81-3.28,4.35,4.35,0,0,0-.43-3.63c-1.16-1.71-3.73-2-5.58-1.05a10.15,10.15,0,0,0-4.08,4.53,30.77,30.77,0,0,0-3.08,8.61c-.19,1-1,3,.36,3.31C322,165.36,323.85,164,324.74,163.39Z"/><path class="cls-6" d="M327.56,174.3a30.39,30.39,0,0,0,8.11-5.54,10.32,10.32,0,0,0,2.3-3,4.4,4.4,0,0,0,.15-3.65c-.88-1.87-3.38-2.53-5.35-1.91a10.21,10.21,0,0,0-4.75,3.84,30.66,30.66,0,0,0-4.38,8c-.34.94-1.45,2.85-.16,3.32C324.58,175.82,326.59,174.75,327.56,174.3Z"/><path class="cls-6" d="M329.12,187.53a30.39,30.39,0,0,0,8.11-5.54,10.18,10.18,0,0,0,2.31-3,4.36,4.36,0,0,0,.14-3.65c-.88-1.87-3.38-2.53-5.35-1.91a10.19,10.19,0,0,0-4.74,3.84,30.14,30.14,0,0,0-4.38,8c-.35.93-1.45,2.85-.17,3.31C326.15,189.06,328.15,188,329.12,187.53Z"/><path class="cls-6" d="M328.07,201.62a30.36,30.36,0,0,0,8.62-4.7,10,10,0,0,0,2.6-2.71,4.38,4.38,0,0,0,.51-3.62c-.69-2-3.11-2.85-5.13-2.44a10.22,10.22,0,0,0-5.11,3.35A30.21,30.21,0,0,0,324.4,199c-.44.89-1.73,2.69-.5,3.28C325,202.83,327.06,202,328.07,201.62Z"/><path class="cls-6" d="M326.8,214.2a30.35,30.35,0,0,0,9.18-3.49,10.23,10.23,0,0,0,2.93-2.33,4.38,4.38,0,0,0,1-3.52c-.41-2-2.69-3.25-4.75-3.11a10.14,10.14,0,0,0-5.51,2.63,30.43,30.43,0,0,0-6.14,6.77c-.55.83-2.07,2.43-.93,3.19C323.55,215,325.75,214.42,326.8,214.2Z"/><path class="cls-7" d="M343.79,276.37a36.78,36.78,0,0,1-1.36,4.56c-2,5.54-5.65,11.83-11.45,18.95l-6.83,8.82.63,4,.85,5.4a75.07,75.07,0,0,1-23.31.13l.9-5.68.61-3.84L297,299.88c-5.78-7.1-9.39-13.37-11.43-18.91a37.2,37.2,0,0,1-1.25-4.06,25.93,25.93,0,0,1,.16-14.21,22.51,22.51,0,0,1,1.76-4.16c5.05-9.28,15.11-13.05,15.11-13.05a12.08,12.08,0,0,0,.16-4.3,65.51,65.51,0,0,0-1.25-7.6c-.48-2.26-1.05-4.62-1.65-6.91-.87-3.37-1.78-6.59-2.53-9.11H331.9c-.76,2.56-1.69,5.84-2.57,9.27-.6,2.32-1.18,4.72-1.67,7a64.8,64.8,0,0,0-1.23,7.72,11.28,11.28,0,0,0,.2,3.93s9.95,3.73,15,12.91a22.45,22.45,0,0,1,1.72,3.92A25.51,25.51,0,0,1,343.79,276.37Z"/><path class="cls-8" d="M343.38,262.32a5.47,5.47,0,0,0-.55.13c-3,.83-5,3.56-7.27,5.47-4.27,3.57-8.89,3.62-13.24.21-1.91-1.49-3.57-3.52-5.76-4.61-2.72-1.36-4.93.53-7,2.2-4.63,3.7-10.55,5.11-16,2.06-2.56-1.43-4.4-4.78-7.47-5.13a5.82,5.82,0,0,0-1.61.05,22.51,22.51,0,0,1,1.76-4.16,10.13,10.13,0,0,1,5.66,2.4c2.93,2.49,5.31,4.79,9.49,4.24,3.64-.48,5.72-3.38,8.71-5.11,5.91-3.4,10.16.9,14.51,4.49,2.35,1.95,4.68,2.72,7.36.83s4.43-4.45,7.2-6a11.32,11.32,0,0,1,2.49-1A22.45,22.45,0,0,1,343.38,262.32Z"/><path class="cls-8" d="M343.79,276.37a36.78,36.78,0,0,1-1.36,4.56c-2.77.95-4.69,3.52-6.87,5.35-4.27,3.57-8.89,3.61-13.24.2-1.91-1.49-3.57-3.52-5.76-4.61-2.72-1.36-4.93.53-7,2.2-4.63,3.71-10.55,5.11-16,2.07-2.56-1.44-4.4-4.78-7.47-5.14l-.52,0a37.2,37.2,0,0,1-1.25-4.06,10,10,0,0,1,7.58,2.39c2.93,2.49,5.31,4.79,9.49,4.23,3.64-.48,5.72-3.38,8.71-5.1,5.91-3.41,10.16.89,14.51,4.49,2.35,1.94,4.68,2.72,7.36.83s4.43-4.45,7.2-6A11.46,11.46,0,0,1,343.79,276.37Z"/><path class="cls-8" d="M331.9,217.57c-.76,2.56-1.69,5.84-2.57,9.27l-20.49.1c-3.41,0-6.84,0-10.23-.26-.87-3.37-1.78-6.59-2.53-9.11Z"/><path class="cls-8" d="M327.66,233.84a64.8,64.8,0,0,0-1.23,7.72l-24.92-.37a65.51,65.51,0,0,0-1.25-7.6c.52.06,1,.11,1.42.12,1.94,0,3.89.07,5.84.09Q317.59,233.93,327.66,233.84Z"/><path class="cls-8" d="M325.63,318.09a75.07,75.07,0,0,1-23.31.13l.9-5.68,5.38.08q8.08.11,16.18.07Z"/><path class="cls-9" d="M327.58,250.59c-2.35-2-5.8,1.38-3.44,3.44,11.17,9.71,6.06,25.39-1.19,35.72-1.8,2.57,2.41,5,4.2,2.46C335.64,280.11,340.38,261.73,327.58,250.59Z"/><path class="cls-5" d="M104.18,163.57a108.13,108.13,0,0,1,15.3-16c.87-.73,1.88.76,1,1.5-20.1,17-33.67,42.08-37.46,69.49a119.5,119.5,0,0,0-.78,25.15.85.85,0,1,1-1.69.22C78.41,215,86.9,185.78,104.18,163.57Z"/><path class="cls-5" d="M118,145.23a10.24,10.24,0,0,1,7.1-3.71,4.12,4.12,0,0,1,1.84.26c1.66.73,2.32,3.1,1.77,4.95a7.78,7.78,0,0,1-3.55,4.2A14.08,14.08,0,0,1,116,153c-1.93-.25-1.22-1.68-.66-3.25A14.51,14.51,0,0,1,118,145.23Z"/><path class="cls-5" d="M105.13,157.26a29.55,29.55,0,0,1-1-8.74,9.68,9.68,0,0,1,.57-3.31,3.8,3.8,0,0,1,2.18-2.27c1.63-.52,3.41.77,4.1,2.47a9.85,9.85,0,0,1,.22,5.47,29,29,0,0,1-2.56,7.71c-.4.79-1,2.67-2,2.09S105.38,158.19,105.13,157.26Z"/><path class="cls-5" d="M110.51,163.06a23.74,23.74,0,0,0,7.67,2.85,7.71,7.71,0,0,0,3.1.06,3.63,3.63,0,0,0,2.48-1.86,4.21,4.21,0,0,0-1.39-4.87,7.9,7.9,0,0,0-4.88-1.34,23.13,23.13,0,0,0-7.46,1.17c-.79.26-2.6.49-2.28,1.66S109.73,162.61,110.51,163.06Z"/><path class="cls-5" d="M105.06,170a23.81,23.81,0,0,0,7.66,2.84,7.71,7.71,0,0,0,3.1.06,3.63,3.63,0,0,0,2.48-1.86,4.21,4.21,0,0,0-1.39-4.87,7.9,7.9,0,0,0-4.88-1.34,23.41,23.41,0,0,0-7.46,1.17c-.79.26-2.6.49-2.27,1.66C102.58,168.7,104.27,169.56,105.06,170Z"/><path class="cls-5" d="M100,178.91a23.78,23.78,0,0,0,7.67,2.84,7.67,7.67,0,0,0,3.09.07,3.68,3.68,0,0,0,2.49-1.86,4.22,4.22,0,0,0-1.39-4.87,7.86,7.86,0,0,0-4.88-1.35,23.51,23.51,0,0,0-7.47,1.17c-.78.26-2.59.5-2.27,1.67C97.53,177.59,99.23,178.45,100,178.91Z"/><path class="cls-5" d="M94.19,188.42a23.55,23.55,0,0,0,7.67,2.84,7.67,7.67,0,0,0,3.09.07,3.62,3.62,0,0,0,2.49-1.86,4.22,4.22,0,0,0-1.39-4.87,7.79,7.79,0,0,0-4.88-1.34,23,23,0,0,0-7.47,1.17c-.78.25-2.59.49-2.27,1.66C91.71,187.1,93.41,188,94.19,188.42Z"/><path class="cls-5" d="M89.73,199.29a22.94,22.94,0,0,0,8,1,7.77,7.77,0,0,0,3-.63,3.86,3.86,0,0,0,2.07-2.38,4.08,4.08,0,0,0-2.29-4.45,7.73,7.73,0,0,0-5-.21,23.79,23.79,0,0,0-7.08,2.84c-.72.43-2.45,1.07-1.9,2.14S88.88,199,89.73,199.29Z"/><path class="cls-5" d="M87.56,209.79a23.15,23.15,0,0,0,8,1,7.88,7.88,0,0,0,3-.63,3.84,3.84,0,0,0,2.08-2.39,4.11,4.11,0,0,0-2.29-4.45,7.79,7.79,0,0,0-5-.2A23.92,23.92,0,0,0,86.32,206c-.72.43-2.45,1.07-1.91,2.15C84.88,209.06,86.71,209.52,87.56,209.79Z"/><path class="cls-5" d="M99.56,165.89a28.47,28.47,0,0,1-3.14-8.12,10,10,0,0,1-.28-3.35,4,4,0,0,1,1.53-2.82c1.45-1,3.48-.27,4.57,1.16a9.73,9.73,0,0,1,1.57,5.2,29.51,29.51,0,0,1-.55,8.18c-.18.88-.27,2.86-1.37,2.59S100,166.71,99.56,165.89Z"/><path class="cls-5" d="M93.8,173.83a27.31,27.31,0,0,1-4.27-7.49,9.64,9.64,0,0,1-.76-3.26A4.09,4.09,0,0,1,89.88,160c1.28-1.22,3.39-.85,4.67.37a9.46,9.46,0,0,1,2.3,4.87,29.55,29.55,0,0,1,.64,8.18c-.06.89.14,2.86-1,2.78S94.38,174.56,93.8,173.83Z"/><path class="cls-5" d="M88.21,184.13a27.84,27.84,0,0,1-4.27-7.49,9.64,9.64,0,0,1-.76-3.26,4.13,4.13,0,0,1,1.11-3c1.29-1.22,3.39-.85,4.67.37a9.39,9.39,0,0,1,2.31,4.87,29.54,29.54,0,0,1,.63,8.18c-.05.89.15,2.86-1,2.78C90,186.46,88.8,184.86,88.21,184.13Z"/><path class="cls-5" d="M84.32,196.08a27.27,27.27,0,0,1-4.95-7,9.63,9.63,0,0,1-1.05-3.17,4.14,4.14,0,0,1,.81-3.15,3.47,3.47,0,0,1,4.69-.15,9.24,9.24,0,0,1,2.74,4.6A29.69,29.69,0,0,1,88,195.29c0,.89.41,2.84-.72,2.88C86.26,198.2,85,196.73,84.32,196.08Z"/><path class="cls-5" d="M81.09,206.87a26,26,0,0,1-5.77-6.19,9.57,9.57,0,0,1-1.44-3,4.21,4.21,0,0,1,.43-3.25,3.48,3.48,0,0,1,4.62-.83,8.94,8.94,0,0,1,3.28,4.16,29,29,0,0,1,2.38,7.78c.14.88.76,2.75-.35,3C83.28,208.7,81.81,207.43,81.09,206.87Z"/><path class="cls-6" d="M71.14,158a117.5,117.5,0,0,1,8.09-21.32c.52-1.05,2-.12,1.47.93a117.69,117.69,0,0,0-8.49,80A115.24,115.24,0,0,0,80.83,241c.52,1-1,2-1.47.94A119.92,119.92,0,0,1,71.14,158Z"/><path class="cls-6" d="M77,135.21a11.31,11.31,0,0,1,5.12-6.52,4.12,4.12,0,0,1,1.79-.56c1.79-.07,3.27,1.81,3.45,3.74a8.46,8.46,0,0,1-1.69,5.41,15.15,15.15,0,0,1-7.55,5.9c-1.85.62-1.74-1-1.8-2.68A15.46,15.46,0,0,1,77,135.21Z"/><path class="cls-6" d="M69.67,151.85a27.89,27.89,0,0,1-4.16-7.55A9.74,9.74,0,0,1,64.8,141,4.06,4.06,0,0,1,66,138c1.3-1.2,3.4-.8,4.67.45a9.5,9.5,0,0,1,2.23,4.91,29.54,29.54,0,0,1,.51,8.18c-.06.9.11,2.87-1,2.77C71.38,154.21,70.24,152.59,69.67,151.85Z"/><path class="cls-6" d="M76.75,154.8a23.18,23.18,0,0,0,8.07-.77,8.06,8.06,0,0,0,2.86-1.3,4,4,0,0,0,1.58-2.79,3.94,3.94,0,0,0-3.08-3.85,7.84,7.84,0,0,0-5,.92,25,25,0,0,0-6.4,4.35c-.62.58-2.19,1.59-1.46,2.52S75.87,154.72,76.75,154.8Z"/><path class="cls-6" d="M74.34,163.55a22.94,22.94,0,0,0,8.07-.76,8,8,0,0,0,2.85-1.3,4,4,0,0,0,1.58-2.79,3.91,3.91,0,0,0-3.07-3.85,7.81,7.81,0,0,0-5,.92,24.64,24.64,0,0,0-6.39,4.34c-.63.58-2.2,1.59-1.46,2.52S73.45,163.48,74.34,163.55Z"/><path class="cls-6" d="M73,173.9a22.94,22.94,0,0,0,8.07-.76,8.06,8.06,0,0,0,2.86-1.3,4,4,0,0,0,1.58-2.79,3.93,3.93,0,0,0-3.08-3.85,7.77,7.77,0,0,0-5,.92,25,25,0,0,0-6.4,4.34c-.62.59-2.19,1.59-1.46,2.52S72.14,173.83,73,173.9Z"/><path class="cls-6" d="M71.23,185.16a22.86,22.86,0,0,0,8.06-.76,8,8,0,0,0,2.86-1.3,4,4,0,0,0,1.58-2.79,3.91,3.91,0,0,0-3.07-3.85,7.81,7.81,0,0,0-5,.92,24.48,24.48,0,0,0-6.39,4.34c-.63.58-2.2,1.59-1.47,2.52S70.34,185.09,71.23,185.16Z"/><path class="cls-6" d="M71.18,197.07a23.7,23.7,0,0,0,7.75-2.58,8.32,8.32,0,0,0,2.54-1.92,4.13,4.13,0,0,0,1-3.09,3.75,3.75,0,0,0-3.74-3.06,8,8,0,0,0-4.68,2,26.27,26.27,0,0,0-5.43,5.7c-.5.71-1.84,2.05-.94,2.8S70.3,197.2,71.18,197.07Z"/><path class="cls-6" d="M73.09,207.63a23.72,23.72,0,0,0,7.74-2.58,8.36,8.36,0,0,0,2.55-1.92,4.19,4.19,0,0,0,1-3.09A3.76,3.76,0,0,0,80.64,197,8.08,8.08,0,0,0,76,199a26,26,0,0,0-5.42,5.7c-.5.71-1.84,2.05-1,2.79S72.21,207.75,73.09,207.63Z"/><path class="cls-6" d="M67.78,162.2a26.24,26.24,0,0,1-5.89-6,9.45,9.45,0,0,1-1.5-3,4.23,4.23,0,0,1,.36-3.26,3.5,3.5,0,0,1,4.6-.94,8.94,8.94,0,0,1,3.37,4.07,29.22,29.22,0,0,1,2.54,7.73c.15.88.81,2.73-.3,3C70,164,68.51,162.73,67.78,162.2Z"/><path class="cls-6" d="M65.45,172a24.75,24.75,0,0,1-6.68-5,9,9,0,0,1-1.91-2.65,4.25,4.25,0,0,1-.12-3.28,3.55,3.55,0,0,1,4.42-1.71,8.53,8.53,0,0,1,3.91,3.45A28,28,0,0,1,68.68,170c.29.85,1.2,2.56.14,3C67.91,173.35,66.26,172.39,65.45,172Z"/><path class="cls-6" d="M64.16,183.86a25,25,0,0,1-6.68-5,9,9,0,0,1-1.91-2.65,4.25,4.25,0,0,1-.12-3.28,3.55,3.55,0,0,1,4.42-1.71,8.57,8.57,0,0,1,3.91,3.44,28.09,28.09,0,0,1,3.61,7.2c.29.84,1.2,2.56.14,3C66.62,185.23,65,184.27,64.16,183.86Z"/><path class="cls-6" d="M65,196.5a24.47,24.47,0,0,1-7.11-4.21,8.74,8.74,0,0,1-2.14-2.43,4.26,4.26,0,0,1-.43-3.25,3.63,3.63,0,0,1,4.24-2.19,8.45,8.45,0,0,1,4.21,3,27.85,27.85,0,0,1,4.26,6.77c.36.8,1.43,2.41.41,2.95S65.87,196.82,65,196.5Z"/><path class="cls-6" d="M66.08,207.8a23.85,23.85,0,0,1-7.57-3.13,8.54,8.54,0,0,1-2.42-2.1,4.17,4.17,0,0,1-.82-3.16,3.71,3.71,0,0,1,3.92-2.79A8.21,8.21,0,0,1,63.74,199a26.59,26.59,0,0,1,5.06,6.08c.45.75,1.71,2.18.77,2.86S67,208,66.08,207.8Z"/><path class="cls-8" d="M112.4,271a39.73,39.73,0,0,1-.53,7.11,46,46,0,0,1-5.05,14.49,66.33,66.33,0,0,1-3.93,6.29c-1.34,1.91-2.76,3.74-4.24,5.53-2,2.4-4.07,4.71-6.19,7-1.68,1.79-3,4-4.54,5.91a2.35,2.35,0,0,1-1.88.94H74.28a2.37,2.37,0,0,1-1.83-.86c-1.67-2-3.17-4.24-4.83-6-2.48-2.65-4.93-5.37-7.21-8.23-1.46-1.81-2.85-3.68-4.15-5.62-1-1.59-2-3.23-3-4.92A45.07,45.07,0,0,1,48,276.11a39.68,39.68,0,0,1-.22-6.25,36.28,36.28,0,0,1,10-23.46L58,246c1.16-1.2,2.4-2.45,3.62-3.76,4.26-4.55,8.26-9.8,7.51-16.41,0-.34-.1-.87-.18-1.52-.06-.45-.13-.95-.21-1.48A2.47,2.47,0,0,1,71.13,220H89a2.48,2.48,0,0,1,2.37,2.91c0,.32-.1.64-.14.94-.13.89-.21,1.64-.25,2.06-.77,6.71,3.36,12,7.69,16.62,1.16,1.23,2.33,2.41,3.43,3.55l.56.6A36.31,36.31,0,0,1,112.4,271Z"/><path class="cls-7" d="M91.34,222.87c0,.32-.1.64-.14.94a113.9,113.9,0,0,1-22.23.54c-.06-.45-.13-.95-.21-1.48A2.47,2.47,0,0,1,71.13,220H89A2.48,2.48,0,0,1,91.34,222.87Z"/><path class="cls-7" d="M102.63,246.64A60.21,60.21,0,0,1,81.45,251c-7.65.16-16.48-.93-23.76-4.57L58,246c1.16-1.2,2.4-2.45,3.62-3.76a45.17,45.17,0,0,0,5.62,1.77,53,53,0,0,0,14.89,1.57,54.49,54.49,0,0,0,16.49-3.13c1.16,1.23,2.33,2.41,3.43,3.55Z"/><path class="cls-7" d="M102.89,298.87c-1.34,1.91-2.76,3.74-4.24,5.53a120.55,120.55,0,0,1-18.32.63,189.81,189.81,0,0,1-19.62-1.87l-.3,0c-1.46-1.81-2.85-3.68-4.15-5.62,2.06.43,4.15.74,6.23,1a181.32,181.32,0,0,0,18.62,1.65A112.44,112.44,0,0,0,102.89,298.87Z"/><path class="cls-7" d="M112.4,271a39.73,39.73,0,0,1-.53,7.11q-1.38-1.83-2.78-3.64l-2.85-3.68-1.3-1.67-.22-.28c-1,1.07-2.68,2.73-2.9,3l-3.22,3.54c-1.66,1.83-3.54,4.92-5.93,5.69-2.74.87-4.41-1.92-5.94-3.78-1.93-2.35-3.86-4.71-5.8-7.05-.29-.35-1.07-.93-.86-1.22a16.13,16.13,0,0,0-1.47,1.36l-3.54,3.12L67.65,280c-1,.88-2.56.28-3.24-.69l-4.68-6.65-2.21-3.15c0-.06-.49-.6-.81-1a24.1,24.1,0,0,1-2.58,2.07c-1.06.92-2.1,1.86-3.14,2.79s-2,1.86-3,2.79a39.68,39.68,0,0,1-.22-6.25l1.6-1.45c1.94-1.73,4.54-5.06,7.23-5.28,2.87-.25,4.39,3,5.84,5.05l4.37,6.22,6.66-5.86c2-1.72,4.52-5.11,7.39-4.5,2.61.56,4.51,4.06,6.12,6l3.16,3.84a21.4,21.4,0,0,1,1.68,1.86l.4-.45,7.31-8.05c1.84-2,4.26-5.6,7.21-3.35a16.5,16.5,0,0,1,2.66,3.15C110.37,268.36,111.39,269.66,112.4,271Z"/><g class="cls-10"><path class="cls-11" d="M95.27,246.11c-2.61-3-6.81,1.46-4.22,4.4a33.36,33.36,0,0,1,4.36,37.24c-1.84,3.52,3.3,6.66,5.14,3.14A40,40,0,0,0,95.27,246.11Z"/><path class="cls-11" d="M97,296a3.13,3.13,0,0,0-1.37-1.86,2.88,2.88,0,0,0-2.29-.31l-.71.31a3,3,0,0,0-1.07,1.11l-.57.89a2.38,2.38,0,0,0-.35,1.16,2.49,2.49,0,0,0,0,1.24A3.2,3.2,0,0,0,92,300.36a2.9,2.9,0,0,0,2.3.31l.71-.31a3.19,3.19,0,0,0,1.07-1.12l.56-.89A2.36,2.36,0,0,0,97,297.2,2.48,2.48,0,0,0,97,296Z"/></g><path class="cls-12" d="M180.67,70.84c-5,4.46-7.65,11.41-8.42,18.33-1.05,9.39,1.33,19.7,8.08,26,1.82,1.7,4.14,3.13,6.53,2.78,3.31-.49,5.29-4,6.59-7.29a91.28,91.28,0,0,0,6.45-35c-.07-4.91-.42-7.88-5.51-8.88A16.47,16.47,0,0,0,180.67,70.84Z"/><path class="cls-13" d="M216.78,142.1c-1.76,6.57-3.54,13.19-6.36,19.39a222.43,222.43,0,0,1-29.2-1.23q-1.53-8.65-3-17.3a53.89,53.89,0,0,1-1-8.38,1.83,1.83,0,0,1,.47-1.54,1.9,1.9,0,0,1,1-.29c2.77-.26,5.72-.06,8.18-1.37a7.8,7.8,0,0,0,1.87-1.43,12.13,12.13,0,0,0,2.59-4.47c.6-1.7.6-4.69,2.07-5.93,1.81-1.52,5.51-.3,7.46.31.79.25,8.6,3.36,8.42,3.9a55.36,55.36,0,0,0-2.34,10.56c0,.11,0,.22,0,.32a2.49,2.49,0,0,0,1.77,3.19,51.37,51.37,0,0,0,7.41,2.82,1.34,1.34,0,0,1,.8.47A1.28,1.28,0,0,1,216.78,142.1Z"/><path class="cls-14" d="M209.18,123.76a55.36,55.36,0,0,0-2.34,10.56,18.72,18.72,0,0,1-12.49.29,9.69,9.69,0,0,1-5.11-3.5,6,6,0,0,1-.6-1.16,12.13,12.13,0,0,0,2.59-4.47c.6-1.7.6-4.69,2.07-5.93,1.81-1.52,5.51-.3,7.46.31C201.55,120.11,209.36,123.22,209.18,123.76Z"/><path class="cls-14" d="M178,106.22a8.69,8.69,0,0,1-2.74-6.16,6.25,6.25,0,0,1,3.43-5.58A6.72,6.72,0,0,1,181.2,94a5.78,5.78,0,0,1,2.84.61c2.24,1.2,3,4,3.29,6.54a12.79,12.79,0,0,1-.19,4.7C185.67,111.25,181,109.2,178,106.22Z"/><path class="cls-3" d="M222.8,112.71c-1.58,5.65-3.38,11.65-7.88,15.42-6.51,5.46-16.7,4.14-23.72-.65a18.7,18.7,0,0,1-6-6.27c-2.1-3.83-2.24-8.41-2-12.77a90.58,90.58,0,0,1,1.75-13.53c1.36-6.63,3.91-13.67,9.73-17.13,3.43-2,7.59-2.55,11.59-2.39,7.64.31,15.67,3.23,20.71,9.19C232.3,90.9,224.86,105.31,222.8,112.71Z"/><path class="cls-12" d="M217.06,100.3a6.36,6.36,0,0,0,4.06-1.1,3.2,3.2,0,0,0,.81-4.07c.88,2.16,3.3,2.93,5.42,3.44,4.06,1,8.61,1.89,12.13-.52,3.88-2.66,5-8.66,3.41-13.36s-5.1-8.29-8.87-11.12a55.33,55.33,0,0,0-16.26-8.33c-6.18-2-13.08-2.87-18.91.13-8.08,4.17-10,14.35-5,21.89C199.15,95.23,208,100.38,217.06,100.3Z"/><path class="cls-12" d="M194.59,89.75c3-1.53,6.15-3.11,8.39-5.56a4.71,4.71,0,0,0,1.48-3,4.49,4.49,0,0,0-1.47-3,17.17,17.17,0,0,0-6.86-4A18.78,18.78,0,0,0,186.34,73a11.49,11.49,0,0,0-9,9c-.56,3.42,1.07,8.79,4.64,10.52C185.77,94.38,191.28,91.4,194.59,89.75Z"/><path class="cls-12" d="M219.26,107.62a1.58,1.58,0,0,0-1.93-1.1,3.49,3.49,0,0,0-.58.29h0s0,0,0,0a2.71,2.71,0,0,0-1,1,3.05,3.05,0,0,0-.26,2.2,1.59,1.59,0,0,0,1.94,1.1l0,0a1.45,1.45,0,0,0,.6-.19A3,3,0,0,0,219.26,107.62Z"/><path class="cls-12" d="M196.85,103a2.09,2.09,0,0,0-2.37.92,1.37,1.37,0,0,0-.17.37,2.16,2.16,0,0,0-.22.39,2.23,2.23,0,0,0,.46,2.41,2,2,0,0,0,2.71.09,3,3,0,0,0,1.13-2.1A2.14,2.14,0,0,0,196.85,103Z"/><path class="cls-15" d="M206.54,108c-.36,1.51-.75,3-1.18,4.5-.24.83-.36,1.52-1.36,1.38a6.6,6.6,0,0,1-2.49-1,.63.63,0,0,0-.64,1.09c1.2.73,3.56,1.92,4.86.79.68-.59.8-1.78,1-2.6.35-1.27.68-2.55,1-3.83C207.94,107.59,206.73,107.25,206.54,108Z"/><path class="cls-15" d="M204.81,119A3.74,3.74,0,0,1,199,117.1c-.25-.77-1.46-.44-1.21.33a5,5,0,0,0,7.7,2.62C206.1,119.59,205.48,118.51,204.81,119Z"/><path class="cls-16" d="M231.1,195.24c-16.84,7.35-36,8.2-54.25,5.65-5.2-.73-10.52-1.78-14.88-4.69.28-1.56.58-3.1.91-4.64,1-4.5,2.17-8.95,3.39-13.38a158,158,0,0,0,5.62-41.49,2.07,2.07,0,0,1,.48-1.63,3.25,3.25,0,0,1,1.26-.89l.11,0a20.73,20.73,0,0,1,6.57-1.64c.85-.1,1.71-.17,2.57-.24.57-.05,1-.24,1.09.32.85,5.19,5.06,8.47,10.11,9.93a17.06,17.06,0,0,0,14.9-3.08,3.48,3.48,0,0,1,1.63-.88,3.13,3.13,0,0,1,1.31.2c1,.28,1.91.58,2.87.9q4.67,1.55,9.19,3.49c.23.1.46.2.69.32a3,3,0,0,1,1,.76,4.19,4.19,0,0,1,.65,1.86c.32,1.82.62,3.63.9,5.45a310,310,0,0,1,3.58,36.11c.09,1.9.15,3.8.22,5.7C231,194,231.07,194.6,231.1,195.24Z"/><path class="cls-16" d="M176.05,140.08q0,3.69-.24,7.37c-.26,5-.74,10-1.46,15a132.12,132.12,0,0,1-7.58,29.35c-1.3,0-2.59-.12-3.89-.24l-.23,0c-1.46-.13-2.92-.33-4.36-.56a67.15,67.15,0,0,1-16.75-5c-1-.47-2.06-1-3.07-1.48a1.62,1.62,0,0,1-.75-.61,1.65,1.65,0,0,1,0-1.25,115.37,115.37,0,0,1,15.94-32.41,55.85,55.85,0,0,1,9-10.36c1.59-1.36,5.14-4.32,8.29-5.37a5.73,5.73,0,0,1,2.71-.34,3.12,3.12,0,0,1,1.21.45C176.64,135.66,176.07,138.4,176.05,140.08Z"/><path class="cls-17" d="M260.81,252.14c-9.59.11-15.45,8.74-20.47,15.75-5.57,7.8-10.61,14.11-19.94,17.68-7.93,3-16.6,3.67-25.09,3.26-17.07-.82-31.81-6.71-47.32-13.34a85,85,0,0,0-15.05-5.18c-1.71-.38-9.87-1.51-10.08-3.91-.31-3.74,2.27-8.29,3.89-11.58,8.12-16.62,18.85-31.66,29.62-46.62a24.56,24.56,0,0,0,2.32-3.63,51.89,51.89,0,0,0,4-13c.65-3.32,1.16-6.64,1.74-9.7,1.41-7.49,2.58-15,3.64-22.58,1.14-8.24,2.18-16.51,3-24.79a5.73,5.73,0,0,1,2.71-.34,20.73,20.73,0,0,1,6.57-1.64l1,28c17.59,5.5,35.19,1.1,35.19,1.1.84-4.6-.86-16.51-1.73-22q4.67,1.55,9.19,3.49c.23.1.46.2.69.32l2.53,8.07.32,1c3,9.32,3.63,19.8,4.77,29.47,1.31,11,3.42,22.52,3.42,33.57a15.46,15.46,0,0,0,1.3,5.72,15.16,15.16,0,0,0,3,3.64c7.76,7.8,15.66,15.39,22.42,24.09A2,2,0,0,1,260.81,252.14Z"/><path class="cls-14" d="M248.75,172.21c5.45-1.69,10.94-3.72,16.72-3.92a2.19,2.19,0,0,0-.56.35,3.23,3.23,0,0,0-.69.82c-5.18.44-10.13,2.24-15.06,3.77C248.55,173.42,248.13,172.4,248.75,172.21Z"/><rect class="cls-18" x="43.02" y="18.81" width="313.95" height="313.96"/><path class="cls-16" d="M231.18,143.67a74.07,74.07,0,0,1,25.12,15.56,32.84,32.84,0,0,1-8.37,13.85,3.94,3.94,0,0,1-1.78.81,5.18,5.18,0,0,1-2.78.37,83.89,83.89,0,0,1-19-7.28,2.77,2.77,0,0,1-1.56-1.62,4.9,4.9,0,0,1-.1-1.63,91.55,91.55,0,0,1,1.61-15.52c.34-1.49-.36-4.19.72-5S230.08,143.28,231.18,143.67Z"/><path class="cls-17" d="M231.4,174c-.77-7.24-1.68-14.63-3.89-21.4l-.32-1-2.53-8.06c-.23-.12-.47-.23-.7-.33q-4.52-1.95-9.19-3.49c.87,5.45,2.58,17.36,1.74,22,0,0-17.6,4.4-35.2-1.1l-1-28a20.73,20.73,0,0,0-6.57,1.64,5.69,5.69,0,0,0-2.7.34c-.82,8.28-1.86,16.55-3,24.79q-1,7.35-2.24,14.67Z"/><path class="cls-19" d="M241.6,414.94c0,5.6-18.62,6.25-41.6,6.25s-41.6-.65-41.6-6.25S177,404.81,200,404.81,241.6,409.35,241.6,414.94Z"/><path class="cls-20" d="M193.53,294.43V406h0c.14,2,3,3.6,6.45,3.6s6.31-1.6,6.44-3.6h0V294.43Z"/><path class="cls-21" d="M200,272.09c-11.61,0-25.68,9.1-25.68,9.1l.11,18.94c1.15,6.53,12.15,11.66,25.57,11.66s24.42-5.13,25.57-11.66l.11-18.94S211.6,272.09,200,272.09Z"/><path class="cls-22" d="M200,249.84c-25.87,0-57.24,17.5-57.24,17.5l.23,9.28c2.57,12.56,27.1,22.42,57,22.42s54.44-9.86,57-22.42l.23-9.28S225.87,249.84,200,249.84Z"/><path class="cls-23" d="M257.24,267.34c0,13.59-25.63,24.6-57.24,24.6s-57.24-11-57.24-24.6,25.62-24.6,57.24-24.6S257.24,253.76,257.24,267.34Z"/><path class="cls-24" d="M244.39,268.66c.05,10.49-20.35,18.5-44.7,18.5s-44.09-8.51-44.09-19,19.74-19,44.09-19S244.33,254.16,244.39,268.66Z"/><ellipse class="cls-24" cx="199.69" cy="268.16" rx="33.1" ry="14.26"/><ellipse class="cls-24" cx="199.69" cy="268.16" rx="20.82" ry="8.97"/><path class="cls-25" d="M220.37,203.94c0,1.68-9,3-20,3s-20-1.36-20-3,9-3.05,20-3.05S220.37,202.25,220.37,203.94Z"/><path class="cls-3" d="M274.25,170.48c1.64,6.47-3.17,9.41-7.48,11.41a167.64,167.64,0,0,1-39.27,12.62,28.7,28.7,0,0,0-6.87,1.85,9,9,0,0,0-4.89,5.07c-.19.57,0,5.36-.36,5.83s-1.48.17-1.94.16c-4.46-.08-8.13-.89-12.54-.16-2-5.73-.57-12.44,3.5-16.25a25.88,25.88,0,0,1,5.12-3.43c10.32-5.78,20.9-11.59,32.65-13.29a7.49,7.49,0,0,0,2-.48,3,3,0,0,0,.58-.37,3.25,3.25,0,0,0,.71-.85c.16-.26.3-.54.44-.81,1.61-3.15,5.06-7,4.5-10.33a1.85,1.85,0,0,1,1.79-2.34l2.38.14a36.29,36.29,0,0,1,7.46.95,20.79,20.79,0,0,1,10.28,6.56A9.36,9.36,0,0,1,274.25,170.48Z"/><path class="cls-26" d="M217.22,219c-1.65-1.65,1.23-4.94,3.7-7.41s-.82-8.24-.82-8.24h-.28c.32.2.48.41.48.62,0,1.59-8.93,2.88-20,2.88s-20-1.29-20-2.88c0-.21.17-.42.48-.62h-.28s-3.29,5.77-.82,8.24,5.35,5.76,3.7,7.41-17.7,13.17-17.7,30c0,15.19,9,25.7,18.3,27.66,1.93,1.14,8.47,2,16.28,2s14.36-.84,16.28-2c9.3-2,18.3-12.47,18.3-27.66C234.92,232.12,218.86,220.59,217.22,219Z"/><path class="cls-3" d="M197.37,252.79c-.76,1.93-3.36,2.15-5.42,2a88.69,88.69,0,0,1-41.64-14.52,52.86,52.86,0,0,1-6.37-4.87,39.94,39.94,0,0,1-7.62-9.27,20.27,20.27,0,0,1-2.8-6.89c-.74-4.16.46-8.4,1.7-12.45q1.92-6.33,4-12.64c.8-2.49,1.44-5.47,2.35-8.19a67.15,67.15,0,0,0,16.75,5c-1.81,6.06-4.32,11.94-6.39,17.93-1,2.78-1.84,5.78-1.09,8.62a14.65,14.65,0,0,0,2.47,4.6,96.19,96.19,0,0,0,8.28,10.06c2.36,2.51,5.25,5,8.69,5a19.05,19.05,0,0,0,4.38-.95,20.8,20.8,0,0,1,6.14-.68,4.15,4.15,0,0,1,2.59.74,2.33,2.33,0,0,1,.39,3c-.62.91-1.95,1.77-2.92,1.26-.81,1.23.52,2.21,1.76,3a30,30,0,0,0,8.84,3.82,13.39,13.39,0,0,1,4.32,1.52A3.54,3.54,0,0,1,197.37,252.79Z"/></svg>