<svg id="圖層_1" data-name="圖層 1" xmlns="http://www.w3.org/2000/svg" viewBox="0 0 500 240"><defs><style>.cls-1{fill:#dcc8b4;}.cls-2{fill:#e5555a;}.cls-3{fill:#ff987f;}.cls-4{fill:#bf5444;}.cls-5{fill:#fff;}.cls-6{fill:#f3666b;}.cls-7{fill:#43b7a8;}.cls-8{fill:#473245;}.cls-9{fill:#42654c;}.cls-10{fill:#87b256;}.cls-11{fill:#7ca245;}.cls-12{fill:#a4b760;}</style></defs><path class="cls-1" d="M179.31,189.16a5.58,5.58,0,0,1,.08,1.73,6.56,6.56,0,0,1-4.12,4.88c-14.2,6.11-31.51,2.1-46.22.46-17.7-2-34.31-1.61-51.29-8.74-4.29-1.8-8.62-4-11.42-7.74s-3.57-9.33-.64-12.94c2.32-2.87,6.23-3.82,9.87-4.41A115.2,115.2,0,0,1,89.81,161c3.72-.13,7.5-.09,11-1.18s6.94-3.53,8-7.08c5.7-18.41-38.48-16.06-46.86-16.08-4.64,0-9.6-.43-13.26-3.28s-5.08-9-1.68-12.11c2.2-2.05,5.51-2.2,8.52-2.24l48.83-.62a222.76,222.76,0,0,1,44.16,4.31c14.15,2.68,28.54,2.42,42.93,2.25,24.75-.3,49.43-2.25,74.09-1.87l77.85,1.18c30.77.46,62.37,1.09,90.87,12.69,5.09,2.07,10.41,4.83,12.82,9.78,7.6,15.59-17.89,16.46-26,17.65l-46.82,6.88c-3.05.45-6.24.95-8.76,2.75s-4.07,5.33-2.65,8.08a9.28,9.28,0,0,0,3.66,3.33c5.42,3.31,11.24,6,16.23,9.93,6.43,5,19,20,5.89,24.52a27.26,27.26,0,0,1-8.1,1.09c-16.44.48-34,.83-50.79,0-15.42-.8-29.25,1.73-44.92-.79a13.33,13.33,0,0,1-4.79-1.44c-4.17-2.52-2.47-7.79-7.12-10.15a17.24,17.24,0,0,0-6.69-1.36L234.74,205a18.72,18.72,0,0,1-7.2-1.47c-2.21-1.1-4-3.37-3.82-5.83.39-4.65,6.65-6.85,6.68-11.6,0-5.2-6.58-7.91-10.79-9.18-4.94-1.5-10.17-1.74-15.34-1.8q-8.62-.12-17.26.36c-4.08.23-9.21,1.47-9.87,5.5C176.69,183.82,178.8,186.42,179.31,189.16Z"/><path class="cls-2" d="M344.87,153l-18.79-1.77c-4.22-.39-8.46-.78-12.68-1.19-1.49-.14-5.42-1-5.33-3.07L304.74,116a4.33,4.33,0,0,0-1.38-2.56,13.22,13.22,0,0,0-14.07-3,25.94,25.94,0,0,0-2.93,1.48c-1.2.67-3.28,1.06-4.23,1.93a3.29,3.29,0,0,0-.65,2.74c.06.81.11,1.62.17,2.43a56.17,56.17,0,0,0,.66,5.78q2.25,3.6,4.52,7.19,5.42,8.63,10.84,17.25c3.17,5,5.46,11.06,12.51,10.4l.66-.07,8.2-.77,33.83-3.22v-1.86Z"/><path class="cls-3" d="M300.34,79.42a8.36,8.36,0,0,1-7.9,5.09,12.68,12.68,0,0,1-5-1.73,6.69,6.69,0,0,1-2.24-2.37,3.68,3.68,0,0,1-.36-3,3.6,3.6,0,0,1,2.13-2.81c1.59-1,3.5-2.15,3.67-4.27a27,27,0,0,0-.06-3.6c0-1.32-1-1.91-1.72-2.81a2.69,2.69,0,0,1-.3-.37,9.31,9.31,0,0,1-1.18-2.36,8.07,8.07,0,0,1-.43-2.27,9.93,9.93,0,0,1,.77-4.3,6.9,6.9,0,0,1,1.68-2.48,5.46,5.46,0,0,1,3.68-1.39c7.35.26,7,8.58,4,13.22a7.78,7.78,0,0,1-.66.93,2.7,2.7,0,0,0-.78,2.39c.16,1.16-.14,2.26.41,3.32a9.52,9.52,0,0,0,.78,1.24c1.18,1.67,3.75,3.07,3.94,5.25A4.94,4.94,0,0,1,300.34,79.42Z"/><path class="cls-3" d="M321.58,102.9a1.09,1.09,0,0,1,.17-.13,3.19,3.19,0,0,1,1-.3c.36,0,.73-.09,1.09-.12a1.17,1.17,0,0,1,.46,0,1.29,1.29,0,0,1,.3.22c1.17,1.1.78,2.4.63,3.85-.17,1.62-.35,3.25-.4,4.88a5.48,5.48,0,0,1-.34,2.1,2.53,2.53,0,0,1-2.63,1.52,2,2,0,0,1-1.62-2.42c.23-.81,1-1.34,1.47-2,.95-1.37.44-2.89.08-4.36C321.59,105.27,320.78,103.61,321.58,102.9Z"/><path class="cls-3" d="M257.88,96.13a1.18,1.18,0,0,1,.07.2,2.85,2.85,0,0,1,0,1c0,.37-.11.73-.18,1.09a1,1,0,0,1-.17.42.82.82,0,0,1-.29.23c-1.38.83-2.52.09-3.87-.45-1.52-.61-3-1.22-4.59-1.72a5.79,5.79,0,0,1-1.93-.9,2.54,2.54,0,0,1-.73-3,2,2,0,0,1,2.77-.9c.71.45,1,1.32,1.55,2,1,1.29,2.66,1.22,4.16,1.28C255.59,95.49,257.41,95.17,257.88,96.13Z"/><path class="cls-4" d="M293,46.91l.72-.2a13.74,13.74,0,0,1,5.67-.26,20.4,20.4,0,0,1,2.88.58c.46.14,1.81,1,2.22.91a8.32,8.32,0,0,0-2.47.85,13,13,0,0,1,4.55,4.2l-3.08-.52a13,13,0,0,1,2.83,5.79A14.39,14.39,0,0,0,303,56.33a25.24,25.24,0,0,1,.6,5.75c0-.43-2.68-2.72-3.19-2.89a16.54,16.54,0,0,1,0,5.3,4.74,4.74,0,0,0-1.52-.95,1.72,1.72,0,0,0-1.63.34c-.11-.34-1-3.13-.74-3.21a2,2,0,0,0,1.24-2.8.79.79,0,0,0-.3-.37.84.84,0,0,0-.72.08,2.75,2.75,0,0,0-.88.75,8.09,8.09,0,0,0-4.7-4.54c-1.48-.53-2.5,1.38-4,.44A9.9,9.9,0,0,1,285.42,52c-.25-.36-1-2.17-1.32-2.28a8.73,8.73,0,0,0,3.29.43,7.73,7.73,0,0,1-1.75-2.94,5.21,5.21,0,0,0,4,.69A30.65,30.65,0,0,0,293,46.91Z"/><path class="cls-5" d="M291,61.07a2.81,2.81,0,0,1-2.21,2.8,2.69,2.69,0,0,1-.3-.37,9.31,9.31,0,0,1-1.18-2.36Z"/><path class="cls-6" d="M272.45,190.08q.75-9.41,1.5-18.81.49-6.35,1-12.71c.41-5.05,3.84-8,7.53-11.09a114.5,114.5,0,0,1,12.36-8.59c4.19-2.63,8.65-5.45,10.73-9.94a13.22,13.22,0,0,0-4.65-16.18c-.39-.25-.78-.49-1.19-.7a22.24,22.24,0,0,0-2.72-1.24,12.76,12.76,0,0,0-5.24-1c-1.73.13-3.35,1.49-4.72,2.44s-4.57,2.53-5.22,4q-1.11,2.44-2.24,4.89L271.39,139c-2.06,4.5-6.66,11.47-6.11,16.5l.07.67.89,8.18,2.84,33.78,2.73,0C272,195.41,272.23,192.75,272.45,190.08Z"/><path class="cls-7" d="M325,92.73c-.1-1.18.15-3.42-.44-4.48-.49-.88-2-1.46-2.9-2l-8.49-5c-6.09-3.57-12.58-9.23-20-9.23a14.59,14.59,0,0,0-13.55,9.19L269.13,97c-.24.35-5.26-.77-5.75-.84l-8-1.2-.92,4.78,12.3,2.47c1.16.23,3.24,1.08,4.42.81,1-.23,2-1.56,2.69-2.25l5.55-5.31,2.08,20.7h23.28l2.81-28,11.72,3.74c.41.13.71,5.27.78,5.76.35,2.67.69,5.36,1.05,8l4.85-.43Z"/><path class="cls-8" d="M353.06,162.54a7.25,7.25,0,0,1-3.09-4.67c-.06-.27-.11-.53-.15-.8a19.14,19.14,0,0,1,0-3.55h0l4.74.26a1.85,1.85,0,0,1,1.76,1.95c-.12,2.22-.3,5.62-.3,5.64A1.9,1.9,0,0,1,353.06,162.54Z"/><path class="cls-8" d="M263.29,199.92a7.27,7.27,0,0,1,4.43-3.43c.26-.08.52-.14.79-.21a19.81,19.81,0,0,1,3.54-.24h0l.08,4.33a2.26,2.26,0,0,1-2.23,2.32l-5.23.11A1.91,1.91,0,0,1,263.29,199.92Z"/><path class="cls-9" d="M140.24,170.06A1.05,1.05,0,0,0,141.3,169V90a1.06,1.06,0,0,0-2.12,0v79A1.05,1.05,0,0,0,140.24,170.06Z"/><path class="cls-9" d="M140.24,108.76a1.06,1.06,0,0,0,.35-2.06c-.74-.25-18-6.46-16.4-25.13a1.06,1.06,0,0,0-1-1.15,1.08,1.08,0,0,0-1.15,1c-1.76,20.34,17.62,27.25,17.82,27.32A1,1,0,0,0,140.24,108.76Z"/><path class="cls-9" d="M140.24,103.65a1,1,0,0,0,.45-.1c.59-.27,14.5-6.86,14.5-16.28a1.07,1.07,0,0,0-2.13,0c0,8.09-13.13,14.3-13.27,14.36a1.06,1.06,0,0,0-.51,1.41A1,1,0,0,0,140.24,103.65Z"/><path class="cls-10" d="M106.42,65.35a8.62,8.62,0,0,1,2.93-16.62,7.66,7.66,0,0,1,1.37.15,7.2,7.2,0,0,1,7.07-6.64,7,7,0,0,1,2.67.54c0-.18,0-.35,0-.54A10.73,10.73,0,0,1,131,31.36a10.5,10.5,0,0,1,9.44,6.08,10.52,10.52,0,0,1,9.45-6.08,10.73,10.73,0,0,1,10.57,10.88,11,11,0,0,1-.46,3A6.94,6.94,0,0,1,164,44a7.19,7.19,0,0,1,7,6.09h.12a8.49,8.49,0,0,1,8.36,8.6,8.64,8.64,0,0,1-3.43,6.91c0,.48.06,1,.06,1.43,0,.21,0,.42,0,.63a12.61,12.61,0,0,1,1.54,6,12.34,12.34,0,0,1-12.16,12.51,11.9,11.9,0,0,1-4.14-.79l-.32,0-.33,0c0,.26.08.52.08.79a9.29,9.29,0,0,1-9.15,9.41,9.16,9.16,0,0,1-8.45-5.82A11.83,11.83,0,0,1,132.78,96,12,12,0,0,1,121,85.26h0a11.85,11.85,0,0,1-6.7,2.09,12.34,12.34,0,0,1-12.16-12.51A12.59,12.59,0,0,1,106.42,65.35Z"/><path class="cls-11" d="M314.11,213.44a4.13,4.13,0,0,1-1.1-2.81,4.17,4.17,0,0,1,3.09-4,6,6,0,0,1-.77-2.88,6,6,0,0,1,9.3-5A7.76,7.76,0,0,1,337,192.93a5.83,5.83,0,0,1,11.39,1,5,5,0,0,1,8.75,3.35,5.06,5.06,0,0,1-.27,1.56l.27,0a6.71,6.71,0,0,1,6.71,6.7,5.79,5.79,0,0,1-.11,1,4.15,4.15,0,0,1,2.36,6.91Z"/><circle class="cls-11" cx="406.87" cy="75.88" r="21.18" transform="translate(-6.57 95.06) rotate(-13.22)"/><path class="cls-11" d="M406.87,50.68a11.49,11.49,0,1,0,11.48-11.49A11.48,11.48,0,0,0,406.87,50.68Z"/><path class="cls-9" d="M406.87,161.09a1.05,1.05,0,0,0,1.06-1.06V71.56a1.06,1.06,0,1,0-2.12,0V160A1.05,1.05,0,0,0,406.87,161.09Z"/><path class="cls-9" d="M406.87,110.69a1.06,1.06,0,0,0,0-2.12,20.64,20.64,0,0,1-13.62-6.27c-4.91-5.23-7.1-13.2-6.5-23.7a1.05,1.05,0,0,0-1-1.12,1,1,0,0,0-1.12,1c-.65,11.12,1.74,19.64,7.09,25.3A22.41,22.41,0,0,0,406.87,110.69Z"/><path class="cls-9" d="M410.64,104.5a16.31,16.31,0,0,0,10-3.15c4.47-3.41,6.83-9.37,7-17.69a1.07,1.07,0,0,0-1-1.09,1.06,1.06,0,0,0-1.09,1c-.16,7.64-2.24,13-6.16,16-5.24,4-12.15,2.37-12.21,2.36a1.06,1.06,0,0,0-1.29.77,1.07,1.07,0,0,0,.77,1.29A18.55,18.55,0,0,0,410.64,104.5Z"/><path class="cls-10" d="M410.23,71.56a14.21,14.21,0,1,0,14.21-14.2A14.21,14.21,0,0,0,410.23,71.56Z"/><circle class="cls-10" cx="396.8" cy="52.13" r="15.65"/><path class="cls-10" d="M373.55,71.56a12.15,12.15,0,1,0,12.14-12.14A12.15,12.15,0,0,0,373.55,71.56Z"/><path class="cls-5" d="M145.12,49.75a2.06,2.06,0,1,1,2.06,2.06A2.07,2.07,0,0,1,145.12,49.75Z"/><path class="cls-5" d="M123.48,54.7a2.06,2.06,0,1,1,2.06,2.06A2.07,2.07,0,0,1,123.48,54.7Z"/><path class="cls-5" d="M163.1,65a2.06,2.06,0,1,1,2.06,2.06A2.06,2.06,0,0,1,163.1,65Z"/><path class="cls-5" d="M140.41,77.5a2.06,2.06,0,1,1,2.06,2.06A2.07,2.07,0,0,1,140.41,77.5Z"/><path class="cls-5" d="M113.34,75.13a2.06,2.06,0,1,1,2.06,2.05A2.06,2.06,0,0,1,113.34,75.13Z"/><path class="cls-12" d="M384.4,160.78c0-.06,0-.12,0-.18a7.79,7.79,0,0,1,13.68-5.11,11,11,0,0,1,21.09.78,6.55,6.55,0,0,1,10,4.51Z"/><path class="cls-11" d="M111.6,183.32c0-.08,0-.15,0-.23a9.94,9.94,0,0,1,17.48-6.53,14,14,0,0,1,27,1,8.36,8.36,0,0,1,12.81,5.76Z"/></svg>