<svg xmlns="http://www.w3.org/2000/svg" viewBox="0 0 1920.5 908.47"><defs><style>.cls-1{fill:#dcc8b4;}</style></defs><title>資產 1</title><g id="圖層_2" data-name="圖層 2"><g id="內容"><path class="cls-1" d="M1920,270.88s-221.87-20.38-338.93.81-359.75-26.26-536.91-2.53-430.43-18.35-534.3,1.72S69,243,0,270.88V739.06l1920-46.24Z"/><path class="cls-1" d="M0,897.11s221.87,25.89,338.93-1,359.75,33.35,536.91,3.21,430.43,23.31,534.3-2.18,440.86,35.35,509.86,0V302.4L0,361.14Z"/><path class="cls-1" d="M1918.74,682.33a526.54,526.54,0,0,1-149.18,21.16c-222.19,0-402.32-133.47-402.32-298.12,0-116.13,89.67-251.22,220.46-320.8L1532,0H1920.5"/></g></g></svg>