<svg xmlns="http://www.w3.org/2000/svg" viewBox="0 0 214.23 233.61"><defs><style>.cls-1{fill:#727272;}.cls-2{fill:#46aca6;}.cls-3{fill:#ee7c7c;}.cls-4{fill:#f7bb9a;}.cls-5{fill:#fff;}.cls-6{fill:#845023;}.cls-7{fill:#e17f4e;}.cls-8{fill:#212220;}.cls-9{fill:#e4e4e4;}.cls-10{fill:#a3a3a3;}.cls-11{fill:#ea514f;}.cls-12{fill:#b39975;}.cls-13{fill:#dbac55;}.cls-14{fill:#6bbe86;}</style></defs><g id="圖層_2" data-name="圖層 2"><g id="圖層_1-2" data-name="圖層 1"><path class="cls-1" d="M151.86,211.05h4.74c.45,0,.89,0,1.34.07a1.41,1.41,0,0,1,1.39,1.13c.13.47.34.91.48,1.38a4.45,4.45,0,0,0,2.86,2.93c1.32.51,2.65,1,4,1.5.65.24,1.28.5,1.91.78a3.37,3.37,0,0,1,.74.42c.68.5,1.29,1.09,1.05,2s-1.05,1.07-1.83,1.15a17.05,17.05,0,0,1-4.83-.32c-2.47-.45-4.94-.88-7.43-1.16-2.14-.25-4.29-.09-6.44-.18a23.52,23.52,0,0,1-2.9-.28c-1.92-.35-2.7-1.37-2.54-3.33.12-1.49.25-3,.41-4.47s.5-1.68,1.86-1.69c1.74,0,3.48,0,5.22,0Z"/><path class="cls-1" d="M113.47,211.78c3.35.29,6.88.79,10.42,1.27,1,.14,1.21.33,1.15,1.33a5.05,5.05,0,0,0,2.09,4.42c1.56,1.29,3.1,2.61,4.74,3.79a5.81,5.81,0,0,1,1.7,1.72,1.93,1.93,0,0,1,.08,2.18,1.9,1.9,0,0,1-2,.78,10.68,10.68,0,0,1-2-.58c-3.73-1.46-7.5-2.83-11.1-4.62a17.78,17.78,0,0,0-4-1.32,8.88,8.88,0,0,1-2.51-.91,2.54,2.54,0,0,1-1.37-3c.27-1.4.56-2.78.86-4.17C111.67,211.85,112,211.72,113.47,211.78Z"/><path class="cls-2" d="M124.42,215.38c-1.38-.2-3.14-.46-4.91-.7-2.77-.38-5.56-.61-8.3-1.2s-2.64-.56-2.28-3.28c.7-5.39,1.37-10.78,2.06-16.16.4-3.1.84-6.19,1.23-9.28a114.63,114.63,0,0,0,.71-13.23c.07-5.8.2-11.6.53-17.39.34-6,.66-12,1.41-17.93.26-2.09.65-4.16,1-6.24.13-.78.4-.94,1.2-.7a18.82,18.82,0,0,1,2.17.8,61.06,61.06,0,0,0,16.62,4.42,14,14,0,0,0,4.48.18c.65-.12.91.17.77.83s-.33,1.16-.49,1.75c-1.47,5.66-2.42,11.41-3.35,17.18-.9,5.6-1.86,11.19-2.8,16.78-.67,4-1.11,8.11-1.55,12.18a161.43,161.43,0,0,1-3.83,21c-.76,3.11-1.59,6.2-2.54,9.25-.08.24-.14.47-.23.7C126,215.33,125.82,215.43,124.42,215.38Z"/><path class="cls-2" d="M164,145.07c0,5.47-.17,10.94-.61,16.4-.29,3.68-.13,7.37-.12,11.06,0,5.27.08,10.55,0,15.82-.1,5.1-.49,10.19-1.08,15.27-.35,3-.55,6.06-.82,9.08,0,.29,0,.57-.07.85-.13.92-.31,1.09-1.26,1.1h-5.84c-3.33,0-6.65-.07-10-.25-2.84-.15-2.36-.26-2.38-2.39-.05-5.59-.11-11.19.09-16.78.14-3.93.41-7.85.65-11.78a169.06,169.06,0,0,0,.45-18.83c-.13-2.84-.39-5.66-.51-8.5-.24-5.46-.55-10.93-.29-16.41.06-1.17,0-2.35,0-3.52s.13-1.23,1.23-1.34a95.55,95.55,0,0,0,12-1.64,27.88,27.88,0,0,0,7.05-2.59c.14-.08.29-.15.44-.22.68-.3.8-.24.85.56.07,1.06.17,2.11.17,3.16C164,137.77,164,141.42,164,145.07Z"/><path class="cls-3" d="M119.66,71.11c0-4.83.49-9.64.34-14.47-.11-3.52-.36-7-.24-10.58a27.49,27.49,0,0,1,.93-7.21,7.35,7.35,0,0,1,3.9-4.72,19.1,19.1,0,0,0,2.33-1.32,1.08,1.08,0,0,1,1.4,0,16.67,16.67,0,0,0,6,2.57,17.63,17.63,0,0,0,9.9-1,4.58,4.58,0,0,0,1.72-1.12,4.07,4.07,0,0,1,2.31-1.24,53.1,53.1,0,0,0,15.45-5.68c3.55-1.87,7.05-3.82,10.59-5.72a35.79,35.79,0,0,1,6.75-3,9.8,9.8,0,0,1,6.33-.09,5.4,5.4,0,0,1,1.68,1,4,4,0,0,1,1.06,4.74,8.65,8.65,0,0,1-2.4,3.18,45.26,45.26,0,0,1-4.9,3.59c-6.51,4.35-13.23,8.34-20,12.2a1.93,1.93,0,0,0-1.13,2c.23,5,.37,10,.81,14.93.41,4.6.88,9.19,1.35,13.79a10.7,10.7,0,0,1,0,1.7c0,.8-.2,1-1,1.14a5.65,5.65,0,0,1-1.69.12,29.24,29.24,0,0,1-3.62-.39,3.82,3.82,0,0,1-2.45-1.66,10.92,10.92,0,0,1-1.33-3A97,97,0,0,1,151.39,60c-.95-5-1.64-10.08-2.25-15.15-.24-2.09-.14-1.68-1.85-1.52-5.08.5-10.15,1.12-15.25,1.42-1.21.07-1.07.28-1.12,1.12-.26,4.45-.36,8.91-.53,13.36s-.24,8.92-.71,13.35a11.52,11.52,0,0,1-.65,3,2.81,2.81,0,0,1-2.52,2,47.7,47.7,0,0,1-5.34.23c-1.31,0-1.5-.26-1.51-1.62Z"/><path class="cls-4" d="M138.16,36.4a16.3,16.3,0,0,1-9.73-2.52,1,1,0,0,1-.53-1.1c1-7.3,2.17-14.59,3.79-21.79a17,17,0,0,1,2-5.07c1.83-3,4.4-4.81,8.05-4.79a18.75,18.75,0,0,1,6.35.86,7.48,7.48,0,0,1,5.06,6.15,19.27,19.27,0,0,1,0,5.09,5.31,5.31,0,0,0,1.34,4.5c.22.22.47.5.27.86s-.49.23-.76.26-.24,0-.37,0c-.9,0-.9,0-1,.95-.17,1.49-.43,3-.69,4.44-.39,2.24-1.34,3.4-4.12,4a3.93,3.93,0,0,1-.84.09c-.63,0-.92.23-1,.93-.08,1.5-.32,3-.4,4.48a1.65,1.65,0,0,1-1.21,1.61,17.39,17.39,0,0,1-4.26.95C139.46,36.33,138.81,36.36,138.16,36.4Z"/><path class="cls-5" d="M150,15a10.07,10.07,0,0,1-1-.19.67.67,0,0,1-.55-.64.71.71,0,0,1,.59-.73,3.62,3.62,0,0,1,1.67,0c.47.07.85.3.82.78s-.38.68-.87.75C150.4,15,150.2,15,150,15Z"/><path class="cls-6" d="M149.59,11.53a6.46,6.46,0,0,1,2.14.26.53.53,0,0,1,.4.65.48.48,0,0,1-.56.36,11.72,11.72,0,0,0-3.13-.1.5.5,0,0,1-.58-.5.53.53,0,0,1,.51-.57C148.85,11.57,149.34,11.55,149.59,11.53Z"/><path class="cls-7" d="M151.58,21.73a4.3,4.3,0,0,1-2.26-1,.53.53,0,0,1-.12-.76.52.52,0,0,1,.75-.11,6,6,0,0,0,1.87.82c.3.05.54.21.51.56S152,21.71,151.58,21.73Z"/><path class="cls-6" d="M150.19,9.5a25.16,25.16,0,0,1-3.9-.21.78.78,0,0,0-1,.68c-.24,1-.52,2-.79,3.06-.09.32-.16.64-.27.94a1.57,1.57,0,0,1-2,1.08c-1-.15-1.34-.57-1.38-1.65a4.89,4.89,0,0,0-.13-1.32c-.22-.71-.57-.85-1.15-.4A5.83,5.83,0,0,0,138,13.46c-.72,1.31-1.42,2.64-2.13,4a19.49,19.49,0,0,1-1.92,3.1,7.82,7.82,0,0,1-2,1.8,2.89,2.89,0,0,1-3.78-.38,5.23,5.23,0,0,1-1.55-3.48,13.7,13.7,0,0,1,.38-4.94,22.75,22.75,0,0,1,3.53-7.95A13.08,13.08,0,0,1,141.31,0a62.85,62.85,0,0,1,7.76.56,35.16,35.16,0,0,0,6.07,0c1.46-.11,2.91-.19,4.37-.16a5.81,5.81,0,0,1,1.8.26A2.67,2.67,0,0,1,162.78,5a7,7,0,0,1-2.42,2.17,17.67,17.67,0,0,1-6.44,2.09A23.07,23.07,0,0,1,150.19,9.5Z"/><circle class="cls-8" cx="150.24" cy="14.21" r="0.81"/><path class="cls-9" d="M165.92,118.15v8.21c0,.49,0,1,0,1.46a3.27,3.27,0,0,1-1.21,2.52,31.06,31.06,0,0,1-10.3,6.3q-1.53.59-3.09,1.11a24.36,24.36,0,0,1-9.7,1.25,62.24,62.24,0,0,1-13.28-2.2,49.45,49.45,0,0,1-11.63-5.47,20.28,20.28,0,0,1-4.38-3.84,2.65,2.65,0,0,1-.68-2.33c.84-6.19,2.21-12.28,3.38-18.4,1.27-6.69,2.73-13.34,3.87-20.05.44-2.53.59-5.07.82-7.61,0-.53.1-1,.2-1.57.19-1,.2-1,1.22-1l5.23-.09a4.37,4.37,0,0,0,.72-.06,1.86,1.86,0,0,0,1.69-1.92c.12-2.47.27-4.93.51-7.39.74-7.73.22-15.48.4-23.22a3.51,3.51,0,0,0-.28-1.29c-.72-2.06-1.45-4.12-2.17-6.19a8.38,8.38,0,0,1-.49-2.62,4,4,0,0,1,.13-1.2.57.57,0,0,1,.73-.46.55.55,0,0,1,.43.65c-.25,2,.55,3.74,1.15,5.54.49,1.5,1.06,3,1.53,4.48a1,1,0,0,0,1.26.8c2.5-.25,5-.44,7.51-.73,2.21-.26,4.43-.43,6.66-.48.73,0,1.46-.11,2.19-.12.53,0,.73-.2.63-.74a19.91,19.91,0,0,0-3-8c-.16-.23-.34-.45-.49-.7a.51.51,0,0,1,.11-.75.55.55,0,0,1,.76.12,9.65,9.65,0,0,1,1.23,1.66,18.59,18.59,0,0,1,2.4,6.33c.82,4.46,1.71,8.91,2.2,13.42a133.3,133.3,0,0,0,3.21,18.18,11.61,11.61,0,0,0,.87,2.39,2.35,2.35,0,0,0,2.12,1.39,11.37,11.37,0,0,0,2.54-.13,16.25,16.25,0,0,1,2.31-.11c.53,0,.69.22.73.71.1,1.29.26,2.58.35,3.87.39,6.15.64,12.31.85,18.47.13,3.6.41,7.2.57,10.8C165.78,112.17,165.84,115.25,165.92,118.15Z"/><path class="cls-10" d="M164.46,103.57c-3.32-.07-6.64-.1-10,0a87,87,0,0,1-11.42-.12,7.66,7.66,0,0,1-1-.14c-1.27-.3-1.61-.72-1.73-2a26.49,26.49,0,0,1,.45-9,2.12,2.12,0,0,1,2-1.8,25.67,25.67,0,0,1,3.39-.18c4.38,0,8.75.26,13.12.4,3.77.13,7.54,0,11.3-.1,5.07-.08,10.13.08,15.2.22a4,4,0,0,1,.6,0c1.21.17,1.4.43,1.45,1.65a70.63,70.63,0,0,1-.58,9.08,1.79,1.79,0,0,1-1.71,1.88,7,7,0,0,1-1.44.18c-6,0-12,.12-18,0C165.59,103.65,165,103.6,164.46,103.57Z"/><path class="cls-11" d="M120.11,79.53a1.46,1.46,0,0,0,.3,0c4.25-1.36,8.64-2.19,13-3.24a53,53,0,0,0,6.48-2.05l.8-.28c.53-.17.81,0,1,.55,1,3,2.07,6.06,3.1,9.09a8.22,8.22,0,0,1,.21.82,1.06,1.06,0,0,1-.56,1.24,4.4,4.4,0,0,1-.76.36,120,120,0,0,0-11.9,5.25,38.77,38.77,0,0,1-9.25,3.29,20.12,20.12,0,0,1-9.16-.31,11.43,11.43,0,0,1-8.23-7.73,29.88,29.88,0,0,1-1.55-10.4,138.81,138.81,0,0,1,2-21,48.75,48.75,0,0,1,2.17-8.47,23.37,23.37,0,0,1,1.89-3.94,14.25,14.25,0,0,1,8.67-6.61c1-.28,2-.51,3.07-.75s1.31,0,1.12,1c-.28,1.47-.61,2.93-.9,4.4a38.59,38.59,0,0,0-.69,6.16c-.13,3.68-.23,7.37-.06,11.06a123.5,123.5,0,0,1-.37,12.76c-.15,2.55-.31,5.1-.45,7.65A2.39,2.39,0,0,0,120.11,79.53Z"/><path class="cls-12" d="M165.65,91.84a25.25,25.25,0,0,1-5.46-.58,12.5,12.5,0,0,1-8-5.33,10.12,10.12,0,0,1-1.56-5c-.29-5.54,1.79-10.11,5.6-14l.35-.35c.65-.65.66-.66.06-1.44-1-1.28-1.91-2.61-2.78-4a8.79,8.79,0,0,1-.63-1.17c-.23-.54,0-.85.53-1a3,3,0,0,1,.6,0,139.34,139.34,0,0,0,15.43,0c1.9-.1,3.81,0,5.71,0,1.14,0,1.29.35.71,1.34-.23.39-.49.75-.75,1.11-.81,1.12-1.64,2.22-2.43,3.35s-.72.89.24,1.65c3.74,3,6.08,6.7,6.31,11.67.39,8-5,12.07-10.48,13.33A18,18,0,0,1,165.65,91.84Z"/><path class="cls-11" d="M193.37,23.8a18.86,18.86,0,0,1-1.51,5.8,37.3,37.3,0,0,1-3.74,7c-2.49,3.7-5.07,7.34-7.77,10.88-.29.39-.6.77-.91,1.14-1.15,1.4-1.18,1.41-2.81.54s-3.3-1.9-4.91-2.93c-.68-.43-1.38-.85-2-1.33-.81-.58-.85-.86-.36-1.72,1.09-1.91,2.13-3.83,3.27-5.7,2.62-4.34,4.9-8.87,7.44-13.25a24.33,24.33,0,0,1,3-4.13,7.81,7.81,0,0,1,3.9-2.34,4.61,4.61,0,0,1,5.08,1.7A6.92,6.92,0,0,1,193.37,23.8Z"/><path class="cls-4" d="M150,72.78a7.14,7.14,0,0,0,2.2-.07c1.6-.25,3.19-.54,4.79-.81a7.86,7.86,0,0,1,2-.17c.24,0,.5.07.59.35a.61.61,0,0,1-.28.74,6.35,6.35,0,0,1-1.85.9c-1,.35-2.08.66-3.13,1a1.46,1.46,0,0,0-.9.48,4.15,4.15,0,0,0,1.7.11c1.69-.11,3.39-.25,5.09-.37a5.19,5.19,0,0,1,1.57.08.54.54,0,0,1,.18,1,4.76,4.76,0,0,1-1.34.56A44.58,44.58,0,0,1,156,77.66a3.31,3.31,0,0,0-1.3.47c.84.06,1.67.15,2.51.18s1.94,0,2.92,0a3.47,3.47,0,0,1,1.07.16.56.56,0,0,1,.12,1,3.58,3.58,0,0,1-1.49.51,27,27,0,0,0-3.25.74c.55.09,1.1.17,1.65.27s1,.17,1.55.3a.65.65,0,0,1,.56.56.61.61,0,0,1-.49.62,4.89,4.89,0,0,1-.93.24,16.69,16.69,0,0,1-3.15.21,33.1,33.1,0,0,0-10.57,1.31c-1.13.33-1.2.29-1.63-.79q-1.38-3.37-2.69-6.78c-.39-1-.3-1.14.67-1.56a23.56,23.56,0,0,0,4.43-2.75A37.92,37.92,0,0,1,150,69.73a3.89,3.89,0,0,1,1.46-.56c.79-.08,1.14.44.78,1.15a5.89,5.89,0,0,1-1.08,1.31Z"/><path class="cls-4" d="M172.39,53.76a10.42,10.42,0,0,0-1.94,2.8c-.38.66-.76,1.34-1.18,2-.26.38-.55,1-1.11.7s-.32-.88-.21-1.32c.17-.75.46-1.47.66-2.21.09-.33.39-.64.18-1.09A22.07,22.07,0,0,0,167.34,57c-.37.59-.73,1.17-1.12,1.74-.21.3-.48.63-.89.48s-.38-.68-.3-1.06a14.34,14.34,0,0,1,1.25-3.54c.35-.66.73-1.31,1-2a3.34,3.34,0,0,0-1,1.11c-.62.85-1.21,1.72-1.83,2.58a11.3,11.3,0,0,1-.78.93c-.22.23-.48.5-.84.32s-.35-.62-.23-1a19,19,0,0,1,2.35-4.78c.5-.73,1-1.44,1.66-2.29a2.08,2.08,0,0,0-1,.35,10.89,10.89,0,0,1-1.21.54c-.35.13-.75.18-1-.23s.06-.63.27-.87a22.39,22.39,0,0,1,3.12-2.88,15.08,15.08,0,0,0,2.33-2.12c.72-.86.86-.85,1.86-.35a21,21,0,0,1,3,1.8q1.88,1.35,3.74,2.71c.65.47.67.64.23,1.28a4.12,4.12,0,0,1-.38.47A18.73,18.73,0,0,0,174.1,56c-.23.61-.52,1.19-.8,1.77a5,5,0,0,1-.58.93c-.5.64-1,.87-1.43.61s-.44-.9-.33-1.43A19.38,19.38,0,0,1,171.9,55C172.06,54.58,172.22,54.17,172.39,53.76Z"/><path class="cls-13" d="M90.42,109.25a2.23,2.23,0,0,0-1.32-.2l-9.37-.1a7.43,7.43,0,0,1-1.33-.08,3.12,3.12,0,0,1-2.34-3.07,3.34,3.34,0,0,1,1.9-3.33,4.7,4.7,0,0,1,1.93-.22l35.89.26,94.78.6a6.92,6.92,0,0,1,1.21,0,3.18,3.18,0,0,1,2.46,3.39,3,3,0,0,1-2.62,3.2c-.68.06-1.37,0-2.06,0l-11,0c-1.31,0-1.32,0-1.2,1.47q.63,7.4,1.28,14.79.81,9.19,1.61,18.39.93,10.71,1.87,21.41.78,9.12,1.55,18.24.91,10.49,1.84,21l1.56,18.1c.19,2.25.41,4.5.55,6.75a3.43,3.43,0,0,1-1.71,3.49c-1.58.75-3.25-.24-3.74-2.22a22,22,0,0,1-.38-3.43c-.54-6-1-12.07-1.56-18.11q-.92-10.48-1.84-21-.78-9-1.54-18-.79-9.19-1.6-18.38c-.53-6-1-12.07-1.57-18.11s-1.07-12.25-1.6-18.38c-.13-1.54-.26-3.07-.38-4.6s-.12-1.49-1.36-1.5q-7.84-.08-15.7-.13l-77-.47a4.14,4.14,0,0,1-.61,0c-.67-.1-.88.28-1,1-1,6.78-2.06,13.54-3.09,20.32l-4,26.71q-2,13.28-4,26.57-1.64,10.78-3.29,21.59-1.77,11.79-3.52,23.59a6.59,6.59,0,0,1-.48,1.78,2.72,2.72,0,0,1-2.83,1.78,3,3,0,0,1-2.36-2.56,5.6,5.6,0,0,1,0-2q2.86-18.75,5.71-37.5,2.63-17.19,5.24-34.38,2.76-18.18,5.49-36.38c.48-3.17,1-6.34,1.45-9.51C90.36,109.86,90.38,109.57,90.42,109.25Z"/><path class="cls-14" d="M25.6,131.39a6.16,6.16,0,0,0-2.5-.73,11.62,11.62,0,0,0-7.44,1.1,21.35,21.35,0,0,0-7.19,5.89A78,78,0,0,0,3,146.1c-.37.63-.75,1.25-1.16,1.86a.94.94,0,0,1-1,.5,1,1,0,0,1-.75-1,10.29,10.29,0,0,1,0-1.57,27.79,27.79,0,0,1,1.59-7.1C4.19,132.16,9,128.35,16,127.12a20.42,20.42,0,0,1,10.32.68,2.55,2.55,0,0,0,.43.07c.24-.16.12-.32.05-.45A17.9,17.9,0,0,0,20.66,121,11.34,11.34,0,0,0,12,119.68a22,22,0,0,0-5,1.93c-1.37.71-2.71,1.46-4.07,2.18-.45.24-.94.41-1.36,0s-.26-.9-.07-1.36a7.24,7.24,0,0,1,1.28-1.92,13.71,13.71,0,0,1,5-3.64,22.72,22.72,0,0,1,14.16-1.5,14.79,14.79,0,0,1,9.89,7.28c.07.13.13.3.36.36a4.25,4.25,0,0,0,.17-1.77,43.33,43.33,0,0,1,3-15.43,10.44,10.44,0,0,1,1-2.06,1,1,0,0,1,1.9.23,15.23,15.23,0,0,1,.69,4.43,112.46,112.46,0,0,1-.35,14.22,8,8,0,0,0,0,.85c.39.14.48-.21.64-.4,5.3-6.55,14.77-8.35,21.78-5.77a18.44,18.44,0,0,1,6.52,4.35c.3.29.63.6.4,1s-.76.34-1.19.21a25.7,25.7,0,0,0-16.23.73A21.77,21.77,0,0,0,40.86,131a1.69,1.69,0,0,0-.14.35c.46.09.79-.18,1.16-.31a22.7,22.7,0,0,1,12-1.05,10.9,10.9,0,0,1,8.83,8.82c.08.38.13.73-.23,1s-.85,0-1.18-.31a19,19,0,0,0-5.75-3.58A21.72,21.72,0,0,0,41.23,135a24.53,24.53,0,0,0-6.58,2.46,1.38,1.38,0,0,1-1.77-.16,8.22,8.22,0,0,0-3.59-1.69,7.86,7.86,0,0,0-6.64,1.58,13.29,13.29,0,0,0-2.4,2.57,70.42,70.42,0,0,0-3.87,6.33,7.24,7.24,0,0,1-.88,1.3,1,1,0,0,1-1.74-.33,4,4,0,0,1-.28-1.91c.47-5.94,3.2-10.36,8.76-12.84A18.5,18.5,0,0,1,25.6,131.39Z"/><path class="cls-12" d="M29.77,224.19H21.36a13.84,13.84,0,0,1-2.65-.26,3,3,0,0,1-2.4-2,18.4,18.4,0,0,1-.86-4.76c-.5-4-1-8-1.44-11.94-.1-.76-.18-1.53-.27-2.29a4.9,4.9,0,0,1,.14-1.57A1.69,1.69,0,0,1,15.27,200a6.94,6.94,0,0,1,1.7-.09q9.23.06,18.47.12c3,0,6,0,9,0a19.65,19.65,0,0,1,3.75.32c.93.18,1.23.55,1.27,1.49a5.25,5.25,0,0,1,0,1c-.82,4.62-1.22,9.31-2.16,13.92a23.66,23.66,0,0,1-1.64,5.33,4,4,0,0,1-4.2,2.61C38.05,224.48,34.69,224.4,29.77,224.19Z"/><path class="cls-13" d="M35.82,168c.26,7.81.56,15.63.55,23.45,0,2.72-.08,5.43-.34,8.14-.17,1.81-.25,1.9-2.05,1.86a39.37,39.37,0,0,1-4.85-.32c-.88-.14-1.05-.35-1-1.18.14-3.49.26-7,.42-10.45q.33-7.28.7-14.56c.27-5.63.64-11.25.8-16.88s.44-11.49.65-17.24a15.2,15.2,0,0,1,.29-2.53,2.69,2.69,0,0,1,3.74-1.77,1.32,1.32,0,0,1,.66,1.1,24.27,24.27,0,0,1,.22,4c0,2.95,0,5.91,0,8.87C35.54,156.29,35.66,162.12,35.82,168Z"/></g></g></svg>