<svg xmlns="http://www.w3.org/2000/svg" viewBox="0 0 206.12 210.61"><defs><style>.cls-1{fill:#b39975;}.cls-2{fill:#e5ceab;}.cls-3{fill:#dbac55;}.cls-4{fill:#f1881a;}.cls-5{fill:#e4e4e4;}.cls-6{fill:#727272;}.cls-7{fill:#6bbe86;}.cls-8{fill:#b7b7b7;}.cls-9{fill:#a3a3a3;}.cls-10{fill:#f7bb9a;}.cls-11{fill:#e17f4e;}.cls-12{fill:#fff;}.cls-13{fill:#cd8716;}.cls-14{fill:#040000;}</style></defs><g id="圖層_2" data-name="圖層 2"><g id="圖層_1-2" data-name="圖層 1"><path class="cls-1" d="M179.29,82.84c1,0,1.87,0,2.72,0,4.66.25,7.6,3,8.73,7.32A10.15,10.15,0,0,1,189.11,99a13.79,13.79,0,0,1-5,4.54,1.64,1.64,0,0,0-1,1.6c-.16,2.8-.67,5.55-1.09,8.31-.24,1.56-.48,1.77-2.05,1.77-4.9,0-9.81-.11-14.7-.41-.65,0-1.3-.12-1.94-.15a1.34,1.34,0,0,1-1.34-1.18,17.76,17.76,0,0,1-.28-1.92,38.56,38.56,0,0,1,3.61-21.87q.87-1.74,1.68-3.51a7.41,7.41,0,0,0,.44-4.87c-.36-1.53-.66-3.09-.95-4.64-.39-2.08.06-2.66,2.16-2.8A53,53,0,0,1,174,74a27.56,27.56,0,0,0,3.52,0h.25c2.41,0,3.24.93,2.84,3.3-.21,1.28-.59,2.52-.92,3.78C179.58,81.6,179.45,82.19,179.29,82.84ZM182.74,99c2.38-1.88,3.67-4.07,3.38-7a5.06,5.06,0,0,0-6.51-4.27A53.09,53.09,0,0,1,182.74,99Z"/><path class="cls-2" d="M142.14,115.19c-1.73-.14-3.95-.19-6.18-.39a6.07,6.07,0,0,1-5-3.37,14.49,14.49,0,0,1-1.71-6,27.51,27.51,0,0,1,.7-8.81,17.12,17.12,0,0,1,3.51-6.88,7.77,7.77,0,0,1,2.79-2.3c.6-.25.66-.56.47-1.12-.57-1.64-1.11-3.3-1.63-5-.33-1-.12-1.36.95-1.36,3.94,0,7.87-.15,11.8.18,1.29.11,1.53.4,1.08,1.62-.52,1.45-1.14,2.86-1.71,4.29-.39,1-.39,1,.5,1.46a13.42,13.42,0,0,1,4.67,4.53,17.23,17.23,0,0,1,2.77,10.16,26.76,26.76,0,0,1-1.12,6.94,9.1,9.1,0,0,1-2.85,4.58,5.18,5.18,0,0,1-3.07,1.3A58.28,58.28,0,0,1,142.14,115.19Z"/><path class="cls-3" d="M132.36,118.65h-8.52a4.52,4.52,0,0,1-1.55-.19,2.79,2.79,0,0,1,.37-5.37,9.25,9.25,0,0,1,1.58-.08l77.88-.08a10.77,10.77,0,0,1,1.7.09,2.73,2.73,0,0,1,2.3,2.61,2.77,2.77,0,0,1-2.08,2.79,5.47,5.47,0,0,1-1.45.16c-1.34,0-2.68,0-4,0s-1.3,0-1.23,1.23c.2,3.32.41,6.64.61,10q.57,8.92,1.13,17.85c.36,5.79.74,11.58,1.1,17.36q.52,8.21,1,16.4.53,8.37,1.06,16.75a6.42,6.42,0,0,1,0,1.58,2.78,2.78,0,0,1-5.35.54,4.19,4.19,0,0,1-.27-1.31q-.62-10-1.23-20-.68-10.68-1.36-21.37-.53-8.13-1-16.27c0-.24,0-.48-.06-.94a7.82,7.82,0,0,0-.61,2.56q-3,17.56-5.94,35.13-1.8,10.67-3.62,21.34a7,7,0,0,1-.28,1.18,2.78,2.78,0,0,1-3.09,1.81,2.72,2.72,0,0,1-2.29-2.74,27.21,27.21,0,0,1,.61-4.21c1.25-7.52,2.54-15,3.81-22.54q2.15-12.65,4.29-25.29,2.35-13.92,4.7-27.82c.06-.32.08-.64.12-1a2.45,2.45,0,0,0-1.43-.16q-22.4,0-44.78,0c-1.42,0-2.84,0-4.26,0-1,0-1,0-1,1,.18,2.54.38,5.09.58,7.64l1.38,17.58q.69,8.61,1.36,17.23t1.32,17l1.35,17.1c.1,1.25.25,2.5.28,3.76a2.8,2.8,0,0,1-3.7,2.93,2.67,2.67,0,0,1-1.83-2.09,8.38,8.38,0,0,1-.18-1.32q-.78-10-1.55-20t-1.6-20.25q-.78-9.88-1.54-19.77c0-.2,0-.4-.06-.72a1.12,1.12,0,0,0-.38.85q-2.22,13.08-4.43,26.14-2,11.75-4,23.5c-.59,3.51-1.2,7-1.79,10.55a5.17,5.17,0,0,1-.35,1.28,2.79,2.79,0,0,1-3,1.58,2.75,2.75,0,0,1-2.29-2.5,5.46,5.46,0,0,1,.06-1.21q2-11.69,4-23.38,2-11.87,4-23.74,1.86-11,3.73-21.94c.59-3.47,1.19-7,1.77-10.42A6.2,6.2,0,0,0,132.36,118.65Z"/><path class="cls-4" d="M72.42,70.5c.13,1.43.24,2.58.34,3.74.21,2.18.43,4.36.6,6.54a18.85,18.85,0,0,1,0,2.91,3,3,0,0,1-3,3,82.27,82.27,0,0,1-8.74.33c-2.48,0-3.49-.87-4-3.33s-.92-5.18-1.35-7.78c-.51-3-1.13-6.06-1.47-9.12-.16-1.45-.29-2.9-.47-4.35-.15-1.18-.17-1.14-1.31-1.11-4.27.09-8.5.58-12.74.93l-.72.06c-1.9.12-1.95.11-2.12,2a182.64,182.64,0,0,0-1,19.42c0,.69,0,1.39,0,2.07a3.72,3.72,0,0,1-3.59,3.76,43.94,43.94,0,0,1-6.69,0A3.15,3.15,0,0,1,23.18,87a16.56,16.56,0,0,1-.25-2.54c-.1-1-.1-1-1-1-3.53.06-7-.37-10.57-.4C9,83,7.75,81.45,8.09,79.11a107.53,107.53,0,0,1,2.76-14.44,39.41,39.41,0,0,1,1.53-4.48,23.24,23.24,0,0,1,6.5-8.68,35.76,35.76,0,0,1,15.5-7.74c1-.22,1.88-.33,2.66.57a3.29,3.29,0,0,0,1.82.91,28.61,28.61,0,0,0,12.65.57,4.45,4.45,0,0,0,3.11-1.72c.83-1.32,2-1.36,3.28-1.14q2.64.43,5.27.92A87.08,87.08,0,0,1,72,46a22.64,22.64,0,0,1,8.7,4.94A61.65,61.65,0,0,1,88.91,60c1.24,1.65,1.13,3.06-.18,4.64a38.44,38.44,0,0,1-2.93,2.92c-1.74,1.7-3.41,3.48-5.24,5.07-2.43,2.12-3.9,2.06-6.16-.25C73.83,71.83,73.24,71.29,72.42,70.5Z"/><path class="cls-5" d="M58.38,47.58a115.41,115.41,0,0,1-1,11.81,26.21,26.21,0,0,0,.33,6.91c.64,5,1.63,10,2.41,15,.16,1,.29,2.09.46,3.13s.2,1.13,1.3,1l5.79-.78A18,18,0,0,1,71,84.47c1.17,0,1.57.36,1.89,1.5a25,25,0,0,1,.71,4.93c.25,3.53.89,7,1.41,10.48.31,2.05.39,4.13.88,6.14.67,2.78.29,2.21,2.73,2.53a26.6,26.6,0,0,1,11,4A77.05,77.05,0,0,1,99,121.61c.32.28.61.6.4,1s-.66.39-1.06.3-.79-.19-1.18-.3a10.44,10.44,0,0,0-4.94-.07A37.47,37.47,0,0,0,84.8,125a58,58,0,0,1-10,3.66,76.07,76.07,0,0,1-17.18,2.44,88.67,88.67,0,0,1-22.2-2.28,52.84,52.84,0,0,1-6.21-2.12,47.73,47.73,0,0,0-10-2.87,30.06,30.06,0,0,0-7.64,0c-1.45.14-2.89.38-4.34.57-.44,0-.88.09-1.33.12s-.76,0-1-.37.06-.76.36-1.05A38.77,38.77,0,0,1,8.68,120a60.19,60.19,0,0,1,12.53-7.88,2.06,2.06,0,0,0,1.32-1.84c.62-5,1-9.92,1.22-14.9a38.54,38.54,0,0,1,.76-6.52c.35-1.54.63-1.78,2.21-1.88,2.11-.14,4.21-.25,6.31-.51.91-.12.93-.12,1-1,.14-1.69.28-3.39.37-5.09.24-4.25.61-8.49,1-12.74a37.83,37.83,0,0,0-.77-9.55c-.57-3.28-1-6.57-1.32-9.88a13.69,13.69,0,0,1,0-2.79,2.27,2.27,0,0,1,2.56-1.84c.69.16.8.74.86,1.31.17,1.41.28,2.83.5,4.23q.77,5,1.62,10c.17,1,.22,1,1.26.91,3.83-.36,7.67-.68,11.5-1.07,2-.2,1.65-.09,2-1.78a94.23,94.23,0,0,0,1.19-11.12c.06-.8.12-1.62.26-2.41s.5-1.07,1.37-1c1.51.08,2,.54,2.07,2.09A18.09,18.09,0,0,1,58.38,47.58Z"/><path class="cls-6" d="M86.67,186.62a66.39,66.39,0,0,1,8.21.84,9.75,9.75,0,0,1,1.76.48,1.38,1.38,0,0,1,1.1,1.75c-.15,1.49-.35,3-.61,4.46-.49,2.88-.48,2.94,1.85,4.63l4.53,3.28a15.68,15.68,0,0,1,2.67,2.48,5.67,5.67,0,0,1,.53.66,1.87,1.87,0,0,1-1.88,3.1,33,33,0,0,1-7.77-1.93c-2-.74-4-1.54-6-2.35a28,28,0,0,0-5.59-1.63,9.5,9.5,0,0,1-2-.58,3.35,3.35,0,0,1-2.31-3.6,61,61,0,0,1,.81-7c.14-1.08.23-2.17.37-3.25.18-1.29.44-1.5,1.74-1.46l1.34,0Z"/><path class="cls-6" d="M25.39,197.58a6.8,6.8,0,0,1-.19,2.18A4.41,4.41,0,0,1,22.5,203c-1.43.57-2.88,1.09-4.34,1.57a96.21,96.21,0,0,0-10,4,25.15,25.15,0,0,1-5.61,1.93c-.81.16-1.67.37-2.24-.43s0-1.62.47-2.31a15.51,15.51,0,0,1,2.71-2.78q2.53-2.08,5.1-4.13A3.44,3.44,0,0,0,10,197.94c0-1.86.12-3.73.11-5.59,0-1.57.27-1.83,1.81-2,3.46-.31,6.92-.75,10.4-.91a8.1,8.1,0,0,1,.85,0c1,.06,1.35.39,1.59,1.36a4.25,4.25,0,0,1,.14.71C25.08,193.63,25.25,195.73,25.39,197.58Z"/><path class="cls-7" d="M.85,141.86A40.15,40.15,0,0,1,2.36,130a15.8,15.8,0,0,1,4.18-6.75,1.49,1.49,0,0,1,.94-.47,32.24,32.24,0,0,1,8.61.09,57.22,57.22,0,0,1,13.22,3.57c.83.33,1.67.62,2.51.92,1.06.38,1.13.69.26,1.47A43.85,43.85,0,0,0,28.19,133a19.27,19.27,0,0,0-4.4,11.12,71,71,0,0,0-.43,8.86c.15,3.88.36,7.77.56,11.65.1,2,.14,4,.29,5.95.43,5.5.81,11,1.2,16.49.07,1,.11,2,.17,3,0,.76-.07.93-.82,1l-5.32.49L9,192.51l-.48,0c-1.55.08-1.56,0-1.84-1.48-1.28-7.06-2.1-14.19-3-21.29s-2-14.45-2.56-21.72Q.88,145,.85,141.86Z"/><path class="cls-7" d="M106.66,143.45A81.51,81.51,0,0,1,105,157.56c-.82,4.55-1.46,9.13-2.12,13.7-.84,5.82-1.79,11.62-3.14,17.34-.27,1.16-.3,1.19-1.46,1.09l-12-1.1c-1.42-.13-2.83-.21-4.25-.33-.9-.09-1-.25-1-1.16.41-4.81.85-9.61,1.24-14.42.25-3.07.44-6.14.62-9.22.3-5.26.6-10.52.86-15.78a32,32,0,0,0-.64-9.31,10.22,10.22,0,0,0-1.75-3.71,8.5,8.5,0,0,0-4.49-3.16,39,39,0,0,1-5.14-1.87c-.46-.21-1.22-.33-1.15-.91s.86-.37,1.33-.45a38.06,38.06,0,0,0,7-2q4.22-1.56,8.41-3.17a31.28,31.28,0,0,1,9-1.84,2.09,2.09,0,0,1,1.55.5,35.07,35.07,0,0,1,3.9,3.3,16.88,16.88,0,0,1,4.45,9.91A53.58,53.58,0,0,1,106.66,143.45Z"/><path class="cls-8" d="M53,127.37a110.77,110.77,0,0,1,15.77.75,27.93,27.93,0,0,1,11.94,3.8,16.92,16.92,0,0,1,3.07,2.38,5.47,5.47,0,0,1,.28,7.87,14.62,14.62,0,0,1-5.89,4,40.27,40.27,0,0,1-8.59,2.12,110.67,110.67,0,0,1-24.73.94,43.43,43.43,0,0,1-14.34-3.52,16,16,0,0,1-4.17-2.47,11.12,11.12,0,0,1-1.43-1.48,4.81,4.81,0,0,1-.59-5.46A11.13,11.13,0,0,1,27.8,132a21.87,21.87,0,0,1,8-3.4,54.63,54.63,0,0,1,10.74-1.21C48.67,127.31,50.82,127.37,53,127.37Z"/><path class="cls-1" d="M55.54,110.61c2.59-.06,5.19,0,7.78.14.45,0,.89,0,1.34.08,1,.1,1.19.41,1,1.38-.17.7-.41,1.4-.61,2.09-.39,1.33-.75,2.66-1.17,4-.17.52-.09.84.4,1.08a6.76,6.76,0,0,1,.72.46,12.13,12.13,0,0,1,5.53,9.78,14,14,0,0,1,0,3,7.8,7.8,0,0,1-5.88,6.86,25.58,25.58,0,0,1-6.33,1.07,29.1,29.1,0,0,1-8.92-.85c-4.49-1.21-6.94-4-7.54-8.64a11.35,11.35,0,0,1,5.62-11.17,5,5,0,0,1,.65-.34c.52-.21.6-.51.37-1-.9-2.09-1.66-4.23-2.67-6.26-.65-1.33-.45-1.63,1.05-1.63C49.7,110.6,52.62,110.61,55.54,110.61Z"/><path class="cls-9" d="M23.3,145.22c0-1.29,0-2.59,0-3.89a3.26,3.26,0,0,1,.25-1.42.53.53,0,0,1,1-.14,1.48,1.48,0,0,1,.21.3,11,11,0,0,0,5.53,4.56,41.29,41.29,0,0,0,14,3.18c2.63.14,5.26.3,7.89.41a94.31,94.31,0,0,0,10.08-.34c2.75-.17,5.49-.4,8.22-.8a29.61,29.61,0,0,0,8.91-2.73,12.39,12.39,0,0,0,5.47-4.66,3.6,3.6,0,0,1,.28-.4.6.6,0,0,1,.64-.25c.3.07.33.33.33.58,0,.72,0,1.45-.09,2.18-.16,2.47-.44,4.93-.46,7.4A3.7,3.7,0,0,1,83,153a57.75,57.75,0,0,1-11.41,3.32,119.19,119.19,0,0,1-14.94,1.91,48.16,48.16,0,0,1-8.73-.49q-5.61-.65-11.21-1.41a35.82,35.82,0,0,1-9.84-3l-.33-.16c-2.29-1-3.51-2.62-3.18-5.25a19.8,19.8,0,0,0,0-2.67Z"/><path class="cls-10" d="M43.75,121.11a14.45,14.45,0,0,0,2.15,1.38c.75.46,1.52.9,2.27,1.36a4.15,4.15,0,0,1,1.08.92c.26.3.5.65.29,1s-.69.32-1.09.27a8.41,8.41,0,0,1-2-.64c-.55-.22-1.09-.47-1.81-.78a1.18,1.18,0,0,0,.55.7c.79.6,1.6,1.18,2.39,1.78a9.73,9.73,0,0,1,.91.77c.26.25.54.54.3.91s-.65.26-1,.19a7.11,7.11,0,0,1-1.79-.71l-2.66-1.39a2.76,2.76,0,0,0,1,1c.95.78,1.94,1.52,2.87,2.32.39.34,1.11.73.69,1.3s-1.12.11-1.63-.14a45.09,45.09,0,0,1-3.93-2.31c0,.46.36.65.56.89a15.52,15.52,0,0,1,1.6,2c.14.26.21.52,0,.75a.65.65,0,0,1-.88.06,10.64,10.64,0,0,1-1-.66c-1.2-1-2.4-2-3.56-3a116.41,116.41,0,0,0-9.69-7.55c-2-1.37-3.84-2.84-5.65-4.39A34.21,34.21,0,0,1,12.13,97.46a107.62,107.62,0,0,1-1.56-14.2,5.48,5.48,0,0,1,0-.81.52.52,0,0,1,.53-.51c.37,0,.73-.1,1.09-.11l10.45-.36c1.22,0,1.38,0,1.47,1.27.17,2.22.29,4.44.38,6.67a47,47,0,0,0,2.38,12.67,15,15,0,0,0,2.64,4.78,56.21,56.21,0,0,0,4.81,5.21c1.43,1.36,2.87,2.72,4.27,4.11a8.76,8.76,0,0,0,3.37,2,20.09,20.09,0,0,1,2.71,1,3.9,3.9,0,0,1,.92.56c.48.44.33.94-.33,1.1C44.85,121,44.41,121,43.75,121.11Z"/><path class="cls-10" d="M59.11,102.52c-.54,0-1,.3-1.51.33s-1.12.39-1.39-.28.36-.83.75-1.1c1.42-1,2.86-2,4.3-3a9.5,9.5,0,0,0,2.29-2.14A38.1,38.1,0,0,1,70,89.94c2.5-2,4.95-4.06,7.32-6.23a15.56,15.56,0,0,0,2.9-3.41A4,4,0,0,0,80,75.24c-.25-.32-.5-.64-.76-.95-.77-.92-.77-1,.12-1.89.67-.65,1.35-1.29,2.05-1.91,2.07-1.82,4.14-3.64,6.23-5.44.71-.62,1-.67,1.56-.07,2.6,2.54,5,5.22,5.9,8.89a9.43,9.43,0,0,1-1.06,7,28.61,28.61,0,0,1-5.26,7,110.74,110.74,0,0,1-11.16,9.58,63.11,63.11,0,0,0-5.09,4.15,18.46,18.46,0,0,0-4.16,5.33c-.75,1.48-1.59,2.92-2.41,4.37a6.71,6.71,0,0,1-.67,1c-.23.29-.53.55-.94.35a.76.76,0,0,1-.38-.83c0-.36.13-.71.18-1.07a6.35,6.35,0,0,0,.35-1.5c-.41.18-.5.53-.66.8a17.32,17.32,0,0,1-1.59,2.44c-.24.28-.51.59-.93.39s-.45-.62-.35-1.05a13.51,13.51,0,0,1,.77-2.3l1-2.34c-.46,0-.51.35-.65.57-.87,1.33-1.7,2.67-2.56,4a3.59,3.59,0,0,1-.94,1.11c-.52.38-1,.2-1-.44a3.67,3.67,0,0,1,.29-1.66c.52-1.45,1.22-2.82,1.85-4.23.1-.22.19-.44.32-.78-.39.05-.5.32-.65.51-.86,1.13-1.7,2.28-2.56,3.41a6.27,6.27,0,0,1-.82.89.62.62,0,0,1-.77.16.65.65,0,0,1-.22-.86,7.23,7.23,0,0,1,.49-1.1c1-1.86,2.09-3.66,3.24-5.43C58.9,103.09,59.14,102.9,59.11,102.52Z"/><path class="cls-10" d="M58.56,27.51a26.24,26.24,0,0,1-.81,7.13,7.91,7.91,0,0,1-2.93,4.76,1,1,0,0,0-.46.9c0,.92-.06,1.83-.09,2.74,0,.5,0,.88.6,1.13s.42.61,0,.91a5.27,5.27,0,0,1-1.75.72A31.15,31.15,0,0,1,38,45.86a6.45,6.45,0,0,1-1.33-.49c-.5-.27-.58-.71-.11-1A1.45,1.45,0,0,0,37.18,43c0-1,0-2,.08-3a.73.73,0,0,0-.32-.72,6.73,6.73,0,0,1-2.52-3.92,29.17,29.17,0,0,1-1.36-12.8,15.09,15.09,0,0,1,3.61-7.66,19.59,19.59,0,0,1,1.73-1.8C41.75,10,45.72,9.22,50.11,10.2a7.38,7.38,0,0,1,4.12,2.68,14.25,14.25,0,0,1,2.92,5.53A54,54,0,0,1,58.56,27.51Z"/><path class="cls-11" d="M45.42,29.28c.09,1.85-.34,2.23-1.93,2l-.35-.07c-.38-.07-.74-.19-.67-.66s.47-.46.83-.46l.48,0c.42,0,.56-.15.52-.56-.09-.87-.18-1.73-.22-2.6s0-1.9,0-2.85c0-.38.11-.76.58-.73s.46.39.45.72C45,25.91,45.31,27.71,45.42,29.28Z"/><path class="cls-12" d="M39.49,26.05a2.8,2.8,0,0,1-1.38-.27A.9.9,0,0,1,38,24.14a3.65,3.65,0,0,1,3.28.09.85.85,0,0,1-.18,1.49A2.81,2.81,0,0,1,39.49,26.05Z"/><path class="cls-12" d="M51.07,22.87a2.56,2.56,0,0,1,1.36.3.92.92,0,0,1,0,1.65,3.6,3.6,0,0,1-3.06-.06.87.87,0,0,1,.08-1.56A3,3,0,0,1,51.07,22.87Z"/><path class="cls-13" d="M38.82,23.29a4.62,4.62,0,0,1-1.53-.12.63.63,0,0,1-.5-.59.62.62,0,0,1,.38-.55,4.42,4.42,0,0,1,1.46-.45,7,7,0,0,1,2.24,0c.45.06.86.26.87.8s-.42.65-.81.71C40.23,23.17,39.52,23.22,38.82,23.29Z"/><path class="cls-13" d="M50.56,22.37l-1.43,0c-.39,0-.7-.18-.75-.61a.66.66,0,0,1,.5-.73,7.57,7.57,0,0,1,4-.15.62.62,0,0,1,.51.58.73.73,0,0,1-.37.69,1.76,1.76,0,0,1-1,.27c-.47,0-.95,0-1.42,0Z"/><path class="cls-11" d="M44,34.75a4.82,4.82,0,0,1-2.38-.58c-.3-.17-.54-.39-.4-.75s.52-.36.81-.22A5.2,5.2,0,0,0,46.72,33l.22-.09c.28-.08.56-.1.73.19a.54.54,0,0,1-.25.8,6.14,6.14,0,0,1-2.33.79C44.74,34.73,44.39,34.73,44,34.75Z"/><path class="cls-13" d="M50.32,7.7a18.07,18.07,0,0,1,3.74-4.58,11.2,11.2,0,0,1,7.31-3,16.31,16.31,0,0,1,5.78.37A13.17,13.17,0,0,1,75,7.11c.34.63.69,1.26,1.07,1.86a7.54,7.54,0,0,0,3.27,2.85c1.33.6,1.48,1.22.6,2.37a6.46,6.46,0,0,1-3.68,2.5A9.64,9.64,0,0,1,67,14.44,19.8,19.8,0,0,1,64,10.87a16,16,0,0,0-2.6-3.09A6.84,6.84,0,0,0,53,7.26a3.69,3.69,0,0,0-.39.35.88.88,0,0,0,.78.21,9.65,9.65,0,0,1,6.56,3,6.87,6.87,0,0,1,2.19,4.73,39.41,39.41,0,0,1-.4,7.12,29.73,29.73,0,0,1-.6,3.76,1.85,1.85,0,0,1-2,1.64,1.71,1.71,0,0,1-1.18-.49,2.66,2.66,0,0,1-.53-.64c-1-2.36-2.81-4.2-4.39-6.19s-2.47-4.21-3-7.61a.2.2,0,0,0-.31,0,22.1,22.1,0,0,1-7.52,4.25,16.66,16.66,0,0,0-6,3.71c-.57.55-1.15,1.1-1.74,1.63a6.64,6.64,0,0,1-3.15,1.58,1.58,1.58,0,0,1-2.06-1.84,4.64,4.64,0,0,1,.55-1.81,48.56,48.56,0,0,1,6.52-10.06A12.31,12.31,0,0,1,47.5,6.44,5.27,5.27,0,0,1,50.32,7.7Z"/><path class="cls-14" d="M40.31,24.89a1.06,1.06,0,1,1-1-1.21A1.13,1.13,0,0,1,40.31,24.89Z"/><path class="cls-14" d="M51.92,24a1.06,1.06,0,1,1-1-1.2A1.12,1.12,0,0,1,51.92,24Z"/></g></g></svg>