<svg id="圖層_1" data-name="圖層 1" xmlns="http://www.w3.org/2000/svg" viewBox="0 0 1920 600"><defs><style>.cls-1{fill:#d6c7b9;}.cls-2{fill:#c5bba0;}.cls-3{fill:#af6d68;}.cls-4{fill:#ffbda1;}.cls-5{fill:#77523e;}.cls-6{fill:#a29882;}.cls-7{fill:#aeaf96;}.cls-8{fill:#fff;}.cls-9{fill:#406668;}.cls-10{fill:#798080;}.cls-11{fill:#757e7d;}.cls-12{fill:#909d9b;}.cls-13{fill:#705480;}.cls-14{fill:#7c564f;}.cls-15{fill:#d5857a;}.cls-16{fill:#807c7a;}.cls-17{fill:#9d8984;}.cls-18{fill:#b6aca4;}.cls-19{fill:none;stroke:#9d8984;stroke-miterlimit:10;stroke-width:2px;}.cls-20{fill:#ae945c;}.cls-21{fill:#bea264;}.cls-22{fill:#95804f;}.cls-23{fill:#bcbeaa;}.cls-24{fill:#cfd1bb;}.cls-25{fill:#8cbb93;}.cls-26{fill:#2a8a80;}.cls-27{fill:#90c2b6;}.cls-28{fill:#247c70;}.cls-29{fill:#87b6aa;}.cls-30{fill:#599440;}.cls-31{fill:#c7bda4;}.cls-32{fill:#388040;}.cls-33{fill:#c7ac7c;}.cls-34{fill:#215580;}.cls-35{fill:#634148;}.cls-36{fill:#40346a;}.cls-37{fill:#4a3c7a;}.cls-38{fill:#bc9480;}.cls-39{fill:#deaf96;}.cls-40{fill:#2e282b;}.cls-41{fill:#41383d;}.cls-42{fill:#266190;}.cls-43{fill:#34427c;}.cls-44{fill:#fff3d4;}.cls-45{fill:#d1bb89;}.cls-46{fill:#3e3645;}.cls-47{fill:#af8945;}</style></defs><path class="cls-1" d="M1893.52,296.44c-5.33-4-8.66-19.34-2-24.67s2-11.33,2-11.33c-.51-2.06-58.63-2.06-59.14,0,0,0-4.67,6,2,11.33s3.33,20.67-2,24.67-20,2.66-18,28,10.55,53.66,15.94,73.83,5.39,42.17,3.39,50.83,2.48,16,28.24,16,30.24-7.35,28.24-16-2-30.66,3.39-50.83,13.94-48.5,15.94-73.83S1898.86,300.44,1893.52,296.44Z"/><path class="cls-1" d="M1608.06,318.44c-.5-3.5,2-12,6-12s3-4,3-9.5c0-4.25-59.85-4.25-59.85,0,0,5.5-1,9.5,3,9.5s6.5,8.5,6,12-19.5,5-17.5,54.5,8,47,20,48a499.41,499.41,0,0,0,36.85,0c12-1,18,1.5,20-48S1608.56,321.94,1608.06,318.44Z"/><path class="cls-2" d="M1560.5,349.94c-3-5.5-8.5-10-9-12.5s1-5,1.5-10-4.94-4.32-7-4.5c-4-.37-18.61-.37-22.62,0-2.06.18-7.5-.5-7,4.5s2,7.5,1.5,10-6,7-9,12.5-3,19,0,30.5,12.5,32.5,13,38.5c.42,5,3.62,8.47,12.81,8.47s12.39-3.43,12.81-8.47c.5-6,10-27,13-38.5S1563.5,355.44,1560.5,349.94Z"/><path class="cls-3" d="M1750.44,524.69l3.53,0,.06-.06c1.39-1.74.62-7.91.62-7.91s7.12,7.36,9.64,7.86c3.28.66,14.72-.16,18.17-.2s6.57-1.8,5.84-4.91-4.22-5.85-8.4-7.88c-3-1.45-5-3.88-8.39-7.62-5-5.49-7.4-7.09-9.89-8.31-6.28-3.07-10.34.26-10.34.26a71.43,71.43,0,0,0-2.36,10.87c-.51,3.52-.12,12.47.25,15.53A3.58,3.58,0,0,0,1750.44,524.69Z"/><path class="cls-4" d="M1749.58,414.84s-2.74,21.18-.35,40.77,2,38.38,2.75,42.08,1,7.16,6.74,11,11.83,4.38,16.32,2.59c2.23-.88-8.55-11.13-10.84-14.36s6.65-56.43,8.87-78.09S1755.26,393.78,1749.58,414.84Z"/><path class="cls-5" d="M1748.34,365.64c-15.15-3.44-37.27,16.64-31.95,26.63,4.18,7.83,29.29,23.29,29.29,23.29s-5.41,57.12.89,63.62,22.39,6.08,25.31,2.58,13.07-59,12.71-71.91S1763,369,1748.34,365.64Z"/><path class="cls-3" d="M1661,524.69l-3.53,0-.07-.06c-1.39-1.74-.61-7.91-.61-7.91s-7.12,7.36-9.65,7.86c-3.27.66-14.71-.16-18.17-.2s-6.56-1.8-5.83-4.91,4.22-5.85,8.4-7.88c3-1.45,5-3.88,8.38-7.62,5-5.49,7.4-7.09,9.89-8.31,6.28-3.07,10.34.26,10.34.26a70.59,70.59,0,0,1,2.37,10.87c.51,3.52.11,12.47-.25,15.53A3.66,3.66,0,0,1,1661,524.69Z"/><path class="cls-4" d="M1661.88,414.84s2.74,21.18.35,40.77-1.94,38.38-2.75,42.08-1,7.16-6.74,11-11.83,4.38-16.31,2.59c-2.23-.88,8.54-11.13,10.84-14.36s-6.66-56.43-8.88-78.09S1656.21,393.78,1661.88,414.84Z"/><path class="cls-5" d="M1663.13,365.64c15.15-3.44,37.27,16.64,31.94,26.63-4.17,7.83-29.28,23.29-29.28,23.29s5.4,57.12-.89,63.62-22.4,6.08-25.32,2.58-13.06-59-12.71-71.91S1648.48,369,1663.13,365.64Z"/><path class="cls-6" d="M1747.33,525.5c0,5.59-18.62,6.25-41.6,6.25s-41.6-.66-41.6-6.25,18.63-10.14,41.6-10.14S1747.33,519.9,1747.33,525.5Z"/><path class="cls-7" d="M1699.26,408.51V520.06h0c.13,2,3,3.6,6.44,3.6s6.31-1.6,6.45-3.6h0V408.51Z"/><path class="cls-8" d="M1734.13,355.49c-5,8.05-25.62,10-35.7,9.95-6.61,0-16.71.57-23-4.9s-1-20.19-2.41-25.68c-2.47-9.31-6.09-23.72-7.37-27.57-2.05-6.13-14.41-22.14-8.8-30.82S1685,260.36,1685,260.36s19.34-2.93,29.93-2.25,28.37,4.46,30.13,13.68c2.21,11.63-10.09,55.06-11.11,61.19C1733.61,335.27,1737.06,350.81,1734.13,355.49Z"/><path class="cls-9" d="M1677.65,263.09c.88,1.46.67,13.2,1.33,18.91s3.06,19.94,3.06,19.94,8.55-.83,18.24-1.3c8.78-.45,17.75-.46,17.75-.46s3.52-18.66,2.64-25.68-2.2-15.8-2.2-15.8,5-.53,7.54,1.11c1.08.71,2.67,6.21,3.11,10.21s-.33,15.23-.55,18.31-.34,12.3-.34,12.3,10.87,4.6,10,10.74-1.76,21.29-.88,28.32,9.06,40.83,17.06,59.23c6.66,15.31,8.66,37.94,8.66,37.94s-32.62,12-53.25,11.32c-9-.29-20.19-2.62-29.29-4-11.76-1.79-31.28-6-31.28-6s9.34-39.23,12-55.91,11.15-40.84,10.27-47-3.22-13.47-4.1-19.61,5-12.44,5-12.44-3.07-19.53-3.07-22.83-.15-11.55.44-13.9C1670.85,265.06,1676.55,262.43,1677.65,263.09Z"/><path class="cls-8" d="M1657.72,275.79c-3.84,3.84-11,17-13.72,26.33s-6.3,16.93-5.86,20.45,19.31,5.41,22.24,5.41,12-19.2,11.71-24-2.86-18.87-5.6-23.26S1661.56,272,1657.72,275.79Z"/><rect class="cls-10" x="1533.56" y="449.32" width="13.31" height="152.13"/><rect class="cls-10" x="1572.17" y="408.05" width="13.31" height="141.12"/><rect class="cls-10" x="1873.91" y="449.32" width="13.31" height="152.13"/><rect class="cls-11" x="1835.31" y="408.05" width="13.31" height="141.12"/><path class="cls-12" d="M1908.52,454.65l-41.18-71.53s-6-11.23-9.4-14.15c-6.66-5.8-22.63-5.32-34-5.32h-227.2c-11.31,0-27.29-.48-33.94,5.32-3.35,2.92-9.41,14.15-9.41,14.15l-41.18,71.53s-5.32,10.65,4,13.31c3.88,1.11,384.4,1.11,388.28,0C1913.85,465.3,1908.52,454.65,1908.52,454.65Z"/><path class="cls-13" d="M1690.42,198.76s-11-15.39,1.14-23.69,31.62,3.88,28.78,16.54S1706.47,206,1706.47,206Z"/><path class="cls-4" d="M1710.93,262l-4.24-18.8-20.61,3.27.44,18.63s5.33,18.2,13.31,17.31S1710.93,262,1710.93,262Z"/><path class="cls-4" d="M1725.57,228.3c.86-5.59-3.48-8.53-6-7.55a43.81,43.81,0,0,0-9.8-20.48c-13-15.3-32.12-4.87-38.19,11a37.14,37.14,0,0,0-2.45,13.18c-2.78-.74-6.05.33-6.63,3.45s1.24,6.11,3.23,8.33c1.46,1.62,3.87,3.3,6.12,3.22.09.23.16.46.25.69,1.84,4.94,6.06,16.57,17.44,20.13s16-1.44,20.42-7.14c3.34-4.37,6.84-11.08,8-16A10.75,10.75,0,0,0,1725.57,228.3Z"/><path class="cls-14" d="M1703.29,248.3c-4.47,1.24-9.4,4.27-13.8,1.1-.8-.57-1.61.64-1,1.29,3.6,3.94,13.17,3.45,15.16-2A.29.29,0,0,0,1703.29,248.3Z"/><path class="cls-13" d="M1684.94,232.13c-.31-.71-1.78-.4-2.34-.32a4.18,4.18,0,0,0-2.41,1.16c-.65.64.32,1.57,1,1a4.11,4.11,0,0,1,2.63-.68C1684.51,233.25,1685.28,232.94,1684.94,232.13Z"/><path class="cls-13" d="M1702.72,231.15c.31-.71,1.78-.4,2.33-.33a4.19,4.19,0,0,1,2.41,1.17c.66.64-.31,1.56-1,1a4.06,4.06,0,0,0-2.63-.67C1703.15,232.27,1702.38,232,1702.72,231.15Z"/><path class="cls-14" d="M1708.27,239.4a3.55,3.55,0,1,1-3.55-3.55A3.55,3.55,0,0,1,1708.27,239.4Z"/><path class="cls-14" d="M1687.41,240.29a3.55,3.55,0,1,1-3.55-3.56A3.55,3.55,0,0,1,1687.41,240.29Z"/><path class="cls-15" d="M1696.86,243.8a1.29,1.29,0,0,0-.58-.12c.6,0-.65-.39-.79-.42-.41-.08-.81-.21-1.21-.32a4,4,0,0,0-.78-.16l-.21-.05a14.87,14.87,0,0,1,.67-1.79,8.09,8.09,0,0,0,.26-3.32,1,1,0,0,0-2.08,0c-.26,2.18-3.16,5.24-1.07,7.31,1,1,2.26,1,3.63,1.12a2,2,0,0,0,1.79-.35c.4-.33.34-.75.59-1.07A.5.5,0,0,0,1696.86,243.8Z"/><path class="cls-15" d="M1703.8,258.84c-2.51.46-4.76,1.6-7.32,1.87-2.36.25-4.58-.46-6.9-.6a.55.55,0,0,0-.27,1c3.88,2.34,12.22,2.47,14.81-1.85A.29.29,0,0,0,1703.8,258.84Z"/><path class="cls-13" d="M1715.62,199.58c-3.07-5.62-10-10.67-13-11.45a14.61,14.61,0,0,0-12.67,3s-5.63-.19-7.3.49a21.08,21.08,0,0,0-8.16,6.58c-4.89,6.46-8.08,15.2-7.84,23.33,0,.85,2.39,10.12,3.36,10.24,1,1.21,5.58-2.68,6.55-3.78,4.54-3.11,6.09-7.18,8-8.15,9.25,11.68,32.59,12,33.28,10.14.87-2.4,2.94-7,3-10C1721.35,219.41,1718.68,205.19,1715.62,199.58Z"/><path class="cls-4" d="M1641.5,315.1s-5.57,9-2.9,19.7c2.06,8.27,30.5,28.72,32.84,31.07S1683.06,352,1683.06,352s-18.84-16.62-19.61-20.28,2.92-8.49,0-13.76c-1.18-2.13-7.5-6.13-11.1-6.21C1647,311.62,1641.5,315.1,1641.5,315.1Z"/><path class="cls-16" d="M1705.73,386.17c-11.6,0-25.68,9.11-25.68,9.11l.11,18.93c1.15,6.54,12.16,11.67,25.57,11.67s24.43-5.13,25.58-11.67l.1-18.93S1717.34,386.17,1705.73,386.17Z"/><path class="cls-17" d="M1705.73,363.93c-25.87,0-57.24,17.5-57.24,17.5l.24,9.27c2.56,12.57,27.1,22.42,57,22.42s54.45-9.85,57-22.42l.24-9.27S1731.6,363.93,1705.73,363.93Z"/><path class="cls-18" d="M1763,381.43c0,13.58-25.63,24.6-57.25,24.6s-57.24-11-57.24-24.6,25.63-24.6,57.24-24.6S1763,367.84,1763,381.43Z"/><path class="cls-19" d="M1744.33,379.68c0,8.19-17.28,14.84-38.6,14.84s-38.59-6.65-38.59-14.84,17.28-14.84,38.59-14.84S1744.33,371.48,1744.33,379.68Z"/><path class="cls-20" d="M1708.83,355.4h-24.95s.17,19.86,5.07,24.75c3.68,3.66,9.2,5.81,16.73,5.81s13.06-2.15,16.73-5.81c4.91-4.89,5.08-24.75,5.08-24.75Z"/><path class="cls-21" d="M1727.59,355.4c0,3.34-9.79,6-21.86,6s-21.85-2.7-21.85-6,9.78-6,21.85-6S1727.59,352.06,1727.59,355.4Z"/><path class="cls-22" d="M1705.73,353c-10,0-18.07,2.24-18.07,5a1.61,1.61,0,0,0,.31.91c4,1.53,10.44,2.53,17.76,2.53s13.8-1,17.77-2.53a1.61,1.61,0,0,0,.31-.91C1723.81,355.25,1715.71,353,1705.73,353Z"/><path class="cls-22" d="M1718.12,367.32a10.06,10.06,0,0,0-5.28-.14,24.82,24.82,0,0,1-11-.34.83.83,0,0,0-.44,1.6c5.39,1.53,11.45,1.69,16.73-.48A.34.34,0,0,0,1718.12,367.32Z"/><path class="cls-22" d="M1716.7,371.58a17,17,0,0,0-3.89,1.14c-1.88.57-4.36.36-6.32.51a.63.63,0,0,0,0,1.25c3.71.29,7.86,1.18,10.56-2.05C1717.3,372.13,1717.17,371.54,1716.7,371.58Z"/><path class="cls-4" d="M1681,350.09s10.57-.94,12.92,2.82c2.12,3.39-.94,5.17-.94,5.17s3.17,4,5.59,4.05c2.91.07,6.28,3.48,3.58,4.89,2.94,1.64,2.47,4.23.94,4.93a20.94,20.94,0,0,0-3.06,2.35s.62,2.56-.47,3.06c-2.58,1.17-4.06,2.89-6.11,3.52a13,13,0,0,1-8-.7c-9.17-4.23-17.86-14.57-17.86-18.8S1681,350.09,1681,350.09Z"/><path class="cls-15" d="M1684.08,367.2c4.68,1.44,12.21,9,17.2,5.73.2-.14.42.12.31.31-3.33,6-15.28-2.11-17.85-5.6C1683.58,367.42,1683.84,367.13,1684.08,367.2Z"/><path class="cls-15" d="M1682.08,354.64c4.39-1.06,8.24.37,12.13,2.4a.66.66,0,0,1-.51,1.21c-3.66-1.23-7.71-3.06-11.58-3.29C1681.94,355,1681.89,354.68,1682.08,354.64Z"/><path class="cls-15" d="M1685.39,361.77a.26.26,0,0,1,.32-.18,6.06,6.06,0,0,1,2.08,1.17,25.44,25.44,0,0,0,3.9,1.79c3.24,1.35,7,2.82,10.51,1.76.62-.19.87.75.26.95-3.64,1.23-7.68-.06-11.12-1.42C1689.89,365.27,1684.72,364.08,1685.39,361.77Z"/><path class="cls-15" d="M1680.83,372.07c4.09,3.3,9.57,6.59,14.92,6.81a.6.6,0,0,1,0,1.19,20.65,20.65,0,0,1-9.27-2.83c-2.39-1.26-5-2.24-5.93-5C1680.49,372.06,1680.71,372,1680.83,372.07Z"/><path class="cls-4" d="M1754.86,307.73s4,15.54,4,23.08-6.43,27.16-9.36,34.19-15.07-4.57-16.38-8,6.06-26.26,4.89-33.28-1.78-10.65-1.78-10.65Z"/><path class="cls-4" d="M1750.42,362.76c3.11-5.61-1.9-9-5.77-11.09s-8.23-1.87-11.51-2.17c-3.74-.33-8.2-5.58-11.42-1.3a5.49,5.49,0,0,0,.06,5.75,6.25,6.25,0,0,0,1,1.07,27.87,27.87,0,0,0-9.26,5.75c-1.49,1.44-1,4.63,1.46,4.63.39,0,.77,0,1.15,0a10.91,10.91,0,0,0-2.57,3.61c-.78,1.92,1,3.57,2.86,3.41a21.57,21.57,0,0,0,2.39-.37,4.84,4.84,0,0,0-.41.63,2.33,2.33,0,0,0,1.69,3.61,22.49,22.49,0,0,0,4.8-.19,2,2,0,0,0,1.67.84c5.3.11,11.21-2.14,15.64-4.91C1743.74,371,1749.41,364.59,1750.42,362.76Z"/><path class="cls-15" d="M1735.46,352.71c-3.84-1.24-8.65-.26-12.22,1.46a.4.4,0,0,0,.22.75,72.6,72.6,0,0,1,11.92-1.84C1735.58,353.07,1735.68,352.78,1735.46,352.71Z"/><path class="cls-15" d="M1735.3,357.42c-3.5-1.48-6.89.16-10.13,1.62s-7.15,3-8.84,6.08c-.22.41.21.91.62.59,4.85-3.88,12.09-7.32,18.31-7.86C1735.5,357.83,1735.5,357.51,1735.3,357.42Z"/><path class="cls-15" d="M1734.08,362.6c-4.55,1.76-12.9,2.72-14.55,8.16a.26.26,0,0,0,.4.29c4.38-3.57,9.7-5.08,14.42-8C1734.61,362.87,1734.34,362.5,1734.08,362.6Z"/><path class="cls-15" d="M1737.12,367.32a27,27,0,0,0-6.74,2.68c-2.05,1.07-4.58,2.27-5.92,4.22-.16.24,0,.66.35.57a18.63,18.63,0,0,0,4.9-2.74,58.26,58.26,0,0,1,7.62-4A.38.38,0,0,0,1737.12,367.32Z"/><path class="cls-15" d="M1749.86,353.27a19.31,19.31,0,0,0-5.84-4.66c-2.44-1.29-5.24-.34-7.8-.06a.46.46,0,0,0,0,.91c2.18.24,4.79,0,6.78.9a14,14,0,0,1,4.83,4.47A1.29,1.29,0,1,0,1749.86,353.27Z"/><path class="cls-8" d="M1730.62,270s-1.76,15.8-1.17,21.65c.76,7.63,6.59,25.15,7,29.85.59,6.44,21.07-1.6,22.83-3.6s-5-32.08-12-44.37S1731.79,264.77,1730.62,270Z"/><path class="cls-23" d="M1830.29,411.68c0,8.64-16.88,18.53-37.71,18.53s-37.72-9.89-37.72-18.53S1771.74,396,1792.58,396,1830.29,403,1830.29,411.68Z"/><path class="cls-24" d="M1830.29,410.46c0,7.23-16.88,13.09-37.71,13.09s-37.72-5.86-37.72-13.09,16.88-13.09,37.72-13.09S1830.29,403.23,1830.29,410.46Z"/><path class="cls-21" d="M1815,394.14c-4.66-9.76-9.32-2.79-13.32-4.88s-5.32-8.36-13.31-7-6.66,9.06-12,9.76-14,9.06-12.65,17.43a23.36,23.36,0,0,0,2.46,8c6.27,2.37,15.76,3.88,26.39,3.88,12.17,0,22.84-2,28.9-5,1.49-2.92,2.29-7.32-.06-12.78C1820.18,400.7,1816.5,397.32,1815,394.14Z"/><path class="cls-22" d="M1791.82,401.37c-2.19-1.06-3.36-3-5.27-4.33-1.54-1.09-4.63-.88-6.12.18-1.27.89,0,3,1.22,2.08,2.25-1.69,4.44.11,6,1.65a3.79,3.79,0,0,0,4.09.88A.26.26,0,0,0,1791.82,401.37Z"/><path class="cls-22" d="M1796.39,400.88c-.88-1.05-2.47.69-1.21,1.57a5.71,5.71,0,0,0,1.37.64c.46.16.76.46,1.26.31a.5.5,0,0,0,.35-.35C1798.38,402,1797,401.56,1796.39,400.88Z"/><path class="cls-22" d="M1811.17,398.93a4.54,4.54,0,0,0-2.6-2,9.79,9.79,0,0,0-4.13.28c-1.83.38-1,3.32.77,2.81a10.09,10.09,0,0,1,2.72-.48,10.68,10.68,0,0,0,2,0c.27.05.54.11.8.18A.51.51,0,0,0,1811.17,398.93Z"/><path class="cls-22" d="M1810.24,410c-1.51-2.72-3.78-2.75-6.57-2.56-3.24.22-4.6-3.48-7.72-.62-2.31,2.11-8.63,5-11.68,3.64a9,9,0,0,0-4.64-.59c-2.15.24-3.65,1.35-3.9,3.45-.13,1.12,1.61,1.1,1.75,0,.58-4.64,7.65.56,9.88-.09a28.14,28.14,0,0,0,7.47-3.09c1-.74,3.65-2.85,4.82-1.9a6.65,6.65,0,0,0,1.54,1.15,6.88,6.88,0,0,0,2.75,0c3.62-.56,3.34.83,5.83,1.21A.42.42,0,0,0,1810.24,410Z"/><path class="cls-22" d="M1815.8,410.88c-.18-.13-.18-.59-.33-.77a2.4,2.4,0,0,1-.44-.76c-.09-.9-1.5-.91-1.42,0s1,2.45,2.12,2.06A.29.29,0,0,0,1815.8,410.88Z"/><path class="cls-22" d="M1773.73,401.13a2.84,2.84,0,0,0-3.09-.49,7,7,0,0,0-2.18,2.78c-.88,1.47,1.56,2.59,2.21.93a6,6,0,0,1,1-2.09,1.17,1.17,0,0,1,1.14-.32,1.26,1.26,0,0,0,.94-.34A.33.33,0,0,0,1773.73,401.13Z"/><path class="cls-22" d="M1799.68,392.56a2.46,2.46,0,0,1-2-.91.78.78,0,0,0-.69-.39,17.35,17.35,0,0,1-3.94-.34,6.55,6.55,0,0,1-4.23-2.34c-1.51-1.45-4.11-.37-5.68.31-1.27.55-.18,2.45,1.09,1.87,2-.9,3-.94,4.37.65a3.72,3.72,0,0,0,2.7,1.29c1.49-.18,4.19-1.47,5.28.15a2.57,2.57,0,0,0,2,1.33.84.84,0,0,0,.81-.22,8.67,8.67,0,0,0,.62-.84A.38.38,0,0,0,1799.68,392.56Z"/><path class="cls-25" d="M9.84,196.89c-1.24-8.54-3.88-16.73-6.38-25-.73-2.4-1.51-4.79-2.31-7.17a1.52,1.52,0,0,0,.48-.69c.53-1.5,1.78-2.91,2.1-4.4a48.29,48.29,0,0,1,2.12-7,140.91,140.91,0,0,0,4.87-15.6c.52-2.07,4.11-18.34-1-18-6.47.42-9,13.23-10,18C-1.42,142-3,148-2.93,153.59q-3.69-9.34-8.13-18.36c1.47-2.3,8.62-38.94,5.2-43.08-4.56-5.55-8,10.74-8.37,12.49a70.47,70.47,0,0,0-1.13,22.3c-.51-.94-1-1.89-1.53-2.82-2.35-4.2-4.74-8.37-7.21-12.49a80.52,80.52,0,0,0,4.4-24.22c0-2.27,1.17-15.79-4.3-14.47-5.27,1.28-5.54,10.68-5.65,14.83A103.88,103.88,0,0,0-29.43,103q-3.65-5.77-7.52-11.39a1,1,0,0,0,.07-.18,31,31,0,0,0,1.15-9.09c0-2.13.85-4.34.86-6.56a56.12,56.12,0,0,0-.65-6.95c-.42-3.57,1-16.74-5-17.23-4.8-.4-4.2,9.57-4,12.18s1.13,5.4,1.14,8.16a37.68,37.68,0,0,0,.4,6.54A35.61,35.61,0,0,0-41,85.77c-1.23-1.7-2.47-3.39-3.75-5.06-1.81-2.36-3.68-4.67-5.58-7,.13-3.82,0-7.66,0-11.47,0-5-1.82-9.77-1.85-14.67,0-2.06-.27-15-5.51-12-4.89,2.73-4.14,10.89-3.51,15.49A45.17,45.17,0,0,0-56,67.16c-1.67-1.91-3.34-3.82-5-5.7-.38-.41-.75-.84-1.13-1.26-2-3.89-5-7.47-7.55-10.91a99.53,99.53,0,0,0-10.63-12c-3.83-3.83-12.05-14.79-18-8.56-5.58,5.83,4.51,14.28,8,17.87a61.23,61.23,0,0,0,13,10.23c5.14,3,10.61,5.28,15.68,8.35Q-60,67.07-58.36,69c-4.33-1.79-9.15-1.94-14.37-2.27-5-.31-13.54.65-16.23,5.86-3,5.8,7.43,4.9,10,4.73,4.12-.27,8.09-1.92,12-3,3.29-.94,6.69-1.45,10-2.14a17.63,17.63,0,0,1,2.08,1.22c.59.73,1.16,1.47,1.74,2.2a.81.81,0,0,0,0,.16A1.25,1.25,0,0,0-51.95,77c1.74,2.24,3.47,4.5,5.14,6.79.64.88,1.25,1.76,1.87,2.65a42.94,42.94,0,0,0-7.8-.7,54.71,54.71,0,0,0-6.86,1c-2,.26-4.64.23-6.45,1.11-3,1.42-13.11,7.34-7.36,11.34,4,2.8,10.61-.09,14.56-1.63,2.55-1,5-2.16,7.47-3.4a78.11,78.11,0,0,1,9.19-3.71c3.53,5.22,6.85,10.56,10.08,16-3.72-1-8-.74-11.77-.25-4.82.62-11.7,1.3-15.47,4.75-4.12,3.77.52,7.33,4.5,7.86,4.25.56,8.28-.61,12.18-2.15,4.69-1.87,9.55-2.43,14.3-3.86,2.35,4,4.66,8.12,7,12.19,1.72,3,3.34,6.12,4.9,9.23-8.89-3-18.47-4.39-27.64-6.09-4.28-.79-13.16,1.28-12.6,7.1s11.09,6.58,15,7.06c8,1,18.75-.71,25.34-5.65a1.22,1.22,0,0,0,.23-.27l.81.2c3.06,6.3,5.8,12.75,8.28,19.31a46.87,46.87,0,0,0-7.34-2.68c-3.08-.89-6.55-2.3-9.76-2.33-3,0-9.58-.05-10.44,3.95-2.39,11.11,21.25,5.64,29.33,6,1.29,3.61,2.5,7.26,3.63,10.92A235.57,235.57,0,0,1,4.69,195c1.51,7.65,1.67,15.5,4.22,22.94a1.33,1.33,0,0,0,2.54,0c.72-2.85.2-5.53-.26-8.4C10.53,205.34,10.45,201.09,9.84,196.89Z"/><path class="cls-25" d="M28.08,68c2.84-.6,5.66-1.37,8.56-1.74,3.47-.45,7.16-.48,10.44-1.69,2.06-.76,10.44-3.66,6-7.42C49,53.79,42.09,56,38.31,58S30.73,61.9,28.06,64.9c.35-1.46.7-2.91,1.07-4.35,2.77-4.33,6.12-8.16,9-12.41a52.22,52.22,0,0,0,6.22-13c1.39-4.21,6-14.74-.48-17.62-6.94-3.08-9.17,8.87-10.7,13.38a89.76,89.76,0,0,0-3.7,13.69c-.64,3.72-1.65,7.76-1.74,11.68-.13.48-.26,1-.4,1.43-.61,2.16-1.18,4.33-1.75,6.5a43.15,43.15,0,0,0-2-15.16C22.34,45,19.86,38,15.05,37.41c-5.14-.59-.5,10.17.26,11.88,1.82,4.08,2.22,8.69,4.07,12.81,1.41,3.16,2.75,6.39,4.28,9.5-.6,2.56-1.18,5.13-1.7,7.73-.36,1.82-.68,3.66-1,5.5a35.07,35.07,0,0,0-1.29-6.74,36.09,36.09,0,0,0-2.15-5.56c-1-2.28-1.32-4.81-2.18-7.15s-4.09-10.7-7.65-8.7c-4.43,2.49,1.61,12.91,2.63,16a55,55,0,0,0,2.1,6c.84,1.83,2.33,3.36,3.13,5.13a29.78,29.78,0,0,0,4.29,7.13l.12.12q-.88,6-1.54,12.07a100.81,100.81,0,0,0-5.52-12.67C11.27,87.07,7.53,79.37,3,80.16-1.74,81,4.2,91.78,5.09,93.65a78,78,0,0,0,12.48,18.53Q17,118.59,16.68,125c-.05,1-.08,1.92-.12,2.87a68.76,68.76,0,0,0-9.23-18.08c-.93-1.33-9.71-13.61-11.16-7.42-1.08,4.63,18.18,32.48,20.18,33.88q-.06,9,.61,18.05c-2.08-4.65-5.51-9-8.22-12.78C6.16,138-.59,128.28-5.75,130.19c-4.07,1.51,4.8,13.73,6,15.26a134,134,0,0,0,9.61,11.22,46.79,46.79,0,0,1,4.25,5c.81,1.12,2.3,1.85,3.27,2.91a1.39,1.39,0,0,0,.63.4c.28,2.25.57,4.5.91,6.75,1.16,7.69,2.18,15.4,4.43,22.91,1.1,3.69,2.64,7.24,3.69,10.93.72,2.53,1.32,4.94,2.95,7a1.1,1.1,0,0,0,2-.89c-.82-7.06-3.64-13.62-5.34-20.49-1.75-7.09-2.84-14.36-3.89-21.56q-.75-5.15-1.3-10.32c6.13-3.08,26.44-6.82,20.42-15.19-2.16-3-7.23-.7-9.54.38-2.47,1.15-4.62,3.53-6.66,5.34A38.29,38.29,0,0,0,21,154.71c-.54-6.29-.85-12.6-.85-18.89l.56-.45a.62.62,0,0,0,.28.14c6.94,1.8,15.9-.59,21.69-4.17,2.86-1.78,10.7-6.12,9-11.11s-9.38-3.63-12.39-1.47c-6.45,4.61-13.3,9.15-19.07,14.71,0-3.13.13-6.25.33-9.36q.38-6.28.81-12.55c4.2-.47,8.17-1.7,12.49-1.8,3.59-.08,7.14-.52,10.22-2.47,2.87-1.83,5.12-6.4.52-8.09-4.2-1.54-9.77.3-13.72,1.47-3.13.93-6.52,2.17-9,4.33.46-5.6,1-11.19,1.8-16.74a64.85,64.85,0,0,1,8.49-.15,69,69,0,0,0,7,.21c3.63-.11,9.8,0,11.86-3.74,2.94-5.32-7.12-6.68-9.94-6.83-1.73-.08-3.76.87-5.39,1.34A44.15,44.15,0,0,0,30,80.69,34.4,34.4,0,0,0,24.21,84c.15-.95.29-1.89.45-2.84.43-2.49.92-5,1.43-7.42a1.12,1.12,0,0,0,.38-1.4l-.06-.14c.18-.81.34-1.63.52-2.44A15.28,15.28,0,0,1,28.08,68Z"/><path class="cls-26" d="M7.34,189.37s-4-66-18.67-86S-38,56-18.66,60.7s38,39.34,43.33,52,6,75.34,6,75.34Z"/><path class="cls-27" d="M28.42,186a101.28,101.28,0,0,0-1.77-18.55C23.86,154.15,21.06,141,16,128.23,11.38,116.62,7.44,105,.84,94.3s-14.1-20.52-23.57-28.86a.84.84,0,0,0-1.19,1.19A207.66,207.66,0,0,1-3,94.44a88.44,88.44,0,0,1,8.62,17.17c1.79,5,3.2,10.15,5.47,15,2.64,5.59,4.2,11.71,5.79,17.67,1.53,5.74,3.37,11.29,4.53,17.14,2,10.14,4.41,20.94,3.87,31.33a.73.73,0,0,0,1.08.63C29,191.92,28.48,188.58,28.42,186Z"/><path class="cls-28" d="M61.37,98.46c-.67-6.58-3.13-12.52-4.71-18.86-.94-3.79-6.7-14.15-13.36-6.81s-7.95,27.3-11.09,39.94c-3.69,14.83-6.85,29.45-7.86,44.76-1,14.48-.88,53.76,2.54,56.41,3.2,2.48,8.85,2,12.43.32,4.11-1.92,4.91-6.65,6.25-10.58a157.18,157.18,0,0,0,5.63-23c2.47-14.12,4.73-28.27,7.22-42.37C60.69,125.37,62.69,111.52,61.37,98.46Z"/><path class="cls-29" d="M57.69,86.89a.41.41,0,0,0-.74-.31c-10.44,20.86-14,45.17-17.16,68-1.54,11.09-3.5,22.24-4.58,33.39-.56,5.87-1,11.76-1.55,17.63a50.88,50.88,0,0,0,.12,10,16.67,16.67,0,0,0,2.55-.37c.39-20,4-39.94,6.71-59.72C46.22,132.35,50.17,109.08,57.69,86.89Z"/><path class="cls-30" d="M298.79,261.76c-6.17-9-23.58,7.15-28.53,11.29-6.19,5.17-12.56,10.1-18.21,16-.56.59-1.13,1.17-1.7,1.76,1.64-2.16,3.27-4.31,4.88-6.48,6.41-8.64,12.46-17.73,19.3-26,4.45-5.36,9-10.78,11.47-17.52,2-5.34-.29-9.92-5.8-10-8.54-.05-15.77,6.45-22,11.89a126.28,126.28,0,0,0-19.27,20.51c-3,4.08-5.84,8.43-8.51,12.88.83-2.66,1.57-5.37,2.38-8,2.05-6.48,4.63-12.64,7.23-18.89,4.79-11.51,9.25-23.21,13.92-34.8,2.72-6.73,5.51-13.53,8-20.34,1.82-4.92,4.14-11.59,1.87-16.72-3.15-7.11-13.43-1.75-17.63.88-9.09,5.71-13.72,14.6-18,24.54-4.93,11.48-7.86,23.78-9.65,36.23-1.83,12.76-9.6,53.4-9.6,53.4-.44-1.11,14.66-119.91,15.76-126.34s2.23-13.15,3-19.77a125.59,125.59,0,0,0,.8-19.48c-.21-4.46-.55-10.22-4.08-13.19-3.92-3.29-9.84,2.3-12.58,4.95-5.88,5.67-30.62,40.89-32.07,73.24s2.16,82.49,2.07,84.34c-1.15-6.52-10.44-33-11.8-39.45a240.1,240.1,0,0,0-7.27-25.4c-1.64-5-3.71-11.82-8.15-14.78-5.61-3.74-9.73,5.24-10.48,9.83-.84,5.16-.52,11-.14,16.16q.72,9.56,2.21,19c1.89,12,5.47,23.62,8.67,35.26-4.79-7.71-11.82-13.32-19.5-17.43-4.77-2.55-12.78-4.18-15.29,2.82-3.51,9.79,5.46,19.84,10.66,26.65A150.45,150.45,0,0,0,154,312.55c4.29,3.58,9.14,5.76,14.16,7.92,5.65,2.43,11.05,5.1,16.85,7a85.83,85.83,0,0,0,13.5,3.58,126.78,126.78,0,0,0,17.84,1.5,81,81,0,0,0,32-6.17,39.15,39.15,0,0,0,9.48-5.11c3.07-2.39,6.36-4.38,9.42-6.8C273.67,309.39,305,270.8,298.79,261.76Z"/><path class="cls-31" d="M59.24,198.59c-5.64-4-3.22-12.09,3.23-20.15s-4.84-13.7-4.84-13.7H-20.13s-11.29,5.64-4.84,13.7,8.87,16.12,3.22,20.15-33,14.5-29,53.18S-24.16,338-24.16,338H61.66s22.56-47.55,26.59-86.23S64.88,202.62,59.24,198.59Z"/><path class="cls-26" d="M89.63,176.44c-.94-29.26-7-57.61-13.43-86.07C74.75,84,72.44,77.94,70.82,71.61c-1-4-3.39-9.51-7.72-10.91-4.69-1.5-9.15.1-13,2.87-2.4,1.71-6.53,6.78-9.43,10.55S40.37,87,42,90.28a139.27,139.27,0,0,1,8.07,21.12c4.56,14.94,9.56,29.89,15.46,44.4,1.22,3,1.47,6.7,2.5,9.82,1.09,3.31,2.79,6.35,3.94,9.62a29.93,29.93,0,0,0,8.14,12.11c2.28,2.07,5.81,2.36,7.78-.23C90.08,184.24,89.73,179.86,89.63,176.44Z"/><path class="cls-27" d="M85.83,183.11c-.63-6.15-2.2-12.18-3.41-18.22-2.58-12.82-4.8-25.68-8-38.36S68.15,101.35,64,89.09c-2-5.78-3.47-12.17-6.34-17.56-1.71-3.22-3.44-6.33-5.06-9.52-.61.33-1.21.68-1.79,1.07a54.3,54.3,0,0,0,2.61,5.55c3.38,6.2,5.11,12.73,7.29,19.41,4,12.32,7.23,24.9,10.43,37.46s5.22,25.58,8.09,38.35c1.33,5.93,2.58,11.94,3.64,17.93A59.69,59.69,0,0,0,84.64,189a4.53,4.53,0,0,0,2.1-.76A41.57,41.57,0,0,1,85.83,183.11Z"/><path class="cls-32" d="M180.8,324.1c-3-4.39-6.87-7.92-9.38-12.55-2.74-5.05-7.53-9.38-11.31-13.72-8.59-9.85-19.06-18.76-25.91-30a1,1,0,0,0-1.72,1c5.77,11.37,15.85,20.14,24.24,29.59,4.38,4.93,9.69,10.28,12.78,16.06,2.28,4.3,6.78,7.38,10.57,10.3C180.5,325.16,181.09,324.53,180.8,324.1Z"/><path class="cls-32" d="M188.22,323.13c-.92-3.43-2.89-6.18-4.56-9.25-2.32-4.28-3.26-9.41-4.75-14-3.27-10.17-7.39-20-10.29-30.3-2.75-9.73-5.06-19.58-7.94-29.28-3-10.22-7-20.13-7.53-30.91a.81.81,0,0,0-1.62,0c-.1,9.8,2.52,19.1,5.48,28.37,3.24,10.14,5.26,20.7,7.84,31,2.74,10.94,6.85,21.41,10.33,32.13,1.49,4.59,2.54,9.32,4.51,13.73,1.6,3.6,4.32,6.55,7,9.39A.91.91,0,0,0,188.22,323.13Z"/><path class="cls-32" d="M211.44,135.12c-2.69,7.73-5.79,15.27-8.07,23.14-2.33,8-3.39,16.58-4.53,24.86A391.56,391.56,0,0,0,194.9,233c-.06,7.78.42,15.56.46,23.34,0,8.18-1,16.41-.89,24.62.11,15.66-3.53,31.06-.21,46.68.3,1.45,2.36.8,2.17-.6-2.25-16,1.61-31.85,1.81-47.77.09-7.65.35-15.31,1.08-22.93s-.42-15.68-.43-23.34c0-16.88,1.81-34.07,4.13-50.77,1.15-8.29,2.34-16.7,4.59-24.78,2-7.4,4.66-14.45,5.67-22.11C213.42,134.27,211.76,134.18,211.44,135.12Z"/><path class="cls-32" d="M248.8,192.06c-2.32,4.62-5,8.69-7,13.54-2.22,5.39-4.19,10.91-5.87,16.49-1.78,5.9-4.3,11.6-6,17.5s-3.5,11.78-5.76,17.5c-4.31,10.94-6.44,22.66-9.13,34.09a130.13,130.13,0,0,0-3.72,33.19,1,1,0,0,0,2.06,0A189.74,189.74,0,0,1,219,290.43c2.84-10.74,4.73-22,9-32.28a152.4,152.4,0,0,0,5.28-15.75c1.72-5.91,4.16-11.59,6-17.5,3.33-10.84,7.74-21.42,10.71-32.36C250.13,191.87,249.13,191.41,248.8,192.06Z"/><path class="cls-32" d="M272.92,242c-6.39,6.92-13.43,13.24-19.76,20.24-2.88,3.18-5.11,6.83-7.68,10.24-2.87,3.83-5.91,7.58-8.44,11.65-4.52,7.24-7.7,15.4-10.34,23.49-2.35,7.23-5.95,14.08-6.45,21.8-.08,1.22,2,1.51,2.15.29,1.08-7.44,5-14.16,7.43-21.22a114.65,114.65,0,0,1,11.28-23.82c9.38-15.11,22.37-27.56,32.74-42C274.25,242.12,273.37,241.46,272.92,242Z"/><path class="cls-32" d="M284,272.7c-4.78,3.69-8.09,8.77-11.91,13.37-4.1,4.94-8.15,9.77-13.08,13.92-5.22,4.4-9.65,10.32-14.09,15.49-3.77,4.38-7.61,8.66-11.5,12.92a1.37,1.37,0,0,0,1.94,1.94c9.43-8.62,17.37-18.57,26.41-27.59a154,154,0,0,0,12.92-14.08c3.73-4.75,6.92-9.95,10.38-14.9C285.45,273.15,284.57,272.22,284,272.7Z"/><path class="cls-33" d="M-8.69,255c-5.43-2.41-9-10.24-3-17.47s-4.21-11.45-4.21-11.45H-68.84s-10.24,4.22-4.22,11.45,2.41,15.06-3,17.47-44,17.47-28.32,57.84,50.61,34.95,50.61,34.95H-31S4,353.18,19.62,312.81-3.27,257.38-8.69,255Z"/><path class="cls-31" d="M337.27,278.38c-3.56-1.75-5.94-14.44-2-19.7s-2.77-8.32-2.77-8.32h-34.8s-6.74,3.07-2.78,8.32,1.59,17.95-2,19.7-28.92,24.7-18.62,54,33.28,25.4,33.28,25.4h15s23,3.94,33.29-25.4S340.84,280.13,337.27,278.38Z"/><path class="cls-4" d="M141.7,189s6.67,17.3,13.33,19.68,40,9,40,9l-2.38,17.14s-41-1.43-51.43-8.57-14.75-28.56-14.75-28.56Z"/><path class="cls-8" d="M125.51,156.79s7.14,4.58,11,15.77,8.26,16.86,7.78,20.2-16.35,9.68-21.11,9.68-6.66-22.26-7.62-31.41S119.8,152.72,125.51,156.79Z"/><path class="cls-34" d="M111,271.19s75.64,1.37,81.29,16.47,7.16,91.89,5.32,94-22.1,1-22.54-1.54c-.82-4.63-10.56-69.63-13.55-74.55S122.78,318.09,108.93,317c-14.36-1.17-30.46-7.95-34.61-16.52-3.89-8,2-29.86,2-29.86Z"/><path class="cls-8" d="M83.51,148.45s-31.92,2.94-35.07,16.91c-.91,4,3.79,27.38,4.24,47.8.17,7.92-2.26,16-1.86,23.13.66,11.78,2.84,36.41,3,36.71,2.81,4,22.27,4.35,42.8,2.7s27.1-3.46,30.75-5.67,6.52-51.58,6.25-61.54c-.67-24.69.48-43.38-3.88-48.13C117.39,146.85,83.51,148.45,83.51,148.45Z"/><path class="cls-4" d="M85.41,136.11l19.8,3.69,1.73,16s-1.42,10.73-11.18,10.47c-9.05-.24-16.91-12.62-16.91-12.62Z"/><path class="cls-15" d="M89,147c4.11,1.25,7.91,2.27,12.24,2a.41.41,0,0,1,.2.79c-3.87,1.65-9.87.85-12.86-2.26C88.29,147.25,88.7,146.91,89,147Z"/><path class="cls-4" d="M72.46,114.79a1.53,1.53,0,0,1,.3,0c-.27-11.59,4.49-22.61,15.41-26.95,8.5-3.39,25.86-.19,30.52,10,3.47,7.63,5.15,20,2.69,30.88-3.48,15.38-22.58,28.16-37.56,13.17a37.71,37.71,0,0,1-8.76-14.45,2.69,2.69,0,0,1-.63,0,7.05,7.05,0,0,1-6.17-5.4C67.52,119,69.19,115.3,72.46,114.79Z"/><path class="cls-14" d="M93.69,125.77c4.15-.2,4.47,6.31.32,6.51S89.54,126,93.69,125.77Z"/><path class="cls-14" d="M115.24,125.59c4.13.43,3.45,6.92-.68,6.48S111.11,125.15,115.24,125.59Z"/><path class="cls-35" d="M112.66,120a13.48,13.48,0,0,1,2.76-.37,12.61,12.61,0,0,1,3.24.86c1.35.51.53,2.54-.82,2.1a18.77,18.77,0,0,0-2.67-.61,14.6,14.6,0,0,1-2.61-1A.5.5,0,0,1,112.66,120Z"/><path class="cls-35" d="M89.63,121.53C91,119.82,93.46,120,95.39,120a1.06,1.06,0,0,1,.11,2.12c-1.83.15-3.91.68-5.69,0A.37.37,0,0,1,89.63,121.53Z"/><path class="cls-8" d="M109.24,138.37,95,136.45s-1,6.82,5.6,7.36A8.4,8.4,0,0,0,109.24,138.37Z"/><path class="cls-15" d="M107.72,130.47c-1.61-1.87-1.86-4.19-2.73-6.37-.4-1-1.86-.72-1.85.19-.66,2.5,1,5.3,2.2,7.39.43.73.93.4-.14.56a3.84,3.84,0,0,0-2,1.55,1.11,1.11,0,0,0,.18,1.37c.8.71,1.24.14,2-.31s2.48-.49,3-1.54S108.46,131.34,107.72,130.47Z"/><path class="cls-35" d="M124.71,103.2c-.31-1.27-.55-3.07-.95-4.88A3.86,3.86,0,0,0,124.87,94a7.6,7.6,0,0,0-2.11-3c-2.52-4-9-7.22-11.87-8.46a28.27,28.27,0,0,0-14.31-2.13c-3.22.51-4.9,1.58-6,3.43C85.21,81.7,77.25,86,73.88,89.67a17,17,0,0,0-4.32,10.48c-.14,2.84-.33,6.83,1.11,9.6.42,3.55,2.51,6.24,6.92,6.89a2.2,2.2,0,0,0,1.23-.22c3.37,0,5.5-4.09,5.69-8,.74.53,1.39,1,1.78,1.24,3.63,2.54,9.23,3.61,13.3,1.53a3.76,3.76,0,0,0,2.3-3.65c2.69,2.06,5.78,3.81,9.25,3.24a4.28,4.28,0,0,0,3.79-3.82c2.07,4.42,5.71,8.71,9.29,6.6C127.27,111.75,125.32,105.7,124.71,103.2Z"/><path class="cls-8" d="M59.27,154.51c-6.13,2-17.71,8.57-23.42,24.84s-6.61,28.06-6.61,28.06S37,218.33,53,214.76c8.87-2,17.23-26.27,15.51-41.32C67.11,161.34,65.41,152.47,59.27,154.51Z"/><path class="cls-36" d="M110.61,412c0,4.91-13.32,7.82-29.76,7.82S51.09,416.87,51.09,412s13.33-8.89,29.76-8.89S110.61,407.05,110.61,412Z"/><path class="cls-37" d="M76.22,328V407.8h0c.1,1.43,2.12,2.57,4.61,2.57s4.51-1.14,4.61-2.57h0V328Z"/><path class="cls-38" d="M118.31,308.93H43.4s.33,25.18.33,25.4c0,3.93,16.62,7.11,37.12,7.11S118,338.26,118,334.33C118,334.11,118.31,308.93,118.31,308.93Z"/><path class="cls-39" d="M118.31,308.93c0,4-16.77,7.18-37.46,7.18S43.4,312.9,43.4,308.93s16.76-7.17,37.45-7.17S118.31,305,118.31,308.93Z"/><path class="cls-40" d="M193.42,378.68A82.54,82.54,0,0,1,206,393.51c6.45,9.7,15.5,20.56,5.27,21S177.51,402,175.87,397s-.64-17.63-.64-17.63Z"/><path class="cls-36" d="M236.14,416c0,7-21.35,11.08-47.69,11.08S140.77,423,140.77,416s21.35-12.59,47.68-12.59S236.14,409,236.14,416Z"/><path class="cls-37" d="M183.83,257.19V411.61h0c.1,1.43,2.12,2.57,4.61,2.57s4.52-1.14,4.61-2.57h0V257.19Z"/><path class="cls-41" d="M137.76,386.25s.2,6.26,5.31,15.92c6.25,11.82,12.38,24.1.54,24.52-16.51.59-26-14-27.33-19.05s.47-22.7.47-22.7Z"/><path class="cls-42" d="M87.56,274.68s58,9.93,62.71,25.36-9.36,86.6-11.33,88.57-22.12-.39-22.4-2.95c-.52-4.67,2-60.54,1.35-63.72s-24.33-1.17-38.08-3.17c-14.26-2.07-27.08-8.39-30.7-17.2C45.74,293.34,53,271.9,53,271.9Z"/><path class="cls-43" d="M71,150.3a50.16,50.16,0,0,1,8.8,17.86c2.39,10,4,22.14,4,22.14l35-1.2s-1.19-17.14-3.57-25.71a34.51,34.51,0,0,0-7.38-13.09s9.52-1.67,12.38,4.52,9,30,10,33.81a96.88,96.88,0,0,1,4.29,28.57c0,15.23,3.81,47.61,10,50s25.71,6.66,30,9.52-9.52,15.71-10.47,31.43,3.33,20-1.91,28.56-11.42,8.1-11.9,3.34-2.38-35.71-19.52-39.52-33.33-5.72-44.76-9-13.8-24.28-17.14-34.28-10.95-25.23-9-36.66,10.47-26.66,11-31.43,0-17.14-2.14-23.8-8.81-11.19-8.81-11.19A26.21,26.21,0,0,1,71,150.3Z"/><path class="cls-4" d="M33.09,206.68s-7,19,.32,26.92,51.82-1.5,58.77-4.5-3.42-9.54-5.23-11.9-26.63-1.53-28.09-3.81S38.18,206.06,33.09,206.68Z"/><path class="cls-38" d="M268.51,250.21H108.4s.72,14.32.72,14.57c0,4.75,35.52,8.6,79.33,8.6s79.34-3.85,79.34-8.6C267.79,264.53,268.51,250.21,268.51,250.21Z"/><path class="cls-39" d="M268.51,250.21c0,4.79-35.85,8.67-80.06,8.67s-80-3.88-80-8.67,35.84-8.67,80-8.67S268.51,245.42,268.51,250.21Z"/><path class="cls-44" d="M218.36,220.53c0-19.52-18.57-32.85-20.48-34.76s1.43-5.71,4.29-8.57-.95-9.52-.95-9.52-11-.39-22.86-.39-22.85.39-22.85.39-3.81,6.67-.95,9.52,6.19,6.67,4.28,8.57S138.37,201,138.37,220.53c0,17.56,10.4,29.72,21.16,32,2.23,1.32,9.8,2.29,18.83,2.29s16.61-1,18.84-2.29C208,250.25,218.36,238.09,218.36,220.53Z"/><path class="cls-45" d="M201.45,168.39c0,1.84-10.33,3.34-23.09,3.34s-23.09-1.5-23.09-3.34,10.34-3.33,23.09-3.33S201.45,166.55,201.45,168.39Z"/><path class="cls-46" d="M126.8,223.81c3.07-1.42,2-2.9,2-2.9s-34.56-29.24-40-32.14-8.52-1.39-4,4.33C84.85,193.1,126.7,223.65,126.8,223.81Z"/><path class="cls-4" d="M116.28,205.2c-2.15-2.49-3.86-4.75-6.92-6.09-3.55-1.54-7.87-1.38-11.57-.62-6.61,1.36-12,9-14,15.44-1.24,2.44-3.41,5.89-2.26,8.25,1.51,3.08,4.91,7,9.26,7.49s6.22-.87,8.76-1.84c3.66-1.39,9.55-1.71,12.39-4.7,2.58-2.72,2.54-5.64,2-9.12,1.21-2.63-1.52-4.77-4.35-6-2.39-1-4.64-1.67-6.91-2.79,3.89.38,7.88,2.23,11.26,3.54C116.08,209.61,117.67,206.81,116.28,205.2Z"/><path class="cls-15" d="M112.92,213.79c-1.66-1.58-4.14-2.09-6.31-2.57a12.65,12.65,0,0,0-7.06.1.55.55,0,0,0,.21,1,26.56,26.56,0,0,1,7,.59c1.94.49,3.76,1.56,5.78,1.65A.49.49,0,0,0,112.92,213.79Z"/><path class="cls-15" d="M99.77,218.71c-.52.33-.31,1.3.38,1.1a10.49,10.49,0,0,1,5.53.12c1.68.45,3.23,1.36,5,1.38a.47.47,0,0,0,.38-.78C108.64,217.81,102.84,216.75,99.77,218.71Z"/><path class="cls-15" d="M111.76,207.41c-4.14-2.56-9.56-2.42-14.17-1.49-.74.15-.49,1.16.22,1.11A48.88,48.88,0,0,1,105,207c2.23.18,4.4.74,6.64.88A.25.25,0,0,0,111.76,207.41Z"/><path class="cls-47" d="M127.09,223.68a26.6,26.6,0,0,0,6.08,5c3.69,2.19,10-2.07,11.88-3.79a30.21,30.21,0,0,0-7.42-1.56c-3.21-.1-5.82-2.72-8.31-2.3A2.46,2.46,0,0,0,127.09,223.68Z"/></svg>