<svg id="圖層_1" data-name="圖層 1" xmlns="http://www.w3.org/2000/svg" xmlns:xlink="http://www.w3.org/1999/xlink" viewBox="0 0 100 100"><defs><style>.cls-1{fill:none;}.cls-2{fill:#82b4be;}.cls-3{clip-path:url(#clip-path);}.cls-4{fill:#804b10;}.cls-5{fill:#e4972d;}.cls-6{fill:#af803b;}.cls-7{fill:#ef5648;}.cls-8{fill:#bd8025;}</style><clipPath id="clip-path"><circle class="cls-1" cx="50" cy="50" r="50"/></clipPath></defs><circle class="cls-2" cx="50" cy="50" r="50"/><g class="cls-3"><g id="flat"><path class="cls-4" d="M28.38,82.25H71.62v22H28.38Z"/><path class="cls-5" d="M56.49,47.66V41.17h-13v6.49L38,51.82a5.94,5.94,0,0,0-2.23,6.1l5.62,24.33H58.65l5.62-24.33A6,6,0,0,0,62,51.82Z"/><path class="cls-6" d="M47.84,71.44v4.32h-8l-1-4.32Z"/><path class="cls-6" d="M61.15,71.44l-1,4.32h-8V71.44Z"/><path class="cls-5" d="M39.19,32.53H60.81v5.4a3.24,3.24,0,0,1-3.24,3.24H42.44a3.25,3.25,0,0,1-3.25-3.24v-5.4Z"/><circle class="cls-7" cx="50" cy="60.63" r="4.32"/><circle class="cls-7" cx="58.65" cy="60.63" r="4.32"/><circle class="cls-7" cx="41.36" cy="60.63" r="4.32"/><path class="cls-8" d="M47.84,71.44v4.32h-8l-1-4.32Z"/><path class="cls-8" d="M61.15,71.44l-1,4.32h-8V71.44Z"/><path class="cls-5" d="M21.55,16.26h4.32v4.32H21.55Z"/><path class="cls-5" d="M15.06,22.74h4.32v4.33H15.06Z"/><path class="cls-5" d="M28,22.74h4.33v4.33H28Z"/><path class="cls-5" d="M21.55,29.23h4.32v4.32H21.55Z"/><path class="cls-8" d="M63,13.07H67.3v4.32H63Z"/><path class="cls-8" d="M58.65,17.39H63v4.33H58.65Z"/><path class="cls-8" d="M67.3,17.39h4.32v4.33H67.3Z"/><path class="cls-8" d="M63,21.72H67.3V26H63Z"/><path class="cls-8" d="M43.52,41.17h13V45.5h-13Z"/></g></g></svg>