<svg id="圖層_1" data-name="圖層 1" xmlns="http://www.w3.org/2000/svg" viewBox="0 0 40 140"><defs><style>.cls-1{fill:#994628;}.cls-2{fill:#fff;}</style></defs><rect class="cls-1" width="40" height="140" rx="20"/><path class="cls-2" d="M17.54,42.1,18,43.5c.16.52.34,1.08.52,1.69a4.36,4.36,0,0,0-1.19.42c0-.23-.1-.49-.14-.77-.71.14-1.44.27-2.22.39a12.84,12.84,0,0,0-2.49.66c-.14-.46-.31-.93-.5-1.4a8.67,8.67,0,0,0,1.55-1.2,16.14,16.14,0,0,0,1.69-2.18,8.31,8.31,0,0,0-1.51.14c-.5.1-1,.21-1.51.35-.15-.46-.29-.91-.43-1.33a3.38,3.38,0,0,0,1.8-2.08c.44-1.1.88-2.23,1.3-3.41a8.67,8.67,0,0,0,1.68.5A11.44,11.44,0,0,0,15,37.74,13,13,0,0,1,13.6,40.2c1-.05,1.76-.07,2.18-.07a10.28,10.28,0,0,0,1.41-2.46l1.4.77a22,22,0,0,0-1.79,2.18l-2.71,3.59c.57-.05,1.5-.14,2.82-.29-.19-.51-.36-1-.5-1.47A6.27,6.27,0,0,1,17.54,42.1Zm-5.1,6.15c.12-.59.22-1.25.32-2a11.74,11.74,0,0,1,1.33.21,8,8,0,0,0-.52,1.79c-.07.49-.18,1.18-.32,2.07-.52,0-1-.07-1.34-.07A19,19,0,0,0,12.44,48.25Zm2.15-1.86c.32,0,.7-.1,1.12-.14.14,1.5.26,2.53.35,3.09a3.81,3.81,0,0,0-1.12.14C14.84,48.31,14.73,47.28,14.59,46.39Zm2.28,1.3a10.86,10.86,0,0,0-.32-1.52A8,8,0,0,1,17.61,46c.09.43.2.88.32,1.37s.22,1,.31,1.38a8.27,8.27,0,0,0-1.19.35C17,48.64,16.94,48.18,16.87,47.69ZM26.47,41c.56,0,1.12,0,1.69-.07v1.27c-.66-.05-1.36-.07-2.11-.07H23.73A3.81,3.81,0,0,0,24,43.54a8,8,0,0,0,.77,1.51l1.09-.81a3.68,3.68,0,0,0,.95-1.09c.33.38.68.8,1.06,1.27a4.48,4.48,0,0,0-1.13.63,14.64,14.64,0,0,1-1.48.91,7.79,7.79,0,0,0,1.52,1.52q.95.74,1.65,1.23a3.19,3.19,0,0,0-1.13,1.12,21.29,21.29,0,0,1-2.21-2.25,13,13,0,0,1-1.37-2.11v4.22A1.14,1.14,0,0,1,23,50.75a4.59,4.59,0,0,1-1.44.42A7.55,7.55,0,0,0,21,49.69c1,.05,1.55-.12,1.55-.49V46.81c-.61.61-1.21,1.23-1.79,1.86S19.58,49.9,19,50.46a9.55,9.55,0,0,0-1-1.33,19.92,19.92,0,0,0,2.46-1.94,18.21,18.21,0,0,0,2-2.14V42.17h-2c-.8,0-1.5,0-2.11.07V41c.61.05,1.31.07,2.11.07h3.87a7.79,7.79,0,0,1,.42-1.33h-5.2c.28-.71.57-1.5.88-2.39a24.32,24.32,0,0,0,.74-2.68,13.5,13.5,0,0,0,1.54.36,2.49,2.49,0,0,0-.56,1.19H27.1q-.42,1.2-1.4,4.85Zm-5.2,4.22a4.88,4.88,0,0,0-.85.77l-1.4-2c.28-.29.56-.54.84-.78C20.05,43.57,20.52,44.23,21.27,45.26Zm.56-7.94c-.14.37-.33.82-.56,1.33H25c.14-.47.28-.91.42-1.33Z"/><path class="cls-2" d="M17.82,54.88h6.54a11,11,0,0,0-1.06,1.37c-.46.68-.91,1.35-1.33,2h3.94a18.5,18.5,0,0,0-.14,2.81,24.3,24.3,0,0,0,.14,3H24.43v-1H15.92v3.16a1.15,1.15,0,0,0,1.13,1.13h7.59c1,.09,1.52-.43,1.62-1.55a3.65,3.65,0,0,0,1.4.56,2.7,2.7,0,0,1-2.95,2.18H16.55a1.73,1.73,0,0,1-2-1.9V58.61l-1.34,1a4,4,0,0,0-1.27-1c.75-.47,1.46-.94,2.11-1.41a9.48,9.48,0,0,0,2-2.07,7.89,7.89,0,0,0,1.3-2.36l1.9.63A4.65,4.65,0,0,0,17.82,54.88Zm2.53,3.38A12,12,0,0,0,21.83,56H17.05a26.37,26.37,0,0,1-2.11,2.25Zm-.84,3.79V59.38H15.92v2.67Zm4.92,0V59.38H20.84v2.67Z"/><path class="cls-2" d="M16.24,74.2a27.86,27.86,0,0,1-1,3.06,6,6,0,0,1,1.58,3.06,2.88,2.88,0,0,1-.42,2.36,3.87,3.87,0,0,1-1.79,1.12,4.15,4.15,0,0,0-.78-1.41,1.85,1.85,0,0,0,1.62-.87,2.15,2.15,0,0,0-.14-1.83A13.66,13.66,0,0,0,14,77.4c.52-1.54,1-3.09,1.34-4.64H13.53V87H12.2c0-.9.07-2.09.07-3.59V75c0-1.31,0-2.39-.07-3.23h4.71C16.81,72.15,16.59,73,16.24,74.2ZM19,79.93v4.36A2.9,2.9,0,0,0,21,85.35a15.22,15.22,0,0,0,2.64.28c.7,0,1.41,0,2.14,0a17.4,17.4,0,0,0,2.57-.31,4.83,4.83,0,0,0-.64,1.54,38.88,38.88,0,0,1-5.16,0A9,9,0,0,1,20,86.33a9.42,9.42,0,0,1-1.13-.63,1,1,0,0,0-1.2.14,7.9,7.9,0,0,0-1.16,1,5.17,5.17,0,0,0-1.05-1,17,17,0,0,1,2.32-1.55V78.67H16.7V77.61H19C19,78.18,19,79,19,79.93ZM19,75a10.3,10.3,0,0,0-1.2.21,26.65,26.65,0,0,0-.56-2.88,10.13,10.13,0,0,0,1.19-.21Zm6.25-1.47c1,0,1.83,0,2.53-.08v1.13A17.85,17.85,0,0,0,26,74.52H24.5a16.9,16.9,0,0,1-1.34,1.34,7.11,7.11,0,0,1,1.41,2.25A10,10,0,0,0,26.26,76a7.73,7.73,0,0,0,1.33.91,7.1,7.1,0,0,0-1.16.91,12.49,12.49,0,0,0-.95,1c.33.37.73.82,1.2,1.33s.94,1.08,1.41,1.69a3.64,3.64,0,0,0-1.13,1,12.75,12.75,0,0,0-2-2.89A25.36,25.36,0,0,1,25,82.78a1.69,1.69,0,0,1-.74,1.55,7.68,7.68,0,0,1-2,.67,3.56,3.56,0,0,0-.56-1.55,6.18,6.18,0,0,0,1.65-.14.73.73,0,0,0,.46-.63,18.36,18.36,0,0,0,0-2.18A13.26,13.26,0,0,1,22.36,82q-.81.7-1.8,1.41a2.81,2.81,0,0,0-1.12-1.06,8.75,8.75,0,0,0,2.07-1.26,12.78,12.78,0,0,0,2.08-2.32,2,2,0,0,0-.36-.7,22,22,0,0,1-2.74,2.1,3.77,3.77,0,0,0-1-.91,5.86,5.86,0,0,0,1.61-.91A18.89,18.89,0,0,0,22.6,77a1.52,1.52,0,0,0-.42-.49,21.55,21.55,0,0,1-2.11,1.12,2.91,2.91,0,0,0-1.05-1,8.83,8.83,0,0,0,2.28-.88,10.07,10.07,0,0,0,1.58-1.16c-1.26,0-2.29,0-3.09.07V73.46c.66.05,1.38.08,2.18.08h2a10,10,0,0,0,.84-2.82,8.24,8.24,0,0,0,1.48.57A8.41,8.41,0,0,0,25.27,73.54Zm-2.18-1.06a5.34,5.34,0,0,0-1.19.63,8.16,8.16,0,0,0-1.06-1.61,3.53,3.53,0,0,0,1.06-.64C22.32,71.47,22.72,72,23.09,72.48Z"/><path class="cls-2" d="M11.84,95.79c.75,0,1.41.07,2,.07h1.48c0,.75-.07,1.55-.07,2.39v3.94q1.83,1.69,6.19,1.69a49.26,49.26,0,0,0,6.75-.35,11.09,11.09,0,0,0-.57,1.68c-1.82.05-3.41.06-4.74,0s-2.45-.08-3.34-.18a8.91,8.91,0,0,1-2.18-.45,8,8,0,0,1-1.72-.92c-.59-.39-1.07-.41-1.45,0a13.42,13.42,0,0,0-1.33,1.62,7.93,7.93,0,0,0-1.27-1.06,15,15,0,0,0,2.32-2V97c-.7,0-1.38,0-2,.07ZM13,90.24a7,7,0,0,0,1.48-.42c.32.93.63,2,.91,3.09a6.92,6.92,0,0,0-1.48.49A31.17,31.17,0,0,0,13,90.24Zm3.58,1.33q1.07.08,6.4.07c.38-.89.73-1.8,1.06-2.74.61.24,1.12.42,1.54.56a8.71,8.71,0,0,0-1.26,2.18c1.83,0,3.14,0,3.94-.07v1.27c-.8,0-2.58-.07-5.35-.07l-.35,1.41h4.08c-.05,1.12-.07,2.6-.07,4.43s0,3.11.07,4H17.82c.09-1,.14-2.36.14-4s0-3.12-.07-4.43h3.16l.36-1.41c-2.53,0-4.15,0-4.86.07ZM21,90.8c-.37.24-.75.49-1.12.77a13.09,13.09,0,0,0-1.41-1.89l1.06-.78C20.12,89.65,20.61,90.29,21,90.8Zm4.22,5.84V95.3H19.37v1.34Zm0,2.39V97.69H19.37V99Zm0,2.46v-1.41H19.37v1.41Z"/></svg>