<svg id="圖層_1" data-name="圖層 1" xmlns="http://www.w3.org/2000/svg" viewBox="0 0 90 90"><defs><style>.cls-1{fill:#789a50;}.cls-2{font-size:13.85px;font-family:SimHei;}.cls-2,.cls-3{fill:#fff;}</style></defs><circle class="cls-1" cx="45" cy="45" r="45"/><text class="cls-2" transform="translate(11.37 64.01)">碧雲製冰城</text><g id="FeuECz.tif"><path class="cls-3" d="M42.32,40.45a5,5,0,0,1-.67-.29L26.17,30.27a3.15,3.15,0,0,1-.32-.32L32.2,20c.3.24.59.49.9.72a3.78,3.78,0,0,0,5.43-.95c.51-.75,1-1.55,1.49-2.29a1.64,1.64,0,0,1,2.45-.55,1.62,1.62,0,0,1,.3,2.41c-1.38,2.16-2.8,4.3-4.13,6.49s-.89,4.47,1,5.65a3.72,3.72,0,0,0,4.74-.59,16.53,16.53,0,0,0,1.73-2.41c.49-.77,1-1.45,2-1.25s1.25,1,1.39,1.91Z"/><path class="cls-3" d="M51.15,26.62a11.09,11.09,0,0,0-1.45-1.13,3.82,3.82,0,0,0-5.1,1.3c-.48.72-.92,1.48-1.42,2.19a1.67,1.67,0,0,1-2.45.59,1.63,1.63,0,0,1-.33-2.41l4-6.28A4.2,4.2,0,0,0,45,16.55a3.76,3.76,0,0,0-6.12-1A19.71,19.71,0,0,0,37,18.18c-.76,1.12-1.56,1.39-2.46.81s-.91-1.24-.23-2.43c1.44-2.52,3.25-4.62,6.12-5.48a9.33,9.33,0,0,1,10.25,2.68,9.52,9.52,0,0,1,1.8,10.38,7.27,7.27,0,0,0-.22.8Z"/><path class="cls-3" d="M28,43.11a3.67,3.67,0,0,1,.09-4.76c.68-.92,3.66-5.71,4.32-6.74L37.73,35c-.94,1.46-4.2,6.78-5.26,8.16-.78,1-2,.91-3.19.76Z"/></g><path class="cls-3" d="M57.5,41.07a2.69,2.69,0,1,1-5.38,0c0-1.48,1.2-5.92,2.69-5.92S57.5,39.59,57.5,41.07Z"/></svg>