<svg id="圖層_1" data-name="圖層 1" xmlns="http://www.w3.org/2000/svg" viewBox="0 0 90 90"><defs><style>.cls-1{fill:#994628;}.cls-2{fill:#f4d66e;}</style></defs><circle class="cls-1" cx="45" cy="45" r="45"/><path class="cls-2" d="M22.82,58.78a17.81,17.81,0,0,1-.67,2.62,12.58,12.58,0,0,1-1.08,2.3,14.75,14.75,0,0,1-2.14,2.6,2.36,2.36,0,0,0-1.14-.76,8.88,8.88,0,0,0,2.41-2.49,10.43,10.43,0,0,0,1.33-3.3H20.07a18.19,18.19,0,0,0-1.84.11V58.72c.65,0,1.24.06,1.78.06Zm1.92-2a9.77,9.77,0,0,0,.11,1.59,5.9,5.9,0,0,0,1,2.25,9.58,9.58,0,0,0,2.65-2.87c.4.36.76.7,1.08,1a14.71,14.71,0,0,0-1.37,1.08l-1.87,1.62a7.69,7.69,0,0,0,1.57,2.06,6.45,6.45,0,0,0,2.76,1.62,1.77,1.77,0,0,0-1.09,1.08,10.73,10.73,0,0,1-3.16-2.76,13.22,13.22,0,0,1-1.7-3v6a1.05,1.05,0,0,1-.57,1.08A4.6,4.6,0,0,1,22.5,68a3.14,3.14,0,0,0-.49-1.3,3.08,3.08,0,0,0,1.25.06c.25-.07.38-.31.38-.7V57.48a17.42,17.42,0,0,0-.11-2.16h1.24C24.77,55.86,24.76,56.34,24.74,56.78Z"/><path class="cls-2" d="M42.62,58.94c0,1.3,0,2.33.05,3.08H38.51v1.46h2.54c.47,0,1.08,0,1.84-.1v1.08c-.76,0-1.37-.06-1.84-.06H38.51v1.84h3.73c.54,0,1.17,0,1.89,0v1.08c-.72,0-1.35,0-1.89,0h-8c-.65,0-1.39,0-2.22.1V66.19c.61,0,1.35,0,2.22,0h3.19V64.4H35.1c-.47,0-1.08,0-1.84.06V63.38a14.58,14.58,0,0,0,1.84.1h2.38V62h-4c0-.75.06-1.66.08-2.73s0-2.21-.08-3.43h9.19C42.64,56.61,42.62,57.64,42.62,58.94Zm-5.14-.38V56.78H34.61v1.78Zm0,2.54V59.43H34.61V61.1Zm4.11-2.54V56.78H38.51v1.78Zm0,2.54V59.43H38.51V61.1Z"/><path class="cls-2" d="M50.6,59.91a2.46,2.46,0,0,0,.78-1.51H47.65v9.25H46.51q.06-.93.06-1.89V59.21q0-.87-.06-1.68h4.93c0-.83,0-1.49-.06-2q.6,0,1.41.06a2.49,2.49,0,0,0-.27.94,8.78,8.78,0,0,0-.06,1h5c0,.54,0,1,0,1.3v7.36a1.1,1.1,0,0,1-.71,1.08,11.29,11.29,0,0,1-1.73.38,2.24,2.24,0,0,0-.59-1.19c1.26.07,1.91-.11,1.94-.54V58.4H52.46a3.85,3.85,0,0,1-.16.65,19.23,19.23,0,0,1,3.25,1.68,2.07,2.07,0,0,0-.82.86A8.84,8.84,0,0,0,52,59.81a6.7,6.7,0,0,1-2.87,2.1,1.81,1.81,0,0,0-.81-.81A5,5,0,0,0,50.6,59.91ZM52,63a23.59,23.59,0,0,1,3.13,1.89,2,2,0,0,0-.75.87,14.46,14.46,0,0,0-2.82-2A9.14,9.14,0,0,1,49.33,66a2.49,2.49,0,0,0-.92-.65,7.12,7.12,0,0,0,2.38-2.13,5.45,5.45,0,0,0,.92-2,3.6,3.6,0,0,0,1.19.49A5.29,5.29,0,0,0,52,63Z"/><path class="cls-2" d="M71.39,58.72v5.79c0,1.08,0,2.2.06,3.35h-1v-.59h-9.3v.59h-1c0-1.15,0-2.29,0-3.4V58.72c0-1,0-2,0-3H71.45Q71.39,57.16,71.39,58.72Zm-1,7.68V56.56h-9.3V66.4h1.67a5,5,0,0,0-.75-.7,6.16,6.16,0,0,0,1.13-.54,10.16,10.16,0,0,0,1.08-.76,6.92,6.92,0,0,0,1,.65,9,9,0,0,0-1,.54l-1.33.81Zm-8-4.86c0-.29,0-.83,0-1.63h6.82c0,.47-.06,1-.06,1.63v1.35c0,.5,0,1,.06,1.46H67.66a23.58,23.58,0,0,1,2,1.3,3.1,3.1,0,0,0-.7.7c-.32-.25-.65-.49-1-.7s-.73-.45-1.19-.71l.7-.59H62.36c0-.47,0-.94,0-1.41Zm6.17-3.3a10.17,10.17,0,0,0,.06,1H62.9q.06-.65.06-1.08T62.9,57.1h5.74Q68.58,57.81,68.58,58.24Zm-5.19,2.38v.54h4.76v-.54Zm0,1.19v.54h4.76v-.54Zm0,1.19v.65h4.76V63Zm4.27-4.49v-.65H63.82v.65Z"/><g id="si8CQI.tif"><path class="cls-2" d="M65.55,31.24c-.24-4.37-2.2-7.64-6.11-9.51a10.13,10.13,0,0,0-11.1,1.18,10.21,10.21,0,0,0-4.12,8.33h4a6.71,6.71,0,0,1,6.39-6.59,6.43,6.43,0,0,1,4,1.17,6.61,6.61,0,0,1,2.88,5.44h3.8Zm-14.66,0H58.8a4,4,0,0,0-7.91,0Z"/><path class="cls-2" d="M20.29,33.91H65.5a9.73,9.73,0,0,1-1.43,6.31,9.33,9.33,0,0,1-6.69,4.3,2.34,2.34,0,0,0-.24.09H28.69a2.34,2.34,0,0,0-.24-.09,9.28,9.28,0,0,1-7.56-6.06,20,20,0,0,1-.6-2.34Z"/><path class="cls-2" d="M65.55,31.24l-.27,0h-3.8a6.61,6.61,0,0,0-2.88-5.44,6.43,6.43,0,0,0-4-1.17,6.71,6.71,0,0,0-6.39,6.59h-4a10.21,10.21,0,0,1,4.12-8.33,10.13,10.13,0,0,1,11.1-1.18C63.35,23.6,65.31,26.87,65.55,31.24Z"/><path class="cls-2" d="M50.89,31.24a4,4,0,0,1,7.91,0Z"/><path class="cls-2" d="M41.79,31.24c-.25-4.37-2.21-7.64-6.12-9.51a10.11,10.11,0,0,0-11.09,1.18,10.21,10.21,0,0,0-4.12,8.33h3.95a6.69,6.69,0,0,1,6.39-6.59,6.45,6.45,0,0,1,4,1.17,6.66,6.66,0,0,1,2.88,5.44h3.8Zm-14.67,0H35a4,4,0,0,0-7.91,0Z"/><path class="cls-2" d="M41.79,31.24l-.27,0h-3.8a6.66,6.66,0,0,0-2.88-5.44,6.45,6.45,0,0,0-4-1.17,6.69,6.69,0,0,0-6.39,6.59H20.46a10.21,10.21,0,0,1,4.12-8.33,10.11,10.11,0,0,1,11.09-1.18C39.58,23.6,41.54,26.87,41.79,31.24Z"/><path class="cls-2" d="M27.12,31.24a4,4,0,0,1,7.91,0Z"/></g></svg>