<svg id="圖層_1" data-name="圖層 1" xmlns="http://www.w3.org/2000/svg" viewBox="0 0 36 36"><defs><style>.cls-1{fill:#f3d56e;}.cls-2{fill:#994628;fill-rule:evenodd;}</style></defs><path class="cls-1" d="M18,36A18,18,0,1,1,36,18,18,18,0,0,1,18,36Z"/><path class="cls-2" d="M15.18,18.08V28.52a.27.27,0,0,0,.27.27h3.87a.27.27,0,0,0,.27-.27V17.91H22.4a.26.26,0,0,0,.27-.24l.27-3.2a.26.26,0,0,0-.27-.29H19.59V11.91a1,1,0,0,1,1-1h2.16a.27.27,0,0,0,.27-.27V7.48a.27.27,0,0,0-.27-.27H19.06a3.89,3.89,0,0,0-3.88,3.89v3.08H13.24a.27.27,0,0,0-.27.27v3.19a.27.27,0,0,0,.27.27h1.94Z"/></svg>