<svg id="圖層_1" data-name="圖層 1" xmlns="http://www.w3.org/2000/svg" viewBox="0 0 40 150"><defs><style>.cls-1{fill:#994628;}.cls-2{fill:#fff;}</style></defs><rect class="cls-1" y="1.5" width="40" height="147" rx="20"/><path class="cls-2" d="M16.7,33.5a4.3,4.3,0,0,0-.5.87h8.65c.7,0,1.48,0,2.32-.07v1.13h-5.9v1.12H24c.56,0,1.22,0,2-.07v1.2c-.75,0-1.41-.07-2-.07H21.27v1.12h2.88c.61,0,1.31,0,2.11-.07v1.2c-.8,0-1.5-.07-2.11-.07H21.27v1h3.44c.75,0,1.5,0,2.25-.07v1.2c-.7,0-1.43-.07-2.18-.07H15.64v.56H14.23a19.82,19.82,0,0,0,.15-2.32V36.83a10.11,10.11,0,0,1-.74,1l-.74.84a6,6,0,0,0-1.06-.84c.33-.38.87-1,1.62-2a19.73,19.73,0,0,0,1.65-2.32,7.92,7.92,0,0,0,.74-1.62l1.55.85A3.72,3.72,0,0,0,16.7,33.5Zm2.67,9.73c0-.18,0-.58-.07-1.19h1.47c0,.66-.07,1.05-.07,1.19h4.5c.85,0,1.67,0,2.46-.07v1.13h-5a7.55,7.55,0,0,0,2.18,1.3,27.9,27.9,0,0,0,3.31.95,4.69,4.69,0,0,0-.92,1.4c-.94-.32-1.7-.62-2.28-.87a12.3,12.3,0,0,1-1.62-.85,8.19,8.19,0,0,1-1.23-.91l-1.06-1H20.7v1.62a20.32,20.32,0,0,0,.14,2.53H19.3c0-.66.07-1.5.07-2.53V44.29h-.28A7.16,7.16,0,0,1,18,45.55a9.2,9.2,0,0,1-1.37,1c-.49.31-1,.6-1.58.88a12.88,12.88,0,0,1-2,.78,5.57,5.57,0,0,0-.85-1.41,23.9,23.9,0,0,0,3-1,5.3,5.3,0,0,0,2.32-1.58H12.41V43.16c.56.05,1.4.07,2.53.07Zm.49-6.68V35.43H15.64v1.12Zm0,2.18V37.61H15.64v1.12Zm0,2v-1H15.64v1Zm1.58-8.22c.26.28.53.61.81,1a7,7,0,0,1-1.2.77c-.28-.37-.51-.68-.7-.91a5.13,5.13,0,0,0-.7-.7,6,6,0,0,0,1.05-.85A6,6,0,0,1,21.44,32.55Z"/><path class="cls-2" d="M16.7,51.67a4.68,4.68,0,0,0-.5.88h8.65c.7,0,1.48,0,2.32-.07v1.13h-5.9v1.12H24c.56,0,1.22,0,2-.07v1.2c-.75,0-1.41-.07-2-.07H21.27v1.12h2.88c.61,0,1.31,0,2.11-.07V58c-.8,0-1.5-.07-2.11-.07H21.27v1h3.44c.75,0,1.5,0,2.25-.07v1.2c-.7,0-1.43-.07-2.18-.07H15.64v.56H14.23a19.82,19.82,0,0,0,.15-2.32V55a9,9,0,0,1-.74,1l-.74.84A6,6,0,0,0,11.84,56c.33-.38.87-1,1.62-2a19.73,19.73,0,0,0,1.65-2.32,7.92,7.92,0,0,0,.74-1.62l1.55.85A4,4,0,0,0,16.7,51.67Zm2.67,9.74c0-.18,0-.58-.07-1.19h1.47c0,.66-.07,1.05-.07,1.19h4.5c.85,0,1.67,0,2.46-.07v1.13h-5a7.55,7.55,0,0,0,2.18,1.3,27.9,27.9,0,0,0,3.31.95,4.81,4.81,0,0,0-.92,1.4c-.94-.32-1.7-.62-2.28-.87a12.3,12.3,0,0,1-1.62-.85,8.19,8.19,0,0,1-1.23-.91l-1.06-1H20.7v1.61a20.38,20.38,0,0,0,.14,2.54H19.3c0-.66.07-1.5.07-2.54V62.47h-.28A7.16,7.16,0,0,1,18,63.73a9.2,9.2,0,0,1-1.37,1c-.49.31-1,.6-1.58.88a12.88,12.88,0,0,1-2,.78A5.57,5.57,0,0,0,12.12,65a22.39,22.39,0,0,0,3-1,5.38,5.38,0,0,0,2.32-1.58H12.41V61.34c.56,0,1.4.07,2.53.07Zm.49-6.68V53.61H15.64v1.12Zm0,2.18V55.79H15.64v1.12Zm0,2V58H15.64v1Zm1.58-8.22c.26.28.53.61.81,1a7,7,0,0,1-1.2.77c-.28-.37-.51-.68-.7-.91a5.13,5.13,0,0,0-.7-.7A6,6,0,0,0,20.7,50,6,6,0,0,1,21.44,50.73Z"/><path class="cls-2" d="M20.6,70.56c0,.73,0,1.64,0,2.74a9.79,9.79,0,0,0,.67,3.34,9.05,9.05,0,0,0,1.61,2.81,10.2,10.2,0,0,0,2.29,1.94,11.43,11.43,0,0,0,3.27,1.3,5.4,5.4,0,0,0-1.27,1.61,18.36,18.36,0,0,1-2.56-1.37,12.37,12.37,0,0,1-1.87-1.47,11.19,11.19,0,0,1-1.58-1.94,10.47,10.47,0,0,1-1.23-2.88,9.61,9.61,0,0,1-1,2.71,16.41,16.41,0,0,1-1.38,2,9.12,9.12,0,0,1-1.86,1.72c-.75.54-1.57,1.12-2.46,1.73a4,4,0,0,0-1.48-1.34,13.65,13.65,0,0,0,4-2.35A8.32,8.32,0,0,0,18.1,77.8a16.75,16.75,0,0,0,.95-4.29,44.76,44.76,0,0,0,.18-5.31,13.27,13.27,0,0,0,1.68.21A9.79,9.79,0,0,0,20.6,70.56Zm-5,3.23q-.36,1.44-.84,2.85a12.27,12.27,0,0,0-1.55-.35A12.07,12.07,0,0,0,14,74.36a22.82,22.82,0,0,0,.71-2.85,9.19,9.19,0,0,0,1.61.35A6.28,6.28,0,0,0,15.57,73.79Zm9.77.07c-.37,1-.72,1.87-1.05,2.57a4.63,4.63,0,0,0-1.48-.63A15,15,0,0,0,24,73.44c.32-.82.58-1.56.77-2.21a6.06,6.06,0,0,0,1.69.56A6,6,0,0,0,25.34,73.86Z"/><path class="cls-2" d="M27.38,88.28v1.13q-2.25-.07-6.75-.07V91H26c-.05.61-.07,1.6-.07,3s0,2.32.07,2.88H20.63v1.83c3.94,0,6.35,0,7.25-.07v1.19c-.94,0-3.36-.07-7.25-.07,0,1.17,0,2.28.07,3.31H19.23c0-.94.07-2,.07-3.31-4.13,0-6.52,0-7.18.07V98.55c.8,0,3.19.07,7.18.07V96.79H13.81c0-.52.07-1.48.07-2.88s0-2.39-.07-3H19.3V89.34c-3.61,0-5.82,0-6.61.07V88.28q1.34.07,6.61.07c0-.84,0-1.5-.07-2H20.7c0,.38-.07,1-.07,2Q26,88.35,27.38,88.28Zm-8.08,5V91.94H15.22v1.33Zm0,2.46v-1.4H15.22v1.4Zm5.27-2.46V91.94H20.63v1.33Zm0,2.46v-1.4H20.63v1.4Z"/><path class="cls-2" d="M17.89,114c-.23,1.1-.47,2.17-.7,3.2l1.9-.42a4.3,4.3,0,0,0,.14,1.12c-1.46.33-2.71.62-3.77.88a27.18,27.18,0,0,0-2.91.88,5.26,5.26,0,0,0-.64-1.55,35.7,35.7,0,0,0,4-.7c.19-.61.41-1.51.67-2.71a27.42,27.42,0,0,0,.53-3.83,8.82,8.82,0,0,0,1.54.42A17,17,0,0,0,17.89,114Zm-1.55-5.52c.66,0,1.64,0,3-.07v1.34c-1.32,0-2.3-.08-3-.08h-1.4c-.75,0-1.71,0-2.89.08v-1.34c1.18,0,2.14.07,2.89.07Zm-1,7.38c-.47.14-.91.26-1.34.35a30.51,30.51,0,0,0-1.33-4.71c.37-.14.82-.28,1.33-.42Q15.15,114.69,15.36,115.81Zm-1.2-10.54a9.17,9.17,0,0,0,1.2-.57,11.83,11.83,0,0,1,1.26,2.75,7.78,7.78,0,0,1-1.33.49A10,10,0,0,0,14.16,105.27Zm9.36,3h2c.75,0,1.57,0,2.47-.07v1.33c-.9,0-1.72-.07-2.47-.07h-2v3.45H27c-.05.7-.07,1.36-.07,2v3.44c0,.85,0,1.71.07,2.61H25.55v-1.48H20.84V121H19.51c0-.85,0-1.6.07-2.25V115c0-.61-.07-1.31-.07-2.11h2.67v-6.4c0-.42,0-1-.07-1.9h1.48c-.05.89-.07,1.48-.07,1.76Zm2,10v-4.29H20.84v4.29Z"/></svg>