<svg id="圖層_1" data-name="圖層 1" xmlns="http://www.w3.org/2000/svg" viewBox="0 0 90 90"><defs><style>.cls-1{fill:#789a50;}.cls-2{fill:#fff;}</style></defs><circle class="cls-1" cx="45" cy="45" r="45"/><path class="cls-2" d="M22.73,59.63c.54,0,1.17,0,1.89-.05v1c-.72,0-1.35,0-1.89,0H17.16a8.94,8.94,0,0,1-.81,1.08H23q-.06,1-.06,1.89t.06,2H21.87v-.76H16v.81H14.94q.06-.91.06-1.62v-.92a19,19,0,0,1-2.22,1.46,5,5,0,0,0-.81-.92,7.62,7.62,0,0,0,2.27-1.19A7.44,7.44,0,0,0,16,60.5H14.13c-.61,0-1.26,0-2,0v-1c.73,0,1.37.05,2,.05Zm-6.49-6.17c.79,0,1.37,0,1.73-.05v.87c-.47,0-1.13-.06-2-.06v1.41a16.5,16.5,0,0,0,1.73-.06v.87A16.5,16.5,0,0,0,16,56.38v1.25q1.08-.1,2.22-.27a4,4,0,0,0-.22.86c-.54,0-1.38.11-2.51.22a17.86,17.86,0,0,0-2.73.43q-.12-.59-.27-1.08L15,57.68v-1.3c-.76,0-1.37,0-1.84.06v-.87c.43,0,1,.06,1.84.06V54.22c-.91,0-1.61,0-2.11.06v-.87a13.49,13.49,0,0,0,1.46.05ZM21.87,63.9V62.39H16V63.9Zm-.76-10.06h2.6c0,.62-.06,1.41-.06,2.38s0,1.73.06,2.38H18.46c0-.43.05-1.13.05-2.11s0-1.89-.05-2.65h1.67a5.4,5.4,0,0,0,.22-1.24,11,11,0,0,0,1.3.27A2.33,2.33,0,0,0,21.11,53.84Zm1.57,2.06V54.65H19.49V55.9Zm0,1.89V56.66H19.49v1.13Z"/><path class="cls-2" d="M37.06,56.76V55.57H32.68v3H31.6v-3H27.11v1.19H26c0-.39.05-.74.05-1s0-.65-.05-1H31.6V54H29c-.83,0-1.42,0-1.78.06v-.87c.36,0,.93.06,1.73.06h6.32c.83,0,1.47,0,1.9-.06V54H32.68v.76H38.2a7.36,7.36,0,0,0-.05,1,8.3,8.3,0,0,0,.05,1ZM35.9,63.55c.34.38.68.77,1,1.16l-1.08.76c-.22-.4-.42-.74-.6-1-1.22.11-2.46.2-3.7.27a32.51,32.51,0,0,0-3.87.49c-.11-.4-.21-.83-.32-1.3a5.23,5.23,0,0,0,1.7-.54A6.24,6.24,0,0,0,30.57,62H28.3c-.72,0-1.33,0-1.84.05V61.2c.51,0,1.12,0,1.84,0H36c.61,0,1.22,0,1.84,0v.86C37.3,62,36.69,62,36,62h-3.9c-.43.32-.85.66-1.27,1l-1.22,1c.47,0,1.16,0,2.06-.05s1.91-.09,3-.17l-.87-.86a3.85,3.85,0,0,0,1-.6A15.51,15.51,0,0,0,35.9,63.55Zm-5.16-5.06H27.65v-.81h3.09Zm3.84.76c.75,0,1.42,0,2,0v.86c-.65,0-1.32-.05-2-.05h-5.3c-.58,0-1.12,0-1.63.05V59.2c.51,0,1,0,1.57,0Zm-3.79-2.16h-3v-.76h3ZM36.47,57h-3v-.75h3Zm.27,1.36h-3.3v-.76h3.3Z"/><path class="cls-2" d="M43.55,64v-.87a26.7,26.7,0,0,1-3.24,1.46,3,3,0,0,0-.7-.86c.57-.15,1.12-.31,1.65-.49A17.07,17.07,0,0,0,43,62.47a10.71,10.71,0,0,0,1.84-1.11H42q-1.24,0-1.89.06V60.5c.61,0,1.24,0,1.89,0h8.22c.58,0,1.19,0,1.84,0v.92c-.61,0-1.21-.06-1.78-.06H46.21a13.38,13.38,0,0,1-1.74,1.24v1.57l1.63-.7a6.73,6.73,0,0,0,.21.92,8.81,8.81,0,0,1-1,.4,16.83,16.83,0,0,0-1.65.74,9.4,9.4,0,0,1-.48-.87A.8.8,0,0,0,43.55,64Zm-3.24-9.25a11.55,11.55,0,0,0,.68-1c.19-.32.36-.65.51-1,.25.11.56.25.92.43a1.72,1.72,0,0,0-.49.65h1.41c0-.36,0-.79-.06-1.3h1c0,.51-.05.94-.05,1.3H45c.51,0,1,0,1.57-.05v.81c-.5,0-1-.05-1.57-.05h-.75v.81h1.46c.36,0,.83,0,1.4-.06v.81c-.57,0-1,0-1.4,0H44.26v.7h2.59c-.07.47-.13.91-.18,1.3a1.24,1.24,0,0,1-.33.79,3.13,3.13,0,0,1-1.11.35,3.08,3.08,0,0,0-.32-.87,3.16,3.16,0,0,0,.78-.13c.13-.06.19-.3.19-.73H44.26v2.38h-.92V57.47H41.72v1.84h-1V56.76h2.6v-.7H41.55c-.54,0-1,0-1.35,0V55.3q.7.06,1.35.06h1.79v-.81H41.55c-.1.18-.23.37-.38.59C40.85,55,40.56,54.82,40.31,54.71Zm5.35,4.7c.26-.1.55-.23.87-.37a9.63,9.63,0,0,1,.49,1,4.46,4.46,0,0,0-1,.38C45.93,60.12,45.81,59.77,45.66,59.41ZM48.48,63a7,7,0,0,0,1.13-1.51c.29.18.61.38,1,.59a11.1,11.1,0,0,0-1.36,1.41,9.68,9.68,0,0,0,3.19.81,3.16,3.16,0,0,0-.48,1,13.37,13.37,0,0,1-2.36-.68,8.33,8.33,0,0,1-1.81-1A22,22,0,0,1,45.83,62a5,5,0,0,0,.65-.54A16.35,16.35,0,0,0,48.48,63Zm.38-7.68v1.25c0,.5,0,1,0,1.4h-1c0-.46.06-.93.06-1.4V55.36c0-.44,0-.89-.06-1.36h1C48.87,54.51,48.86,54.94,48.86,55.3Zm2.27-.54v3.63a.94.94,0,0,1-.44.92,4.36,4.36,0,0,1-1.35.32A3.38,3.38,0,0,0,49,58.55a5.14,5.14,0,0,0,1-.06c.17,0,.25-.21.25-.54V54.49c0-.5,0-1-.06-1.51h1C51.14,53.41,51.13,54,51.13,54.76Z"/><path class="cls-2" d="M55.51,61.5q-.76,1.38-1.14,2.13a5.72,5.72,0,0,0-1-1A16.36,16.36,0,0,0,55,60.28c.43-.76.79-1.44,1.08-2.06a3.91,3.91,0,0,0,.76.92C56.46,59.79,56,60.58,55.51,61.5Zm1.08-5.12a9.52,9.52,0,0,0-1,.76,18.39,18.39,0,0,0-1.78-2.43,9.47,9.47,0,0,0,.86-.76Q55.61,55.09,56.59,56.38Zm3.46-.05a16.12,16.12,0,0,1-.84,4.41,12.79,12.79,0,0,1-2.13,3.49,3.82,3.82,0,0,0-1.19-.81,7.32,7.32,0,0,0,1.94-2.22A8.83,8.83,0,0,0,59,57.3c-.9,0-1.6,0-2.11.06V56.28c.51,0,1.09,0,1.73,0Zm1.73-1.78a11.28,11.28,0,0,0,.14,1.94,5,5,0,0,0,.46,1.41,9.55,9.55,0,0,0,2.05-2.65,7.87,7.87,0,0,0,1.08,1.08,4.52,4.52,0,0,0-1.11.89q-.51.57-1.59,1.65a16.44,16.44,0,0,0,1.4,2.27,7.82,7.82,0,0,0,2,1.74,2.3,2.3,0,0,0-1.13,1,12.5,12.5,0,0,1-3.3-5.14v5q0,1.13-.6,1.35a9.81,9.81,0,0,1-1.46.38A4.25,4.25,0,0,0,59.19,64a2.93,2.93,0,0,0,1.19.05c.21-.07.32-.32.32-.76V54.82c0-.8,0-1.46-.05-2h1.24A10.12,10.12,0,0,0,61.78,54.55Z"/><path class="cls-2" d="M69.27,62.58a7.76,7.76,0,0,0-1.59.73c-.15-.47-.29-.89-.44-1.25a5.51,5.51,0,0,0,1.57-.32V57.36c-.5,0-1,0-1.4,0v-1c.43,0,.9.05,1.4.05V54.55c0-.4,0-.87,0-1.41h1.08c0,.47,0,.94,0,1.41v1.94c.43,0,.86,0,1.29-.05v1c-.43,0-.86,0-1.29,0v4.06A7.91,7.91,0,0,0,71.08,61c0,.36,0,.68,0,1Zm10-4.9a14.25,14.25,0,0,0-.46,1.63c-.12.57-.29,1.17-.48,1.78a8.79,8.79,0,0,1-.57,1.41,3.2,3.2,0,0,0,.92,1.19c.25.14.43-.26.54-1.19a3.28,3.28,0,0,0,1,.7,6.13,6.13,0,0,1-.57,1.57c-.23.43-.52.56-.86.38a3.18,3.18,0,0,1-.95-.79,8.19,8.19,0,0,1-.76-1,9.84,9.84,0,0,1-1,1.08,7.34,7.34,0,0,1-1.27,1,3.19,3.19,0,0,0-.86-.86,8,8,0,0,0,1.48-1,5.65,5.65,0,0,0,1.11-1.22,13.4,13.4,0,0,1-.7-3.11c-.14-1.2-.23-2.26-.27-3.16H72.71V58H75c0,.5,0,1.08,0,1.73L74.92,62a1.37,1.37,0,0,1-.51,1.27,4.6,4.6,0,0,1-1.32.46,4.47,4.47,0,0,0-.38-1.25,2.18,2.18,0,0,0,1.11-.16.8.8,0,0,0,.19-.6l0-2.75H72.71c0,.54,0,1.14-.08,1.81a7.1,7.1,0,0,1-.55,2.11,8.7,8.7,0,0,1-1.48,2.3,3.78,3.78,0,0,0-1-.6,7.27,7.27,0,0,0,1.54-2.11,5.89,5.89,0,0,0,.54-2c.06-.63.08-1.47.08-2.52s0-2,0-2.81h3.79c0-.68,0-1.5-.11-2.43a6.75,6.75,0,0,0,1.19.1,10.92,10.92,0,0,0-.11,2.33h.81c.79,0,1.57,0,2.33,0v1c-.76,0-1.54,0-2.33,0h-.76c0,.79.1,1.64.19,2.54a16.49,16.49,0,0,0,.52,2.76,12,12,0,0,0,.54-1.89,22.37,22.37,0,0,0,.32-2.22A11.16,11.16,0,0,0,79.25,57.68Zm0-3.3a3.05,3.05,0,0,0-.92.6A12,12,0,0,0,77.2,53.3a5.51,5.51,0,0,0,.86-.54A12.82,12.82,0,0,1,79.25,54.38Z"/><g id="FeuECz.tif"><path class="cls-2" d="M42.32,40.45a5,5,0,0,1-.67-.29L26.17,30.27a3.15,3.15,0,0,1-.32-.32L32.2,20c.3.24.59.49.9.72a3.78,3.78,0,0,0,5.43-.95c.51-.75,1-1.55,1.49-2.29a1.64,1.64,0,0,1,2.45-.55,1.62,1.62,0,0,1,.3,2.41c-1.38,2.16-2.8,4.3-4.13,6.49s-.89,4.47,1,5.65a3.72,3.72,0,0,0,4.74-.59,16.53,16.53,0,0,0,1.73-2.41c.49-.77,1-1.45,2-1.25s1.25,1,1.39,1.91Z"/><path class="cls-2" d="M51.15,26.62a11.09,11.09,0,0,0-1.45-1.13,3.82,3.82,0,0,0-5.1,1.3c-.48.72-.92,1.48-1.42,2.19a1.67,1.67,0,0,1-2.45.59,1.63,1.63,0,0,1-.33-2.41l4-6.28A4.2,4.2,0,0,0,45,16.55a3.76,3.76,0,0,0-6.12-1A19.71,19.71,0,0,0,37,18.18c-.76,1.12-1.56,1.39-2.46.81s-.91-1.24-.23-2.43c1.44-2.52,3.25-4.62,6.12-5.48a9.33,9.33,0,0,1,10.25,2.68,9.52,9.52,0,0,1,1.8,10.38,7.27,7.27,0,0,0-.22.8Z"/><path class="cls-2" d="M28,43.11a3.67,3.67,0,0,1,.09-4.76c.68-.92,3.66-5.71,4.32-6.74L37.73,35c-.94,1.46-4.2,6.78-5.26,8.16-.78,1-2,.91-3.19.76Z"/></g><path class="cls-2" d="M57.5,41.07a2.69,2.69,0,1,1-5.38,0c0-1.48,1.2-5.92,2.69-5.92S57.5,39.59,57.5,41.07Z"/></svg>