<svg id="圖層_1" data-name="圖層 1" xmlns="http://www.w3.org/2000/svg" viewBox="0 0 36 36"><defs><style>.cls-1{fill:#f3d56e;}.cls-2{fill:#994628;}.cls-3{fill:#fff;fill-rule:evenodd;}</style></defs><path class="cls-1" d="M18,36A18,18,0,1,1,36,18,18,18,0,0,1,18,36Z"/><path class="cls-2" d="M28.35,11.43a8.72,8.72,0,0,1-2.12.61c.34-.06.84-.68,1-.93A4,4,0,0,0,28,9.83s0-.09,0-.11a.14.14,0,0,0-.11,0,10.69,10.69,0,0,1-2.52,1,.16.16,0,0,1-.17,0,1.52,1.52,0,0,0-.22-.22,4.27,4.27,0,0,0-3.09-1.05,4.35,4.35,0,0,0-1.77.5A4.79,4.79,0,0,0,18.65,11a4.44,4.44,0,0,0-.85,1.71,4.6,4.6,0,0,0-.05,1.81c0,.1,0,.11-.08.1A13.4,13.4,0,0,1,9,10.26c-.1-.12-.16-.12-.24,0a4.37,4.37,0,0,0,.75,5.18c.17.16.34.32.53.47a4.5,4.5,0,0,1-1.67-.47c-.1-.07-.15,0-.16.09a2.08,2.08,0,0,0,0,.49A4.42,4.42,0,0,0,11,19.57a3.5,3.5,0,0,0,.55.17,5.14,5.14,0,0,1-1.63.05c-.12,0-.17,0-.12.15a4.6,4.6,0,0,0,3.44,2.88c.15,0,.31,0,.47.06l0,0a5.51,5.51,0,0,1-2.35,1.25,8.5,8.5,0,0,1-3.57.45c-.19,0-.23,0-.28,0s0,.08,0,.13c.25.16.49.3.74.44a12.31,12.31,0,0,0,2.39,1A12.7,12.7,0,0,0,23,23.25c2.53-2.51,3.41-6,3.41-9.44,0-.13.16-.21.26-.28a8.4,8.4,0,0,0,1.67-1.75.48.48,0,0,0,.1-.33v0S28.43,11.39,28.35,11.43Z"/><path class="cls-3" d="M13.67,26.57Z"/><path class="cls-3" d="M14.38,26.58s.37,0,0,0Z"/><path class="cls-3" d="M21.8,9.39h0Z"/></svg>