<svg id="圖層_1" data-name="圖層 1" xmlns="http://www.w3.org/2000/svg" viewBox="0 0 90 90"><defs><style>.cls-1{fill:#789a50;}.cls-2{fill:#fff;}</style></defs><circle class="cls-1" cx="45" cy="45" r="45"/><path class="cls-2" d="M15.41,60.4a16.51,16.51,0,0,1-1.27,4,14.59,14.59,0,0,1-2.13,3,3.4,3.4,0,0,0-1.08-.81,9,9,0,0,0,2.92-4.36,19.7,19.7,0,0,0,1-5.81,5.31,5.31,0,0,0,1.3.38C16,56.92,15.81,58.13,15.41,60.4Zm5,1.11a10.11,10.11,0,0,0,3.16,5.22,2.38,2.38,0,0,0-1.24.76,17.61,17.61,0,0,1-2-3,15.77,15.77,0,0,1-1.17-3.63c-.27-1.33-.53-3-.78-5.08a6.42,6.42,0,0,0,1.24,0A23.3,23.3,0,0,0,20.42,61.51Z"/><path class="cls-2" d="M25.1,55.75c.61,0,1.17,0,1.67,0h2.65c0,.65-.05,1.28-.05,1.9s0,1.22.05,1.94h-3l-.05,2.27h3q-.11,1-.21,2.52a12.5,12.5,0,0,1-.25,1.95,1,1,0,0,1-.7.67,10.9,10.9,0,0,1-2,.44,3.51,3.51,0,0,0-.38-1.3,10,10,0,0,0,1.7,0,.63.63,0,0,0,.52-.43,27.38,27.38,0,0,0,.27-3.06H25.37c.07-.83.11-1.53.13-2.11s0-1.11,0-1.62h2.92V56.56H26.77c-.54,0-1.1,0-1.67,0Zm10.11,9a3.86,3.86,0,0,0,.92,1.11,6.05,6.05,0,0,0,1.51,1,2.59,2.59,0,0,0-1,.92,10.83,10.83,0,0,1-2.06-2,8.71,8.71,0,0,1-1.16-2,11.29,11.29,0,0,1-.62-2H31.69v4.28c.36-.15,1-.42,1.84-.81a9.29,9.29,0,0,0,.06,1.13c-.44.15-.9.33-1.41.54s-1,.44-1.41.65l-.43-1a.74.74,0,0,0,.38-.81v-4a11.85,11.85,0,0,0-1.19.06v-.92a11,11,0,0,0,1.19.05V57.43c0-.58,0-1.16,0-1.74h4.16a15.2,15.2,0,0,0,1.73-.1v1c-.65,0-1.22-.05-1.73-.05H31.69v.81h2.65c.58,0,1.18,0,1.79-.06v1c-.54,0-1.14-.06-1.79-.06H31.69v.92h2.49c.61,0,1.28,0,2-.05v.86c-.72,0-1.39,0-2,0H31.69V61.1h3.36c.61,0,1.35,0,2.22-.05V62c-.87,0-1.59-.06-2.17-.06H33.75a7,7,0,0,0,1,2.17,10.28,10.28,0,0,0,1.84-1.46,10.27,10.27,0,0,0,.81.92A8.85,8.85,0,0,0,35.21,64.78Z"/><path class="cls-2" d="M38.94,62.29c1.55,0,2.78.06,3.68.06H45V59.1H41.75a13.72,13.72,0,0,1-1.19,2.17,4.56,4.56,0,0,0-1.08-.49,10.2,10.2,0,0,0,1.57-2.73,8.94,8.94,0,0,0,.6-2.19,9.82,9.82,0,0,0,1.19.38,19,19,0,0,0-.76,1.94H45V56.72c0-.18,0-.66,0-1.46h1.19c0,.62-.06,1.1-.06,1.46v1.46h2c.69,0,1.36,0,2,0v1c-.57,0-1.24,0-2-.06h-2v3.25h1.41c1.08,0,2.32,0,3.73-.06v1c-1.37,0-2.61,0-3.73,0H46.08v3q0,.54.06,1.68H45c0-1.34,0-2.76,0-4.27v-.38H42.51c-1,0-2.23,0-3.57,0Z"/><path class="cls-2" d="M57.52,59.91a2.41,2.41,0,0,0,.78-1.51H54.57v9.25H53.44c0-.62.05-1.25.05-1.89V59.21c0-.58,0-1.14-.05-1.68h4.92c0-.83,0-1.49-.06-2q.6,0,1.41.06a2.92,2.92,0,0,0-.27.94,8.69,8.69,0,0,0,0,1h5c0,.54,0,1,0,1.3v7.36a1.09,1.09,0,0,1-.7,1.08,11.46,11.46,0,0,1-1.74.38,2.24,2.24,0,0,0-.59-1.19q1.89.11,1.95-.54V58.4H59.39a3.89,3.89,0,0,1-.17.65,19.23,19.23,0,0,1,3.25,1.68,2.05,2.05,0,0,0-.81.86,9,9,0,0,0-2.76-1.78A6.7,6.7,0,0,1,56,61.91a1.76,1.76,0,0,0-.81-.81A5,5,0,0,0,57.52,59.91ZM58.9,63A23.77,23.77,0,0,1,62,64.89a2,2,0,0,0-.76.87,14.33,14.33,0,0,0-2.81-2A9,9,0,0,1,56.25,66a2.41,2.41,0,0,0-.92-.65,7,7,0,0,0,2.38-2.13,5.29,5.29,0,0,0,.92-2,3.69,3.69,0,0,0,1.19.49A5.29,5.29,0,0,0,58.9,63Z"/><path class="cls-2" d="M71,61.08c-.26-.2-.56-.43-.92-.68v1.08h-.76v-.75l-1.08.91a13.93,13.93,0,0,1-1.36,1,4.8,4.8,0,0,0-.7-.76A7,7,0,0,0,68,60.83c.52-.43,1-.83,1.38-1.19V57.26H67.77c-.25,0-.59,0-1,.06v-.81c.44,0,.78.05,1,.05h1.57q0-.6-.06-1.35h.87c0,.58-.05,1-.05,1.35h1.29l1-.05v.81c-.47,0-.8-.06-1-.06H70.1v2.27c.5.33,1,.64,1.35.92s.7.51.92.65a3.25,3.25,0,0,0-.54.71A8.32,8.32,0,0,0,71,61.08Zm.37,5,.82.54a2.23,2.23,0,0,0-.6.59c-.25-.22-.49-.4-.7-.57a5.2,5.2,0,0,0-.65-.4,4.83,4.83,0,0,1-1.54,1.19A9.45,9.45,0,0,1,67,68a1.46,1.46,0,0,0-.65-.81,9,9,0,0,0,1.54-.38,3.8,3.8,0,0,0,1.71-1.14l-1.14-.65c.11-.18.23-.38.38-.59l.65.32c.21.11.43.24.65.38a4.47,4.47,0,0,0,.48-.87,7.68,7.68,0,0,0,.38-1H68.8l-.44.75c-.18.33-.39.69-.64,1.09a4.63,4.63,0,0,0-.76-.44,9.57,9.57,0,0,0,.92-1.35,10.64,10.64,0,0,0,.7-1.73,10.43,10.43,0,0,0,1,.38c-.18.22-.34.43-.49.65H72a12.6,12.6,0,0,1-.65,1.86,9,9,0,0,1-.59,1.17A3,3,0,0,1,71.39,66Zm-3.24-7.41a11.79,11.79,0,0,1,.86,1,2.55,2.55,0,0,0-.54.49,7.09,7.09,0,0,0-.65-.82c-.1.26-.25.6-.43,1a7.69,7.69,0,0,0-.76-.38,5.35,5.35,0,0,0,.65-1.24,8.78,8.78,0,0,0,.27-1l.92.16A2.64,2.64,0,0,0,68.15,58.62Zm3.51-.22c.26.29.55.59.87.92a3.44,3.44,0,0,0-.54.54,5.54,5.54,0,0,0-.65-.87c-.14.26-.29.53-.43.82a3.92,3.92,0,0,0-.65-.44,2.25,2.25,0,0,0,.51-.78,8.35,8.35,0,0,0,.35-1c.26.07.54.16.87.27A2.24,2.24,0,0,0,71.66,58.4Zm6.06-2.16c.25,0,.67,0,1.25-.06V57l-1.25-.05H76.21l-.27,1.73H78.7c0,.58-.06,1.1-.06,1.57v5.08q0,.81.06,2h-.87v-.76H73.67v.76H72.8c0-.76,0-1.41,0-2V60.4c0-.5,0-1.08,0-1.73h2.33l.21-1.73H74.1c-.33,0-.72,0-1.19.05v-.81c.5,0,.88.06,1.13.06Zm-3.19,9.57V59.37h-.86v6.44Zm1.84-4.71V59.37H75.29V61.1Zm0,2.38V61.75H75.29v1.73Zm0,2.33V64.13H75.29v1.68Zm1.46,0V59.37h-.7v6.44Z"/><path class="cls-2" d="M60.23,18.82a.95.95,0,1,0,0-1.9H42V15H60.23a.95.95,0,0,0,0-1.9H29.66a1,1,0,1,0,0,1.9h2.85v1.9H29.66a1,1,0,1,0,0,1.9h2.85v7.62H29.66a1,1,0,0,0-1,.95,16.43,16.43,0,0,0,8.35,14.28,1,1,0,0,0,.46.12H52.37a1,1,0,0,0,.46-.12,16.43,16.43,0,0,0,8.35-14.28,1,1,0,0,0-1-.95H42V18.82ZM36.32,26.44H34.41V15h1.91Zm3.8,0h-1.9V15h1.9Z"/><path class="cls-2" d="M36.49,43.69a2.85,2.85,0,0,0,2.68,1.9H50.71a2.85,2.85,0,0,0,2.68-1.9Z"/></svg>