<svg id="圖層_1" data-name="圖層 1" xmlns="http://www.w3.org/2000/svg" xmlns:xlink="http://www.w3.org/1999/xlink" viewBox="0 0 78 66"><defs><style>.cls-1{fill:none;}.cls-2{clip-path:url(#clip-path);}.cls-3{fill:#f3d56e;}.cls-4{fill:#994628;}</style><clipPath id="clip-path"><rect class="cls-1" x="0.72" y="0.35" width="76.56" height="65.65"/></clipPath></defs><g class="cls-2"><path class="cls-3" d="M53.33,12l4.76-8.27H20.17l4.11,7.1C12,17.24,3.37,31.37,3.37,43.41c0,16.11,15.41,29.16,34.4,29.16s34.41-13,34.41-29.16C72.18,32.06,64.51,18.84,53.33,12Z"/><path class="cls-4" d="M45.65,59.17a10,10,0,0,1-3.44-.62A36.51,36.51,0,0,1,20.39,36.74a10,10,0,0,1-.51-4.9,10.26,10.26,0,0,1,5.25-7.47,10,10,0,0,1,4.8-1.2,1.12,1.12,0,0,1,1.1.89L32.8,32.3a1.15,1.15,0,0,1-.31,1l-3,3A29.64,29.64,0,0,0,42.6,49.47l3-3a1.13,1.13,0,0,1,1-.3l8.24,1.76a1.13,1.13,0,0,1,.88,1.1,10.07,10.07,0,0,1-1.19,4.8,10.27,10.27,0,0,1-3.13,3.52,10.2,10.2,0,0,1-5.8,1.84ZM29,25.47A7.89,7.89,0,0,0,22.5,36,34.14,34.14,0,0,0,43,56.44a7.88,7.88,0,0,0,10.5-6.53l-6.71-1.43-3.15,3.15a1.13,1.13,0,0,1-1.27.22A31.84,31.84,0,0,1,27.09,36.6a1.13,1.13,0,0,1,.23-1.28l3.15-3.15Z"/><path class="cls-4" d="M54.65,42.29a1.13,1.13,0,0,1-1.13-1.12A15.76,15.76,0,0,0,37.78,25.42a1.13,1.13,0,1,1,0-2.25,18,18,0,0,1,18,18,1.12,1.12,0,0,1-1.12,1.12Z"/><path class="cls-4" d="M50.15,42.29A1.12,1.12,0,0,1,49,41.17,11.27,11.27,0,0,0,37.78,29.92a1.13,1.13,0,1,1,0-2.25,13.51,13.51,0,0,1,13.5,13.5A1.13,1.13,0,0,1,50.15,42.29Z"/><path class="cls-4" d="M45.65,42.29a1.12,1.12,0,0,1-1.12-1.12,6.76,6.76,0,0,0-6.75-6.75,1.13,1.13,0,1,1,0-2.25,9,9,0,0,1,9,9A1.13,1.13,0,0,1,45.65,42.29Z"/></g></svg>