<svg id="圖層_1" data-name="圖層 1" xmlns="http://www.w3.org/2000/svg" viewBox="0 0 36 36"><defs><style>.cls-1{fill:#994628;}.cls-2{fill:#f3d56e;}</style></defs><circle class="cls-1" cx="17.99" cy="17.85" r="15.77" transform="translate(-4.98 28.56) rotate(-69.79)"/><path class="cls-2" d="M18,36A18,18,0,1,1,36,18,18,18,0,0,1,18,36Zm6.07-25.3A1.33,1.33,0,1,0,25.4,12,1.32,1.32,0,0,0,24.07,10.7Zm-5.92,1.71A5.6,5.6,0,1,0,23.74,18,5.6,5.6,0,0,0,18.15,12.41Zm0,9.17A3.58,3.58,0,1,1,21.73,18,3.58,3.58,0,0,1,18.15,21.58Zm11.29-8.23a6.82,6.82,0,0,0-6.83-6.82h-9a6.82,6.82,0,0,0-6.83,6.82v9a6.82,6.82,0,0,0,6.83,6.82h9a6.82,6.82,0,0,0,6.83-6.82Zm-2.14,9A4.68,4.68,0,0,1,22.61,27h-9a4.68,4.68,0,0,1-4.69-4.68v-9a4.69,4.69,0,0,1,4.69-4.69h9a4.69,4.69,0,0,1,4.69,4.69Z"/></svg>