<svg id="圖層_1" data-name="圖層 1" xmlns="http://www.w3.org/2000/svg" xmlns:xlink="http://www.w3.org/1999/xlink" viewBox="0 0 78 66"><defs><style>.cls-1{fill:none;}.cls-2{clip-path:url(#clip-path);}.cls-3{fill:#994628;}.cls-4{fill:#dcc8b4;}</style><clipPath id="clip-path"><rect class="cls-1" x="1.03" y="0.35" width="76.56" height="65.65"/></clipPath></defs><g class="cls-2"><path class="cls-3" d="M53.63,12,58.4,3.77H20.48l4.11,7.1C12.3,17.24,3.68,31.37,3.68,43.41c0,16.11,15.4,29.16,34.4,29.16s34.41-13,34.41-29.16C72.49,32.06,64.82,18.84,53.63,12Z"/><circle class="cls-4" cx="47.22" cy="37.93" r="1.41"/><path class="cls-4" d="M50.46,26H48.63v-1.4a1.41,1.41,0,1,0-2.81,0V26h-6.4v-1.4a1.41,1.41,0,1,0-2.81,0V26H30.28v-1.4a1.41,1.41,0,1,0-2.81,0V26H25.71a5.64,5.64,0,0,0-5.63,5.63V53.54a5.64,5.64,0,0,0,5.63,5.63H36.47a1.41,1.41,0,0,0,0-2.81H25.71a2.82,2.82,0,0,1-2.81-2.82V31.61a2.82,2.82,0,0,1,2.81-2.82h1.76V30.2a1.41,1.41,0,1,0,2.81,0V28.79h6.33V30.2a1.41,1.41,0,1,0,2.81,0V28.79h6.4V30.2a1.41,1.41,0,1,0,2.81,0V28.79h1.83a2.82,2.82,0,0,1,2.81,2.82v8a1.41,1.41,0,1,0,2.81,0v-8A5.63,5.63,0,0,0,50.46,26Z"/><path class="cls-4" d="M47.58,42.15a8.51,8.51,0,1,0,8.5,8.51A8.52,8.52,0,0,0,47.58,42.15Zm0,14.21a5.7,5.7,0,1,1,5.69-5.7A5.71,5.71,0,0,1,47.58,56.36Z"/><path class="cls-4" d="M49.62,49.25H49V47.78a1.41,1.41,0,1,0-2.81,0v2.88a1.41,1.41,0,0,0,1.41,1.41h2a1.41,1.41,0,0,0,0-2.82Z"/><circle class="cls-4" cx="41.11" cy="37.93" r="1.41"/><circle class="cls-4" cx="34.99" cy="44.05" r="1.41"/><circle class="cls-4" cx="28.87" cy="37.93" r="1.41"/><circle class="cls-4" cx="28.87" cy="44.05" r="1.41"/><circle class="cls-4" cx="28.87" cy="50.17" r="1.41"/><circle class="cls-4" cx="34.99" cy="50.17" r="1.41"/><circle class="cls-4" cx="34.99" cy="37.93" r="1.41"/></g></svg>