<svg id="圖層_1" data-name="圖層 1" xmlns="http://www.w3.org/2000/svg" viewBox="0 0 36 36"><defs><style>.cls-1{fill:#994628;}.cls-2{fill:#f3d56e;}</style></defs><path class="cls-1" d="M18,36A18,18,0,1,1,36,18,18,18,0,0,1,18,36Z"/><path class="cls-2" d="M29,17.44c0-4.94-4.95-9-11-9s-11,4-11,9c0,4.43,3.93,8.14,9.23,8.84.36.08.85.24,1,.54a2.25,2.25,0,0,1,0,1l-.16.95c0,.28-.22,1.09,1,.59A35.41,35.41,0,0,0,26.68,23h0A8,8,0,0,0,29,17.44"/><path class="cls-1" d="M15.76,15.05H15a.21.21,0,0,0-.21.22v4.81a.21.21,0,0,0,.21.21h.78a.21.21,0,0,0,.21-.21V15.27a.21.21,0,0,0-.21-.22"/><path class="cls-1" d="M21.09,15.05h-.78a.21.21,0,0,0-.21.22v2.86l-2.21-3v0h-.94a.22.22,0,0,0-.22.22v4.81a.21.21,0,0,0,.22.21h.77a.21.21,0,0,0,.22-.21V17.22l2.21,3a.12.12,0,0,0,.05.05h.9a.21.21,0,0,0,.21-.21V15.27a.21.21,0,0,0-.21-.22"/><path class="cls-1" d="M13.89,19.09h-2.1V15.27a.22.22,0,0,0-.22-.22H10.8a.22.22,0,0,0-.22.22v4.81h0a.2.2,0,0,0,.06.15h0a.2.2,0,0,0,.15.06h3.09a.21.21,0,0,0,.21-.21V19.3a.21.21,0,0,0-.21-.21"/><path class="cls-1" d="M25.36,16.26a.22.22,0,0,0,.22-.22v-.77a.22.22,0,0,0-.22-.22H22.27a.25.25,0,0,0-.15.06h0a.2.2,0,0,0-.06.15h0v4.81h0a.2.2,0,0,0,.06.15h0a.2.2,0,0,0,.15.06h3.09a.21.21,0,0,0,.22-.21V19.3a.21.21,0,0,0-.22-.21h-2.1v-.82h2.1a.21.21,0,0,0,.22-.21v-.77a.22.22,0,0,0-.22-.22h-2.1v-.81Z"/></svg>