<svg id="圖層_1" data-name="圖層 1" xmlns="http://www.w3.org/2000/svg" viewBox="0 0 60 60"><defs><style>.cls-1{fill:#994628;}.cls-2{fill:#dcc8b4;}</style></defs><path class="cls-1" d="M43.56,7.21,47.72,0H14.65l3.58,6.2C7.51,11.75,0,24.07,0,34.57,0,48.62,13.43,60,30,60S60,48.62,60,34.57C60,24.67,53.31,13.15,43.56,7.21Z"/><path class="cls-2" d="M41.4,36.42a2,2,0,0,1-1.44-.6L30,25.55,20,35.82A2,2,0,0,1,17.17,33l11.4-11.74a2.05,2.05,0,0,1,2.87,0L42.84,33a2,2,0,0,1-.05,2.83A2,2,0,0,1,41.4,36.42Z"/></svg>