<svg id="圖層_1" data-name="圖層 1" xmlns="http://www.w3.org/2000/svg" xmlns:xlink="http://www.w3.org/1999/xlink" viewBox="0 0 78 66"><defs><style>.cls-1{fill:none;}.cls-2{clip-path:url(#clip-path);}.cls-3{fill:#f3d56e;}.cls-4{fill:#994628;}</style><clipPath id="clip-path"><rect class="cls-1" x="-0.92" y="0.35" width="76.56" height="65.65"/></clipPath></defs><g class="cls-2"><path class="cls-3" d="M51.64,12,56.4,3.77H18.48l4.11,7.1C10.3,17.24,1.69,31.37,1.69,43.41c0,16.11,15.4,29.16,34.4,29.16s34.4-13,34.4-29.16C70.49,32.06,62.82,18.84,51.64,12Z"/><path class="cls-4" d="M16.17,25.68V56.17H56V25.68ZM27.84,40.92l-9.33,9.33V31.6ZM19.53,52.53l10-10L32,45.05a5.83,5.83,0,0,0,8.25,0l2.48-2.48,10,10a3.48,3.48,0,0,1,.83,1.31H18.71A3.46,3.46,0,0,1,19.53,52.53ZM44.34,40.92l9.32-9.32V50.25Zm8.3-11.6L38.56,43.4a3.51,3.51,0,0,1-5,0L19.53,29.32A3.46,3.46,0,0,1,18.71,28H53.47A3.48,3.48,0,0,1,52.64,29.32Z"/></g></svg>