<svg id="圖層_1" data-name="圖層 1" xmlns="http://www.w3.org/2000/svg" viewBox="0 0 60 50"><defs><style>.cls-1{fill:#f4d66e;}</style></defs><g id="FeuECz.tif"><path class="cls-1" d="M31,39.4a4.63,4.63,0,0,1-.68-.29l-15.66-10a2.57,2.57,0,0,1-.32-.33L20.8,18.72c.3.24.6.49.92.72a3.81,3.81,0,0,0,5.48-1c.52-.76,1-1.57,1.51-2.31a1.66,1.66,0,0,1,2.48-.56,1.63,1.63,0,0,1,.3,2.43c-1.4,2.19-2.83,4.35-4.17,6.57s-.91,4.52,1,5.71a3.76,3.76,0,0,0,4.8-.59,16.87,16.87,0,0,0,1.74-2.44c.5-.78,1-1.47,2.08-1.26s1.27,1,1.41,1.93Z"/><path class="cls-1" d="M40,25.42a11.35,11.35,0,0,0-1.46-1.15,3.88,3.88,0,0,0-5.16,1.32c-.49.73-.92,1.5-1.43,2.21a1.71,1.71,0,0,1-2.49.6A1.64,1.64,0,0,1,29.1,26c1.35-2.12,2.69-4.24,4-6.35a4.25,4.25,0,0,0,.55-4.38,3.8,3.8,0,0,0-6.19-1,19.51,19.51,0,0,0-1.89,2.65c-.77,1.13-1.58,1.4-2.49.81s-.93-1.25-.24-2.46c1.46-2.54,3.29-4.67,6.19-5.54a9.44,9.44,0,0,1,10.37,2.72,9.63,9.63,0,0,1,1.82,10.49c-.1.26-.15.54-.23.81Z"/><path class="cls-1" d="M16.58,42.1a3.73,3.73,0,0,1,.1-4.82c.69-.93,3.7-5.77,4.36-6.81l5.35,3.41c-.94,1.48-4.24,6.86-5.31,8.25-.79,1-2.06.93-3.23.77Z"/></g><path class="cls-1" d="M46.38,40a2.72,2.72,0,1,1-5.44,0c0-1.5,1.22-6,2.72-6S46.38,38.53,46.38,40Z"/></svg>