<svg id="圖層_1" data-name="圖層 1" xmlns="http://www.w3.org/2000/svg" viewBox="0 0 60 50"><defs><style>.cls-1{fill:#f4d66e;}</style></defs><g id="si8CQI.tif"><path class="cls-1" d="M52.88,29c-.25-4.42-2.23-7.73-6.18-9.61a10.23,10.23,0,0,0-11.22,1.18A10.35,10.35,0,0,0,31.31,29h4a6.77,6.77,0,0,1,6.46-6.66,6.43,6.43,0,0,1,4.08,1.18,6.7,6.7,0,0,1,2.91,5.5H52.6ZM38.05,29h8a4,4,0,1,0-8,0Z"/><path class="cls-1" d="M7.12,31.74H52.83a9.82,9.82,0,0,1-1.45,6.38,9.4,9.4,0,0,1-6.76,4.35l-.24.09H15.61l-.25-.09a9.4,9.4,0,0,1-7.64-6.13A18.53,18.53,0,0,1,7.12,34Z"/><path class="cls-1" d="M52.88,29l-.28,0H48.76a6.7,6.7,0,0,0-2.91-5.5,6.43,6.43,0,0,0-4.08-1.18A6.77,6.77,0,0,0,35.31,29h-4a10.35,10.35,0,0,1,4.17-8.43A10.23,10.23,0,0,1,46.7,19.43C50.65,21.31,52.63,24.62,52.88,29Z"/><path class="cls-1" d="M38.05,29a4,4,0,1,1,8,0Z"/><path class="cls-1" d="M28.85,29c-.25-4.42-2.23-7.73-6.18-9.61a10.23,10.23,0,0,0-11.22,1.18A10.37,10.37,0,0,0,7.28,29h4a6.77,6.77,0,0,1,6.46-6.66,6.43,6.43,0,0,1,4.08,1.18,6.73,6.73,0,0,1,2.92,5.5h3.84ZM14,29h8a4,4,0,1,0-8,0Z"/><path class="cls-1" d="M28.85,29l-.27,0H24.74a6.73,6.73,0,0,0-2.92-5.5,6.43,6.43,0,0,0-4.08-1.18A6.77,6.77,0,0,0,11.28,29h-4a10.37,10.37,0,0,1,4.17-8.43,10.23,10.23,0,0,1,11.22-1.18C26.62,21.31,28.6,24.62,28.85,29Z"/><path class="cls-1" d="M14,29a4,4,0,1,1,8,0Z"/></g></svg>