<svg id="圖層_1" data-name="圖層 1" xmlns="http://www.w3.org/2000/svg" viewBox="0 0 60 50"><defs><style>.cls-1{fill:#f4d66e;}</style></defs><path class="cls-1" d="M45.46,16a1,1,0,0,0,0-1.93H27.05V12.12H45.46a1,1,0,1,0,0-1.92H14.54a1,1,0,1,0,0,1.92h2.89V14H14.54a1,1,0,0,0,0,1.93h2.89v7.69H14.54a1,1,0,0,0-1,1A16.62,16.62,0,0,0,22,39.06a1,1,0,0,0,.47.13h15a1,1,0,0,0,.47-.13,16.62,16.62,0,0,0,8.44-14.43,1,1,0,0,0-1-1H27.05V16ZM21.28,23.66H19.35V12.12h1.93Zm3.85,0H23.2V12.12h1.93Z"/><path class="cls-1" d="M21.45,41.11A2.88,2.88,0,0,0,24.16,43H35.84a2.88,2.88,0,0,0,2.71-1.92Z"/></svg>