<svg id="圖層_1" data-name="圖層 1" xmlns="http://www.w3.org/2000/svg" viewBox="0 0 130 100"><defs><style>.cls-1{fill:#ffd4b2;}.cls-2{fill:#08375e;}.cls-3{fill:#9da6ae;}.cls-4{fill:#c4cbd2;}.cls-5{fill:#368b0e;}.cls-6{fill:#ffb889;}.cls-7{fill:#775436;}.cls-8{fill:#ee5050;}.cls-11,.cls-9{opacity:0.1;}.cls-9{isolation:isolate;}.cls-10{fill:#f6921e;}.cls-12{fill:#fbda67;}.cls-13{fill:#046698;}</style></defs><path class="cls-1" d="M70.56,55.1H61.15a.48.48,0,0,1,.14.35v6.17h2.27l-5.63,5.63a6.48,6.48,0,0,1,.53,2.32v4L72.64,60.87a3.26,3.26,0,0,0-2.08-5.77Z"/><path class="cls-2" d="M61,54.93H56.83l-4.45,4.45a.18.18,0,0,0,0,.25L56.76,64H61a.51.51,0,0,0,.51-.51v-8A.51.51,0,0,0,61,54.93Z"/><path class="cls-3" d="M36.14,70.87A13.92,13.92,0,1,0,50.06,84.79,13.92,13.92,0,0,0,36.14,70.87Zm0,24.13A10.21,10.21,0,1,1,46.35,84.79,10.22,10.22,0,0,1,36.14,95Z"/><path class="cls-4" d="M36.14,96.29a11.5,11.5,0,1,1,11.5-11.5A11.51,11.51,0,0,1,36.14,96.29Zm0-20.42a8.92,8.92,0,1,0,8.92,8.92A8.93,8.93,0,0,0,36.14,75.87Z"/><path class="cls-3" d="M91.82,70.87a13.92,13.92,0,1,0,13.92,13.92A13.92,13.92,0,0,0,91.82,70.87Zm0,24.13A10.21,10.21,0,1,1,102,84.79,10.22,10.22,0,0,1,91.82,95Z"/><path class="cls-4" d="M91.82,96.29a11.5,11.5,0,1,1,11.49-11.5A11.51,11.51,0,0,1,91.82,96.29Zm0-20.42a8.92,8.92,0,1,0,8.91,8.92A8.93,8.93,0,0,0,91.82,75.87Z"/><path class="cls-5" d="M53,86a.7.7,0,0,1,.44-.64.17.17,0,0,0,.11-.17l-.14-1.71H39.17L51.3,70.88l-.06,0-1.77-1.77L35.57,83.52a1.47,1.47,0,0,0,1.09,2.56H53V86Z"/><path class="cls-5" d="M96.36,62.61a4.93,4.93,0,0,0-4.91-4.91H86.84a2.49,2.49,0,0,1,.32,1.24,2.59,2.59,0,0,1-.38,1.35h4.67a2.33,2.33,0,0,1,0,4.65H57.51a.33.33,0,0,1-.09.21l-.51.51a.13.13,0,0,0,0,.13.14.14,0,0,0,.06.12A4.1,4.1,0,0,1,58,67.52H78.9L65.69,81.27a5.17,5.17,0,0,1,2,1.68L82.48,67.52h.82l7.32,17.76a1.3,1.3,0,0,0,1.2.8,1.23,1.23,0,0,0,.49-.1,1.28,1.28,0,0,0,.8-1.19,1.23,1.23,0,0,0-.1-.49L86.09,67.52h5.36A4.92,4.92,0,0,0,96.36,62.61Z"/><path class="cls-3" d="M63.42,80.57a5.32,5.32,0,0,0-5,3.36v1.23a.16.16,0,0,0,.17.17h3.55a.69.69,0,0,1,.69.69V88.2a.69.69,0,0,1-.69.69H59a5.34,5.34,0,1,0,4.42-8.32Z"/><path class="cls-6" d="M58.64,69.57a5.48,5.48,0,0,0-1.75-3.9l-4.72,4.72,1.25,15a.67.67,0,0,1,.28-.06h4.94Z"/><path class="cls-1" d="M60.32,34.43a7.19,7.19,0,0,0,14.37,0V30.64H60.32v3.79Z"/><path class="cls-7" d="M60.34,30.64c0,.17,0,.35,0,.52v3.27a7.17,7.17,0,0,0,4.07,6.47V30.64Z"/><path class="cls-8" d="M67.51,22c-4,0-7.19,2-7.19,5.94v.21h-6a1.38,1.38,0,0,0,0,2.76H74.69V28.15h0C74.69,24.17,71.47,22,67.51,22Z"/><path class="cls-9" d="M67.51,22c-.36,0-.7,0-1,.05,3.5.33,6.2,2.46,6.2,6.09h0v2.76h2V28.15h0C74.69,24.17,71.47,22,67.51,22Z"/><path class="cls-10" d="M63.05,88.2a.87.87,0,0,1-.86.86H53.71a.87.87,0,0,1-.87-.86V86a.87.87,0,0,1,.87-.86h8.48a.87.87,0,0,1,.86.86Z"/><g class="cls-11"><path d="M56.39,88.2V86a.87.87,0,0,1,.86-.86H53.71a.87.87,0,0,0-.87.86V88.2a.87.87,0,0,0,.87.86h3.54A.87.87,0,0,1,56.39,88.2Z"/></g><path class="cls-12" d="M52.37,59.64,63,49a1,1,0,0,1-.51.15.94.94,0,0,1-.43-.1,9.07,9.07,0,0,1-4.91-8.08,9.31,9.31,0,0,1,.23-2,1,1,0,0,1,.19-.39l-.32.29L44.41,51.68Z"/><path class="cls-9" d="M46.14,53.41,57,42.53a9.16,9.16,0,0,1,.13-3.39.91.91,0,0,1,.24-.44.52.52,0,0,0-.11.1L44.41,51.68Z"/><path class="cls-6" d="M86.64,53.8H81.35L73,49.25,62.54,38.8a3.73,3.73,0,0,0-5.09-.15.89.89,0,0,0-.29.49,8.68,8.68,0,0,0-.23,2,9,9,0,0,0,4.91,8.07.91.91,0,0,0,.42.11,1,1,0,0,0,.66-.27l.94-1,6.71,5.4a1,1,0,0,0,.19.12l10.9,5a1,1,0,0,0,.33.09h0a2.58,2.58,0,0,1,5.15.17.86.86,0,0,1,0,.16,1.68,1.68,0,0,0,1.17-1.6v-2A1.68,1.68,0,0,0,86.64,53.8Z"/><circle class="cls-13" cx="84.58" cy="58.94" r="2.75"/><path class="cls-7" d="M71.24,35.86a1.38,1.38,0,0,1-1.38-1.38V33.2a1.38,1.38,0,0,1,2.76,0v1.28A1.38,1.38,0,0,1,71.24,35.86Z"/><path class="cls-4" d="M107.78,100H22.22a1.29,1.29,0,1,1,0-2.58h85.56a1.29,1.29,0,0,1,0,2.58Z"/><path class="cls-13" d="M57.54,64.54l-13-13,0,0-3.79,3.8a3.73,3.73,0,0,0,0,5.25L51.12,71a.51.51,0,0,0,.37.15.51.51,0,0,0,.36-.15l5.69-5.69a.52.52,0,0,0,0-.73Z"/></svg>