<svg id="圖層_1" data-name="圖層 1" xmlns="http://www.w3.org/2000/svg" viewBox="0 0 130 100"><defs><style>.cls-1{fill:#3f5c6c;}.cls-2{fill:#7f8b8c;}.cls-3{fill:#eeb500;}.cls-4{fill:#56595e;}.cls-5{fill:#94a4a4;}.cls-6{fill:#67b8cb;}.cls-7{fill:gray;}.cls-8{fill:#f2d45b;}.cls-9{fill:#ffdf03;}.cls-10{fill:#a48f78;}</style></defs><g id="Page-1"><g id="_013---Train-Carriage" data-name="013---Train-Carriage"><circle id="Oval" class="cls-1" cx="26.5" cy="86.67" r="7.33"/><path id="Shape" class="cls-1" d="M55.83,86.67a6.66,6.66,0,0,1-.23,1.83,7.31,7.31,0,1,1,.23-1.83Z"/><path id="Shape-2" data-name="Shape" class="cls-1" d="M88.83,86.67A7.33,7.33,0,0,1,74.41,88.5a6.3,6.3,0,0,1-.24-1.83,7.33,7.33,0,1,1,14.66,0Z"/><circle id="Oval-2" data-name="Oval" class="cls-1" cx="103.5" cy="86.67" r="7.33"/><path id="Shape-3" data-name="Shape" class="cls-2" d="M114.5,68.33V77.5a3.69,3.69,0,0,1-3.67,3.67H19.17A3.69,3.69,0,0,1,15.5,77.5V68.33Z"/><path id="Shape-4" data-name="Shape" class="cls-3" d="M116.33,31.67v38.5A1.83,1.83,0,0,1,114.5,72h-99a1.83,1.83,0,0,1-1.83-1.83V31.67Z"/><path id="Shape-5" data-name="Shape" class="cls-4" d="M74.17,86.67a6.3,6.3,0,0,0,.24,1.83H55.6a6.66,6.66,0,0,0,.23-1.83,7.27,7.27,0,0,0-2.49-5.5H76.66A7.27,7.27,0,0,0,74.17,86.67Z"/><circle id="Oval-3" data-name="Oval" class="cls-5" cx="26.5" cy="86.67" r="1.83"/><circle id="Oval-4" data-name="Oval" class="cls-5" cx="48.5" cy="86.67" r="1.83"/><circle id="Oval-5" data-name="Oval" class="cls-5" cx="81.5" cy="86.67" r="1.83"/><circle id="Oval-6" data-name="Oval" class="cls-5" cx="103.5" cy="86.67" r="1.83"/><rect id="Rectangle-path" class="cls-6" x="22.83" y="44.5" width="14.67" height="14.67" rx="1.83"/><rect id="Rectangle-path-2" data-name="Rectangle-path" class="cls-6" x="44.83" y="44.5" width="14.67" height="14.67" rx="1.83"/><rect id="Rectangle-path-3" data-name="Rectangle-path" class="cls-6" x="66.83" y="44.5" width="14.67" height="14.67" rx="1.83"/><path id="Rectangle-path-4" data-name="Rectangle-path" class="cls-7" d="M92.5,55.5h14.67V72H92.5Z"/><path id="Shape-6" data-name="Shape" class="cls-6" d="M107.17,44.5v11H92.5v-11a1.83,1.83,0,0,1,1.83-1.83h11A1.83,1.83,0,0,1,107.17,44.5Z"/><path id="Shape-7" data-name="Shape" class="cls-8" d="M107.17,61v3.67H103.5a1.84,1.84,0,0,1,0-3.67Z"/><path id="Shape-8" data-name="Shape" class="cls-2" d="M118.17,99.5H11.83a1.84,1.84,0,0,1,0-3.67H118.17a1.84,1.84,0,0,1,0,3.67Z"/><path id="Shape-9" data-name="Shape" class="cls-9" d="M35.67,61h-11A3.67,3.67,0,0,1,21,57.33v-11a3.66,3.66,0,0,1,3.67-3.66h11a3.66,3.66,0,0,1,3.66,3.66v11A3.66,3.66,0,0,1,35.67,61Zm-11-14.67v11h11v-11Z"/><path id="Shape-10" data-name="Shape" class="cls-9" d="M57.67,61h-11A3.67,3.67,0,0,1,43,57.33v-11a3.66,3.66,0,0,1,3.67-3.66h11a3.66,3.66,0,0,1,3.66,3.66v11A3.66,3.66,0,0,1,57.67,61Zm-11-14.67v11h11v-11Z"/><path id="Shape-11" data-name="Shape" class="cls-9" d="M79.67,61h-11A3.67,3.67,0,0,1,65,57.33v-11a3.66,3.66,0,0,1,3.67-3.66h11a3.66,3.66,0,0,1,3.66,3.66v11A3.66,3.66,0,0,1,79.67,61Zm-11-14.67v11h11v-11Z"/><path id="Shape-12" data-name="Shape" class="cls-5" d="M26.5,95.83a9.17,9.17,0,1,1,9.17-9.16A9.17,9.17,0,0,1,26.5,95.83Zm0-14.66a5.5,5.5,0,1,0,5.5,5.5A5.5,5.5,0,0,0,26.5,81.17Z"/><path id="Shape-13" data-name="Shape" class="cls-5" d="M48.5,95.83a9.16,9.16,0,0,1-6-16,9.38,9.38,0,0,1,12.1,0,9.19,9.19,0,0,1,3.12,6.88A8.78,8.78,0,0,1,57.36,89a9.12,9.12,0,0,1-8.86,6.83Zm0-14.66a5.5,5.5,0,1,0,5.32,6.88A5.39,5.39,0,0,0,54,86.67,5.52,5.52,0,0,0,48.5,81.17Z"/><path id="Shape-14" data-name="Shape" class="cls-5" d="M81.5,95.83A9.13,9.13,0,0,1,72.63,89a8.76,8.76,0,0,1-.3-2.28,9.19,9.19,0,0,1,3.12-6.88,9.38,9.38,0,0,1,12.1,0,9.16,9.16,0,0,1-6,16Zm0-14.66a5.52,5.52,0,0,0-5.5,5.5A4.58,4.58,0,0,0,76.17,88a5.49,5.49,0,1,0,5.33-6.83Z"/><path id="Shape-15" data-name="Shape" class="cls-5" d="M103.5,95.83a9.17,9.17,0,1,1,9.17-9.16A9.17,9.17,0,0,1,103.5,95.83Zm0-14.66a5.5,5.5,0,1,0,5.5,5.5A5.5,5.5,0,0,0,103.5,81.17Z"/><path id="Shape-16" data-name="Shape" class="cls-9" d="M105.33,72V44.5h-11V72H90.67V44.5a3.66,3.66,0,0,1,3.66-3.67h11A3.67,3.67,0,0,1,109,44.5V72Z"/><path id="Shape-17" data-name="Shape" class="cls-7" d="M118.17,31.67V33.5a1.83,1.83,0,0,1-1.84,1.83H13.67a1.83,1.83,0,0,1-1.84-1.83V31.67a11,11,0,0,1,11-11h84.34A11,11,0,0,1,118.17,31.67Z"/><path id="Shape-18" data-name="Shape" class="cls-10" d="M32,20.67v3.66a1.84,1.84,0,1,1-3.67,0V20.67Z"/><path id="Shape-19" data-name="Shape" class="cls-10" d="M101.67,20.67v3.66a1.84,1.84,0,1,1-3.67,0V20.67Z"/></g></g></svg>