<svg id="圖層_1" data-name="圖層 1" xmlns="http://www.w3.org/2000/svg" viewBox="0 0 80 60"><defs><style>.cls-1{fill:#3a556a;}.cls-2{fill:#cb5241;}.cls-3{fill:#df6353;}.cls-4{fill:#647984;}.cls-5{fill:#2f4859;}.cls-6{fill:#e5eaed;}</style></defs><path class="cls-1" d="M22.7,33.32H16.28V17.88H22.7Z"/><path class="cls-2" d="M10.87,29.41a3,3,0,0,0-3,3V50.15H70.72V9.57H40.92V29.41Z"/><path class="cls-3" d="M71.86,46.84a1.54,1.54,0,0,1,1.53,1.54v2.16a1.52,1.52,0,0,1-1.53,1.52H6.26a1.53,1.53,0,0,1-1.53-1.53V48.37a1.52,1.52,0,0,1,1.53-1.53Z"/><path class="cls-1" d="M15.53,48a6,6,0,1,0,6,6,6,6,0,0,0-6-6Z"/><path class="cls-4" d="M12.54,54v0a3,3,0,1,0,3-3A3,3,0,0,0,12.54,54Z"/><path class="cls-1" d="M62.91,48a6,6,0,1,0,6,6,6,6,0,0,0-6-6Z"/><path class="cls-4" d="M59.9,54a3,3,0,1,0,3-3A3,3,0,0,0,59.9,54Z"/><circle class="cls-1" cx="28.53" cy="53.99" r="6.01"/><path class="cls-4" d="M28.51,51a3,3,0,1,0,3,3,3,3,0,0,0-3-3Z"/><path class="cls-1" d="M49.8,48a6,6,0,1,0,6,6,6,6,0,0,0-6-6Z"/><path class="cls-4" d="M46.78,54a3,3,0,1,0,3-3A3,3,0,0,0,46.78,54Z"/><path class="cls-5" d="M24,14V20.2a1,1,0,0,1-1,1H16a1,1,0,0,1-1-1V14a1,1,0,0,1,1-1h7A1,1,0,0,1,24,14Z"/><path class="cls-1" d="M39.82,7.62a1.94,1.94,0,0,0-1.93,2v2.87H74.23V9.55a1.93,1.93,0,0,0-1.94-1.93H39.82Z"/><path class="cls-3" d="M38.32,42.63l-7.49-7.49L31.94,34l7.49,7.48Z"/><path class="cls-3" d="M34.82,42.61l-7.48-7.49,1.1-1.1,7.49,7.49Z"/><path class="cls-3" d="M31.4,42.62l-7.49-7.49L25,34l7.49,7.49Z"/><path class="cls-3" d="M27.9,42.61l-7.49-7.49L21.52,34,29,41.51Z"/><path class="cls-3" d="M24.49,42.61,17,35.13,18.11,34l7.49,7.49Z"/><path class="cls-3" d="M21,42.62l-7.49-7.49L14.61,34l7.49,7.49Z"/><path class="cls-3" d="M44.89,26.4h.46V42.24H66.29V26.4h.46V42.69H44.89Z"/><path class="cls-6" d="M66.75,26.71H44.89V15.62H66.75Z"/><path class="cls-1" d="M53.05,30.64H47.47v-2h5.58Z"/></svg>