<svg id="圖層_1" data-name="圖層 1" xmlns="http://www.w3.org/2000/svg" viewBox="0 0 130 100"><defs><style>.cls-1{fill:#e53950;}.cls-2{fill:#c5c4c9;}.cls-3{fill:#787680;}.cls-4{fill:#aaa;}.cls-5{fill:#d0d2d3;}.cls-6{fill:#76e1f7;}.cls-7{fill:#57565c;}.cls-8{fill:#ed8600;}.cls-9{fill:#abaab0;}</style></defs><path class="cls-1" d="M112.4,62.28H120V54.7H89.65V85h26.54A3.8,3.8,0,0,0,120,81.24V69.87H112.4a3.8,3.8,0,0,1,0-7.59Z"/><path class="cls-2" d="M70.69,35.74V85h19V35.74Z"/><path class="cls-1" d="M55.52,54.7H40.35V85H70.69V54.7Z"/><path class="cls-1" d="M36.56,54.7H10V81.24A3.8,3.8,0,0,0,13.81,85H40.35V54.7Z"/><path class="cls-1" d="M120,62.28v7.59H112.4a3.8,3.8,0,0,1,0-7.59Z"/><path class="cls-3" d="M108.81,32.35,120,54.7H89.65V28.16H102A7.58,7.58,0,0,1,108.81,32.35Z"/><path class="cls-3" d="M97.23,73.66a11.43,11.43,0,1,1-7.58,2.92A11.19,11.19,0,0,1,97.23,73.66Z"/><path class="cls-1" d="M89.65,28.16v7.58H10V32a3.8,3.8,0,0,1,3.79-3.79Z"/><path class="cls-4" d="M55.52,35.74H70.69v19H55.52Z"/><path class="cls-5" d="M40.35,35.74H55.52v19H40.35Z"/><path class="cls-3" d="M40.35,76.58a11.36,11.36,0,1,1-7.58-2.92A11.19,11.19,0,0,1,40.35,76.58Z"/><path class="cls-4" d="M40.35,35.74v19H25.19v-19Z"/><path class="cls-5" d="M10,35.74H25.19v19H10Z"/><path class="cls-6" d="M15.71,64.18V68a1.9,1.9,0,0,1-1.9,1.9H10V62.28h3.79A1.9,1.9,0,0,1,15.71,64.18Z"/><path class="cls-7" d="M32.77,98.3A13.27,13.27,0,1,1,46,85h0A13.27,13.27,0,0,1,32.77,98.3Zm0-22.75A9.48,9.48,0,1,0,42.25,85,9.48,9.48,0,0,0,32.77,75.55Z"/><path class="cls-7" d="M97.23,98.3A13.27,13.27,0,1,1,110.5,85h0A13.28,13.28,0,0,1,97.23,98.3Zm0-22.75A9.48,9.48,0,1,0,106.71,85,9.48,9.48,0,0,0,97.23,75.55Z"/><path class="cls-8" d="M112.4,75.55H120v3.79H112.4Z"/><path class="cls-8" d="M95.33,60.39h7.59v3.79H95.33Z"/><path class="cls-9" d="M30.87,83.14h3.8v3.79h-3.8Z"/><path class="cls-9" d="M95.33,83.14h3.8v3.79h-3.8Z"/><path class="cls-6" d="M10,75.55H17.6v3.79H10Z"/></svg>