<svg id="圖層_1" data-name="圖層 1" xmlns="http://www.w3.org/2000/svg" viewBox="0 0 340 100"><defs><style>.cls-1{fill:#c18032;}</style></defs><path d="M176,66.41c0,2.89-.07,5.55,0,8.21.06,1.52-.55,2.25-2,2.38-1,.1-2.08.28-3.12.32-2,.08-2.41-.35-2.43-2.29V73.67h-4.67c0,2,0,3.94,0,5.85-.1,4.24-3.22,5.41-6.38,5.67a1.69,1.69,0,0,1-1.31-1c-.61-2.58-2.43-3.63-4.8-4.08a2.69,2.69,0,0,1-.74-.25c-.11-.06-.18-.23-.45-.61.73-.1,1.28-.21,1.85-.25s1.25,0,1.88-.06c2-.23,2.42-.68,2.4-2.69,0-.67-.07-1.34-.12-2.23-2.79.24-5.46.51-8.15.68-.87,0-2,.84-2.59-.53a10,10,0,0,1,2.39-1c2.64-.33,5.29-.51,8.19-.77-.13-1.89-.26-3.72-.4-5.79l-10.53.5c-1.41.07-2.82.24-4.23.21a4.88,4.88,0,0,1-1.62-.68c.48-.26,1-.73,1.46-.76,4.33-.3,8.67-.52,13-.77l1.84-.09-.24-5h-6.85a13.83,13.83,0,0,1-2.5-.12c-.4-.07-.73-.54-1.08-.83.4-.23.8-.64,1.2-.65,2.56,0,5.13,0,7.69.07.46,0,.91-.06,1.34-.09V52.37l-3.68.3c-.36,2.2-.66,2.48-2.89,2.76-.42.06-.83.11-1.25.14-2.67.2-2.84,0-3-2.57-.25-3.34-.49-6.68-.8-10-.11-1.28.32-2,1.63-2.16,1-.11,2.08-.24,3.12-.31,1.23-.08,2.15.24,2.32,1.71a1.23,1.23,0,0,0,.87.81c1.12.1,2.26,0,3.4,0V38.2l-12.29-.33a9.78,9.78,0,0,1-1.88,0,6.65,6.65,0,0,1-1.5-.72c.53-.28,1.06-.78,1.59-.78,3.34,0,6.69.1,10,.15,1.29,0,2.59,0,4.17,0,0-1.9,0-3.77,0-5.63,0-1.09.43-1.64,1.48-1.45a52,52,0,0,1,6.1,1.29c1.63.5,1.79,1.74.42,2.78s-.55,2.25-.71,3.54c2.86.22,5.61.45,8.37.61.32,0,.69-.37,1-.62.55-.48,1-1,1.61-1.48a2.32,2.32,0,0,1,3.5.17,3.88,3.88,0,0,1,1,1.19,23,23,0,0,1,.81,2.6,13.22,13.22,0,0,1-2.47.3c-4.53-.35-9.05-.77-13.69-1.18v4.77h4.33c.86-2.45,1.09-2.61,3.8-1.87A17.49,17.49,0,0,1,174,42.94c1,.52,1.09,1.33.39,2.36a7.83,7.83,0,0,0-1.18,2.9,30.28,30.28,0,0,0-.32,4.37,1.42,1.42,0,0,1-1.4,1.56c-1,.11-2,.27-3,.29-2.24,0-2.38-.11-2.66-2.47h-3.21v6.27h6.57a6.65,6.65,0,0,0,.23-1c0-1.22.69-1.77,1.84-1.44a57.8,57.8,0,0,1,5.76,1.88,1.3,1.3,0,0,1,.43,2.3c-1.7,1.34-1.13,3.07-1.38,5.24.75-.41,1.21-.62,1.64-.89.16-.11.23-.34.35-.52.66-.95,1.43-2.26,2.66-1.64a6.76,6.76,0,0,1,2.45,2.81c.44.77.05,1.51-1.09,1.49C180.15,66.38,178.17,66.41,176,66.41Zm-7-1.62V59.74l-6.27.28.24,4.77Zm-.41,1.73H163l.42,5.47h5.15ZM154.82,50.86v-6.1h-4.14l.42,6.35ZM166,50.32l.41-5.16H162.2l.3,5.16Z"/><path d="M104.66,46.1c.88-5,1.78-9.85,2.58-14.73.34-2.11.54-2.48,2.55-2a46.85,46.85,0,0,1,6.51,2.16c1.74.72,1.73,1.85.24,3.05a2.84,2.84,0,0,0-.93,1.32c-.93,3.37-1.79,6.75-2.66,10.14a4.32,4.32,0,0,0-.06.75c2.37.24,4.68.5,7,.7.25,0,.55-.19.79-.35a2.09,2.09,0,0,0,.4-.48c3.5-4.16,5.47-3,7.8,1.21.68,1.21.16,1.92-1.24,1.79-4.63-.41-9.27-.79-13.89-1.31a1.66,1.66,0,0,0-2.13,1.33A36.39,36.39,0,0,1,92,71.21a3.72,3.72,0,0,1-2,.28c6.7-6.69,10.81-14.73,13.78-23.71-.66-.07-1.19-.16-1.73-.19-3.13-.17-6.27-.3-9.4-.53-.49,0-1-.55-1.43-.84.51-.23,1-.68,1.52-.67C96.53,45.68,100.34,45.89,104.66,46.1Z"/><path d="M125.31,76.4a52.07,52.07,0,0,1-6.3-3.12,20.82,20.82,0,0,1-7.41-9.5,3.23,3.23,0,0,1,0-1.28c.42.06,1,0,1.26.21,4.84,3.5,10.43,4.32,16.17,4.63.52,0,1,0,1.57.07.27,0,.65.22.72.43a.87.87,0,0,1-.3.78,9.4,9.4,0,0,0-3.74,5.94C127.11,75.21,126.12,75.66,125.31,76.4Z"/><path d="M236.84,57.55l-8.56.94c-.08,4.13-.17,8.09-.22,12.05A1.71,1.71,0,0,0,230,72.37a47.73,47.73,0,0,0,6.87-.41c.76-.11,1.4-1.15,2-1.8.16-.17.14-.5.24-.74.37-.88.75-1.75,1.13-2.63a13,13,0,0,0,1,2.38A4,4,0,0,0,243,70.75c2.43.88,3.41,3.16,1.86,5.23a6.88,6.88,0,0,1-3.2,2.3,37.23,37.23,0,0,1-14.43,1.3c-3.93-.36-6.63-2.85-6.68-6.8-.08-5.63.34-11.26.69-16.88,0-.57,1-1.34,1.64-1.55a10.37,10.37,0,0,1,3.11-.22c2.33,0,2.63.32,2.77,2.7l7.93-.84c.25-4.81.5-9.58.75-14.36-4.16-.33-8.21-.63-12.26-1a36.17,36.17,0,0,1-4-.56c-.39-.08-.69-.58-1-.89.45-.22.91-.67,1.33-.63q7.34.55,14.67,1.27c1.14.11,1.7-.09,1.76-1.42.09-1.82.52-2.17,2.28-1.73a30.05,30.05,0,0,1,5.13,1.81c1.31.6,1.29,1.32.42,2.51a3.5,3.5,0,0,0-.73,1.77c-.22,4.91-.38,9.81-.53,14.72-.06,2-.23,2.26-2.23,2.36-1.05.06-2.09,0-3.13,0C237.71,59.91,236.55,59.61,236.84,57.55Z"/><path d="M204,65.16h4.43c.92-2.73.93-2.76,3.82-2a22.17,22.17,0,0,1,3.38,1.18c1,.47,1,1.24.47,2.2a7.69,7.69,0,0,0-1.08,2.8,40.65,40.65,0,0,0-.16,5.63,1.72,1.72,0,0,1-1.64,2c-.72.12-1.45.23-2.18.29-2.9.23-2.9.22-3.32-2.67-.59,0-1.2,0-1.81,0-1.25-.05-1.85.4-1.55,1.76a1.31,1.31,0,0,1-1.28,1.75c-1.45.13-2.91.19-4.37.21-1,0-1.32-.55-1.37-1.51-.18-3.91-.41-7.82-.65-11.73a1.52,1.52,0,0,1,1.37-1.77,25.7,25.7,0,0,1,3.26-.41C203.5,62.83,203.57,62.92,204,65.16Zm4.37,1.65H204c.12,2.2.23,4.3.34,6.49L207.9,73C208.06,70.9,208.22,68.93,208.39,66.81Z"/><path d="M203.13,46c2.14.11,4.28.28,6.42.28a4.68,4.68,0,0,0,1.82-.79c.18-.09.25-.37.42-.46,1-.48,2.5-1.61,3.05-1.27a8.59,8.59,0,0,1,2.7,3.41c.41.79-.41,1.13-1.21,1.08-2.09-.12-4.18-.26-6.27-.32-4.44-.14-8.88-.24-13.33-.35-.26,0-.56.08-.77,0a8.78,8.78,0,0,1-1.19-.75c.38-.26.75-.73,1.14-.75,1.56-.07,3.14,0,4.7,0h2.52Z"/><path d="M203.42,35.89c2,.78,4.07,1.47,6,2.37a1.68,1.68,0,0,1,.61,2.85A18.26,18.26,0,0,1,206.12,44c-.28.16-1.36-.42-1.58-.89-.9-1.87-1.61-3.82-2.37-5.75C201.71,36.22,202.45,36.17,203.42,35.89Z"/><path d="M200.67,60.67c-.68-.29-2-.59-2-.88,0-1.36,1.26-.86,2-.93,2.39-.21,4.79-.25,7.17-.5a3,3,0,0,0,1.7-1c.73-.78,1.48-1.86,2.55-1.27a5.88,5.88,0,0,1,2.27,2.58c.46,1-.56,1.09-1.31,1.12-2.87.1-5.73.19-8.59.31-1.25,0-2.5.16-3.75.24Z"/><path d="M199.58,54.41l-.78-.75c.34-.26.66-.72,1-.75,2.6-.18,5.2-.32,7.81-.38a2.25,2.25,0,0,0,2-1c.5-.68,1.79-1.54,2.29-1.31a5.13,5.13,0,0,1,2.39,2.43c.49,1.07-.63,1.16-1.43,1.19-3.33.12-6.67.22-10,.36C201.92,54.2,200.94,54.31,199.58,54.41Z"/><g id="rGuj6I.tif"><path class="cls-1" d="M268.6,55.92l.2-.62q2.51-8,5-16.09c.27-.89.66-1.1,1.54-.82l20.9,6.53c.85.27,1.07.68.8,1.53q-3.65,11.69-7.31,23.38l-.14.47L286,69.18l.15-.45c.39-1.28.8-2.54,1.19-3.82a2.79,2.79,0,0,0-2-3.74L269.19,56.1Zm14.15-4.42h0l5.15,1.61A1,1,0,0,0,289,53a.87.87,0,0,0,.32-.9,1,1,0,0,0-.77-.76L281.11,49c-1-.32-2-.65-3.06-1a.94.94,0,0,0-1.32.74c-.07.49.22.88.83,1.07ZM281.31,56l3.31,1,2.05.64a1,1,0,0,0,1.2-.6.92.92,0,0,0-.63-1.17l-.42-.14-9.5-3a7.45,7.45,0,0,0-.92-.27.89.89,0,0,0-1,1.21,1.36,1.36,0,0,0,.73.62C277.84,54.89,279.58,55.42,281.31,56Zm2.81-9,2.55.8c.94.29,1.87.59,2.81.87a.92.92,0,0,0,1.19-.6,1,1,0,0,0-.64-1.17l-.21-.07L279.6,43.65a2.59,2.59,0,0,0-.37-.11.92.92,0,0,0-1.07.69c-.15.52.12,1,.73,1.15Z"/><path class="cls-1" d="M289,72.14a.18.18,0,0,1,0,.06c-.31,1.3-.59,1.71-2.11,1.23-7.12-2.26-14.26-4.47-21.4-6.7A3.74,3.74,0,0,1,262.64,63a4.69,4.69,0,0,1,.19-1.12c.42-1.38.86-2.77,1.29-4.15a1,1,0,0,1,1.43-.76l19.27,6a1,1,0,0,1,.76,1.44c-.43,1.38-.87,2.76-1.3,4.15A1.86,1.86,0,0,0,285.56,71l3.35,1.06A.24.24,0,0,1,289,72.14Z"/></g><g id="MZc7Ie.tif"><path class="cls-1" d="M72.18,57.83a2.08,2.08,0,0,0,.06-.36c0-.21-.06-.42-.1-.63a17.94,17.94,0,0,0-3.47-7.46,2.08,2.08,0,0,1-.41-2c.71-3.07,1.36-6.16,2-9.23.29-1.36-.08-1.88-1.41-1.88H46.38c-1.26,0-1.65.54-1.38,1.79.67,3.12,1.33,6.25,2,9.36a2.06,2.06,0,0,1-.44,2,15.16,15.16,0,0,0-3.09,6.17c2.11-.57,3.58.27,4.86,1.7s2,1.41,3.33,0c2.38-2.54,4.44-2.55,6.84,0,1.44,1.5,2.05,1.5,3.44,0,2.38-2.53,4.4-2.54,6.84,0C70.1,58.54,70.39,58.6,72.18,57.83Zm.3,2.45c-1.84.52-3.4.43-4.74-.92-2.28-2.29-2.3-2.27-4.65,0a3.82,3.82,0,0,1-5.67-.06c-.36-.36-.67-.77-1-1.13a1.58,1.58,0,0,0-2.47,0c-.31.29-.56.64-.85,1a3.85,3.85,0,0,1-5.94.12A15,15,0,0,0,45.88,58c-1-.76-2.88-.35-3,.64a25.74,25.74,0,0,0,0,3l1-.22c2-.45,3.4.49,4.65,1.95,1.08,1.27,2,1.22,3.08,0,.26-.28.49-.59.77-.86a3.83,3.83,0,0,1,5.59,0c2.36,2.27,2.36,2.27,4.75,0a3.72,3.72,0,0,1,5.46,0c.43.42.76,1,1.26,1.25a4,4,0,0,0,2.24.31c.36-.08.69-.93.79-1.47A12.58,12.58,0,0,0,72.48,60.28Z"/><path class="cls-1" d="M49,74.7a18.14,18.14,0,0,1-5.8-10,4.28,4.28,0,0,1-.07-.48c1.48-1,2.35-.87,3.45.36,2.37,2.66,4.49,2.69,6.89.11,1.44-1.53,2.08-1.52,3.52.06,2.25,2.48,4.46,2.47,6.72,0,1.39-1.54,2.19-1.58,3.52,0a4.37,4.37,0,0,0,4.48,1.71,17.52,17.52,0,0,1-5.31,8.23Z"/><path class="cls-1" d="M72.18,57.83c-1.79.77-2.08.71-3.35-.61-2.44-2.52-4.46-2.51-6.84,0-1.39,1.48-2,1.48-3.44,0-2.4-2.52-4.46-2.51-6.84,0-1.36,1.45-2,1.49-3.33,0s-2.75-2.27-4.86-1.7a15.16,15.16,0,0,1,3.09-6.17,2.06,2.06,0,0,0,.44-2c-.72-3.11-1.38-6.24-2-9.36-.27-1.25.12-1.79,1.38-1.79H68.87c1.33,0,1.7.52,1.41,1.88-.66,3.07-1.31,6.16-2,9.23a2.08,2.08,0,0,0,.41,2,17.94,17.94,0,0,1,3.47,7.46c0,.21.08.42.1.63A2.08,2.08,0,0,1,72.18,57.83Z"/><path class="cls-1" d="M72.48,60.28a12.58,12.58,0,0,1,0,2.33c-.1.54-.43,1.39-.79,1.47a4,4,0,0,1-2.24-.31c-.5-.21-.83-.83-1.26-1.25a3.72,3.72,0,0,0-5.46,0c-2.39,2.28-2.39,2.28-4.75,0a3.83,3.83,0,0,0-5.59,0c-.28.27-.51.58-.77.86-1.12,1.21-2,1.26-3.08,0C47.25,62,45.86,61,43.85,61.46l-1,.22a25.74,25.74,0,0,1,0-3c.12-1,2-1.4,3-.64a15,15,0,0,1,1.25,1.27,3.85,3.85,0,0,0,5.94-.12c.29-.31.54-.66.85-1a1.58,1.58,0,0,1,2.47,0c.36.36.67.77,1,1.13a3.82,3.82,0,0,0,5.67.06c2.35-2.28,2.37-2.3,4.65,0C69.08,60.71,70.64,60.8,72.48,60.28Z"/></g></svg>