<svg id="圖層_1" data-name="圖層 1" xmlns="http://www.w3.org/2000/svg" viewBox="0 0 440 160"><defs><style>.cls-1{fill:#80adb7;}.cls-2{fill:#fff;}.cls-3{fill:#c18032;}</style></defs><path class="cls-1" d="M87.05,22.14s-9.71,3.23-12.14,15.37-4.85,18.61,0,25.08,5.66,12.94,13.75,11.32,17.8-4.85,21.85,0S121,82,121,82s3.23-8.1,11.32-8.9,55.83-.81,68-.81,46.12-.81,63.11,0,30.74-2.43,44.49,0,20.76-1.89,27.24-.27,20.22.81,22.65-4.86,5.71-7.28,3.66-15.77,1.32-12.18-1.38-17.57c-2.91-5.84-7.95-10.23-17.53-12.14-13.49-2.7-64.76-1.35-72.85-1.35s-33,1.8-41.07,1.8H87.05Z"/><path d="M288.44,93.31c2.62.2,5.16.43,7.71.57a2.87,2.87,0,0,0,1.23-.48c.1,0,.16-.17.25-.25.77-.75,1.54-1.71,2.75-1.36s1.76,1.68,2.2,2.82c.35.9-.23,1.49-1.29,1.41-1.44-.12-2.86-.31-4.38-.47V101a5.15,5.15,0,0,0,1.06-.54c.32-.29.53-.71.83-1,1-1,1.81-1,2.7.11a.85.85,0,0,1,.14.19c.26.72.85,1.52.71,2.14-.24,1-1.34.57-2.09.6-1.11.06-2.21,0-3.38,0v3.8a6.91,6.91,0,0,0,1.07-.79c1.9-2.28,3.09-1.36,4.13.8.48,1,.14,1.52-1,1.54-1.35,0-2.71,0-4.27,0v4c.78.06,1.38.12,1.47-.91a1.3,1.3,0,0,1,1.83-1.17,33.92,33.92,0,0,1,4.66,1.84,1.33,1.33,0,0,1,.28,2.41,2.9,2.9,0,0,0-1,2.41c-.18,2.47-.2,5-.51,7.41a20.47,20.47,0,0,1-1.25,4.94,4.75,4.75,0,0,1-5.45,2.48,2,2,0,0,1-1.13-1.21c-.45-1.41-.91-2.72-2.49-3.27-.23-.08-.32-.55-.47-.85l.78-.3s.08,0,.12,0c3.24.31,4-.47,3.81-3.92-.33.17-.64.47-.92.44a1.61,1.61,0,0,1-1.1-.53,20.42,20.42,0,0,1-.84-2.1c-.31-.69-.71-1.33-1.15-2.15,1.51-1,2.74.2,4.16.46l.37-4.48-8.66,1.07c-.52,2.07-.52,2.07-2.78,2h-.35c-3.26-.13-3.45-.43-3.57-3.61-.24-6.27-.57-12.53-.9-18.8-.09-1.62.15-2.06,1.8-2.35a16.22,16.22,0,0,1,2.61-.21C287.9,91.49,288,91.58,288.44,93.31Zm0,1.8.31,5.92h2.8l0-5.91Zm.76,17.76,2.33-.27v-4.68h-2.33Zm-.2-10.16v3.53h2.5v-3.7Z"/><path d="M324.21,90c3.28,2.54,7,3.56,10.91,4.26.9.16,1.83.19,2.73.37.27,0,.71.42.69.6s-.33.81-.58.86c-1.9.38-2.64,1.8-3.2,3.39-.76,2.14-2.06,2.63-4.06,1.46a18.18,18.18,0,0,1-7.41-8.4c-.15-.32-.28-.65-.58-1.37a22.39,22.39,0,0,1-2.06,2.39,36.73,36.73,0,0,1-14.27,7.31c-.22.07-.5-.06-.74-.1.11-.34.12-.78.35-1,1.41-1.41,2.89-2.76,4.3-4.17a34.13,34.13,0,0,0,6.62-9.06,1.94,1.94,0,0,1,2.61-1.21A31.2,31.2,0,0,1,324,87C325.74,87.94,325.75,88.62,324.21,90Z"/><path d="M313.76,115.9l-1.63.34c.12,1.49-.88,1.92-2,2.05-3.6.41-3.35,1-3.5-2.75-.11-2.87-.36-5.74-.63-8.61a1.76,1.76,0,0,1,1.47-2.2c.62-.15,1.24-.29,1.87-.39,1.62-.26,1.79-.11,2.21,1.47a1.1,1.1,0,0,0,.78.65,14.41,14.41,0,0,0,2.07,0c.12-.16.19-.21.21-.28.61-2.14.84-2.31,3-1.58a13.37,13.37,0,0,1,2.66,1.3,1.38,1.38,0,0,1,.46,2.09c-.93,1.18-.91,2.53-1,3.86s-.22,2.87-.23,4.31A1.4,1.4,0,0,1,318,117.8c-.64,0-1.28.11-1.92.15C314.16,118.07,314,117.93,313.76,115.9Zm.09-1.71.53-6.11h-2.67l.34,6.41Z"/><path d="M326.89,106.51h3.21a8.4,8.4,0,0,0,.26-1.08c.12-.86.71-1.26,1.43-1a29.34,29.34,0,0,1,4.15,1.69,1.16,1.16,0,0,1,.49,1.83c-1.17,1.17-1,2.63-1.15,4s-.19,2.87-.22,4.3a1.33,1.33,0,0,1-1.34,1.5l-2.63.2c-1.07.06-1.69-.36-1.6-1.53a4,4,0,0,0-.07-.63c-1,.15-2.12-.16-2.18,1.41,0,.29-.56.72-.93.8a15.78,15.78,0,0,1-3.06.43c-.72,0-1.13-.45-1.18-1.23-.22-3.54-.46-7.08-.69-10.62a1.34,1.34,0,0,1,1.1-1.59,15.14,15.14,0,0,1,1.76-.33C326.25,104.46,326.34,104.54,326.89,106.51Zm.46,7.88a6.93,6.93,0,0,0,1.5-.24c.3-.12.69-.46.72-.74.18-1.76.28-3.54.4-5.32h-3.08Z"/><path d="M329.51,129c-2.4,1.93-4.65,3.76-6.93,5.55a3,3,0,0,1-1.07.32,4.23,4.23,0,0,1,.05-1.07c1.26-4.06,2.58-8.11,3.83-12.18.44-1.44.8-1.76,2.21-1.22a31.16,31.16,0,0,1,4.44,2c1.3.74,1.18,1.85-.06,2.72a14.26,14.26,0,0,0-1.6,1.53c1.8.57,3.41,1,4.93,1.59s1.88,1.53,1.15,3a10.21,10.21,0,0,1-2.36,3.06c-1.27,1.1-2,.76-2.68-.8S330.12,130.38,329.51,129Z"/><path d="M314.58,127c1.7.59,3.15,1,4.53,1.61a1.7,1.7,0,0,1,.88,2.73,12.49,12.49,0,0,1-2.59,2.74c-1,.77-1.73.4-2.19-.77-.58-1.48-1.22-2.93-1.77-4.24L307,133.28a2.08,2.08,0,0,1-.75.36,1.47,1.47,0,0,1-.88-.12c-.08,0,0-.53.09-.74a40.66,40.66,0,0,0,4.28-11.26c.24-1,.88-1.43,1.87-1a42.61,42.61,0,0,1,4.68,2.07c1.42.79,1.33,1.88,0,2.81A19,19,0,0,0,314.58,127Z"/><path d="M325.78,101.64c-3.67-.18-7.34-.34-11-.58-.38,0-.73-.52-1.09-.79.38-.26.77-.74,1.16-.74,1.95,0,3.91.16,5.86.16a2.41,2.41,0,0,0,1.34-.61c.4-.3.65-.81,1-1.14a1.82,1.82,0,0,1,2.82.17A7.52,7.52,0,0,1,327,99.8C327.73,101.22,327.31,101.83,325.78,101.64Z"/><path d="M284.88,120.51c-.48,1.63-.9,3.44-1.55,5.17-.45,1.18-1.43,1.33-2.41.5a6.92,6.92,0,0,1-1.39-1.61c-1-1.72-.82-2.39.91-3.43.82-.49,1.55-1.12,2.34-1.65.47-.31,1-.56,1.48-.84Z"/><path d="M290,123.27c0,1.52-2.35,3.19-3.71,2.54a1.63,1.63,0,0,1-.75-1.29,52.83,52.83,0,0,1,.82-5.29c.05-.26.72-.65.93-.56C288.21,119.07,290,122.17,290,123.27Z"/><path d="M294.36,121.89c0,1.19-2,2.94-3,2.68a1.4,1.4,0,0,1-.73-.9c-.34-1.52-.56-3.06-.86-4.58-.11-.59,0-1,.69-.92,1.12.11,3.56,2.26,3.86,3.37C294.32,121.69,294.35,121.85,294.36,121.89Z"/><path d="M244.39,88.77h1.93c-.15-1.6-.27-3.13-.44-4.66-.12-1.08.25-1.72,1.3-1.65a29.43,29.43,0,0,1,4.47.68,1.1,1.1,0,0,1,.73,1.78c-1.08,1.38-.32,2.83-.67,4.31H254c.12-1.83.26-3.69.36-5.55s.22-2,2.07-1.82a17.12,17.12,0,0,1,3.55,1c.8.29,1.19,1.1.57,1.73-1.39,1.38-.7,3.07-1,4.66,1,.27,1.78.44,1.89-1a1.28,1.28,0,0,1,1.81-1.19,26.35,26.35,0,0,1,4,1.6c1.11.59,1.09,1.67.21,2.56a2.2,2.2,0,0,0-.61,1.2q-.51,5.11-.92,10.26c-.16,2.15-.37,2.45-2.55,2.58a7.27,7.27,0,0,1-2.72-.2c-.53-.17-.85-1-1.26-1.46l.28-.43c-.79,0-1.57,0-2.35,0-3.48.06-7,.1-10.43.21-.4,0-.78.43-1.17.67s-.67.63-1,.69c-1.18.19-2.37.29-3.56.38-.9.06-1.25-.45-1.33-1.32-.45-4.85-.9-9.7-1.45-14.54-.14-1.28.3-1.88,1.48-2.07.75-.12,1.5-.25,2.25-.32C243.86,86.7,244.06,86.88,244.39,88.77Zm2.87,6.69c-.08-1.73-.16-3.3-.24-4.88H244.6c.2,1.71.39,3.31.57,4.88Zm13.2-.19c.17-1.44.34-2.8.5-4.22h-2.58v4.22ZM251.9,91v4.21h1.8V91Zm6.43,6v4.46h1.54l.36-4.46Zm-6.46,0v4.54l1.62-.1V96.87Zm-6.5.24.4,4.41h1.41V97.11Z"/><path d="M228.13,118.79l-4.36.7v3.87a13,13,0,0,1,1-1.38c.54-.56,1.31-1,1.88-.29a8.94,8.94,0,0,1,1.23,2.45,2.76,2.76,0,0,1-1.14.58c-.95.09-1.91,0-3.1,0,0,1.45,0,2.8,0,4.14,0,1-.3,1.54-1.27,1.69s-2.2.41-3.31.48c-1.3.08-1.58-.29-1.57-1.62,0-4.12,0-8.23,0-12.35,0-1.51-.18-3-.28-4.54a1.87,1.87,0,0,1,1.64-2.25,14.8,14.8,0,0,1,2.48-.34c1.37-.08,1.51.05,1.91,1.3h4.74c.55-2.19.86-2.45,2.92-2a16,16,0,0,1,3.34,1.24c1,.47,1,1.31.42,2.21a3.72,3.72,0,0,0-.68,1.9c.06,3.91.25,7.83.35,11.74a17.84,17.84,0,0,1-.18,3.58,5.66,5.66,0,0,1-4.58,4.21c-.7.08-1.29-.07-1.48-.87-.36-1.46-.91-2.74-2.57-3.15a.74.74,0,0,1-.35-.63c0-.18.37-.39.6-.43,2.83-.46,2.83-.45,2.67-3.27C228.38,123.4,228.25,121,228.13,118.79Zm-4.59-1.05.4.08c.24-.43.47-.87.73-1.28.7-1.07,1.34-1.13,2.16-.18.4.47.74,1,1.25,1.69v-5.26l-4.54.25Z"/><path d="M217.66,105.53c-.08-1.58-.12-3.17-.26-4.75-.26-3.06-.56-6.13-.87-9.19-.18-1.76,0-2.1,1.73-2.49a9.38,9.38,0,0,1,1.66-.25c1.46-.1,1.78.12,1.94,1.57.08.74.43,1,1.06,1h6.48a2.37,2.37,0,0,0,.1-.33c.45-2,.83-2.27,2.79-1.55a14.56,14.56,0,0,1,3,1.7c.63.43.92,1.26.33,1.76-1.11.93-1.06,2.17-1.21,3.36-.25,2.1-.41,4.21-.6,6.32a11.59,11.59,0,0,0,0,1.18c.12,0,.24,0,.26,0,.82-1.81,1.28-1.94,2.86-.67a16.35,16.35,0,0,1,1.91,1.81,1.08,1.08,0,0,1-.36,1.87c-1.39.71-2.79,1.38-4.22,2a4.59,4.59,0,0,1-1.35.14,8.4,8.4,0,0,1,.14-1.24c.17-.66.41-1.29.64-2l-16.35,1.58c-.11,1.26-.15,2.5-.34,3.71-.25,1.52-1.33,1.93-2.62,1.06a7.4,7.4,0,0,1-1.11-.9c-1.58-1.53-1.54-1.8-.29-3.6.77-1.1,1.3-2.37,2-3.54a11.28,11.28,0,0,1,1-1.22c.22.43.46.86.66,1.3s.44,1.07.65,1.61Zm6.26-7.87c.45-1.93,1-2.18,2.76-1.28a2.33,2.33,0,0,1,1,.76c.25.44.52,1.18.32,1.49-1.12,1.7-.63,3.55-.68,5.34,0,.84.47.86,1.06.6.26-3.8.52-7.53.8-11.42h-7l.33,4.51Zm0,7.42V99.31h-1.11v5.88Z"/><path d="M255.49,120.78h-5.93c.15,1.61-.84,1.89-1.92,2-1.31.18-2.62.34-3.93.49a1.05,1.05,0,0,1-1.3-1c-.39-2.93-.78-5.86-1.19-8.78a1.22,1.22,0,0,1,1.06-1.57c1.42-.27,2.84-.5,4.26-.67a1.31,1.31,0,0,1,1.61,1.23c.08.75.45.9,1.12.85,2.31-.18,4.62-.33,6.87-.48.82-2.2,1.12-2.41,3.27-1.84a24.11,24.11,0,0,1,3.6,1.29c1.15.52,1.18,1.31.34,2.28a3,3,0,0,0-.71,1.56c-.17,1.54-.21,3.1-.26,4.66,0,1.32-.37,1.77-1.65,1.84-1.07.07-2.15,0-3.23,0S255.54,122.21,255.49,120.78Zm-6.8-5.9c.24,1.62.44,3,.64,4.31h6.23c.17-1.63.32-3.15.49-4.78Z"/><path d="M239.43,134.45c-.61-.12-1.68.54-1.78-.67s1.07-.85,1.7-.88q9.81-.47,19.62-.8a1.58,1.58,0,0,0,1.51-.83c.67-1.07,1.45-2.35,2.9-2.18s2.45,1.43,3.14,2.72c.55,1,.1,1.66-1.08,1.69q-11.13.33-22.25.69C242,134.23,240.72,134.36,239.43,134.45Z"/><path d="M255.36,122.74c1.7.74,3.46,1.36,5.08,2.26,1.19.66.94,1.78-.26,2.47-1.51.86-2.92,1.9-4.4,2.83a21.3,21.3,0,0,1-2,1c-.69.35-1,.09-.89-.64.28-2.17.58-4.34.87-6.51a1.2,1.2,0,0,1,1.5-1.14Z"/><path d="M251,126.67c0,2.11-2.29,4.36-4,4.19a2.09,2.09,0,0,1-1.23-1.05c-.77-1.37-1.36-2.84-2.12-4.22-.42-.77-.24-1.17.55-1.23a9.58,9.58,0,0,1,5.67,1A4.71,4.71,0,0,1,251,126.67Z"/><path d="M249.29,107.21c1.43.09,2.87.16,4.3.3a1.53,1.53,0,0,0,1.62-.68c.62-.92,1.41-1.7,2.67-1.43s1.8,1.4,2.26,2.45a1.1,1.1,0,0,1-1.12,1.61c-4.43-.2-8.85-.42-13.28-.69-.31,0-.59-.47-.88-.72.32-.25.62-.68.95-.71,1.15-.08,2.32,0,3.48,0Z"/><path d="M123.43,110.78q1,8.14-3.62,13-4.26,4.4-12.62,5.45l-6.58.84c-2.16.27-3.36-.6-3.62-2.6l-3.38-26.65A3.43,3.43,0,0,1,94,98.37a4,4,0,0,1,2.48-1l6.58-.84q9.19-1.16,14,1.91Q122.29,101.85,123.43,110.78Zm-5.13.65q-.84-6.63-3.93-9.07t-9.85-1.7l-5.63.72L102,125.57l5.74-.72Q119.81,123.31,118.3,111.43Z"/><path d="M107.36,130.62l-6.58.83c-2.91.37-4.78-1-5.13-3.77L92.27,101a4.55,4.55,0,0,1,.64-3.49l.06-.08A5.24,5.24,0,0,1,96.29,96l6.58-.83c6.42-.82,11.44-.11,14.91,2.11,3.84,2.5,6.19,7,7,13.3.74,5.83-.6,10.59-4,14.14C117.74,127.9,113.22,129.87,107.36,130.62ZM95,99.24a2.64,2.64,0,0,0-.07,1.45l3.38,26.65c.14,1.08.51,1.63,2.1,1.42l6.58-.83c5.23-.67,9.21-2.37,11.82-5.05,2.82-3,3.88-6.88,3.24-11.93-.7-5.5-2.64-9.33-5.77-11.36-2.91-1.86-7.32-2.43-13.1-1.7l-6.58.83A3,3,0,0,0,95,99.24Zm12.84,27-7.08.9L97.38,100.2l7-.88c4.82-.61,8.48.05,10.87,2s3.81,5.13,4.42,10C120.74,119.91,116.67,125.07,107.87,126.19Zm-4.74-2.13,4.4-.56c7.34-.93,10.33-4.71,9.42-11.9-.51-4-1.66-6.79-3.42-8.18s-4.78-1.93-8.84-1.41l-4.28.54Z"/><path d="M156.38,124c0,1.47-.9,2.2-2.69,2.2H141.26c-1.76,0-2.64-.73-2.64-2.2s1-2.13,2.93-2.13H145V97.44H141.1c-1.65,0-2.48-.71-2.48-2.14s.88-2.13,2.64-2.13h12.43c1.79,0,2.69.71,2.69,2.13s-.88,2.14-2.64,2.14H150.2v24.39h3.54Q156.38,121.83,156.38,124Z"/><path d="M153.69,127.51H141.26c-2.5,0-4-1.32-4-3.55,0-1,.41-3.49,4.28-3.49h2.07V98.79H141.1c-2.4,0-3.83-1.3-3.83-3.49s1.49-3.49,4-3.49h12.43c3.76,0,4.05,2.67,4.05,3.49,0,2.19-1.5,3.49-4,3.49h-2.18v21.68h2.18c2.5,0,4,1.31,4,3.49S156.22,127.51,153.69,127.51Zm-12.14-4.33c-1.57,0-1.57.46-1.57.78s0,.84,1.28.84h12.43c1.34,0,1.34-.41,1.34-.84s0-.78-1.29-.78h-4.89V96.08h4.89c1.29,0,1.29-.36,1.29-.78s0-.78-1.34-.78H141.26c-1.28,0-1.28.36-1.28.78s0,.78,1.12.78h5.23v27.1Z"/><path d="M200.64,95.14a3.21,3.21,0,0,1-.71,1.48L187.38,113l-.67,11.67c-.1,1.64-1,2.42-2.73,2.32s-2.53-1-2.43-2.62l.67-11.67-9.43-17a3.94,3.94,0,0,1-.6-2.17c.08-1.35.88-2,2.42-1.89a2.61,2.61,0,0,1,2.27,1.6l8.1,15.56,11-14.51A2.8,2.8,0,0,1,198.4,93a2.66,2.66,0,0,1,1.59.66A2,2,0,0,1,200.64,95.14Z"/><path d="M183.9,128.35a3.57,3.57,0,0,1-3.71-4l.66-11.28-9.24-16.7a5.16,5.16,0,0,1-.77-2.91c.12-2.11,1.56-3.29,3.84-3.16a3.94,3.94,0,0,1,3.41,2.34l7.11,13.64,9.68-12.8a4.1,4.1,0,0,1,3.59-1.8,4,4,0,0,1,2.41,1l.09.09a3.27,3.27,0,0,1,1,2.52,4.3,4.3,0,0,1-1,2.2L188.71,113.5l-.65,11.25C187.92,127.15,186.37,128.49,183.9,128.35ZM174.53,93c-.95-.06-1,.16-1,.61A2.68,2.68,0,0,0,174,95l9.63,17.4-.7,12.07c-.05.75,0,1.12,1.16,1.18s1.25-.28,1.29-1l.71-12.09,12.8-16.72a2.53,2.53,0,0,0,.42-.74.7.7,0,0,0-.22-.43,1.21,1.21,0,0,0-.74-.28c-.32,0-.76,0-1.29.73l-12.26,16.21-9.09-17.45C175.31,93.1,174.91,93,174.53,93Z"/><path class="cls-2" d="M110.24,52.1a64,64,0,0,1-6.5,3.19L103,53.5c1-.4,1.83-.79,2.57-1.16V47h-2.12V45.11h2.12V41H103.2V39.08h6.55V41H107.5v4.16h1.84V47H107.5v4.44c1.06-.52,1.85-.94,2.38-1.25Zm11.91.24a13.54,13.54,0,0,1-.22,2.8,2.2,2.2,0,0,1-.78,1.38,3.89,3.89,0,0,1-2,.38,5.13,5.13,0,0,1-1.55-.14,1.4,1.4,0,0,1-.65-.55,2.1,2.1,0,0,1-.28-1.17V46.57h-1.83A16.57,16.57,0,0,1,114,52.8a8.94,8.94,0,0,1-4,4.5l-1.57-1.38a7.68,7.68,0,0,0,3.41-3.12q1.14-2,1.08-6.23h-2.78V44.72h11.72v1.85h-3.29v8.12c0,.25.2.38.61.38s.76-.1.82-.3a7.49,7.49,0,0,0,.17-1.42c0-.75.07-1.33.07-1.73ZM121,40.64H110.93V38.76H121Z"/><path class="cls-2" d="M130.84,40.6c0,.14-.48,1.57-1.42,4.29A12.31,12.31,0,0,1,130.71,50a3.17,3.17,0,0,1-.31,1.59,1.7,1.7,0,0,1-.83.72,4.93,4.93,0,0,1-1.71.21l-.54-1.83,1.09,0c.31,0,.47-.28.47-.84a9.58,9.58,0,0,0-1.35-4.81c.43-1.19.89-2.69,1.38-4.49h-1.79V57.13h-1.84V38.74h5.56Zm12.38-.2c0,3.86-.05,6.88-.16,9.08s-.21,3.79-.33,4.77a3.15,3.15,0,0,1-.72,2,3.83,3.83,0,0,1-1,.67,8.09,8.09,0,0,1-2.35.2l-1.36,0-.67-1.72c.5,0,1,0,1.5,0a7,7,0,0,0,2.2-.18,1.13,1.13,0,0,0,.49-.56,40.62,40.62,0,0,0,.38-4.91q.23-4.55.18-7.63h-7.54a13.29,13.29,0,0,1-2.06,2.33l-1.36-1.23a14.67,14.67,0,0,0,3.5-5l1.85.41-.88,1.86Zm-2.72,9.07h-3.69v3.3h1.34V50.38h1.71v4h-8v-4h1.71v2.39h1.49v-3.3h-3.91v-1.6h3.91v-2h-1a13.32,13.32,0,0,1-1.49,1.64l-1.4-1a15.85,15.85,0,0,0,3-3.91l1.6.53c-.13.27-.32.65-.59,1.13h4.67v1.64h-3.05v2h3.69Z"/><path class="cls-2" d="M154.58,46.88H153.5V55.1c0,.86-.26,1.41-.78,1.64a6.19,6.19,0,0,1-2.33.36l-.58-1.79c.32,0,.59,0,.79,0a2.52,2.52,0,0,0,1-.1.41.41,0,0,0,.16-.37V53.1c-.64.38-1.32.76-2,1.12l-.59-.95A8.5,8.5,0,0,1,147.67,57l-1.49-1a8.19,8.19,0,0,0,1.3-4.61V46.88h-1V43.71h.78V38.4h6.69v5.31h.65Zm-1.72-.33V45.36h-4.65v1.19ZM152.22,41v-.91h-3.3v3.63h.85V41Zm-.49,10.2v-3h-2.46v.9c.89.22,1.58.4,2.07.56l-.5,1.55a13.77,13.77,0,0,0-1.57-.47c0,.73,0,1.33-.06,1.81Q150.6,51.88,151.73,51.19Zm.49-7.48V42.43h-1v1.28Zm12.93,13H154.4V55.16h2.79c-.26-.71-.46-1.22-.58-1.5h-1v-4.1h8.71v4.1h-1c0,.14-.22.64-.56,1.5h2.41Zm-.14-8H154.92V47.11H165Zm-.27-2.55h-9.41V39.73H158V38.2h1.58v1.53h1V38.2h1.65v1.53h2.57ZM158,42.25V41.16h-1v1.09Zm0,2.45V43.55h-1V44.7Zm4.55,7.53V50.92h-5.05v1.31Zm-1.23,1.43h-2.76c.23.52.43,1,.59,1.5h1.61A12.89,12.89,0,0,0,161.29,53.66Zm-.77-11.41V41.16h-1v1.09Zm0,2.45V43.55h-1V44.7Zm2.56-2.45V41.16h-.91v1.09Zm0,2.45V43.55h-.91V44.7Z"/><path class="cls-2" d="M169.3,50.26a23.91,23.91,0,0,1-.6,5.29l-.93-.32a27.92,27.92,0,0,0,.62-5.14Zm6.26-10h-2.07v1.34H175v1.55h-1.51v1.41H175v1.51h-1.51v1.51h1.9q0,7-.42,8.18c-.28.81-1.06,1.22-2.32,1.22l-.76,0-.6-1.75,1.79,0c.16,0,.29-.1.38-.32a48.23,48.23,0,0,0,.28-5.61h-5V38.58h6.84ZM170.72,55l-1,.19c.05-.66.07-1.34.07-2.06,0-.92,0-1.85-.11-2.77l.86-.13a31.4,31.4,0,0,1,.18,3.42C170.75,54.09,170.74,54.55,170.72,55Zm1.11-13.38V40.27h-1.36v1.34Zm0,3V43.16h-1.36v1.41Zm0,3V46.08h-1.36v1.51Zm.34,6.6-.86.21a23.63,23.63,0,0,0-.33-4.16l.82-.1A26.63,26.63,0,0,1,172.17,54.19Zm1.18-.82-.77.27a17.48,17.48,0,0,0-.41-3.59l.75-.16A20.21,20.21,0,0,1,173.35,53.37Zm7.56,1.23-1.21,1.34a10.86,10.86,0,0,0-1.22-1.27,16.83,16.83,0,0,1-1.69,2.55l-1.64-1a14.63,14.63,0,0,0,2.72-5l1.81.41A11.32,11.32,0,0,1,179.2,53,14.3,14.3,0,0,1,180.91,54.6ZM187.07,43l-.85,1.69a24.81,24.81,0,0,1-2.3-1.52v1.1h-5.79v-1.1c-.88.69-1.54,1.19-2,1.47l-.89-1.77a14.07,14.07,0,0,0,5.19-4.92l2,.43a3.58,3.58,0,0,1-.3.46A16.49,16.49,0,0,0,187.07,43Zm-6.55,7.86h-4.31V45.3h4.31ZM179,49.17V46.92H177.7v2.25Zm4.25-6.53a16.53,16.53,0,0,1-2.2-2.33,17.49,17.49,0,0,1-2.31,2.33Zm3.7,13-1.32,1.44A12.42,12.42,0,0,0,183.53,55a19.3,19.3,0,0,1-1.61,2.27l-1.67-1a14.21,14.21,0,0,0,2.82-5l1.79.33a6.85,6.85,0,0,1-.56,1.71A16.87,16.87,0,0,1,187,55.64Zm-1.06-4.81h-4.41V45.3h4.41Zm-1.53-1.66V46.92h-1.3v2.25Z"/><path class="cls-2" d="M213.72,53.72h-8.18v1.44a1.92,1.92,0,0,1-.37,1.27,1.53,1.53,0,0,1-.92.54,15.3,15.3,0,0,1-2.25.1c-.68,0-1.24,0-1.69,0l-.7-1.75c.69.05,1.37.07,2,.07a8.56,8.56,0,0,0,1.79-.09.32.32,0,0,0,.2-.32V53.72h-8.73v-1.6h8.73V50.8a29,29,0,0,0,3.64-.87H196.38V48.41H211.5v1.52a34.14,34.14,0,0,1-6,2v.21h8.18Zm-.26-12.37H195.12v-1.6H203c-.2-.28-.48-.65-.86-1.1l2.11-.56a16.2,16.2,0,0,1,1.12,1.66h8.12Zm-1.94,5.85H197.14V42.6h14.38Zm-2-1.53V44.16H199.16v1.51Z"/><path class="cls-2" d="M235.61,55.39l-.72,1.79A28.79,28.79,0,0,1,226,54.52a28.72,28.72,0,0,1-8.63,2.7l-1-1.83a22.66,22.66,0,0,0,7.83-2,11.82,11.82,0,0,1-3.43-3.65h-.73V47.91h11.84v1.73a15.3,15.3,0,0,1-4,3.71A25.54,25.54,0,0,0,235.61,55.39Zm-.72-6H233v-3H219.05v3.08h-1.91v-4.9h17.75Zm-.8-9.69a70.43,70.43,0,0,1-12.78,1.12c-1,0-2.05,0-3.08-.06L217.69,39c1.33.07,2.64.11,3.94.11a66,66,0,0,0,11.6-1Zm-11.93,4-2,.58a12.54,12.54,0,0,0-1.67-2.44l1.91-.67A12,12,0,0,1,222.16,43.73Zm7.19,6h-6.18a9.1,9.1,0,0,0,2.89,2.66A13.63,13.63,0,0,0,229.35,49.7Zm-1.85-6-1.93.52a10.22,10.22,0,0,0-1.45-2.66l1.92-.54A13.37,13.37,0,0,1,227.5,43.75Zm5.91-2.55a17.43,17.43,0,0,1-2,3.07l-1.92-.74a20.07,20.07,0,0,0,2.09-3.07Z"/><path class="cls-2" d="M248.15,45.26h-1.86v.3q0,.3.33.3h1.44v1h-2.25a1.08,1.08,0,0,1-1.22-1.23v-.37h-2.2a4.49,4.49,0,0,1-1.77,2h2v-.61h1.89v.61h2.84v1.05h-2.84V49c.85,0,1.91-.13,3.17-.28l.09,1.05c-3.11.35-6.21.58-9.29.67V49.34c1.56,0,2.94-.07,4.14-.15v-.85H240v-.75a5.35,5.35,0,0,1-1.34.43l-.82-1.28a4.16,4.16,0,0,0,2.78-1.48h-2.33V44.12h4.29v-.66h-3.38V42.39h3.38v-.56h1.86v.56h3.13v1.07h-3.13v.66h3.67ZM247,40.66h-2.5v.76H242.6v-.76h-4.53V39.22h4.53v-.95h1.88v.95H247Zm10,13.49h-3.75a15.66,15.66,0,0,1,3,2.14l-1.62,1a12.52,12.52,0,0,0-1.19-1,132.83,132.83,0,0,1-14.09.64l-.24-1.23a13.41,13.41,0,0,0,3.8-1.53h-4.73V52.83h18.8Zm-2.24-2.1H240.35V50.83h14.34Zm-2.59,2.1h-6.58a13.25,13.25,0,0,1-2.29,1.45c3.06-.07,5.85-.23,8.37-.46a3.9,3.9,0,0,0-.71-.39Zm4.77-13.49h-4.53v.72h-1.86v-.72H248V39.22h2.51v-.95h1.86v.95h4.53Zm.24,6.71a6,6,0,0,1-.57,2.69,1.29,1.29,0,0,1-1.07.6c-.61,0-1.09-.43-1.43-1.3a15.15,15.15,0,0,1-.56-4.83h-1.21a9.26,9.26,0,0,1-.34,2.41,15.51,15.51,0,0,1,1.29,1.26l-.9,1.46a8.69,8.69,0,0,0-1.15-1.1,7.27,7.27,0,0,1-1.9,2l-1.19-1.43a5.3,5.3,0,0,0,1.69-1.72,6.45,6.45,0,0,0-1.28-.8l.93-1.32c.29.15.61.34,1,.56a4.88,4.88,0,0,0,.19-1.31H248.8V43h1.75V41.83h1.72V43h2.91a32.79,32.79,0,0,0,.12,4.17c.13,1.12.24,1.68.35,1.68s.09-.16.16-.47a9.57,9.57,0,0,0,.09-1.59Z"/><path class="cls-2" d="M264.8,38.91a21.3,21.3,0,0,1-4.45,5.17l-1-1.77a16.84,16.84,0,0,0,3.73-4.22Zm-.25,5.23c-.45.86-.89,1.63-1.29,2.29V57h-1.82v-7.9a13.44,13.44,0,0,1-1.09,1.23l-.89-1.9a26.12,26.12,0,0,0,3.59-5.22Zm2.23,1.2c0,4.35-.39,7.6-1.26,9.76l-1.65-.7a21.84,21.84,0,0,0,1.26-9.06ZM273,43.61h-3.48V57h-1.88V43.61h-3.13V41.8h3.13V38.17h1.88V41.8H273Zm-.17-3.19-1.39,1A8.22,8.22,0,0,0,270,39.22l1.42-.95A7.54,7.54,0,0,1,272.87,40.42Zm1.2,13.34H272a1.45,1.45,0,0,1-1.41-1.4v-7h1.67V51.5a.45.45,0,0,0,.18.34.57.57,0,0,0,.37.15h1.28Zm4.41-7.6H277v9a1.92,1.92,0,0,1-.32,1.07,1.61,1.61,0,0,1-.76.67,5.76,5.76,0,0,1-1.71.17l-.82,0-.65-1.9c.38,0,.76,0,1.15,0a1.76,1.76,0,0,0,1-.19.71.71,0,0,0,.21-.55V46.16H273V44.29h5.53ZM278,40.7h-4.47V38.83H278Z"/><path class="cls-2" d="M294.13,42,293,43.59c-1.15-.93-1.94-1.52-2.37-1.79V43h-5.13v-.84a21.58,21.58,0,0,1-3.29,2l-1.16-1.58A17.09,17.09,0,0,0,287.29,38l2,.41a1.34,1.34,0,0,1-.29.41A33.63,33.63,0,0,1,294.13,42Zm-1.38,15.06H291v-.83h-4.51v.83h-1.81V52.75a8.49,8.49,0,0,1-2,4.53L281.17,56A9.06,9.06,0,0,0,283,50V43.9h9.71v6.48h-7.88c0,.24,0,.57,0,1h7.95Zm-1.93-10.63v-1h-6v1Zm0,2.39v-1h-6v1Zm-.58-7.27a20.8,20.8,0,0,0-2.42-1.38,15.45,15.45,0,0,1-1.51,1.38ZM291,54.71V53h-4.53v1.75Zm8.61.72a1.41,1.41,0,0,1-.64,1.29,6,6,0,0,1-2.74.4c-.41,0-.86,0-1.33,0l-.6-1.85q1,.09,1.8.09a3.32,3.32,0,0,0,1.39-.17.65.65,0,0,0,.25-.55V38.2h1.87Zm-3.25-2.27h-1.84V39.8h1.84Z"/><path class="cls-2" d="M308.91,38.48c-.31.88-.6,1.66-.89,2.35L307.1,43V57h-2V46.27a16.94,16.94,0,0,1-1.44,1.79l-.91-2a23.94,23.94,0,0,0,4.16-8Zm12.76,4.26H315v3.17h6.22V47.7H315v3.13h6.24v1.76H315V57H313V42.74h-.73a23.48,23.48,0,0,1-3.11,4.76l-1.41-1.34A22.68,22.68,0,0,0,312,38.07l1.92.41c-.11.44-.39,1.26-.84,2.47h8.59Z"/><g id="Q6msR0.tif"><path class="cls-3" d="M385.25,127.22l-15.43-2.34c-2.07-5.37-4.16-10.72-6.18-16.1a37.36,37.36,0,0,1-1-4.07,6,6,0,0,0,6.18-.15,2.51,2.51,0,0,1,3,.69c2.29,2.18,4.05,2.45,6.92,1a2.77,2.77,0,0,1,3.43.52c2.32,2.19,4.1,2.46,6.92,1.06a2.72,2.72,0,0,1,3.52.61,5.14,5.14,0,0,0,4.49,1.75,4.87,4.87,0,0,1,.91.13C394.23,116.51,389.47,121.66,385.25,127.22Z"/><path class="cls-3" d="M389.87,85.64c-.27,1.45-.6,2.9-.75,4.37,0,.33.5.89.89,1.08a15,15,0,0,1,8,8.6,9.12,9.12,0,0,1,.28.93,2.21,2.21,0,0,1,0,.48,2.7,2.7,0,0,1-2.77-.76,5.4,5.4,0,0,0-7-1,2.66,2.66,0,0,1-3.33-.48,5.52,5.52,0,0,0-7.08-1.07,2.66,2.66,0,0,1-3.32-.53c-2.07-2.08-4.34-2.37-7-1.12a5.39,5.39,0,0,1-2.79.14,10.6,10.6,0,0,1,3.82-4.54,14.1,14.1,0,0,1,7.2-2.71c.77-.07,1.05-.35,1.13-1.06.13-1.38.31-2.75.48-4.13Z"/><path class="cls-3" d="M398.71,107.27c-1.92.88-3.43.43-5-1a4.49,4.49,0,0,0-5.44-.65,3.5,3.5,0,0,1-4.61-.69,4.69,4.69,0,0,0-5.77-.87,3.51,3.51,0,0,1-4.61-.72,4.5,4.5,0,0,0-5.38-1c-1.9,1-3.48.94-5.05-.47l.38-2.48.63-1a6.07,6.07,0,0,0,5.89-.3,2.49,2.49,0,0,1,3,.66,5.37,5.37,0,0,0,7,1,2.73,2.73,0,0,1,3.44.55,5.31,5.31,0,0,0,6.82,1.07,2.77,2.77,0,0,1,3.56.52,5.65,5.65,0,0,0,4.61,1.83c.29,0,.6.54.9.83Z"/></g><path class="cls-2" d="M328.31,54.71a1.56,1.56,0,0,1,.84.8,1.39,1.39,0,0,1,0,1.13,1.37,1.37,0,0,1-.79.79,1.61,1.61,0,0,1-2-.8,1.37,1.37,0,0,1,0-1.12,1.41,1.41,0,0,1,.81-.81A1.55,1.55,0,0,1,328.31,54.71Zm6.21-12.23L330,53.12l-1.82-.73,4-10.84Z"/><g id="JHk03F.tif"><path class="cls-3" d="M20,118.42c.44-1.16.77-1.38,2.05-1.38,2.4,0,4.8,0,7.2,0,1.27,0,1.84.56,1.84,1.83,0,5.76,0,11.52,0,17.27a1.81,1.81,0,0,1-1.18,1.93H21.2a1.82,1.82,0,0,1-1.2-1.4Z"/><path class="cls-3" d="M20,136.67a1.82,1.82,0,0,0,1.2,1.4H20Z"/><path class="cls-3" d="M45.92,113.26a7,7,0,0,1,4.14-4.33,1.37,1.37,0,0,0,1-1.61c-.06-2.57,0-5.14,0-7.71v-.53c-.75.08-1.44.18-2.13.22a7.65,7.65,0,0,1-8.18-6.53A12.36,12.36,0,0,1,40.67,89a1.34,1.34,0,0,1,.78-1.15,9.77,9.77,0,0,1,7.4-.63,7.52,7.52,0,0,1,5,6.11c.15.76.18,1.54.27,2.35.3-.2.58-.41.88-.58a9,9,0,0,1,7.5-.47c1.84.58,2,.84,2.12,2.76a10,10,0,0,1-.82,4.74,7.68,7.68,0,0,1-8.15,4.44l-1.57-.24v2c.81.33,1.63.59,2.39,1a6.8,6.8,0,0,1,3.16,3.44.54.54,0,0,0,.58.39,8.07,8.07,0,0,1,7.89,8.23c0,.41-.13.53-.55.62-1.51.33-3,.73-4.51,1.14l-8.38,2.31-.34.07c.12-.48.27-.93.34-1.39a6,6,0,0,0-6-7c-3.26,0-6.52,0-9.77,0h-.56C39.18,115.23,42.13,112.94,45.92,113.26Z"/><path class="cls-3" d="M34.12,135v-15l.46,0h14a3,3,0,1,1,.16,6c-2.59,0-5.18,0-7.77,0-.15,0-.3,0-.45,0A1.53,1.53,0,0,0,39,127.6a1.49,1.49,0,0,0,1.59,1.45H52.29a3.67,3.67,0,0,0,.93-.14c4.73-1.29,9.47-2.56,14.18-3.9a3.08,3.08,0,0,1,3.74,2,3,3,0,0,1-1.94,3.72c-2.21.68-4.46,1.25-6.69,1.87-2.8.77-5.59,1.55-8.39,2.31a4.42,4.42,0,0,1-1.13.17H34.55Z"/></g><rect class="cls-3" x="34.9" y="95.93" width="18.08" height="18.08" rx="9"/><rect class="cls-3" x="50.97" y="98.94" width="18.08" height="18.08" rx="9"/></svg>