<svg id="圖層_1" data-name="圖層 1" xmlns="http://www.w3.org/2000/svg" viewBox="0 0 230 60"><path d="M34.38,17.44c3.69-.22,7-.45,10.36-.62,2.08-.11,2.53.31,2.72,2.34.51,5.46.51,5.46-5,5.46H34.78v7.47c2.86,0,5.63,0,8.4,0a3.43,3.43,0,0,1,3,5.14,3,3,0,0,1-2.13,1.07c-3,.25-6,.32-9.22.46v6.51c1.61,0,3.2,0,4.78,0q4.84-.15,9.66-.38c1.69-.08,2.52.58,2.54,2.36.08,5.61.91,5.58-5.37,5.56-12.09,0-24.18,0-36.26,0-3.18,0-4.56-2.11-3.1-5a3,3,0,0,1,2.21-1.2c5-.32,10-.49,15-.72.55,0,1.09-.06,1.83-.1V39.16c-.77,0-1.66,0-2.56,0-2.35.08-4.7.19-7.06.27a2.8,2.8,0,0,1-1.46-.1c-2.35-1.56-1-4-1.16-6-.12-1.38,1-1.81,2.31-1.78,2.73.05,5.45.08,8.18.11h2V24.6c-2.77,0-5.54,0-8.31,0-.4,0-.91.52-1.17.92-.71,1.09-1.27,2.27-2,3.36a2.12,2.12,0,0,1-3.17.82c-1.18-.68-2.45-1.2-3.62-1.9S6.84,26.27,7.55,25c2.12-3.7,4.18-7.44,6.12-11.23.72-1.41,1.56-1.8,3-1.26.35.13.71.23,1.06.35,3.5,1.17,3.56,1.29,2.68,4.92h6.18c0-2.14,0-4,0-6s.71-2.7,2.62-2.86c5.17-.43,5.17-.43,5.2,4.74C34.39,14.89,34.38,16.06,34.38,17.44Z"/><path d="M157.93,48.65c-1.56,2-3.69,1.82-5.79,1.81-3,0-5.95,0-8.92,0-3.4-.07-5.07-1.92-4.9-5.34,0-.74.22-1.48.26-2.22.09-1.44,1-1.81,2.24-1.9s1.9.34,2.14,1.67c.1.59.87,1.07,1.34,1.6l.56-.35v-4c-1.73,0-3.51,0-5.28,0-1.25,0-2.37-.08-2.43-1.8-.09-2.77.21-3.37,2.27-3.58s4.3-.34,6.53-.51V30.78a15.37,15.37,0,0,0-2.64,1.75,1.61,1.61,0,0,1-2.24.42c-3.62-1.83-3.63-1.79-1.76-5.29.32-.6.58-1.23,1-2l-3.18-2.19a1.53,1.53,0,0,1-.35-2.62,31.87,31.87,0,0,0,6.07-10.35,1.67,1.67,0,0,1,2.32-1.22c.4.14.85.17,1.27.27,3.92.92,3.92.92,2.88,4.92-.13.48-.22,1-.38,1.69,3-.33,5.86-.65,8.73-.95,2-.21,3.94-.51,5.91-.57A6.15,6.15,0,0,1,170,19.85a6.19,6.19,0,0,1,.19,1.28c0,8.43.14,16.86.09,25.29a6.07,6.07,0,0,1-4.91,5.79,12.53,12.53,0,0,1-2,.26C159.1,52.63,159.1,52.62,157.93,48.65ZM146.32,25.79h9.61c1.31,0,2.16.41,2.11,1.92s0,2.82-2,2.87c-1.16,0-2.32.15-3.44.22v2.79c.82,0,1.5-.06,2.17-.13,4.93-.48,5-.39,4.83,4.57-.05,1.32-.59,1.93-1.93,1.89-1.59,0-3.19,0-4.82,0v4l.58.29c.3-.5.6-1,.89-1.49s.59-1.64,1.1-1.81c1.93-.64,3.37.57,3.37,2.59V46.1a6.52,6.52,0,0,1,1.54.25c1.33.57,1.56-.28,1.56-1.23q-.09-10.78-.24-21.58a1.77,1.77,0,0,0-2.14-1.95c-4.26.34-8.53.66-12.78,1.08-.65.07-1.24.66-1.76,1Z"/><path d="M134.5,27.1c2.23,0,2.37,1.43,2.29,3.07-.1,2.35-.09,4.71-.19,7.06-.15,3.36-1.69,4.83-5,4.87-4,0-4.22-.11-4.74-4.1-.13-1,.11-1.6,1.23-1.88a2.08,2.08,0,0,0,1.27-1.32c.37-1.68.52-3.4.75-5.09-2.82-.43-2.84-.45-2.63-3.36.1-1.36.22-2.71.36-4.07.1-.93,0-1.58-1.18-1.64s-1.48.5-1.47,1.57c.09,7.75.15,15.5.22,23.25,0,3.18-.32,3.66-3.5,4-5.65.54-6,.45-5.66-5.1.47-7.86.63-15.73,1-23.59.2-4.83,1.28-5.94,6-6.52,2.21-.27,4.41-.63,6.62-.93,3.87-.52,6.25,1.71,5.84,5.59C135.39,21.57,134.92,24.25,134.5,27.1Z"/><path d="M207.32,31.72c-3.25,0-6.27,0-9.28,0a2,2,0,0,0-1,.48c-2.55,1.85-5.08,3.72-7.68,5.63h3.44c3.69,0,5.7,1.68,6,5.33a32.36,32.36,0,0,1,0,5,5.25,5.25,0,0,1-5.35,5.3,73.89,73.89,0,0,1-7.43.26c-3.91-.15-5.84-2.18-6.06-6.08a40.55,40.55,0,0,1,0-4.27,9.53,9.53,0,0,1,.51-2c-1.61-.55-3.75-4.47-3.14-6.16a3.12,3.12,0,0,1,1.72-1.42c1.69-.68,3.46-1.2,5.19-1.78l-.08-.48c-1.68,0-3.37,0-5.05,0-1.4,0-2.22-.45-2.21-2,0-2.39.44-3.18,2.27-3.28,4.21-.23,8.42-.59,12.63-.54,2.23,0,3.36-1.18,4.56-2.61a4.09,4.09,0,0,1,6-.08,6.19,6.19,0,0,1,.65,2.1h7.2l.76-3c-1.44,0-2.84.06-4.23,0-5.35-.27-8.61-6.65-5.47-11.06a7.06,7.06,0,0,1,4.15-2.42,55.92,55.92,0,0,1,8.87-.79c3.47-.11,5.46,1.76,5.92,5.29s.19,6.75-3.14,8.35v3.3h3.34a2,2,0,0,1,2.25,2.12c.42,4.74.26,4.94-4.52,4.94h-5l0,.34c2.8.52,5.6,1.09,8.42,1.55,1.59.26,2.19,1,1.62,2.55-.24.64-.36,1.32-.56,2-.72,2.46-.9,2.56-3.42,2A15.52,15.52,0,0,1,219.9,49a4.63,4.63,0,0,1-4.51,4.2,82.19,82.19,0,0,1-9.28.27c-3.11-.1-5-2.28-5.25-5.67-.07-.93,0-1.86,0-2.79,0-4.21,1.64-6.14,5.87-6.6,2-.2,3.94,0,6-.44l-4-1.52c-2.49-.93-2.61-1.19-1.66-3.64C207.09,32.57,207.15,32.33,207.32,31.72Zm-15,13.71c.13-1.16-.16-2-1.86-2-3.31,0-3.63.1-3.67,1.94,0,2,.49,2.72,2.1,2.77C191.43,48.21,192.24,47.62,192.29,45.43Zm18.46-2c-2.85,0-2.85,0-2.85,1.85,0,2.27.39,2.67,2.51,2.66,2.43,0,3.06-.52,3.07-2.41S213.23,43.43,210.75,43.45Zm.17-30.5c-2.56,0-2.76.17-2.73,1.86,0,1.89.46,2.28,2.51,2.25,2.29,0,3-.61,3.05-2.28C213.78,12.63,212.27,12.92,210.92,13Z"/><path d="M188.94,23.36c-1.79-.09-3.58-.16-5.37-.3a4.48,4.48,0,0,1-1.6-.43c-3.44-1.72-3.26-5-3.27-8.06,0-2.8,1.42-4.84,4.08-5.25A79.78,79.78,0,0,1,194,8.51a4.59,4.59,0,0,1,4.32,4.16,26.07,26.07,0,0,1,.18,5.37A5.24,5.24,0,0,1,193.4,23c-1.48.13-3,.19-4.45.28Zm.58-10c-2.94,0-3.23.27-3.19,2.36s.46,2.49,2.51,2.47c2.52,0,3-.59,3.09-2.82C192,13.31,190.75,13.2,189.52,13.34Z"/><path d="M86,34.26V30.1H75.19c-1.56,0-2.21-.82-2.19-2.34,0-3.58.34-3.86,3.92-4,3-.11,6-.3,9.18-.46V18.07c-2.71.17-5.35.32-8,.5-1.64.12-2.59-.44-2.68-2.23-.12-2.68.24-3.4,2.25-3.67,7.79-1,15.58-2.06,23.38-3,2.7-.34,3,0,3.4,2.79.71,4.33.23,4.56-4.12,4.7-1.72.05-3.44.26-5.21.4v5.23c3.28-.15,6.41-.33,9.55-.45,2.61-.1,3,.34,3.11,2.9.14,4.9.14,4.9-4.71,4.9H95.24v3.69h3.47c4.26.05,7,2.57,7.24,6.79a34.45,34.45,0,0,1,0,5.18,6.09,6.09,0,0,1-6.15,6c-5.62.23-11.26.41-16.89.38-5.11,0-7.51-2.53-7.83-7.67C75,43.7,75,43,75,42.21c.06-4.72,2.16-7.06,6.86-7.58C83.21,34.49,84.55,34.39,86,34.26Zm4.44,6.35c-1.23.07-3.14.21-5.06.26-1.43,0-2.21.55-2.11,2.11s.27,2.78,2.21,2.72q5.85-.18,11.68-.32C99,45.33,98.9,44,99,42.75s-.42-2.15-1.88-2.14Z"/><path d="M71.57,38a17.24,17.24,0,0,1-.93,1.56C68.76,42,66.86,44.32,65,46.68c-1,1.2-2,1.36-3.12.23-1-.95-2-1.84-3-2.79A1.72,1.72,0,0,1,59,41.26c2.36-2,4.74-3.95,7.1-5.94a1.84,1.84,0,0,1,2.67,0C69.73,36.17,70.63,37.12,71.57,38Z"/><path d="M59.11,22.38c2.7,1.23,5.06,2.25,7.35,3.44.26.14.28,1.34,0,1.81a17.28,17.28,0,0,1-2.76,3.68,2.45,2.45,0,0,1-2.35.12,25.32,25.32,0,0,1-4.16-3.65,2.51,2.51,0,0,1-.47-2.24A18.69,18.69,0,0,1,59.11,22.38Z"/><path d="M63.36,11.56a14,14,0,0,1,1.48.64c1.65,1,3.26,2,4.91,3,1.22.73,1.14,1.62.39,2.63-.07.09-.17.18-.25.27-4.59,4.36-3.77,4.69-7.73-.24a5,5,0,0,1-.91-1.16c-.29-.75-.84-1.8-.54-2.3A17,17,0,0,1,63.36,11.56Z"/></svg>