<?xml version="1.0" encoding="utf-8"?>
<!-- Generator: Adobe Illustrator 24.1.0, SVG Export Plug-In . SVG Version: 6.00 Build 0)  -->
<svg version="1.1" id="圖層_1" xmlns="http://www.w3.org/2000/svg" xmlns:xlink="http://www.w3.org/1999/xlink" x="0px" y="0px"
	 viewBox="0 0 440 160" style="enable-background:new 0 0 440 160;" xml:space="preserve">
<style type="text/css">
	.st0{fill:#80ADB7;}
	.st1{enable-background:new    ;}
	.st2{fill:#FFFFFF;}
	.st3{fill:#C28032;}
</style>
<path class="st0" d="M101.2,16.73c0,0-9.5,3.17-11.88,15.05s-4.75,18.22,0,24.56S94.87,69,102.79,67.43s17.43-4.75,21.39,0
	s10.3,7.92,10.3,7.92s3.16-7.92,11.09-8.71s54.66-0.79,66.54-0.79s45.16-0.8,61.79,0s10.24,1.16,23.9,0.66
	c18-0.65,5.32-1.81,25.85-1.08c6.53,0.23,10.44-4.45,12.81-10s-0.12-8.67,0-18.67c0.11-8.56-1.19-9.71-3.84-15
	c-2.85-5.71-20.41-6.56-30.78-5.41c-13.39,1.49-24.13,0.63-32,0.63s-22-0.26-30-0.26L101.2,16.73L101.2,16.73z"/>
<g class="st1">
	<path class="st2" d="M109.3,32.96l-1.19,4.2v13.71h-1.77v-9.74c-0.29,0.49-0.64,1-1.04,1.54l-0.85-2.1
		c1.29-1.92,2.31-4.62,3.08-8.11L109.3,32.96z M122.83,47.27h-2.46v1.8c0,0.38-0.09,0.71-0.27,1.01c-0.18,0.3-0.41,0.5-0.7,0.61
		s-0.81,0.16-1.56,0.16c-0.28,0-0.64-0.01-1.09-0.02l-0.68-1.83c0.32,0.02,0.64,0.03,0.96,0.03c0.63,0,1.04-0.02,1.22-0.06
		c0.19-0.04,0.28-0.15,0.28-0.33v-1.38h-9.48v-1.53h9.48v-0.72h1.83v0.72h2.46V47.27z M123.02,44.42l-1.48,0.75l-0.56-0.71
		c-4.72,0.29-8.54,0.46-11.46,0.5l-0.35-1.6c1.88,0.02,3.83-0.01,5.84-0.08v-1.14h-5.12v-6.13h5.12v-0.88h-5.59v-1.55h5.59v-1.06
		h1.75v1.06h5.83v1.55h-5.83v0.88h5.08v6.13h-0.79C121.94,42.99,122.6,43.75,123.02,44.42z M115.47,49.33l-1.21,1.3
		c-1.04-0.76-2.14-1.35-3.3-1.76l1.23-1.32C113.56,48.11,114.65,48.71,115.47,49.33z M115.01,38.39v-0.9h-3.37v0.9H115.01z
		 M115.01,40.71v-0.9h-3.37v0.9H115.01z M120.09,38.39v-0.9h-3.33v0.9H120.09z M120.09,40.71v-0.9h-3.33v0.9H120.09z M120.27,42.14
		h-3.51v1.04c1.4-0.04,2.35-0.09,2.85-0.13c-0.18-0.17-0.33-0.31-0.48-0.42L120.27,42.14z"/>
	<path class="st2" d="M128.05,46.02c-0.26,2.09-0.71,3.77-1.33,5.04l-1.56-0.72c0.62-1.2,1.07-2.73,1.36-4.62L128.05,46.02z
		 M133.1,44.64l-1.62,0.56c0-0.08-0.07-0.44-0.22-1.09c-1.82,0.55-3.65,0.96-5.49,1.24l-0.32-1.44c1.2-0.98,2.45-2.41,3.75-4.3
		c-1.1,0.17-2.17,0.29-3.21,0.37l-0.22-1.23c1.54-1.74,2.78-3.84,3.71-6.31l1.73,0.62c-0.88,2.04-1.88,3.77-3,5.18
		c0.71-0.06,1.37-0.14,1.99-0.25c0.41-0.64,0.74-1.25,1-1.85l1.6,0.84c-1.44,2.62-2.9,4.72-4.39,6.28c0.87-0.18,1.67-0.4,2.4-0.66
		c-0.14-0.4-0.25-0.7-0.33-0.9l1.43-0.62C132.46,42.28,132.87,43.46,133.1,44.64z M130.77,50.21l-1.57,0.36
		c0.03-1.36-0.14-2.87-0.52-4.52l1.43-0.38C130.5,47.33,130.72,48.85,130.77,50.21z M133.19,48.42l-1.39,0.56
		c-0.22-1.2-0.49-2.19-0.81-2.96l1.37-0.52C132.72,46.26,133,47.24,133.19,48.42z M143.79,45.98c-0.13,2.2-0.25,3.41-0.38,3.62
		c-0.12,0.22-0.33,0.47-0.62,0.75c-0.29,0.29-1.01,0.43-2.14,0.43c-0.95,0-1.57-0.14-1.87-0.43s-0.45-0.86-0.45-1.73v-7.08
		c-0.68,0.11-1.21,0.19-1.58,0.24c0,1.52-0.07,2.79-0.21,3.82c-0.14,1.03-0.49,2.03-1.03,3c-0.54,0.97-1.27,1.82-2.19,2.56
		L132,49.89c0.6-0.42,1.16-1,1.67-1.72s0.87-1.52,1.08-2.39c0.21-0.87,0.3-2.13,0.26-3.78l-1.83,0.21l-0.33-1.38
		c1.18-1.46,2.14-2.99,2.89-4.59h-3.08V34.5h3.79c0.17-0.4,0.4-1.04,0.68-1.94l1.9,0.3c-0.24,0.68-0.44,1.22-0.61,1.64h5.16v1.72
		h-5.91c-0.6,1.33-1.4,2.69-2.39,4.09c1.77-0.11,3.39-0.31,4.88-0.61c-0.25-0.4-0.61-0.86-1.08-1.38l1.47-0.97
		c1.44,1.73,2.45,3.19,3.06,4.37l-1.53,1.04c-0.37-0.68-0.69-1.24-0.96-1.66l-1.06,0.18v7.37c0,0.34,0.31,0.51,0.92,0.51
		c0.49,0,0.79-0.19,0.9-0.55s0.19-1.44,0.25-3.21L143.79,45.98z"/>
	<path class="st2" d="M164.39,50.21h-18.15v-1.9h8.11V35.28h-7.22v-1.96h16.42v1.96h-7.22v13.03h8.05V50.21z"/>
	<path class="st2" d="M171.79,40.42l-1.14,1.48c-0.97-0.94-2.2-1.88-3.68-2.82l1.21-1.45C169.49,38.41,170.7,39.34,171.79,40.42z
		 M171.98,44.22c-0.89,2.52-1.98,4.77-3.29,6.77l-1.62-1.14c1.13-1.54,2.22-3.72,3.27-6.55L171.98,44.22z M172.21,35.57L170.9,37
		c-0.97-1.15-2.16-2.18-3.57-3.09l1.31-1.44C170.06,33.46,171.25,34.49,172.21,35.57z M185.37,50.08l-1.71,0.91
		c-0.31-0.75-0.61-1.39-0.89-1.94c-3.51,0.85-6.8,1.41-9.86,1.68l-0.69-1.78c1.7-1.4,3.23-3.6,4.6-6.59h-4.58v-1.83h5.61v-3.32
		h-4.74v-1.8h4.74v-2.79h1.9v2.79h4.47v1.8h-4.47v3.32h5.4v1.83h-6.13c-1.31,2.73-2.68,4.84-4.12,6.34
		c2.21-0.25,4.53-0.67,6.94-1.26c-0.39-0.73-1.01-1.71-1.87-2.93l1.77-0.82C183.39,46.14,184.6,48.27,185.37,50.08z"/>
	<path class="st2" d="M216.26,50.45h-18.05v-1.7h8.05V46.4h-7.03v-1.74h7.03v-2.08c-1.35,0.09-2.93,0.13-4.74,0.13
		c-0.7,0-1.4-0.01-2.1-0.02l-0.58-1.88c1.22,0.06,2.43,0.08,3.62,0.08c4.29,0,8.23-0.35,11.82-1.04l0.93,1.64
		c-1.52,0.31-3.87,0.63-7.04,0.96v2.21h7.22v1.74h-7.22v2.35h8.09V50.45z M214.44,39.07h-14.32v-6.04h14.32V39.07z M212.54,37.37
		v-2.6h-10.5v2.6H212.54z"/>
	<path class="st2" d="M225.61,46.24c-1.82,1.09-3.85,2.2-6.09,3.31l-0.6-1.76l2.52-1.26v-5.27h-2.06v-1.7h2.06V35.5H219v-1.79h6.49
		v1.79h-2.22v4.05h2.1v1.7h-2.1v4.25c0.95-0.48,1.69-0.88,2.22-1.22L225.61,46.24z M237.3,47.25c-0.07,1.44-0.28,2.38-0.63,2.84
		c-0.35,0.46-1.13,0.69-2.36,0.69c-0.95,0-1.6-0.15-1.92-0.46c-0.33-0.3-0.49-0.92-0.49-1.85v-3.68h-1.67
		c-0.02,3.41-1.91,5.51-5.67,6.29l-0.89-1.64c1.68-0.33,2.89-0.86,3.63-1.58c0.74-0.73,1.11-1.75,1.09-3.06h-1.88V33.12h9.78v11.67
		h-2.58v3.72c0,0.22,0.08,0.36,0.23,0.39c0.15,0.04,0.35,0.05,0.59,0.05c0.35,0,0.57-0.09,0.69-0.26c0.11-0.17,0.2-0.86,0.28-2.07
		L237.3,47.25z M234.44,36.37v-1.55h-6.11v1.55H234.44z M234.44,39.73v-1.72h-6.11v1.72H234.44z M234.44,43.06v-1.69h-6.11v1.69
		H234.44z"/>
	<path class="st2" d="M258.01,37.65h-8.04v3.72h5.88v9.62h-1.89v-1.08h-9.86v1.08h-2v-9.62h5.89v-3.72h-8.07v-1.8h8.07v-3.13h1.98
		v3.13h8.04V37.65z M253.96,48.04v-4.85h-9.86v4.85H253.96z"/>
	<path class="st2" d="M268.2,47.62c-1.88,1.41-4.11,2.55-6.7,3.43l-1.02-1.68c2.19-0.58,4.2-1.5,6.03-2.77L268.2,47.62z
		 M278.78,45.94h-18.13v-1.66h1.52v-9.44h4.43v-2.28h1.79v2.28h2.58v-2.28h1.81v2.28h4.37v9.44h1.64V45.94z M266.59,39.39v-2.96
		h-2.62v2.96H266.59z M266.59,44.28v-3.27h-2.62v3.27H266.59z M270.96,39.39v-2.96h-2.58v2.96H270.96z M270.96,44.28v-3.27h-2.58
		v3.27H270.96z M278.84,49.61l-1.23,1.41c-2.06-1.27-4.14-2.29-6.23-3.07l1.37-1.39C275.07,47.48,277.1,48.5,278.84,49.61z
		 M275.33,39.39v-2.96h-2.56v2.96H275.33z M275.33,44.28v-3.27h-2.56v3.27H275.33z"/>
	<path class="st2" d="M299.11,45.76h-8.13c-1.2,2.81-4.09,4.59-8.67,5.35l-0.89-1.8c4.03-0.72,6.52-1.9,7.46-3.55h-6.96v-1.54h7.49
		c0.09-0.44,0.14-0.91,0.14-1.38h1.87c-0.02,0.55-0.05,1.01-0.08,1.38h7.78V45.76z M299.53,42.23h-18.05v-1.52h8.07v-1.34h-6.32
		v-1.49h6.32V36.6h-7.22v-1.52h16.28v1.52h-7.18v1.28h6.3v1.49h-6.3v1.34h8.09V42.23z M288.74,34.38l-1.93,0.52
		c-0.45-0.66-0.96-1.26-1.52-1.83l1.85-0.62C287.73,33.04,288.26,33.68,288.74,34.38z M299.76,49.67l-1.15,1.47
		c-2.18-1.31-4.76-2.38-7.76-3.21l1.13-1.56C295.26,47.38,297.85,48.48,299.76,49.67z M295.95,32.88c-0.39,0.62-0.86,1.27-1.43,1.94
		l-2.04-0.51c0.66-0.68,1.17-1.31,1.53-1.87L295.95,32.88z"/>
</g>
<path class="st2" d="M315,48.63c0.36,0.14,0.65,0.42,0.81,0.78c0.33,0.69,0.03,1.52-0.66,1.85c-0.02,0.01-0.04,0.02-0.07,0.03
	c-0.36,0.16-0.77,0.16-1.13,0c-0.37-0.14-0.67-0.41-0.84-0.77c-0.16-0.35-0.16-0.76,0-1.11c0.14-0.36,0.42-0.64,0.78-0.78
	C314.24,48.48,314.65,48.48,315,48.63z M321,36.63l-4.42,10.41l-1.77-0.71l3.91-10.61L321,36.63z"/>
<path d="M305.43,93.63l11.63,0.44c0.08-0.13,0.15-0.26,0.2-0.4c0.4-2.79,0.76-2.89,3.54-2.31c1.56,0.38,3.07,0.93,4.51,1.64
	c1.41,0.65,1.41,1.6,0.36,2.72c-0.5,0.56-0.82,1.26-0.91,2c-0.47,3.68-0.88,7.37-1.2,11.07c-0.11,1.22-0.58,1.83-1.81,1.85
	c-1.43,0-2.88,0.17-4.31,0.06c-1.77-0.13-1.89-0.36-1.91-2.15v-1l-8.52,0.55c-0.28,2.16-0.49,2.44-2.53,2.78
	c-1.3,0.2-2.61,0.31-3.93,0.33c-1,0-1.52-0.47-1.61-1.57c-0.49-5.55-1.02-11.1-1.58-16.64c-0.1-0.9,0.16-1.51,1-1.66
	c1.73-0.31,3.48-0.58,5.23-0.75c0.92-0.09,1.43,0.5,1.52,1.43C305.18,92.49,305.31,93,305.43,93.63z M305.67,95.46
	c0.37,3.6,0.75,7.27,1.12,11c2.18-0.12,4.27-0.23,6.36-0.37c2.43-0.16,2.43-0.17,2.7-2.63c0-0.16,0-0.32,0.07-0.49
	c0.29-2.44,0.59-4.88,0.91-7.52L305.67,95.46z"/>
<path d="M327.34,133.38l-3.85,0.38c0.29,2-1,2.47-2.5,2.71c-1.26,0.21-2.53,0.34-3.81,0.37c-1.06,0-1.64-0.44-1.73-1.71
	c-0.41-5.43-0.91-10.85-1.47-16.27c-0.11-1.14,0.23-1.79,1.26-2c1.49-0.33,2.99-0.57,4.51-0.73c1.51-0.15,2,0.22,2.16,1.71
	c0.11,0.78,0.4,1,1.17,1c1.8,0,3.61,0,5.45,0c0.13-0.84,0.24-1.52,0.33-2.2c-0.02-0.7,0.53-1.27,1.23-1.29
	c0.14,0,0.29,0.02,0.42,0.06c2.22,0.57,4.4,1.26,6.55,2.07c1.23,0.48,1.17,1.48,0.3,2.48c-0.53,0.6-0.88,1.33-1,2.12
	c-0.37,4-0.62,8-0.91,12c-0.14,1.87-0.45,2.24-2.31,2.31c-1.36,0.06-2.72,0.02-4.07-0.1c-1.63-0.16-1.8-0.43-1.75-2
	C327.35,134,327.34,133.83,327.34,133.38z M322.46,120.47c0.35,4,0.69,7.87,1,11.71c1-0.1,1.94-0.24,2.84-0.27s1.23-0.47,1.28-1.37
	c0.14-2.63,0.37-5.26,0.56-7.89c0.06-0.75,0.14-1.5,0.2-2.18L322.46,120.47z"/>
<path d="M301.4,132.52l-4.62,0.36c-0.04,0.27-0.07,0.55-0.09,0.82c0,2.25-0.15,2.51-2.39,2.91c-1.34,0.21-2.7,0.31-4.06,0.3
	c-0.8,0-1.23-0.36-1.31-1.27c-0.5-5.63-1.05-11.25-1.59-16.87c-0.2-0.76,0.25-1.54,1.01-1.74c0.05-0.01,0.1-0.02,0.15-0.03
	c1.44-0.3,2.89-0.62,4.36-0.78s2.14,0.29,2.27,1.87c0.09,1,0.48,1.2,1.41,1.17c1.8-0.08,3.62,0,5.58,0c0.12-0.72,0.25-1.26,0.29-1.8
	c0.1-1.17,0.72-1.84,1.86-1.56c2.07,0.49,4.11,1.11,6.11,1.86c1.15,0.45,1.22,1.55,0.29,2.38c-0.57,0.51-0.9,1.24-0.89,2
	c-0.1,3.71-0.27,7.42-0.36,11.13c0,1.69-0.24,2.1-1.89,2.27c-1.39,0.11-2.8,0.11-4.19,0c-1.58-0.1-1.81-0.43-1.86-2
	C301.47,133.29,301.43,133,301.4,132.52z M296.6,131.39l4.92-0.5c0.17-3.39,0.32-6.71,0.48-10h-6.38
	C296,124.39,296.27,127.82,296.6,131.39z"/>
<path d="M173,100.28c-0.13-2.06-0.25-4.1-0.39-6.15c-0.09-1.32-0.19-2.63-0.29-3.95c-0.08-1.06,0.44-1.65,1.45-1.47
	c1.82,0.28,3.63,0.68,5.4,1.2c1.38,0.44,1.49,1.22,0.85,2.52c-0.32,0.64-0.5,1.35-0.52,2.07c0,1.73,0.14,3.46,0.17,5.2
	c0,0.71,0.2,1.06,1,1c1.15,0,2.3,0,3.53,0c0.24-2.53,0.49-5,0.68-7.44c0.24-3.16,0.63-3.47,3.63-2.46c1.05,0.36,2.08,0.79,3.06,1.31
	c1.25,0.65,1.33,1.41,0.58,2.61c-0.39,0.66-0.66,1.39-0.8,2.15c-0.24,1.2-0.32,2.44-0.49,3.81c1.23,0,2.37,0.06,3.49,0
	c0.26,0,0.62-0.58,0.69-0.93c0.43-2.25,0.69-2.46,2.88-1.76c1.33,0.42,2.64,0.93,3.9,1.53c1.32,0.63,1.43,1.37,0.66,2.57
	c-0.39,0.52-0.66,1.13-0.78,1.77c-0.6,5.24-1.16,10.49-1.68,15.74c-0.18,1.72-0.23,3.44-0.35,5.51c0.41-0.22,0.79-0.48,1.14-0.78
	c0.23-0.29,0.42-0.61,0.59-0.94c1-1.55,2.07-2.17,3.16-1.85c1.56,0.7,2.72,2.07,3.15,3.73c0,0.79-0.34,1.14-1.1,1.14h-3.72
	c-14,0-28,0.19-41.93,1.12c-0.86,0.1-1.73,0.14-2.6,0.12c-0.38,0-0.73-0.47-1.1-0.73c0.35-0.28,0.67-0.77,1-0.81
	c1.64-0.18,3.29-0.24,4.94-0.35c0.2-0.04,0.4-0.09,0.59-0.15c-0.06-1-0.11-2-0.16-3.06c-0.41-7.46-0.83-14.92-1.25-22.37
	c-0.05-1,0.33-1.63,1.28-1.8c1.25-0.23,2.52-0.38,3.79-0.49c0.78-0.2,1.58,0.28,1.77,1.06c0.04,0.15,0.05,0.31,0.04,0.47
	c0,0.7,0.33,0.93,1,0.91C171.09,100.26,172,100.28,173,100.28z M179.85,102.37c0.13,3.35,0.25,6.66,0.38,10
	c0.88,0.05,1.77,0.05,2.65,0c0.32-0.1,0.56-0.36,0.65-0.68c0.22-3.06,0.39-6.13,0.57-9.27L179.85,102.37z M173.53,112.79
	c-0.16-3.68-0.32-7.16-0.48-10.71h-3.53l0.81,10.89L173.53,112.79z M193.46,113.79H190v11h2.87c0.13-3.67,0.35-7.28,0.55-11
	L193.46,113.79z M194.61,102.37h-3.92l-0.57,9.69c0.9,0.06,1.79,0.06,2.69,0c0.41-0.11,0.75-0.42,0.88-0.83
	c0.31-2.92,0.58-5.83,0.88-8.86L194.61,102.37z M170.8,125.22h2.81v-10.85l-3.24,0.31c0.11,3.57,0.25,7.02,0.39,10.54L170.8,125.22z
	 M180.52,114.07v11c0.62,0,1,0,1.44,0c1,0.09,1.39-0.29,1.32-1.33s0-2.31,0-3.47c0-2.09,0-4.17,0-6.34L180.52,114.07z"/>
<path d="M179.7,134.11c-0.4,0.45-0.65,1-1.07,1.19c-2.55,1.33-5.07,2.73-7.71,3.85c-2.42,1-5,1.77-7.46,2.58
	c-0.41,0.03-0.83-0.02-1.22-0.14c0.1-0.41,0.27-0.79,0.5-1.14c3.05-3.14,5.74-6.62,8-10.37c0.83-1.36,1.49-1.67,2.86-0.9
	c1.8,1.07,3.53,2.24,5.19,3.5C179.17,133.1,179.48,133.59,179.7,134.11z"/>
<path d="M192.45,131.32c2.27,0.34,4.56,0.58,6.81,1s3.17,2.12,2.21,4.23c-0.63,1.33-1.46,2.55-2.47,3.62
	c-1.12,1.23-2.39,0.92-3.44-0.37c-1.89-2.32-3.9-4.54-5.84-6.82c-0.22-0.26-0.55-0.73-0.46-0.88c0.22-0.32,0.56-0.53,0.94-0.59
	c0.74-0.05,1.48-0.05,2.22,0L192.45,131.32z"/>
<path d="M231.2,107.21c2.39,0.21,4.8,0.45,7.22,0.62c2.59,0.19,5.19,0.27,7.79,0.46c0.51,0.11,1.01-0.22,1.12-0.72
	c0.01-0.03,0.01-0.06,0.01-0.09c0.84-2.93,1.71-5.85,2.52-8.79c0.36-1.31,0.87-1.79,2.09-1.36c1.93,0.68,3.82,1.49,5.66,2.4
	c0.62,0.35,1.03,0.98,1.1,1.69c0,0.53-0.86,1-1.38,1.47c-0.24,0.21-0.64,0.22-0.88,0.42c-2,1.66-3.94,3.33-6.08,5.14h10.48
	c0.05-0.1,0.09-0.21,0.12-0.32c0.35-2.39,0.49-2.53,2.85-1.75c1.75,0.58,3.46,1.28,5.11,2.11c1.19,0.6,1.39,1.48,0.52,2.43
	c-0.83,0.98-1.25,2.24-1.19,3.52c-0.23,6.59-0.38,13.19-0.61,19.78c-0.01,1.61-0.17,3.21-0.48,4.79c-0.91,2.89-3.61,4.84-6.64,4.8
	c-0.78,0.01-1.43-0.6-1.48-1.38c-0.2-2.09-1.72-3.81-3.76-4.27c-0.31-0.09-0.53-0.49-0.8-0.74c0.31-0.21,0.64-0.38,1-0.5
	c0.64-0.11,1.31-0.08,2-0.16c1.81-0.23,2.15-0.66,2.17-2.6c0-3.22,0-6.44,0.16-9.66c0.21-4.65,0.57-9.3,0.87-14l-29.43-1.5
	c0.14,2.26,0.36,4.59,0.42,6.92c0.17,7.42,0.28,14.85,0.43,22.28c0.18,0.91-0.42,1.79-1.33,1.97c-0.13,0.03-0.26,0.04-0.39,0.03
	c-1.56,0.13-3.11,0.32-4.67,0.42c-1,0.06-1.38-0.42-1.4-1.44c-0.21-8.67-0.44-17.37-0.7-26.11c-0.06-1.85-0.23-3.71-0.47-5.55
	c-0.16-1.19,0.26-1.82,1.4-2s2.52-0.45,3.79-0.53C230.49,104.84,230.77,105.09,231.2,107.21z"/>
<path d="M247.77,134.68h-3c-0.59,2.5-0.71,2.6-3.38,3c-0.49,0.09-0.98,0.15-1.47,0.18c-2.48,0.09-2.57-0.1-2.67-2.54
	c-0.14-3.49-0.4-7-0.71-10.47c-0.1-1.12,0.2-1.74,1.28-2c1.41-0.29,2.81-0.61,4.23-0.85c1-0.18,1.72,0.27,1.67,1.4
	s0.43,1.31,1.33,1.29s2.06,0,3.11,0c0.07-0.09,0.12-0.19,0.16-0.3c0.42-2.4,0.63-2.58,3-2c1.44,0.33,2.83,0.88,4.23,1.34
	c0.73,0.24,1.06,0.86,0.65,1.45c-1.88,2.73-1.34,5.87-1.58,8.86c-0.18,2.26-0.08,2.31-2.26,2.75c-0.93,0.18-1.87,0.3-2.81,0.34
	c-1.51,0.08-1.69-0.13-1.74-1.65C247.82,135.25,247.8,135.05,247.77,134.68z M244.07,126.45l0.45,6.45h3.26l0.38-6.45H244.07z"/>
<path d="M240.26,93.38c5.6,0.35,11.2,0.71,16.8,1c0.42-0.04,0.81-0.22,1.11-0.52c0.68-0.59,1.25-1.32,1.94-1.9
	c1.06-1.14,2.83-1.2,3.97-0.15c0.05,0.05,0.1,0.1,0.15,0.15c0.94,0.88,1.74,1.89,2.39,3c0.72,1.16,0.2,1.91-1.18,1.82
	c-3.54-0.24-7.07-0.61-10.61-0.79c-8.82-0.45-17.64-0.82-26.46-1.25c-0.71,0-1.89,0.32-1.91-0.76s1.16-0.84,1.92-0.85
	c4,0,7.92,0,11.88,0V93.38z"/>
<path d="M246.41,116c-0.47,0.41-0.97,0.78-1.5,1.12c-0.76,0.45-1.58,0.81-2.37,1.21c-2.63,1.35-5.25,2.71-7.9,4
	c-0.26,0.13-0.67,0-1-0.07c-0.02-0.37,0.02-0.74,0.12-1.1c1.38-2.79,2.82-5.56,4.2-8.35c0.45-0.91,1.11-1.44,2.05-1
	c1.76,0.77,3.48,1.63,5.15,2.58C245.62,114.64,245.88,115.29,246.41,116z"/>
<path d="M241.25,83.81c2.64,0.24,5.25,0.55,7.57,2s2.48,2.83,0.52,4.6c-1,0.85-2.11,1.56-3.29,2.14c-1.17,0.6-2,0.15-2.61-1
	c-1.13-2.1-2.34-4.15-3.5-6.23c-0.2-0.42-0.38-0.85-0.53-1.29c0.49-0.08,1-0.17,1.48-0.23C241.01,83.78,241.13,83.79,241.25,83.81z"
	/>
<path d="M234.19,97.67c2.8,0.33,5.35,0.61,7.6,2c1.78,1.1,2,2.25,0.9,4c-1.11,1.5-2.7,2.58-4.51,3.06
	c-0.54,0.24-1.17-0.01-1.41-0.55c-0.04-0.1-0.07-0.2-0.08-0.31c-0.68-2.52-1.83-4.9-3.39-7c-0.17-0.23-0.28-0.81-0.2-0.85
	C233.45,97.87,233.82,97.75,234.19,97.67z"/>
<path d="M249.88,112.3c2.76,0.29,5.15,0.47,7.26,1.81c0.97,0.46,1.38,1.62,0.92,2.58c-0.01,0.02-0.01,0.03-0.02,0.05
	c-0.57,1.61-1.7,2.96-3.19,3.81c-1.12,0.62-1.75,0.3-2.34-0.84c-1-1.94-2.1-3.81-3.15-5.71c-0.25-0.45-0.47-0.91-0.7-1.36
	L249.88,112.3z"/>
<path d="M95.49,105.51c2.42,0.2,4.49,0.39,6.57,0.5c0.26,0,0.63-0.33,0.8-0.61c0.43-0.69,0.77-1.45,1.18-2.17
	c0.54-1,1.3-1.39,2.35-0.78c1.59,0.94,3.2,1.87,4.72,2.91c0.42,0.35,0.64,0.88,0.61,1.42c0,0.37-0.68,0.68-1.1,1
	c-0.5,0.24-0.99,0.52-1.45,0.84c-2.83,2.78-6.06,5.12-9.58,6.94c-0.13,0.05-0.22,0.19-0.21,0.33h5.33c-0.08-0.3-0.13-0.6-0.17-0.91
	c-0.05-0.46,0-0.93-0.06-1.39c0.43-0.04,0.87-0.01,1.29,0.09c1.77,0.75,3.49,1.62,5.15,2.6c1.08,0.6,1.47,1.96,0.87,3.05
	c-0.18,0.32-0.43,0.59-0.74,0.79c-1.13,0.81-2.37,1.47-3.68,1.94c-0.81,0.32-1.42-0.15-1.55-1.09s-0.29-1.87-0.46-2.91
	c-0.28,0.12-0.55,0.25-0.82,0.4l-7.43,4.43c-1,0.61-1.87,0.48-2.37-0.58c-0.76-1.59-1.4-3.24-2-4.9c-0.32-0.57-0.12-1.3,0.46-1.62
	c0.2-0.11,0.42-0.16,0.64-0.15c1.16-0.1,2.23-0.7,2.92-1.64c1.42-1.8,2.87-3.59,4.32-5.38l-0.24-0.27
	c-2.22,1.17-4.48,2.27-6.65,3.54c-1.33,0.8-2,0.85-2.63-0.6c-0.65-1.6-1.19-3.23-1.62-4.9c-0.21-0.51,0.04-1.09,0.56-1.3
	c0.14-0.06,0.29-0.08,0.44-0.07c1.39-0.11,2.58-1.06,3-2.39C95,100.2,96,97.83,97,95.44c0.52-1.26,1.08-1.74,2.35-1.25
	c1.99,0.78,3.91,1.69,5.77,2.74c1.18,0.67,1,1.73-0.26,2.3c-0.55,0.29-1.07,0.62-1.56,1l-6.74,4.6L95.49,105.51z"/>
<path d="M123.47,135.07v-10.91h-5c-0.24,0.04-0.49,0.04-0.73,0c-0.53-0.2-1.44-0.44-1.45-0.71c-0.06-0.92,0.77-0.87,1.43-0.85
	c4.5,0.15,9,0.28,13.48,0.48c0.9,0,1.63,0,2.08-0.9c0.02-0.04,0.05-0.07,0.08-0.1c1-1,2-2.1,3.49-1.6c1.67,0.55,2.43,2.06,2.84,3.66
	c0.25,1-0.43,1.17-1.27,1.1c-2.25-0.19-4.51-0.34-6.87-0.51v10.14c1.79,0.16,3.36,0.54,4.41-1.36c0.56-1.23,1.94-1.86,3.24-1.48
	c1.53,0.49,2.69,1.75,3.05,3.32c0.26,1-0.27,1.28-1.23,1.28c-6.06,0-12.12,0-18.19,0.12c-2.3,0-4.61,0.27-6.91,0.41
	c-0.41,0.06-0.82,0.06-1.23,0c-0.37-0.19-0.71-0.44-1-0.74c0.27-0.26,0.5-0.65,0.82-0.75c0.52-0.12,1.05-0.18,1.59-0.18
	L123.47,135.07z"/>
<path d="M116.28,110.3c1.37,0.59,2.71,1.26,4,2c2.14,1.37,2.23,2.62,0.35,4.31c-0.83,0.74-1.76,1.36-2.75,1.86
	c-1,0.52-1.58,0.11-1.9-1c-0.6-2-1.28-4-1.86-6c-0.19-0.58-0.25-1.19-0.19-1.79c0.39-2.61,0.89-5.2,1.27-7.8
	c0.13-0.93,0.64-1.23,1.42-1.12c2.22,0.27,4.33,1.15,6.08,2.54c0.76,0.61,0.64,1.37-0.15,1.91s-1.76,1.26-2.6,1.94
	C118.7,108.23,117.49,109.28,116.28,110.3z"/>
<path d="M127.05,110.3c1.29,0.47,2.56,1,3.8,1.6c2.15,1.16,2.26,2.54,0.4,4.11c-0.72,0.61-1.5,1.15-2.33,1.61
	c-1.2,0.66-1.88,0.28-2.3-1c-0.48-1.61-1.05-3.2-1.7-4.75c-0.4-0.85-0.5-1.81-0.26-2.72c0.46-2,0.82-4.11,1.19-6.17
	c0.22-1.26,0.63-1.65,1.82-1.21c1.71,0.65,3.38,1.4,5,2.25c0.47,0.29,0.77,0.78,0.81,1.32c0,0.34-0.66,0.69-1.07,1
	c-0.22,0.17-0.56,0.18-0.78,0.35C130.12,107.87,128.58,109.09,127.05,110.3z"/>
<path d="M136.69,109.74c1.5,0.43,2.97,0.95,4.41,1.55c1.69,0.82,1.86,2.19,0.44,3.45c-0.95,0.78-2.01,1.42-3.14,1.91
	c-0.81,0.38-1.43,0-1.82-0.89c-0.66-1.59-1.41-3.14-2.25-4.64c-0.58-0.76-0.62-1.79-0.12-2.6c0.87-1.64,1.64-3.33,2.3-5.06
	c0.43-1.06,1.07-1.42,2.11-0.91c1.54,0.67,3.05,1.43,4.51,2.27c1,0.64,0.75,1.66-0.37,2.15
	C140.73,107.85,138.73,108.8,136.69,109.74z"/>
<path d="M122.39,96.07c3.18,0.19,6.92,0.43,10.67,0.6c0.5-0.01,0.97-0.2,1.35-0.52c0.72-0.61,1.29-1.4,2-2
	c1.05-0.98,2.68-0.92,3.66,0.13c0.04,0.04,0.07,0.08,0.11,0.12c0.75,0.78,1.42,1.64,2,2.55c0.66,1,0.23,1.79-1,1.79
	s-2.71-0.18-4.07-0.24l-22-0.92c-0.28,0.05-0.57,0.05-0.85,0c-0.35-0.21-0.69-0.44-1-0.71c0.35-0.26,0.69-0.73,1-0.74
	C116.78,96,119.3,96.07,122.39,96.07z"/>
<path d="M96.63,129.89c-0.17,1.31-0.28,2.5-0.5,3.66c-0.28,1.4-1.39,2.2-2.64,1.59c-1.53-0.76-2.94-1.73-4.2-2.88
	c-0.86-0.78-0.43-2.2,0.44-3.08c1.47-1.47,2.83-3,4.27-4.55c0.25-0.26,0.67-0.58,1-0.53c0.36,0.14,0.64,0.44,0.74,0.81
	C96.06,126.59,96.34,128.29,96.63,129.89z"/>
<path d="M99.91,133.67c-1,0-1.51-0.62-1.49-1.68c0.06-2.09,0.08-4.18,0-6.28c0-1.11,0.48-1.62,1.46-1.15c2.03,0.93,3.76,2.42,5,4.28
	c0.7,0.85,0.58,2.11-0.27,2.82c-0.08,0.07-0.17,0.13-0.27,0.18c-1.39,0.82-2.83,1.55-4.31,2.19L99.91,133.67z"/>
<path d="M106.16,123.51c2.15,0.31,4.16,1.26,5.77,2.71c0.83,0.73,0.91,1.99,0.18,2.82c-0.06,0.06-0.11,0.12-0.18,0.18
	c-1.12,0.82-2.32,1.51-3.59,2.06c-0.83,0.37-1.46,0-1.67-1c-0.37-1.84-0.84-3.67-1.3-5.49C105.2,124.05,105.11,123.46,106.16,123.51
	z"/>
<g id="Ok6peR.tif">
	<path class="st3" d="M46.87,106.72H58c1.23,0.18,2.46,0.34,3.69,0.54c3.13,0.51,6.37,0.74,8.87,3.1c0.17,0.16,0.63,0.11,0.93,0
		c3.51-0.79,4.87-0.16,6.35,3V116c-1.5,4.57-4.39,7.5-9.42,7.68c-1.72,0.07-2.49,1.11-3.38,2.21c1.33,0.6,2.62,1,3.78,1.72
		c2.94,1.72,3,4.51,0.12,6.28c-1.16,0.7-2.42,1.23-3.74,1.57c-6.51,1.66-13.29,2-19.94,1c-2.81-0.46-5.58-1.18-8.26-2.13
		c-1.63-0.39-2.8-1.81-2.88-3.48c0-1.93,1.41-2.88,2.93-3.64c1-0.49,2-0.83,3-1.23c0-0.14,0-0.2-0.06-0.23L39.32,125
		c-3.2-3.38-5.09-7.8-5.32-12.45c-0.2-1.34,0.52-2.66,1.77-3.2c1.74-0.72,3.54-1.3,5.37-1.73C43,107.18,45,107,46.87,106.72z
		 M67.45,111.79c-9.74-2.81-20.07-2.81-29.81,0C47.38,114.57,57.71,114.57,67.45,111.79z M62.45,128.3c0.06,2.22-1.26,2.9-2.72,3.25
		c-4.74,1.13-9.68,1.13-14.42,0c-1.54-0.36-2.79-1.14-2.87-3.1c-2,0.66-3.95,0.82-5.69,2.6c1.22,0.57,2.47,1.07,3.74,1.5
		c4.92,1.36,10.06,1.81,15.14,1.31c3.45-0.42,6.88-1.03,10.27-1.82c0.74-0.25,1.45-0.6,2.1-1.04v-0.58L62.45,128.3z M69.2,120.5
		c2.9-0.24,5.23-2.5,5.55-5.39c0.11-0.82,0.13-1.7-0.92-2s-2.8,0.43-3,1.21c-0.55,2.06-1.06,4.14-1.59,6.18H69.2z"/>
</g>
<path class="st3" d="M367.5,103.44c-0.9,1.97-1.67,4.01-2.3,6.08l0,0c0,0-0.08,0.27-0.2,0.73l0,0c-0.59,2.08-0.79,4.25-0.59,6.4l0,0
	c0.22,2.62,1.13,5.13,2.65,7.27c0.14,0.24,0.4,0.38,0.68,0.36c6.67,0,13.33,0,20,0c0.26,0.02,0.51-0.11,0.64-0.34
	c1.5-2.1,2.42-4.55,2.65-7.12c0.12-1.11,0.12-2.24,0-3.35c0,0,0-3.29-2.43-8.5l-1.11-2.7c-0.72-1.78-1.57-3.52-2.14-5.34
	c-0.63-2.26,0.69-4.61,2.95-5.24c0.17-0.05,0.35-0.09,0.52-0.11c0.73-0.12,1.49-0.1,2.28-0.15v-2.88h-26.69v3c0.58,0,1.09,0,1.59,0
	c1.21,0.01,2.37,0.54,3.17,1.45c1.22,1.32,1.51,3.26,0.73,4.88C369.13,99.74,368.31,101.59,367.5,103.44z"/>
<path class="st3" d="M358.49,127.26v5.93h38.45v-5.93H358.49z"/>
<path class="st3" d="M370.36,139.1h14.73v-2.92h-14.73V139.1z"/>
</svg>
