<?xml version="1.0" encoding="utf-8"?>
<!-- Generator: Adobe Illustrator 24.1.0, SVG Export Plug-In . SVG Version: 6.00 Build 0)  -->
<svg version="1.1" id="圖層_1" xmlns="http://www.w3.org/2000/svg" xmlns:xlink="http://www.w3.org/1999/xlink" x="0px" y="0px"
	 viewBox="0 0 440 160" style="enable-background:new 0 0 440 160;" xml:space="preserve">
<style type="text/css">
	.st0{fill:#80ADB7;}
	.st1{enable-background:new    ;}
	.st2{fill:#FFFFFF;}
	.st3{fill:#C28032;}
</style>
<path class="st0" d="M90.85,23.27c0,0-9.5,3.17-11.85,15.06s-4.75,18.22,0,24.55S84.52,75.56,92.44,74s17.43-4.76,21.39,0
	s10.3,7.92,10.3,7.92s3.17-7.92,11.09-8.72s54.66-0.79,66.54-0.79s45.16-0.79,61.79,0s30.11-2.38,43.58,0s44.32-0.85,50.66,0.74
	s19.81,0.79,22.18-4.76s5.6-7.13,3.59-15.44s1.29-11.92-1.35-17.21c-2.86-5.71-7.79-10-17.17-11.89
	c-13.21-2.64-87.41-2.32-95.34-2.32s-32.29,1.76-40.21,1.76H90.85V23.27z"/>
<g class="st1">
	<path class="st2" d="M110.33,46.3h-6.01v11.21h-1.89V39.64h7.9V46.3z M108.44,42.25v-0.9h-4.11v0.9H108.44z M108.44,44.7v-0.9
		h-4.11v0.9H108.44z M117.03,52.55h-2.94v4.54h-1.87v-4.54h-2.48c-0.2,1.87-1.11,3.41-2.73,4.6l-1.56-1.26
		c1.36-0.89,2.15-2.01,2.36-3.34h-2.92v-1.76h3.09v-1.72h-2.43v-1.74h10.88v1.74h-2.34v1.72h2.94V52.55z M112.22,50.79v-1.72h-2.33
		v1.72H112.22z M119.59,55.9c0,0.47-0.17,0.85-0.5,1.14c-0.34,0.29-1.28,0.43-2.82,0.43c-0.29,0-0.54-0.01-0.76-0.02l-0.48-2.01
		c0.51,0.12,1.11,0.17,1.8,0.17c0.38,0,0.62-0.03,0.73-0.1s0.16-0.21,0.16-0.43V46.3h-6.01v-6.65h7.88V55.9z M117.73,42.25v-0.9
		h-4.1v0.9H117.73z M117.73,44.7v-0.9h-4.1v0.9H117.73z"/>
	<path class="st2" d="M126.93,45.88c-0.65,4.03-1.5,7.2-2.56,9.5l-1.7-1.01c1.18-2.7,1.98-5.65,2.39-8.86L126.93,45.88z
		 M137.11,51.27c-0.04,1.34-0.11,2.42-0.22,3.24c-0.11,0.82-0.24,1.36-0.41,1.61c-0.17,0.25-0.42,0.5-0.75,0.73
		c-0.33,0.23-0.8,0.37-1.4,0.42c-0.6,0.04-1.24,0.07-1.93,0.07c-0.76,0-1.47-0.03-2.14-0.09c-0.67-0.06-1.12-0.17-1.34-0.32
		c-0.22-0.16-0.4-0.37-0.53-0.65s-0.19-0.6-0.19-1V43.65h1.88v11.12c0,0.51,0.31,0.75,0.92,0.73c0.61-0.02,1.64-0.03,3.07-0.03
		c0.22,0,0.45-0.07,0.67-0.22c0.22-0.15,0.37-0.76,0.45-1.84c0.08-1.08,0.12-1.98,0.12-2.69L137.11,51.27z M135.43,44.8l-1.6,1.16
		c-1.09-2.01-2.53-3.93-4.33-5.77l1.32-1.16C132.52,40.64,134.06,42.56,135.43,44.8z M141.28,53.84l-1.83,0.86
		c-0.67-2.8-1.74-5.53-3.21-8.21l1.64-0.88C139.52,48.71,140.65,51.46,141.28,53.84z"/>
	<path class="st2" d="M161.15,57.49h-1.94v-1.03h-14.41v-6.95h1.92v5.15h5.33v-7.2h-6.28v-6.95h1.89v5.14h4.39v-6.51h1.89v6.51h4.39
		v-5.14h1.9v6.95h-6.29v7.2h5.31v-5.15h1.9V57.49z"/>
	<path class="st2" d="M183.41,55.5l-0.62,1.76c-0.77,0.01-3.45,0.02-8.02,0.02c-3.2,0-5.47-0.81-6.81-2.42
		c-0.54,0.97-1.2,1.88-1.99,2.74l-1.38-1.12c1.72-1.84,2.81-3.84,3.27-6.01h-2.77v-1.74c0.87-1.03,1.67-2.22,2.41-3.59h-2.69v-1.68
		h4.64v1.68c-0.69,1.27-1.43,2.49-2.22,3.64h2.43v1.69c-0.26,1.04-0.57,1.99-0.94,2.84c1.12,1.51,3.08,2.27,5.89,2.27
		C178.64,55.58,181.57,55.55,183.41,55.5z M169.3,41.81l-1.41,1.17c-0.88-1.04-1.84-1.93-2.89-2.67l1.25-1.3
		C167.4,39.75,168.41,40.69,169.3,41.81z M176.02,43.11h-3.07c0.02,0.63,0.01,1.3-0.04,2.01h2.97c0.03,1.93,0,3.73-0.1,5.41
		s-0.23,2.69-0.39,3.04c-0.16,0.34-0.44,0.61-0.84,0.79c-0.4,0.19-1.04,0.26-1.92,0.21l-0.4-1.66c0.77,0.05,1.22,0.03,1.37-0.05
		c0.15-0.08,0.25-0.2,0.31-0.35c0.06-0.15,0.12-0.79,0.19-1.92c0.07-1.13,0.11-2.41,0.13-3.83h-1.36c-0.1,3.49-0.85,6.08-2.26,7.77
		l-1.3-1.3c0.71-0.9,1.21-2.03,1.5-3.38c0.29-1.35,0.43-3.6,0.44-6.74h-1.3v-1.7h2.31c-0.14-0.53-0.38-1.17-0.74-1.9l1.72-0.56
		c0.44,0.94,0.74,1.76,0.9,2.46h1.88V43.11z M183.18,50.39h-2.41v2.29c0,0.91-0.26,1.47-0.77,1.67c-0.52,0.21-1.42,0.29-2.71,0.27
		l-0.51-1.68c0.79,0.01,1.36,0.01,1.69,0c0.33-0.01,0.5-0.16,0.5-0.44v-2.1h-2.49v-1.68h2.49v-0.86c0.62-0.62,1.11-1.18,1.5-1.69
		h-3.3V44.8c-0.22,0.25-0.43,0.44-0.62,0.57l-0.94-1.54c1.13-1.03,2.18-2.66,3.13-4.87l1.55,0.52c-0.25,0.68-0.53,1.29-0.83,1.8
		h3.67v1.68h-4.6c-0.26,0.45-0.62,0.94-1.07,1.48h5.11v1.7c-0.57,0.77-1.16,1.47-1.76,2.11v0.44h2.41V50.39z"/>
	<path class="st2" d="M193.2,43.63c-0.09,2.01-0.37,3.75-0.84,5.21l-1.43-0.76c0.42-1.22,0.68-2.82,0.78-4.79L193.2,43.63z
		 M197.97,46.1l-1.14,1.28c-0.34-0.57-0.78-1.13-1.3-1.67V57.4h-1.85V39.16h1.85v4.17C196.49,44.23,197.3,45.15,197.97,46.1z
		 M209.35,49.79h-6.55c-0.51,3.12-2.33,5.72-5.47,7.79l-1.34-1.5c2.8-1.68,4.41-3.78,4.85-6.3h-4.36v-1.82h4.63
		c0.08-0.97,0.12-2.3,0.14-3.99h-3.81v-1.82h3.79c0.05-1.07,0.06-2.06,0.04-2.97h1.86c0.02,1.09,0.02,2.08,0,2.97h4.79v5.8h1.42
		V49.79z M209.53,56.34l-1.49,1.26c-1.43-1.84-3.15-3.58-5.17-5.21l1.32-1.28C206.34,52.73,208.12,54.47,209.53,56.34z
		 M206.02,47.96v-3.99h-2.87c-0.03,1.76-0.07,3.09-0.13,3.99H206.02z"/>
	<path class="st2" d="M219.11,53.92c-1.6,1.3-3.62,2.4-6.05,3.3l-1.01-1.58c2.27-0.81,4.15-1.79,5.63-2.93L219.11,53.92z
		 M230.37,52.26h-8.15v5.25h-1.91v-5.25h-8.23v-1.71h8.23v-0.95h1.91v0.95h8.15V52.26z M218.25,41.85c-1.24,2.43-2.5,4.26-3.75,5.5
		c0.63-0.03,1.18-0.1,1.65-0.21c-0.04-0.25-0.12-0.55-0.25-0.9l1.38-0.44c0.38,1.08,0.67,2.21,0.88,3.37l-1.4,0.49
		c-0.03-0.25-0.09-0.59-0.2-1.04c-1.57,0.28-2.92,0.46-4.03,0.52l-0.31-1.45c0.86-0.84,1.66-1.83,2.39-2.98
		c-0.16,0-0.85,0.06-2.06,0.17l-0.27-1.5c0.9-1.17,1.68-2.66,2.33-4.47l1.74,0.42c-0.47,1.29-1.17,2.56-2.08,3.8
		c0.38-0.02,0.82-0.06,1.32-0.11c0.38-0.64,0.7-1.26,0.94-1.87L218.25,41.85z M223.92,49.15h-5.27v-8.46h1.32
		c0.25-0.42,0.49-1,0.74-1.74l1.87,0.38c-0.21,0.52-0.43,0.97-0.65,1.36h1.99V49.15z M222.24,44.09v-1.76h-1.93v1.76H222.24z
		 M222.24,47.52v-1.9h-1.93v1.9H222.24z M230.49,55.7l-0.98,1.58c-1.47-0.98-3.49-1.95-6.07-2.92l0.92-1.55
		C226.73,53.68,228.77,54.64,230.49,55.7z M230.49,49.11l-1.45,0.63c-0.12-0.55-0.2-0.86-0.24-0.94c-1.35,0.21-2.75,0.35-4.19,0.44
		l-0.3-1.42c0.88-0.82,1.7-1.88,2.48-3.19l-2.16,0.24l-0.36-1.39c0.89-1.13,1.67-2.64,2.35-4.51l1.68,0.44
		c-0.44,1.25-1.08,2.48-1.93,3.68c0.33,0,0.8-0.06,1.41-0.17c0.38-0.68,0.66-1.24,0.84-1.68l1.66,0.57
		c-0.96,2.11-2.15,3.99-3.55,5.65c0.55,0,1.06-0.06,1.55-0.19c-0.08-0.24-0.2-0.53-0.36-0.88l1.39-0.62
		C229.84,46.86,230.23,47.98,230.49,49.11z"/>
	<path class="st2" d="M251.62,55.52l-0.64,1.7c-1.33,0.02-2.44,0.03-3.35,0.03c-1.94,0-3.57-0.04-4.89-0.13s-2.43-0.35-3.34-0.79
		c-0.91-0.44-1.67-1.07-2.3-1.88c-1.03,1.48-2.01,2.54-2.93,3.2l-1.28-1.52c1.65-1.09,2.98-2.93,4.01-5.52l1.8,0.46
		c-0.21,0.58-0.46,1.18-0.76,1.78c0.72,1.07,1.92,1.84,3.6,2.33v-5.33h-8.43v-1.68h18.31v1.68h-7.98v1.91h6.87v1.66h-6.87v1.96
		C244.77,55.44,247.5,55.49,251.62,55.52z M249.04,46.88h-13.48v-7.41h13.48V46.88z M247.12,42.43v-1.28h-9.64v1.28H247.12z
		 M247.12,45.24v-1.27h-9.64v1.27H247.12z"/>
	<path class="st2" d="M272.43,52.2h-18.25v-1.7h2.68v-2.83h-2.3v-1.7h2.3v-2.18c-0.32,0.28-0.8,0.68-1.44,1.2l-1.38-1.45
		c1.98-1.42,3.47-2.95,4.47-4.6l1.96,0.54c-0.31,0.59-0.68,1.14-1.12,1.64h12.52v1.74h-14.09c-0.18,0.21-0.47,0.5-0.86,0.86h1.8
		v2.25h1.95v-2.25h1.78v2.25h2.08v-2.25h1.76v2.25h2.08v-2.25h1.8v2.25h1.87v1.7h-1.87v2.83h2.25V52.2z M258.22,53.5
		c-0.67,1.63-1.47,3.05-2.4,4.24l-1.74-1.12c0.76-0.88,1.54-2.17,2.36-3.9L258.22,53.5z M260.67,50.49v-2.83h-1.95v2.83H260.67z
		 M262.63,57.03l-1.86,0.55c-0.25-1.28-0.63-2.62-1.15-4.02l1.78-0.62C261.86,54.01,262.27,55.37,262.63,57.03z M264.53,50.49v-2.83
		h-2.08v2.83H264.53z M267.62,56.86l-1.8,0.72c-0.4-1.33-0.97-2.66-1.7-3.99l1.8-0.7C266.7,54.43,267.27,55.75,267.62,56.86z
		 M268.38,50.49v-2.83h-2.08v2.83H268.38z M272.57,56.82l-1.85,0.8c-0.57-1.44-1.34-2.83-2.31-4.18l1.8-0.82
		C271.2,53.98,271.98,55.38,272.57,56.82z"/>
	<path class="st2" d="M279.97,39.27c-0.16,0.72-0.42,1.62-0.76,2.72l-0.52,1.59v13.87h-1.8V47.5c-0.3,0.57-0.66,1.14-1.09,1.69
		l-0.96-1.97c1.52-2.42,2.63-5.21,3.33-8.36L279.97,39.27z M292.17,54.57h-7.56l0.84,1.07c-1.05,0.68-2.68,1.34-4.87,1.98
		l-0.92-1.52c1.93-0.55,3.38-1.06,4.35-1.53h-2.88v-8.01h11.04V54.57z M293.35,41.01h-4.09v0.88h3.61v3.84h-12.48v-3.84h3.68v-0.88
		h-3.91v-1.5h13.19V41.01z M284.07,44.36v-1.09h-1.88v1.09H284.07z M290.32,48.82v-0.86h-7.35v0.86H290.32z M290.32,51.03v-0.94
		h-7.35v0.94H290.32z M290.32,53.21v-0.95h-7.35v0.95H290.32z M287.55,41.89v-0.88h-1.76v0.88H287.55z M287.55,44.36v-1.09h-1.76
		v1.09H287.55z M293.47,56.21l-0.9,1.4c-1.39-0.59-3-1.11-4.85-1.56l1.03-1.34C290.49,55.13,292.06,55.63,293.47,56.21z
		 M291.06,44.36v-1.09h-1.8v1.09H291.06z"/>
	<path class="st2" d="M314.73,55.46l-0.72,1.93l-5.35-0.02c-2.18,0-3.78-0.2-4.79-0.59c-1.01-0.39-1.8-0.89-2.36-1.49
		c-1.59,0.94-3.01,1.73-4.29,2.36l-1.12-1.58c4.17-2.1,7.42-4.08,9.74-5.96c2.32-1.87,4.15-3.94,5.46-6.2h-14.24v-1.79h7.59
		c-0.33-0.79-0.76-1.58-1.28-2.39l1.85-0.72c0.68,1.13,1.19,2.16,1.52,3.11h6.76v1.79c-2.03,3.83-5.51,7.3-10.44,10.42
		c0.38,0.38,0.99,0.68,1.85,0.9c0.86,0.22,1.76,0.32,2.72,0.32h2.13C311.78,55.54,313.44,55.51,314.73,55.46z"/>
	<path class="st2" d="M332.91,54.99h-9.18l0.8,0.86c-1.85,0.81-4.1,1.42-6.74,1.85l-0.84-1.54c2.45-0.37,4.23-0.76,5.35-1.17h-2.87
		v-6.65h13.47V54.99z M335.03,45.56h-3.83v1.16h1.6V46h1.66v1.74h-8.19V46h1.68v0.72h1.58v-1.16h-3.8v-1.11h3.8v-0.63h-2.02
		c-0.12,0.13-0.3,0.28-0.56,0.44l-1.36-0.56c0.78-0.67,1.34-1.27,1.69-1.8l1.5,0.4c-0.03,0.07-0.1,0.19-0.21,0.36h4.48v-0.97h-13.72
		v0.76h5.89v1.28h-2.56v0.7h2.12v1.15h-2.12v0.7c0.72-0.02,1.63-0.08,2.75-0.19l-0.06,1.26c-1.99,0.2-4.51,0.38-7.56,0.54l-0.4-1.32
		c1.81-0.07,2.99-0.12,3.53-0.14v-0.84h-2.44v-1.15h2.44v-0.7h-2.77v-0.84h-0.66v-2.54h7.65c-0.05-0.19-0.21-0.5-0.47-0.92l2-0.44
		c0.27,0.49,0.51,0.95,0.7,1.36h7.5v2.58H334v0.9h-2.8v0.63h3.83V45.56z M331.1,50.31v-0.78h-9.88v0.78H331.1z M331.1,52.03v-0.76
		h-9.88v0.76H331.1z M331.1,53.77v-0.8h-9.88v0.8H331.1z M335.43,56.26l-0.8,1.55c-2.02-0.55-4.13-0.92-6.34-1.11l0.78-1.46
		C331.66,55.47,333.78,55.8,335.43,56.26z"/>
</g>
<path class="st2" d="M357.1,55.17c0.37,0.14,0.66,0.42,0.82,0.78c0.16,0.35,0.16,0.76,0,1.11c-0.14,0.35-0.42,0.63-0.77,0.77
	c-0.36,0.15-0.78,0.15-1.14,0c-0.37-0.14-0.68-0.42-0.85-0.78c-0.32-0.72,0.01-1.56,0.73-1.87c0.01-0.01,0.03-0.01,0.04-0.02
	C356.31,55.01,356.73,55.01,357.1,55.17z M363.18,43.17l-4.46,10.41l-1.78-0.71l3.94-10.62L363.18,43.17z"/>
<path d="M342.85,111.29l18.77-1c0-0.81,0.1-1.46,0.1-2.12c0-1,0.6-1.43,1.44-1.2c2.08,0.57,4.13,1.25,6.14,2.03
	c0.71,0.2,1.12,0.93,0.93,1.64c-0.09,0.31-0.28,0.58-0.55,0.75c-0.69,0.65-1.02,1.59-0.88,2.52c0.23,5.53,0.52,11.06,0.66,16.6
	c0.08,1.95-0.08,3.91-0.47,5.82c-0.7,2.61-3.05,4.43-5.75,4.45c-0.7,0.1-1.35-0.37-1.47-1.06c-0.38-1.9-1.85-3.4-3.74-3.83
	c-0.26-0.08-0.44-0.43-0.65-0.66c0.25-0.19,0.52-0.34,0.82-0.45c0.82-0.06,1.63-0.16,2.43-0.31c1.46-0.42,1.76-1,1.69-2.53
	c-0.25-5.49-0.51-11-0.74-16.49c-0.05-1.13,0-2.27,0-3.55l-6.74,0.39c0.13,2.18,0.23,4.25,0.38,6.32c0.05,0.24,0.21,0.45,0.43,0.56
	c0.1,0,0.37-0.18,0.53-0.31s0.12-0.21,0.19-0.3c0.62-0.86,1.19-1.86,2.5-1.58c0.76,0.16,2,2.11,1.88,3.07
	c-0.15,0.42-0.51,0.74-0.95,0.84c-1.06,0.05-2.12,0.05-3.18,0c-0.38,0-0.76,0-1.11,0v5.62l0.31,0.24c0.3-0.2,0.59-0.44,0.84-0.7
	c0.32-0.39,0.49-0.91,0.84-1.26c0.59-0.7,1.63-0.78,2.33-0.2c0.12,0.1,0.23,0.22,0.31,0.36c0.17,0.22,0.32,0.45,0.46,0.69
	c1,1.78,0.67,2.37-1.33,2.44c-1.18,0-2.34,0.13-3.53,0.2c0,1.74-0.05,3.38,0,5c0,1.05-0.25,1.76-1.39,1.93s-2.47,0.47-3.72,0.56
	s-1.62-0.38-1.62-1.59c0-1.73,0-3.45,0-5.3c-1.14,0.13-2.1,0.31-3.07,0.32c-0.36,0-0.72-0.37-1.09-0.58c0.31-0.28,0.58-0.73,1-0.82
	c0.94-0.24,1.93-0.32,2.88-0.47v-6.56c-1,0.09-2,0.12-3,0.1c-0.4,0-0.79-0.42-1.18-0.64c0.37-0.31,0.7-0.82,1.11-0.88
	c0.96-0.07,1.92-0.07,2.88,0l-0.51-6.46h-5.07c0.09,1.37,0.21,2.62,0.24,3.86c0.09,5.27,0.14,10.53,0.23,15.8
	c0.12,0.67-0.32,1.31-0.99,1.43c-0.1,0.02-0.2,0.02-0.3,0.02c-1.45,0.1-2.89,0.25-4.33,0.35c-1.14,0.08-1.57-0.43-1.57-1.62
	c0-4.44-0.06-8.88-0.18-13.32c-0.09-2.91-0.28-5.82-0.54-8.71c-0.09-1.09,0.34-1.58,1.3-1.69c1.28-0.17,2.58-0.26,3.87-0.29
	c1.62,0,1.79,0.19,2,1.78C342.7,110.6,342.75,110.83,342.85,111.29z"/>
<path d="M324.84,122.77c-1.88,0.29-3.78,0.61-5.68,0.85c-0.72,0.09-1.83,0.46-1.92-0.66s1-0.8,1.73-0.92c1.77-0.32,3.55-0.65,5.33-1
	c0.65-0.11,0.89-0.43,0.93-1.11c0.1-1.62,0.75-2.13,2.31-1.65c1.8,0.55,3.56,1.22,5.27,2c1.35,0.62,1.43,1.49,0.35,2.46
	c-0.6,0.49-0.95,1.23-0.93,2c0,2.79-0.07,5.58-0.13,8.37c-0.02,0.83,0.39,1.62,1.08,2.08c3.31,2.43,7.27,3.82,11.38,4
	c3.65,0.31,7.33,0.02,10.89-0.84c0.19-0.06,0.38-0.09,0.58-0.09c0.34,0.09,0.67,0.2,1,0.32c-0.1,0.35-0.25,0.69-0.44,1
	c-0.67,0.59-1.27,1.27-1.79,2c-0.51,1.08-0.85,2.23-1,3.42c-0.19,1.43-0.55,2.17-1.76,2.22c-4.25,0.36-8.52-0.32-12.44-2
	c-3.62-1.75-6.41-4.83-7.8-8.6c-0.1-0.25-0.21-0.5-0.37-0.88c-0.24,0.26-0.45,0.46-0.63,0.68c-1.29,1.59-2.59,3.17-3.86,4.77
	c-0.68,0.85-1.33,1.73-2,2.63c-0.82,1.17-1.69,1.33-2.55,0.21c-1.41-1.83-2.73-3.73-4-5.68c-0.7-1.11-0.36-1.7,0.9-2.07
	c1.65-0.48,3.32-0.93,5-1.47c0.36-0.16,0.62-0.48,0.7-0.87c0-3.66,0-7.31,0-11C324.95,122.88,324.9,122.82,324.84,122.77z"/>
<path d="M354.72,97.57l-13.53-1.87c-0.23,0-0.54,0-0.68-0.13c-0.25-0.31-0.47-0.65-0.65-1c0.32-0.15,0.65-0.47,0.95-0.44
	c1.48,0.16,2.95,0.45,4.43,0.63c3.11,0.38,6.24,0.7,9.35,1.08c0.62,0.16,1.26-0.19,1.47-0.8c1.37-3,1.92-2.79,4.46-1
	c1.29,0.98,2.45,2.11,3.48,3.36c1.05,1.21,0.58,2-0.93,2.52c-2.55,0.87-5,1.94-7.53,2.93l-1.38,0.55c0.63,0.3,1.12,0.48,1.57,0.74
	c1.36,0.76,1.65,1.79,0.68,3c-0.81,0.99-1.74,1.88-2.77,2.64c-0.82,0.6-1.97,0.42-2.57-0.4c-0.02-0.03-0.04-0.06-0.06-0.08
	c-1.79-2.29-3.93-4.29-6.34-5.93c-0.21-0.13-0.25-0.51-0.37-0.78c0.25-0.15,0.52-0.26,0.81-0.31c1.77,0.07,3.53,0.21,5.29,0.29
	c0.35,0,0.86,0,1-0.24C352.56,100.76,353.62,99.17,354.72,97.57z"/>
<path d="M323.63,104.39c2.25,0.49,4.47,1.11,6.65,1.84c3.11,1.21,3.51,3.19,1.32,5.71c-0.73,0.82-1.58,1.52-2.53,2.07
	c-1.27,0.75-2.31,0.21-2.93-1.1c-1.12-2.36-2.36-4.67-3.53-7c-0.17-0.32-0.42-0.79-0.3-1S323,104.62,323.63,104.39z"/>
<path d="M278.13,132c0.94-2.7,1.92-5.37,2.79-8.09c0.55-1.74,1.12-2.22,2.79-1.52c1.87,0.8,3.69,1.72,5.43,2.77
	c1.36,0.81,1.25,2.14-0.22,2.79c-0.76,0.38-1.36,1.02-1.69,1.81c-1,1.81-2.1,3.56-3.34,5.62c2.59,0.45,5.07,0.94,7.57,1.3
	c1.51,0.21,3.06,0.18,4.58,0.35c0.38,0,0.73,0.42,1.1,0.64c-0.25,0.31-0.44,0.78-0.77,0.9c-2.23,0.87-3.2,2.66-3.7,4.83
	s-1,2.34-3.06,1.86c-3.79-0.77-7.34-2.44-10.35-4.86c-0.53-0.45-0.87-0.31-1.43,0c-2.9,1.44-5.83,2.84-8.8,4.19
	c-0.34,0.15-0.84,0-1.26-0.06c0.16-0.43,0.38-0.83,0.65-1.19c2.11-2.16,4.25-4.29,6.39-6.41c0.53-0.51,0.4-0.91,0.09-1.52
	c-1.27-2.52-2.45-5.08-3.61-7.66c-0.15-0.33,0.06-0.83,0.1-1.25c0.4,0.16,0.78,0.36,1.12,0.62c1.69,1.67,3.35,3.37,5,5.06
	L278.13,132z"/>
<path d="M271.19,106.29c6.3,0.37,12.42,0.72,18.53,1.12c0.81,0.15,1.63-0.21,2.07-0.91c0.56-0.77,1.23-1.44,2-2
	c0.81-0.75,2.08-0.7,2.83,0.11c0.01,0.02,0.03,0.03,0.04,0.05c0.84,0.87,1.57,1.83,2.18,2.88c0.81,1.42,0.34,2.08-1.26,2
	c-5-0.32-10-0.75-15-1c-6.48-0.31-13-0.47-19.43-0.69c-0.39,0.06-0.78,0.06-1.17,0c-0.38-0.18-0.74-0.42-1.05-0.7
	c0.36-0.27,0.72-0.77,1.09-0.78C265.09,106.26,268.23,106.29,271.19,106.29z"/>
<path d="M268.37,112.25c0.28,0.03,0.55,0.08,0.82,0.16c1.82,0.9,3.6,1.9,5.31,3c1.26,0.89,0.88,2.15-0.56,2.64
	c-0.51,0.17-0.98,0.44-1.37,0.8c-2.53,2.37-5.55,4.15-8.84,5.23c-0.37,0.05-0.74,0.03-1.1-0.06c0.02-0.34,0.1-0.68,0.23-1
	c1.97-3.08,3.52-6.4,4.64-9.88C267.62,112.75,268.13,112.49,268.37,112.25z"/>
<path d="M286.75,113.47c2.07,0.35,4.18,0.6,6.22,1.1c1.22,0.13,2.11,1.23,1.97,2.46c-0.03,0.31-0.13,0.6-0.28,0.87
	c-0.7,1.44-1.59,2.79-2.64,4c-0.61,0.69-1.66,0.76-2.36,0.15c-0.15-0.13-0.27-0.28-0.36-0.45c-1.64-2.5-3.7-4.69-6.09-6.48
	c-0.21-0.15-0.45-0.62-0.37-0.74c0.19-0.28,0.49-0.47,0.82-0.53c1-0.1,2-0.11,3-0.16L286.75,113.47z"/>
<path d="M285.49,99.92c-0.16,0.62-0.42,1.21-0.77,1.74c-1.05,1.05-2.21,1.97-3.47,2.74c-0.91,0.62-2.16,0.38-2.78-0.53
	c-0.13-0.19-0.23-0.4-0.28-0.63c-0.9-2.54-1.78-5.09-2.67-7.64c-0.21-0.61,0-1,0.64-0.9c3,0.51,6,1.06,8.23,3.38
	C284.83,98.65,285.2,99.27,285.49,99.92z"/>
<path d="M206.49,102.45c0.53-1.83,1-3.52,1.49-5.21c0.3-1,0.91-1.49,1.81-1c1.43,0.8,2.77,1.76,4,2.85c1.09,1,0.61,2-0.79,2.51
	c-1.88,0.67-3.7,1.5-5.68,2.32l0.72,6.55c0.38-0.57,0.8-1.12,1.24-1.64c0.31-0.53,1-0.71,1.53-0.4c0.21,0.12,0.37,0.31,0.47,0.53
	c0.19,0.2,0.35,0.42,0.47,0.67c0.28,0.63,0.39,1.32,0.33,2c-0.09,0.29-1.13,0.34-1.74,0.4c-0.69,0.04-1.39,0.04-2.08,0l0.7,7.26
	c0.47-0.79,0.76-1.37,1.13-1.87c0.56-0.75,1.22-1,2-0.23c0.39,0.33,0.74,0.7,1.05,1.1c0.82,1.35,0.49,2-1.06,2.16l-2.92,0.31
	l0.48,6.39l5.53-0.27c-0.26-2.63-0.51-5.16-0.77-7.69c-0.14-1.37,0-1.63,1.43-1.58c1.3,0.05,2.59,0.16,3.87,0.35
	c1.28,0.2,1.49,0.82,0.8,1.89c-0.21,0.27-0.35,0.59-0.39,0.93c0.1,1.92,0.25,3.84,0.39,5.81h2.2v-12.16c-0.18,0-0.39-0.05-0.61-0.06
	s-0.47,0-0.81,0.06c-0.09,1.59-1.18,1.72-2.43,1.59h-0.36c-3.41-0.28-3.44-0.37-3.36-3.71c0.09-3.65,0.09-7.31,0.11-11
	c0-1.25,0.29-1.67,1.58-1.6c1.61,0.08,3.21,0.27,4.79,0.54c0.68,0.02,1.22,0.58,1.2,1.26c-0.01,0.36-0.17,0.69-0.45,0.92
	c-0.63,0.7-0.85,1.68-0.59,2.58c1.48,0.37,2.76,0.4,3.78-1c0.59-0.8,1.68-1.52,2.55-0.8c0.99,0.86,1.77,1.94,2.28,3.15
	c0.3,0.68-0.46,1.09-1.3,1c-2.14-0.24-4.3-0.43-6.45-0.64l-1-0.06v6.1l0.94-0.08c0.29-2.12,0.46-2.27,2.59-1.91
	c1.12,0.18,2.23,0.43,3.32,0.76c1.35,0.42,1.54,1.35,0.65,2.41c-0.31,0.33-0.51,0.74-0.58,1.19c0,3.62,0,7.24,0,10.86
	c0.02,0.13,0.05,0.26,0.09,0.38h4.58l0.53-6.7c-0.72,0.01-1.44-0.04-2.15-0.14c-0.33-0.07-0.59-0.49-0.88-0.75
	c0.32-0.27,0.62-0.68,1-0.76c0.68-0.16,1.65,0.14,2.06-0.24s0.23-1.32,0.3-2c0.14-1.4,0.27-2.79,0.43-4.35
	c-1.08,0.08-2,0.21-2.93,0.2c-0.34,0-0.67-0.33-1-0.51c0.26-0.33,0.47-0.88,0.79-1c1.1-0.2,2.21-0.35,3.32-0.44l0.79-6.2l-3.08,0.33
	c-0.45,0.11-0.92,0.14-1.39,0.1c-0.38-0.1-0.67-0.51-1-0.79c0.3-0.25,0.56-0.67,0.9-0.73c1.27-0.24,2.56-0.4,3.85-0.5
	c0.78-0.07,1.05-0.46,1.15-1.19c0.22-1.59,0.74-2,2.29-1.58c1.55,0.42,3.07,0.95,4.55,1.59c1.28,0.55,1.4,1.61,0.31,2.46
	c-0.61,0.56-0.93,1.37-0.87,2.2c-0.67,6.53-1.33,13.06-2,19.59c-0.05,0.42,0.03,0.84,0.24,1.2c0.24-0.45,0.45-0.91,0.72-1.34
	c0.76-1.24,2-1.93,2.87-1.67c1.33,0.63,2.28,1.85,2.55,3.3c0,0.93-0.51,1.09-1.29,1.11c-4.79,0.08-9.59,0.1-14.38,0.3
	c-10.61,0.44-21.21,1-31.81,1.46c-0.2,0-0.44,0.11-0.58,0c-0.31-0.23-0.61-0.49-0.88-0.77c0.28-0.26,0.54-0.72,0.85-0.75
	c1.47-0.17,3-0.23,4.61-0.33c-0.18-2.1-0.31-4.12-0.53-6.13c-0.67-5.82-1.33-11.64-2-17.45c-0.19-0.8,0.29-1.61,1.08-1.83
	C203.22,101.35,205.05,101.5,206.49,102.45z"/>
<path d="M207.3,144.05c-0.5-0.31-0.91-0.47-0.9-0.58c0.03-0.33,0.16-0.64,0.38-0.89c1.37-1.46,2.84-2.84,4.14-4.35
	s2.25-2.92,3.36-4.4c0.84-1.13,1.46-1.42,2.57-0.61c1.54,1.13,2.99,2.39,4.32,3.76c0.78,0.79,0.4,1.74-0.61,2.16
	s-2.24,1.09-3.41,1.51C213.83,141.83,210.5,143,207.3,144.05z"/>
<path d="M229.35,133.72c2.36,0.6,5,1.1,7.47,1.95c1.9,0.65,2.41,2.15,1.4,3.87c-0.75,1.26-1.73,2.38-2.89,3.28
	c-1.19,0.92-2.15,0.4-3-0.9c-1.29-2.09-2.73-4.09-4.1-6.14c-0.3-0.46-0.56-0.95-0.84-1.42L229.35,133.72z"/>
<path d="M175.13,112.79c-2.39,0-4.78,0-7.17,0c-3,0.07-6,0.25-9,0.36c-0.67,0-1.21,0-1.34,0.91c-0.15,0.39-0.49,0.68-0.9,0.77
	c-1.47,0.23-2.95,0.37-4.44,0.44c-0.91,0-1.39-0.5-1.44-1.49c-0.15-3.49-0.33-7-0.57-10.47c-0.18-0.83,0.35-1.64,1.17-1.82
	c0.07-0.01,0.14-0.03,0.21-0.03c1.36-0.2,2.72-0.32,4.09-0.36c1.21,0,1.38,0.93,1.5,1.87h2.16v-6.12h-5.6c-0.31,0-0.68,0.11-0.93,0
	c-0.37-0.23-0.7-0.5-1-0.81c0.33-0.25,0.66-0.73,1-0.74c2.28-0.05,4.57-0.05,6.84,0c4.17,0.15,8.33,0.38,12.49,0.52
	c0.43-0.06,0.83-0.24,1.16-0.52c0.29-0.26,0.57-0.54,0.82-0.84c2.33-2.19,5.41-1.29,6.27,1.82c0.33,1.19,0,1.66-1.22,1.59
	c-2-0.12-4-0.29-6.06-0.44v5.3c0.78,0.06,1.56,0.06,2.34,0c0.3,0,0.65-0.48,0.75-0.81c0.3-1,0.9-1.4,1.86-1.1
	c1.58,0.44,3.13,0.97,4.65,1.6c1.37,0.62,1.38,1.67,0.28,2.66c-0.3,0.26-0.51,0.61-0.59,1c-0.22,2-0.43,4-0.53,6s-0.1,2-1.9,2.32
	c-0.8,0.15-1.63,0.21-2.45,0.29C175.55,114.9,175.4,114.78,175.13,112.79z M173.25,104.43v6.62h2.11l0.54-6.8L173.25,104.43z
	 M159.68,111.52v-6.79h-2.26c0.14,2.32,0.27,4.56,0.41,6.91L159.68,111.52z M167.57,104.7h-2.08v6.51h2.08V104.7z M167.42,102.93
	v-5.77h-2.15v5.77L167.42,102.93z"/>
<path d="M160.84,117.93h11.86c0.07-0.42,0.13-0.72,0.16-1c0.11-0.87,0.66-1.36,1.45-1.14c2.07,0.59,4.12,1.23,6.12,2
	c0.91,0.36,0.8,1.64,0.07,2.53c-0.44,0.51-0.73,1.13-0.84,1.8c-0.29,4.07-0.53,8.15-0.68,12.23c0,1.25-0.47,2-1.69,2.09
	c-1.56,0.11-3.13,0.15-4.7,0.11c-1.15,0-1.31-0.92-1.23-2.07l-9,0.44c-0.09,1.57-1.24,1.74-2.39,1.88s-2.26,0.32-3.39,0.39
	s-1.59-0.38-1.67-1.48c-0.41-5.64-0.79-11.29-1.25-16.93c-0.09-1.09,0.29-1.66,1.31-1.82c1.31-0.21,2.64-0.37,4-0.51
	C160,116.31,160.79,116.59,160.84,117.93z M162,130l0.25,3.49l9.1-0.53c0.34-4.48,0.69-8.88,1-13.32H161l0.38,3.66
	c1.55,0.24,2.74,0.21,3.7-1.3s2.41-1.5,3.71-0.06c0.24,0.21,0.43,0.46,0.56,0.75c0.23,0.51,0.32,1.07,0.25,1.63
	c-0.06,0.25-0.85,0.4-1.32,0.42c-2.19,0.09-4.38,0.13-6.7,0.19l0.3,3.56c1.49,0.25,2.51,0.06,3.33-1.25c1-1.64,2.35-1.62,3.7-0.21
	c0.35,0.37,0.65,0.79,0.89,1.24c0.67,1.21,0.34,1.73-1.06,1.73H162z"/>
<path d="M142.22,115.52c0.55,0.13,1.58,0.32,2.58,0.61c1.47,0.43,1.71,1.3,0.91,2.59c-0.33,0.54-0.51,1.17-0.5,1.81
	c0.15,3.34,0.38,6.67,0.59,10c0.1,1.69-0.1,2-1.71,2.39c-1.3,0.28-2.63,0.42-4,0.59c-1.09,0.14-1.56-0.38-1.62-1.47
	c-0.19-3.57-0.42-7.14-0.64-10.71c-0.07-1-0.19-2-0.29-3.19c-0.34,0.14-0.61,0.24-0.87,0.37c-1,0.54-2.06,1.13-3.13,1.63
	c-0.42,0.11-0.85,0.16-1.28,0.14c0.1-0.39,0.23-0.77,0.41-1.13c0.45-0.69,1-1.33,1.46-2c2.47-3.5,4.51-7.29,6.09-11.27
	c0.61-1.51,1-1.69,2.62-1.24c1.8,0.48,3.42,1.47,4.67,2.84c1.08,1.18,0.89,2-0.46,2.84c-0.53,0.33-1.01,0.73-1.42,1.19
	C144.45,112.88,143.28,114.29,142.22,115.52z"/>
<path d="M154.3,146.46c0.19-0.34,0.35-0.71,0.57-1c1.7-2.44,3.46-4.84,5.1-7.32c0.59-0.89,1.24-1.3,2.13-0.75
	c1.7,1.03,3.35,2.14,4.93,3.34c0.49,0.25,0.69,0.86,0.43,1.35c-0.14,0.27-0.39,0.46-0.69,0.52c-2.87,1.21-5.76,2.42-8.68,3.51
	c-1.18,0.34-2.38,0.59-3.59,0.75L154.3,146.46z"/>
<path d="M171.63,138.24c2.34,0.49,4.74,0.87,7.07,1.52c1.14,0.16,1.93,1.22,1.76,2.36c-0.07,0.48-0.3,0.92-0.66,1.24
	c-0.91,1.07-1.97,2.01-3.14,2.78c-1.16,0.8-1.94,0.37-2.64-0.86c-1-1.76-2.17-3.44-3.25-5.17c-0.21-0.39-0.4-0.78-0.57-1.19
	L171.63,138.24z"/>
<path d="M102.45,104.07c0.23,0,0.5,0,0.78,0l2.74-0.16c0.07-0.37,0.16-0.71,0.22-1c0.15-0.93,0.77-1.37,1.59-1.12
	c2,0.59,3.88,1.25,5.76,2c0.68,0.23,1.04,0.97,0.81,1.65c-0.09,0.28-0.28,0.51-0.52,0.67c-0.64,0.59-1,1.42-1,2.29
	c-0.17,2.79-0.37,5.57-0.53,8.35c-0.08,1.3-0.45,1.76-1.75,1.88c-1.06,0.11-2.12,0.17-3.18,0.17c-2,0-2.23-0.22-2.54-2.32
	l-20.75,0.84c0.21,1.6-0.73,1.89-1.83,2c-1.33,0.12-2.66,0.24-4,0.3c-0.87,0-1.32-0.38-1.4-1.34c-0.38-4.46-0.81-8.91-1.25-13.37
	c-0.17-0.7,0.25-1.4,0.94-1.58c0.02,0,0.04-0.01,0.06-0.01c1.22-0.3,2.45-0.53,3.7-0.68c1.77-0.17,2.21,0.21,2.63,2.07h3v-8.62
	c-2.37,0-4.56,0-6.75,0c-0.77,0-2,0.27-1.93-0.91c0-1,1.16-0.68,1.84-0.65C86.4,94.8,93.7,95.12,101,95.38
	c0.44-0.03,0.86-0.21,1.19-0.51c0.85-0.68,1.59-1.52,2.49-2.14c1.03-0.75,2.47-0.6,3.33,0.34c0.83,0.82,1.57,1.74,2.2,2.73
	c0.73,1.17,0.26,1.88-1.11,1.79c-2.19-0.15-4.38-0.36-6.77-0.57L102.45,104.07z M105,115l0.73-9.42l-3.53,0.3V115H105z
	 M83.29,106.37l0.88,9.58l2.25-0.26v-9.32H83.29z M95.65,104.43L96,96.57l-3.19-0.18v8L95.65,104.43z M93.14,106.2v9h2.35v-9.1
	L93.14,106.2z"/>
<path d="M98.1,130.83c0.25,3.09,0.51,6,0.73,8.94c0.13,0.99,0.15,2,0.08,3c-0.47,3.65-3.52,5.18-6.57,5c-0.38,0-0.78-0.53-1.1-0.88
	c-0.12-0.25-0.18-0.52-0.19-0.8c-0.34-1.8-1.24-3-3.22-3.2c-0.3,0-0.57-0.38-0.85-0.58c0.3-0.19,0.61-0.35,0.94-0.48
	c0.27-0.04,0.55-0.04,0.82,0c2-0.11,2.9-0.74,2.52-3c-0.44-2.65-0.48-5.38-0.71-8.34c-2.91,0-5.88,0-8.85,0
	c-0.67,0.06-1.33,0.06-2,0c-0.4-0.07-0.74-0.49-1.11-0.75c0.37-0.26,0.73-0.73,1.11-0.74c3.33-0.06,6.67-0.11,10,0
	c4.08,0.09,8.16,0.29,12.24,0.5c0.65,0.08,1.3-0.19,1.69-0.72c0.65-0.87,1.5-1.59,2.47-2.09c1.78-0.71,4.86,2.17,4.56,4.11
	c-0.12,0.78-0.71,0.83-1.34,0.79l-8.11-0.59L98.1,130.83z"/>
<path d="M88.29,137.57c-0.36,0.36-0.74,0.7-1.15,1c-0.62,0.38-1.34,0.61-2,1c-2.43,1.74-5.18,2.98-8.1,3.62
	c-0.33,0.04-0.67,0.04-1,0c0.04-0.36,0.13-0.71,0.26-1.05c1.41-2.52,2.88-5,4.27-7.54c0.38-0.69,0.84-1.15,1.57-0.81
	c1.76,0.83,3.49,1.74,5.19,2.68C87.74,136.62,87.92,137.08,88.29,137.57z"/>
<path d="M105,135.85c1.92,0.31,3.82,0.74,5.68,1.28c2.19,0.77,2.58,2,1.38,4c-0.62,0.99-1.4,1.87-2.31,2.6
	c-1.11,0.91-2.37,0.41-3.1-0.82c-1-1.74-2.24-3.38-3.34-5.08c-0.24-0.42-0.46-0.85-0.66-1.29c0.49-0.16,1-0.35,1.48-0.47
	c0.27-0.04,0.55-0.04,0.82,0L105,135.85z"/>
<path d="M94.58,124c-2.55,0-5.1,0-7.65,0c-0.38-0.01-0.76-0.1-1.1-0.27c-0.14-0.17-0.19-0.39-0.14-0.6
	c0.24-0.28,0.56-0.48,0.92-0.56c2.9-0.12,5.8-0.24,8.7-0.25c0.73,0.07,1.44-0.26,1.85-0.86c2.12-2.95,3.43-2.94,5.71-0.08
	c0.22,0.28,0.43,0.57,0.61,0.87c0.6,1.08,0.22,1.74-1,1.73s-2.67-0.06-4-0.08s-2.59,0-3.89,0L94.58,124z"/>
<g id="NbGgK8.tif">
	<path class="st3" d="M7.23,113.31c0.15-0.71,0.75-1.24,1.47-1.31l40.74-9.11c1.18-0.27,1.73,0.08,2,1.27c0.35,1.55,0.69,3.1,1,4.65
		c0.25,0.7-0.12,1.46-0.82,1.71c-0.06,0.02-0.12,0.04-0.18,0.05c-0.7,0.17-1.14,0.86-1,1.57c0.17,0.68,0.84,1.12,1.54,1
		c0.71-0.18,1.44,0.25,1.62,0.96c0.01,0.05,0.02,0.11,0.03,0.16c0.37,1.64,0.74,3.27,1.1,4.91c0.23,0.7-0.15,1.45-0.85,1.68
		c-0.05,0.02-0.1,0.03-0.15,0.04c-0.71,0.16-1.16,0.86-1.01,1.57c0.16,0.71,0.86,1.16,1.58,1.01l0,0c0.71-0.2,1.45,0.21,1.66,0.92
		c0.02,0.07,0.04,0.15,0.04,0.23l1.08,4.82c0.26,0.69-0.1,1.46-0.8,1.72c-0.09,0.03-0.19,0.06-0.28,0.07l-27.79,6.22
		c-4.36,1-8.72,1.94-13.07,2.94c-0.7,0.27-1.5,0.03-1.95-0.57L11.85,134c0.11-0.65,0.61-1.16,1.25-1.3
		c0.68-0.26,1.02-1.01,0.76-1.69c-0.21-0.54-0.75-0.89-1.33-0.84c-0.64,0.14-1.3-0.12-1.68-0.65l-1.31-5.85
		c0.11-0.65,0.61-1.16,1.25-1.3c0.68-0.26,1.02-1.01,0.76-1.69c-0.21-0.54-0.75-0.89-1.33-0.84c-0.64,0.14-1.3-0.11-1.68-0.64
		L7.23,113.31z M30.23,112.59l-12.68,2.84c-0.76,0.04-1.35,0.69-1.31,1.45c0.01,0.15,0.04,0.3,0.1,0.44c1.11,4.99,2.22,9.99,3.35,15
		c0.04,0.77,0.7,1.35,1.46,1.31c0.16-0.01,0.31-0.04,0.46-0.1l25.25-5.65c0.77-0.04,1.36-0.69,1.32-1.45
		c-0.01-0.16-0.04-0.32-0.1-0.47c-1.11-4.99-2.23-9.99-3.35-15c-0.04-0.76-0.69-1.33-1.44-1.29c-0.15,0.01-0.3,0.04-0.45,0.1
		L30.23,112.59z"/>
	<path class="st3" d="M45.25,125.48l-23.18,5.19l-2.88-12.86l23.18-5.19L45.25,125.48z M31.93,120.35l5-1.13
		c0.73-0.08,1.25-0.74,1.17-1.47s-0.74-1.25-1.47-1.17c-0.1,0.01-0.19,0.03-0.28,0.06l-10,2.24c-0.73,0.08-1.25,0.74-1.17,1.47
		c0.08,0.73,0.74,1.25,1.47,1.17c0.1-0.01,0.19-0.03,0.28-0.06L31.93,120.35z M32.51,122.93l-5.07,1.13
		c-0.73,0.1-1.24,0.77-1.14,1.5c0.1,0.73,0.77,1.24,1.5,1.14c0.08-0.01,0.16-0.03,0.24-0.06l10-2.24c0.74-0.05,1.29-0.69,1.24-1.43
		c-0.05-0.74-0.69-1.29-1.43-1.24c-0.13,0.01-0.26,0.04-0.38,0.08L32.51,122.93z"/>
</g>
<g id="qBUSua.tif">
	<path class="st3" d="M392.71,144.11c0-0.5,0-1,0-1.5v-3.24h3.55v-35.8h4.76v35.78h3.57v0.45c0,1.29,0,2.59,0,3.88
		c0,0.14,0,0.29,0,0.43L392.71,144.11z"/>
	<path class="st3" d="M427.19,122.54h-23.72v-16.6h23.71l-0.21,0.32c-1.82,2.55-3.65,5.11-5.48,7.66c-0.17,0.18-0.17,0.46,0,0.64
		c1.84,2.55,3.67,5.1,5.48,7.67L427.19,122.54z"/>
</g>
</svg>
