<svg id="圖層_1" data-name="圖層 1" xmlns="http://www.w3.org/2000/svg" viewBox="0 0 230 60"><path d="M227,39.8s-.11,0-.12.07c-.59,1.28-1.18,1.52-2.87.82a5.79,5.79,0,0,1-1.85-1.22,5.49,5.49,0,0,0-2.5-1.39c-2.85-.85-4.86-2.88-6.82-5-.32-.34-.28-.68.1-.89a7.94,7.94,0,0,1,1.66-.74,10.25,10.25,0,0,1,4.8.07,9.87,9.87,0,0,1,6.76,5.1,11.65,11.65,0,0,0,.84,1.15Z"/><path d="M181.48,47.37c-.1-1.76-.25-3.52-.29-5.28,0-.87.2-1.73.25-2.6a3.31,3.31,0,0,0-.2-.91,3,3,0,0,0-.8.47,6.22,6.22,0,0,0-.75,1.07c-1,1.61-1.93,3.26-3,4.83a10,10,0,0,1-1.6,1.51c-.33.31-.65.64-1,.94-1,.87-2,1.75-3,2.57a1.72,1.72,0,0,1-1.06.4,2.25,2.25,0,0,1-1.22-.49c-.1-.09.06-.68.24-.93,1.14-1.61,2.4-3.15,3.48-4.8,1.38-2.09,2.61-4.28,3.93-6.41.83-1.34,1.71-2.65,2.57-4a3.74,3.74,0,0,0,.47-.79.67.67,0,0,0-.14-.57c-.08-.09-.4-.06-.53,0-1,.72-2.06,1.44-3,2.21a7.5,7.5,0,0,1-5,1.73,4.52,4.52,0,0,1-3.15-1.88,2.18,2.18,0,0,1,.74-3.41c.19-.08.42-.21.59-.16,1.11.34,1.86-.34,2.62-.93a2.91,2.91,0,0,1,1.76-.59,6.39,6.39,0,0,0,2.2-.53c1.47-.68,2.87-1.48,4.31-2.23a3.44,3.44,0,0,1,.95-.49c2.09-.33,2.64-2,2.66-3.61a54.5,54.5,0,0,1,1.43-9.27,4,4,0,0,0-.29-2.39A1.5,1.5,0,0,1,185,9.14c.43-.47.93-.3,1.41-.05a10.05,10.05,0,0,1,1.67.93,3.4,3.4,0,0,1,1.06,4.44c-.83,1.84-1.53,3.74-2.22,5.65a1.71,1.71,0,0,0,1.52,2.43c1,.17,1.93.29,2.88.53a5.84,5.84,0,0,1,1.69.71,1.19,1.19,0,0,1-.16,2.25,8.47,8.47,0,0,1-1.92.56A3,3,0,0,0,189,27.75a10.87,10.87,0,0,0-2.35,6.39,1.11,1.11,0,0,0,1.22,1.19,17.72,17.72,0,0,0,2.52-.21c1-.14,1.47.1,1.72,1.05a15.69,15.69,0,0,1,.53,2.52,1.34,1.34,0,0,1-.53,1,8.43,8.43,0,0,1-1.88.86.93.93,0,0,1-.78-.25c-.53-.56-1-1.22-1.48-1.77a3.76,3.76,0,0,0-1-.51c-.06.33-.14.65-.18,1s0,.86-.07,1.27a23.69,23.69,0,0,0-.23,8.88,8.69,8.69,0,0,1,.12,1.53c0,.59-.1,1.18-.72,1.41a2.05,2.05,0,0,1-2.1,0C181.74,50.7,181.31,49.91,181.48,47.37Z"/><path d="M202.13,37.24l-2.5,2.68L196,43.81c-.47.51-1,1-1.41,1.53a4.42,4.42,0,0,1-2.81,1.44c-.67.09-1-.38-1.05-1A4.11,4.11,0,0,1,192,42c1.62-1.4,3.15-2.92,4.65-4.45.78-.8,1.42-1.73,2.13-2.59s1.71-2,2.51-3a2.83,2.83,0,0,0-.35-3.36,7.62,7.62,0,0,1-.76-1c-.4-.72-.19-1.15.61-1.36,1.16-.31,2.08.32,3.05.76.37.17.86.56,1.07.45a5,5,0,0,0,1.35-1.22c.35-.42,0-.71-.38-.79-2-.48-3.29-1.89-4.53-3.39-.59-.72-.6-1.11.24-1.52a40.84,40.84,0,0,1,5.35-2.33c2.3-.74,4.69-1.21,7.05-1.77a1.63,1.63,0,0,1,1,0c.22.1.49.54.43.69-.22.5.07.76.3,1.1a18.31,18.31,0,0,1,1.49,2.22c.49.94.34,1.44-.48,2.16-2.28,2-4.63,4-6.86,6-1.37,1.27-2.59,2.71-3.87,4.09a.57.57,0,0,0-.16.4c.22,1.64.48,3.28.71,4.91.27,1.85.6,3.69.75,5.54a2.67,2.67,0,0,1-1.2,2.66c-1,.63-1.82.41-2.15-.74-.49-1.75-.87-3.53-1.25-5.31-.1-.49,0-1,0-1.51A11.38,11.38,0,0,0,202.13,37.24Z"/><path d="M130.17,15.22c-.95.67-1.92,1.31-2.84,2s-2,1.83-3.15,2.57a3.81,3.81,0,0,1-5.27-1.39,3.24,3.24,0,0,1,1.76-4q3.51-1.14,7-2.42c2.16-.8,4.25-1.84,6.47-2.44,1.41-.38,2.94-.91,4.51-.25s1.76,1.67.5,2.79-2.5,2-3.63,3.1a15.7,15.7,0,0,0-2.33,2.94,2.41,2.41,0,0,0-.08,1.78,13.06,13.06,0,0,0,4.43,6.66c.27-.41.55-.81.8-1.24,1.17-1.95,2.41-3.87,3.45-5.89s2.52-3.85,3.18-6.11a8.79,8.79,0,0,1,1.42-2.62,1.13,1.13,0,0,0,.11-1.44c-.45-.79-.32-1.14.5-1.56,1.54-.8,2.29-.66,3.42.67.5.58,1,1.2,1.47,1.78a1.53,1.53,0,0,1,.18,1.92,5.54,5.54,0,0,1-.88,1.16,41.66,41.66,0,0,0-5.54,7.35c-.64,1-1.43,1.95-2.13,2.93-.45.62-.91,1.24-1.3,1.9s0,1.12.89,1.27a5.63,5.63,0,0,1,1.83.49A2.27,2.27,0,0,1,146,28.44c.23.87.79.9,1.44.89,1,0,1.94-.07,2.92-.1a1.76,1.76,0,0,1,.76,0c.5.2,1.21.38,1.36.76s-.17,1.06-.47,1.47a9.46,9.46,0,0,1-1.47,1.35,2.55,2.55,0,0,0-.52.45,9.71,9.71,0,0,0-.56,1.06,6.19,6.19,0,0,0,1,.48c.85.21,1.72.32,2.56.53a1.13,1.13,0,0,1,.65,2,3,3,0,0,1-.79.72c-.48.32-.39.66,0,.9a9.46,9.46,0,0,0,2,1,2.08,2.08,0,0,1,1.46,1.53,3.46,3.46,0,0,1-1,3.6,2.19,2.19,0,0,1-3,.42,1.32,1.32,0,0,0-1.8.1c-.38.35-.79.66-1.19,1-1.43,1.16-3.18,1.3-4.91,1.56a22.15,22.15,0,0,0-3.85,1,3.34,3.34,0,0,1-4.09-1.56.84.84,0,0,1-.14-.43c.2-1.28-.27-2.72,1-3.74l-.13-.23a2.41,2.41,0,0,0-.9.08c-1.35.68-2.69,1.38-4,2.13a3.33,3.33,0,0,1-3,.4c-.9-.33-1.33.17-1.15,1.13a11.25,11.25,0,0,1,.15,1.74c0,.91,0,1.83,0,2.74a2,2,0,0,1-1.12,2.16,1.77,1.77,0,0,1-2.16-1.17,15,15,0,0,1-1.72-6.33c-.07-2.36-.31-4.72-.21-7.07s.52-4.62.79-6.93c.09-.74.16-1.48.25-2.22a6.88,6.88,0,0,1,.21-1.52,7.52,7.52,0,0,0,.31-3.32,10,10,0,0,1,.64-4.53,1.64,1.64,0,0,1,1.42-1.12,1.57,1.57,0,0,1,1.71.77,2.83,2.83,0,0,1,.18,3.22,10.05,10.05,0,0,0-.92,2.74c-.51,1.87-1,3.75-1.44,5.63-.19.8-.23,1.62-.35,2.43-.36,2.53-1.2,5-1,7.6a3.59,3.59,0,0,0,.16,1,4.37,4.37,0,0,1,.26,2.4c0,.27.19.58.3.87.28-.13.65-.18.82-.39a7.51,7.51,0,0,0,2-3.83.8.8,0,0,1,1.15-.74c1.73.52,3.41-.18,5.12-.1a.48.48,0,0,0,.28-.1,14.71,14.71,0,0,1,4.67-1.93c.78-.24,1.54-.55,2.3-.86a2.08,2.08,0,0,0,1.35-2.12c0-.72,0-1.44,0-2.16,0-.17-.11-.44-.24-.49a.71.71,0,0,0-.54.15c-.29.22-.51.51-.79.74-1.4,1.11-2.78,2.25-4.23,3.3a1.57,1.57,0,0,1-1.26,0c-.15-.06-.22-.7-.13-1a8.89,8.89,0,0,1,1.53-3.06,14.47,14.47,0,0,0,1.6-3.28c0-.09-.12-.37-.15-.37-.26,0-.6,0-.74.22-.55.69-1,1.43-1.54,2.17a8.51,8.51,0,0,1-.58,1.08,2.12,2.12,0,0,1-1.06.61c-.46.09-.69-.39-.44-.8.92-1.55.74-1.79-1.08-2a16.19,16.19,0,0,1-3-.79c-.56-.17-.79-1.54-.43-2.11a1.78,1.78,0,0,1,.23-.31,2.84,2.84,0,0,0,.41-3.6,10.6,10.6,0,0,1-.57-1.81c-.12-.41-.3-.81-.4-1.23a7.25,7.25,0,0,1,.18-4.69c.14-.34.21-.7.32-1.05Zm8.25,27.71c.23.16.32.28.43.29a2.94,2.94,0,0,1,2.61,2.11,1,1,0,0,0,.73.53,7.29,7.29,0,0,0,1.68-.09,2.73,2.73,0,0,0,.72-.33c-.15-.24-.24-.57-.45-.71a1.9,1.9,0,0,1-.87-2.55c.24-.55-.08-.88-.58-.89A6.08,6.08,0,0,0,138.42,42.93Zm10.34.84c1-.23,2.09-1.2,2.14-1.79s.12-1.38.16-2.07c0-.53.14-1.15-.62-1.28s-1.66.63-1.67,1.19C148.74,41.12,148.76,42.42,148.76,43.77Z"/><path d="M156.11,54c-.62-.16-1.25-.27-1.85-.48A1,1,0,0,1,153.7,52c.6-1.24,1.14-2.51,1.76-3.73a16.13,16.13,0,0,1,1.14-1.73,7.51,7.51,0,0,0,1.51-4.57,3.29,3.29,0,0,1,.1-.68c.37-2.38.82-4.74,1.1-7.13.31-2.63.47-5.28.7-7.92a2.26,2.26,0,0,1,.09-.53c.57-1.46-.13-2.8-.41-4.17,0-.13-.17-.24-.29-.33a4.29,4.29,0,0,0-4.68,0,6.45,6.45,0,0,1-4.51,1.36c-.72,0-1.43.08-2.14.12a2.1,2.1,0,0,1-.83,0c-.26-.1-.59-.33-.63-.55s.23-.54.45-.67c.7-.42,1.47-.71,2.15-1.15s1.47-1.17,2.25-1.71a13.62,13.62,0,0,1,5.87-2.65,20.87,20.87,0,0,1,3.34-.25c1.66,0,2.7,1.14,3,3.1a5.87,5.87,0,0,1,0,3.52c-.12.3.1.74.14,1.12a11.09,11.09,0,0,1,.16,2c-.15,2.1-.33,4.19-.59,6.28-.2,1.62-.56,3.22-.79,4.83-.13,1-.07,2-.25,2.9-.45,2.37-1,4.71-1.49,7.08a13.23,13.23,0,0,1-1.31,4.47c-.29.49-.55,1-.84,1.47A2.64,2.64,0,0,1,156.11,54Z"/><path d="M83.06,16.74c0,1.24,0,2.48,0,3.72,0,.19.31.47.52.53,1,.28,3.05-.86,3.25-1.86.34-1.76.58-3.54.85-5.31.13-.85.23-1.71.34-2.57a1.9,1.9,0,0,0,0-.53c-.18-1.05-.35-2.1-.57-3.14a.88.88,0,0,1,.8-1.16,3.86,3.86,0,0,1,3.21,1c.34.28.34,1.16.26,1.74-.32,2.34-.76,4.66-1.07,7a1.82,1.82,0,0,0,.39,1.49,1.69,1.69,0,0,0,1.54-.1,10.94,10.94,0,0,1,3.42-1.3,14.4,14.4,0,0,0,1.64-.66,2.69,2.69,0,0,1,2.51-.1c1.09.58,2.19,1.14,3.21,1.81a2.63,2.63,0,0,1,.85,1.23,9.74,9.74,0,0,1,.41,1.87.74.74,0,0,1-.12.49c-1.82,2.2-2.12,5-2.9,7.55-.57,1.92-1.25,3.82-1.81,5.75a2,2,0,0,0,.13,1.42c.12.19.82.08,1.24,0a24.94,24.94,0,0,0,2.71-.53,27.81,27.81,0,0,0,4.17-1.23c1.86-.79,3.62-1.27,5.48-.09a1.26,1.26,0,0,1,.06,2.24,4.23,4.23,0,0,1-1.3.43c-2.11.43-4.22.85-6.33,1.23-1.39.24-2.79.45-4.19.61s-3,.22-4.44.35a1.23,1.23,0,0,0-.69.37c-1.08,1.14-1.81,1.31-2.89.24A2,2,0,0,0,91.05,39a13,13,0,0,1-5.62,1.28A5.67,5.67,0,0,0,83,41a3.49,3.49,0,0,1-2.5.41,17.69,17.69,0,0,0-6.2.09,30.89,30.89,0,0,1-4,.63,20.25,20.25,0,0,0-6.11,1.33,29,29,0,0,1-4.76,1.16c-.65.09-1.38-.4-2.07-.64-.08,0-.14-.15-.18-.24a2.84,2.84,0,0,1,2.63-3.67c2.07,0,4.14-.1,6.22-.07a25.17,25.17,0,0,0,6.17-.63c1-.22,2-.35,2.94-.52.69-.12.87-.47.66-1.15a47.05,47.05,0,0,0-2.49-5.57,43.21,43.21,0,0,1-2.15-5.23,11.32,11.32,0,0,1-.29-3.5c0-.9.69-1.2,1.42-.69A11.07,11.07,0,0,1,74,24.17a1.54,1.54,0,0,0,1.73.49A33.33,33.33,0,0,0,79.23,23a1.91,1.91,0,0,0,1-2.07c-.23-1.68-.33-3.38-.67-5a9.19,9.19,0,0,0-1.17-2.29c-.53-1-.3-1.58.7-2a3.09,3.09,0,0,1,3.07.34,1.72,1.72,0,0,1,.69,1.17c.09,1.2,0,2.41,0,3.61Zm14,5.88c0-.79-.39-1-1-.74-1.54.7-3.06,1.44-4.61,2.09a2.17,2.17,0,0,0-1.36,2,4.93,4.93,0,0,0,.83,3,1.66,1.66,0,0,1-.57,2.38,2.39,2.39,0,0,0-1.14,1.56c-.29,1.08-.66,2.13-1,3.19-.21.63,0,1.16.52,1a9.92,9.92,0,0,0,1.77-.71,4.8,4.8,0,0,1,1.22-.61c1.5-.19,2-.57,2.39-2,.31-1.21.65-2.41.92-3.62a7.57,7.57,0,0,0,0-1.35,2,2,0,0,1,.07-.65c.35-.88.78-1.72,1.09-2.61S96.81,23.53,97.08,22.62ZM81.23,37.29c-.08-.54-.12-1-.21-1.45-.29-1.36-.09-2.85-1.19-4a.73.73,0,0,1-.06-.57c.12-.73.24-1.47.42-2.18a1.08,1.08,0,0,0-.77-1.45c-.79-.28-1.6-.53-2.41-.75-.29-.08-.75-.13-.89,0a1,1,0,0,0,0,.91c.45.82,1,1.59,1.49,2.4a12.9,12.9,0,0,1,1.15,2.13c.6,1.68,1.09,3.4,1.64,5.15Zm4.93-11.63c-.69.23-1.27.41-1.84.62a.42.42,0,0,0-.25.33c0,.7.09,1.4.14,2.15a9.79,9.79,0,0,0,1.26-.22c.18-.06.41-.26.43-.42C86,27.34,86.07,26.55,86.16,25.66ZM85.27,36.1h.19l.4-3.38-1.09.33Z"/><path d="M74.44,54.89c-1.29-.25-2.38-.41-3.43-.7a1.25,1.25,0,0,1-.73-.84c-.2-1.31-.32-2.64-.39-4a3,3,0,0,1,.35-1.32c.39-.84.86-1,1.51-.3,1.47,1.53,3.44,1.53,5.3,1.94a8.83,8.83,0,0,0,3.62-.38c.54-.11,1.19-.39,1.53.24s-.21,1-.59,1.44a11.36,11.36,0,0,1-5.18,3.18C75.71,54.41,75,54.69,74.44,54.89Z"/><path d="M108.44,48.12a9.53,9.53,0,0,1-.5,1.08c-.32.53-.68,1-1,1.52-.5.67-.94.71-1.71.29A20.12,20.12,0,0,1,100,46.54a10.36,10.36,0,0,1-1.26-1.82c-.44-.77-.06-1.34.83-1.35s1.94,0,2.91,0A6.43,6.43,0,0,1,108.09,47,11.57,11.57,0,0,1,108.44,48.12Z"/><path d="M5.76,45c-.35.67-.1,1,.43,1.22q3.36,1.2,6.74,2.37a4.26,4.26,0,0,0,.65.11c.1-.91.19-1.79.3-2.67,0-.31.09-.61.14-.91l.09-.67a2.44,2.44,0,0,0-.68.2,1.82,1.82,0,0,1-2.07.14,32.05,32.05,0,0,0,12.51-9.61l-.21-.33a7.35,7.35,0,0,0-.77.32c-1.63.85-3.25,1.75-4.91,2.55a1.76,1.76,0,0,1-2.63-1A4.85,4.85,0,0,1,16,32c1.77-2,3.55-4,5.35-6,.86-1,1.81-1.83,2.66-2.8a2.13,2.13,0,0,0,.65-1.89,4.47,4.47,0,0,0-.55.35,49.8,49.8,0,0,0-8.52,7.76,10,10,0,0,0-.83.91c-.54.84-1.36.84-2.25.88a4.83,4.83,0,0,0-.23-.89c-.1-.23-.27-.54-.47-.6a.71.71,0,0,1-.55-1,15.17,15.17,0,0,1,.91-2.58,16,16,0,0,1,4.36-4.86c2.58-2.2,5.07-4.49,7.63-6.72.92-.81,1.94-1.51,2.88-2.3,1.45-1.22,3.06-2.26,4-4,.33-.6.8-.68,1.27-.11.84,1,1.74,2,2.5,3.1a1.61,1.61,0,0,1-.26,2.23c-.56.59-1.18,1.13-1.77,1.69-.4.37-.77.76-1.2,1.09-1.47,1.11-2.94,2.22-4.44,3.29-.66.47-.74.71,0,1.05,2.36,1.14,2.21,5.13.67,6.41a4.94,4.94,0,0,0-.72,1,3.69,3.69,0,0,1-.4.55c-.83.76-.82.73.16,1.38a16.8,16.8,0,0,1,2.35,1.74,2,2,0,0,1,.56,1.41A7.79,7.79,0,0,1,25,40.18c-2,1-3.89,2.06-5.87,3-.41.2-1,0-1.48.12a2.67,2.67,0,0,0-.7.25c.15.24.25.61.46.7,1.16.49,2.34.91,3.51,1.36.63.24.71-.17.86-.63a17,17,0,0,1,1-2.48,1.39,1.39,0,0,1,1.52-.66,7.61,7.61,0,0,1,4.38,2.05c.59.53,1.28.95,1.81,1.53.88,1,1.67,2,2.48,3a1.44,1.44,0,0,1,.25,1.78,2.13,2.13,0,0,1-1.54.57A4.66,4.66,0,0,1,27.8,49c-1-1.35-2-2.66-3-4-.32-.45-.51-1-.85-1.42a3.08,3.08,0,0,0-.83-.55,3.2,3.2,0,0,0-.44.75,6.94,6.94,0,0,0,.91,5.38,1.4,1.4,0,0,1-.84,1.94,2.67,2.67,0,0,1-2.67-.77c-.72-.9-1.47-1.79-2.26-2.63a16.06,16.06,0,0,0-1.94-1.74.63.63,0,0,0-1.09.43,3.52,3.52,0,0,0,0,1.58,18.51,18.51,0,0,0,1,2.65,1.34,1.34,0,0,1-.69,2c-.4.22-.75.64-1.16.7a3.52,3.52,0,0,1-2-.1C9.56,52,7.25,50.68,5,49.23,3.84,48.46,3.92,45.6,5.76,45Z"/><path d="M34.92,24.4c.43,1.38,1.2,1.78,2.86,1.09,2-.82,3.86-1.85,5.78-2.81a1.1,1.1,0,0,0,.53-.6c.25-1.12.44-2.26.68-3.55-.79.1-1.49.16-2.17.27a5.74,5.74,0,0,1-4.64-1,10.76,10.76,0,0,1-1.8-2c-.29-.38-.14-.62.35-.74,2.93-.71,5.85-1.49,8.78-2.17a50.47,50.47,0,0,1,6-1.13,2.57,2.57,0,0,1,2.92,2.19c-.66.24-1.35.44-2,.72a4.76,4.76,0,0,0-1.32.75,8,8,0,0,1-2.79,1.71c-1.56.54-2,1.29-2,3q0,1.63,0,3.27c-.09,2.48-.21,5-.32,7.56.62-.3,1.26-.57,1.87-.92,1.71-1,4,.13,5.06,1.26.34.36.14.67-.23.94-1.23.88-2.46,1.75-3.64,2.7-.52.42-.89,1-1.38,1.51-.26.26-.72.36-.91.65a14.69,14.69,0,0,0-1.13,2.15c-.19.46.17.62.56.52,1.23-.33,2.44-.76,3.68-1a5,5,0,0,1,2.24,0,13.09,13.09,0,0,1,2.59,1.24,1.44,1.44,0,0,1,.8,1.8c-.07.27-.09.55-.16.83a2.11,2.11,0,0,1-2.4,1.83,20.24,20.24,0,0,0-5.58.86l-2.39.59,2.32-1.83L47,43.67c-.33,0-.66,0-1,.11-.93.18-1.84.48-2.78.57-2.26.22-2.93-1.17-2.4-3.11a29.91,29.91,0,0,1,1.35-3.34,2,2,0,0,0,.21-.56c.11-.9,0-1-.88-.74s-1.58.43-2.18-.34a1.11,1.11,0,0,1-.21-.86A15.25,15.25,0,0,1,40,33.7l.46,1.2c.42-1-.11-2,.44-2.68a6.87,6.87,0,0,0,1.61,0,1.07,1.07,0,0,0,.53-.75c.15-.83.21-1.68.31-2.52.18-1.51.37-3,.54-4.54a2.72,2.72,0,0,0-.08-.63c-.22.09-.56.12-.64.28-.29.59-.49,1.22-.74,1.83a8.14,8.14,0,0,1-2.93,4.2,4.73,4.73,0,0,1-3,.7c-.53-.05-1.07-.06-1.6-.06a1.17,1.17,0,0,1-1.31-1.26A6,6,0,0,1,34.24,26,13,13,0,0,0,34.92,24.4Z"/><path d="M50.63,19.93c.81.2,1,.06.92-.62s-.06-1.25-.09-2a5.87,5.87,0,0,1,1,.4c.9.64,1.78,1.31,2.64,2a1.07,1.07,0,0,1,.34.58,5.39,5.39,0,0,1,0,3.46,1.15,1.15,0,0,1-.84.57,3.82,3.82,0,0,1-3.78-3C50.8,20.86,50.72,20.43,50.63,19.93Z"/></svg>