<svg id="圖層_1" data-name="圖層 1" xmlns="http://www.w3.org/2000/svg" viewBox="0 0 80 220"><path d="M45.16,14.72c3.69-.23,7-.46,10.36-.63,2.08-.11,2.52.32,2.71,2.35.51,5.45.51,5.45-5,5.45h-7.7v7.47c2.86,0,5.64,0,8.41,0a3.43,3.43,0,0,1,3,5.14,3,3,0,0,1-2.13,1.07c-3,.25-6.06.32-9.23.47v6.5c1.62,0,3.21,0,4.79,0q4.83-.15,9.66-.38c1.69-.08,2.51.58,2.54,2.36.08,5.61.91,5.59-5.38,5.57-12.08-.05-24.17,0-36.26,0-3.18,0-4.55-2.11-3.09-5a3,3,0,0,1,2.2-1.2c5-.32,10-.49,15-.71L37,43V36.43c-.76,0-1.66,0-2.55,0l-7.06.27c-.49,0-1.11.14-1.46-.1-2.35-1.56-1-4-1.16-6-.13-1.38,1-1.8,2.31-1.78,2.72.05,5.45.08,8.18.12h2V21.87c-2.77,0-5.54,0-8.31,0-.41,0-.91.52-1.17.92-.71,1.09-1.27,2.27-2,3.36a2.12,2.12,0,0,1-3.17.82c-1.18-.68-2.45-1.2-3.61-1.9s-1.33-1.57-.61-2.82c2.11-3.7,4.18-7.43,6.12-11.23.72-1.4,1.56-1.79,3-1.26.34.14.7.23,1.05.35C32,11.32,32,11.44,31.14,15.07h6.19c0-2.13,0-4,0-6S38,6.42,40,6.26c5.17-.43,5.17-.43,5.2,4.74Z"/><path d="M54.71,145.89c-1.57,2-3.69,1.82-5.79,1.82-3,0-6,0-8.93,0-3.4-.07-5.07-1.92-4.9-5.34,0-.74.23-1.47.27-2.21.08-1.45,1-1.82,2.24-1.91s1.9.34,2.13,1.67c.11.6.88,1.07,1.35,1.6l.55-.35v-4H36.35c-1.25,0-2.37-.08-2.42-1.8-.09-2.77.21-3.37,2.26-3.58s4.3-.34,6.53-.51V128a16.27,16.27,0,0,0-2.63,1.75,1.61,1.61,0,0,1-2.24.43c-3.62-1.83-3.63-1.8-1.76-5.3.31-.6.58-1.22.95-2l-3.18-2.18a1.55,1.55,0,0,1-.35-2.63,31.79,31.79,0,0,0,6.08-10.35,1.65,1.65,0,0,1,2.31-1.21c.41.13.85.17,1.27.27,3.93.91,3.92.91,2.88,4.91-.12.48-.21,1-.38,1.69,3-.33,5.87-.65,8.74-1,2-.21,3.94-.51,5.91-.57a6.16,6.16,0,0,1,6.45,5.24,8,8,0,0,1,.19,1.29c.05,8.42.14,16.85.09,25.28a6.09,6.09,0,0,1-4.92,5.79,11.4,11.4,0,0,1-2,.26C55.87,149.87,55.87,149.87,54.71,145.89ZM43.1,123h9.61c1.3,0,2.16.4,2.11,1.91s0,2.82-2,2.87c-1.16,0-2.32.15-3.44.22v2.8c.82-.05,1.49-.07,2.17-.13,4.93-.48,5-.39,4.82,4.56,0,1.32-.58,1.93-1.92,1.9-1.59,0-3.19,0-4.82,0v4l.58.29c.3-.49.6-1,.89-1.49s.59-1.63,1.1-1.8c1.93-.64,3.37.56,3.37,2.59v2.58a7.08,7.08,0,0,1,1.54.25c1.33.57,1.56-.28,1.55-1.23q-.07-10.79-.23-21.57a1.78,1.78,0,0,0-2.15-2c-4.26.35-8.52.66-12.78,1.09-.64.06-1.24.66-1.75,1Z"/><path d="M31.28,124.34c2.22,0,2.36,1.43,2.29,3.07-.11,2.35-.09,4.71-.2,7.06-.15,3.37-1.68,4.84-5,4.87-4,0-4.21-.11-4.73-4.09-.13-1,.1-1.6,1.22-1.88A2.11,2.11,0,0,0,26.14,132c.37-1.67.51-3.39.75-5.09-2.82-.42-2.85-.45-2.64-3.35.1-1.36.22-2.72.37-4.08.1-.92-.06-1.57-1.19-1.64s-1.48.5-1.46,1.58c.09,7.75.14,15.49.22,23.24,0,3.19-.32,3.66-3.5,4-5.66.53-6,.44-5.66-5.11.46-7.85.62-15.73,1-23.59.2-4.83,1.27-5.94,6-6.51,2.22-.27,4.42-.63,6.63-.93,3.86-.53,6.25,1.7,5.84,5.58C32.17,118.81,31.69,121.49,31.28,124.34Z"/><path d="M47.1,179c-3.26,0-6.27,0-9.29,0a1.89,1.89,0,0,0-1,.48c-2.54,1.85-5.07,3.72-7.67,5.63h3.44c3.68,0,5.69,1.68,6,5.33a32.35,32.35,0,0,1,.06,5,5.27,5.27,0,0,1-5.36,5.3c-2.47.15-4.95.35-7.42.26-3.91-.15-5.84-2.18-6.06-6.08a40.55,40.55,0,0,1,0-4.27,9.53,9.53,0,0,1,.51-2c-1.61-.55-3.75-4.48-3.14-6.16a3.1,3.1,0,0,1,1.71-1.42c1.7-.69,3.46-1.2,5.2-1.78l-.08-.48c-1.69,0-3.37,0-5.06,0-1.4,0-2.21-.45-2.21-2,0-2.39.45-3.17,2.28-3.27,4.21-.23,8.42-.59,12.63-.54,2.23,0,3.36-1.18,4.56-2.61a4.07,4.07,0,0,1,6-.08,6,6,0,0,1,.66,2.1h7.2l.75-3c-1.43,0-2.83.06-4.22,0-5.35-.28-8.61-6.65-5.48-11.06a7.09,7.09,0,0,1,4.16-2.42,55.81,55.81,0,0,1,8.87-.79c3.47-.11,5.46,1.76,5.91,5.29s.2,6.75-3.13,8.35V172h3.33a2,2,0,0,1,2.26,2.12c.42,4.74.26,4.94-4.52,4.94H53l0,.34c2.81.52,5.61,1.09,8.43,1.55,1.59.26,2.19,1,1.61,2.55-.23.64-.36,1.31-.55,2-.73,2.45-.91,2.56-3.42,2a15.61,15.61,0,0,1,.62,8.68,4.64,4.64,0,0,1-4.52,4.2,87.08,87.08,0,0,1-9.28.27c-3.1-.1-5-2.28-5.24-5.67-.07-.93,0-1.86,0-2.79,0-4.22,1.63-6.14,5.86-6.6,2-.21,4,0,6-.44l-4-1.52c-2.49-.93-2.61-1.19-1.66-3.64C46.87,179.8,46.92,179.56,47.1,179Zm-15,13.71c.13-1.17-.17-2-1.86-2-3.32,0-3.63.1-3.67,1.94,0,2,.48,2.71,2.1,2.77C31.21,195.44,32,194.85,32.07,192.66Zm18.45-2c-2.84,0-2.84,0-2.84,1.85,0,2.27.39,2.67,2.51,2.65,2.43,0,3.06-.51,3.07-2.4S53,190.66,50.52,190.68Zm.17-30.5c-2.55,0-2.76.17-2.73,1.86,0,1.89.47,2.27,2.52,2.24,2.29,0,3-.6,3.05-2.27C53.56,159.85,52.05,160.15,50.69,160.18Z"/><path d="M28.72,170.59c-1.79-.1-3.58-.16-5.37-.3a4.48,4.48,0,0,1-1.6-.43c-3.44-1.72-3.26-5-3.28-8.07,0-2.79,1.43-4.84,4.08-5.24a79.92,79.92,0,0,1,11.26-.81,4.6,4.6,0,0,1,4.32,4.16,26.71,26.71,0,0,1,.18,5.36,5.25,5.25,0,0,1-5.14,4.94c-1.48.12-3,.19-4.45.28Zm.58-10c-2.95.05-3.23.28-3.19,2.36s.45,2.5,2.51,2.48c2.52,0,3-.59,3.09-2.82C31.75,160.54,30.53,160.43,29.3,160.56Z"/><path d="M43.77,81.52V77.35H33c-1.56,0-2.21-.82-2.19-2.34,0-3.58.33-3.86,3.92-4,3-.11,6-.3,9.17-.46V65.33c-2.7.17-5.35.31-8,.5-1.64.12-2.6-.44-2.68-2.24-.13-2.67.24-3.4,2.24-3.66q11.69-1.56,23.38-3c2.7-.34,3,.06,3.41,2.8.7,4.33.22,4.55-4.13,4.69-1.72.06-3.43.27-5.2.41V70c3.28-.16,6.41-.33,9.55-.45,2.6-.1,3,.33,3.11,2.9.13,4.89.13,4.89-4.72,4.89H53v3.7h3.47c4.26,0,7,2.57,7.23,6.78a36,36,0,0,1,0,5.19c-.33,3.56-2.6,5.82-6.15,6-5.63.23-11.27.42-16.9.39-5.1,0-7.51-2.53-7.82-7.67,0-.74-.07-1.49-.06-2.23.05-4.73,2.16-7.06,6.85-7.58C41,81.74,42.33,81.65,43.77,81.52Zm4.45,6.35c-1.23.07-3.15.21-5.06.26-1.43,0-2.22.55-2.11,2.11S41.32,93,43.26,93q5.84-.18,11.68-.32c1.83,0,1.74-1.37,1.79-2.63s-.42-2.15-1.89-2.14Z"/><path d="M29.34,85.3a14,14,0,0,1-.92,1.55c-1.88,2.37-3.79,4.72-5.68,7.09-1,1.2-2,1.36-3.11.23-1-1-2-1.84-3-2.8a1.71,1.71,0,0,1,.1-2.85c2.36-2,4.74-4,7.1-5.94a1.83,1.83,0,0,1,2.66,0C27.5,83.43,28.41,84.38,29.34,85.3Z"/><path d="M16.89,69.64c2.69,1.23,5.06,2.25,7.34,3.44.27.14.29,1.34,0,1.8a17,17,0,0,1-2.75,3.69,2.47,2.47,0,0,1-2.35.11A24,24,0,0,1,15,75a2.51,2.51,0,0,1-.48-2.24A18.76,18.76,0,0,1,16.89,69.64Z"/><path d="M21.14,58.82a12.89,12.89,0,0,1,1.48.64c1.64,1,3.26,2,4.9,3,1.22.73,1.14,1.62.39,2.62a1.6,1.6,0,0,1-.25.27c-4.58,4.37-3.76,4.7-7.72-.23A5.16,5.16,0,0,1,19,64c-.3-.75-.84-1.81-.55-2.3A17.13,17.13,0,0,1,21.14,58.82Z"/></svg>