<?xml version="1.0" encoding="utf-8"?>
<!-- Generator: Adobe Illustrator 24.1.0, SVG Export Plug-In . SVG Version: 6.00 Build 0)  -->
<svg version="1.1" id="圖層_1" xmlns="http://www.w3.org/2000/svg" xmlns:xlink="http://www.w3.org/1999/xlink" x="0px" y="0px"
	 viewBox="0 0 440 160" style="enable-background:new 0 0 440 160;" xml:space="preserve">
<style type="text/css">
	.st0{fill:#80ADB7;}
	.st1{enable-background:new    ;}
	.st2{fill:#FFFFFF;}
	.st3{fill:#C18032;}
</style>
<path class="st0" d="M87.13,21.77c0,0-9.5,3.17-11.88,15.06s-4.75,18.22,0,24.55s5.54,12.68,13.47,11.1s17.42-4.76,21.39,0
	s10.29,7.92,10.29,7.92s3.17-7.92,11.1-8.72s54.66-0.79,66.54-0.79s45.16-0.79,61.79,0s30.11-2.38,43.57,0s44.33-0.85,50.67,0.74
	s19.8,0.79,22.18-4.76s5.59-7.13,3.59-15.44s1.29-11.92-1.35-17.21c-2.86-5.71-7.79-10-17.18-11.89C348.1,19.69,273.91,20,266,20
	s-32.29,1.76-40.21,1.76H87.13V21.77z"/>
<g class="st1">
	<path class="st2" d="M104.82,50.96c0,1.19-0.62,1.78-1.86,1.78c-1.27,0-2.01-0.01-2.2-0.02L100.28,51
		c0.19,0.01,0.98,0.02,2.38,0.02c0.25,0,0.37-0.12,0.37-0.37v-3.2h-5.35v1.76c0.79-0.08,1.46-0.19,2.02-0.34
		c-0.32-0.4-0.51-0.63-0.56-0.69l1.57-0.56c0.64,0.75,1.22,1.6,1.74,2.53l-1.47,0.55c-0.06-0.1-0.17-0.28-0.34-0.53
		c-3.87,0.72-6.73,1.12-8.57,1.2l-0.35-1.49c1.18-0.06,2.59-0.2,4.23-0.4v-2.04h-4.93v5.33h-1.76v-5.33h-1.58v-1.57h1.58v-0.53h1.76
		v0.53h4.93v-1.01h-5.14v-6.51h11.95v6.47h-5.09v1.06h7.15V50.96z M105.53,40.28h-1.83V37.5H89.84v2.84h-1.8v-4.43h7.69
		c-0.14-0.39-0.3-0.75-0.48-1.08l1.87-0.56c0.33,0.62,0.57,1.16,0.72,1.64h7.7V40.28z M95.95,40.88v-1.04h-3.37v1.04H95.95z
		 M95.95,43.38v-1.12h-3.37v1.12H95.95z M101.06,40.86v-1.03h-3.38v1.03H101.06z M101.06,43.38v-1.12h-3.38v1.12H101.06z"/>
	<path class="st2" d="M119.49,35.69c-0.74,1.39-1.57,2.67-2.5,3.84h1.56v1.64h-2.96c-0.33,0.38-0.89,0.92-1.68,1.62h3.66v1.57
		c-0.7,0.65-1.59,1.38-2.65,2.21v0.3c1.35-0.21,2.59-0.44,3.73-0.7l0.02,1.72c-0.64,0.13-1.89,0.34-3.75,0.62v2.33
		c0,0.65-0.15,1.14-0.46,1.47c-0.3,0.33-0.96,0.49-1.95,0.49c-0.36,0-0.77-0.01-1.25-0.03l-0.54-1.83c0.61,0.04,1.09,0.06,1.46,0.06
		c0.64,0,0.96-0.14,0.96-0.42v-1.76c-1.96,0.27-3.37,0.43-4.22,0.48l-0.34-1.72c1.62-0.09,3.14-0.24,4.56-0.44v-1.27
		c0.72-0.5,1.37-0.98,1.95-1.44h-3.34c-0.47,0.35-1.26,0.81-2.37,1.38l-0.96-1.42c1.74-0.8,3.36-1.87,4.85-3.21h-4.62v-1.64h3.82
		v-1.83h-3.03v-1.58h3.03v-1.7h1.8v1.7h2.1v1.46c0.71-1.05,1.23-1.93,1.55-2.62L119.49,35.69z M116.28,37.71h-2.02v1.83h0.62
		C115.24,39.13,115.7,38.53,116.28,37.71z M127.09,51.44l-1.11,1.46c-1.48-0.92-2.67-1.97-3.59-3.16c-1.13,1.22-2.52,2.25-4.14,3.09
		l-1.28-1.38c1.93-0.94,3.4-2.01,4.41-3.23c-0.53-0.89-1-2.3-1.42-4.22l1.62-0.75c0.21,1.27,0.52,2.35,0.92,3.23
		c0.83-1.83,1.29-4.26,1.38-7.31h-2.25c-0.55,1.79-1.32,3.5-2.29,5.15l-1.18-1.41c1.42-2.45,2.31-5.31,2.67-8.59l1.7,0.34
		c-0.13,0.94-0.28,1.87-0.46,2.79h4.81v1.72h-1.26c-0.18,4.13-0.9,7.18-2.14,9.16C124.34,49.52,125.55,50.56,127.09,51.44z"/>
	<path class="st2" d="M138.23,38.82h-4.71l-0.06,2.62h3.95c0.01,2.41-0.03,4.62-0.12,6.63c-0.09,2.01-0.22,3.21-0.38,3.6
		s-0.42,0.68-0.79,0.88c-0.37,0.19-1.24,0.26-2.6,0.21L133,51l1.74,0.02c0.23,0,0.38-0.11,0.48-0.32c0.09-0.21,0.17-1.18,0.23-2.88
		c0.06-1.71,0.08-3.23,0.05-4.58h-2.12c-0.13,4.22-1.01,7.42-2.65,9.62l-1.24-1.56c0.56-0.89,1.01-1.83,1.33-2.8
		s0.54-1.99,0.65-3.07c0.1-1.08,0.18-3.28,0.23-6.61h-2.1v-1.8h3.78c-0.18-0.59-0.48-1.29-0.9-2.09l1.78-0.57
		c0.38,0.7,0.75,1.59,1.09,2.67h2.88V38.82z M147.99,40.94l-1.26,1.48c-1.89-1.66-3.26-3.35-4.13-5.07
		c-1.22,1.95-2.51,3.54-3.89,4.79l-1.28-1.38c2.07-1.85,3.61-3.99,4.6-6.43l1.76,0.54c-0.08,0.22-0.17,0.44-0.28,0.66
		C144.28,37.29,145.77,39.09,147.99,40.94z M146.23,51.48l-1.36,1.48c-1.37-1.52-3.42-3.17-6.15-4.93l1.24-1.48
		C142.41,48.1,144.5,49.74,146.23,51.48z M146.1,45.37l-1.28,1.44c-1.33-1.27-3.02-2.46-5.07-3.57l1.18-1.46
		C142.79,42.78,144.52,43.98,146.1,45.37z"/>
	<path class="st2" d="M157.63,49.24c-1.6,1.3-3.62,2.4-6.05,3.3l-1.01-1.58c2.27-0.81,4.15-1.79,5.63-2.93L157.63,49.24z
		 M168.89,47.58h-8.15v5.25h-1.91v-5.25h-8.23v-1.71h8.23v-0.95h1.91v0.95h8.15V47.58z M156.77,37.17c-1.24,2.43-2.5,4.26-3.75,5.5
		c0.63-0.03,1.18-0.1,1.65-0.21c-0.04-0.25-0.12-0.55-0.25-0.9l1.38-0.44c0.38,1.08,0.67,2.21,0.88,3.37l-1.4,0.49
		c-0.03-0.25-0.09-0.59-0.2-1.04c-1.57,0.28-2.92,0.46-4.03,0.52l-0.31-1.45c0.86-0.84,1.66-1.83,2.39-2.98
		c-0.16,0-0.85,0.06-2.06,0.17l-0.27-1.5c0.9-1.17,1.68-2.66,2.33-4.47l1.74,0.42c-0.47,1.29-1.17,2.56-2.08,3.8
		c0.38-0.02,0.82-0.06,1.32-0.11c0.38-0.64,0.7-1.26,0.94-1.87L156.77,37.17z M162.44,44.47h-5.27v-8.46h1.32
		c0.25-0.42,0.49-1,0.74-1.74l1.87,0.38c-0.21,0.52-0.43,0.97-0.65,1.36h1.99V44.47z M160.76,39.42v-1.76h-1.93v1.76H160.76z
		 M160.76,42.84v-1.9h-1.93v1.9H160.76z M169.01,51.02l-0.98,1.58c-1.47-0.98-3.49-1.95-6.07-2.92l0.92-1.55
		C165.25,49,167.29,49.96,169.01,51.02z M169.01,44.43l-1.45,0.63c-0.12-0.55-0.2-0.86-0.24-0.94c-1.35,0.21-2.75,0.35-4.19,0.44
		l-0.3-1.42c0.88-0.82,1.7-1.88,2.48-3.19l-2.16,0.24l-0.36-1.39c0.89-1.13,1.67-2.64,2.35-4.51l1.68,0.44
		c-0.44,1.25-1.08,2.48-1.93,3.68c0.33,0,0.8-0.06,1.41-0.17c0.38-0.68,0.66-1.24,0.84-1.68l1.66,0.57
		c-0.96,2.11-2.15,3.99-3.55,5.65c0.55,0,1.06-0.06,1.55-0.19c-0.08-0.24-0.2-0.53-0.36-0.88l1.39-0.62
		C168.36,42.18,168.75,43.3,169.01,44.43z"/>
	<path class="st2" d="M180.06,47.07c-0.57,2.43-1.13,4.11-1.7,5.04l-1.52-1.22c0.66-1.14,1.17-2.62,1.56-4.43L180.06,47.07z
		 M185.8,45.65h-3.32v7.05h-1.8v-7.05h-3.7v-1.66h3.7v-1.57h-3.23v-1.68h1.63c-0.29-1.22-0.57-2.18-0.84-2.88h-0.84v-1.63h3.18
		c-0.09-0.27-0.35-0.73-0.78-1.39l1.83-0.56c0.35,0.64,0.66,1.29,0.94,1.96h2.78v1.63h-0.53c-0.4,1.44-0.68,2.4-0.86,2.88h1.44v1.68
		h-2.9v1.57h3.32V45.65z M182.93,37.86h-2.83c0.49,1.63,0.76,2.59,0.81,2.88h1.2C182.47,39.69,182.74,38.73,182.93,37.86z
		 M185.98,49.7l-1.66,0.8c-0.24-1.07-0.65-2.21-1.24-3.43l1.58-0.69C185.25,47.58,185.69,48.69,185.98,49.7z M195.43,48.7
		c-0.05,1.41-0.14,2.32-0.26,2.73c-0.12,0.41-0.32,0.71-0.6,0.88c-0.28,0.17-0.82,0.26-1.61,0.26c-0.57,0-0.96-0.04-1.19-0.12
		c-0.23-0.08-0.43-0.24-0.61-0.47c-0.18-0.24-0.27-0.56-0.27-0.98V46.7h-1.15c-0.18,2.99-1.41,5.04-3.68,6.16l-1.22-1.41
		c2.12-1.07,3.16-2.66,3.14-4.75h-1.44V34.92h7.88V46.7h-1.82v3.7c0,0.28,0.17,0.42,0.51,0.42c0.16,0,0.3-0.04,0.4-0.13
		c0.1-0.09,0.18-0.44,0.22-1.07c0.04-0.63,0.05-1.13,0.03-1.51L195.43,48.7z M192.61,38.21v-1.6h-4.31v1.6H192.61z M192.61,41.56
		v-1.68h-4.31v1.68H192.61z M192.61,44.98v-1.72h-4.31v1.72H192.61z"/>
	<path class="st2" d="M216.2,44.45h-8.12v6.47c0,0.44-0.13,0.81-0.39,1.12c-0.26,0.31-0.56,0.51-0.88,0.59
		c-0.32,0.08-0.98,0.13-1.99,0.13c-0.51,0-1.02-0.01-1.53-0.04l-0.55-1.83c0.83,0.06,1.47,0.09,1.93,0.09
		c0.64,0,1.04-0.04,1.21-0.13c0.17-0.09,0.26-0.27,0.26-0.54v-5.87h-8.17v-1.82h8.17v-2.56c1.58-0.86,3.17-1.96,4.77-3.31h-10.54
		V34.9h13.55v1.85c-1.61,1.5-3.56,2.97-5.83,4.41v1.47h8.12V44.45z"/>
	<path class="st2" d="M236.17,52.81h-1.94v-1.03h-14.41v-6.95h1.92v5.15h5.33v-7.2h-6.28v-6.95h1.89v5.14h4.39v-6.51h1.89v6.51h4.39
		v-5.14h1.9v6.95h-6.29v7.2h5.31v-5.15h1.9V52.81z"/>
	<path class="st2" d="M258.43,50.82l-0.62,1.76c-0.77,0.01-3.45,0.02-8.02,0.02c-3.2,0-5.47-0.81-6.81-2.42
		c-0.54,0.97-1.2,1.88-1.99,2.74l-1.38-1.12c1.72-1.84,2.81-3.84,3.27-6.01h-2.77v-1.74c0.87-1.03,1.67-2.22,2.41-3.59h-2.69v-1.68
		h4.64v1.68c-0.69,1.27-1.43,2.49-2.22,3.64h2.43v1.69c-0.26,1.04-0.57,1.99-0.94,2.84c1.12,1.51,3.08,2.27,5.89,2.27
		C253.66,50.9,256.59,50.87,258.43,50.82z M244.32,37.13l-1.41,1.17c-0.88-1.04-1.84-1.93-2.89-2.67l1.25-1.3
		C242.42,35.07,243.43,36.01,244.32,37.13z M251.04,38.43h-3.07c0.02,0.63,0.01,1.3-0.04,2.01h2.97c0.03,1.93,0,3.73-0.1,5.41
		s-0.23,2.69-0.39,3.04c-0.16,0.34-0.44,0.61-0.84,0.79c-0.4,0.19-1.04,0.26-1.92,0.21l-0.4-1.66c0.77,0.05,1.22,0.03,1.37-0.05
		c0.15-0.08,0.25-0.2,0.31-0.35c0.06-0.15,0.12-0.79,0.19-1.92c0.07-1.13,0.11-2.41,0.13-3.83h-1.36c-0.1,3.49-0.85,6.08-2.26,7.77
		l-1.3-1.3c0.71-0.9,1.21-2.03,1.5-3.38c0.29-1.35,0.43-3.6,0.44-6.74h-1.3v-1.7h2.31c-0.14-0.53-0.38-1.17-0.74-1.9l1.72-0.56
		c0.44,0.94,0.74,1.76,0.9,2.46h1.88V38.43z M258.2,45.71h-2.41V48c0,0.91-0.26,1.47-0.77,1.67c-0.52,0.21-1.42,0.29-2.71,0.27
		l-0.51-1.68c0.79,0.01,1.36,0.01,1.69,0c0.33-0.01,0.5-0.16,0.5-0.44v-2.1h-2.49v-1.68h2.49v-0.86c0.62-0.62,1.11-1.18,1.5-1.69
		h-3.3v-1.35c-0.22,0.25-0.43,0.44-0.62,0.57l-0.94-1.54c1.13-1.03,2.18-2.66,3.13-4.87l1.55,0.52c-0.25,0.68-0.53,1.29-0.83,1.8
		h3.67v1.68h-4.6c-0.26,0.45-0.62,0.94-1.07,1.48h5.11v1.7c-0.57,0.77-1.16,1.47-1.76,2.11v0.44h2.41V45.71z"/>
	<path class="st2" d="M279.16,43.4h-9.4v9.42h-1.74v-1.78c-2.79,0.33-5.06,0.5-6.81,0.51l-0.46-1.66h1.74V43.4h-1.6v-1.56h18.27
		V43.4z M276.61,41.08h-1.8v-4.77h-9.6v4.77h-1.76v-6.33h13.17V41.08z M268.01,44.43V43.4h-3.74v1.03H268.01z M268.01,46.95v-1.14
		h-3.74v1.14H268.01z M268.01,49.41v-1.06h-3.74v1.41C266.09,49.65,267.33,49.53,268.01,49.41z M274.07,38.62h-8.2v-1.38h8.2V38.62z
		 M274.07,40.92h-8.2v-1.36h8.2V40.92z M279.26,51.36l-0.96,1.62c-1.44-0.61-2.61-1.27-3.53-2c-1.17,0.86-2.42,1.5-3.76,1.92
		l-0.94-1.54c1.06-0.26,2.18-0.77,3.36-1.53c-0.84-0.9-1.6-2.12-2.27-3.66h-0.7v-1.63h7.92c-0.26,1.89-1.06,3.65-2.39,5.27
		C277,50.5,278.09,51.02,279.26,51.36z M276.15,46.17h-3.13c0.42,0.94,0.98,1.78,1.68,2.5C275.29,47.98,275.77,47.15,276.15,46.17z"
		/>
	<path class="st2" d="M287.81,34.77c-0.29,0.83-0.66,1.75-1.11,2.76l-0.66,1.45v13.81h-1.9V42.4c-0.38,0.6-0.84,1.18-1.38,1.74
		l-0.96-1.98c1.52-1.78,2.93-4.41,4.22-7.9L287.81,34.77z M300.28,52.24h-13.31v-1.82h5.67v-3.03h-4.93v-1.8h4.93v-2.22h1.91v2.22
		h4.91v1.8h-4.91v3.03h5.73V52.24z M299.95,42.69h-12.7v-1.85h5.33v-2.43h-4.69V36.6h4.69v-2.14h1.93v2.14h4.71v1.81h-4.71v2.43
		h5.44V42.69z"/>
	<path class="st2" d="M321.28,50.86l-0.52,1.76c-1.35,0.03-2.83,0.05-4.43,0.05c-1.74,0-3.16-0.01-4.25-0.04
		c-1.1-0.03-2.2-0.22-3.3-0.56c-1.1-0.35-2.03-0.89-2.8-1.63c-0.83,1.27-1.45,2.13-1.87,2.58l-1.42-1.22
		c1.67-1.95,2.66-3.91,2.98-5.88h-2.58v-1.78c0.97-1.25,1.74-2.43,2.31-3.55h-2.52v-1.77h4.54v1.77c-0.61,1.16-1.34,2.37-2.21,3.63
		h2.27c0.03,0.27,0.05,0.56,0.05,0.85c0,1.24-0.27,2.5-0.81,3.76c0.66,0.64,1.42,1.13,2.29,1.47c0.87,0.34,2.04,0.53,3.51,0.57
		c1.47,0.04,2.79,0.07,3.96,0.07C318.18,50.95,319.78,50.92,321.28,50.86z M307.36,36.93l-1.25,1.28c-0.77-0.9-1.71-1.78-2.82-2.62
		l1.28-1.26C305.9,35.41,306.83,36.28,307.36,36.93z M320.95,47.43h-13v-1.53h3.13v-1.24h-2.67v-1.56h2.67v-1.03h1.78v1.03h3.11
		v-1.03h1.78v1.03h2.65v1.56h-2.65v1.24h3.2V47.43z M313.98,41l-5.38,1.06l-0.38-1.56c0.27-0.09,0.4-0.3,0.4-0.62v-5.21h5.15v3.89
		h-3.47v1.68c0.53-0.08,1.75-0.31,3.64-0.72L313.98,41z M313.5,48.78c-0.92,0.58-2.22,1.1-3.89,1.56l-1.3-1.41
		c1.24-0.27,2.52-0.71,3.86-1.32L313.5,48.78z M312.06,37.11v-1.01h-1.76v1.01H312.06z M315.97,45.91v-1.24h-3.11v1.24H315.97z
		 M320.7,41.45h-4.13c-0.55,0-0.95-0.13-1.22-0.39s-0.4-0.74-0.4-1.44v-4.95h5.17v3.87h-3.47v1.09c0,0.24,0.12,0.36,0.36,0.36h3.69
		V41.45z M320.8,49.14l-1.15,1.36c-1.34-0.62-2.69-1.12-4.04-1.49l1.14-1.36C317.92,47.98,319.27,48.48,320.8,49.14z M318.41,37.11
		v-1.01h-1.76v1.01H318.41z"/>
	<path class="st2" d="M329.16,39.54h-1.49v3.34c0.51-0.26,0.95-0.49,1.3-0.7l0.16,1.83c-0.56,0.33-1.05,0.61-1.47,0.82v6.35
		c0,0.53-0.16,0.93-0.49,1.2c-0.33,0.26-0.74,0.39-1.23,0.39c-0.44,0-0.94-0.01-1.49-0.04l-0.51-1.8c0.34,0.01,0.65,0.02,0.92,0.02
		c0.52,0,0.83-0.03,0.94-0.09c0.11-0.06,0.16-0.18,0.16-0.35v-4.87c-0.7,0.32-1.33,0.58-1.89,0.78l-0.34-1.74
		c0.9-0.3,1.64-0.6,2.23-0.9v-4.22h-2.1v-1.72h2.1v-3.33h1.7v3.33h1.49V39.54z M342.2,50.29h-5.59v2.45h-1.78v-2.45h-5.41v-1.56
		h5.41V47.5h-4.68v-1.51h2.57c-0.2-0.57-0.46-1.16-0.79-1.76h-2.32v-1.52h5.15v-1.05h-4.39v-1.47h4.39v-0.93h-4.91v-4.43h11.78v4.43
		h-5.07v0.93h4.64v1.47h-4.64v1.05h5.46v1.52h-2.22c-0.31,0.79-0.57,1.37-0.78,1.76h2.41v1.51h-4.83v1.24h5.59V50.29z M333.22,37.79
		v-1.45h-1.58v1.45H333.22z M337.81,44.22h-3.93c0.3,0.62,0.55,1.2,0.74,1.76h2.41C337.33,45.46,337.59,44.87,337.81,44.22z
		 M336.49,37.79v-1.45h-1.53v1.45H336.49z M339.87,37.79v-1.45h-1.66v1.45H339.87z"/>
</g>
<path class="st2" d="M353.37,50.49c0.37,0.14,0.67,0.42,0.83,0.78c0.16,0.35,0.16,0.76,0,1.11c-0.14,0.36-0.42,0.64-0.78,0.78
	c-0.37,0.15-0.77,0.15-1.14,0c-0.37-0.14-0.67-0.42-0.84-0.78c-0.15-0.35-0.15-0.75,0-1.1c0.13-0.37,0.42-0.65,0.79-0.78
	C352.59,50.34,353,50.34,353.37,50.49z M359.45,38.49L355,48.93l-1.79-0.71l3.94-10.62L359.45,38.49z"/>
<path d="M311,120.49C311.09,120.54,311,120.49,311,120.49l-2.06-0.53c0.62-0.33,1.21-0.72,1.76-1.16c0.4-0.35,0.67-0.82,0.77-1.34
	c0.39-3,0.73-6,1-9c0.14-1.37,0.8-1.94,2.11-1.56c1.72,0.48,3.44,1,5.12,1.59c0.92,0.34,1.5,1.28,0.7,2
	c-1.4,1.23-1.27,2.81-1.49,4.33c-0.09,0.63-0.16,1.25-0.28,2.2c1.4-0.36,2.66-0.6,3.86-1c0.28-0.1,0.48-0.84,0.47-1.28
	c-0.09-3.33-0.22-6.66-0.37-10c-0.08-2,0.22-2.31,2.16-1.92c1.55,0.31,3.08,0.72,4.61,1.13c0.69,0.05,1.21,0.65,1.16,1.33
	c-0.02,0.24-0.1,0.47-0.25,0.67c-1.59,2.63-0.3,5.35-0.64,8.2c1.42-0.47,2.65-0.78,3.8-1.28c0.51-0.25,0.89-0.7,1.05-1.24
	c0.17-1.19,0.76-1.63,1.83-1.31c1.77,0.5,3.5,1.08,5.21,1.76c1.1,0.45,1.22,1.26,0.38,2.27c-0.55,0.6-0.9,1.36-1,2.17
	c-0.14,1.78,0,3.59-0.05,5.39c0.13,2.59-1.64,4.89-4.18,5.44c-0.83,0.24-1.7,0.29-1.88-0.78c-0.16-1.81-1.59-3.25-3.4-3.43
	c-0.26,0-0.48-0.33-1.05-0.74c0.86-0.26,1.41-0.48,2-0.59c1.1-0.06,1.95-0.99,1.9-2.1c0-0.06-0.01-0.12-0.02-0.18
	c-0.06-1.63,0-3.27,0-5.13l-4.22,1.26c0,3.82,0,7.52,0,11.21c0,2.26,0,2.37-2.2,2.84c-1,0.21-2,0.34-3,0.51
	c-1.24,0.22-1.74-0.3-1.73-1.55c0-3.6,0-7.19,0-11c-1.48,0.34-2.8,0.58-4.07,1c-0.38,0.23-0.62,0.63-0.66,1.07
	c-0.15,3.8-0.3,7.61-0.33,11.42c-0.12,1.65,1.12,3.09,2.77,3.21c0.08,0.01,0.15,0.01,0.23,0.01c2.74,0.09,5.5,0,8.24-0.16
	c2-0.11,3.19-1.48,4.13-3.1c0.46-0.89,1.06-1.7,1.79-2.39c0.16,0.49,0.28,0.99,0.35,1.5c-0.02,1.41,0.87,2.68,2.2,3.14
	c1.45,0.52,2.21,2.11,1.69,3.56c-0.17,0.48-0.47,0.9-0.86,1.23c-0.99,0.86-2.16,1.49-3.42,1.84c-5.08,1.33-10.35,1.79-15.58,1.36
	c-5.46-0.35-8.42-3.57-8.59-9.05c-0.06-2,0-3.92,0-5.88L311,120.49z"/>
<path d="M300,119.53c-2,0-3.54,0.14-4.46,2.36c-1.34,3.21-3.81,5.7-6.47,7.93c-0.4,0.3-0.89,0.46-1.39,0.47
	c2.55-6.92,4.01-14.19,4.33-21.56c-1.2,0.06-2.39,0.06-3.59,0c-0.49,0-0.93-0.52-1.4-0.8c0.46-0.25,0.93-0.73,1.37-0.71
	c4.06,0.2,8.12,0.46,12.19,0.77c1.06,0.08,1.9,0.1,2.6-0.92c0.56-1.02,1.77-1.51,2.89-1.16c1.35,0.43,2.35,1.56,2.62,2.95
	c0.29,1.32-0.54,1.54-1.6,1.42l-7.1-0.77c-0.25,0-0.51,0-0.85,0l-1.72,8.5c2.1,0.26,2.53,0,3.41-1.86c0.32-0.47,0.86-0.74,1.43-0.72
	c1.64,0.54,3.23,1.21,4.77,2c1,0.51,0.66,1.35,0.21,2.18c-0.49,0.82-0.83,1.73-1,2.67c-0.23,1.83-0.19,3.7-0.32,5.54
	c0.01,3.23-2.45,5.93-5.67,6.23c-0.93,0.16-1.54,0-1.73-1.08c-0.3-1.65-1.46-3.01-3.05-3.56c-0.32-0.14-0.53-0.53-0.79-0.81
	c0.3-0.22,0.64-0.39,1-0.5c3.7-0.34,3.68-0.33,3.9-4C299.71,122.67,299.89,121.19,300,119.53z"/>
<path d="M320.07,98.47c4.53,0.25,9.07,0.54,13.61,0.7c0.53,0,1.15-0.66,1.63-1.11c1-0.91,2-1.87,3.46-1.12
	c1.68,0.79,2.59,2.63,2.21,4.44c-4.13-0.26-8.29-0.55-12.45-0.79c-3.16-0.19-6.33-0.36-9.5-0.44c-0.66,0.03-1.3,0.25-1.83,0.64
	c-1.94,1.27-3.82,2.63-5.76,3.91c-0.29,0.2-0.76,0.14-1.14,0.2c-0.06-0.42-0.04-0.84,0.07-1.25c2.07-3.93,3.57-8.14,4.46-12.49
	c0.19-1.06,0.84-1.48,1.84-1.08c2.13,0.88,4.3,1.72,6.35,2.78c1.4,0.72,1.25,1.73-0.08,2.63c-1.12,0.76-2.12,1.69-3.18,2.55
	L320.07,98.47z"/>
<path d="M293.53,95c0.06,0,0.39-0.28,0.6-0.21c2.52,0.82,5,1.78,7.43,2.86c1.34,0.65,1.43,2,0.54,3.27
	c-0.98,1.47-2.55,2.45-4.3,2.67c-0.63,0-1.21-0.31-1.57-0.83C295.25,100.21,294.44,97.63,293.53,95z"/>
<path d="M184,112.91c3-0.18,5.77-0.34,8.55-0.54c0.3,0,0.77-0.33,0.81-0.56c0.23-1.56,1.28-1.54,2.37-1.23
	c1.83,0.48,3.63,1.08,5.38,1.8c1.35,0.6,1.31,1.41,0.33,2.49c-0.42,0.44-0.69,0.99-0.79,1.59c-0.22,2.53-0.45,5.07-0.42,7.6
	c0,1.6-0.64,2.23-2.07,2.34c-0.9,0.07-1.79,0.1-3.09,0.16c-0.08,1.55-0.06,3.11,0.07,4.66c0.23,0.71,0.77,1.27,1.47,1.52
	c1.49,0.31,3.02-0.36,3.8-1.67c0.28-0.56,0.4-1.2,0.65-1.78c0.17-0.24,0.36-0.46,0.59-0.65c0.22,0.25,0.62,0.48,0.63,0.74
	c0.09,1.63,1.21,3.03,2.79,3.46c1.05,0.48,1.52,1.73,1.03,2.78c-0.08,0.17-0.18,0.32-0.29,0.47c-0.75,1.07-1.79,1.9-3,2.39
	c-3.43,1.16-7.13,1.3-10.64,0.4c-2.7-0.72-4.06-2.31-4.18-5.08s0-5.6,0-8.64c-1.08,0.18-2.27-0.66-3.24,1
	c-0.36,0.63-1.91,0.66-2.94,0.8c-3.53,0.47-3.85,0.16-4.18-3.3s-0.67-7-1.12-10.41c-0.19-1.41,0.3-2.12,1.65-2.3
	c1.1-0.15,2.2-0.29,3.3-0.41C183,110.41,184,111,184,112.91z M184.22,114.47l0.49,3.9c1.38,0.54,1.56-0.51,2.05-1.13
	c0.67-0.87,1.62-1.85,2.62-1.1s1.46,2,2.17,3.09c-0.42,0.28-0.82,0.77-1.25,0.79c-1.78,0.09-3.57,0-5.47,0l0.3,3.47h7.48
	c0.16-3.21,0.32-6.28,0.48-9.46L184.22,114.47z"/>
<path d="M159.86,118c-0.22-2.52-0.43-4.82-0.64-7.27c-1.23-0.07-2.38-0.07-3.5-0.23c-0.41-0.06-0.75-0.51-1.12-0.79
	c0.39-0.24,0.77-0.64,1.19-0.68c1-0.1,2.1,0,3.28,0c-0.26-2.18-0.5-4.27-0.77-6.35c-0.22-1.67,0-2,1.59-1.81
	c2.13,0.35,4.24,0.81,6.32,1.38c1,0.27,1.58,1.15,0.92,2.07c-1.33,1.86-0.43,3.71-0.41,5.88c0.77-0.88,1.28-1.53,1.85-2.13
	c0.48-0.68,1.42-0.85,2.1-0.37c0.19,0.13,0.35,0.31,0.46,0.51c0.29,0.37,0.55,0.77,0.76,1.2c1,2,0.51,2.65-1.61,2.48
	c-1.09-0.08-2.19-0.23-3.47-0.36l0.32,5.35l5.51-0.67l0.17,0.55c-0.34,0.36-0.71,0.7-1.1,1c-3.43,2.29-6.88,4.54-10.31,6.83
	c-0.61,0.41-1.18,0.86-1.72,1.36c-1.09,1-2.06,1-2.65-0.34c-0.82-1.82-1.45-3.73-2.15-5.6c-0.4-1,0.15-1.48,1.11-1.58
	C157.19,118.2,158.4,118.09,159.86,118z"/>
<path d="M191,107.17c1.7,0,3.17,0.07,4.62,0c0.47,0,0.95-0.55,1.33-1c2.34-2.4,4.65-2.27,6.57,0.49c0.34,0.5,0.48,1.11,0.39,1.71
	c-0.06,0.26-1,0.45-1.49,0.45c-8,0.08-16.07,0.12-24.1,0.19c-1,0-2,0.24-3,0.19c-0.54-0.14-1.05-0.39-1.49-0.73
	c0.44-0.27,0.87-0.75,1.33-0.78c4.06-0.23,8.13-0.47,12.2-0.5c1.09,0.17,2.11-0.58,2.28-1.67c0-0.03,0.01-0.05,0.01-0.08
	c0.41-1.69,1-3.35,1.32-5c0.32-1.5,1.19-2,2.53-1.5c1.33,0.51,2.62,1.1,3.87,1.77c1.21,0.62,0.93,1.35,0,2
	C195.38,104.11,193.35,105.53,191,107.17z"/>
<path d="M173.72,139.17c0.62-1.16,1.2-2.09,1.64-3.08c1-2.21,2-4.43,2.8-6.7c0.42-1.13,1-1.59,2.13-1.22c1.7,0.52,3.37,1.14,5,1.85
	c1.5,0.69,1.44,1.63,0.06,2.51c-0.44,0.27-0.83,0.6-1.16,1c-2.34,3.13-5.65,4.67-9.26,5.7
	C174.53,139.27,174.12,139.25,173.72,139.17z"/>
<path d="M184.77,96.28c2.33,0,4.66,0,7,0c0.84,0.06,1.66-0.31,2.15-1c2.49-2.93,5.07-2.64,6.84,0.76c0.29,0.53,0.35,1.16,0.16,1.74
	c-0.15,0.31-1,0.38-1.55,0.37c-6.45-0.17-12.9-0.38-19.35-0.56c-1.06,0-2.12,0.15-3.17,0.06c-0.54-0.16-1.04-0.42-1.48-0.77
	c0.44-0.26,0.88-0.72,1.33-0.74c2.69-0.06,5.39,0,8.09,0L184.77,96.28z"/>
<path d="M181.9,87.63c3.22-0.39,6.49,0.31,9.26,2c0.75,0.33,1.1,1.21,0.77,1.96c-0.08,0.18-0.19,0.34-0.32,0.47
	c-1.22,1.12-2.56,2.11-4,2.93c-0.58,0.18-1.22,0.05-1.68-0.35C184.55,92.44,183.32,90.14,181.9,87.63z"/>
<path d="M181.18,98.85c1.9,0.67,3.77,1.44,5.59,2.3c1.27,0.66,1.27,1.67,0.33,2.76c-0.33,0.4-0.69,0.77-1.1,1.09
	c-2.9,2.07-3.66,2-4.61-1c-0.45-1.01-0.99-1.98-1.61-2.9c-0.23-0.5-0.44-1.01-0.61-1.53L181.18,98.85z"/>
<path d="M118.48,132.44c-3.12,0.64-5.65,1.88-8.42,1.81l-0.18-0.41l9.65-8.37c-3.69-0.65-3.66-0.66-3.77-4
	c-0.07-2.06-0.19-4.12-0.39-6.17c-0.12-1.32,0.35-2,1.67-2.15c1.11-0.1,2.22-0.23,3.33-0.26c1.65,0,1.95,0.2,2.51,1.84l7.16,0.66
	c1-2.19,1.3-2.41,3.48-1.81c1.42,0.42,2.81,0.92,4.16,1.51c0.84,0.35,1.13,1.12,0.48,1.79c-1.54,1.57-1.44,3.57-1.61,5.48
	c-0.27,2.93-0.31,3-3.3,3.21c-0.64,0-1.27,0-1.91,0c-1.29,0-2.14-0.47-2.15-1.74h-6.13l-0.07,0.35c1,0.7,2,1.33,2.84,2.1
	c1.56,1.36,1.38,2.15-0.55,2.76c-0.2,0.05-0.4,0.12-0.58,0.22c-0.68,0.4-1.34,0.82-2.32,1.43c1,0.25,1.74,0.41,2.45,0.61
	c1.41,0.39,1.51,0.87,0.86,2.16c-0.37,0.97-0.64,1.98-0.83,3l3.89-0.95c-0.29,0.71-0.35,1.21-0.64,1.5c-2,2-3.91,4-6,5.87
	c-0.64,0.35-1.4,0.37-2.06,0.06c-0.87-0.6-1.65-1.32-2.33-2.13c-0.87-0.9-0.79-1.67-0.22-2.91
	C118.22,136.34,118.17,134.42,118.48,132.44z M130,116.89l-6.88-0.54v5.88l6.32-0.29L130,116.89z"/>
<path d="M134.85,94c0.06-0.58,0.22-1.15,0.48-1.68c0.39-0.45,1.12-1.08,1.53-1c1.83,0.46,3.63,1.06,5.36,1.81
	c0.42,0.42,0.59,1.03,0.47,1.61c-1.66,1.85-1.31,4.16-1.6,6.31c-0.08,1.06-0.08,2.11,0,3.17c0,0.92-0.3,1.55-1.3,1.64
	c-1.4,0.23-2.82,0.33-4.24,0.3c-0.62,0-1.16-1-1.73-1.47l0.25-0.38c-0.46,0-0.93-0.07-1.39-0.06l-14.07,0.41
	c0.09,2.08-1.29,2.25-2.71,2.36c-0.52,0-1.05,0-1.58,0c-2.32,0-2.49-0.25-2.55-2.53c-0.1-3.75-0.21-7.51-0.45-11.25
	c-0.08-1.31,0.43-1.88,1.59-2.06c0.84-0.13,1.68-0.23,2.52-0.3c1.46-0.11,2.75,0,2.44,2.31L134.85,94z M118.44,103.15l0.41,0.38
	c0.54-0.41,1.52-0.79,1.55-1.24c0.15-2.4,0.07-4.82,0.07-7.33l-2.41-0.27C118.19,97.63,118.31,100.39,118.44,103.15z M132.29,95.42
	v7.29l2-0.1c0.17-2.43,0.32-4.67,0.49-7L132.29,95.42z M125.37,95.24c0,2.12,0.07,4.06,0,6c-0.07,1.54,0.5,2,2,1.48v-7.34
	L125.37,95.24z"/>
<path d="M96.6,124.26v-8.58c-1.23,0-2.27,0-3.3,0c-0.34,0-0.65-0.37-1-0.57c0.3-0.31,0.55-0.83,0.9-0.89
	c1.04-0.15,2.1-0.24,3.15-0.26c-0.09-2-0.13-3.79-0.29-5.62c-0.11-1.31,0.37-2,1.67-1.82c1.79,0.19,3.56,0.43,5.33,0.72
	c1.12,0.19,1.17,0.92,1,1.91c-0.23,1.32-0.38,2.66-0.43,4c0.07,0.33,0.27,0.62,0.57,0.79c0.1,0.06,0.47-0.27,0.71-0.45
	c0.08,0,0.1-0.2,0.18-0.25c0.89-0.55,2.17-1.75,2.61-1.5c0.98,0.73,1.72,1.72,2.16,2.86c0.39,0.8,0,1.33-1.13,1.25
	c-1.61-0.11-3.24,0-4.78,0v7.75l5.13-0.31l0.2,0.42c-0.33,0.41-0.7,0.78-1.12,1.1c-3.08,1.84-6.19,3.64-9.27,5.47
	c-1.08,0.64-2.17,1.28-3.18,2s-2,0.75-2.57-0.5c-0.77-1.84-1.39-3.75-2-5.66c-0.39-1.2,0.14-1.82,1.4-1.82L96.6,124.26z"/>
<path d="M128.83,128.68c1.08,0.8,1.77,1.35,2.49,1.86c2.93,2.1,6.29,3.52,9.84,4.18c0.41,0.15,0.79,0.37,1.12,0.64
	c-0.29,0.33-0.58,0.65-0.86,1c-1.06,1.04-2,2.19-2.83,3.42c-0.81,1.5-1.64,2.17-3.05,1.26c-1.57-0.87-2.93-2.06-4-3.5
	c-1.18-2.17-2.14-4.45-2.87-6.81C128.6,130.04,128.66,129.35,128.83,128.68z"/>
<path d="M126.4,110.92c-3.49,0-7,0-10.45,0c-0.48,0-1-0.39-1.43-0.59c0.46-0.3,0.92-0.86,1.38-0.86c4.59,0,9.18,0.15,13.78,0.14
	c0.79-0.03,1.55-0.35,2.13-0.89c2.44-2.41,5.41-1.81,6.56,1.45c0.45,1.29-0.44,1.41-1.37,1.41c-3.54,0-7.07,0-10.6,0L126.4,110.92z"
	/>
<path d="M95.33,102.79c2.51,0.3,5,0.66,7.55,0.88c0.68,0.04,1.34-0.17,1.87-0.59c2.23-2,3.7-1.84,5,0.93
	c0.25,0.49,0.28,1.07,0.09,1.59c-0.41,0.36-0.96,0.52-1.5,0.43c-3.41-0.39-6.81-0.91-10.22-1.29c-1.78-0.19-3.59-0.15-5.37-0.32
	c-0.5-0.16-0.97-0.4-1.39-0.72c0.43-0.35,0.91-0.62,1.43-0.8c0.84-0.07,1.69-0.07,2.53,0L95.33,102.79z"/>
<path d="M134.89,131.83c-0.18-0.59-0.54-1.11-0.42-1.46c0.54-1.65,1.19-3.25,1.95-4.81c0.21-0.42,1.28-0.88,1.6-0.7
	c1.58,0.91,3.09,1.94,4.51,3.09c0.75,0.61,0.42,1.42-0.44,1.71C139.85,130.4,137.57,131,134.89,131.83z"/>
<path d="M251.68,94.65l4.59,0.73c0.21-0.84,0.46-1.63,0.61-2.43c0.02-0.8,0.69-1.43,1.49-1.41c0.16,0,0.31,0.03,0.46,0.09
	c1.96,0.58,3.88,1.29,5.75,2.12c0.69,0.23,1.07,0.97,0.85,1.66c-0.09,0.28-0.27,0.52-0.52,0.69c-1.43,1-1.6,2.4-1.89,3.82
	c-0.28,1.29-0.49,2.59-0.61,3.9c-0.11,1.44,0.54,2.06,2,1.91c0.72-0.14,1.43-0.36,2.1-0.65c0.37-0.19,0.76-0.34,1.17-0.44
	c1.15-0.06,2.55,1.57,3,3.35s0,2.68-1.4,3.26c-2.93,1.27-6.18,1.62-9.32,1c-3.16-0.63-4.8-2.39-4.76-5.59c0-3,0.51-5.89,0.79-8.83
	c0-0.25,0-0.51,0.06-0.87l-4.21-0.68c-0.26,2-0.42,4-0.76,5.88c-0.86,4.77-4,7.81-8,10.06c-0.32,0.1-0.66,0.13-1,0.09
	c-0.06-0.33-0.06-0.67,0-1c2.61-5.89,2.75-12,1.68-18.21c-0.2-1.2,0.22-2,1.45-2.18c1.3-0.21,2.61-0.33,3.93-0.34
	c2.08,0,2.39,0.39,2.47,2.41C251.59,93.5,251.64,94,251.68,94.65z"/>
<path d="M259.12,128.71c2.94,0.2,5.75,0.41,8.57,0.58c0.74,0,1.49-0.09,2.22,0c0.36,0.1,0.7,0.26,1,0.47
	c-0.21,0.32-0.35,0.75-0.64,1c-0.73,0.51-1.74,0.77-2.24,1.43c-0.83,1.06-1.45,2.26-1.85,3.54c-0.49,1.71-1.05,2.22-2.81,1.76
	c-3.4-0.78-6.64-2.13-9.59-4c-0.57-0.28-1.22-0.31-1.81-0.1c-3,1-6,2.07-9,3.07c-0.66,0.08-1.34,0.08-2,0l8.46-6.69
	c-1.1-2.22-2.11-4.18-3-6.18c-0.1-0.43-0.12-0.87-0.06-1.3c0.43,0.07,0.85,0.2,1.24,0.39c1.57,1,3.1,2.16,4.86,3.41l3.81-7.07
	c-1,0-1.64,0-2.29,0c-3.07,0.07-6.13,0.18-9.2,0.18c-0.47,0-0.93-0.57-1.4-0.87c0.43-0.3,0.92-0.52,1.43-0.65
	c3.49-0.17,6.98-0.29,10.47-0.37c0.97,0.13,1.87-0.55,2-1.52c0.47-2,1.16-2.34,2.94-1.43c1.83,0.93,3.55,2.06,5.14,3.35
	c1.24,1,1,1.7-0.34,2.57c-0.71,0.5-1.32,1.13-1.79,1.86C261.91,124.12,260.65,126.25,259.12,128.71z"/>
<path d="M231.49,120.32c0.9-2.56,1.07-2.69,3.66-2c1.27,0.34,2.51,0.78,3.7,1.34c1,0.46,0.88,1.27,0.41,2.15
	c-0.51,0.81-0.87,1.7-1.07,2.64c-0.2,1.99-0.28,4-0.24,6c0.15,0.88-0.44,1.72-1.32,1.87c-0.05,0.01-0.09,0.01-0.14,0.02
	c-0.99,0.2-1.99,0.35-3,0.44c-2.37,0.15-2.49,0-2.72-2.42h-3.14c-0.12,0.17-0.22,0.25-0.23,0.34c-0.27,2.88-0.26,2.91-3.25,3.06
	c-4.65,0.23-3.87-0.16-4-3.59c-0.1-3.27-0.31-6.54-0.55-9.81c-0.08-1,0.3-1.54,1.21-1.7c1.24-0.21,2.51-0.32,3.76-0.48
	c1.52-0.19,2.38,0.36,2.18,2.14H231.49z M231.38,122.1h-4.12v6.63l3.62-0.15L231.38,122.1z"/>
<path d="M226.06,101c1.65,0.08,3.81,0.14,6,0.3c0.84,0.18,1.7-0.17,2.16-0.89c0.34-0.48,0.75-0.89,1.22-1.24
	c0.85-0.89,2.26-0.93,3.15-0.08c0.12,0.11,0.23,0.24,0.32,0.38c0.16,0.14,0.3,0.3,0.4,0.49c0.38,0.94,0.73,1.89,1.09,2.84
	c-0.94,0.16-1.89,0.26-2.84,0.29c-6-0.15-11.97-0.34-17.9-0.57c-0.79-0.04-1.56-0.27-2.24-0.66c0.13-1.4,1.35-0.79,2.11-0.83
	C221.52,101,223.53,101,226.06,101z"/>
<path d="M224.23,91.16c3,0,5.7,0.59,8,2.39c0.77,0.5,0.98,1.53,0.48,2.3c-0.05,0.08-0.12,0.16-0.18,0.23
	c-1.26,1.14-2.64,2.14-4.11,3c-0.54,0.06-1.07-0.15-1.41-0.57C226,96.21,225.22,93.85,224.23,91.16z"/>
<path d="M229.07,115.28c-2,0.13-4.1,0.31-6.15,0.36c-0.47,0-0.95-0.41-1.42-0.63c0.46-0.31,0.9-0.85,1.38-0.89
	c2.41-0.22,4.84-0.26,7.25-0.49c0.67-0.1,1.29-0.43,1.75-0.93c0.73-0.78,1.45-1.94,2.54-1.39c1.02,0.61,1.84,1.5,2.36,2.56
	c0.52,1-0.43,1.2-1.23,1.21c-2.16,0-4.32,0-6.48,0L229.07,115.28z"/>
<path d="M229,109.26c-2,0.13-4,0.3-6,0.35c-0.44,0-0.89-0.44-1.33-0.68c0.42-0.3,0.82-0.82,1.26-0.86c2.31-0.19,4.64-0.2,6.94-0.41
	c0.7-0.18,1.35-0.49,1.92-0.93c0.82-0.48,1.85-1.59,2.37-1.39c1.05,0.52,1.91,1.36,2.47,2.39c0.56,1-0.33,1.23-1.15,1.27l-6.48,0.3
	V109.26z"/>
<g id="twIYVE.tif">
	<path class="st3" d="M397.59,90h0.88v1c-0.06,0.13-0.1,0.26-0.14,0.4c-1.24,4.98-5.06,8.91-10,10.29
		c-0.52,0.14-0.99,0.42-1.37,0.81c-0.5,0.54-1,1-1.56,1.57c0.09,0.04,0.18,0.04,0.27,0c3.88-1.09,8.04-0.5,11.46,1.63
		c0.72,0.44,0.73,1,0,1.43c-4.45,2.79-10.07,2.92-14.63,0.32c-0.17-0.14-0.41-0.11-0.55,0.05c-0.01,0.01-0.01,0.02-0.02,0.03
		l-5.18,5.18l-0.23,0.28l0.35-0.11c5.14-1.71,10.78-1.03,15.37,1.84c0.79,0.48,0.8,1,0,1.47c-5.7,3.61-12.94,3.73-18.76,0.33
		c-0.19-0.16-0.48-0.12-0.63,0.07c0,0-0.01,0.01-0.01,0.01c-1.89,1.92-3.8,3.82-5.71,5.72l-0.28,0.31l0.23-0.06
		c6.45-2.42,13.67-1.68,19.49,2c0.36,0.14,0.53,0.55,0.39,0.91c-0.07,0.18-0.21,0.32-0.39,0.39c-5.71,3.69-12.82,4.47-19.2,2.13
		c-1.4-0.48-2.72-1.2-4.08-1.81v-0.14c-0.09,0.13-0.19,0.25-0.3,0.37l-4.64,4.58h-0.88v-1l4.93-4.84c-0.05-0.05-0.09-0.1-0.12-0.16
		c0-0.08-0.1-0.16-0.14-0.24c-4.19-7.69-4.06-15.3,0.39-22.85c0.39-0.66,1-0.66,1.36,0c3.18,4.98,4.2,11.04,2.81,16.78
		c-0.21,0.94-0.52,1.86-0.76,2.7l6.16-6.17L372,115c-3.41-5.84-3.27-13.09,0.35-18.8c0.43-0.75,1-0.75,1.42,0
		c2.57,4.07,3.41,8.99,2.34,13.68c-0.14,0.66-0.34,1.3-0.49,1.89l5.57-5.57c-0.06-0.09-0.12-0.19-0.17-0.29
		c-2.56-4.57-2.4-10.18,0.4-14.6c0.4-0.68,1-0.67,1.38,0c1.9,3.02,2.59,6.64,1.95,10.14c-0.09,0.52-0.22,1-0.33,1.59
		c0.06,0,0.09,0,0.11,0c0.64-0.64,1.29-1.27,1.92-1.93c0.15-0.15,0.25-0.34,0.3-0.54c1.16-4.53,4.45-8.22,8.83-9.87
		C396.21,90.4,396.91,90.22,397.59,90z"/>
</g>
<path class="st3" d="M78.47,140.14v-3.74h-5.79v-12l1.66,1.13l2.08-3.06l0,0l0,0l-3.74-2.55l-9.14-6.25l-9.14,6.25l-3.74,2.55
	v-18.26l3.64,3.1l2.43-2.85L39.65,89.93l-17.07,14.53l2.42,2.85l3.64-3.1v32.19h-6.19v-5c2.43-0.82,4.07-3.09,4.08-5.65
	c0-3.9-4.17-8.12-4.64-8.59l-1.32-1.3l-1.31,1.3c-0.47,0.47-4.64,4.69-4.64,8.59c0.02,2.56,1.66,4.83,4.09,5.65v5h-4.09v3.74
	L78.47,140.14z M34.66,105.61h10v10h-10V105.61z M41.34,136.4v-4.89c0-0.93-0.76-1.69-1.69-1.69c-0.93,0-1.69,0.76-1.69,1.69v4.89
	h-3.74v-4.89c0-3,2.43-5.43,5.43-5.43s5.43,2.43,5.43,5.43v4.89H41.34z M50.66,136.4v-14l2.09,3.06l1.65-1.13v12L50.66,136.4z
	 M65.23,136.4v-6.08h-3.38v6.08h-3.74v-9.83H69v9.83H65.23z"/>
</svg>
