<svg id="圖層_1" data-name="圖層 1" xmlns="http://www.w3.org/2000/svg" viewBox="0 0 230 56"><path d="M216.32,37c.82,0,1.46,0,2.09,0,1.09,0,1.91.37,1.94,1.53s-.84,1.67-2,1.67h-3.67l2.86,4.83c.27.47.56.93.83,1.4a1.58,1.58,0,0,1-.5,2.42,1.56,1.56,0,0,1-2.25-.75c-1.24-2-2.54-4-3.61-6.11a3,3,0,0,0-3.22-1.83c-6.81.09-13.61,0-20.39,0a43,43,0,0,1-2.07,4.6,21,21,0,0,1-2.75,3.44c-.72.81-1.67,1.18-2.57.25s-.45-1.81.38-2.55a11.2,11.2,0,0,0,3.45-5.74h-3c-1.14,0-2.19-.2-2.21-1.58s1-1.68,2.15-1.63c.49,0,1,0,1.69,0V35.41q0-10.51,0-21c0-4.58,2.34-6.9,7-6.9q9.54,0,19.1,0c4.51,0,6.79,2.31,6.79,6.86q0,10.44,0,20.88Zm-3.28-22c.26-3.45-.59-4.39-3.83-4.39H190.27c-2.92,0-4.05,1.49-3.34,4.38Zm0,3.37H186.82v4h26.24ZM213,37V33H186.81v4Zm0-11.09H186.82v3.68h26.24Z"/><path d="M69.57,37.23c0,2.36-.06,4.57,0,6.78,0,1.44,1.21,2.36,2.86,2.39,2.17,0,4.34,0,6.51,0h24c.39,0,.79,0,1.18,0A1.51,1.51,0,0,1,105.69,48c0,1-.63,1.5-1.59,1.6-.39,0-.79,0-1.19,0H73.31q-7,0-7-7,0-7.92,0-15.84c0-4.33,2.44-6.74,6.81-6.75,6.36,0,12.73,0,19.09,0A1.67,1.67,0,0,0,94,19c.58-1.29,1.28-2.52,2-4H71.14c-2.47,0-3-.86-1.89-3.12.62-1.28,1.24-2.58,1.88-3.85a1.55,1.55,0,0,1,2.31-.86c1,.52,1,1.36.53,2.28-.36.69-.71,1.39-1.15,2.27.65,0,1.16.08,1.68.08H97.73c2.7,0,3.22.86,2,3.24-.84,1.6-1.69,3.2-2.55,4.85,5,.73,6.74,2.74,6.74,7.82,0,1.09,0,2.17,0,3.26a6.08,6.08,0,0,1-6.29,6.23q-13.1,0-26.19,0ZM86.51,34c3.9,0,7.63,0,11.37,0a2.74,2.74,0,0,0,2.77-2.85c0-1.57,0-3.15,0-4.72a2.86,2.86,0,0,0-3.14-3.11c-3.3,0-6.6,0-9.9,0a10.43,10.43,0,0,0-1.11.11Zm-3.36-10.7c-3.72,0-7.27,0-10.82,0-1.38,0-2.58.71-2.66,2.08-.19,2.83-.06,5.68-.06,8.5H83.15Z"/><path d="M155.7,10.22c2.09,0,4.2,0,6.31,0,1.18,0,2.16.3,2.14,1.64s-1,1.57-2.07,1.57h-6.37c-.44,1.35.48,3.55-1.78,3.53s-1.35-2.08-1.67-3.43h-18.5c-.41,1.25.52,3.54-1.86,3.42-2.06-.1-1.25-2.07-1.57-3.52h-5.22c-.54,0-1.08,0-1.62,0-1-.09-1.71-.56-1.64-1.68a1.49,1.49,0,0,1,1.67-1.49c1.83,0,3.65,0,5.48,0h1.27c.53-1.36-.62-3.68,1.86-3.59,2.16.09,1.25,2.17,1.62,3.5h18.48c.48-1.22-.66-3.54,1.73-3.51S155.26,8.82,155.7,10.22Z"/><path d="M141.68,33.56H131.54c-.55,0-1.09,0-1.63,0-1.08,0-1.86-.52-1.8-1.7s.81-1.49,1.84-1.49h11.74c0-1,0-2,0-3s.39-1.88,1.59-1.86,1.59.82,1.61,1.88,0,1.85,0,2.94h7.64c1.14,0,2.27,0,3.41,0s2,.39,2,1.64S157,33.55,156,33.55h-11.1c0,3.13.08,6.13,0,9.11a11.5,11.5,0,0,1-.81,4,6.28,6.28,0,0,1-7.32,3,2,2,0,0,1-1.1-1.46,2.38,2.38,0,0,1,1.3-1.49,6.48,6.48,0,0,1,2-.1,2.62,2.62,0,0,0,2.69-2.44C141.73,40.7,141.68,37.21,141.68,33.56Z"/><path d="M143,18.63c3.7,0,7.4,0,11.1,0a6.53,6.53,0,0,1,6.59,4.29c.65,1.54,1.37,3.05,2.08,4.57.47,1,.51,2-.65,2.5s-1.84-.16-2.28-1.22c-.63-1.5-1.32-3-2-4.47A3.86,3.86,0,0,0,154,21.75q-11,.08-22,0a3.76,3.76,0,0,0-3.72,2.38c-.73,1.56-1.41,3.14-2.08,4.73-.43,1-1.18,1.53-2.21,1.1s-1.16-1.36-.71-2.36c.83-1.84,1.59-3.72,2.5-5.51a6.14,6.14,0,0,1,5.91-3.46Z"/><path d="M122.45,46.64a7.23,7.23,0,0,1,1.2-1.36,31.43,31.43,0,0,0,8.59-8.42c.68-.94,1.5-1.54,2.6-.72s.63,1.72,0,2.58a33.38,33.38,0,0,1-9.41,9.05,3,3,0,0,1-2,.22C123.05,47.91,122.83,47.21,122.45,46.64Z"/><path d="M161.16,48.46a9.69,9.69,0,0,1-1.48-1c-2.72-2.85-5.4-5.73-8.1-8.6-.72-.77-1.05-1.61-.18-2.45s1.68-.59,2.44.21c2.72,2.85,5.47,5.67,8.13,8.57a2.58,2.58,0,0,1,.51,1.95C162.4,47.62,161.68,48,161.16,48.46Z"/><path d="M36.16,10.19c.33-1.37-.49-3.31,1.71-3.31s1.46,1.9,1.74,3.31h8.51a1.49,1.49,0,0,1,1.68,1.49,1.53,1.53,0,0,1-1.66,1.68c-1.92.05-3.85,0-5.77,0H39.62v6.28h7.47c.49,0,1.08-.16,1.46,0,.61.34,1.38.83,1.55,1.42.27.95-.46,1.51-1.43,1.64-.34.05-.68.08-1.11.13v5.55c1.12.18,2.67,0,2.58,1.79-.07,1.54-1.33,1.6-2.67,1.55,0,2.94,0,5.79,0,8.64a33.18,33.18,0,0,1-.11,4,5.76,5.76,0,0,1-5.58,5.14c-.93,0-1.87,0-2.81,0a1.52,1.52,0,0,1-1.7-1.48c-.07-1.08.63-1.62,1.65-1.69s1.88,0,2.81,0a2.47,2.47,0,0,0,2.51-2.42c.06-4,0-8,0-12.14H27.64c-1.56,0-2.38-.57-2.3-1.65.12-1.47,1.18-1.64,2.36-1.59H44.18V22.89c-.53,0-1-.08-1.56-.08H28.26c-.44,0-.89,0-1.33,0-.95-.1-1.62-.55-1.58-1.59A1.48,1.48,0,0,1,27,19.68c2.47,0,4.94,0,7.4,0h1.75V13.39h-7.1a14.62,14.62,0,0,1-1.48,0c-1-.1-1.69-.62-1.63-1.71a1.51,1.51,0,0,1,1.71-1.46h8.51Z"/><path d="M19.15,33.13c1.09-.47,2.08-.89,3.05-1.32s1.87-.34,2.35.74-.14,1.76-1.08,2.21a1.62,1.62,0,0,1-.4.19c-3.54.73-4.59,2.92-4.09,6.37A43.49,43.49,0,0,1,19,47.68c0,1.1-.36,2-1.62,2s-1.59-.91-1.59-2c0-3.09,0-6.17,0-9.47-1.86.8-3.52,1.51-5.18,2.24-1.05.47-2.07.62-2.63-.62s.33-1.89,1.35-2.34c1.84-.81,3.72-1.58,5.53-2.46a1.78,1.78,0,0,0,.89-1.23c.06-4.73,0-9.46,0-14.42h-5c-2,0-2.46-.61-2.11-2.55s.75-3.77,1.13-5.65c.2-1,.72-1.7,1.82-1.47a1.57,1.57,0,0,1,1.23,2c-.23,1.41-.48,2.82-.74,4.34h3.69c0-2.39-.09-4.75.06-7.1a2.69,2.69,0,0,1,1.17-1.91c1-.52,1.93.45,2,1.86,0,2.35,0,4.71,0,7.26.95,0,1.77,0,2.59,0,1.08,0,1.87.53,1.82,1.69s-.79,1.51-1.83,1.5c-.79,0-1.57,0-2.47,0Z"/><path d="M31.56,34.45A8.67,8.67,0,0,1,33,35.4c1.42,1.43,2.79,2.9,4.17,4.36.74.78,1,1.64.14,2.46s-1.69.49-2.43-.27c-1.45-1.53-2.95-3-4.32-4.62a2.06,2.06,0,0,1-.29-1.71C30.41,35.17,31.06,34.88,31.56,34.45Z"/></svg>