<?xml version="1.0" encoding="utf-8"?>
<!-- Generator: Adobe Illustrator 24.1.0, SVG Export Plug-In . SVG Version: 6.00 Build 0)  -->
<svg version="1.1" id="圖層_1" xmlns="http://www.w3.org/2000/svg" xmlns:xlink="http://www.w3.org/1999/xlink" x="0px" y="0px"
	 viewBox="0 0 440 160" style="enable-background:new 0 0 440 160;" xml:space="preserve">
<style type="text/css">
	.st0{fill:#80ADB7;}
	.st1{enable-background:new    ;}
	.st2{fill:#FFFFFF;}
	.st3{fill:#C28032;}
</style>
<path class="st0" d="M84.25,22.27c0,0-9.5,3.17-11.88,15.06s-4.75,18.22,0,24.55S77.91,74.56,85.84,73s17.42-4.76,21.39,0
	s10.29,7.92,10.29,7.92s3.17-7.92,11.09-8.72s54.67-0.79,66.55-0.79s45.16-0.79,61.79,0s30.1-2.38,43.57,0s44.33-0.85,50.67,0.74
	s19.8,0.79,22.18-4.76S379,60.24,377,51.93s1.29-11.92-1.35-17.21c-2.86-5.71-7.79-10-17.18-11.89c-13.21-2.64-87.4-2.32-95.33-2.32
	s-32.29,1.76-40.21,1.76C222.93,22.27,84.25,22.27,84.25,22.27z"/>
<g class="st1">
	<path class="st2" d="M113.65,55.12l-1.13,1.52c-4.15-2.65-6.85-6.17-8.09-10.56c-1.31,4.22-4.03,7.69-8.18,10.41l-1.12-1.63
		c4.29-2.79,6.9-6.22,7.83-10.27h-7.39l-0.02-1.89h7.66c0.15-1.47,0.24-2.97,0.26-4.49h1.89c-0.02,1.83-0.08,3.32-0.18,4.49h8.21
		v1.89h-7.61C106.8,49.09,109.43,52.61,113.65,55.12z"/>
	<path class="st2" d="M134.71,54.1l-1.07,1.53c-2.43-1.36-4.22-2.79-5.39-4.3c0.02,0.29,0.03,0.62,0.03,0.98
		c0,1.61-0.23,2.71-0.7,3.3c-0.46,0.59-1.36,0.89-2.7,0.89c-0.35,0-0.8-0.01-1.36-0.03l-0.62-1.78c0.96,0.03,1.65,0.05,2.06,0.05
		c0.51,0,0.85-0.07,1.01-0.21c0.16-0.14,0.29-0.32,0.37-0.53c0.09-0.21,0.13-0.85,0.13-1.92c0-0.34-0.01-0.66-0.02-0.95
		c-2.63,2.22-5.8,3.8-9.5,4.75l-0.82-1.58c3.81-0.79,7.15-2.48,10.02-5.05c-0.12-0.4-0.26-0.77-0.44-1.1
		c-2.5,1.94-5.37,3.24-8.59,3.91l-0.8-1.53c3.02-0.5,5.88-1.73,8.59-3.68c-0.04-0.05-0.28-0.32-0.72-0.79
		c-1.93,1.01-4.17,1.73-6.72,2.18l-0.84-1.6c2.85-0.29,5.48-1.11,7.9-2.46h-5.1v-1.63h11.86v1.63h-4.31
		c-0.34,0.34-0.77,0.66-1.28,0.96c0.87,0.96,1.5,1.95,1.89,2.98c1.44-0.72,2.82-1.73,4.14-3.03l1.32,1.18
		c-1.24,1.19-2.71,2.22-4.39,3.11C129.99,51.13,132,52.71,134.71,54.1z M134.03,43.47h-1.83v-2.14h-13.63v2.14h-1.86v-3.8h7.57
		c-0.18-0.36-0.44-0.78-0.8-1.24l1.99-0.4c0.33,0.53,0.65,1.07,0.94,1.64h7.61V43.47z"/>
	<path class="st2" d="M143.14,38.39c-0.3,0.85-0.59,1.62-0.87,2.29l-0.89,2.08v13.67h-1.9V45.97c-0.54,0.75-1.01,1.33-1.4,1.74
		l-0.88-1.95c1.74-2.15,3.09-4.74,4.05-7.79L143.14,38.39z M155.55,42.53h-6.53v3.09h6.05v1.74h-6.05v3.05h6.07v1.71h-6.07v4.33
		h-1.89V42.53h-0.72c-1.01,1.96-2.02,3.51-3.03,4.63l-1.36-1.3c1.81-2.17,3.19-4.8,4.12-7.88l1.87,0.4c-0.1,0.42-0.38,1.22-0.82,2.4
		h8.36V42.53z"/>
	<path class="st2" d="M164.35,38.37c-0.26,0.68-0.62,1.51-1.07,2.48l-0.68,1.4V56.4h-1.87V45.53c-0.53,0.72-1.09,1.42-1.66,2.1
		l-0.9-2.01c1.43-1.66,2.86-4.25,4.31-7.77L164.35,38.37z M176.8,55.04l-1.1,1.64c-3.1-2.28-4.99-4.76-5.69-7.46
		c-0.77,2.94-2.75,5.35-5.94,7.24l-1.04-1.59c2.39-1.41,3.98-2.92,4.77-4.53c0.79-1.61,1.18-3.89,1.18-6.86v-5.25h1.89v6.42
		c0,0.24,0.01,0.58,0.04,1.01c1.48-1.51,2.72-3.25,3.7-5.23l1.74,0.76c-1.08,2.18-2.75,4.45-5,6.8
		C172.08,50.88,173.9,53.22,176.8,55.04z M167.71,47.34l-1.76,0.71c-0.4-2.41-1.08-4.71-2.04-6.91l1.68-0.77
		C166.56,42.68,167.26,45.01,167.71,47.34z"/>
	<path class="st2" d="M197.83,54.06l-1.12,1.51c-2.96-1.54-5.4-3.6-7.33-6.19v7.17h-1.91v-7.19c-1.96,2.67-4.38,4.74-7.27,6.23
		l-1.17-1.51c3.71-1.86,6.52-4.38,8.44-7.56v-4.58h-7.88v-1.82h7.88v-1.98h1.91v1.98h7.81v1.82h-7.81v4.77
		C191.29,49.7,194.11,52.15,197.83,54.06z M185.98,47.63l-1.34,1.34c-0.44-0.94-0.98-1.83-1.6-2.67c-0.72,1.21-1.51,2.27-2.35,3.17
		l-1.44-1.17c1.43-1.37,2.61-3.32,3.55-5.84l1.76,0.4c-0.21,0.67-0.45,1.26-0.73,1.78C184.73,45.74,185.45,46.73,185.98,47.63z
		 M197.23,48.01l-1.3,1.3c-0.55-0.9-1.31-1.88-2.29-2.92c-0.49,0.9-1.05,1.7-1.7,2.4l-1.24-1.3c1.04-1.11,1.92-2.76,2.62-4.95
		l1.74,0.29c-0.16,0.7-0.38,1.35-0.65,1.96C195.67,46.02,196.61,47.1,197.23,48.01z"/>
	<path class="st2" d="M211.24,47.5c-0.61,0.36-1.18,0.66-1.72,0.92v6.25c0,0.55-0.21,0.98-0.64,1.29s-1.38,0.46-2.87,0.47
		l-0.46-1.87l1.86-0.02c0.22,0,0.33-0.13,0.33-0.38v-4.89c-0.65,0.29-1.32,0.55-2.01,0.78l-0.5-1.8c0.83-0.25,1.67-0.57,2.51-0.97
		v-4.07h-2.25v-1.74h2.25v-3.38h1.78v3.38h1.46v1.74h-1.46v3.19c0.47-0.17,0.93-0.4,1.37-0.69L211.24,47.5z M223.82,54.54
		l-1.16,1.41c-1.76-1.33-3.25-2.88-4.45-4.63v5.2h-1.8v-5.25c-1.6,1.96-3.29,3.52-5.08,4.71l-1.16-1.51
		c2.27-1.44,4.03-3.1,5.29-4.98h-3.8v-1.69h4.75V45.9h1.8v1.88h5.42v1.69h-4.65C220.01,51.07,221.62,52.76,223.82,54.54z
		 M216.85,41.07c0.03,2.9-1.32,4.86-4.07,5.89l-1.12-1.48c2.43-0.72,3.59-2.2,3.49-4.41H216.85z M223.28,43.09h-1.83v-2.71h-7.75
		v2.62h-1.83v-4.35h11.4V43.09z M223.32,45.92h-3.11c-0.68,0-1.18-0.14-1.48-0.42c-0.3-0.28-0.46-0.77-0.46-1.47V41.1h1.66v2.71
		c0,0.34,0.18,0.51,0.54,0.51h2.84V45.92z"/>
	<path class="st2" d="M233.02,53.24c-1.32,1.12-3.12,2.17-5.39,3.15l-1.04-1.49c2.21-0.94,3.87-1.85,4.98-2.73L233.02,53.24z
		 M244.32,46.18h-1.89v-2.23h-13.54v2.2h-1.9v-3.89h7.71v-1.26h-7.18v-1.6h7.18v-1.23h1.89v1.23h7.27v1.6h-7.27v1.26h7.73V46.18z
		 M244.5,51.79l-1.42,0.98c-0.53-0.72-0.95-1.26-1.26-1.6l-5.19,0.46v2.98c0,0.62-0.19,1.08-0.58,1.39
		c-0.39,0.31-1.44,0.47-3.14,0.48l-0.63-1.74c0.46,0.02,0.85,0.03,1.17,0.03c0.61,0,0.98-0.04,1.12-0.11
		c0.14-0.07,0.21-0.21,0.21-0.4v-2.49c-2.09,0.12-4.36,0.18-6.8,0.21l-0.22-1.47c2.39-0.49,4.72-1.3,6.99-2.42
		c-1.83,0.12-3.55,0.17-5.17,0.17L229.37,47c1.67-0.46,3.56-1.41,5.67-2.86l1.63,0.88c-0.96,0.7-2.07,1.31-3.31,1.83
		c0.74-0.02,1.48-0.05,2.23-0.09c1.33-0.08,2.06-0.16,2.21-0.25c1-0.56,1.79-1.02,2.36-1.38l1.5,1.08
		c-3.14,1.79-6.14,3.23-8.99,4.31c2.24-0.1,4.9-0.32,7.97-0.66c-0.44-0.46-0.9-0.9-1.37-1.32l1.44-0.92
		C242.01,48.8,243.28,50.19,244.5,51.79z M244.74,54.98l-1.08,1.34c-1.58-1.04-3.42-1.98-5.52-2.81l1.2-1.39
		C241.46,53.01,243.25,53.96,244.74,54.98z"/>
	<path class="st2" d="M264.1,56.47h-1.93V55.4h-11.02v1.07h-1.92V40.41h5.06c0.4-0.63,0.75-1.42,1.05-2.38l2.04,0.34
		c-0.22,0.76-0.53,1.44-0.92,2.04h7.64V56.47z M262.17,44.68v-2.45h-11.02v2.45H262.17z M262.17,49.03v-2.57h-11.02v2.57H262.17z
		 M262.17,53.59v-2.8h-11.02v2.8H262.17z"/>
	<path class="st2" d="M286.86,50.65c-0.02,1.05-0.13,2.07-0.34,3.04c-0.21,0.97-0.59,1.65-1.15,2.02c-0.56,0.38-1.47,0.56-2.72,0.56
		c-2.8,0-5.36-0.01-7.69-0.04c-2.32-0.03-3.62-0.09-3.91-0.17c-0.29-0.09-0.58-0.3-0.88-0.63c-0.3-0.33-0.45-0.72-0.45-1.15v-9.06
		h13.5v-4.71H268.8v-1.85h16.38v8.38h-13.47v6.89c0,0.19,0.1,0.31,0.29,0.37c0.19,0.05,0.92,0.1,2.18,0.12
		c1.26,0.03,2.65,0.04,4.16,0.04c3.17,0,4.99-0.03,5.46-0.1c0.47-0.07,0.77-0.51,0.91-1.35c0.14-0.83,0.21-1.85,0.21-3.04
		L286.86,50.65z"/>
	<path class="st2" d="M298.44,39.55c-1.27,0.62-3.26,1.13-5.97,1.55v1.74h5.31v6.85h-5.29c-0.11,2.95-0.6,5.27-1.47,6.97l-1.68-1.34
		c0.85-1.66,1.28-3.88,1.28-6.66v-9.05c2.39-0.25,4.64-0.81,6.74-1.66L298.44,39.55z M295.85,47.88v-3.22h-3.38v3.22H295.85z
		 M307.82,39.63c-2.24,0.77-4.49,1.28-6.76,1.53v3.26h6.76v1.85h-2.04v10.2h-1.83v-10.2h-2.89c0.16,4.14-0.74,7.62-2.69,10.44
		l-1.56-1.56c0.79-1.11,1.39-2.31,1.8-3.6c0.41-1.29,0.61-3.07,0.61-5.34v-6.67c3-0.26,5.52-0.79,7.57-1.6L307.82,39.63z"/>
	<path class="st2" d="M329.14,54.98l-0.84,1.68c-3.36-0.32-6.23-0.93-8.63-1.82c-2.57,0.84-5.38,1.45-8.44,1.82l-0.8-1.72
		c2.41-0.19,4.72-0.59,6.91-1.2c-0.85-0.45-1.7-0.98-2.54-1.59c-0.89,0.49-1.86,0.96-2.9,1.41l-1.11-1.46
		c1.08-0.41,1.9-0.79,2.46-1.13c-0.12-0.09-0.32-0.27-0.62-0.54l1.26-1.08c0.33,0.29,0.64,0.54,0.94,0.74
		c0.74-0.44,1.44-0.96,2.1-1.54c-0.7-0.21-1.05-0.67-1.05-1.38v-2.31h1.83v1.7c0,0.36,0.2,0.55,0.59,0.56
		c0.4,0.01,0.88,0.02,1.45,0.02c1.12,0,1.76-0.03,1.92-0.08c0.16-0.05,0.28-0.19,0.35-0.41c0.07-0.22,0.11-0.54,0.11-0.95l1.83,0.56
		c-0.04,0.66-0.16,1.17-0.37,1.53s-0.49,0.58-0.87,0.67c-0.37,0.09-1.52,0.13-3.43,0.13c-0.46,0.49-0.82,0.87-1.09,1.12h7.56v1.49
		c-1.4,1.13-2.64,1.99-3.71,2.56C324,54.37,326.36,54.77,329.14,54.98z M328.4,46.04h-1.87V44.2H312.9v1.8h-1.9v-3.35h17.39V46.04z
		 M315.25,45.8c-0.63,1.23-1.57,2.49-2.81,3.76l-1.42-1.01c1.16-1.15,2.08-2.34,2.78-3.57L315.25,45.8z M327.64,39.43
		c-4.42,0.64-9.68,0.97-15.77,1l-0.65-1.58c1.24,0.03,2.4,0.04,3.47,0.04c4.9,0,8.88-0.29,11.92-0.86L327.64,39.43z M316.31,41.88
		l-1.98,0.56c-0.69-0.54-1.29-0.94-1.8-1.21l1.95-0.64C315.13,40.89,315.74,41.32,316.31,41.88z M322.85,51.24h-6.36
		c0.93,0.66,1.98,1.24,3.15,1.74C320.89,52.5,321.96,51.92,322.85,51.24z M321.49,41.81l-1.93,0.58c-0.51-0.38-1.17-0.82-1.98-1.3
		l1.92-0.69C320.24,40.8,320.91,41.27,321.49,41.81z M321.64,46.01l-1.6,0.8c-0.36-0.5-0.85-1.03-1.49-1.59l1.53-0.84
		C320.69,44.91,321.21,45.45,321.64,46.01z M326.99,40.76c-0.65,0.65-1.38,1.2-2.21,1.64l-2.06-0.69c0.92-0.53,1.73-1.09,2.42-1.66
		L326.99,40.76z M327.79,48.41l-1.46,0.92c-0.72-1.35-1.56-2.62-2.53-3.8l1.45-0.84C326.22,45.85,327.07,47.09,327.79,48.41z"/>
</g>
<path class="st2" d="M350.49,54.17c0.37,0.14,0.66,0.42,0.82,0.78c0.16,0.35,0.16,0.76,0,1.11c-0.14,0.36-0.42,0.64-0.78,0.77
	c-0.36,0.15-0.78,0.15-1.14,0c-0.37-0.14-0.67-0.42-0.84-0.78c-0.15-0.35-0.15-0.75,0-1.1c0.14-0.37,0.42-0.65,0.79-0.79
	C349.71,54.01,350.12,54.02,350.49,54.17z M356.57,42.17l-4.45,10.41l-1.79-0.71l3.94-10.62L356.57,42.17z"/>
<path d="M258.67,109.8l7.31,0.38c0.06-0.06,0.11-0.13,0.16-0.2c0.87-2.59,0.89-2.68,3.64-2.06c1.64,0.38,3.24,0.93,4.76,1.64
	c1.32,0.61,1.27,1.44,0.27,2.49c-0.53,0.5-0.88,1.17-1,1.89c-0.34,5.63-0.6,11.26-0.83,16.89c-0.08,1.77-0.36,2.19-2.09,2.34
	c-1.31,0.11-2.62,0.19-3.93,0.18c-1.59,0-2-0.39-2.31-2.11l-9.16,0.58c0,1.46-0.89,1.88-2.05,1.94c-1.36,0.07-2.71,0.12-4.07,0.1
	s-1.67-0.37-1.68-1.79c0-4.91-0.06-9.83-0.14-14.75c-0.05-2.58-0.17-5.17-0.33-7.75c-0.07-1.2,0.35-1.85,1.57-2
	c1.3-0.19,2.6-0.32,3.91-0.37c1.76,0,2.08,0.37,2.46,2.12l1.37,0.16c0.15-1.41,0.34-2.74,0.43-4.07c0.12-1.82,0.19-3.64,0.21-5.46
	c0-1,0.44-1.35,1.32-1.24c2.66,0.32,5.22,1.21,7.51,2.59c1.12,0.68,0.9,1.7-0.27,2.32c-0.79,0.44-1.52,0.97-2.18,1.59
	C262,106.68,260.41,108.17,258.67,109.8z M255.34,116.69c1.66,0.24,1.65,0.23,2.5-0.8c0.3-0.4,0.63-0.78,1-1.12
	c0.67-0.7,1.78-0.72,2.47-0.05c0.08,0.07,0.14,0.15,0.21,0.24c0.31,0.29,0.56,0.62,0.74,1c0.22,0.64,0.58,1.41,0.38,1.94
	c-0.13,0.36-1.13,0.51-1.75,0.53c-1.8,0.07-3.61,0-5.41,0v4.94c1.63,0.81,2.3-0.36,3.13-1.23c1.38-1.44,2.53-1.28,3.56,0.43
	c0.19,0.32,0.36,0.66,0.51,1c0.64,1.49,0.22,2.06-1.37,1.93c-1.92-0.14-3.84-0.24-5.81-0.37v5l9.17-0.6c0.4-6,0.79-11.85,1.18-17.76
	l-10.54-0.68L255.34,116.69z"/>
<path d="M227.11,118.07l-5.75-0.43c-0.65,0-1.45-0.13-1.28-1c0.07-0.32,1-0.68,1.48-0.66c5.08,0.13,10.16,0.35,15.24,0.53
	c0.37,0,0.75,0,1.31,0c0-0.76,0-1.42,0-2.08c0-1,0.69-1.65,1.65-1.33c1.93,0.61,3.81,1.35,5.63,2.23c1.57,0.79,1.43,2.07-0.08,2.95
	c-0.53,0.33-1.01,0.73-1.42,1.2c-1.47,1.52-2.88,3.09-4.39,4.58c-0.29,0.29-0.87,0.29-1.32,0.42c-0.17-0.44-0.28-0.89-0.33-1.36
	c0-1.56,0.14-3.12,0.23-4.81h-2.68c0,2.11-0.1,4.22,0,6.31c0.21,3.55,0.54,7.1,0.86,10.64c0.4,4.46-1.94,7.68-6.32,8.6
	c-1.45,0.3-2.08-0.1-2.25-1.58c-0.26-2.32-1.21-3.94-3.78-4.15c-0.27,0-0.51-0.44-0.77-0.68c0.31-0.19,0.6-0.51,0.93-0.57
	c0.87-0.16,1.77-0.16,2.64-0.32c0.85-0.07,1.49-0.82,1.42-1.67c0-0.04-0.01-0.08-0.02-0.13
	C227.8,129.27,227.46,123.74,227.11,118.07z"/>
<path d="M234.56,106.29c0.11,0.15,0.14,0.25,0.2,0.28c2.79,1.3,3.15,2.46,1.32,4.94c-0.77,1.01-1.69,1.88-2.73,2.6
	c-0.79,0.64-1.95,0.53-2.59-0.26c-0.15-0.18-0.26-0.39-0.33-0.61c-1.03-2.33-2.52-4.43-4.39-6.16c-0.38-0.22-0.51-0.7-0.29-1.08
	c0.17-0.3,0.51-0.45,0.84-0.38c1.35-0.05,2.71-0.03,4.06,0.07c0.67,0,1-0.08,1.21-0.73c0.64-2.1,1.33-4.19,2-6.27
	c-3.08-0.59-6-1.14-8.95-1.72c-0.47-0.04-0.92-0.16-1.34-0.37c-0.34-0.29-0.64-0.62-0.89-1c0.41-0.16,0.86-0.51,1.24-0.44
	c2,0.34,4,0.82,6,1.19c1.4,0.26,2.82,0.43,4.31,0.65c0.18-0.71,0.32-1.32,0.49-1.93c0.1-0.89,0.91-1.54,1.81-1.43
	c0.2,0.02,0.4,0.09,0.58,0.18c2.43,1.01,4.62,2.54,6.39,4.49c1,1.1,0.66,1.91-0.7,2.51c-0.97,0.46-1.9,1.01-2.77,1.64
	c-1.5,1-3,2.13-4.42,3.19C235.24,105.86,234.9,106.06,234.56,106.29z"/>
<path d="M251.43,95.63c5.36,0.45,10.16,0.88,15,1.23c0.4,0,0.86-0.33,1.25-0.58c1.12-0.8,2.28-1.52,3.48-2.18
	c0.64-0.21,1.34-0.09,1.88,0.3c1.04,0.98,1.93,2.11,2.65,3.34c0.63,1.13,0,1.82-1.34,1.71c-8.81-0.74-17.63-1.47-26.44-2.25
	c-0.44,0-0.84-0.59-1.26-0.91c0.39-0.29,0.83-0.5,1.29-0.63C249.26,95.58,250.62,95.63,251.43,95.63z"/>
<path d="M247.89,144.88c-0.11-0.06-0.5-0.14-0.56-0.33c-0.09-0.31-0.03-0.64,0.17-0.89c2.17-2.16,3.93-4.69,5.21-7.47
	c0.37-0.77,1.29-1.1,2.06-0.74c2.15,0.69,4.09,1.93,5.6,3.61c0.71,0.76,0.6,1.56-0.4,1.91c-3.82,1.34-7.68,2.58-11.52,3.85
	C248.27,144.86,248.08,144.88,247.89,144.88z"/>
<path d="M263.57,136c2.34,0.45,4.7,0.75,7,1.41c2.51,0.72,3,2.72,1.25,4.67c-0.83,0.91-1.77,1.7-2.81,2.36
	c-0.89,0.65-2.15,0.45-2.79-0.45c-0.11-0.15-0.19-0.31-0.26-0.48c-1-1.94-2.18-3.81-3.25-5.72c-0.21-0.37-0.48-0.93-0.34-1.22
	S263.09,136.22,263.57,136z"/>
<path d="M322,106.52l12.84,0.69c0.1-0.76,0.23-1.42,0.26-2.07c0.05-1.19,0.85-1.71,1.78-1.41c2.29,0.73,4.52,1.6,6.7,2.61
	c1.15,0.55,1.1,1.67,0,2.41c-0.63,0.41-1.01,1.12-1,1.88c-0.7,7.65-0.91,15.33-0.6,23c0.03,1.27-0.11,2.54-0.42,3.78
	c-0.53,3.31-3.26,5.83-6.6,6.09c-1.13,0.16-1.9-0.19-2.14-1.41c-0.24-2.19-1.92-3.95-4.1-4.27c-0.33-0.06-0.58-0.55-0.86-0.84
	c0.34-0.22,0.72-0.39,1.11-0.5c0.8-0.11,1.61,0,2.41-0.14c2-0.27,2.52-0.88,2.52-2.92c0-2.88-0.07-5.77,0-8.65
	c0.2-4.87,0.51-9.73,0.77-14.6c0-0.42,0-0.84,0-1.35l-8.9-0.39c-0.33,0.02-0.67,0-1-0.05c-3.2-0.92-5.69,0.29-7.95,2.48
	c-0.89,0.77-1.87,1.44-2.9,2c-0.3,0.18-0.77,0.06-1.16,0.08c-0.08-0.37-0.08-0.76,0-1.13c2.28-4.83,3.89-9.95,4.8-15.22
	c0.31-1.52,0.75-1.83,2.28-1.62c2.44,0.36,4.77,1.25,6.82,2.62c1.21,0.79,1.19,1.73,0.17,2.69c-0.8,0.78-1.53,1.63-2.2,2.52
	C323.78,104,323,105.14,322,106.52z"/>
<path d="M298.69,119.92h5.55c-0.16-0.55-0.28-1-0.43-1.41c-0.29-0.84,0.08-1.17,0.86-1c2.43,0.47,4.68,1.61,6.5,3.28
	c0.84,0.84,0.84,2.21,0,3.05c-0.08,0.08-0.16,0.15-0.25,0.22c-1.25,0.91-2.62,1.64-4.07,2.19c-0.84,0.34-1.45-0.2-1.58-1.15
	s-0.31-2-0.5-3.17c-1.13,0.69-2.08,1.28-3,1.86l-5.77,3.38c-1,0.59-1.84,0.46-2.33-0.6c-0.78-1.69-1.49-3.41-2.16-5.14
	c-0.41-1.07,0.25-1.47,1.18-1.82c1.03-0.3,1.98-0.8,2.8-1.49c1.28-1.35,2.49-2.77,3.61-4.26c0.37-0.46,0.68-1,1.24-1.76
	c-0.64,0.26-0.93,0.35-1.2,0.5l-6.59,3.53c-0.77,0.41-1.59,0.4-1.95-0.47c-0.76-1.82-1.44-3.68-2-5.57
	c-0.28-0.88,0.39-1.36,1.21-1.39c1.14,0,2.17-0.68,2.61-1.73c1.15-2.49,2.3-5,3.33-7.54c0.77-1.88,1.33-2.31,3.26-1.6
	c1.85,0.71,3.66,1.53,5.41,2.47c0.5,0.34,0.81,0.89,0.86,1.49c0,0.38-0.69,0.81-1.13,1.11c-2.14,1.44-4.3,2.86-6.45,4.28l-3.27,2.11
	c1.36,0.04,2.72,0.18,4.07,0.41c2.48,0.62,3.92-0.25,4.75-2.63c0.46-1.29,1.36-1.57,2.56-0.92c1.73,0.89,3.4,1.89,5,3
	c1.22,0.86,1,1.92-0.43,2.43c-0.41,0.1-0.79,0.27-1.14,0.51C306.04,115.1,302.5,117.73,298.69,119.92z"/>
<path d="M328.58,124.53c-0.05,1.75-2.73,5.38-4.38,5.91c-0.85,0.29-1.77-0.13-2.12-0.95c-1.53-2.62-3-5.25-4.56-7.88
	c-0.41-0.71,0-1.13,0.61-1.11c2.95,0.12,5.94,0.18,8.67,1.49C327.87,122.37,328.58,123.39,328.58,124.53z"/>
<path d="M295.62,134.46c-0.22,1.35-0.34,2.57-0.62,3.76c-0.33,1.45-1.42,2.15-2.75,1.51c-1.5-0.74-2.89-1.69-4.13-2.81
	c-1-0.94-0.67-2.34,0.36-3.34c1.51-1.45,2.88-3.05,4.34-4.56c0.29-0.3,0.76-0.67,1.08-0.62c0.4,0.16,0.7,0.51,0.81,0.93
	C295.07,131.06,295.33,132.81,295.62,134.46z"/>
<path d="M299.23,138.21c-1.23,0-1.71-0.58-1.68-1.81c0.07-2.14,0.07-4.29,0-6.44c0-1,0.41-1.53,1.34-1.14
	c2.35,0.92,4.3,2.63,5.53,4.83c0.52,0.95,0.19,2.15-0.75,2.69c-1.4,0.81-2.83,1.54-4.31,2.2L299.23,138.21z"/>
<path d="M307.14,136c-0.26-0.34-0.77-0.74-0.91-1.24c-0.54-1.9-0.91-3.85-1.44-5.75c-0.28-1,0.12-1.32,1-1.14
	c2.14,0.35,4.15,1.26,5.81,2.65c0.85,0.72,0.99,1.97,0.32,2.86C310.69,134.8,309,135.73,307.14,136z"/>
<path d="M184.5,98.74h2c-0.1-1.77-0.16-3.49-0.32-5.2c-0.1-1.08,0.45-1.62,1.35-1.56c1.56,0.08,3.11,0.32,4.62,0.69
	c1.27,0.32,1.48,1.29,0.67,2.34c-1,1.24-0.41,2.61-0.26,3.88c0,0.24,1.38,0.33,2.24,0.51c0.15-2.31,0.26-4.37,0.41-6.43
	c0.13-1.62,0.38-1.89,2-1.65c1.36,0.23,2.7,0.59,4,1.08c0.59,0.12,0.98,0.69,0.86,1.28c-0.04,0.22-0.15,0.42-0.31,0.57
	c-1.43,1.48-0.76,3.25-1.11,5h1.77c0-0.06,0.12-0.12,0.14-0.19c0.68-2.53,0.89-2.66,3.42-1.77c0.96,0.32,1.89,0.74,2.77,1.25
	c1.22,0.73,1.25,1.81,0.29,2.81c-0.34,0.35-0.56,0.8-0.64,1.28c-0.37,3.8-0.72,7.59-1,11.4c-0.13,1.55-0.4,2-1.95,2.07
	c-0.89,0.07-1.77,0.07-2.66,0c-1.87-0.11-1.88-0.14-2-1.88c-4.66,0-9.31,0-14,0c-0.2,0-0.4,0.08-0.54,0.23
	c-1.5,2.11-3.72,1.34-5.69,1.33c-0.29,0-0.77-1-0.83-1.6c-0.33-3.2-0.53-6.42-0.83-9.63c-0.17-1.81-0.39-3.63-0.72-5.42
	c-0.22-1.21,0.17-1.89,1.35-2.1c1.12-0.21,2.25-0.37,3.39-0.46C184.27,96.52,184.61,97.45,184.5,98.74z M187.5,105.8
	c0-1.55,0.05-3,0-4.34c-0.12-0.38-0.42-0.68-0.8-0.8c-0.59-0.07-1.19-0.07-1.78,0l0.6,5.18L187.5,105.8z M201.71,105.48
	c0.21-1.49,0.4-2.89,0.6-4.36h-2.74v4.36H201.71z M201.05,112.23l0.44-4.88h-2.08v4.88H201.05z M194.55,105.57V101h-1.95v4.53
	L194.55,105.57z M194.32,112.21v-5l-1.74,0.13v4.84L194.32,112.21z M187.58,112.42v-4.9l-1.88,0.2l0.43,4.79L187.58,112.42z"/>
<path d="M167.37,124.24l-5.12,0.28l0.22,4.91l0.38,0.08c0.25-0.45,0.48-0.91,0.75-1.35c0.72-1.11,1.45-1.18,2.31-0.21
	c0.31,0.35,0.59,0.73,0.82,1.13c0.63,1.1,0.33,1.69-0.9,1.83c-1,0.12-2.09,0.22-3.12,0.32v4.07l0.4-0.36
	c0.65-0.53,1.38-1.56,1.94-1.47c0.72,0.1,1.44,1,1.92,1.74c0.6,0.91,0.12,1.65-1,1.7s-2.1,0-3.37,0c0,1.61,0,3.09,0,4.56
	c0.13,0.74-0.37,1.44-1.11,1.57c-0.05,0.01-0.1,0.01-0.15,0.02c-1.25,0.2-2.51,0.39-3.76,0.53s-1.49-0.48-1.48-1.53
	c0.06-3.65,0.12-7.3,0.08-10.95c0-2.37-0.21-4.74-0.35-7.11c-0.1-1.6,0.39-2.31,1.94-2.56c0.88-0.15,1.76-0.25,2.65-0.28
	c1.32,0,1.46,0.1,1.72,1.44h5.12c0.48-2.3,0.9-2.62,3.07-2.08c1.23,0.3,2.42,0.74,3.55,1.31c1.09,0.54,1.09,1.3,0.41,2.3
	c-0.41,0.55-0.65,1.21-0.69,1.9c0.07,4.11,0.26,8.22,0.37,12.34c0.07,1.26,0.03,2.53-0.13,3.79c-0.43,2.62-2.27,4-4.66,4.67
	c-0.67,0.31-1.47,0.02-1.78-0.65c-0.07-0.14-0.11-0.29-0.12-0.45c-0.15-1.42-1.15-2.61-2.53-3c-0.23-0.07-0.37-0.47-0.55-0.71
	c0.25-0.16,0.49-0.45,0.76-0.48c3-0.34,2.95-0.32,2.79-3.4c-0.2-4.1-0.26-8.22-0.38-12.33
	C167.36,125.32,167.37,124.86,167.37,124.24z"/>
<path d="M160.9,101.48c2.4,0.09,4.76,0.22,7.13,0.22c0.3,0,0.77-0.64,0.87-1.06c0.34-1.4,0.64-1.78,2-1.34c1.41,0.5,2.75,1.18,4,2
	c0.94,0.6,0.84,1.38,0.11,2.27c-0.37,0.42-0.63,0.94-0.74,1.49c-0.4,3.19-0.73,6.39-1.1,9.72c0.33-0.12,0.5-0.14,0.53-0.21
	c0.78-1.85,1.24-2,2.81-0.81c0.77,0.61,1.49,1.28,2.16,2c0.49,0.35,0.6,1.03,0.25,1.52c-0.15,0.21-0.36,0.35-0.6,0.42
	c-1.58,0.81-3.19,1.56-4.81,2.29c-0.35,0.09-0.72,0.11-1.08,0.06c-0.05-0.35-0.05-0.71,0-1.06c0.2-0.76,0.5-1.51,0.81-2.43
	l-17.4,1.68c-0.11,1.3-0.14,2.61-0.35,3.89c-0.29,1.71-1.42,2.12-2.84,1.13c-0.28-0.19-0.55-0.4-0.8-0.63c-2-1.76-2-2.1-0.51-4.26
	c0.86-1.28,1.46-2.75,2.21-4.12c0.2-0.29,0.45-0.55,0.72-0.77c0.26,0.28,0.49,0.59,0.68,0.92c0.29,0.69,0.5,1.41,0.74,2.12
	l0.54-0.15c-0.13-2.13-0.22-4.26-0.4-6.39c-0.25-2.91-0.53-5.82-0.87-8.72c-0.13-1.13,0.23-1.8,1.34-2l1.11-0.26
	C160,98.39,160.43,98.66,160.9,101.48z M168.55,103.39H161l0.34,4.74h1.25c0.43-0.7,0.64-1.52,1.14-1.78
	c0.89-0.45,3.19,0.8,3.51,1.76c0.14,0.35,0.14,0.73,0,1.08c-1.31,2-0.66,4.19-0.68,6.26c1.07,0.34,1.16-0.19,1.2-0.87
	c0.13-2.45,0.28-4.9,0.45-7.35C168.3,106,168.43,104.8,168.55,103.39L168.55,103.39z M161.7,115.94l0.39,0.26
	c0.3-0.3,0.84-0.58,0.86-0.89c0.08-1.76,0-3.53,0-5.39l-1.29-0.11L161.7,115.94z"/>
<path d="M188.87,124.79c2.63-0.2,5.16-0.37,7.68-0.63c0.4-0.13,0.72-0.44,0.85-0.84c0.05-0.78,0.73-1.37,1.51-1.32
	c0.17,0.01,0.33,0.05,0.49,0.12c1.68,0.41,3.33,0.91,4.95,1.5c1.33,0.52,1.26,1.3,0.49,2.48c-0.53,0.97-0.85,2.05-0.93,3.16
	c-0.12,1.18-0.14,2.37-0.06,3.56c0.16,0.82-0.37,1.62-1.2,1.79c-0.14,0.03-0.28,0.04-0.42,0.02c-1.27,0.06-2.54,0-3.81,0
	c-1.04,0.07-1.93-0.72-2-1.75c0-0.02,0-0.04,0-0.06h-6.33c0.09,1.38-0.68,1.83-1.76,2l-4.14,0.58c-1.08,0.16-1.54-0.35-1.67-1.39
	c-0.39-3.06-0.82-6.11-1.25-9.17c-0.17-0.64,0.22-1.3,0.86-1.46c0.05-0.01,0.09-0.02,0.14-0.03c1.57-0.33,3.16-0.58,4.76-0.75
	C188.42,122.44,188.52,123.68,188.87,124.79z M189.8,130.97c2.16,0,4.13,0,6.11,0c0.24,0,0.66-0.22,0.68-0.37
	c0.17-1.57,0.28-3.14,0.41-4.73l-7.84,0.52L189.8,130.97z"/>
<path d="M193.3,144.66c2.91,0,4.95,0,7,0c0.44,0,0.86-0.44,1.28-0.68c0,0,0-0.08,0.07-0.11c0.82-1.07,1.55-2.45,3.09-2.35
	s2.54,1.46,3.31,2.72s0.19,1.92-1.13,2l-28.07,1.06c-0.67,0-1.37,0.08-1.4-0.82s0.66-0.81,1.27-0.84L193.3,144.66z"/>
<path d="M193.61,143.93c0-0.41,0-0.82,0.11-1.22c0.29-2.09,0.63-4.17,0.9-6.26c0.16-1.18,0.59-1.68,1.73-1.35
	c1.77,0.51,3.5,1.14,5.18,1.91c0.53,0.37,0.86,0.96,0.91,1.61c0,0.37-0.7,0.8-1.14,1.14c-0.73,0.55-1.48,1.1-2.27,1.58
	c-1.67,1-3.37,2-5.06,2.95L193.61,143.93z"/>
<path d="M191.32,119.89c-1.61,0-3.22,0-4.83,0c-0.45,0-0.87-0.5-1.31-0.77c0.4-0.28,0.8-0.79,1.21-0.79c2.67,0,5.33,0,8,0.15
	c0.71,0.14,1.43-0.17,1.81-0.78c0.49-1.04,1.61-1.63,2.74-1.45c1.28,0.53,2.22,1.65,2.52,3c0.12,0.93-0.49,1.44-1.65,1.35
	c-1.43-0.11-2.87-0.26-4.3-0.36s-2.79-0.17-4.19-0.25L191.32,119.89z"/>
<path d="M185.74,136.2c1.53,0.41,3.1,0.72,4.58,1.28c1.3,0.49,1.62,1.46,1.16,2.79c-0.59,1.67-2.05,2.89-3.81,3.16
	c-0.87,0.2-1.25-0.37-1.58-1.1c-0.67-1.52-1.39-3-2.18-4.5c-0.45-0.84-0.32-1.26,0.62-1.36c0.38-0.02,0.76-0.02,1.14,0L185.74,136.2
	z"/>
<path d="M128.4,96.48c0.09-0.9,0.18-1.73,0.26-2.56c-0.04-0.68,0.48-1.27,1.17-1.31c0.17-0.01,0.35,0.02,0.51,0.08
	c1.85,0.42,3.68,0.95,5.47,1.59c1.73,0.66,1.88,1.68,0.83,3.17c-0.4,0.58-0.66,1.24-0.74,1.94c-1.18,14.34-1.21,28.72-1,43.1
	c0,1.88-0.2,2.22-2.06,2.53c-1.28,0.21-2.6,0.26-3.91,0.36s-1.67-0.57-1.65-1.72c0-0.92,0-1.85,0-3.1L97,142
	c-0.25,0.33-0.34,0.39-0.35,0.46c-0.22,2.71-0.21,2.75-3,3.18c-1.13,0.13-2.27,0.19-3.41,0.18c-1,0-1.5-0.5-1.52-1.58
	c-0.13-7.54-0.19-15.1-0.51-22.64c-0.35-8.55-0.91-17.1-1.45-25.65c-0.08-1.2,0.25-1.91,1.4-2.11c1.63-0.28,3.26-0.53,4.9-0.69
	c1-0.08,1.65,0.39,1.57,1.5s0.39,1.37,1.42,1.38c10.25,0.15,20.51,0.33,30.76,0.52C127.34,96.6,127.84,96.52,128.4,96.48z
	 M96.76,140.39l30.24-1.52c0.38-13.54,0.76-27.04,1.14-40.5l-33.1-0.5C95.63,112,96.19,126.18,96.76,140.39z"/>
<path d="M114.54,104.79v2.94h4.29c0.7-2,1-2.14,2.93-1.53c1.05,0.32,2.08,0.74,3.06,1.24c1.08,0.55,1.07,1.19,0.24,2.09
	c-0.33,0.35-0.55,0.79-0.64,1.27c-0.22,1.9-0.37,3.8-0.53,5.7c-0.11,1.41-0.47,1.81-1.86,1.87c-0.89,0.04-1.78,0.02-2.66-0.05
	c-0.41,0-1-0.1-1.17-0.36c-0.91-1.72-2.38-0.51-3.63-1v4.24h3.57c0.02-0.09,0.02-0.18,0-0.27c-0.26-0.54-0.53-1.08-0.8-1.62
	c0.61-0.15,1.24-0.21,1.87-0.19c1.71,0.25,3.4,0.63,5.05,1.13c1.49,0.5,1.73,1.49,0.86,2.79c-0.54,0.81-1.19,1.54-1.93,2.16
	c-1,0.81-1.87,0.57-2.54-0.51c-1.15-1.86-1.15-1.83-3.3-1.39c-4.27,0.86-8.55,1.67-12.82,2.54c-0.53,0.14-1.03,0.36-1.49,0.65
	c-0.94,0.5-1.74,0.48-2.19-0.6c-0.45-1-0.82-2.04-1.13-3.09c-0.38-1.35,0-1.77,1.42-1.74c2,0,4,0.1,6,0.15h1v-3.82l-2.85,0.21
	c0.11,1.56-0.83,2-2.12,2.11c-0.29,0-0.58,0.1-0.88,0.13c-2.78,0.27-3,0.07-3.31-2.7s-0.8-5.7-1.33-8.53c-0.19-1,0.15-1.59,1-1.82
	c1.02-0.26,2.06-0.46,3.1-0.61c0.86-0.27,1.77,0.2,2.05,1.06c0.06,0.19,0.09,0.4,0.07,0.6h4v-3.39h-7.57c-0.61,0-1.28,0-1.25-0.85
	s0.61-0.78,1.2-0.78h7.57c0-1.15,0-2.11,0-3.08c0-0.81,0.4-1.35,1.24-1.23c1.8,0.25,3.6,0.51,5.36,0.92c1,0.23,1.12,1.06,0.58,1.89
	c-0.29,0.52-0.53,1.05-0.73,1.61c1.67,0.21,3,0.63,4.09-0.92c0.58-1.03,1.86-1.42,2.91-0.9c0.98,0.68,1.79,1.59,2.34,2.65
	c0.44,0.81-0.11,1.43-1.16,1.37c-2.24-0.13-4.49-0.23-6.73-0.34C115.35,104.78,115,104.79,114.54,104.79z M108.08,113.54
	c-0.5,0.1-1,0.14-1.51,0.12c-0.43-0.13-0.84-0.31-1.22-0.55c0.32-0.33,0.7-0.6,1.11-0.8c0.52-0.11,1.05-0.15,1.58-0.14v-2.69h-3.82
	l0.86,6.64l3-0.17V113.54z M118.62,109.42h-4.05v2c0.66-0.27,1.48-0.92,2-0.73s1,1.15,1.27,1.85s-0.14,0.94-0.81,0.92
	s-1.58,0-2.41,0v2.13c0.87,0.05,1.74,0.05,2.61,0c0.36-0.09,0.65-0.36,0.77-0.71C118.24,113.09,118.41,111.32,118.62,109.42z"/>
<path d="M119,130.28c0.09,0.9,0.15,1.6,0.24,2.3c0.55,4.1-1.21,5.78-5.68,6.33c-0.72,0.09-1.18-0.34-1.27-1.12
	c-0.15-1.32-0.51-2.49-2-3c-0.23-0.16-0.37-0.43-0.37-0.71c0-0.16,0.4-0.37,0.64-0.4c2.53-0.27,2.54-0.26,2.35-2.77
	c0-0.21,0-0.42-0.08-0.79c-0.43,0-0.88-0.07-1.32-0.06c-2.93,0.07-5.85,0.16-8.77,0.24c-0.33,0.06-0.67,0.06-1,0
	c-0.37-0.21-0.7-0.47-1-0.77c0.33-0.25,0.65-0.7,1-0.72c3-0.13,6.1-0.19,9.15-0.27c0.54,0,1.09,0,1.74,0c0-0.9,0-1.73,0-2.56
	s0.57-1.53,1.56-1.39c1.51,0.17,3.01,0.44,4.49,0.79c1.41,0.36,1.58,1.17,0.68,2.27c-0.2,0.33-0.35,0.69-0.45,1.06
	c0.63,0.45,1.5,0.31,1.96-0.31c0.04-0.06,0.08-0.12,0.11-0.19c0.51-0.76,1.23-1.79,2.2-1.32c1.02,0.55,1.87,1.35,2.49,2.33
	c0.5,0.76-0.09,1.37-1,1.33C122.89,130.49,121.08,130.39,119,130.28z"/>
<path d="M102.57,131.39c1.49,0.26,2.96,0.59,4.41,1c1.59,0.53,1.94,1.56,0.84,2.78c-0.94,0.94-2.04,1.73-3.23,2.32
	c-0.72,0.4-1.29-0.06-1.65-0.86c-0.57-1.26-1.31-2.44-1.94-3.68c-0.17-0.4-0.3-0.8-0.4-1.22c0.43-0.08,0.87-0.18,1.3-0.23
	c0.21-0.01,0.42,0.01,0.63,0.05L102.57,131.39z"/>
<path class="st3" d="M384,106.38l-2-0.58l-1.08,2.58c-0.93,1.73-2.95,2.56-4.83,2l-3.09-0.93c-1.83-0.56-3.04-2.29-2.94-4.2
	c0-0.1,0,0.08,0.53-2.87l-1.93-0.58c-1.98-0.6-4.07,0.53-4.67,2.51l-7.26,24.24c-0.59,1.98,0.53,4.06,2.51,4.66c0,0,0.01,0,0.01,0
	l15.27,4.58c1.98,0.59,4.07-0.54,4.67-2.52l7.26-24.23C387.04,109.08,385.95,107.01,384,106.38z M369.52,128.72l-6.87-2
	c-0.47-0.29-0.61-0.91-0.32-1.38c0.19-0.3,0.52-0.48,0.87-0.47l6.87,2.06c0.44,0.34,0.52,0.97,0.18,1.4
	c-0.19,0.24-0.47,0.38-0.78,0.39H369.52z M370.7,124.8l-6.88-2.06c-0.46-0.3-0.6-0.92-0.3-1.38c0.19-0.29,0.51-0.46,0.86-0.46
	l6.82,2.1c0.44,0.33,0.53,0.96,0.2,1.4c-0.18,0.24-0.45,0.39-0.75,0.4H370.7z M371.87,120.87l-6.87-2.06
	c-0.46-0.3-0.6-0.92-0.3-1.38c0.19-0.29,0.51-0.46,0.85-0.46l6.87,2.06c0.46,0.3,0.6,0.92,0.3,1.38c-0.2,0.3-0.54,0.48-0.9,0.46
	H371.87z M373.05,116.94l-6.87-2.06c-0.46-0.3-0.6-0.92-0.3-1.38c0.19-0.29,0.51-0.46,0.85-0.46l6.87,2.06
	c0.46,0.3,0.6,0.92,0.3,1.38c-0.2,0.3-0.54,0.48-0.9,0.46H373.05z M376.58,129.94c-0.34,0.43-0.97,0.51-1.4,0.17
	c-0.27-0.21-0.41-0.55-0.38-0.9c0.38-0.4,1.01-0.43,1.41-0.05c0.21,0.2,0.33,0.48,0.32,0.77L376.58,129.94z M377.7,126
	c-0.35,0.43-0.98,0.49-1.41,0.14c-0.26-0.21-0.4-0.54-0.36-0.87c0.05-0.55,0.54-0.95,1.09-0.9c0.55,0.05,0.95,0.54,0.9,1.09
	C377.9,125.66,377.82,125.85,377.7,126z M378.45,122.55c-0.46,0.31-1.08,0.19-1.39-0.27c-0.31-0.46-0.19-1.08,0.27-1.39
	c0.25-0.17,0.55-0.21,0.84-0.13c0.53,0.15,0.84,0.7,0.7,1.23C378.8,122.23,378.65,122.43,378.45,122.55L378.45,122.55z
	 M380.06,118.14c-0.34,0.43-0.97,0.51-1.4,0.17c-0.27-0.21-0.41-0.55-0.38-0.9c0.34-0.44,0.97-0.51,1.4-0.17
	c0.28,0.22,0.42,0.56,0.38,0.91V118.14z M372.46,102.93L372,105.4c-0.04,1.01,0.61,1.91,1.57,2.21l3.09,0.92
	c0.97,0.28,2.01-0.13,2.53-1l1-2.32L372.46,102.93z"/>
<g id="rDOrPX.tif">
	<path class="st3" d="M34.91,137.59c0.07-0.05,0.14-0.11,0.21-0.18c3.51-3.51,7.02-7.01,10.52-10.52l0.25-0.27l-9.15-3.07
		l26.42-11.13h0.07l-11.14,26.49L49,129.75c-0.08,0.07-0.16,0.14-0.24,0.22l-10.55,10.57c-0.06,0.06-0.11,0.13-0.16,0.2H38
		l-3.07-3.07L34.91,137.59z"/>
	<path class="st3" d="M34.91,137.67l3.09,3.07h-3.09V137.67z"/>
	<path class="st3" d="M66.11,108.08l4.3-4.3l1.43,1.44l-4.3,4.29L66.11,108.08z"/>
	<path class="st3" d="M58.69,108.13l-1.43,1.43l-4.34-4.34l1.45-1.41L58.69,108.13z"/>
	<path class="st3" d="M66.11,118.38l1.44-1.44l4.32,4.29l-1.48,1.43L66.11,118.38z"/>
	<path class="st3" d="M63.48,107.74h-2.15v-4.42h2.15L63.48,107.74z"/>
	<path class="st3" d="M67.9,114.32v-2.15h4.42v2.15H67.9z"/>
</g>
</svg>
