<svg id="圖層_1" data-name="圖層 1" xmlns="http://www.w3.org/2000/svg" viewBox="0 0 440 100"><defs><style>.cls-1{fill:#c18032;}</style></defs><path d="M339.56,47.41c-1.29,2-2.43,3.92-3.8,5.71-3.12,4.08-7.17,7.12-11.44,9.88-.73.47-1.44,1-2.21,1.36a4.79,4.79,0,0,1-1.23.24,3.69,3.69,0,0,1,.38-1.19c1-1.34,2.16-2.6,3.18-3.94A58.32,58.32,0,0,0,335,35.07c.45-2.31.81-4.64,1.18-7,.14-.87.65-1.34,1.46-1.13,2.52.67,5.06,1.34,7.52,2.2,1.32.46,1.48,1.7.36,2.56a5.36,5.36,0,0,0-1.81,3.14c-.87,3.09-1.85,6.15-2.87,9.2a1.34,1.34,0,0,0,.32,1.55c4.34,4.85,9.87,7.51,16.14,8.78,2.15.44,4.35.66,6.51,1.06a4.7,4.7,0,0,1,1.28.75c-.37.34-.69.87-1.11,1-2.69.67-3.88,2.6-4.5,5.07-.58,2.31-1.4,2.73-3.63,1.86-5.06-2-9.6-4.74-12.61-9.42A69.46,69.46,0,0,1,340,48.34C339.82,48,339.7,47.73,339.56,47.41Z"/><path d="M180,62.68c.66.23,1.32.26,1.66.6a22.69,22.69,0,0,1,3,3.41c.74,1.1.2,1.79-1.15,1.84l-36,1.4a5.37,5.37,0,0,1-1.17.11,5.5,5.5,0,0,1-1.21-.61c.32-.27.61-.71,1-.78a25.68,25.68,0,0,1,3.28-.34c8.35-.4,16.7-.8,25.05-1.14a1.73,1.73,0,0,0,1.73-1,10.66,10.66,0,0,1,2-2.56A6.73,6.73,0,0,1,180,62.68Z"/><path d="M156,36.67c4.9.33,10.1.68,15.31,1a1.94,1.94,0,0,0,1.17-.52,26.34,26.34,0,0,1,2.89-2.52,2.76,2.76,0,0,1,2.3,0,6.67,6.67,0,0,1,3.07,4.14c.31.94-.18,1.34-1.34,1.26-4.34-.34-8.68-.77-13-1-5.4-.3-10.82-.45-16.22-.67-.67,0-1.67.22-1.71-.76s1-.84,1.71-.85C152,36.65,153.84,36.67,156,36.67Z"/><path d="M153.05,54.4c-.55-.31-.64-.17-.66-.52-.07-1,.93-.86,1.58-.89q6.65-.35,13.28-.59c.74,0,1.3-.1,1.57-.89a3.74,3.74,0,0,1,.49-.8c.89-1.31,1.89-2.46,3.7-2.21,1.39.19,3.59,2.32,3.94,3.76.24,1-.07,1.38-1.09,1.41l-21.76.75C154.05,54.55,153.1,54.27,153.05,54.4Z"/><path d="M224.47,50c-.44-2.75-.9-5.37-1.26-8s-.58-5.07-.83-7.61c-.12-1.21.3-1.65,1.48-1.42a55.41,55.41,0,0,1,6.4,1.45c2,.64,2.14,1.7.57,3.07-.22.19-.5.49-.49.73a49.11,49.11,0,0,0,1.47,10.29c1.93-.35,3.78-.66,5.61-1.05.32-.07.63-.46.83-.78.43-.7.71-1.49,1.18-2.15.92-1.29,1.63-1.56,3-.79a14.92,14.92,0,0,1,3.18,2.54c.75.75.21,1.62-1,1.82-2.47.4-5,.79-7.43,1.21-1.61.27-3.22.6-4.92.91,1.71,5.44,4.69,9.67,9.7,12.31a2,2,0,0,0,2.8-.55c.8-1.11,1.55-2.26,2.37-3.36a3,3,0,0,1,.91-.55c.15.36.44.72.43,1.08a15,15,0,0,1-.32,2,6.41,6.41,0,0,0,1.05,5.24,3.09,3.09,0,0,1-1.45,4.76,7,7,0,0,1-4.73.16c-8.59-2.24-14-7.82-16.86-16.08-.21-.59-.39-1.19-.58-1.79s-.36-1.1-.56-1.74l-6.78,1.64c-.58.14-1.24.37-1.48-.42s.44-1.06,1.07-1.22C220,51.09,222.21,50.55,224.47,50Z"/><path d="M205.2,51.19c-1.76.85-3.37,1.65-5,2.39a3.53,3.53,0,0,1-1.18.07,3,3,0,0,1,.33-1.13,53,53,0,0,0,8.44-15c.35-.94,1-1.57,2-1.17a64.92,64.92,0,0,1,6,2.8c.95.5.94,1.29.24,2.06q-2.36,2.6-4.72,5.17L209.82,48c1,.21,2,.35,2.92.65,1.47.46,1.72,1.42.9,2.71a3.13,3.13,0,0,0-.48,1.7c.18,3.37.46,6.73.67,10.1.09,1.53-.16,1.88-1.66,2.19s-3,.46-4.52.72c-1.11.18-1.5-.4-1.56-1.38q-.36-5.86-.71-11.74C205.34,52.41,205.27,51.87,205.2,51.19Z"/><path d="M239.13,31.33c2.08.65,4.23,1.21,6.29,2a2.19,2.19,0,0,1,1.26,3.35,15.22,15.22,0,0,1-2.93,3.57c-1.15,1-2.4.38-2.95-1-.79-2.06-1.78-4.05-2.67-6.08-.17-.37-.46-.9-.32-1.13S238.55,31.6,239.13,31.33Z"/><path d="M301.44,49.26H296.8v4.85h3.8c-.31-.52-.58-.93-.81-1.35-.44-.81-.2-1.29.67-1.14A36.1,36.1,0,0,1,306,52.8c2.41.84,2.87,2.77,1.24,4.72a10.66,10.66,0,0,1-2.3,2c-1,.64-1.66.32-2.1-.76s-.81-2-1.21-2.92c-2.81.83-5.49,1.69-8.2,2.41s-5.2,1.19-7.78,1.83a7,7,0,0,0-1.78.86c-.85.51-1.62.36-1.93-.52a41.1,41.1,0,0,1-1.43-5.07c-.21-1,.43-1.4,1.79-1.36,2.24.08,4.47.14,6.71.2h.92V49.73l-3.69.4c.07,1.57-1,1.81-2.22,1.92-1,.09-2,.15-3.05.2s-1.34-.39-1.44-1.31c-.33-3.24-.71-6.48-1.08-9.72-.11-.93-.28-1.86-.42-2.79-.23-1.5.15-2.09,1.66-2.44a17.92,17.92,0,0,1,2.2-.31c2.24-.24,2.38-.15,3,2.06h4.9V32.65h-7.54c-.69,0-1.26-.19-1-1a1.36,1.36,0,0,1,1.05-.59c2.43,0,4.86,0,7.28,0,0-1.52,0-3,0-4.47s.31-2,1.71-1.83a36.51,36.51,0,0,1,5.28,1,1.22,1.22,0,0,1,.73,2,3.85,3.85,0,0,0-.49,3.61,2.28,2.28,0,0,0,2.9-1,2.41,2.41,0,0,1,2.91-1.23,5.57,5.57,0,0,1,2.62,3.45c0,.75-.45,1-1.15,1l-4.82-.35-2.48-.17v4.76c1.9-.1,3.72-.16,5.54-.33.22,0,.49-.64.55-1,.15-1,.73-1.54,1.7-1.24a44.66,44.66,0,0,1,5,1.85c.88.39.94,1.36.16,2a3,3,0,0,0-1,2.27c-.17,2.7-.42,5.4-.57,8.1-.06,1.1-.55,1.57-1.61,1.54s-2,0-3.06-.05C302,51,301.77,50.77,301.44,49.26Zm.92-9.92h-5.47v3.12c.69-.38,1.44-1.15,2.1-1.08s1.23,1,1.62,1.63.15,1.28-.82,1.27h-2.94v3.33h4.73C301.85,44.75,302.11,42,302.36,39.34Zm-17.23.08.92,9.13,3.91-.36V44.47a18,18,0,0,1-2.45.16c-.32,0-.61-.42-.91-.65.25-.24.46-.64.75-.7.83-.19,1.69-.24,2.55-.35V39.42Z"/><path d="M268.38,46.26c.86.25,1.74.45,2.57.76,1.31.5,1.59,1.44.68,2.46a2.54,2.54,0,0,0-.63,2c.16,4,.23,8,.35,12a1.54,1.54,0,0,1-1.44,1.79c-1.55.22-3.11.42-4.66.62-1.07.14-1.47-.35-1.49-1.41-.06-4.24-.18-8.48-.28-12.72,0-.51-.09-1-.14-1.58l-5.89,3-.36-.36a4.36,4.36,0,0,1,.48-1.15A56.89,56.89,0,0,0,266,36.16c.61-1.63,1.09-1.9,2.66-1.25a35.56,35.56,0,0,1,4.85,2.35c1.53.93,1.4,2-.07,3a8,8,0,0,0-1.63,1.6C270.66,43.28,269.55,44.75,268.38,46.26Z"/><path d="M301.56,65.4c0,2.08,0,4,0,5.83.08,4.39-2.82,6.17-6.55,6.39a1.46,1.46,0,0,1-1.06-1,4.24,4.24,0,0,0-2.85-3.94c-.18-.07-.24-.51-.36-.77a3.53,3.53,0,0,1,.78-.29c.35,0,.7.08,1.05.06,1.74-.1,2.18-.64,2-2.38-.08-1.06-.19-2.11-.19-3.17,0-.81-.29-1.09-1.11-1.07-4.36.1-8.71.16-13.06.24-.16,0-.36.09-.46,0-.36-.25-.69-.55-1-.83.32-.24.63-.7,1-.7,4.28-.11,8.55-.15,12.83-.2.51,0,1,0,1.71,0,0-1.1,0-2.14,0-3.18,0-1.4.49-2,1.84-1.78a34.88,34.88,0,0,1,5.27,1.06c1.5.43,1.61,1.41.53,2.52a3.19,3.19,0,0,0-.57,1.3c0,.09.44.47.53.42a3.77,3.77,0,0,0,1.15-.8c.74-.84,1.29-2,2.69-1.7a3.56,3.56,0,0,1,2.6,2.64c.39,1.18,0,1.61-1.21,1.56C305.22,65.6,303.35,65.49,301.56,65.4Z"/><path d="M289.4,70.23a5.48,5.48,0,0,1-2.92,4,1.5,1.5,0,0,1-1.87-.75c-1-1.43-2.07-2.81-3.19-4.15-.65-.78-.64-1.2.31-1.38a12.23,12.23,0,0,1,6,.12A2.19,2.19,0,0,1,289.4,70.23Z"/><path d="M101.6,62.87c-1.78,0-3.46,0-5.14,0-.36,0-.82.53-1,.92A1.79,1.79,0,0,1,93,65c-1.52-.48-3.06-.92-4.58-1.44-.84-.29-1-.93-.84-1.8q1-5.38,1.79-10.77c.17-1.12.65-1.79,1.79-1.76,1.6,0,3.21.09,4.8.28,1.27.15,1.56,1.15,1.48,2.39h3.74l-.36-6.17-6-.31c-1.65-.09-3.3-.13-4.94-.32-.42,0-.79-.53-1.19-.82.43-.21.86-.6,1.29-.6,7,.12,14,.3,21.06.45.58,0,1.17-.08,1.72-.11.55-2.08.69-2.25,2.78-1.85a34.68,34.68,0,0,1,5.2,1.39c1.38.48,1.61,1.64.58,2.67a3,3,0,0,0-.89,2.32c0,1.84-.07,3.69,0,5.53,0,1.13-.38,1.83-1.55,1.92-1.52.11-3.05.23-4.57.25s-1.66-.24-1.77-1.73c0-.19,0-.39-.06-.67h-3.39v7h6.67c0-.49,0-.79.06-1.09,0-.89.53-1.49,1.41-1.36,2.2.32,4.4.67,6.55,1.2a1.47,1.47,0,0,1,.68,2.47c-1.14,1.08-.92,2.32-.81,3.6a37,37,0,0,1,.39,5c-.17,2.84-2.82,5.28-6.57,5.34-.4,0-.91-.5-1.18-.9a9,9,0,0,1-.63-1.64,3.57,3.57,0,0,0-3.3-2.43c-.36,0-.69-.43-1-.66a4.45,4.45,0,0,1,1-.59,18.28,18.28,0,0,0,2.72-.64,2,2,0,0,0,1.15-1.42c0-1.75-.18-3.51-.3-5.39l-6.43.3c0,2.62,0,5.15,0,7.69,0,2.39.1,4.79.13,7.18,0,1.64-.15,1.91-1.79,2.19a37.42,37.42,0,0,1-4.1.39c-1.34.07-1.57-.18-1.61-1.53q-.21-7.37-.43-14.72C101.65,63.55,101.63,63.28,101.6,62.87Zm-.23-1.57V53.66l-4.09-.23L96.19,61.3Zm7.4-9.2h3.8V45.76H108.4Z"/><path d="M95,31.87a10.73,10.73,0,0,1,1.51.14,2.87,2.87,0,0,0,3-.87c2.06-2.08,3.2-2,5.19.16a5.78,5.78,0,0,1,1.07,1.53,1.62,1.62,0,0,1,0,1.31,1.59,1.59,0,0,1-1.24.33c-3.32-.3-6.63-.63-9.94-1a1.76,1.76,0,0,0-1.73.68,26.89,26.89,0,0,1-7.23,5.57,2.71,2.71,0,0,1-1.08.11,3.15,3.15,0,0,1,0-1.07,56.89,56.89,0,0,0,3.93-13.27c.19-1.21.74-1.65,1.87-1.26a69.14,69.14,0,0,1,6.52,2.6c1.32.62,1.21,1.92,0,2.78a28.13,28.13,0,0,0-2.21,1.88Z"/><path d="M115.83,31.28c1.13.11,2.25.25,3.38.34a1.26,1.26,0,0,0,.62-.22c.13-.07.21-.23.32-.35,2.83-3.1,4.54-2.41,6.69,1.09.68,1.11.17,1.83-1.12,1.71-3.28-.29-6.55-.61-9.83-1a2.42,2.42,0,0,0-2.1.85c-2,1.93-4.25,3.68-6.44,5.45-.28.23-.85.11-1.28.16a3.31,3.31,0,0,1,0-1.18,60.18,60.18,0,0,0,3.3-12.59c.22-1.3.68-1.76,1.89-1.37a47.83,47.83,0,0,1,6,2.37c1.33.65,1.22,1.75,0,2.68a17.34,17.34,0,0,0-1.66,1.66Z"/><path d="M86.38,76.88c-.1,0-.54-.2-.52-.28a2.12,2.12,0,0,1,.39-1c1.65-2,3.36-4,5-6.09a13.09,13.09,0,0,0,1.42-2.43,1.49,1.49,0,0,1,2.24-.8,49.85,49.85,0,0,1,5.22,3.54c1,.82.64,2-.61,2.43a22.15,22.15,0,0,0-3.07,1.35A28.86,28.86,0,0,1,86.38,76.88Z"/><path d="M95.58,35.1a49.64,49.64,0,0,1,5,.89c2.31.66,2.72,2.35,1,4a13.65,13.65,0,0,1-3,2.05c-1,.54-1.55.16-2-.84-.72-1.64-1.53-3.25-2.28-4.88-.11-.25-.21-.78-.13-.81A7.45,7.45,0,0,1,95.58,35.1Z"/><path d="M116.13,34.55a48.29,48.29,0,0,1,5.21,1.28c1.64.59,1.9,2.06.63,3.22a16,16,0,0,1-3.33,2.31c-.79.42-1.38,0-1.74-1a46.29,46.29,0,0,0-2-4.2l-.55-1.09c.43-.12.86-.25,1.29-.35a2.46,2.46,0,0,1,.47,0Z"/><g id="Vx2OiR.tif"><path class="cls-1" d="M19.13,41a13.49,13.49,0,0,1,1-2.47A5.48,5.48,0,0,1,25,35.94c3.66,0,7.32,0,11,0H62.72A5.8,5.8,0,0,1,63,47.52c-1.17,0-2.35,0-3.52,0a.52.52,0,0,0-.57.37,12.26,12.26,0,0,1-10.24,7.49l-.46.08V65.1H39.55V55.46c-.45-.06-.85-.11-1.26-.18a12.19,12.19,0,0,1-9.44-7.35.55.55,0,0,0-.6-.41c-1,0-2.09,0-3.14,0a5.77,5.77,0,0,1-5.9-4.86.65.65,0,0,0-.08-.17Zm8.72-2.11c-1.13,0-2.18-.05-3.22,0A2.87,2.87,0,0,0,22,41.47a2.8,2.8,0,0,0,2.23,3.06,30.79,30.79,0,0,0,3.59,0Zm32.05,0v5.77c1.08,0,2.17.06,3.26,0a2.85,2.85,0,0,0,2.56-2.85,2.89,2.89,0,0,0-2.64-2.89C62.06,38.8,61,38.84,59.9,38.84Z"/><path class="cls-1" d="M60.38,73h-33V70.11c.91,0,1.82,0,2.73,0,.36,0,.49-.1.57-.45.64-2.63,1.31-5.24,2-7.87.08-.32.22-.39.52-.39q10.73,0,21.46,0c.31,0,.43.09.51.4.64,2.64,1.32,5.27,2,7.91.08.33.22.41.52.4.92,0,1.83,0,2.78,0ZM49.8,65.8H38v2.83H49.8Z"/></g><path class="cls-1" d="M380.55,53.6a1.24,1.24,0,0,0-.69,2.11l4.22,4.15-1,5.83A1.24,1.24,0,0,0,384.9,67l5.25-2.73L395.41,67a1.24,1.24,0,0,0,1.79-1.31l-1-5.83,4.21-4.15a1.24,1.24,0,0,0-.68-2.11l-5.85-.88-2.65-5.3a1.24,1.24,0,0,0-2.21,0l-2.65,5.3-5.85.88Z"/><path class="cls-1" d="M403.11,53.68a3.93,3.93,0,0,1,.15.68,30.4,30.4,0,0,1,16.19-2.68,1.24,1.24,0,0,0,1.14-2c-1.84-2.29-3.54-3.54-5.28-5.43,1.56-2.22,3.73-3.64,5.31-5.63a1.1,1.1,0,0,0-1.06-1.76,38.4,38.4,0,0,0-22.82,13.78l3.39.51a3.7,3.7,0,0,1,3,2.53Z"/><path class="cls-1" d="M394.84,49.05A39.9,39.9,0,0,1,411.2,36.79V28.17A1.24,1.24,0,0,0,409.53,27c-9.3,3.49-14.51,9.44-18.85,17.29a3.71,3.71,0,0,1,2.8,2l1.36,2.73Z"/><path class="cls-1" d="M401.3,60.36a1.24,1.24,0,0,0,1.24,1.24h1.23v1.24a1.24,1.24,0,0,0,2.48,0V61.6h1.24a1.24,1.24,0,1,0,0-2.48h-1.24V57.88a1.24,1.24,0,0,0-2.48,0v1.24h-1.23A1.24,1.24,0,0,0,401.3,60.36Z"/><path class="cls-1" d="M379.84,44.26a1.24,1.24,0,0,0,0,2.48h1.23V48a1.24,1.24,0,1,0,2.48,0V46.74h1.24a1.24,1.24,0,1,0,0-2.48h-1.24V43a1.24,1.24,0,1,0-2.48,0v1.23Z"/></svg>