<svg id="圖層_1" data-name="圖層 1" xmlns="http://www.w3.org/2000/svg" viewBox="0 0 80 220"><path d="M39.58,94.4a149.09,149.09,0,0,0-19.32,1.94c-.2-1.79.9-3.53,2.34-3.71s3.18-.35,4.78-.49c3.29-.3,6.59-.57,9.89-.85.49,0,1-.05,1.54-.07a13.89,13.89,0,0,0-2.17-4.92,41.66,41.66,0,0,0,12.44-5.13,138.35,138.35,0,0,0-22.8,2A2.86,2.86,0,0,1,28.8,79.5,167.71,167.71,0,0,1,49.69,78c.6,0,1.2,0,1.79,0a2.38,2.38,0,0,1,2.27,1.6,2.11,2.11,0,0,1-.57,2.63A32.65,32.65,0,0,1,41.8,88.07l-.33.13c.28.84.52,1.66.83,2.46a.78.78,0,0,0,.61.31c3.86-.06,7.72-.17,11.59-.21,2.26,0,4.52,0,6.78,0,.44,0,.58.15.57.57,0,.88,0,1.76,0,2.77H43.09c.08.92.2,1.69.2,2.47,0,2.15.12,4.32-.06,6.46A5.09,5.09,0,0,1,38.16,108a30.64,30.64,0,0,1-3.32,0,1.56,1.56,0,0,1-1.46-1c-.34-.82-.56-1.69-.9-2.72.75.1,1.26.2,1.78.23,1.21.08,2.42.18,3.63.18s1.55-.45,1.79-1.5a19.87,19.87,0,0,0,.19-5.71C39.8,96.46,39.68,95.46,39.58,94.4Z"/><path d="M24.36,80.61,21,81a29.24,29.24,0,0,1,.41-5.81l-1.42.2a3.07,3.07,0,0,1,2.54-3.88c5.5-.77,11-1.37,16.56-1.59l.23-.05-1.22-2.74L41.29,66c.55,1.16,1.09,2.24,1.58,3.34a.6.6,0,0,0,.7.41c4.52-.07,9-.16,13.56-.18a4.53,4.53,0,0,1,4.67,3.22,10.85,10.85,0,0,1,0,4.71,2.34,2.34,0,0,1-1.54,1.8c-.74.27-1.52.41-2.25.6.17-1.78.38-3.4.48-5s-.47-2.12-2-2.12c-4.25,0-8.51,0-12.76.1a150.64,150.64,0,0,0-18,1.49c-.46.07-.67.21-.72.69C24.83,76.86,24.59,78.69,24.36,80.61Z"/><path d="M22.41,184.36a4.19,4.19,0,0,1,.8-2.79,2.7,2.7,0,0,1,1.32-.8A80,80,0,0,1,39,178.88c.28,0,.56,0,1-.08a34.82,34.82,0,0,0-5.54-4.29l2.14-2.28c1.69,1.26,3.35,2.46,5,3.73a1.52,1.52,0,0,1,.36,2.11l-.2.4c1.3,0,2.61,0,3.91,0,2.32.06,4.64.13,7,.27a2.41,2.41,0,0,1,2.22,1.92,2.34,2.34,0,0,1-.9,2.62c-1.71,1.48-3.47,2.91-5.17,4.39-1.9,1.67-3.77,3.38-5.65,5.06-.09.08-.18.16-.36.3-.36-.63-.75-1.21-1-1.83a1.56,1.56,0,0,1,.38-2c2.07-1.78,4.15-3.54,6.25-5.3.72-.6,1.5-1.14,2.24-1.73a1.83,1.83,0,0,0,.34-.47c-.19-.08-.38-.24-.57-.24a95,95,0,0,0-12.62.46c-3.95.47-7.89,1-11.83,1.63C24.73,183.76,23.62,184.09,22.41,184.36Z"/><path d="M59.12,181.83c-2.13-1.53-4.15-3-6.21-4.45-4.36-3-9-5.73-13.58-8.37a.66.66,0,0,0-.78,0,176.87,176.87,0,0,0-16.89,11.31c-.91.73-1.81,1.48-2.77,2.26a6,6,0,0,1-1-2.51,1.82,1.82,0,0,1,.8-1.76c3.33-2.31,6.61-4.69,10-6.9,3.16-2.06,6.46-3.91,9.68-5.89a1.92,1.92,0,0,1,2.06-.12c.78.39,1.61.68,2.5,1l-1,.66,3.23,1.74a134.16,134.16,0,0,1,13.59,8.48,2.1,2.1,0,0,1,1,2.48C59.57,180.49,59.34,181.14,59.12,181.83Z"/><path d="M30.23,192.13l3.38-.35c0,.28,0,.53,0,.78-.23,2.95-.44,5.9-.7,8.85-.14,1.46.85,2,1.94,2,1.77,0,3.54.14,5.3.1s3.37-.16,5-.36,2.06-.75,2.17-2.38c.06-.91.13-1.83.21-2.87a20.94,20.94,0,0,1,2.07.68,1.56,1.56,0,0,1,1,1.57,15.18,15.18,0,0,1-.27,2.44,4.31,4.31,0,0,1-3.74,3.53,38.17,38.17,0,0,1-5.33.52c-2.5.06-5,0-7.52-.1a3.92,3.92,0,0,1-4-4.15c-.06-2.19.08-4.39.18-6.59C29.92,194.62,30.1,193.39,30.23,192.13Z"/><path d="M57.54,206.33a61,61,0,0,0-6.43-12.47l2.72-1.55c.79,1.19,1.64,2.35,2.35,3.59,1.18,2,2.26,4.09,3.39,6.14a2.14,2.14,0,0,1-.35,2.71C58.73,205.28,58.17,205.75,57.54,206.33Z"/><path d="M23.57,193.44l2.76,1.74a78.13,78.13,0,0,0-6.19,11.93A25.82,25.82,0,0,1,18.36,205a2.09,2.09,0,0,1-.07-2.28c.83-1.57,1.61-3.18,2.49-4.73S22.61,195,23.57,193.44Z"/><path d="M36,190.88l2.67-1.48a43.69,43.69,0,0,1,4.82,7.25,1.69,1.69,0,0,1-.15,1.91c-.48.61-1,1.14-1.66,1.8A48.41,48.41,0,0,0,36,190.88Z"/><path d="M59.81,135.09c-3.64.43-7.2.82-10.74,1.29-1.81.25-3.59.68-5.39,1-.42.07-.56.27-.59.68A76.89,76.89,0,0,0,43,148.9c.05.82.13,1.64.19,2.46a2.18,2.18,0,0,0,2.22,2.31,49.89,49.89,0,0,0,10.65.09,2.15,2.15,0,0,0,2.18-2.09,21.12,21.12,0,0,0,0-6.2c0-.16,0-.32,0-.54a4.48,4.48,0,0,1,2.76.74,1.82,1.82,0,0,1,.59,1,13.17,13.17,0,0,1-.15,6.6,4.57,4.57,0,0,1-4,3.52A50.14,50.14,0,0,1,45,157c-3.52-.41-4.86-2-5.19-5.52a97.82,97.82,0,0,1,.25-18.9c0-.32.11-.49.45-.52l3-.33-.2,2.33,13-1.85a3.33,3.33,0,0,0,0-.53c-.22-3.36-.4-6.72-.69-10.08-.17-1.9-1.12-2.74-3-2.65a48.19,48.19,0,0,0-6,.6c-2.58.44-5.13,1.07-7.78,1.63a14,14,0,0,1,.13-2.1A2.18,2.18,0,0,1,41,117.47c1.74-.38,3.48-.83,5.25-1,2.29-.29,4.62-.4,6.93-.54a6.27,6.27,0,0,1,1.77.18c2.41.52,3.66,1.83,4,4.44a103.55,103.55,0,0,1,.9,14.51C59.83,135.07,59.8,135.13,59.81,135.09Z"/><path d="M35.53,132.08a34.45,34.45,0,0,1,2.94,7.18,1.51,1.51,0,0,1-.37,1.49,5.88,5.88,0,0,1-2.4,1.52c-.16-.66-.32-1.27-.43-1.89-.07-.38-.21-.49-.61-.46A58.29,58.29,0,0,0,25,141.74c-1.34.36-2.68.76-4,1.14a3.87,3.87,0,0,1,.34-4.09c1.48-1.68,2.92-3.39,4.43-5,1.25-1.36,2.58-2.65,3.87-4,.14-.15.27-.3.48-.55a57.6,57.6,0,0,0-9.21,2.06c-.47-1.6-.84-3.07.2-4.61A117.5,117.5,0,0,1,29.33,116a.64.64,0,0,1,.84-.23c.91.4,1.85.76,2.85,1.17a111.3,111.3,0,0,0-8.6,10.31c1-.18,1.81-.34,2.64-.48,1.92-.31,3.84-.63,5.77-.92a2,2,0,0,0,1.3-.6c.48-.52,1-1,1.57-1.5l2.74,1.78c-4.36,4.1-8.6,8.24-12.62,12.75l8.29-1.59-1.37-3.41Z"/><path d="M26.32,145.09A67.9,67.9,0,0,0,23,157.42a4.16,4.16,0,0,1-2.59-1.82,2,2,0,0,1-.25-1.27,65,65,0,0,1,3-9.93c0-.08.08-.14.16-.29Z"/><path d="M29,155.7c-.5-3.73-1-7.34-1.49-11l2.7-.71c.41,1.76.84,3.44,1.21,5.14.23,1.12.38,2.26.56,3.4A2.13,2.13,0,0,1,30.75,155,15.4,15.4,0,0,1,29,155.7Z"/><path d="M35.9,143c.7,2.29,1.43,4.5,2.06,6.75.56,2,.19,2.74-1.66,3.74-.32.18-.65.34-1,.55a44.85,44.85,0,0,0-2.37-10.12Z"/><path d="M51.73,47,44,51.54l0,.19,2.42.4,14.1,2.35A1.46,1.46,0,0,1,62,55.94a23.55,23.55,0,0,1,0,2.39c-1.17-.23-2.24-.48-3.32-.67-6.68-1.15-13.35-2.36-20-3.41-4.44-.69-8.92-1.15-13.38-1.73-.55-.07-.79.07-.95.63-.47,1.65-1,3.29-1.54,4.93-.05.15-.11.3-.22.59-.69-.47-1.36-.86-1.95-1.35a1.69,1.69,0,0,1-.46-1.91,133.86,133.86,0,0,1,4.75-13.2c.2-.52.41-1,.66-1.64l2.87,1.08-3,8,5.37.54.32-11.46a68.61,68.61,0,0,0-10.81,1.68c0-.41,0-.71.07-1,.17-1.68.53-2,2.17-2.42a77.67,77.67,0,0,1,11.06-1.34c2.55-.18,5.09-.3,7.64-.45h.45v2.92c-.58,0-1.14.08-1.71.1-1.67.07-3.33.14-5,.17-.51,0-.66.19-.67.69,0,1.21-.11,2.41-.18,3.66L40.64,42v2.92l-6.48.77v4.89l7.41.83c-.06-.29-.12-.5-.16-.72A1.58,1.58,0,0,1,42.1,49a38.57,38.57,0,0,1,6.62-3.53.7.7,0,0,1,.55,0C50.08,46,50.87,46.48,51.73,47Z"/><path d="M43.46,45.21c.3-5.91.59-11.81.89-17.77l-1.17.27a16.29,16.29,0,0,1,.21-1.93,1.83,1.83,0,0,1,1.39-1.44c1.43-.34,2.88-.64,4.31-1,.17,0,.44-.16.46-.28.22-1.14.4-2.29.62-3.62l-8.74,1.24a2.46,2.46,0,0,1,2-3.2c2.67-.35,5.34-.67,8-.86,3.17-.22,6.36-.28,9.54-.41h.76v2.92h-.67c-2.37.05-4.73.11-7.09.14-.44,0-.62.17-.69.58-.18,1-.38,2-.58,3,.49,0,.87,0,1.26,0,.78,0,1.56,0,2.33.12,2.36.24,3.62,1.48,3.76,3.86.3,4.88.53,9.76.78,14.65,0,.79,0,1.59,0,2.4-2.9.13-5.81.2-8.72.42S46.44,44.91,43.46,45.21Zm14.26-7.74c-1.56.08-3,.11-4.5.24-2,.19-4,.46-5.93.72-.17,0-.44.22-.45.34,0,1.06,0,2.13,0,3.16l10.9-.84Zm-.24-5.94a58.4,58.4,0,0,0-10,.78.47.47,0,0,0-.32.29c-.08,1-.13,2-.19,2.95l10.75-1Zm-9.87-5.16-.22,3.08,9.84-.86c0-.57-.09-1.14-.16-1.7a1.16,1.16,0,0,0-1.15-1.08,8,8,0,0,0-1.29-.07Z"/><path d="M40.33,32a91.16,91.16,0,0,0-18.12,1.76L23,21l-1.25.27a18.5,18.5,0,0,1,.71-2.53,1.77,1.77,0,0,1,1-.79,36.5,36.5,0,0,1,12.11-1.58,3.82,3.82,0,0,1,3.66,3.2,44.12,44.12,0,0,1,.7,5.25C40.13,27.18,40.2,29.55,40.33,32ZM37,29.22c-.07-1.13-.16-2.23-.2-3.34,0-.47-.2-.59-.64-.55-2.33.19-4.67.34-7,.56-1.12.11-2.22.33-3.34.51v3.84Zm-.4-6.69c-.13-.78-.22-1.57-.4-2.35a1.19,1.19,0,0,0-1.32-1,38.16,38.16,0,0,0-8.25.87c-.14,0-.36.18-.37.29-.12,1.06-.19,2.14-.27,3.13Z"/><path d="M61,52.33l-7.88-5.45c.63-.6,1.29-1.24,2-1.86a.48.48,0,0,1,.42,0c1.85,1.06,3.71,2.1,5.52,3.23a1.59,1.59,0,0,1,.78,2.26C61.62,51.14,61.29,51.76,61,52.33Z"/></svg>