<?xml version="1.0" encoding="utf-8"?>
<!-- Generator: Adobe Illustrator 24.1.0, SVG Export Plug-In . SVG Version: 6.00 Build 0)  -->
<svg version="1.1" id="圖層_1" xmlns="http://www.w3.org/2000/svg" xmlns:xlink="http://www.w3.org/1999/xlink" x="0px" y="0px"
	 viewBox="0 0 80 220" style="enable-background:new 0 0 80 220;" xml:space="preserve">
<path d="M56.3,195.8c0.8,0,1.5,0,2.1,0c1.1,0,1.9,0.4,1.9,1.5s-0.8,1.7-2,1.7h-3.6l2.9,4.8c0.3,0.5,0.6,0.9,0.8,1.4
	c0.6,0.7,0.5,1.7-0.2,2.2c-0.1,0.1-0.2,0.1-0.3,0.2c-0.7,0.4-1.7,0.2-2.1-0.5c0-0.1-0.1-0.1-0.1-0.2c-1.2-2-2.5-4-3.6-6.1
	c-0.5-1.3-1.9-2-3.2-1.8c-6.8,0.1-13.6,0-20.4,0c-0.6,1.6-1.3,3.1-2.1,4.6c-0.8,1.2-1.7,2.4-2.8,3.5c-0.7,0.8-1.7,1.2-2.6,0.3
	s-0.5-1.8,0.4-2.6c1.7-1.5,2.9-3.5,3.5-5.7h-3c-1.1,0-2.2-0.2-2.2-1.6s1-1.7,2.1-1.6c0.5,0,1,0,1.7,0v-1.6c0-7,0-14,0-21
	c0-4.6,2.3-6.9,7-6.9h19.1c4.5,0,6.8,2.3,6.8,6.9c0,7,0,13.9,0,20.9L56.3,195.8z M53,173.8c0.3-3.4-0.6-4.4-3.8-4.4
	c-6.3,0-12.6,0-18.9,0c-2.9,0-4.1,1.5-3.3,4.4H53z M53,177.1H26.8v4h26.2L53,177.1z M53,195.7v-4H26.8v4H53z M53,184.6H26.8v3.7
	h26.2L53,184.6z"/>
<path d="M23.6,93.6c0,2.4-0.1,4.6,0,6.8c0,1.4,1.2,2.4,2.9,2.4c2.2,0,4.3,0,6.5,0h24c0.4,0,0.8,0,1.2,0c0.8,0,1.5,0.6,1.6,1.4
	c0,0.1,0,0.1,0,0.2c0,1-0.6,1.5-1.6,1.6c-0.4,0-0.8,0-1.2,0H27.3c-4.7,0-7-2.3-7-7c0-5.3,0-10.6,0-15.8c0-4.3,2.4-6.8,6.8-6.8
	c6.4,0,12.7,0,19.1,0c0.8,0.1,1.5-0.4,1.8-1.1c0.6-1.3,1.3-2.5,2-4H25.1c-2.5,0-3-0.9-1.9-3.1c0.6-1.3,1.2-2.6,1.9-3.8
	c0.5-1,1.3-1.4,2.3-0.9c0.8,0.3,1.1,1.2,0.8,2c-0.1,0.2-0.2,0.3-0.3,0.4c-0.4,0.7-0.7,1.4-1.1,2.3c0.6,0,1.2,0.1,1.7,0.1h23.2
	c2.7,0,3.2,0.8,2,3.2c-0.8,1.6-1.7,3.2-2.5,4.8c5,0.7,6.7,2.8,6.7,7.8c0,1.1,0,2.2,0,3.2c0.1,3.4-2.6,6.2-5.9,6.2
	c-0.1,0-0.2,0-0.4,0c-8.7,0-17.5,0-26.2,0L23.6,93.6z M40.5,90.4c3.9,0,7.6,0,11.4,0c1.5,0,2.8-1.2,2.8-2.7c0,0,0-0.1,0-0.1
	c0-1.6,0-3.2,0-4.7c0.1-1.6-1-3-2.6-3.1c-0.2,0-0.4,0-0.6,0c-3.3,0-6.6,0-9.9,0c-0.4,0-0.7,0.1-1.1,0.1L40.5,90.4z M37.2,79.7
	c-3.7,0-7.3,0-10.8,0c-1.4,0-2.6,0.7-2.7,2.1c-0.2,2.8-0.1,5.7-0.1,8.5h13.5V79.7z"/>
<path d="M47.2,15.4c0.3-1.4-0.5-3.3,1.7-3.3s1.5,1.9,1.7,3.3h8.5c0.8-0.1,1.6,0.5,1.7,1.3c0,0.1,0,0.1,0,0.2
	c0.1,0.8-0.5,1.6-1.3,1.7c-0.1,0-0.2,0-0.3,0c-1.9,0-3.8,0-5.8,0h-2.8v6.3h7.5c0.5,0,1.1-0.2,1.5,0c0.6,0.3,1.4,0.8,1.5,1.4
	c0.3,1-0.5,1.5-1.4,1.6c-0.3,0-0.7,0.1-1.1,0.1v5.6c1.1,0.2,2.7,0,2.6,1.8c-0.1,1.5-1.3,1.6-2.7,1.5c0,2.9,0,5.8,0,8.6
	c0,1.3,0,2.7-0.1,4c-0.3,2.9-2.7,5.1-5.6,5.1c-0.9,0-1.9,0-2.8,0c-0.8,0.1-1.6-0.5-1.7-1.4c0,0,0-0.1,0-0.1
	c-0.1-1.1,0.6-1.6,1.7-1.7s1.9,0,2.8,0c1.4,0,2.5-1.1,2.5-2.4c0.1-4,0-8,0-12.1H38.6c-1.6,0-2.4-0.6-2.3-1.7
	c0.1-1.5,1.2-1.6,2.4-1.6c0.3,0,0.6,0,0.9,0h15.6v-5.7c-0.5,0-1-0.1-1.6-0.1H39.3c-0.4,0-0.9,0-1.3,0c-1-0.1-1.6-0.6-1.6-1.6
	c0-0.8,0.6-1.5,1.4-1.5c0.1,0,0.2,0,0.3,0c2.5,0,4.9,0,7.4,0h1.8v-6.3h-7.1c-0.5,0-1,0-1.5,0c-1-0.1-1.7-0.6-1.6-1.7
	c0-0.8,0.7-1.5,1.5-1.5c0.1,0,0.1,0,0.2,0c2.2,0,4.4,0,6.7,0L47.2,15.4z"/>
<path d="M30.1,38.4c1.1-0.5,2.1-0.9,3.1-1.3s1.9-0.3,2.3,0.7s-0.1,1.8-1.1,2.2c-0.1,0.1-0.3,0.1-0.4,0.2c-3.5,0.7-4.6,2.9-4.1,6.4
	c0.2,2.1,0.2,4.2,0,6.3c0,1.1-0.4,2-1.6,2s-1.6-0.9-1.6-2c0-3.1,0-6.2,0-9.5l-5.2,2.2c-1,0.5-2.1,0.6-2.6-0.6s0.3-1.9,1.4-2.3
	c1.8-0.8,3.7-1.6,5.5-2.5c0.5-0.3,0.8-0.7,0.9-1.3c0.1-4.7,0-9.5,0-14.4h-5c-2,0-2.5-0.6-2.1-2.5s0.8-3.8,1.1-5.6
	c0.2-1,0.7-1.7,1.8-1.5c0.9,0.2,1.4,1,1.3,1.8c0,0.1,0,0.1,0,0.2c-0.2,1.4-0.5,2.8-0.7,4.3h3.7c0-2.4-0.1-4.7,0.1-7.1
	c0.1-0.8,0.5-1.5,1.2-1.9c1-0.5,1.9,0.4,2,1.9c0,2.4,0,4.7,0,7.3c1,0,1.8,0,2.6,0c1.1,0,1.9,0.5,1.8,1.7s-0.8,1.5-1.8,1.5
	c-0.8,0-1.6,0-2.5,0L30.1,38.4z"/>
<path d="M52.7,117.8c2.1,0,4.2,0,6.3,0c1.2,0,2.2,0.3,2.1,1.6s-1,1.6-2.1,1.6h-6.4c-0.4,1.4,0.5,3.6-1.8,3.5s-1.3-2.1-1.7-3.4H30.8
	c-0.4,1.2,0.5,3.5-1.9,3.4c-2.1-0.1-1.2-2.1-1.6-3.5h-5.2c-0.5,0-1.1,0-1.6,0c-1-0.1-1.7-0.6-1.6-1.7c0-0.8,0.7-1.5,1.5-1.5
	c0.1,0,0.1,0,0.2,0c1.8,0,3.6,0,5.5,0h1.3c0.5-1.4-0.6-3.7,1.9-3.6c2.2,0.1,1.2,2.2,1.6,3.5h18.5c0.5-1.2-0.7-3.5,1.7-3.5
	S52.3,116.4,52.7,117.8z"/>
<path d="M38.7,141.1H28.5c-0.5,0-1.1,0-1.6,0c-1.1,0-1.9-0.5-1.8-1.7s0.8-1.5,1.8-1.5h11.7c0-1,0-2,0-3s0.4-1.9,1.6-1.9
	s1.6,0.8,1.6,1.9s0,1.9,0,2.9h7.6c1.1,0,2.3,0,3.4,0s2,0.4,2,1.6s-0.9,1.6-1.9,1.6c-3.1,0-6.2,0-9.3,0h-1.8c0,3.1,0.1,6.1,0,9.1
	c0,1.4-0.3,2.7-0.8,4c-1.4,2.6-4.5,3.9-7.3,3c-0.6-0.3-1-0.8-1.1-1.5c0.2-0.7,0.7-1.2,1.3-1.5c0.7-0.1,1.3-0.2,2-0.1
	c1.4,0,2.6-1,2.7-2.4C38.7,148.3,38.7,144.8,38.7,141.1z"/>
<path d="M40,126.2c3.7,0,7.4,0,11.1,0c2.9-0.2,5.6,1.5,6.6,4.3c0.7,1.5,1.4,3.1,2.1,4.6c0.5,1,0.5,2-0.7,2.5s-1.8-0.2-2.3-1.2
	c-0.6-1.5-1.3-3-2-4.5c-0.6-1.6-2.1-2.6-3.8-2.6c-7.3,0.1-14.7,0-22,0c-1.6-0.1-3.1,0.9-3.7,2.4c-0.7,1.6-1.4,3.1-2.1,4.7
	c-0.4,1-1.2,1.5-2.2,1.1s-1.2-1.4-0.7-2.4c0.8-1.8,1.6-3.7,2.5-5.5c1.1-2.2,3.4-3.6,5.9-3.5L40,126.2z"/>
<path d="M19.5,154.2c0.3-0.5,0.7-1,1.2-1.4c3.4-2.2,6.3-5.1,8.6-8.4c0.7-0.9,1.5-1.5,2.6-0.7s0.6,1.7,0,2.6c-2.5,3.6-5.7,6.7-9.4,9
	c-0.6,0.3-1.3,0.4-2,0.2C20,155.5,19.8,154.8,19.5,154.2z"/>
<path d="M58.2,156c-0.5-0.3-1-0.6-1.5-1c-2.7-2.8-5.4-5.7-8.1-8.6c-0.7-0.8-1-1.6-0.2-2.4s1.7-0.6,2.4,0.2c2.7,2.9,5.5,5.7,8.1,8.6
	c0.4,0.6,0.6,1.3,0.5,1.9C59.4,155.2,58.7,155.6,58.2,156z"/>
</svg>
