<svg id="圖層_1" data-name="圖層 1" xmlns="http://www.w3.org/2000/svg" viewBox="0 0 230 60"><path d="M86.21,37.38a149.27,149.27,0,0,0-19.32,1.94c-.19-1.79.9-3.53,2.34-3.7s3.18-.36,4.78-.5q4.93-.43,9.89-.84c.49,0,1-.05,1.54-.08a13.59,13.59,0,0,0-2.17-4.91,42.11,42.11,0,0,0,12.45-5.14,138.38,138.38,0,0,0-22.81,2.06,2.87,2.87,0,0,1,2.52-3.73A168,168,0,0,1,96.33,21c.59,0,1.19,0,1.78,0a2.36,2.36,0,0,1,2.27,1.6,2.09,2.09,0,0,1-.57,2.63A36.7,36.7,0,0,1,95.69,28a34,34,0,0,1-7.26,3,2.61,2.61,0,0,0-.32.14c.27.83.51,1.66.82,2.45a.78.78,0,0,0,.61.31c3.86-.06,7.73-.16,11.59-.21,2.26,0,4.52,0,6.78,0,.44,0,.58.16.58.57,0,.88,0,1.76,0,2.78H89.72c.08.91.2,1.69.2,2.46,0,2.16.12,4.32,0,6.46A5.11,5.11,0,0,1,84.79,51a30.68,30.68,0,0,1-3.32,0A1.55,1.55,0,0,1,80,50c-.33-.82-.56-1.68-.89-2.71.74.1,1.25.19,1.77.23,1.21.08,2.42.17,3.63.17s1.55-.44,1.79-1.5a19.87,19.87,0,0,0,.19-5.71C86.43,39.45,86.31,38.45,86.21,37.38Z"/><path d="M71,23.59,67.66,24a28.63,28.63,0,0,1,.42-5.81l-1.43.2a3.06,3.06,0,0,1,2.54-3.87c5.5-.77,11-1.37,16.56-1.6l.23-.05-1.21-2.74L87.92,9c.55,1.16,1.09,2.24,1.58,3.35.15.35.34.41.7.41,4.52-.08,9-.17,13.57-.18a4.52,4.52,0,0,1,4.66,3.22,10.65,10.65,0,0,1,0,4.7,2.34,2.34,0,0,1-1.54,1.8c-.74.27-1.52.42-2.25.61.18-1.78.38-3.41.48-5s-.47-2.12-2-2.12c-4.25,0-8.51,0-12.76.11a148.43,148.43,0,0,0-18,1.49c-.47.06-.68.21-.73.69C71.46,19.84,71.22,21.67,71,23.59Z"/><path d="M184.41,28.22a4.17,4.17,0,0,1,.8-2.79,2.72,2.72,0,0,1,1.32-.81A80.87,80.87,0,0,1,201,22.74l1-.08a34.89,34.89,0,0,0-5.54-4.3l2.14-2.27c1.69,1.26,3.35,2.46,4.95,3.73a1.52,1.52,0,0,1,.36,2.11l-.2.4c1.3,0,2.61,0,3.91,0,2.32.06,4.64.13,7,.27a2.41,2.41,0,0,1,2.22,1.92,2.34,2.34,0,0,1-.9,2.62c-1.71,1.48-3.47,2.91-5.17,4.39-1.9,1.67-3.77,3.37-5.65,5.06l-.36.3c-.36-.63-.75-1.21-1-1.83a1.56,1.56,0,0,1,.38-2q3.1-2.67,6.25-5.3c.72-.6,1.5-1.14,2.24-1.73a1.83,1.83,0,0,0,.34-.47c-.19-.08-.38-.24-.57-.24a95,95,0,0,0-12.62.46c-3.95.46-7.89,1.05-11.83,1.63C186.73,27.61,185.62,27.94,184.41,28.22Z"/><path d="M221.12,25.69c-2.13-1.53-4.15-3-6.21-4.45-4.36-3-9-5.73-13.58-8.37a.66.66,0,0,0-.78,0A176.87,176.87,0,0,0,183.66,24.2c-.91.73-1.81,1.48-2.77,2.26a6,6,0,0,1-1-2.52,1.83,1.83,0,0,1,.8-1.76c3.33-2.3,6.61-4.69,10-6.89,3.16-2.06,6.46-3.92,9.68-5.89a1.92,1.92,0,0,1,2.06-.12c.78.39,1.61.68,2.5,1L204,11l3.23,1.74A134.16,134.16,0,0,1,220.8,21.2a2.1,2.1,0,0,1,1,2.48C221.57,24.35,221.34,25,221.12,25.69Z"/><path d="M192.23,36l3.38-.34c0,.28,0,.53-.05.78-.23,2.95-.44,5.9-.7,8.84-.14,1.47.85,2,1.94,2.05,1.77,0,3.54.14,5.3.1s3.37-.16,5-.36,2.06-.76,2.17-2.38c.06-.91.13-1.83.21-2.87a20.94,20.94,0,0,1,2.07.68,1.56,1.56,0,0,1,1,1.57,15.31,15.31,0,0,1-.27,2.44A4.31,4.31,0,0,1,208.58,50a38.17,38.17,0,0,1-5.33.52c-2.5.06-5,0-7.52-.1a3.92,3.92,0,0,1-4-4.15c-.06-2.19.08-4.39.18-6.59C191.92,38.48,192.1,37.25,192.23,36Z"/><path d="M219.54,50.19a61,61,0,0,0-6.43-12.47l2.72-1.56c.79,1.2,1.64,2.36,2.35,3.6,1.18,2,2.26,4.09,3.39,6.14a2.14,2.14,0,0,1-.35,2.71C220.73,49.14,220.17,49.61,219.54,50.19Z"/><path d="M185.57,37.3,188.33,39A78.13,78.13,0,0,0,182.14,51a25.82,25.82,0,0,1-1.78-2.08,2.09,2.09,0,0,1-.07-2.28c.83-1.58,1.61-3.18,2.49-4.73S184.61,38.87,185.57,37.3Z"/><path d="M198,34.74l2.67-1.48a43.69,43.69,0,0,1,4.82,7.25,1.69,1.69,0,0,1-.15,1.91c-.48.61-1.05,1.14-1.66,1.79A48.63,48.63,0,0,0,198,34.74Z"/><path d="M163.07,28.51c-3.64.44-7.19.82-10.73,1.3-1.81.24-3.6.67-5.4,1-.42.07-.55.27-.58.68a76.89,76.89,0,0,0-.12,10.84c.06.82.13,1.64.19,2.46a2.2,2.2,0,0,0,2.23,2.31,49.88,49.88,0,0,0,10.65.09,2.15,2.15,0,0,0,2.18-2.09,21.47,21.47,0,0,0,0-6.2c0-.16,0-.32,0-.54a4.44,4.44,0,0,1,2.75.75,1.82,1.82,0,0,1,.6,1,13.37,13.37,0,0,1-.15,6.59,4.57,4.57,0,0,1-4,3.52,50.22,50.22,0,0,1-12.37.26c-3.51-.41-4.86-2-5.19-5.52a97.83,97.83,0,0,1,.25-18.9c0-.31.11-.49.45-.52,1-.09,2-.21,3.05-.33l-.2,2.33,13-1.85a3.57,3.57,0,0,0,0-.52c-.22-3.37-.4-6.73-.69-10.09-.17-1.9-1.12-2.74-3-2.65a48.38,48.38,0,0,0-6,.6c-2.58.44-5.13,1.07-7.77,1.64a14,14,0,0,1,.12-2.11,2.18,2.18,0,0,1,1.91-1.62c1.75-.38,3.48-.83,5.25-1.05,2.3-.29,4.62-.4,6.93-.54a6.58,6.58,0,0,1,1.77.18c2.41.52,3.66,1.83,4,4.44a103.6,103.6,0,0,1,.9,14.52S163.06,28.55,163.07,28.51Z"/><path d="M138.8,25.5a35.19,35.19,0,0,1,2.93,7.18,1.51,1.51,0,0,1-.36,1.49A6,6,0,0,1,139,35.7c-.15-.67-.31-1.28-.43-1.9-.06-.38-.21-.49-.61-.45a56.94,56.94,0,0,0-9.61,1.81c-1.35.37-2.69.76-4,1.14a3.85,3.85,0,0,1,.33-4.08c1.48-1.69,2.92-3.4,4.44-5,1.25-1.37,2.58-2.66,3.87-4l.48-.54a56.28,56.28,0,0,0-9.21,2.05c-.48-1.6-.84-3.07.2-4.61A117.09,117.09,0,0,1,132.6,9.46a.62.62,0,0,1,.83-.22c.92.39,1.85.76,2.85,1.16a109.64,109.64,0,0,0-8.59,10.31c1-.18,1.8-.34,2.63-.47,1.92-.32,3.85-.64,5.78-.93a2,2,0,0,0,1.29-.6c.49-.52,1-1,1.57-1.5L141.71,19c-4.36,4.1-8.61,8.25-12.62,12.75l8.29-1.59L136,26.74Z"/><path d="M129.59,38.51a68.76,68.76,0,0,0-3.32,12.33A4.11,4.11,0,0,1,123.69,49a1.85,1.85,0,0,1-.25-1.27,63.86,63.86,0,0,1,3-9.93,2,2,0,0,1,.15-.29Z"/><path d="M132.29,49.12c-.51-3.72-1-7.33-1.5-11l2.7-.72c.42,1.76.85,3.44,1.21,5.14.24,1.12.39,2.26.57,3.4A2.15,2.15,0,0,1,134,48.45C133.44,48.74,132.8,48.92,132.29,49.12Z"/><path d="M139.17,36.42c.7,2.29,1.42,4.51,2.05,6.75.56,2,.19,2.75-1.65,3.75l-1.06.54a43.59,43.59,0,0,0-2.37-10.11Z"/><path d="M41.73,39.59,34,44.09l0,.19,2.42.39L50.56,47A1.46,1.46,0,0,1,52,48.49a23.55,23.55,0,0,1,0,2.39c-1.17-.23-2.24-.48-3.32-.67-6.68-1.15-13.35-2.36-20-3.41-4.44-.7-8.92-1.15-13.38-1.73-.55-.07-.79.07-.95.62-.47,1.66-1,3.3-1.54,4.94,0,.15-.11.3-.22.59-.69-.47-1.36-.86-1.95-1.35A1.69,1.69,0,0,1,10.13,48a135,135,0,0,1,4.75-13.21c.2-.51.41-1,.66-1.63l2.87,1.08-3,8,5.37.54.32-11.46a68.61,68.61,0,0,0-10.81,1.68c0-.41,0-.71.07-1,.17-1.68.53-2.05,2.17-2.42a76.25,76.25,0,0,1,11.06-1.34c2.55-.18,5.09-.31,7.64-.46h.45v2.92c-.58,0-1.14.08-1.71.1-1.67.06-3.33.14-5,.17-.51,0-.66.19-.67.69,0,1.2-.11,2.41-.18,3.66l6.49-.68v2.92l-6.48.77v4.89l7.41.82c-.06-.28-.12-.5-.16-.71a1.57,1.57,0,0,1,.69-1.71A38.57,38.57,0,0,1,38.72,38a.66.66,0,0,1,.55,0C40.08,38.51,40.87,39,41.73,39.59Z"/><path d="M33.46,37.76c.3-5.91.59-11.81.89-17.78l-1.17.28a16.7,16.7,0,0,1,.21-1.94,1.84,1.84,0,0,1,1.39-1.43c1.43-.34,2.88-.64,4.31-1,.17,0,.44-.16.46-.28.22-1.14.4-2.29.62-3.62l-8.74,1.24a2.46,2.46,0,0,1,2-3.2c2.67-.35,5.34-.68,8-.86C44.67,9,47.86,8.91,51,8.78h.76V11.7h-.67c-2.37.05-4.73.11-7.09.14a.59.59,0,0,0-.69.58c-.18,1-.38,2-.58,3,.49,0,.87,0,1.26,0,.78,0,1.56,0,2.33.12a3.71,3.71,0,0,1,3.76,3.86c.3,4.88.53,9.76.78,14.65,0,.79,0,1.59,0,2.4-2.9.13-5.81.2-8.72.42S36.44,37.46,33.46,37.76ZM47.72,30c-1.56.09-3,.11-4.5.25-2,.19-4,.46-5.93.72-.17,0-.44.22-.45.34,0,1.06,0,2.13,0,3.16l10.9-.84Zm-.24-5.93a57.41,57.41,0,0,0-10,.78.45.45,0,0,0-.32.29c-.08,1-.13,2-.19,3l10.75-1Zm-9.87-5.16L37.39,22l9.84-.86c0-.57-.09-1.14-.16-1.71a1.16,1.16,0,0,0-1.15-1.07,8,8,0,0,0-1.29-.07C42.3,18.48,40,18.7,37.61,18.92Z"/><path d="M30.33,24.57a91.16,91.16,0,0,0-18.12,1.76L13,13.56l-1.25.26a18.75,18.75,0,0,1,.71-2.52,1.77,1.77,0,0,1,1-.79A36.5,36.5,0,0,1,25.58,8.93a3.8,3.8,0,0,1,3.66,3.2,44.12,44.12,0,0,1,.7,5.25C30.13,19.73,30.2,22.1,30.33,24.57ZM27,21.77c-.07-1.13-.16-2.23-.2-3.34,0-.47-.2-.59-.64-.55-2.33.19-4.67.34-7,.56-1.12.1-2.22.33-3.34.51v3.84Zm-.4-6.69c-.13-.78-.22-1.58-.4-2.35a1.18,1.18,0,0,0-1.32-1,38.16,38.16,0,0,0-8.25.87c-.14,0-.36.17-.37.29C16.14,13.92,16.07,15,16,16Z"/><path d="M51,44.88l-7.88-5.45c.63-.6,1.29-1.24,2-1.86a.48.48,0,0,1,.42,0c1.85,1.06,3.71,2.1,5.52,3.23,1,.6,1.14,1.15.78,2.26C51.62,43.69,51.29,44.31,51,44.88Z"/></svg>