<svg id="圖層_1" data-name="圖層 1" xmlns="http://www.w3.org/2000/svg" viewBox="0 0 80 220"><defs><style>.cls-1{fill:#fff;}</style></defs><path class="cls-1" d="M27.42,154.92H21.34c-.52-12.79-1-25.56-1.55-38.39l1.74-.14c.08.73.15,1.45.22,2.18a33.7,33.7,0,0,0,2.13,9,2.86,2.86,0,0,0,1.31,1.64,2.4,2.4,0,0,0,3.46-1.44,18.72,18.72,0,0,0,.68-6.74,2.31,2.31,0,0,0-3.24-1.89,25.12,25.12,0,0,0-2.5,1.32v-4.24l10.22-.7c-.1,1-.19,2-.29,3-.34,3.15-.67,6.29-1,9.44a1.09,1.09,0,0,1-.4.69c-.88.66-1.8,1.28-2.78,2L31.68,132c.66.38,1.31.77,2,1.12a.57.57,0,0,1,.32.66q-.65,6.19-1.27,12.39c0,.31-.08.61-.12,1l-4.72.32A2.22,2.22,0,0,0,25.62,150a9.24,9.24,0,0,0,1.45,4.43ZM24.16,138.3c.06,1,.08,1.81.18,2.66a4.4,4.4,0,0,0,1.18,2.83,2.15,2.15,0,0,0,3.49-.55,3.6,3.6,0,0,0,.36-.91,23.43,23.43,0,0,0,.54-6.52,2.79,2.79,0,0,0-2.77-2.74,2.84,2.84,0,0,0-2.8,2.72C24.25,136.66,24.21,137.53,24.16,138.3Z"/><path class="cls-1" d="M60.21,119.05c-.76,12-1.52,24-2.29,36.06l-10.53-4a2.06,2.06,0,0,1,0-.38l.37-1.12c.85.16,1.66.35,2.48.46,2.08.3,3.43-.55,3.84-2.62.56-2.77,1.06-5.56,1.41-8.37a78.43,78.43,0,0,0,.52-12.73,3.06,3.06,0,0,0-2.75-3.16,29.19,29.19,0,0,0-10.25.35,13.8,13.8,0,0,0-8.31,6c-.07.09-.13.19-.23.34a6,6,0,0,1-.94-.66c-.11-.1-.09-.42,0-.59,1.14-2.52,2.29-5,3.47-7.56,1.09-2.31,2.24-4.6,3.36-6.9l.29-.54,5.21,1.23L43,119.25a1,1,0,0,0-.19.59c0,.39.37.38.67.35l5.64-.38,9.47-.65Z"/><path class="cls-1" d="M54.09,134.42c-.12,1.48-.24,2.92-.36,4.42a11.15,11.15,0,0,0-5.33-.45,2.24,2.24,0,0,0-2.11,2,21.81,21.81,0,0,0-.06,3.43,1.52,1.52,0,0,0,1.46,1.59A2,2,0,0,0,49.62,144a4,4,0,0,0-.21-2.51c-.11-.28-.23-.56-.38-.91l3.81-.22c-.17,2.62-.34,5.21-.51,7.87L36.81,149.3c-.19-2.66-.38-5.28-.56-7.94h3.42c-.06,1-.18,2-.17,3s.52,1.68,1.39,1.75a1.63,1.63,0,0,0,1.85-1.53,20.49,20.49,0,0,0,.13-4c-.11-1.36-.87-1.9-2.24-1.94a13.42,13.42,0,0,0-5.25.86,3.46,3.46,0,0,1-.34.11v-4.33a8.35,8.35,0,0,0,1.55.31c1.59,0,3.18,0,4.77,0a1.64,1.64,0,0,0,1.53-1.44A1.8,1.8,0,0,0,42.3,132a2,2,0,0,0-1.19-.27,7,7,0,0,0-3.94,2.2c-.14.14-.25.3-.43.5l-1-1.21c.46-.77,1-1.66,1.52-2.51,1.29-2,2.61-4,3.9-5.94a.57.57,0,0,1,.76-.28c1.28.38,2.57.71,3.94,1.08-.52.48-1,.9-1.42,1.34a5.16,5.16,0,0,0-.66.82c-.28.43-.13.74.39.8a24.13,24.13,0,0,0,6.84-.33l2.09-.4-.27,4.11a12.78,12.78,0,0,0-4.91-.27,1.94,1.94,0,0,0-1.76,2,1.71,1.71,0,0,0,1.8,1.67,19,19,0,0,0,5.75-.75Z"/><path class="cls-1" d="M60.64,53.73l-1.12,1c-.46-.43-.91-.85-1.37-1.26A127.94,127.94,0,0,0,46.91,44c-.69-.5-.94-.4-1,.43-.48,3.85-.94,7.71-1.42,11.56,0,.21-.07.42-.11.65L34.35,53a5.38,5.38,0,0,1,.13-1c0-.14.33-.28.5-.28,1.48,0,3,.12,4.42.12s2-.43,2.24-1.84c.21-1,.39-1.94.56-2.91s-.14-1.13-1-.85A146.1,146.1,0,0,0,27.49,51.8C25.19,52.85,22.93,54,20.65,55l-.32.13L19.6,53.8l3.65-2.07L41.56,41.44a1.89,1.89,0,0,0,.28-3,1.1,1.1,0,0,0-.94,0c-3,1.32-6.09,2.63-9.09,4-3.87,1.81-7.68,3.7-11.59,5.59l-.72-1.22,2.13-1.31L37.55,35.33A2.22,2.22,0,0,0,38,35a.77.77,0,0,0-.36-1.35,2.74,2.74,0,0,0-1.3.09A80.12,80.12,0,0,0,25.87,38l-5.81,2.81-.7-1.32,14-8.7c-.72-.63-5.93-.11-9.24.88V27c.56.05,1.07.15,1.58.15,3.21,0,6.41,0,9.61-.06,4.15-.09,8.3-.27,12.46-.38A39.59,39.59,0,0,0,55,25.87c.15,0,.31,0,.54-.05l-.33,4.79c-3-.95-6-.61-8.91-.51a23.26,23.26,0,0,0-3.23.33,5,5,0,0,0-1.7.72.84.84,0,0,0,.08,1.53c1.43.83,2.86,1.65,4.3,2.44a.82.82,0,0,1,.5.86,15.9,15.9,0,0,0,.11,3c.27,1.67,1.72,2.61,3.07,2A4.06,4.06,0,0,0,51,39.44a18.28,18.28,0,0,0,2-5c.06-.22.13-.44.21-.76l4.3,3.27c-.8.71-1.62,1.34-2.33,2.07a27.66,27.66,0,0,0-2.24,2.6A2.49,2.49,0,0,0,53,44.78a90.69,90.69,0,0,0,7.51,8.75S60.56,53.62,60.64,53.73Z"/><path class="cls-1" d="M37.17,15.72h5.44c-.08.34-.18.64-.24,1-.39,1.78.27,2.6,2.09,2.56L54.59,19l5.07-.12a3.29,3.29,0,0,1,.49,0l-1.34,9.36H57.3c-.15-.62-.28-1.24-.46-1.85-.71-2.45-2.06-3.65-4.58-3.71-3.86-.1-7.73-.12-11.59,0-4.09.13-8.18.4-12.26.72A6.86,6.86,0,0,0,23,26.12a23.41,23.41,0,0,0-1.47,3.09l-1.27-.1V20l4.14-.13c3.64-.12,7.29-.22,10.94-.35a3.35,3.35,0,0,0,1.13-.23,1.53,1.53,0,0,0,1.06-1.63C37.43,17.05,37.28,16.41,37.17,15.72Z"/><path class="cls-1" d="M51.57,170c-.34.91-.67,1.73-1,2.57-.25.67-.16.79.56.74l5.52-.42,1.31-.09c-.24,1.35-.52,2.61-.68,3.9-.32,2.59-.58,5.2-.87,7.8,0,.1,0,.2,0,.3a1.31,1.31,0,0,0,1,1.42,1.38,1.38,0,0,0,1.54-.88,21.66,21.66,0,0,0,.65-2.1l1.33.09c-.26,1.83-.52,3.63-.78,5.49l-7.4.51c.16-1.87.34-3.66.47-5.46q.24-3.16.39-6.33a1.45,1.45,0,0,0-1.46-1.68c-1.29-.14-2.73.11-3.2,2-.18.71-.43,1.4-.61,2.12a1.49,1.49,0,0,0,.76,2c.91.55,1.89,1,2.84,1.47.2.1.42.18.69.29-.73,1.1-1.44,2.15-2.13,3.18-.83-.68-1.62-1.36-2.45-2s-1.17-.37-1.5.49c-.54,1.43-1.1,2.86-1.59,4.31-.18.53-.38.75-.93.51a3.31,3.31,0,0,0-.69-.17c.16-.67.32-1.32.46-2,.25-1.22.5-2.43.71-3.66s.08-1.48-1-2c-.85-.45-1.75-.8-2.68-1.22l2.11-3.2c.61.54,1.16,1.07,1.75,1.56s.93.51,1.18-.39a14.43,14.43,0,0,0,.36-1.58c.14-.81-.28-1.25-1.11-1.23a5.39,5.39,0,0,0-3.23,1.32v-3.76c1-.07,1.91-.16,2.85-.21,1.43-.07,1.74-.31,2.08-1.69.1-.41.16-.83.25-1.29H44.75c.12-.34.24-.64.32-.94.3-1.13-.15-1.87-1.31-1.93-1.61-.09-3.22-.09-4.83-.07-1.24,0-2.48.14-3.72.22s-1.48.56-1.16,1.65c.1.35.22.69.37,1.13H33c-.37,0-.76-.08-.78.5a.81.81,0,0,0,.81.92c.86,0,1.71,0,2.56-.08,1-.09,2-.25,3.15-.39l-.2,2.51H35.61l-2.56,0a1.44,1.44,0,0,0-.4.09,1,1,0,0,0-.69,1.08c0,.54.48.67.94.65,1.26,0,2.52-.05,3.78-.13,1.43-.09,2.86-.23,4.37-.36l-.18,2.78c-.53-.06-1-.15-1.48-.17-1.18-.05-2.37-.1-3.55-.1a1.28,1.28,0,0,0-1.21,1.65,1.06,1.06,0,0,0,.71.62,19.65,19.65,0,0,0,2.76-.24c.21,0,.41-.27.56-.47.46-.6.45-.61,1.35-.47-.08,1-.17,2-.27,3.12-1.24,0-2.46,0-3.68,0s-2.25,0-3.37.1c-.34,0-.78-.16-.79.46s.28,1,.84,1c.91,0,1.83,0,2.74-.1,1.13-.11,2.26-.31,3.46-.49l-.26,2.66c-1,0-2,0-3,0s-2.06,0-3.08.16a1.41,1.41,0,0,0-.89.59c-.1.16.07.59.24.8a.94.94,0,0,0,.69.21c2.4-.08,4.81-.19,7.21-.3.58,0,1.16-.09,1.82-.14l.18,1.47-22.1,2.74-.57-3.25c1.29,0,2.51.05,3.73,0,1.55-.08,3.09-.22,4.64-.37a.87.87,0,0,0,.88-.89c0-.46-.38-.74-1-.77a23,23,0,0,0-5.9.68v-2.36l-.13-.06-1.12,1.3-1.22-1,2.16-3.24c.5-.74,1-1.47,1.52-2.21a3,3,0,0,0,.23-.61,2.84,2.84,0,0,0-.7-.06c-1,.22-1.95.47-2.94.7v-2.8c.31,0,.6,0,.88,0,2.42-.09,4.85-.16,7.27-.28a1.31,1.31,0,0,0,.88-.44,1,1,0,0,0,0-.91.89.89,0,0,0-.75-.38c-1.93.17-3.85.4-5.78.62l-.43.06v-2.69c.36,0,.72,0,1.08,0,1.54,0,3.07.05,4.6,0,1.06-.05,1.39-.69,1-1.7l-.26-.63c.49,0,.93,0,1.37.08a.53.53,0,0,0,.68-.5,3.38,3.38,0,0,0,.08-.34c.19-.9-.16-1.39-1.07-1.33-1.47.08-2.95.19-4.41.39-1.74.23-3.47.57-5.22.87v-4.07h1.56c2.62,0,5.24,0,7.86,0,1.16,0,1.5-.62,1.11-1.71-.08-.24-.18-.47-.29-.73h4.91c-.13.4-.27.78-.36,1.18a.92.92,0,0,0,.9,1.25,53,53,0,0,0,9.08-.14,1,1,0,0,0,.89-1.25,3.65,3.65,0,0,0-.22-.66c-.08-.2-.18-.38-.31-.63h5.12c-.13.32-.28.61-.38.92-.24.78.09,1.27.92,1.26,1.35,0,2.72,0,4.07-.17,2-.2,4-.49,6-.75l-.3,4.56c-.9-.18-1.76-.38-2.63-.51a30.53,30.53,0,0,0-7.15-.1c-.48,0-.87.26-.92.73a4.32,4.32,0,0,0,.15,1.33c0,.08.3.13.47.13C50.37,170,50.93,170,51.57,170ZM31.15,180.89a20.73,20.73,0,0,0,0-2.11.75.75,0,0,0-.54-.46,3.68,3.68,0,0,0-2.6.61q-1.8,1.33-3.52,2.76c-.83.68-1.61,1.43-2.41,2.15a18.44,18.44,0,0,0,5.7-.07.69.69,0,0,0,.57-.87c-.11-.64-.26-1.28-.41-2Z"/><path class="cls-1" d="M23.93,204.21l-.86-2.51c1.92-.74,3.9-1.31,5.27-3a45.71,45.71,0,0,0-8.93,1.16v-3.53c13.5-.14,27-.64,40.46-1.58l-.31,3.73a18.61,18.61,0,0,0-6.2-.43,13.79,13.79,0,0,0,4,3.67l-3.5,2.55a10.8,10.8,0,0,0-.77-1.11,2.53,2.53,0,0,0-1.95-.78c-3.1,0-6.21,0-9.31,0a95.81,95.81,0,0,0-12.2.84c-1.67.23-3.32.56-5,.85ZM36,200.75c3.91-.21,7.2-.38,10.5-.57.83-.05,1.66-.11,2.49-.23a1,1,0,0,0,.67-.44c.08-.14-.1-.51-.27-.66a2.68,2.68,0,0,0-1-.62,9.13,9.13,0,0,0-2-.24,66.93,66.93,0,0,0-10.69.48A5.88,5.88,0,0,0,32.23,200a2,2,0,0,0-.3.58,2,2,0,0,0,.58.17C33.88,200.76,35.26,200.75,36,200.75Z"/><path class="cls-1" d="M23.79,194.63v-3.06c1,0,2,0,3,0l18.69-.43a52.72,52.72,0,0,0,9.78-1l.33,0-.3,3.27A279.12,279.12,0,0,0,23.79,194.63Z"/><path class="cls-1" d="M46.24,77.83,45.88,82l-3-.29a66.71,66.71,0,0,0-12.56-.06,1.79,1.79,0,0,0-1.72,2.42,1.7,1.7,0,0,0,1.62,1.06c5,0,10,.34,15-.57l1.1-.2-.41,4.29-2.36-.27a66.39,66.39,0,0,0-12.45-.05,3.6,3.6,0,0,0-1.43.43,1.65,1.65,0,0,0,0,3,3.46,3.46,0,0,0,1.48.45A78.57,78.57,0,0,0,46.56,92a3.87,3.87,0,0,0,3.26-3.06,46.37,46.37,0,0,0,1-9.83q0-3.52-.19-7c-.12-2.4-1.51-3.79-4-3.94C44.37,68,42.17,68,40,68a37.87,37.87,0,0,0-8.48,1c-.6.15-1.19.33-1.84.52V65.41l25-1c0,1.69,0,3.34,0,5-.16,5.42-.35,10.83-.54,16.25L54,90a1.36,1.36,0,0,0,1.45,1.57,9.53,9.53,0,0,0,5-.89c-.11,1.82-.22,3.53-.33,5.31l-1.62-.23a62.35,62.35,0,0,0-10.58-.39c-5.77.15-11.53.25-17.3.4a55.48,55.48,0,0,0-10.76,1,1.2,1.2,0,0,1-.27,0V92.06c.59.12,1.17.27,1.75.35a16.35,16.35,0,0,0,2.2.2c1.12,0,1.53-.46,1.51-1.57q-.26-12.12-.49-24.23c0-.33,0-.66,0-1.08l1.84-.08c.09.75.13,1.45.26,2.13A4.18,4.18,0,0,0,31,71.59c2.87.09,5.74,0,8.61-.07,2-.08,4.1-.39,6.14-.6.13,0,.27,0,.49,0l-.36,4.3L43.22,75a70.37,70.37,0,0,0-12.57,0,5.34,5.34,0,0,0-.8.13,1.64,1.64,0,0,0,.28,3.25c1.45.08,2.91.11,4.36.13A76.08,76.08,0,0,0,44.84,78Z"/><path class="cls-1" d="M59.33,102.13a7.14,7.14,0,0,0-4.28,4,19.12,19.12,0,0,0-5.44-4.22c-2.07-1-4.21-1.84-6.26-2.72a7.75,7.75,0,0,0,4.77-3.5C51.26,98.83,55.15,100.61,59.33,102.13Z"/><path class="cls-1" d="M36.51,99l-15,6.85-.87-1.12c1.54-1.26,3-2.53,4.57-3.73,2-1.53,3.95-3,5.95-4.48a.71.71,0,0,1,.59-.15C33.39,97.23,35,98.13,36.51,99Z"/></svg>