<svg id="圖層_1" data-name="圖層 1" xmlns="http://www.w3.org/2000/svg" viewBox="0 0 230 60"><path d="M127.92,50.57h-6.08c-.52-12.79-1-25.56-1.55-38.39L122,12c.08.73.15,1.45.22,2.18a33.79,33.79,0,0,0,2.13,9,2.86,2.86,0,0,0,1.31,1.64,2.4,2.4,0,0,0,3.46-1.44,18.72,18.72,0,0,0,.68-6.74,2.31,2.31,0,0,0-3.24-1.89,25.12,25.12,0,0,0-2.5,1.32V11.89l10.22-.7c-.1,1.05-.19,2-.29,3-.34,3.15-.67,6.29-1,9.44a1.09,1.09,0,0,1-.4.69c-.88.66-1.8,1.28-2.78,2l2.37,1.38c.66.38,1.31.77,2,1.12a.57.57,0,0,1,.32.66q-.64,6.19-1.27,12.39c0,.31-.08.61-.12,1-1.59.11-3.16.22-4.72.31a2.23,2.23,0,0,0-2.25,2.48A9.17,9.17,0,0,0,127.57,50ZM124.66,34c.06.95.08,1.81.18,2.65A4.4,4.4,0,0,0,126,39.44a2.15,2.15,0,0,0,3.49-.55,3.6,3.6,0,0,0,.36-.91,23.46,23.46,0,0,0,.54-6.52,2.78,2.78,0,0,0-2.77-2.74,2.84,2.84,0,0,0-2.8,2.72C124.75,32.31,124.71,33.18,124.66,34Z"/><path d="M160.71,14.7c-.76,12-1.52,24-2.29,36.06l-10.53-4a2.06,2.06,0,0,1,.05-.38l.37-1.12c.85.16,1.66.35,2.48.46,2.08.3,3.43-.55,3.84-2.62.56-2.77,1.06-5.56,1.41-8.37A78.43,78.43,0,0,0,156.56,22a3.08,3.08,0,0,0-2.75-3.17,29.43,29.43,0,0,0-10.25.36,13.8,13.8,0,0,0-8.31,6c-.07.09-.13.19-.23.34a6,6,0,0,1-.94-.66c-.11-.1-.09-.42,0-.59,1.14-2.52,2.29-5,3.47-7.56,1.09-2.31,2.24-4.6,3.36-6.9l.29-.54,5.21,1.22-2.94,4.44a1,1,0,0,0-.19.59c0,.39.37.37.67.35l5.64-.38,9.47-.65Z"/><path d="M154.59,30.07c-.12,1.48-.24,2.92-.36,4.42A11.15,11.15,0,0,0,148.9,34a2.24,2.24,0,0,0-2.11,2,21.7,21.7,0,0,0-.06,3.42,1.52,1.52,0,0,0,1.46,1.6,2,2,0,0,0,1.93-1.46,4,4,0,0,0-.21-2.51c-.11-.28-.23-.56-.38-.91l3.81-.22c-.17,2.62-.34,5.21-.51,7.87L137.31,45c-.19-2.66-.38-5.28-.56-7.94h3.42c-.06,1-.18,2-.17,3s.52,1.68,1.39,1.75a1.63,1.63,0,0,0,1.85-1.53,20.49,20.49,0,0,0,.13-4c-.11-1.36-.87-1.9-2.24-1.94a13.42,13.42,0,0,0-5.25.86,3.46,3.46,0,0,1-.34.11V30.92a8.35,8.35,0,0,0,1.55.31c1.59,0,3.18,0,4.77,0a1.64,1.64,0,0,0,1.53-1.44,1.8,1.8,0,0,0-.59-2.14,1.88,1.88,0,0,0-1.19-.27,7,7,0,0,0-3.94,2.2c-.14.14-.25.3-.43.5l-1-1.21c.46-.77,1-1.66,1.52-2.51,1.29-2,2.61-4,3.9-5.94a.57.57,0,0,1,.76-.28c1.28.38,2.57.71,3.94,1.08-.52.48-1,.9-1.42,1.34a5.16,5.16,0,0,0-.66.82c-.28.43-.13.74.39.8a24.13,24.13,0,0,0,6.84-.33l2.09-.4-.27,4.11a12.78,12.78,0,0,0-4.91-.27,1.93,1.93,0,0,0-1.76,2,1.71,1.71,0,0,0,1.8,1.67,19,19,0,0,0,5.75-.75Z"/><path d="M51.14,47.52l-1.12,1-1.37-1.25a127.94,127.94,0,0,0-11.24-9.42c-.69-.5-.94-.4-1,.43-.48,3.85-.94,7.7-1.42,11.56,0,.21-.07.41-.11.65l-10-3.66a5.48,5.48,0,0,1,.13-1c0-.13.33-.27.5-.27,1.48,0,2.95.12,4.42.12s2-.43,2.24-1.84c.21-1,.39-1.94.56-2.91s-.14-1.14-1-.85A143.46,143.46,0,0,0,18,45.6c-2.3,1-4.56,2.16-6.84,3.23l-.32.14L10.1,47.6l3.65-2.07,18.31-10.3a1.88,1.88,0,0,0,.28-3,1.1,1.1,0,0,0-.94,0c-3,1.32-6.09,2.63-9.09,4-3.87,1.81-7.68,3.71-11.59,5.6L10,40.66c.72-.45,1.43-.87,2.13-1.32L28.05,29.13a2.73,2.73,0,0,0,.42-.32.77.77,0,0,0-.36-1.35,2.74,2.74,0,0,0-1.3.09A80.12,80.12,0,0,0,16.37,31.8l-5.81,2.81-.7-1.32,14-8.7c-.72-.63-5.93-.11-9.24.88v-4.7c.56.05,1.07.15,1.58.15,3.21,0,6.41,0,9.61-.06,4.15-.1,8.3-.27,12.46-.39a38.73,38.73,0,0,0,7.28-.8c.15,0,.31,0,.54-.06l-.33,4.8c-3-.95-6-.61-8.91-.51a21.83,21.83,0,0,0-3.23.33,5,5,0,0,0-1.7.72A.84.84,0,0,0,32,26.48c1.43.83,2.86,1.65,4.3,2.44a.81.81,0,0,1,.5.85,16,16,0,0,0,.11,3c.27,1.67,1.72,2.61,3.07,2a4.06,4.06,0,0,0,1.54-1.51,18.4,18.4,0,0,0,2-5c.06-.22.13-.44.21-.76L48,30.74c-.8.71-1.62,1.34-2.33,2.07a27.66,27.66,0,0,0-2.24,2.6,2.49,2.49,0,0,0,.09,3.17A91.92,91.92,0,0,0,51,47.33S51.06,47.42,51.14,47.52Z"/><path d="M27.67,9.52h5.44c-.08.33-.18.64-.24,1-.39,1.78.27,2.6,2.09,2.56,3.38-.07,6.76-.16,10.13-.24l5.07-.12c.13,0,.26,0,.49,0l-1.34,9.36H47.8c-.15-.62-.28-1.24-.46-1.85-.71-2.45-2.06-3.65-4.58-3.71-3.86-.1-7.73-.13-11.59,0-4.09.13-8.18.4-12.26.72a6.83,6.83,0,0,0-5.46,2.7A22.82,22.82,0,0,0,12,23l-1.27-.1V13.84l4.14-.13c3.64-.12,7.29-.22,10.94-.35a3.35,3.35,0,0,0,1.13-.23A1.53,1.53,0,0,0,28,11.5C27.93,10.85,27.78,10.21,27.67,9.52Z"/><path d="M211.07,16.55c-.34.91-.67,1.74-1,2.57-.25.68-.16.8.56.75l5.52-.43,1.31-.08c-.24,1.34-.52,2.61-.68,3.89-.32,2.6-.58,5.21-.87,7.81a2.71,2.71,0,0,0,0,.29,1.3,1.3,0,0,0,1,1.42,1.38,1.38,0,0,0,1.54-.87c.27-.66.43-1.36.65-2.1l1.33.09c-.26,1.83-.52,3.62-.78,5.49l-7.4.51c.16-1.88.34-3.67.47-5.46.16-2.11.29-4.23.39-6.34a1.45,1.45,0,0,0-1.46-1.68c-1.29-.14-2.73.11-3.2,2-.18.71-.43,1.41-.61,2.12a1.49,1.49,0,0,0,.76,2c.91.55,1.89,1,2.84,1.47.2.11.42.18.69.3L210,33.43c-.83-.67-1.62-1.36-2.45-2s-1.17-.37-1.5.5c-.54,1.43-1.1,2.86-1.59,4.31-.18.53-.38.75-.93.5a5.35,5.35,0,0,0-.69-.17c.16-.67.32-1.31.46-2,.25-1.21.5-2.43.71-3.65s.08-1.49-1-2.06c-.85-.44-1.75-.8-2.68-1.21l2.11-3.2c.61.54,1.16,1.07,1.75,1.55s.93.51,1.18-.38a14.09,14.09,0,0,0,.36-1.59c.14-.8-.28-1.24-1.11-1.22a5.44,5.44,0,0,0-3.23,1.31V20.41c1-.07,1.91-.16,2.85-.2,1.43-.08,1.74-.31,2.08-1.7.1-.41.16-.82.25-1.28h-2.28c.12-.34.24-.64.32-.95.3-1.13-.15-1.87-1.31-1.93-1.61-.08-3.22-.09-4.83-.06-1.24,0-2.48.13-3.72.22s-1.48.55-1.16,1.64c.1.35.22.7.37,1.14h-1.41c-.37,0-.76-.08-.78.49a.82.82,0,0,0,.81.93c.86,0,1.71,0,2.56-.09,1-.09,2-.25,3.15-.39l-.2,2.52c-1,0-2,0-2.94,0s-1.71,0-2.56,0a1.14,1.14,0,0,0-.4.08,1,1,0,0,0-.69,1.08c0,.54.48.67.94.66,1.26,0,2.52-.06,3.78-.14,1.43-.09,2.86-.23,4.37-.35l-.18,2.77c-.53-.06-1-.14-1.48-.16-1.18-.06-2.37-.1-3.55-.11a1.28,1.28,0,0,0-1.21,1.65,1.05,1.05,0,0,0,.71.63,21.27,21.27,0,0,0,2.76-.24c.21,0,.41-.28.56-.47.46-.6.45-.61,1.35-.48-.08,1-.17,2-.27,3.13-1.24,0-2.46,0-3.68,0s-2.25.06-3.37.1c-.34,0-.78-.15-.79.47s.28,1,.84,1c.91,0,1.83,0,2.74-.1,1.13-.12,2.26-.32,3.46-.49l-.26,2.65c-1,0-2,0-3,0s-2.06,0-3.08.15a1.46,1.46,0,0,0-.89.6c-.1.15.07.59.24.8a1,1,0,0,0,.69.21c2.4-.09,4.81-.2,7.21-.31.58,0,1.16-.08,1.82-.13l.18,1.46L179.27,38l-.57-3.25c1.29,0,2.51,0,3.73,0,1.55-.07,3.09-.22,4.64-.37a.85.85,0,0,0,.88-.88c0-.47-.38-.74-1-.78a22.59,22.59,0,0,0-5.9.69V31l-.13,0-1.12,1.29-1.22-1L180.75,28c.5-.74,1-1.46,1.52-2.21a2.87,2.87,0,0,0,.23-.6,2.12,2.12,0,0,0-.7-.06c-1,.21-2,.46-2.94.7v-2.8c.31,0,.6,0,.88,0,2.42-.09,4.85-.16,7.27-.29a1.27,1.27,0,0,0,.88-.44,1,1,0,0,0,0-.91.91.91,0,0,0-.75-.38c-1.93.18-3.85.41-5.78.62l-.43.07V19c.36,0,.72.05,1.08.05,1.54,0,3.07.05,4.6,0,1.06-.05,1.39-.7,1-1.7l-.26-.64c.49,0,.93,0,1.37.09a.53.53,0,0,0,.68-.5c0-.12.06-.23.08-.34.19-.9-.16-1.39-1.07-1.34-1.47.08-3,.2-4.41.39-1.74.24-3.47.57-5.22.87V11.84h1.56c2.62,0,5.24,0,7.86,0,1.16,0,1.5-.63,1.11-1.72-.08-.23-.18-.46-.29-.73H194c-.13.4-.27.79-.36,1.19a.91.91,0,0,0,.9,1.24,52,52,0,0,0,9.08-.14,1,1,0,0,0,.89-1.25,4.26,4.26,0,0,0-.22-.66c-.08-.19-.18-.38-.31-.62h5.12c-.13.31-.28.6-.38.91-.24.78.09,1.28.92,1.27,1.35,0,2.72-.05,4.07-.18,2-.19,4-.48,6-.74L219.4,15c-.9-.17-1.76-.37-2.63-.5a30.53,30.53,0,0,0-7.15-.1c-.48,0-.87.26-.92.73a4.35,4.35,0,0,0,.15,1.33c0,.07.3.12.47.13ZM190.65,27.46a20.77,20.77,0,0,0,0-2.11.77.77,0,0,0-.54-.46,3.68,3.68,0,0,0-2.6.62q-1.8,1.32-3.52,2.75c-.83.68-1.61,1.43-2.41,2.15a18.45,18.45,0,0,0,5.7-.06.7.7,0,0,0,.57-.88c-.11-.64-.26-1.27-.41-2Z"/><path d="M183.43,50.79l-.86-2.52c1.92-.74,3.9-1.3,5.27-3a46.5,46.5,0,0,0-8.93,1.17V42.91c13.5-.13,27-.63,40.46-1.58l-.31,3.73a18.61,18.61,0,0,0-6.2-.43,13.79,13.79,0,0,0,3.95,3.67l-3.5,2.55a12,12,0,0,0-.77-1.11,2.52,2.52,0,0,0-1.95-.77c-3.1,0-6.21,0-9.31,0a99.62,99.62,0,0,0-12.2.84c-1.67.24-3.32.57-5,.85Zm12.1-3.46,10.5-.58c.83,0,1.66-.11,2.49-.23a1,1,0,0,0,.67-.43c.08-.15-.1-.52-.27-.67a2.66,2.66,0,0,0-1-.61,9.14,9.14,0,0,0-1.95-.25,66.93,66.93,0,0,0-10.69.48,5.94,5.94,0,0,0-3.52,1.52,2.18,2.18,0,0,0-.3.59,2,2,0,0,0,.58.17Z"/><path d="M183.29,41.21V38.14c1,0,2,0,3,0L205,37.71a51.86,51.86,0,0,0,9.78-1,2.06,2.06,0,0,1,.33,0l-.3,3.27A274.52,274.52,0,0,0,183.29,41.21Z"/><path d="M91.74,22.55l-.36,4.16-3-.28a65.07,65.07,0,0,0-12.56-.06,1.78,1.78,0,0,0-1.72,2.41,1.7,1.7,0,0,0,1.62,1.06c5,0,10,.35,15-.56l1.1-.21-.41,4.3-2.36-.27a64.74,64.74,0,0,0-12.45-.05,3.44,3.44,0,0,0-1.43.43,1.65,1.65,0,0,0,0,3,3.47,3.47,0,0,0,1.48.46,80.15,80.15,0,0,0,15.41-.2,3.89,3.89,0,0,0,3.26-3.06,46.47,46.47,0,0,0,1-9.84q0-3.51-.19-7c-.12-2.4-1.51-3.78-4-3.94-2.19-.13-4.39-.13-6.58-.08a37.86,37.86,0,0,0-8.48,1c-.6.15-1.19.34-1.84.52V10.13l25-1c0,1.7,0,3.34,0,5-.16,5.41-.35,10.83-.54,16.24l-.15,4.37a1.35,1.35,0,0,0,1.45,1.56,9.52,9.52,0,0,0,5-.88c-.11,1.81-.22,3.52-.33,5.31L104,40.47a61.34,61.34,0,0,0-10.58-.4c-5.77.16-11.53.25-17.3.4a55.48,55.48,0,0,0-10.76,1,1.1,1.1,0,0,1-.27,0V36.78c.59.12,1.17.27,1.75.35a18.19,18.19,0,0,0,2.2.21c1.12,0,1.53-.47,1.51-1.58q-.25-12.1-.49-24.23c0-.33,0-.66,0-1.07l1.84-.09c.09.75.13,1.45.26,2.13a4.18,4.18,0,0,0,4.36,3.81c2.87.09,5.74.05,8.61-.07,2-.08,4.1-.39,6.14-.59h.49L91.38,20l-2.66-.25a72.29,72.29,0,0,0-12.57,0,5.34,5.34,0,0,0-.8.13,1.64,1.64,0,0,0,.28,3.26c1.45.08,2.91.1,4.36.13a76.09,76.09,0,0,0,10.35-.49Z"/><path d="M104.83,46.85a7.12,7.12,0,0,0-4.28,4,19,19,0,0,0-5.44-4.23c-2.07-1-4.21-1.84-6.26-2.72a7.75,7.75,0,0,0,4.77-3.5C96.76,43.56,100.65,45.33,104.83,46.85Z"/><path d="M82,43.72l-15,6.86-.87-1.13c1.54-1.26,3-2.53,4.57-3.73,2-1.52,4-3,6-4.48a.75.75,0,0,1,.59-.15C78.89,42,80.47,42.86,82,43.72Z"/></svg>