<?xml version="1.0" encoding="utf-8"?>
<!-- Generator: Adobe Illustrator 24.1.0, SVG Export Plug-In . SVG Version: 6.00 Build 0)  -->
<svg version="1.1" id="圖層_1" xmlns="http://www.w3.org/2000/svg" xmlns:xlink="http://www.w3.org/1999/xlink" x="0px" y="0px"
	 viewBox="0 0 440 160" style="enable-background:new 0 0 440 160;" xml:space="preserve">
<style type="text/css">
	.st0{fill:#80ADB7;}
	.st1{enable-background:new    ;}
	.st2{fill:#FFFFFF;}
	.st3{fill:#C18032;}
</style>
<path class="st0" d="M99.72,22c0,0-9.51,3.17-11.89,15.05s-4.75,18.22,0,24.56s5.55,12.69,13.47,11.1s17.43-4.75,21.39,0
	S133,80.63,133,80.63s3.17-7.92,11.09-8.71s54.66-0.79,66.54-0.79s17.9-2.38,31.37,0s52.33-1.85,58.66-0.27s19.81,0.8,22.18-4.75
	s5.6-7.13,3.59-15.45s1.29-11.92-1.35-17.2c-2.85-5.71-7.78-10-17.17-11.89c-13.21-2.64-61.63,0.44-69.55,0.44H99.72V22z"/>
<g class="st1">
	<path class="st2" d="M127.85,53.09l-0.36,1.78c-0.74,0.01-1.54,0.02-2.41,0.02c-2.1,0-3.96-0.04-5.57-0.13
		c-1.62-0.09-2.94-0.4-3.96-0.93c-1.02-0.53-1.84-1.26-2.47-2.2c-0.7,1.37-1.59,2.62-2.69,3.76l-1.22-1.52
		c2.03-2.09,3.12-4.64,3.27-7.66h1.98c-0.1,0.98-0.31,2.13-0.66,3.45c1.05,1.75,2.45,2.75,4.2,3v-7.65h-8.61V43.3h8.13v-2.25h-6.7
		v-1.72h6.7v-2.41h1.95v2.41h6.79v1.72h-6.79v2.25h8.13v1.72h-7.69v2.86h6.47v1.76h-6.47v3.27c2.01,0.13,4,0.19,5.96,0.19
		C126.53,53.11,127.2,53.11,127.85,53.09z"/>
	<path class="st2" d="M148.74,53.88l-1.47,1.39c-4-3.49-6.55-7.3-7.65-11.43c-1.39,4.78-4.1,8.54-8.12,11.28l-1.36-1.47
		c1.81-1.2,3.38-2.65,4.69-4.37c1.32-1.71,2.32-3.6,3.01-5.64c0.69-2.05,1.04-3.38,1.04-4.01l-0.06-0.42h-2.54v-1.87h4.31
		c0.19,4.03,0.98,7.31,2.39,9.82C144.38,49.67,146.3,51.91,148.74,53.88z"/>
	<path class="st2" d="M153.79,50.42c-0.18,1.59-0.56,3.2-1.14,4.83l-1.53-0.73c0.48-1.39,0.82-2.91,1.03-4.56L153.79,50.42z
		 M158.66,40.24c-1.21,2.67-2.66,5.04-4.35,7.12c0.62-0.1,1.29-0.25,2.02-0.46c-0.11-0.33-0.24-0.66-0.38-0.98l1.49-0.56
		c0.47,1.09,0.85,2.22,1.14,3.38l-1.56,0.52c-0.02-0.22-0.08-0.5-0.18-0.84c-2.09,0.51-3.78,0.86-5.07,1.04l-0.5-1.53
		c0.76-0.23,1.96-1.7,3.59-4.39c-1.2,0.29-2.22,0.49-3.04,0.61l-0.42-1.57c0.86-0.43,1.88-2.35,3.04-5.76l1.88,0.72
		c-0.64,1.69-1.41,3.21-2.32,4.57c0.57-0.05,1.19-0.18,1.86-0.39c0.38-0.7,0.73-1.46,1.07-2.26L158.66,40.24z M156.13,54.24
		l-1.59,0.38c0.03-1.25-0.05-2.65-0.26-4.2l1.51-0.25C156.02,51.72,156.13,53.07,156.13,54.24z M158.4,51.7l-1.36,0.44
		c-0.12-0.75-0.3-1.46-0.54-2.11l1.41-0.38C158.14,50.37,158.3,51.05,158.4,51.7z M169.58,45.51h-4.64v8.01
		c0,0.67-0.18,1.11-0.53,1.33c-0.36,0.22-0.99,0.32-1.91,0.32c-0.4,0-0.75-0.01-1.07-0.04l-0.48-1.7c1.03,0.03,1.64,0.03,1.85,0.01
		c0.21-0.02,0.31-0.13,0.31-0.34v-7.59h-5.03v-1.68h6.78l0.36-1.25h-5.77l1.68-5.78l1.91,0.26l-0.34,1h5.59l-1.52,5.77h2.82V45.51z
		 M162.62,51.28c-1.17,1.03-2.39,1.96-3.67,2.8l-0.84-1.52c1.22-0.81,2.46-1.77,3.71-2.87L162.62,51.28z M162.58,48.01l-1.22,1.28
		c-0.67-0.63-1.52-1.29-2.54-1.98l1.22-1.23C160.89,46.59,161.74,47.24,162.58,48.01z M165.97,39.65h-3.72l-0.4,1.28h3.76
		L165.97,39.65z M169.78,53.18l-1.38,1.13c-0.68-1.03-1.67-2.19-2.96-3.49l1.39-1.11C167.92,50.81,168.91,51.97,169.78,53.18z
		 M169.3,47.27c-0.78,0.76-1.63,1.41-2.54,1.96l-1.23-1.28c1.02-0.61,1.86-1.26,2.51-1.96L169.3,47.27z"/>
	<path class="st2" d="M190.72,50.74c0,1.15-0.21,2.11-0.64,2.9c-0.42,0.78-1.09,1.23-2,1.33c-0.91,0.11-2.86,0.16-5.85,0.16
		c-1.33,0-2.61-0.02-3.84-0.05c-1.23-0.03-1.98-0.08-2.26-0.15c-0.28-0.07-0.54-0.2-0.79-0.4c-0.25-0.19-0.45-0.47-0.61-0.84
		c-0.15-0.37-0.23-0.84-0.23-1.42v-9.03c-0.29,0.22-0.71,0.5-1.28,0.84l-1.17-1.42c2.72-1.57,4.86-3.55,6.42-5.93l1.83,0.5
		c-0.18,0.36-0.4,0.71-0.67,1.06h7.01v1.78c-0.73,0.79-1.55,1.59-2.46,2.41h5.09v6.59h-12.9v3.3c0,0.12,0.05,0.26,0.15,0.42
		c0.1,0.16,0.2,0.26,0.3,0.32s0.75,0.09,1.95,0.09h3.98l4.59-0.01c0.42,0,0.76-0.19,1-0.57c0.25-0.38,0.4-1.25,0.46-2.6
		L190.72,50.74z M184,40.07h-5.81c-0.75,0.83-1.63,1.63-2.64,2.41h5.94C182.42,41.72,183.27,40.91,184,40.07z M180.96,47.27v-3.03
		h-4.58v3.03H180.96z M187.37,47.27v-3.03h-4.54v3.03H187.37z"/>
	<path class="st2" d="M197.63,43.34c0.93,1.61,1.39,3.11,1.39,4.52c0,1.13-0.21,1.92-0.62,2.36s-1.08,0.64-2.02,0.59l-0.54-1.78
		c0.05,0.03,0.28,0.03,0.67,0s0.62-0.18,0.68-0.46c0.07-0.28,0.1-0.59,0.1-0.92c0-1.43-0.47-2.85-1.4-4.27
		c0.39-1.03,0.8-2.51,1.22-4.43h-1.54v16.19h-1.8V37.19h5.07v1.72C198.5,40.4,198.1,41.88,197.63,43.34z M211.78,53.16l-0.46,1.83
		c-3.29,0.03-5.37,0.03-6.23-0.02c-0.86-0.05-1.65-0.23-2.37-0.55s-1.38-0.78-1.96-1.36c-0.43,0.79-0.91,1.56-1.42,2.32l-1.52-0.94
		c1.74-2.45,2.76-4.68,3.04-6.69h-1.43v-1.47c0.58-1.27,1.02-2.47,1.32-3.59h-1.68v-1.74h3.45v1.8c-0.29,1.03-0.66,2.1-1.13,3.23
		h1.13v2.08c-0.23,1.27-0.57,2.4-1.03,3.38c0.68,0.73,1.46,1.21,2.35,1.44c0.89,0.23,2.64,0.34,5.25,0.34
		C210.01,53.21,210.91,53.19,211.78,53.16z M202.68,39.69l-1.56,0.96c-0.56-1.2-1.17-2.18-1.82-2.94l1.53-0.98
		C201.63,37.75,202.25,38.74,202.68,39.69z M211.89,49.15l-1.22,1.17c-0.53-0.86-1.07-1.6-1.64-2.22c-0.05,1.49-0.25,2.57-0.61,3.24
		c-0.36,0.67-1.12,1-2.28,1c-0.24,0-0.54-0.01-0.89-0.02l-0.52-1.78c0.61,0.03,1.04,0.04,1.3,0.04c0.56,0,0.92-0.21,1.08-0.62
		c0.16-0.41,0.21-1.04,0.14-1.89c-0.76,0.81-2.03,1.74-3.83,2.79l-0.88-1.32c2.08-1.16,3.64-2.34,4.67-3.55
		c-0.04-0.31-0.1-0.63-0.19-0.94c-0.94,0.95-2.03,1.78-3.26,2.48l-0.78-1.4c1.55-0.89,2.69-1.74,3.4-2.56
		c-0.06-0.18-0.19-0.36-0.38-0.52c-0.67,0.46-1.49,0.93-2.47,1.38l-0.91-1.44c1.51-0.61,2.66-1.22,3.45-1.85h-2.83v-1.68h8.14v1.68
		h-3.04c-0.06,0.07-0.4,0.38-1.01,0.94c0.43,0.52,0.72,0.98,0.88,1.39c0.68-0.54,1.26-1.07,1.74-1.6l1.22,1.03
		c-0.7,0.83-1.49,1.53-2.39,2.1c0.08,0.29,0.12,0.55,0.12,0.78C210.24,47.01,211.23,48.13,211.89,49.15z M206.81,38.65l-1.64,0.69
		c-0.42-0.76-0.91-1.38-1.47-1.87l1.55-0.8C206.04,37.47,206.56,38.13,206.81,38.65z M210.99,37.21c-0.35,0.59-0.88,1.25-1.58,1.96
		l-1.68-0.72c0.57-0.55,1.08-1.16,1.54-1.83L210.99,37.21z"/>
	<path class="st2" d="M232.74,53.28l-0.56,1.76c-0.98,0.02-2.01,0.03-3.08,0.03c-3.94,0-6.61-0.14-7.99-0.42
		c-1.38-0.28-2.56-0.91-3.55-1.88c-0.7,1.01-1.38,1.85-2.04,2.52l-1.36-1.14c1.79-1.95,2.97-3.9,3.53-5.86h-3.11v-1.78
		c1-1.11,1.92-2.32,2.77-3.64h-3V41.1h5.13v1.78c-0.73,1.25-1.55,2.46-2.46,3.64h2.58v1.78c-0.3,1-0.7,2-1.19,2.99
		c0.76,0.89,1.71,1.45,2.83,1.69c1.12,0.24,3.66,0.36,7.61,0.36C230.29,53.35,231.59,53.33,232.74,53.28z M219.37,39.33l-1.32,1.26
		c-0.94-0.99-2.02-1.89-3.24-2.69l1.36-1.26C217.3,37.36,218.37,38.26,219.37,39.33z M232.68,41.01h-5.9
		c-0.28,0.6-0.47,0.99-0.57,1.16h5.45v10.16h-10.78V42.17h3.19c0.13-0.22,0.33-0.61,0.62-1.16h-4.71v-1.7h12.71V41.01z
		 M225.08,38.13l-1.56,1.06c-0.74-0.56-1.48-1.06-2.23-1.5l1.64-1.03C223.79,37.16,224.51,37.65,225.08,38.13z M229.79,45.04v-1.32
		h-7.04v1.32H229.79z M229.79,47.88V46.6h-7.04v1.28H229.79z M229.79,50.76v-1.3h-7.04v1.3H229.79z M231.09,37.55
		c-0.66,0.62-1.37,1.17-2.12,1.64l-1.72-0.96c0.81-0.51,1.5-1,2.07-1.5L231.09,37.55z"/>
	<path class="st2" d="M241.27,53.7h-1.78v-0.96h-1.76v1.47h-1.83V38.07h5.37V53.7z M239.49,44.75v-4.97l-1.76-0.02v4.97
		L239.49,44.75z M239.49,51.03v-4.58h-1.76v4.58H239.49z M253.62,48.33h-2.02v4.93c0,0.51-0.1,0.91-0.31,1.21
		c-0.21,0.29-0.46,0.48-0.78,0.58s-0.93,0.14-1.85,0.14c-0.47,0-0.91-0.01-1.3-0.04l-0.55-1.72c0.96-0.03,1.8-0.04,2.52-0.04
		c0.31,0,0.46-0.17,0.46-0.5v-4.55h-7.68v-1.68h7.68V45.3h1.8v1.34h2.02V48.33z M253.41,40.62h-4.67v2.27h4.11v1.66h-10v-1.66h4.04
		v-2.27h-4.58v-1.68h4.6v-2.06h1.8v2.06h4.69V40.62z M247.25,51.98l-1.53,1c-0.68-0.96-1.57-1.97-2.67-3.02l1.45-1.07
		C245.72,49.98,246.63,51.01,247.25,51.98z"/>
	<path class="st2" d="M274.68,50.42c-0.08,1.77-0.33,2.98-0.74,3.64c-0.41,0.66-1.05,0.98-1.9,0.98c-2.45,0-3.83-0.05-4.15-0.14
		c-0.32-0.09-0.59-0.27-0.82-0.54c-0.23-0.27-0.34-0.64-0.34-1.12v-6.89h-2.81c-0.23,2.67-0.87,4.66-1.91,5.98
		c-1.04,1.32-2.7,2.29-4.98,2.92l-0.96-1.71c1.5-0.23,2.82-0.86,3.97-1.91c1.15-1.04,1.8-2.81,1.95-5.28h-5.41V44.5h7.9v-7.56h1.97
		v7.56h7.81v1.85h-5.61v6.37c0,0.16,0.07,0.28,0.21,0.36s0.62,0.12,1.44,0.12c0.98,0,1.55-0.03,1.7-0.08
		c0.15-0.05,0.27-0.15,0.36-0.28c0.1-0.13,0.18-0.53,0.25-1.19c0.07-0.66,0.11-1.3,0.13-1.93L274.68,50.42z M262.5,43.16l-1.74,0.76
		c-0.65-1.63-1.58-3.33-2.79-5.09l1.66-0.92C260.78,39.57,261.74,41.32,262.5,43.16z M272.94,38.87c-0.81,1.86-1.77,3.56-2.89,5.11
		l-1.66-0.88c1.03-1.35,1.99-3.08,2.87-5.17L272.94,38.87z"/>
	<path class="st2" d="M283.08,45.68l-1.09,1.03c-0.33-0.74-0.59-1.27-0.8-1.6V55.3h-1.76v-9.27c-0.4,1.6-0.91,2.94-1.51,4.02
		l-0.82-2.21c0.85-1.63,1.51-3.51,1.99-5.65h-1.78v-1.76h2.12v-3.58h1.76v3.58h1.38v1.76h-1.38v0.33
		C282.07,43.75,282.7,44.81,283.08,45.68z M295.83,51.77c-0.38,2.44-1.14,3.66-2.3,3.66c-0.81,0-1.73-0.73-2.77-2.19
		c-1.71,1.07-3.09,1.79-4.14,2.16l-1.03-1.58c1.91-0.72,3.34-1.44,4.29-2.16c-0.4-0.85-0.72-1.91-0.98-3.17h-3l-0.02,0.5
		c1.3,0.9,2.19,1.57,2.64,2.02l-1.14,1.47c-0.37-0.42-0.94-0.93-1.72-1.53c-0.44,1.85-1.23,3.36-2.37,4.53l-1.52-1.03
		c1.49-1.42,2.26-3.41,2.32-5.97h-1.78v-1.72h6.28c-0.29-2.41-0.49-5.72-0.58-9.92h1.74c0.04,3.8,0.24,7.11,0.58,9.92h1.24
		c-0.04-0.2-0.15-0.41-0.34-0.65l1.95-0.4c0.15,0.24,0.34,0.59,0.57,1.05h1.82v1.72h-4.89c0.1,0.63,0.29,1.29,0.58,2
		c0.53-0.5,1.02-1.09,1.47-1.76l1.6,0.81c-0.69,1.03-1.43,1.89-2.22,2.58c0.63,0.87,1.04,1.3,1.25,1.3c0.38,0,0.65-0.88,0.79-2.62
		L295.83,51.77z M288.14,45.93l-1.32,0.34c-0.05-0.49-0.11-0.86-0.2-1.12c-1.16,0.2-2.22,0.35-3.19,0.44L283,44.1
		c0.43-0.45,1-1.2,1.72-2.25c-0.64,0.05-1.15,0.08-1.53,0.08l-0.34-1.34c0.76-1.04,1.33-2.29,1.72-3.74l1.61,0.51
		c-0.62,1.43-1.12,2.41-1.51,2.93c0.29,0.02,0.63-0.01,1-0.08c0.14-0.23,0.37-0.69,0.7-1.38l1.43,0.76c-0.88,1.67-1.88,3.13-3,4.39
		c0.45-0.02,0.94-0.08,1.48-0.17c-0.04-0.28-0.13-0.57-0.28-0.88l1.26-0.44C287.74,43.91,288.03,45.06,288.14,45.93z M295.62,45.82
		l-1.28,0.42l-0.21-1.18c-1.22,0.17-2.32,0.31-3.28,0.42l-0.48-1.47c0.42-0.38,1-1.09,1.72-2.12c-0.53,0.08-1.06,0.15-1.58,0.21
		l-0.27-1.51c0.75-1.03,1.39-2.27,1.93-3.72l1.56,0.57c-0.36,0.89-0.94,1.92-1.74,3.09c0.41-0.03,0.77-0.08,1.09-0.14
		c0.34-0.57,0.61-1.05,0.8-1.44l1.49,0.57c-0.71,1.39-1.71,2.85-2.99,4.37c0.29-0.01,0.75-0.07,1.36-0.15
		c-0.06-0.27-0.15-0.53-0.26-0.76l1.28-0.41C295.17,43.66,295.46,44.74,295.62,45.82z"/>
</g>
<path class="st2" d="M306,53.91c0.37,0.14,0.66,0.42,0.82,0.78c0.33,0.68,0.05,1.5-0.63,1.83c-0.04,0.02-0.07,0.03-0.11,0.05
	c-0.36,0.15-0.78,0.15-1.14,0c-0.38-0.13-0.68-0.41-0.84-0.77c-0.17-0.35-0.17-0.75,0-1.1c0.13-0.36,0.42-0.65,0.78-0.79
	C305.24,53.77,305.64,53.77,306,53.91z M312.08,41.91l-4.46,10.41l-1.78-0.72l3.9-10.6L312.08,41.91z"/>
<path d="M111.53,97.71c0.44-2.93,0.87-3.27,3.35-2.76c1.06,0.21,2.1,0.52,3.11,0.92c2.24,0.87,2.32,1.35,1.18,3.49
	c-0.33,0.76-0.47,1.6-0.4,2.43c0.33,11.92,0.72,23.84,1,35.77c0.07,1.62-0.07,3.23-0.43,4.81c-0.68,2.49-3.01,4.16-5.58,4
	c-0.53,0-1.04-0.21-1.41-0.59c-0.58-0.89-0.77-2.07-1.44-2.84c-0.83-0.7-1.75-1.28-2.74-1.72c4.73-1.6,4.62-1.6,4.39-6.53
	c-0.34-7.43-0.5-14.86-0.73-22.29c0-0.68,0-1.36,0-2.38c-2.42,0.56-4.66-0.57-6.83,1.56c-1,1-3.51,0.49-5.34,0.47
	c-0.28,0-0.76-1-0.79-1.64c-0.24-4.17-0.33-8.35-0.6-12.52c-0.09-1.57,0.49-2.46,2-2.48c1.85,0,3.66-0.83,5.35,1.44
	C106.46,98,109.41,97.47,111.53,97.71z M105.39,98.8l0.28,4.42c1.05-0.4,2.15-0.67,3.27-0.79c0.38,0,0.73,1.16,1.1,1.79l-4.14,1.49
	v3.13l5.74-0.3v-9.43L105.39,98.8z"/>
<path d="M88.57,98.15C88.67,95.49,90,95,92,95.75c1,0.33,1.9,0.64,2.85,1c1.68,0.62,2.12,1.49,1,3.15
	c-0.48,0.95-0.73,2.01-0.71,3.08c-0.13,1.38,0,2.8-0.1,4.18s-0.14,3.87-0.84,4.12c-1.86,0.68-3.95,1.25-6.14-0.24
	c-1.13-0.77-3.22-0.14-5.13-0.14c0,1.86,0,3.54,0,5.22c0,7.36-0.08,14.72,0.13,22.08c0.07,2.5-0.94,3.25-3.13,3.49
	c-3.49,0.37-4-0.09-4-3.56c-0.11-13.17-0.25-26.34-0.42-39.51c0-1.47-0.18-2.94,1.85-3c1.85-0.09,4-1.37,5.25,1.27
	c0.3,0.47,0.79,0.8,1.35,0.89C85.36,97.94,86.83,98,88.57,98.15z M88.26,108.94v-9.36l-5.66-0.3l0.24,5.17
	c2.81-2.78,3.69-2.6,4.72,0.76l-4.52,0.55v3.56L88.26,108.94z"/>
<path d="M89.11,122l-3,1.58c-2-2.24-1.82-3.75,0-5.67c0.77-0.96,1.26-2.12,1.4-3.34c0.36-2.18,1.53-2.44,3.29-1.79
	c0.73,0.25,1.45,0.54,2.15,0.86c1.38,0.7,1.52,1.47,0,2.26c-0.54,0.3-1.06,0.63-1.56,1c-0.81,0.57-1.59,1.17-2.38,1.76l0.38,0.69
	c0.84-0.5,1.72-0.95,2.61-1.35c0.69-0.29,1.61-0.71,2.18-0.48c1.3,0.66,2.55,1.43,3.73,2.29l-7.53,5.32l0.46,0.74
	c0.66-0.45,1.29-1.22,2-1.27c1.07-0.05,2.13,0.17,3.09,0.63c0.86,0.25,1.36,1.14,1.11,2c-0.07,0.25-0.2,0.48-0.38,0.67
	c-0.94,0.86-1.97,1.63-3.06,2.29l-0.79-2.92c-1.25,0.9-2.55,1.71-3.91,2.43c-0.69,0.22-1.45,0.07-2-0.41
	c-0.59-0.82-0.89-1.8-0.86-2.81c0.06-0.62,1.16-1.09,1.7-1.71s1.18-1.56,1.77-2.35L89.11,122z"/>
<path d="M103.12,122.49c-0.35,0.17-0.7,0.32-1,0.5c-3,1.67-4,1.09-4.11-2.46c0.05-0.5,0.24-0.98,0.54-1.38
	c0.79-1.23,2.07-2.31,2.36-3.63c0.51-2.33,1.72-2.45,3.52-1.84c0.66,0.21,1.31,0.49,1.92,0.82c1.26,0.72,1.58,1.44,0,2.3
	c-1.27,0.71-2.46,1.58-3.89,2.5c1.23,0.66,2.06,1.14,2.88-0.4c0.51-0.55,1.27-0.79,2-0.64c1.16,0.68,2.25,1.48,3.25,2.38
	c-0.24,0.36-0.52,0.7-0.83,1c-1,0.73-2,1.41-3.11,2.19c1.18,0.45,2.31,1.04,3.35,1.76c0.55,0.48,1,1.88,0.72,2.31
	c-0.71,0.85-1.64,1.49-2.69,1.84c-0.22,0.09-0.94-1-1.65-1.84c-1.15,0.48-2.26,1.07-3.31,1.74c-1.48,1.09-2,0.07-2.37-1
	s-1.94-2.17,0.21-3.24c1.01-0.68,1.92-1.5,2.71-2.43L103.12,122.49z"/>
<path d="M103.89,136.74c0,2.11-0.07,3.52,0,4.93c0.16,2.59-1.81,2.18-3.32,2.43c-1.72,0.28-2.11-0.67-2.15-2.16
	c-0.09-3.25-0.27-6.49-0.46-9.73c-0.09-1.43,0.52-2,1.92-1.81c0.84,0.1,1.68,0.25,2.51,0.45c1.43,0.38,2.53,0.88,1.36,2.72
	c-0.3,0.46,0.21,1.42,0.36,2.16c0.35-0.57,0.74-1.13,1.06-1.71c0.45-0.82,0.82-2.35,1.28-2.37c1.29,0.08,2.55,0.38,3.74,0.89
	c0.31,0.24,0.47,0.61,0.43,1c-0.36,1.61-0.82,3.21-1.36,4.77c-0.38,1-3,1-4.14,0C104.68,137.81,104.27,137.29,103.89,136.74z"/>
<path d="M91.06,137.29c-1.02,0.7-2.09,1.31-3.21,1.83c-1.62,0.56-2.71,0.12-2.75-1.88c0-1.84-0.21-3.67-0.35-5.86
	c1.4,0.08,2.54,0.06,3.65,0.24c1.3,0.21,2.18,0.64,1.26,2.32c-0.62,1.12-0.38,2.27,1.69,2.09c-0.1-0.94-0.1-1.88,0-2.82
	c0.21-0.91,0.85-2.51,1.14-2.48c1.63,0.27,3.24,0.7,4.79,1.27c0.1,0,0.18,0.46,0.12,0.65c-0.8,2.78-1.81,5.5-3,8.14
	c-0.73,1.41-2.48,2.28-3.77,3.4l-0.52-0.46L91.06,137.29z"/>
<path d="M145.21,115.56l-1.69,8.44c1.77-0.53,3.94,0.44,4.62-2.2c0.07-0.28,1.07-0.54,1.56-0.44c1.14,0.27,2.24,0.65,3.3,1.14
	c1.69,0.74,2.59,1.66,0.95,3.48c-0.54,0.58-0.51,1.74-0.6,2.64c-0.2,2,0.05,4.14-0.59,6c-0.61,1.7-1.75,3.16-3.24,4.17
	c-2.29,1.48-3,1-4.26-1.54c-0.37-0.67-0.87-1.26-1.47-1.74c-0.69-0.39-1.29-0.9-1.79-1.51c0.83-0.11,1.67-0.28,2.5-0.31
	c1.51-0.06,2.23-0.69,2.25-2.29c0-2,0.25-4,0.38-6c-3.2-0.42-4,0.16-5.68,2.64c-1.84,2.47-3.81,4.85-5.9,7.11
	c-0.34,0.29-0.73,0.52-1.15,0.68c1.45-6.84,2.89-13.65,4.36-20.63l-5.47-0.66l0.06-0.92c0.77-0.13,1.55-0.2,2.33-0.22
	c3,0.13,6,0.34,9.06,0.5c1.88,0.09,3.79,0.57,5.25-1.4c0.72-0.52,1.66-0.63,2.48-0.28c0.84,0.85,1.54,1.84,2.06,2.92
	c-0.61,0.38-1.23,1.12-1.82,1.1C150.28,116.12,147.83,115.8,145.21,115.56z"/>
<path d="M171.43,103.88c1.64,2.18,4.01,3.7,6.67,4.28c2.52,0.66,5.1,1,7.62,1.52c0,0.28,0.12,0.54,0.08,0.56
	c-2.45,1.22-4.47,2.78-5.39,5.56c-0.11,0.31-2,0.38-2.89,0c-2.94-1.24-4.62-3.78-6-6.51c-0.45-0.88-0.79-1.81-1.29-3
	c-3.27,5.16-8.06,9.18-13.71,11.51l-0.51-0.45c0.4-0.7,0.77-1.42,1.2-2.09c2.97-4.46,5.13-9.4,6.38-14.61
	c0.29-1.27,0.89-2,2.23-1.72c1.53,0.21,3.04,0.55,4.52,1C173.32,101,173.43,101.5,171.43,103.88z"/>
<path d="M161.32,131.8c5.44,0.07,10.38,0.26,14.88,2.8c0.64,0.5,0.98,1.29,0.91,2.1c-0.52,1.68-1.34,3.24-2.42,4.63
	c-0.86,0.65-2.01,0.8-3,0.37C168.28,138.68,165.06,135.42,161.32,131.8z"/>
<path d="M164.5,117.8c2.86,0.69,5.76,1.25,8.53,2.17c0.58,0.2,1.13,1.85,0.94,2.65c-0.39,1.16-1.05,2.21-1.94,3.06
	c-1.63,1.76-2.65,1.5-3.86-0.59s-2.64-4.29-4-6.43L164.5,117.8z"/>
<path d="M140,100.81c2.43,0.78,4.81,1.71,7.13,2.78c1.92,1,2,2.63,0.41,4.18c-0.78,0.74-1.69,1.32-2.68,1.74
	c-1.44,0.64-2.37,0.33-2.82-1.48c-0.64-2.2-1.39-4.36-2.25-6.48L140,100.81z"/>
<path d="M211.6,125.65l9.45-14.41h-9.26v-0.89c1.51-0.16,3-0.39,4.54-0.46c5.06-0.23,5.06-0.2,6.24-5.19c0.77-3.29,1-3.4,4.38-2.5
	c0.68,0.18,1.35,0.4,2,0.65c2.41,1,2.52,1.39,1.16,3.49c-0.52,0.97-0.96,1.97-1.33,3c2.23,0,4.14,0.12,6-0.07
	c0.78-0.21,1.47-0.68,1.95-1.33c2.57-2.92,5.79-2.44,7.25,1.17c0.59,1.46-0.3,1.72-1.53,1.71c-4,0-8.06,0.05-12.09,0
	c-1.38-0.17-2.71,0.59-3.27,1.86c-3.19,5.64-8.14,10.08-14.09,12.65C212.54,125.47,212.07,125.57,211.6,125.65z"/>
<path d="M221.21,140c0.23-0.26,0.31-0.45,0.43-0.48c4.33-1,4.08-0.84,3.66-6c-0.26-3.23-0.2-6.48-0.32-9.72
	c0-1.56,0.73-2.11,2.16-1.91c1.15,0.12,2.29,0.32,3.42,0.6c2.66,0.72,2.76,1.16,1.77,3.73c-0.29,1.03-0.37,2.12-0.22,3.18
	c0.18,2.78,0.49,5.54,0.68,8.32c0.28,4.06-1.59,6.68-5.22,7.23c-0.71,0.08-1.43-0.17-1.93-0.68
	C223.65,141.17,223.7,141.14,221.21,140z"/>
<path d="M207.47,124.49c-0.16,1.09-0.37,2.17-0.65,3.23c-1.08,3.05-2.2,6.08-3.35,9.09c-0.53,1.37-1.45,1.75-2.69,0.77
	c-0.55-0.43-1.07-0.88-1.56-1.37c-3.84-3.79-3.72-4.58,0.87-7.25C202.39,127.63,204.63,126.21,207.47,124.49z"/>
<path d="M234,113.67l12.27,3c-0.99,2.41-2.13,4.74-3.42,7C238.62,123.89,234,118,234,113.67z"/>
<path d="M219.64,127.91c0.41,3.56,0.4,6.84-1.48,9.74c-0.69,0.72-1.7,1.04-2.68,0.84c-1.66-1.1-3.06-2.55-4.11-4.25
	C213.9,132,216.61,130.15,219.64,127.91z"/>
<path d="M202,116.1c2,0.58,2.5,2.08,1.49,4c-0.47,0.88-1.07,1.68-1.8,2.37c-1.45,1.37-2.39,1.14-3.38-0.63
	c-0.64-1.14-1.29-2.28-2-3.36c-0.93-1.38-2.1-2.6-3-4C196.14,115.1,199.15,115.3,202,116.1z"/>
<path d="M199.6,104.48c2.76-0.5,5.61-0.07,8.1,1.23c1.62,0.86,2.15,2.2,1.05,3.86c-1,1.5-2,3.1-3.84,3.67
	c-0.17,0.04-0.35-0.04-0.44-0.19C203,110.26,201.41,107.64,199.6,104.48z"/>
<path d="M217,98.71c1.65,0,3.31,0,5,0c2.48,0.08,5,0.36,7.43,0.3c1.09-0.07,2.13-0.46,3-1.12c1.13-0.83,2.07-2.13,3.63-1.29
	s2.92,2.07,2.5,4.49l-21.59-1.2L217,98.71z"/>
<path d="M234.45,129.56c2.76,0.95,5.3,1.73,6.75,4c0.4,1.05,0.22,2.23-0.47,3.11c-1.28,0.85-3,1-4.55,1.42
	c-0.24-0.27-0.4-0.59-0.47-0.94C235.3,134.84,234.93,132.5,234.45,129.56z"/>
<path d="M248.36,129c0.69,0.32,1.46,2.16,1.18,2.54c-1.05,1.27-2.3,2.35-3.7,3.21c-0.15,0.1-1.37-1.1-1.83-1.85
	c-1.3-2.14-2.36-4.42-3.59-6.6C243.05,127.22,245.83,127.82,248.36,129z"/>
<path d="M305,122l-2.21-0.57l-0.07-0.65l2.75-1c0.11-1.53,0.23-3.13,0.35-4.84l-2.5-0.31l-0.23-0.67l2.94-1.26
	c0.21-1.68,0.45-3.58,0.7-5.52l-3.33-0.16l-0.15-0.66c0.43-0.31,0.91-0.56,1.42-0.72c1.45-0.22,2.77-0.45,2.84-2.36
	c0-0.31,0.7-0.92,0.89-0.85c2.09,0.69,4.15,1.47,6.19,2.3c0.16,0.31,0.16,0.69,0,1c-1.91,1.54-1.6,3.79-1.81,5.8
	c-0.6,5.91-1.05,11.85-1.59,18.24c1.64-1.32,2.5-3.77,4.65-2.43c1.15,0.72,1.85,2.16,2.76,3.27l-0.5,0.53l-50.63,1.21l-0.17-0.82
	l3.76-0.7c0.06-1.03,0.06-2.07,0-3.1c-0.76-6.38-1.55-12.76-2.37-19.13c-0.34-2.56,0.23-3.55,2.83-3.38c2.22,0.15,3-0.65,3.39-2.64
	c0.19-0.94,1.09-1.74,1.67-2.6c1.42,1.22,2.85,2.43,4.2,3.72c-0.29,0.54-0.7,1.01-1.2,1.36c-3.9,1.75-3.91,1.72-3.4,6
	c0.1,0.84,0.24,1.68,0.39,2.51c0,0.09,0.25,0.14,0.18,0.1c1-0.65,2-1.72,2.84-1.67c0.72,0,1.38,1.41,2.44,2.61l-5.29,0.87l0.68,6.08
	l0.46,0.09c0.18-0.52,0.46-1.01,0.81-1.44c0.4-0.33,1.31-0.69,1.53-0.5c0.67,0.7,1.27,1.47,1.78,2.29c-0.45,0.33-0.95,0.6-1.47,0.81
	c-0.97,0.21-1.95,0.38-2.93,0.49c0.23,2.43,0.44,4.79,0.66,7.22h4.4c0.1-0.7,0.16-1.4,0.17-2.11c-0.42-8-0.9-15.92-1.25-23.89
	c0-0.81,0.57-2.35,0.91-2.36c1.58,0,3.16,0.2,4.69,0.58c0.61,0.13,1.13,0.94,1.71,1c2.32,0.07,4.65,0,7-0.12
	c0.51-0.05,0.99-0.24,1.39-0.55c0.6-0.44,1.19-1.51,1.65-1.44c1.57,0.29,3.1,0.75,4.57,1.37c0.22,0.09,0.27,1,0.18,1.45
	c-0.38,1.84-1.15,3.66-1.23,5.5c-0.25,6-0.28,11.93-0.36,17.89c0,1-0.27,2.08,1.36,2.13S305,129,305,128V122z M296.84,130v-24.66
	h-9.28c0.35,8.45,0.68,16.6,1,24.67L296.84,130z"/>
<path d="M276.4,146.59c2.53-3.26,5-6.43,7.41-9.57c0.28-0.36,0.66-0.62,1.09-0.78c1.43-0.44,6.58,3.18,6.66,4.7
	c-0.01,0.42-0.22,0.81-0.56,1.06c-4.71,1.64-9.43,3.21-14.16,4.78C276.72,146.85,276.56,146.68,276.4,146.59z"/>
<path d="M297,137.14c3.4-0.29,6.8,0.45,9.77,2.14c1.14,0.51,1.65,1.86,1.14,3c-0.06,0.13-0.13,0.25-0.21,0.37
	c-0.52,0.93-1.19,1.76-2,2.46c-2.54,2.08-3.55,1.74-5-1.18C299.68,141.74,298.41,139.65,297,137.14z"/>
<path d="M292.41,123.81c0.02,0.29-0.07,0.57-0.25,0.8c-0.44,0.47-1.05,0.76-1.69,0.81c-0.43-0.06-1-0.85-1.07-1.37
	c-0.26-1.99-0.4-3.99-0.42-6c0-0.86,0.14-2.23,0.65-2.48c0.67-0.32,1.76,0.24,2.66,0.7c1.12,0,1.46-2.54,3.21-0.93
	c0.41,0.38,0.66,0.92,0.69,1.48c-0.04,1.9-0.19,3.8-0.43,5.68c-0.11,0.78-0.45,1.93-1,2.14S293.3,124.17,292.41,123.81z"/>
<path d="M296.67,111.53c-2.81,0.31-4.94,0.57-7.07,0.74c-0.28,0-0.59-0.35-0.89-0.55c0.25-0.32,0.47-0.89,0.76-0.93
	c1.46-0.25,2.83-0.85,4-1.76C295.21,107.89,295.57,110,296.67,111.53z"/>
<path d="M359.28,109.75l1.8-4.61L336.29,104c-0.45,2.12-0.82,4.16-1.35,6.16c-0.43,1.66-1.68,1.93-3.11,1.33
	c-0.85-0.38-1.66-0.86-2.4-1.42c-2.4-1.79-2.35-2.82-0.22-5c1.92-2,3.68-4.09,5.52-6.16c0.09,0.06,0.32,0.13,0.32,0.21
	c-0.05,3.75,2.79,3.4,5.14,3.5c6.67,0.29,13.34,0.43,20,0.75c1.47,0.06,1.94-0.68,2.21-1.81c0.35-1.41,1.26-1.53,2.26-0.86
	c1.69,1.09,3.29,2.32,4.78,3.66c0.31,0.7,0.26,1.51-0.13,2.17c-3.05,1.28-6.19,2.37-9.31,3.5
	C359.91,110.12,359.74,110,359.28,109.75z"/>
<path d="M332.12,118c0.7-1,1-1.45,1.37-1.89c2-2.36,4.08-4.66,6-7.07c0.88-1.11,1.72-1.47,2.94-0.66c0.61,0.33,1.19,0.72,1.72,1.17
	c0.89,1,1.66,2,2.48,3c-0.95,0.74-1.98,1.39-3.05,1.94c-2.71,1.1-5.48,2.07-8.25,3C334.27,117.74,333.2,117.91,332.12,118z"/>
<path d="M349.41,110.49c4.11-0.49,7.53-0.62,10.89,0.38c0.73,0.37,1.21,1.09,1.28,1.9c-0.28,1.64-0.81,3.24-1.57,4.72
	c-0.58,0.52-1.39,0.7-2.14,0.48C355.16,115.75,352.6,113.35,349.41,110.49z"/>
<path d="M344.14,92.22c2.73,0.6,5.52,1,8.18,1.85c1.71,0.53,1.95,2.08,1.09,3.63c-0.41,0.74-0.92,1.41-1.53,2
	c-2.39,2.26-3.6,1.94-4.93-1c-0.89-2-2-3.79-3-5.68L344.14,92.22z"/>
<path d="M342,136.56c-3.17,0.19-6.35,0.24-9.52,0.33c-0.59,0.02-1.18-0.12-1.7-0.41c2-1,4.26-0.65,6.41-0.79s4.47-0.21,6.73-0.32
	V130l-9.2,0.32l-0.12-0.66c2.79-0.82,5.95-0.45,8.95-0.79v-6.54l-11.7-0.33l-0.15-0.55c0.71-0.18,1.43-0.3,2.16-0.35
	c6.74,0.19,13.47,0.47,20.21,0.62c1.1,0,2.19-0.28,3.15-0.82c2.72-1.68,4.76-1.45,6.27,0.87c0.75,1.16,0.37,1.59-1.48,1.5
	c-3.25-0.16-6.49-0.38-9.73-0.57c-0.27,0-0.54,0.02-0.81,0.06c0,1.76,0,3.45,0,5.13c0.06,0.34,0.31,0.62,0.64,0.72
	c0.48,0,0.95-0.13,1.37-0.37c0.4-0.23,0.53-0.72,1-0.88c0.94-0.35,2.31-1,2.93-0.76c1.07,0.55,2.05,1.26,2.9,2.11
	c-0.57,0.31-1.11,0.87-1.7,0.89c-2.21,0.11-4.44,0.05-6.74,0.05v5.66c2.94-0.27,6.07,0.86,8.09-1.62c0.85-0.67,1.92-1.01,3-0.94
	c1.33,0.75,2.57,1.65,3.7,2.68c-0.58,0.41-1.24,0.71-1.94,0.88c-4.17,0.08-8.35,0-12.79,0"/>
<path d="M336.26,139.16c0.3,3.18,0.18,6.18-1.83,8.84c0,0.05-0.07,0.13-0.12,0.14c-0.69,0.17-1.74,0.7-2,0.43
	c-1.27-1.26-2.4-2.65-3.37-4.15c-0.19-0.3,0.39-1.49,0.91-1.81C331.81,141.41,333.91,140.4,336.26,139.16z"/>
<path d="M349,139.69c2.48,0,6,2.57,6.48,4.91c0.07,0.77-0.19,1.54-0.71,2.12c-0.67,0.59-1.45,1.02-2.3,1.28
	c-2.25,0.85-2.94,0.28-3-2.13C349.45,143.81,349.2,141.75,349,139.69z"/>
<path d="M341.54,139.39c1.48,1.49,2.88,3.05,4.2,4.68c0.78,1.05,0.56,2.54-0.5,3.31c-0.04,0.03-0.08,0.06-0.12,0.09
	c-1.29,1-2.72,2-4.49,1.29c-0.5-0.33-0.81-0.89-0.82-1.49c0.34-2.48,0.83-4.94,1.27-7.4L341.54,139.39z"/>
<path d="M357.77,140.06c2.09-0.71,6.84,0.6,7.89,2.25c0.38,0.63,0.45,1.4,0.18,2.08c-1.04,1.14-2.22,2.15-3.5,3
	c-0.26,0.18-1.32-0.24-1.52-0.64c-0.58-1.11-0.85-2.38-1.36-3.54S358.34,141.11,357.77,140.06z"/>
<path d="M348.84,123.36c0.42-1.27,0.75-2.19,1-3.12s0.58-2.09,0.78-3.16c0.16-0.8,0.58-1.2,1.32-0.86c1.23,0.56,2.42,1.19,3.57,1.91
	c0.53,0.33,0.79,0.94,0.05,1.42c-1.64,1-3.28,2.09-4.94,3.1C350.04,122.93,349.45,123.17,348.84,123.36z"/>
<path d="M341.18,116.8c1.85-0.11,3.69,0.35,5.27,1.33c0.68,0.34,0.96,1.16,0.62,1.84c-0.05,0.1-0.11,0.19-0.18,0.27
	c-0.17,0.27-0.36,0.52-0.57,0.76c-1.89,2-2.65,1.89-3.59-0.66C342.31,119.21,341.77,118.13,341.18,116.8z"/>
<path class="st3" d="M404.61,107.35l2.32-6.83h-15.52l1.43,6.6c-6.54,1.89-11.23,7-11.23,12.55c0,7,7.5,18.43,16.74,18.43
	s16.74-11.41,16.74-18.43C415.09,114.34,410.75,109.4,404.61,107.35z"/>
<path class="st3" d="M59.61,134.22h-2.42v-0.07h6.45v-4.69h-1.49v-4.61H46.6v2.2H27.39v-7h-0.66c1.31-0.12,2.36-1.13,2.53-2.43
	h15.51v-2.25h0.07v2c0.01,1.46,1.19,2.63,2.65,2.63H54l0,0h-7.28v4.69H55v0.06h6.45v-4.69H55.8V120h4.61v-4.68h-2.8l0,0h-1.52v-0.09
	h3.84c0-2.59-2.1-4.69-4.69-4.69l0,0h-1.76v0.09H43.35v-1H42.7v-1.47h-0.27v-1.46h-0.2v-1.47H42v-1.46h-0.2v-1.47h0.44v-1.2H31.43
	v1.2h0.7v1.46h-0.39v1.46h-0.11v1.47h-0.32v1.46h-0.52v1.47h-0.4v1H19.92l0,0c-2.37,0.27-4.16,2.27-4.16,4.66h-0.49V120h5.67l0,0
	h-7.1v4.65h-1v4.69h4.62v0.07H10v4.69h17.39v0.07H8.05v4.69h58v-4.69L59.61,134.22z M37.13,135.31l1.22,1.22h-2.61l1.34-1.2
	L37.13,135.31z M43.84,136.53h-5.41l0.7-0.7l-0.66-0.66l1.8,1l0.52-0.91L38.55,134l0.26-0.24l-0.7-0.77l-0.52,0.46l-0.5-0.29
	l-0.23,0.39l-0.75-0.75l-0.74,0.74l0.94,0.94l-2.66,0.89l0.33,1l1.09-0.37l0.48,0.53h-5.08v-1.29c0-3.09,2.5-5.59,5.59-5.59h2.38
	c3.08,0.02,5.56,2.51,5.56,5.59v1.29H43.84z M20.94,124.74L20.94,124.74h-1.68l0,0H20.94z M23.87,129.46v-0.07h3.52v0.07H23.87z"/>
</svg>
