<?xml version="1.0" encoding="utf-8"?>
<!-- Generator: Adobe Illustrator 24.1.0, SVG Export Plug-In . SVG Version: 6.00 Build 0)  -->
<svg version="1.1" id="圖層_1" xmlns="http://www.w3.org/2000/svg" xmlns:xlink="http://www.w3.org/1999/xlink" x="0px" y="0px"
	 viewBox="0 0 440 160" style="enable-background:new 0 0 440 160;" xml:space="preserve">
<style type="text/css">
	.st0{fill:#80ADB7;}
	.st1{enable-background:new    ;}
	.st2{fill:#FFFFFF;}
	.st3{fill:#C28032;stroke:#C28032;stroke-miterlimit:10;}
</style>
<path class="st0" d="M93.13,22.31c0,0-9.51,3.17-11.88,15.05s-4.76,18.22,0,24.56S86.79,74.6,94.71,73s17.43-4.75,21.39,0
	s10.3,7.92,10.3,7.92s3.17-7.92,11.09-8.71s54.66-0.79,66.55-0.79s17.89-2.38,31.36,0s37-4.21,43.32-2.62s19.8,0.79,22.18-4.75
	s5.59-7.13,3.59-15.45s1.29-11.92-1.35-17.21c-2.86-5.71-5.94-8.63-15.32-10.51c-13.21-2.64-48.13,1.42-56.06,1.42H93.13V22.31z"/>
<g class="st1">
	<path class="st2" d="M107.9,52.76c-1.8,0.99-4.02,1.85-6.63,2.58l-0.9-1.58c2.5-0.67,4.61-1.45,6.32-2.33L107.9,52.76z
		 M118.54,48.03h-15.71V43c-0.67,0.68-1.05,1.05-1.13,1.11l-1.22-1.38c1.46-1.25,2.8-3.18,4.03-5.77l1.72,0.54
		c-0.27,0.64-0.5,1.11-0.67,1.41h4.23c-0.18-0.5-0.4-0.97-0.65-1.41l1.83-0.42c0.38,0.68,0.68,1.29,0.9,1.83h6.19v1.54h-6.48v1.07
		h5.92v1.39h-5.92v1.07h5.94v1.43h-5.94v1.1h6.94V48.03z M118.88,50.95h-8.23v4.62h-1.91v-4.62h-8.11v-1.64h8.11v-0.84h1.91v0.84
		h8.23V50.95z M109.72,41.5v-1.07h-5.03v1.07H109.72z M109.72,43.96v-1.07h-5.03v1.07H109.72z M109.72,46.48v-1.1h-5.03v1.1H109.72z
		 M119,53.85l-1.07,1.51c-2.11-1.08-4.21-1.92-6.3-2.52l1.17-1.47C115.05,52.06,117.12,52.89,119,53.85z"/>
	<path class="st2" d="M128.9,52.76c-1.8,0.99-4.02,1.85-6.63,2.58l-0.9-1.58c2.5-0.67,4.61-1.45,6.32-2.33L128.9,52.76z
		 M139.54,48.03h-15.71V43c-0.67,0.68-1.05,1.05-1.13,1.11l-1.22-1.38c1.46-1.25,2.8-3.18,4.03-5.77l1.72,0.54
		c-0.27,0.64-0.5,1.11-0.67,1.41h4.24c-0.18-0.5-0.4-0.97-0.65-1.41l1.82-0.42c0.38,0.68,0.68,1.29,0.9,1.83h6.19v1.54h-6.48v1.07
		h5.92v1.39h-5.92v1.07h5.94v1.43h-5.94v1.1h6.94V48.03z M139.88,50.95h-8.23v4.62h-1.91v-4.62h-8.11v-1.64h8.11v-0.84h1.91v0.84
		h8.23V50.95z M130.72,41.5v-1.07h-5.03v1.07H130.72z M130.72,43.96v-1.07h-5.03v1.07H130.72z M130.72,46.48v-1.1h-5.03v1.1H130.72z
		 M140,53.85l-1.07,1.51c-2.11-1.08-4.21-1.92-6.3-2.52l1.17-1.47C136.05,52.06,138.12,52.89,140,53.85z"/>
	<path class="st2" d="M161.16,53.5l-0.72,1.93l-5.35-0.02c-2.18,0-3.78-0.2-4.79-0.59c-1.01-0.39-1.8-0.89-2.36-1.49
		c-1.59,0.94-3.01,1.73-4.29,2.36l-1.12-1.58c4.17-2.1,7.42-4.08,9.74-5.96c2.32-1.87,4.15-3.94,5.46-6.2h-14.24v-1.79h7.59
		c-0.33-0.79-0.76-1.58-1.28-2.39l1.85-0.72c0.68,1.13,1.19,2.16,1.52,3.11h6.76v1.79c-2.03,3.83-5.51,7.3-10.44,10.42
		c0.38,0.38,0.99,0.68,1.85,0.9c0.86,0.22,1.76,0.32,2.72,0.32h2.13C158.21,53.58,159.87,53.55,161.16,53.5z"/>
	<path class="st2" d="M181.42,50.35h-8.21c-1.21,2.81-4.13,4.59-8.76,5.35l-0.9-1.8c4.07-0.72,6.59-1.9,7.54-3.55h-7.03v-1.54h7.57
		c0.1-0.44,0.14-0.91,0.14-1.38h1.89c-0.02,0.55-0.05,1.01-0.08,1.38h7.85V50.35z M181.84,46.82h-18.23V45.3h8.15v-1.34h-6.39v-1.49
		h6.39v-1.28h-7.29v-1.52h16.45v1.52h-7.25v1.28h6.37v1.49h-6.37v1.34h8.17V46.82z M170.94,38.97l-1.95,0.52
		c-0.46-0.66-0.97-1.26-1.54-1.83l1.87-0.62C169.92,37.63,170.46,38.27,170.94,38.97z M182.07,54.25l-1.16,1.47
		c-2.2-1.31-4.81-2.38-7.83-3.21l1.14-1.56C177.53,51.96,180.15,53.07,182.07,54.25z M178.23,37.47c-0.39,0.62-0.87,1.27-1.45,1.94
		l-2.06-0.51c0.66-0.68,1.18-1.31,1.55-1.87L178.23,37.47z"/>
	<path class="st2" d="M195.74,46.63c-0.48,0.27-1.12,0.57-1.92,0.9v6.03c0,0.54-0.14,1-0.43,1.38c-0.28,0.38-0.99,0.57-2.13,0.57
		c-0.39,0-0.71-0.01-0.95-0.04l-0.65-1.83c0.89,0.04,1.51,0.06,1.87,0.06c0.29,0,0.44-0.17,0.44-0.5v-4.89
		c-0.73,0.29-1.33,0.5-1.8,0.62l-0.46-1.78c1.11-0.38,1.87-0.66,2.27-0.82v-3.97h-2.16v-1.78h2.16v-3.35h1.85v3.35h1.52v1.78h-1.52
		v3.18c0.71-0.31,1.26-0.57,1.64-0.78L195.74,46.63z M208.19,42.13l-0.84,1.59l-1.74-1.03v0.82h-2.77v1.7h4.69v1.66h-4.69v1.89h3.82
		v6.74h-1.87v-0.94h-5.76v0.94h-1.85v-6.74h3.82v-1.89h-4.64v-1.66h4.64v-1.7h-2.67V42.7c-0.33,0.27-0.87,0.63-1.6,1.08l-1.03-1.5
		c2.62-1.52,4.52-3.27,5.67-5.25l1.87,0.52c-0.04,0.14-0.13,0.28-0.28,0.42C204.03,39.39,205.76,40.77,208.19,42.13z M204.8,52.9
		v-2.51h-5.76v2.51H204.8z M204.38,41.84c-0.9-0.68-1.71-1.47-2.44-2.37c-0.57,0.66-1.38,1.45-2.44,2.37H204.38z"/>
	<path class="st2" d="M229.25,51.42c-0.27,1.33-0.63,2.37-1.08,3.1c-0.45,0.73-1.02,1.1-1.73,1.1c-1.18,0-2.34-1.05-3.51-3.15
		c-1.18,0.88-2.47,1.66-3.89,2.36L218,53.26c1.62-0.76,3.04-1.6,4.25-2.51c-0.34-1.32-0.58-3.45-0.71-6.39h-4.39v2.9
		c1.05-0.21,2.21-0.51,3.49-0.88l0.04,1.83c-1.26,0.37-2.44,0.66-3.53,0.88v4.66c0,0.53-0.11,0.93-0.33,1.19s-0.5,0.43-0.83,0.51
		c-0.34,0.08-0.94,0.12-1.8,0.12c-0.65,0-1.29-0.02-1.91-0.05l-0.66-1.99c0.94,0.04,1.72,0.06,2.32,0.06c0.64,0,1.02-0.03,1.13-0.09
		c0.11-0.06,0.16-0.18,0.16-0.38v-3.63c-1.5,0.29-2.88,0.5-4.13,0.62l-0.34-1.74c1.35-0.15,2.84-0.39,4.47-0.72v-3.29h-4.41v-1.79
		h4.41V40.2c-0.94,0.14-2.13,0.28-3.57,0.4l-0.84-1.74c3.55-0.21,6.51-0.76,8.89-1.65l1.07,1.55c-1.33,0.47-2.54,0.82-3.63,1.05
		v2.78h4.37c-0.03-0.85-0.04-2.63-0.04-5.35h1.87c-0.02,1.82-0.02,3.6,0,5.35h5.73v1.79h-5.67c0.05,1.74,0.17,3.38,0.38,4.91
		c0.97-1.11,1.85-2.48,2.62-4.09l1.64,0.82c-1.14,2.29-2.37,4.03-3.68,5.23c0.4,0.82,0.78,1.42,1.12,1.8
		c0.34,0.38,0.61,0.57,0.79,0.57c0.48,0,0.91-1.08,1.28-3.24L229.25,51.42z M228.52,40.79l-1.52,1.13
		c-0.75-1.12-1.65-2.14-2.71-3.04l1.45-1.21C226.82,38.61,227.75,39.65,228.52,40.79z"/>
	<path class="st2" d="M239.49,52.59c-2.71,1.57-5.01,2.6-6.89,3.11l-0.96-1.6c2.23-0.68,4.35-1.61,6.34-2.79L239.49,52.59z
		 M250.09,50.97h-18.21v-1.76h3.07v-8.46h-2.83v-1.62h2.83V37.2h1.92v1.93h8.25V37.2h1.85v1.93h2.79v1.62h-2.79v8.46h3.13V50.97z
		 M245.12,42.45v-1.7h-8.25v1.7H245.12z M245.12,45.83V44.2h-8.25v1.63H245.12z M245.12,49.21v-1.68h-8.25v1.68H245.12z
		 M250.28,54.14l-0.95,1.54c-1.72-0.98-3.93-1.92-6.63-2.84l1.08-1.57C246.7,52.25,248.87,53.21,250.28,54.14z"/>
	<path class="st2" d="M259.89,40.66h-7.14v-1.69h2.82c-0.16-0.42-0.41-0.94-0.74-1.58l1.89-0.38c0.3,0.6,0.58,1.25,0.84,1.96h2.33
		V40.66z M259.31,43.72h-6.03v-1.63h6.03V43.72z M259.31,46.84h-6.03v-1.66h6.03V46.84z M259.35,55.02h-1.87v-0.88h-2.31v1.34h-1.88
		v-7.24h6.05V55.02z M257.48,52.44v-2.47h-2.31v2.47H257.48z M271.09,54.54h-8.1v0.94h-1.81V45.05c-0.29,0.44-0.54,0.79-0.77,1.06
		l-1.01-1.74c1.41-2.06,2.45-4.51,3.13-7.35l1.79,0.42c-0.29,1.17-0.6,2.21-0.95,3.13h2.44c-0.14-0.82-0.43-1.77-0.86-2.85
		l1.74-0.42c0.44,1.27,0.75,2.36,0.94,3.27h3.17v1.76h-3.37v2.29h3.09v1.72h-3.09v2.34h3.11v1.7h-3.11v2.43h3.67V54.54z
		 M265.63,44.61v-2.29h-2.65v2.29H265.63z M265.63,48.67v-2.34h-2.65v2.34H265.63z M265.63,52.8v-2.43h-2.65v2.43H265.63z"/>
</g>
<path class="st2" d="M281.74,52.53c0.36,0.14,0.66,0.42,0.82,0.77c0.16,0.35,0.16,0.76,0,1.11c-0.13,0.36-0.41,0.64-0.77,0.78
	c-0.36,0.15-0.78,0.15-1.14,0c-0.37-0.14-0.68-0.41-0.85-0.77c-0.16-0.35-0.16-0.76,0-1.11c0.14-0.36,0.43-0.65,0.79-0.78
	C280.96,52.37,281.37,52.37,281.74,52.53z M287.82,40.53L283.36,51l-1.78-0.71l3.94-10.62L287.82,40.53z"/>
<path d="M112.27,99.58l23.62,0.71c0.05-0.68,0.08-1.1,0.12-1.52c0.1-1.33,0.57-1.87,1.85-1.7c1.79,0.21,3.55,0.58,5.27,1.1
	c1.79,0.59,1.89,1.59,0.6,2.92c-0.29,0.4-0.44,0.88-0.42,1.37c0,7.23,0.06,14.45,0.19,21.68c0.08,4,0.39,8,0.55,12
	c0.33,4.05-2.69,7.59-6.73,7.92c-0.01,0-0.01,0-0.02,0c-1.45,0.19-2-0.12-2.27-1.53c-0.38-1.7-1-3.14-2.89-3.65
	c-0.21-0.06-0.32-0.52-0.48-0.79c0.24-0.15,0.5-0.27,0.77-0.35c0.72-0.13,1.48-0.12,2.19-0.31c1.08-0.24,1.8-1.26,1.67-2.36
	c-0.16-10.84-0.31-21.68-0.45-32.52c0-0.23,0-0.46-0.06-0.77l-23.84-0.73c0,2.74,0.06,5.4,0,8.06c-0.05,4.88-0.77,9.72-2.15,14.4
	c-1.28,4.61-3.88,8.74-7.48,11.89c-0.43,0.28-0.89,0.51-1.38,0.69c-0.03-0.5,0.01-1,0.12-1.49c1.8-5.33,2.83-10.88,3.06-16.5
	c0.35-6.47,0.38-13,0.48-19.44c0-1.2,0.51-1.64,1.58-1.67s2.35-0.1,3.53-0.06C111.82,97,112,97.22,112.27,99.58z"/>
<path d="M120.18,128.26l4.47-0.29c0.56-2.41,0.56-2.44,3-2c1.19,0.23,2.37,0.54,3.52,0.93c1.35,0.48,1.47,1.66,0.4,2.63
	c-0.3,0.26-0.49,0.61-0.56,1c-0.11,2.11-0.2,4.23-0.18,6.35c0,0.89-0.34,1.37-1.13,1.48c-0.99,0.17-2,0.25-3,0.23
	c-1.89-0.07-2-0.24-2.27-2.26l-3.36,0.39c-0.11,0.15-0.19,0.21-0.19,0.27c-0.11,2.12-0.29,2.32-2.43,2.61
	c-3.77,0.5-4,0.25-4.22-3.46c-0.14-2.74-0.39-5.48-0.68-8.21c-0.1-0.9,0.15-1.41,1-1.52c1.4-0.19,2.8-0.36,4.21-0.41
	S120.19,127.08,120.18,128.26z M120.8,135.26l3.67-0.35v-5.42l-4,0.22L120.8,135.26z"/>
<path d="M118.74,120.23v-6c-1,0.12-2,0.18-3,0.19c-0.37,0-0.72-0.47-1.08-0.72c0.3-0.28,0.58-0.73,0.93-0.79
	c1-0.16,2-0.17,3.19-0.25c0.07-1.92,0.14-3.79,0.21-5.65s0.36-2.23,2.26-2c1.78,0.23,3.55,0.56,5.3,1c1.08,0.28,1.47,1.31,0.72,2
	c-1.5,1.29-1,2.91-1.17,4.43l0.28,0.23c0.36-0.25,0.7-0.54,1-0.86c0.61-0.78,1.45-1.47,2.28-0.84c0.75,0.76,1.35,1.65,1.77,2.63
	c-0.25,0.3-0.58,0.52-0.95,0.64c-1.41,0.08-2.82,0-4.33,0v6c1.07,0.32,2,0.43,2.77-0.8c0.45-1.03,1.62-1.53,2.68-1.15
	c0.77,0.28,2.18,2.58,1.94,3.31c-0.2,0.42-0.59,0.71-1.05,0.78c-6.35-0.19-12.68-0.43-19-0.73c-0.39,0-0.77-0.45-1.15-0.7
	c0.38-0.25,0.75-0.71,1.14-0.73C115.2,120.18,117,120.23,118.74,120.23z"/>
<path d="M249.33,95.68c0.06-0.08,0.11-0.16,0.16-0.25c0.7-2.66,1-2.91,3.64-2.05c1.47,0.53,2.89,1.2,4.23,2
	c1.26,0.72,1.28,1.67,0.1,2.48c-0.66,0.42-1.08,1.14-1.12,1.92c-0.37,3.35-0.81,6.69-1.14,10c-0.1,1-0.49,1.58-1.47,1.61
	c-1.68,0-3.37,0-5,0s-1.2-1.34-1.24-2.26h-9.13c0,1.4-0.84,1.76-1.9,1.86c-1.44,0.15-2.88,0.37-4.32,0.43
	c-1.21,0-1.53-0.42-1.66-1.61c-0.53-4.91-1.06-9.83-1.69-14.73c-0.16-1.23,0.29-1.82,1.38-2c1.54-0.24,3.1-0.39,4.66-0.56
	c0.71-0.18,1.42,0.25,1.6,0.96c0.03,0.13,0.05,0.27,0.04,0.41c0.06,0.4,0.14,0.79,0.24,1.18L249.33,95.68z M247.64,107.17L249,97.3
	l-12.26-0.63l0.7,5.07c2.52,0.24,2.73,0.17,4.4-1.42c1-0.91,2.05-1.22,2.85-0.51c0.78,0.7,1.43,1.54,1.92,2.47
	c0.32,0.6,0.14,1.24-0.85,1.17c-1.25-0.08-2.51-0.1-3.76-0.11c-1.47,0-2.94,0-4.47,0l0.45,4.24L247.64,107.17z"/>
<path d="M240,132.2l-1,0.66c-0.54,0.47-1.15,0.84-1.81,1.1c-1.24,0.22-2.49,0.32-3.75,0.3c-1.45,0-1.92-0.57-2-2
	c-0.18-2.54-0.39-5.09-0.67-7.62c-0.11-1,0.11-1.58,1.09-1.7c1.66-0.24,3.33-0.4,5-0.46c0.47,0,1,0.59,1.43,0.92
	c0.23,0.16,0.43,0.48,0.66,0.5c3.13,0.15,6.27,0.27,9.27,0.39c0.19-0.22,0.27-0.27,0.28-0.34c0.49-2.21,0.68-2.39,2.94-1.86
	c1.56,0.38,3.1,0.84,4.6,1.4c1.39,0.51,1.47,1.39,0.38,2.38c-0.37,0.31-0.62,0.74-0.72,1.21c-0.22,1.71-0.38,3.43-0.46,5.15
	c-0.07,1.35-0.31,1.83-1.64,2c-1.2,0.18-2.42,0.18-3.62,0c-0.89-0.35-1.73-0.83-2.47-1.44c-0.06,0.23-0.09,0.46-0.09,0.7
	c0.21,2.34,0.33,4.71,0.69,7c0.72,4.58-1.42,7.5-6,8c-1.34,0.14-1.7-0.09-1.92-1.42c-0.21-1.65-1.45-2.97-3.08-3.3
	c-0.36-0.1-0.63-0.51-0.95-0.78c0.37-0.2,0.77-0.34,1.19-0.42c3.39,0,3.48-0.11,3.16-3.43C240.23,137,240.17,134.76,240,132.2z
	 M238.62,125.52l0.48,5.2l8.77,0.38l0.32-5.2L238.62,125.52z"/>
<path d="M244.78,118.35c3.25,0,6.5,0,9.75,0c0.33-0.06,0.63-0.22,0.86-0.46c0.52-0.48,0.94-1.06,1.48-1.5
	c0.83-0.67,1.7-1.32,2.86-0.57c1.39,0.71,2.33,2.06,2.51,3.61c0.05,0.92-0.71,0.86-1.36,0.83c-4.12-0.16-8.23-0.41-12.35-0.46
	c-7.61-0.08-15.22,0-22.83-0.07c-0.45,0-1.18-0.16-1.28-0.43c-0.31-0.84,0.31-1.07,1-1.08l9.3-0.14c2.23,0,4.47,0,7.13,0l-3.17-6.08
	c0.29-0.13,0.6-0.21,0.91-0.26c2.32-0.13,4.64,0.27,6.78,1.17c1.61,0.68,1.86,1.87,0.63,3.1c-0.71,0.71-1.51,1.32-2.28,2
	L244.78,118.35z"/>
<path d="M225.67,145c0.26-0.55,0.36-0.79,0.48-1c1.3-2.45,2.67-4.87,3.88-7.36c0.51-1.06,1.14-1.53,2.18-1.08
	c1.65,0.71,3.27,1.5,4.84,2.37c0.43,0.3,0.69,0.79,0.69,1.31c-0.06,0.37-0.7,0.68-1.13,0.94s-1.15,0.5-1.65,0.85
	c-2.31,1.7-4.9,2.98-7.66,3.76C226.76,144.89,226.22,144.96,225.67,145z"/>
<path d="M252.94,136.08c1.81,0.48,3.64,0.9,5.42,1.47c0.98,0.29,1.54,1.32,1.25,2.3c-0.02,0.06-0.04,0.12-0.06,0.17
	c-0.61,1.35-1.4,2.61-2.35,3.75c-1.37,1.52-2.79,1-3.58-0.84c-0.69-1.65-1.61-3.21-2.42-4.81c-0.23-0.43-0.42-0.88-0.63-1.32
	c0.49-0.16,1-0.35,1.49-0.47c0.27-0.03,0.55-0.03,0.82,0L252.94,136.08z"/>
<path d="M283.21,100.13l12.05,0.68c0.55,0,1.11,0,1.64,0c1.21,0.19,2,0,1.85-1.51c-0.07-0.59,0.36-1.13,0.95-1.19
	c0.16-0.02,0.32,0,0.48,0.05c1.56,0.34,3.08,0.82,4.55,1.43c1.16,0.52,1.15,1.54,0.32,2.52c-0.37,0.42-0.61,0.94-0.68,1.49
	c-0.3,3.91-0.54,7.83-0.78,11.75c-0.1,1.67-0.27,1.88-1.94,2c-0.78,0-1.56,0-2.35,0c-1.68-0.08-1.68-0.09-2.09-1.79h-3.09
	c0,1.43,0,2.76,0,4.09c0,0.26,0.18,0.7,0.34,0.74c0.37,0.05,0.76,0.01,1.11-0.12c0.15,0,0.23-0.3,0.35-0.46c1.63-2,4-1.63,4.94,0.84
	c0.41,1,0.13,1.47-1,1.47h-5.69v3.17c1.76-0.14,3.46-0.3,5.17-0.38c0.57,0,1.59,0,1.64,0.27c0.22,0.94-0.77,0.92-1.31,1.11
	c-4.82,1.75-9.66,3.44-14.49,5.17c-0.7,0.25-1.38,0.59-2,1c-0.8,0.51-1.51,0.47-1.83-0.41c-0.61-1.68-1.12-3.41-1.56-5.14
	c-0.21-0.84,0.38-1.21,1.17-1.22h4.36h1.91v-3.39c-1.61,0-3.17,0-4.72,0c-0.44,0-1.17-0.33-1.23-0.61c-0.17-0.81,0.55-0.9,1.16-0.93
	c1.33-0.07,2.67-0.08,4-0.21c0.31,0,0.81-0.4,0.82-0.64c0.09-1.29,0-2.58,0-4l-3.4,0.31c0.09,1.38-0.79,1.72-1.9,1.79l-2.59,0.12
	c-1.08,0-1.56-0.48-1.59-1.56c-0.05-2.27-0.13-4.54-0.24-6.83c-0.16-3.17-0.33-6.35-0.56-9.52c-0.07-1,0.25-1.58,1.25-1.76
	c0.72-0.18,1.45-0.32,2.18-0.42C282.74,97.82,282.74,97.85,283.21,100.13z M283.21,101.64l0.25,4.24l4.09,1.58v-5.53L283.21,101.64z
	 M293.66,102.3v6.93c0.37-0.62,0.66-1.3,0.85-2c0.74-2.75,1-2.43,3.27-1.38c0.06,0,0.14,0,0.31,0l0.28-3.34L293.66,102.3z
	 M297.83,109.13c-1,0.67-1.87,1.32-2.79,1.85c-1.68,1-1.74,1-1.29,3h3.72L297.83,109.13z M287.63,110.83
	c-0.48,0.31-0.79,0.55-1.13,0.73c-1.45,0.8-1.77,0.65-2.12-1c-0.16-0.76-0.35-1.53-0.57-2.5v6.52l3.82-0.22V110.83z"/>
<path d="M321.32,136.42l-6.57,0.68c0.07,0.73,0.09,1.35,0.19,2c0.19,0.57-0.12,1.19-0.7,1.38c-0.06,0.02-0.13,0.04-0.19,0.04
	c-1.68,0.33-3.38,0.64-5.08,0.86c-0.84,0.11-1.25-0.4-1.33-1.27c-0.51-5.43-1.05-10.86-1.57-16.29c-0.07-0.74,0.17-1.37,1-1.53
	c1.21-0.3,2.44-0.48,3.69-0.53c0.72,0.17,1.4,0.48,2,0.92c0.45,0.23,0.89,0.48,1.55,0.83c0-1.6,0-2.89,0-4.17
	c-0.21-6.05-0.44-12.1-0.68-18.13c-0.05-1.29,0.38-1.93,1.69-1.8c2.02,0.2,4.02,0.54,6,1c1.14,0.27,1.42,1.13,0.7,2.08
	c-0.58,0.83-0.84,1.85-0.72,2.86c0,2.31,0,4.62,0,7c1.25,0.14,2.27,0.19,2.89-1.08c0.31-0.5,0.7-0.95,1.17-1.31
	c0.79-0.86,2.12-0.94,3-0.16c0.89,0.7,1.68,1.52,2.35,2.43c0.68,0.94,0.2,1.62-1,1.65l-8.29,0.21v9.75
	c0.61,0.33,1.38,0.11,1.71-0.51c0.01-0.03,0.03-0.06,0.04-0.08c1.09-1.64,1.54-1.79,3.46-1.15c1.19,0.4,2.34,0.89,3.45,1.48
	c0.79,0.4,1.26,1.29,0.5,1.92c-1.6,1.32-1.49,3.13-1.66,4.83c-0.27,2.65-0.37,5.32-0.46,8c0,0.9-0.34,1.46-1.24,1.53
	c-1.55,0.11-3.1,0.2-4.65,0.21c-1,0-1.36-0.59-1.27-1.56C321.37,137.82,321.32,137.19,321.32,136.42z M313.49,124.72
	c0.26,2.53,0.51,5,0.77,7.42c0.11,1.09,0.23,2.17,0.36,3.38c1.28-0.12,2.48-0.23,3.68-0.36c1-0.11,2.34,0.09,2.92-0.47
	s0.34-1.9,0.46-2.89c0-0.12,0-0.24,0-0.35c0.19-1.94,0.38-3.89,0.58-5.91L313.49,124.72z"/>
<path d="M283.23,139c-0.28,0.83-0.58,2-1.05,3.09c-0.34,0.85-1.3,1.26-2.14,0.92c-0.05-0.02-0.09-0.04-0.14-0.06
	c-1.54-0.51-2.82-1.61-3.56-3.06c-0.46-0.69-0.27-1.62,0.42-2.08c0.03-0.02,0.05-0.03,0.08-0.05c1.49-1.14,2.92-2.34,4.36-3.53
	c0.73-0.62,1.17-0.52,1.36,0.45C282.81,136,283,137.33,283.23,139z"/>
<path d="M292.41,136.81c-0.15-1.44-0.3-2.88-0.47-4.32c-0.12-1,0.21-1.37,1.06-0.84c1.52,0.93,2.96,2,4.28,3.19
	c0.75,0.64,0.84,1.77,0.2,2.52c-0.15,0.17-0.32,0.31-0.52,0.42c-1.02,0.7-2.12,1.28-3.28,1.73c-0.95,0.39-1.38,0-1.39-1
	c0-0.28,0-0.55,0-0.83v-0.82L292.41,136.81z"/>
<path d="M286.59,141.84c-1.66,0-2-0.5-1.75-1.61c0.47-1.9,0.85-3.82,1.3-5.72c0.14-0.38,0.32-0.74,0.54-1.07
	c0.35,0.14,0.69,0.33,1,0.55c1.42,1.26,2.41,2.94,2.84,4.79c0.37,0.87-0.03,1.88-0.91,2.26c-0.12,0.05-0.25,0.09-0.38,0.11
	C288.21,141.48,287.17,141.69,286.59,141.84z"/>
<path d="M299.18,129c1.32,0.33,2.67,0.58,3.95,1c0.85,0.15,1.41,0.97,1.26,1.81c-0.04,0.22-0.13,0.43-0.26,0.62
	c-0.81,1.14-1.75,2.16-2.82,3.06c-0.63,0.56-1.19,0.2-1.49-0.62c-0.58-1.56-1.22-3.11-1.86-4.66
	C297.58,129.34,297.85,129.09,299.18,129z"/>
<path d="M169.3,137.29c-1.88,2.32-3.92,4.79-5.89,7.32c-0.77,1-1.58,1.25-2.28,0.26c-1.35-1.9-2.53-3.93-3.69-6
	c-0.48-0.82,0.11-1.27,0.9-1.53c1.44-0.48,2.89-1,4.31-1.52c0.27-0.1,0.63-0.46,0.64-0.7c0-3.64,0-7.28,0-11l-5.41,0.53
	c-0.63,0.07-1.43,0.23-1.47-0.67s0.78-0.78,1.39-0.85l5.49-0.67c0.07-0.4,0.12-0.66,0.16-0.93c0.34-2.62,0.58-2.83,3.14-2
	c1.52,0.49,3.01,1.1,4.44,1.82c1.42,0.71,1.42,1.74,0.21,2.75c-0.35,0.27-0.59,0.66-0.67,1.1c-0.1,3.25-0.15,6.51-0.14,9.76
	c0.1,0.49,0.35,0.94,0.72,1.28c2.56,2.96,6.31,4.62,10.22,4.52c2.74-0.11,5.47-0.36,8.18-0.77c0.38-0.09,0.77-0.15,1.16-0.18
	c0.31,0,0.77,0.12,0.87,0.33c0.09,0.32,0,0.67-0.22,0.92c-1.61,1.15-2.39,3.13-2,5.07c0.14,0.96-0.52,1.85-1.47,1.99
	c-0.04,0.01-0.07,0.01-0.11,0.01c-4.52,0.64-11.3,0.17-14.6-4.21C171.76,141.79,170.46,139.57,169.3,137.29z"/>
<path d="M194.24,112h-7.41c-0.08,1.31-0.91,1.7-2,1.78s-2.33,0.17-3.5,0.23s-1.47-0.53-1.56-1.51c-0.28-3.28-0.57-6.56-0.88-9.84
	c-0.1-1-0.24-2-0.4-3c-0.23-0.77,0.21-1.57,0.98-1.8c0.11-0.03,0.22-0.05,0.33-0.06c1.2-0.18,2.41-0.29,3.62-0.33
	c0.83,0,1.63,0.08,2,1.12c0.08,0.24,0.79,0.37,1.21,0.36c0.18,0,0.46-0.46,0.5-0.75c0.21-1.31,0.37-2.64,0.5-4
	c0.15-1.56,0.51-1.94,2-1.45c1.58,0.54,3.11,1.24,4.56,2.07c0.95,0.53,0.73,1.64-0.26,2.12c-1.28,0.63-2.54,1.3-3.81,2l0.06,0.31
	h5.34c0.78-1.86,1-2,3.11-1.51c1.28,0.33,2.53,0.79,3.71,1.39c1.14,0.56,1.15,1.65,0.33,2.61c-0.47,0.54-0.78,1.19-0.9,1.89
	c-0.33,2.72-0.57,5.46-0.77,8.2c-0.08,1.08-0.38,1.81-1.61,1.83s-2.58,0.14-3.87,0.11C194.5,113.73,194.18,113,194.24,112z
	 M185.7,100.65c0.01,0.52,0.04,1.03,0.11,1.54c0,0.22,0.29,0.59,0.43,0.58c1.19-0.05,2.46,0.6,3.58-0.42
	c0.41-0.52,1.17-0.61,1.69-0.19c0.07,0.06,0.14,0.12,0.19,0.19c0.39,0.64,0.73,1.3,1,2c-0.64,0.14-1.28,0.3-1.93,0.4
	c-0.27-0.01-0.54-0.04-0.81-0.11l-3.88-0.32l0.21,2.37c1.36,0.07,2.71,0.56,3.75-0.7c0.13-0.15,0.33-0.23,0.53-0.21
	c0.58,0.12,1.12,0.37,1.58,0.74c0.33,0.36,0.32,1,0.47,1.57c-0.54,0.14-1.09,0.24-1.64,0.29c-1.47,0-2.95,0-4.55,0l0.2,1.9h7.75
	l0.93-9.23L185.7,100.65z"/>
<path d="M193.21,127.22c1.36,0,2.37,0,3.38,0c0.33-0.04,0.63-0.2,0.86-0.44c0.42-0.41,0.73-0.93,1.14-1.34
	c0.63-0.73,1.72-0.82,2.46-0.2c0.67,0.48,1.26,1.06,1.75,1.72c0.26,0.42,0.35,0.92,0.25,1.4c-0.06,0.21-0.72,0.39-1.11,0.38
	c-3.1,0-6.21,0-9.3-0.2c-1.33-0.08-2.08,0.22-2.34,1.54c-0.11,0.38-0.24,0.76-0.39,1.12h4.32c0.87-1.81,0.88-1.88,3-1.37
	c1.33,0.32,2.62,0.78,3.85,1.38c1.13,0.55,1.06,1.16,0.37,2.16c-0.47,0.69-0.76,1.49-0.83,2.32c-0.22,4.1-3.34,5.07-6.24,5
	c-0.38,0-0.92-0.6-1.09-1c-0.35-1.29-1.45-2.23-2.77-2.38c-0.32,0-0.58-0.48-0.87-0.73c0.33-0.18,0.67-0.36,1-0.52
	c0.12-0.03,0.23-0.03,0.35,0c2.81-0.09,2.87-0.16,2.94-3.14c-1.58-0.07-3.17-0.15-4.76-0.17c-0.23,0-0.52,0.3-0.7,0.53
	c-1.93,2.35-4.53,4.06-7.46,4.9c-0.33,0.05-0.67,0.05-1,0c0.04-0.34,0.13-0.68,0.27-1c1.8-2.52,2.93-5.47,3.28-8.55
	c-1.18,0-2.31,0.05-3.43,0c-0.34,0-0.65-0.37-1-0.57c0.32-0.22,0.64-0.65,1-0.65c3.25,0,6.5,0,10.18,0
	c-0.63-1.3-1.12-2.24-1.56-3.19c-0.13-0.32-0.22-0.66-0.29-1c0.32-0.13,0.66-0.21,1-0.22c1.29,0.11,2.56,0.31,3.82,0.61
	c1.77,0.5,2,1.38,0.82,2.85C193.86,126.46,193.66,126.69,193.21,127.22z"/>
<path d="M179,116.45h9.79l-1.44-3.78c1.93-0.43,3.95-0.16,5.69,0.77c0.67,0.33,0.94,1.14,0.6,1.81c-0.06,0.11-0.13,0.22-0.21,0.31
	c-0.25,0.32-0.52,0.63-0.81,0.92h6.61c0.59,0,1.18-0.11,1.77-0.08s0.94-0.22,1.07-0.9c0.37-2,1.08-2.36,2.84-1.3
	c1.52,0.95,2.95,2.04,4.27,3.25c0.56,0.45,0.64,1.26,0.2,1.81c-0.18,0.22-0.43,0.38-0.71,0.45c-2.2,0.78-4.41,1.54-6.62,2.3
	c-0.17,0.09-0.36,0.14-0.56,0.16c-0.37,0.04-0.74-0.03-1.07-0.19c-0.15-0.12-0.07-0.65,0-1c0.33-1,0.72-2,1.14-3.1h-22.49
	c-0.26,1.3-0.47,2.69-0.84,4s-1.1,1.84-2.57,1.44c-1.63-0.42-2.97-1.58-3.63-3.12c-0.51-0.9-0.2-2.04,0.69-2.55
	c0.08-0.05,0.16-0.08,0.25-0.12c1.75-0.73,3.24-1.96,4.3-3.53c0.15-0.25,0.65-0.53,0.83-0.45c0.3,0.2,0.5,0.51,0.57,0.86
	C178.82,115.08,178.93,115.76,179,116.45z"/>
<path d="M162.2,105.57c2.11,0.43,4.19,0.98,6.24,1.65c3.32,1.24,3.76,3.36,1.39,6c-0.63,0.69-1.35,1.3-2.14,1.8
	c-1.43,0.94-2.53,0.43-3.24-1.12c-1-2.23-2.21-4.38-3.31-6.57c-0.21-0.42-0.34-0.88-0.51-1.32L162.2,105.57z"/>
<path d="M179.74,125.3c-0.73,0-0.89-0.45-0.49-1c1.31-1.85,2.64-3.69,4-5.46c0.35-0.35,0.84-0.49,1.32-0.39
	c1.3,0.77,2.53,1.64,3.69,2.61c0.41,0.27,0.52,0.81,0.26,1.22c-0.13,0.2-0.33,0.34-0.57,0.38c-2.53,0.89-5.09,1.68-7.64,2.51
	C180.16,125.24,180,125.25,179.74,125.3z"/>
<path d="M195.67,118.66c0.53,0.03,1.06,0.1,1.59,0.19c0.91,0.22,1.9,0.4,2,1.61s-0.73,3.24-1.7,3.47c-0.62,0.13-1.26,0-1.78-0.35
	c-1.2-1-2.34-2.06-3.43-3.17c-0.23-0.23-0.53-0.62-0.46-0.84s0.51-0.46,0.82-0.51C193.72,118.88,194.74,118.78,195.67,118.66z"/>
<polygon class="st3" points="40.81,114.28 44.43,129.23 44.61,129.98 51.37,128.35 51.19,127.59 47.58,112.66 "/>
<path class="st3" d="M82.24,131L82.24,131l-7-6.54L39,133.19l2,8.26c0.12,0.48,0.6,0.77,1.08,0.66l2.42-0.59
	c1.16,2.74,4.32,4.03,7.06,2.87c2.14-0.9,3.46-3.08,3.28-5.39l1.24-0.3c1.14,2.75,4.3,4.05,7.05,2.91c2.16-0.9,3.49-3.08,3.3-5.41
	l1.25-0.3c1.19,2.73,4.37,3.97,7.1,2.78c2.07-0.9,3.36-3.01,3.22-5.26l3.8-0.92c0.48-0.11,0.78-0.6,0.67-1.08
	c-0.04-0.17-0.13-0.33-0.26-0.45L82.24,131z M50.31,142.91c-1.93,0.44-3.86-0.77-4.3-2.7s0.77-3.86,2.7-4.3
	c1.92-0.44,3.83,0.75,4.29,2.66c0.46,1.93-0.74,3.88-2.67,4.34C50.32,142.91,50.32,142.91,50.31,142.91z M61.9,140.1
	c-1.93,0.46-3.87-0.72-4.33-2.65c-0.46-1.93,0.72-3.87,2.65-4.33c1.93-0.46,3.87,0.72,4.33,2.65c0,0,0,0,0,0
	C65.01,137.7,63.83,139.64,61.9,140.1z M73.51,137.3c-1.93,0.47-3.87-0.71-4.34-2.64c-0.47-1.93,0.71-3.87,2.64-4.34
	c1.93-0.47,3.87,0.71,4.34,2.64c0,0.01,0.01,0.02,0.01,0.04C76.61,134.92,75.43,136.84,73.51,137.3z"/>
<path class="st3" d="M55,102.47c-0.71-1.25-5-7.68-14.42-5.41c-10.31,2.49-10.4,11.52-10.41,11.61c0.01,0.5,0.41,0.9,0.91,0.9h0.23
	l23.22-5.62l0,0c0.48-0.12,0.77-0.6,0.66-1.08C55.16,102.72,55.09,102.59,55,102.47z"/>
<path class="st3" d="M76.34,112.41c-1.63-1.67-3.98-2.42-6.27-2l0,0l-0.38,0.09l-14.78,3.57l-1.71-7c-0.11-0.48-0.6-0.78-1.08-0.67
	l-17.64,4.27c-0.48,0.12-0.77,0.6-0.66,1.08l4.77,19.73l4.29-1L39,114.6c-0.19-0.94,0.41-1.86,1.35-2.06l0,0l6.76-1.64
	c0.93-0.25,1.88,0.29,2.14,1.22c0,0,0,0,0,0l0,0l3.82,15.81l23.15-5.59c2.78-2.69,2.84-7.12,0.15-9.9
	C76.36,112.43,76.35,112.42,76.34,112.41z"/>
<path class="st3" d="M67.46,98.82c-0.07-0.01-0.13-0.01-0.2,0l-7.65,1.85c-0.48,0.1-0.79,0.58-0.68,1.06c0,0,0,0.01,0,0.01
	c0.01,0.09,0.03,0.18,0.07,0.26l3.7,7.65c0.18,0.37,0.6,0.57,1,0.48l0,0l4.15-1c0.42-0.09,0.72-0.47,0.71-0.9l-0.21-8.49
	c0.01-0.5-0.38-0.91-0.88-0.92C67.47,98.82,67.46,98.82,67.46,98.82z"/>
<circle class="st3" cx="72.65" cy="133.79" r="1.29"/>
<circle class="st3" cx="61.06" cy="136.6" r="1.29"/>
<circle class="st3" cx="49.45" cy="139.4" r="1.29"/>
<g id="_2RFuhI.tif">
	<path class="st3" d="M350.06,137.65c0.27-0.64,0.94-1.02,1.63-0.92c3.05,0,6.1,0,9.15,0h0.47v-10.07c-0.36,0-0.73,0-1.09-0.09
		c-2.19-0.34-3.82-2.2-3.86-4.42c0-0.84,0-1.68,0-2.53c0-0.68,0.56-1.24,1.24-1.24c0.68,0,1.24,0.56,1.24,1.24l0,0
		c0,0.8,0,1.6,0,2.4c-0.03,1.14,0.88,2.09,2.02,2.12c0.15,0,0.31-0.01,0.46-0.04v-6.79c0.7-0.56,1.62-0.77,2.49-0.58v2.4
		c1.49,0.19,2.27-0.57,2.53-2.43h2.44c0.11,1.34-0.37,2.66-1.33,3.6c-0.95,0.96-2.27,1.45-3.61,1.36v15.05H370v-3.45h-1.16
		c-0.69,0.06-1.29-0.45-1.36-1.13c-0.06-0.69,0.45-1.29,1.13-1.36c0.07-0.01,0.15-0.01,0.22,0h2v-1.66h-1.14
		c-0.68,0.05-1.27-0.46-1.32-1.14c-0.01-0.16,0.01-0.32,0.06-0.47c0.53-2.17,1.07-4.33,1.62-6.5c0.11-0.61,0.67-1.05,1.29-1h16.45
		c0.62-0.04,1.17,0.39,1.28,1c0.56,2.2,1.11,4.41,1.64,6.62c0.17,0.65-0.22,1.31-0.87,1.47c-0.11,0.03-0.22,0.04-0.34,0.04h-1.21
		v1.66c0.68,0,1.37,0,2,0c0.68,0,1.23,0.55,1.23,1.23c0,0.2-0.05,0.39-0.13,0.56c-0.2,0.43-0.64,0.69-1.11,0.68
		c-0.39,0-0.79,0-1.21,0v3.48h2.08c0.47-0.02,0.91,0.23,1.13,0.64c0.33,0.6,0.12,1.35-0.48,1.69c-0.16,0.09-0.34,0.14-0.52,0.15
		h-0.46c-13.06,0-26.13,0-39.2,0c-0.69,0.09-1.35-0.29-1.62-0.93L350.06,137.65z M372.54,136.71h14v-3.43h-14V136.71z
		 M373.36,130.71h12.39v-1.6h-12.39L373.36,130.71z"/>
	<path class="st3" d="M366.88,96.79c0.63,0.14,1.25,0.34,1.84,0.59c1.71,0.84,2.84,2.54,2.95,4.44c0,0.21,0.14,0.4,0.34,0.47
		c3.14,1.36,4.59,5.01,3.23,8.15c-0.81,1.88-2.51,3.24-4.52,3.63c-0.46,0.08-0.93,0.13-1.4,0.12c-2.51,0-5,0-7.53,0
		c-0.23,0-0.45,0.09-0.62,0.23c-2.74,2.45-6.94,2.21-9.39-0.52c-0.85-0.95-1.41-2.13-1.61-3.39c-0.02-0.08-0.04-0.15-0.07-0.23
		v-1.58c0-0.08,0.06-0.17,0.08-0.26c0.34-2.17,1.75-4.03,3.76-4.92c0.34-0.09,0.54-0.44,0.45-0.78c0,0,0,0,0-0.01
		c-0.3-2.04,0.67-4.06,2.45-5.1c0.7-0.37,1.44-0.65,2.21-0.86h1.24c0.98,0.13,1.92,0.53,2.7,1.14c0.35-0.24,0.71-0.44,1.09-0.62
		c0.54-0.21,1.12-0.35,1.68-0.52L366.88,96.79z"/>
	<path class="st3" d="M392.82,88.8c0.66,0.27,1.04,0.97,0.91,1.67c0,0.3,0,0.6,0,0.9c0.5,0.22,1,0.44,1.48,0.64
		c0.07,0,0.2,0,0.27-0.1c0.28-0.25,0.53-0.52,0.8-0.78c0.4-0.55,1.18-0.68,1.73-0.28c0.55,0.4,0.68,1.18,0.28,1.73
		c-0.08,0.11-0.18,0.21-0.29,0.29c-0.3,0.31-0.77,0.57-0.85,0.93s0.4,1.24,0.55,1.63c0.05,0.14-0.06-0.18,0,0c0.43,0,0.87,0,1.31,0
		c0.68,0,1.24,0.56,1.24,1.24c0,0.68-0.56,1.24-1.24,1.24l0,0c-0.43,0-0.85,0-1.27,0c-0.22,0.5-0.44,1-0.63,1.45
		c-0.02,0.11,0.01,0.23,0.09,0.31c0.25,0.28,0.53,0.53,0.78,0.8c0.49,0.48,0.5,1.26,0.03,1.75c-0.01,0.01-0.02,0.02-0.03,0.03
		c-0.49,0.48-1.27,0.48-1.76,0c-0.31-0.29-0.57-0.76-0.92-0.85s-0.75,0.25-1.13,0.39c-0.15,0.06-0.31,0.1-0.5,0.16
		c0,0.44,0,0.88,0,1.32c0.06,0.69-0.45,1.3-1.13,1.36s-1.3-0.45-1.36-1.13c-0.01-0.07-0.01-0.15,0-0.22V102
		c-0.49-0.22-1-0.43-1.45-0.63c-0.11-0.01-0.22,0.02-0.3,0.1c-0.28,0.25-0.53,0.53-0.8,0.78c-0.45,0.51-1.24,0.56-1.75,0.11
		c-0.51-0.45-0.56-1.24-0.11-1.75c0.04-0.04,0.07-0.08,0.11-0.11c0.3-0.31,0.76-0.58,0.85-0.93s-0.25-0.75-0.4-1.13l-0.16-0.5
		c-0.42,0-0.85,0-1.28,0c-0.68,0-1.24-0.56-1.24-1.24c0-0.68,0.56-1.24,1.24-1.24c0.42,0,0.83,0,1.22,0c0.22-0.5,0.44-1,0.64-1.46
		c0.01-0.11-0.02-0.22-0.1-0.3c-0.25-0.28-0.53-0.53-0.79-0.8c-0.48-0.49-0.48-1.27,0-1.76c0.48-0.48,1.27-0.48,1.75,0
		c0.29,0.26,0.54,0.56,0.83,0.81c0.1,0.07,0.23,0.1,0.35,0.06c0.23-0.07,0.45-0.21,0.68-0.3c0.23-0.1,0.47-0.18,0.71-0.25
		c0.09-1-0.32-2.09,0.93-2.62L392.82,88.8z"/>
</g>
</svg>
