<svg id="圖層_1" data-name="圖層 1" xmlns="http://www.w3.org/2000/svg" viewBox="0 0 260 60"><path d="M130.19,30.73c1.8,2.56,3.67,5.19,5.88,8.31,1.76-2.64,3.3-4.95,4.83-7.26l.73.31-2.76,9.47c2.51,2.72,5.49,4.6,9.8,2-1.91,4.5-7.84,5.28-13.68,2.24a17.08,17.08,0,0,1-13.59,2.79c-5.77-1.11-8.79-6.52-7-12.12a12.91,12.91,0,0,1,5.23-6.76c1.5-1,1.83-1.93,1.42-3.85a17.06,17.06,0,0,1,.06-7.69c1.6-5.73,9.49-7.82,14.1-4,3.33,2.74,3.69,8,.52,11.72C134.27,27.63,132.27,29,130.19,30.73Zm-2.56-5.26a55.62,55.62,0,0,0,5.51-5.35,3.35,3.35,0,0,0-.41-4.55,6.34,6.34,0,0,0-4-1.34c-1.79.07-2.51,1.73-2.81,3.36C125.41,20.13,126.21,22.44,127.63,25.47Zm-3.08,8.67a32.6,32.6,0,0,0-3.36,3.91,3.48,3.48,0,0,0,2,5.35,9.8,9.8,0,0,0,7.8-.82Z"/><path d="M193.2,34.46c-1.94-.57-3.06-.16-3.46,2.2a61.41,61.41,0,0,1-2.25,7.4h13.66a9.55,9.55,0,0,0-3.84,6.38c-.07.4-1.22.87-1.85.86-3.82-.1-7.61-.49-10.94-2.6a1.81,1.81,0,0,0-2.36.11c-1.36.92-2.86,1.65-4.3,2.45l-.46-.61c.86-1.1,1.69-2.23,2.59-3.29a2.24,2.24,0,0,0,.16-3.09,35.09,35.09,0,0,1-2.23-5l.52-.35,4.2,3.78L184.42,35l-.66-.56c-.68.5-1.3,1.28-2.06,1.44a21,21,0,0,1-5.13.41c-.3,0-.7-1.53-.75-2.38-.15-3-.08-5.93-.27-8.89-.11-1.62.44-2.43,2-2.3s3.7-1,4.43,1.72c.09.33,1.62.28,2.66.44v-6l-8.6-.44,0-.76c2.71-.91,5.58,0,8.52-.47V10c2.39.56,4.51,1,6.56,1.61.36.11.69,1.2.58,1.75a34,34,0,0,1-1.25,4c1.69.64,2.72.82,3.93-.34a3.93,3.93,0,0,1,3.17-1.07c1.49.49,2.36,2,2.42,4l-9-.65v5.65c1.24.1,2.6.67,3-1.34.06-.28.95-.59,1.41-.54a17.4,17.4,0,0,1,3.43.7c1.59.52,2.16,1.13,1.37,3.18s-.39,4.73-.61,7.12c-.09.93-.31,2.51-.76,2.61a13.22,13.22,0,0,1-4.82.19C193.69,36.75,193.49,35.29,193.2,34.46Zm-11.14-8.23v7c1.86.37,2.77-.13,2.62-2a21.73,21.73,0,0,1,.09-2.67C184.89,26,184.89,26,182.06,26.23Zm11.43,6.59V26.45H190.9c-.13,2.15-.27,4.22-.41,6.37Z"/><path d="M157.58,32.24a34.81,34.81,0,0,0,2-3.32c1.74-3.89,3.52-7.77,5-11.75.62-1.63,1.27-2.2,2.82-1.4,1.28.66,2.57,1.32,3.79,2.09a1.32,1.32,0,0,1,.31,2.25c-1.68,2-3.31,4-5.13,6.16.93.24,1.55.43,2.19.56,1.7.37,2.83.91,1.4,2.88-.32.46-.15,1.32-.1,2,.22,3,.42,6.06.73,9.07.15,1.55-.47,2.21-2,2.55-4.54,1-4.58,1.07-4.93-3.44-.25-3.28-.46-6.56-.7-10.14l-4.86,3.18Z"/><path d="M247,32.16c-.53-3.26,1-3.15,2.71-2.78a13.48,13.48,0,0,1,3.15.94c.44.22,1,1.27.8,1.58-1.56,2.82-.57,5.69-.28,8.52.31,3-.77,5.5-3,6.44-1.42.59-2.49.68-3.33-1.12-.5-1.08-1.85-1.76-2.91-2.69-.05.08,0-.18.15-.23,3.24-1.06,3.23-1.06,2.93-4.39-.15-1.71-.27-3.43-.42-5.33l-4.58-.74c.19,5.33.42,10.49.55,15.64.09,3.42-2.09,4.93-5.4,3.76a1.85,1.85,0,0,1-.84-1.38c-.32-6.56-.6-13.11-.78-19.67A2.21,2.21,0,0,1,236.91,29a11.06,11.06,0,0,1,3.27-.37c.44,0,1.22.23,1.27.47C242.06,32.26,244.81,30.72,247,32.16Z"/><path d="M236.11,12.48c5.59,4.93,12.56,5.4,19.83,6.41a19.2,19.2,0,0,0-3.43,2.64c-.79,1-1,2.46-1.77,3.45a2.62,2.62,0,0,1-2.33.31c-6.16-2.14-9.09-4.51-13.85-11C229.13,21,221.94,25,214.08,27.84l-.43-.52c.49-.48.94-1,1.47-1.46,5.93-5,11.3-10.35,14.49-17.58a2.17,2.17,0,0,1,1.94-.82,20,20,0,0,1,4.35,1.85C237.73,10.33,237.74,10.85,236.11,12.48Z"/><path d="M226.85,32.34c0-2.63,1.61-2.3,3.27-1.82.86.25,1.7.54,2.54.84,1.4.52,2,1.23.71,2.57a3.09,3.09,0,0,0-.68,1.83,56.12,56.12,0,0,0-.11,6.61c.1,1.6-.45,2.19-2,2.49-3.71.74-3.84.72-4.32-3-1.51-.22-2.78-.19-2.52,1.93.17,1.4-.48,2-1.83,2.14-.68.05-1.37.18-2.05.24-1.3.1-2-.3-2.07-1.83-.27-4.12-.69-8.23-1.13-12.35-.12-1.09.12-1.74,1.26-1.89s2-.34,3.06-.39c.42,0,1.18.24,1.23.48C222.78,33,224.94,32.1,226.85,32.34Zm-3.1,8.24c2.19.41,3-.41,2.78-2.39a15.22,15.22,0,0,1,.1-3.09c.12-1.1-.39-1.51-1.38-1.52H223C223.26,36,223.5,38.26,223.75,40.58Z"/><path d="M225.08,24.84a9,9,0,0,1,1.76-.57c1.72-.11,3.45-.25,5.17-.19,2,.06,3.75.15,5.15-1.7a2.57,2.57,0,0,1,2.48-.5,10.31,10.31,0,0,1,2.21,3.05c.06.09-.65.93-1,.92-5,0-9.93-.17-14.89-.29C225.8,25.55,225.65,25.32,225.08,24.84Z"/><path d="M85.25,11.22c5.34,2.41,11.13,1.94,17.24,2.36a18,18,0,0,0-2.74,2.76c-.57.9-.47,2.3-1.14,3a3.5,3.5,0,0,1-2.73.66,19.54,19.54,0,0,1-12.75-7.66,36.38,36.38,0,0,1-18.58,9.39l-.72-.84a9.13,9.13,0,0,0,1.47-.62A40,40,0,0,0,76.72,9C78,7.13,79.34,6.57,81.37,7.57a26.44,26.44,0,0,1,3,1.31c.56.36.81,1.18,1.2,1.8Z"/><path d="M89.6,43.5c1.22,1.16,2.25,2.22,3.36,3.19a2.83,2.83,0,0,1-.85,4.66,16,16,0,0,1-5.72,1.49,30.54,30.54,0,0,1-7.58-.39A5.54,5.54,0,0,1,74,47a64,64,0,0,1,.66-8.82c0-.45.79-1.23,1.11-1.18a39.64,39.64,0,0,1,5.83,1.19c.29.09.43,1.28.35,1.92a48.48,48.48,0,0,0-.84,5.27c0,.58,1.2,1.49,2,1.69,2.74.68,4.9-.5,6.18-3.09A2,2,0,0,1,89.6,43.5Z"/><path d="M86,26.6c-4.36-.68-8.57-.19-12.52-1.46l0-.71a16.53,16.53,0,0,1,1.86-.08c3.3.19,6.6.44,9.91.57A2,2,0,0,0,87,24.19c.55-1.36,1.46-1.37,2.5-.9a29.83,29.83,0,0,1,4.38,2.28,1.93,1.93,0,0,1,.37,1.86c-1,1.74-2.34,3.32-3.45,5-1.43,2.18-5.56,2.28-7,.06a2.17,2.17,0,0,1,.12-1.68C84.5,29.45,85.24,28.14,86,26.6Z"/><path d="M71.76,38.42c.77,3.4.57,6.56-1.4,9.34a3,3,0,0,1-2.81.58A7.49,7.49,0,0,1,65,45.79c-1-1.39-.63-2.44.91-3.35C67.84,41.31,69.61,39.92,71.76,38.42Z"/><path d="M92.64,37.49a67.61,67.61,0,0,1,6.8,1.76c1.9.71,2.18,1.88,1,3.57a7.9,7.9,0,0,1-2.34,2.23c-1.32.81-2.36.7-2.91-1.16S93.73,40.12,92.64,37.49Z"/><path d="M79.1,16.57c3-.13,5.57.28,7.8,1.94.43.32.76,1.61.51,1.88a18.65,18.65,0,0,1-3.53,3c-.31.21-1.44-.23-1.69-.66C81.12,20.85,80.24,18.88,79.1,16.57Z"/><path d="M82.79,34.35a48.63,48.63,0,0,1,6,1.6c2,.83,2.25,2.62.65,4.09a8.7,8.7,0,0,1-2.27,1.37c-1.51.7-2.42.34-2.76-1.47S83.43,36.55,82.79,34.35Z"/><path d="M43.58,28.21H40.33c0,2.69,0,5.28,0,7.88,0,.27.35.8.45.78a6.64,6.64,0,0,0,1.4-.54c1-.45,2.26-1.53,2.9-1.24,1,.48,1.7,1.85,2.52,2.85l-.42.52H40.44V46c1.5.42,2.65.46,3.67-1.16.54-.87,2.31-1.94,2.84-1.65,1.28.69,2.15,2.13,3.19,3.27-.5.37-1,1-1.52,1.06-2.55.11-5.11,0-7.66.07-4.35.19-8.69.49-13,.74l-2.28.12c.5-1.39.5-1.39,3.74-1.62L34,46.51V38.1H27.85c1.7-2,4-.79,6.09-1.53V28.93c-1.35.23-2.59-.45-3.55,1.54-.44.92-3.21.82-4.95.9-.27,0-.83-1.5-.9-2.34-.52-6-.87-12-1.46-18-.19-1.89.62-2.51,2.17-2.79,3-.55,3.64-.24,4.51,2.4H44c.59-.74,1.36-2.29,1.84-2.2a28,28,0,0,1,5.59,1.91c.18.07.18.87.09,1.3a40.88,40.88,0,0,0-1.21,5.24c-.29,3.65-.35,7.32-.39,11,0,1.39-.52,1.92-1.9,2.1C44.82,30.44,44.28,30.3,43.58,28.21ZM29.74,12,30.9,27.83l3-.48V21.67l-2.64-.19,0-.62,2.66-1L33.53,12Zm14.31,14.5V12.43H40.12v6.34c2.35-1,2.91-.71,3.12,1.72l-2.88.44v6Z"/><path d="M10,35.75l-.31-6.94L5.8,28.62l-.06-.92,3.82-.6c-.12-1.84-.2-3.74-.38-5.63-.12-1.26.34-1.83,1.6-1.76.89.06,1.8.05,2.68.17,2.66.35,2.64.43,2.26,3.16a27.4,27.4,0,0,0,0,3.83c1.49-.6,2.77-1.53,4-1.43.69,0,1.23,1.78,2.1,3.17H16.12v6.26l6-.72a12.14,12.14,0,0,1-1.41,1.49c-4.1,2.67-8.2,5.34-12.38,7.87a2.25,2.25,0,0,1-2-.81,40.69,40.69,0,0,1-1.91-4.78c-.43-1.11.11-1.51,1.13-1.63C7,36.14,8.39,35.94,10,35.75Z"/><path d="M4.06,16.54a11.63,11.63,0,0,1,2.23-.42c2.69.16,5.37.49,8.06.56a9.69,9.69,0,0,0,2.93-.79c.8-.24,1.86-1,2.32-.67a6.72,6.72,0,0,1,1.94,2.51c.09.16-.62,1.12-.92,1.09-5.16-.43-10.31-1-15.46-1.49C5,17.31,4.76,17.05,4.06,16.54Z"/></svg>