<svg id="圖層_1" data-name="圖層 1" xmlns="http://www.w3.org/2000/svg" viewBox="0 0 440 100"><defs><style>.cls-1{fill:#c28032;}</style></defs><path d="M178.74,40.25l18.64-1c0-.76.09-1.37.08-2,0-1.1.61-1.56,1.57-1.3a57.25,57.25,0,0,1,5.87,1.88c1.24.48,1.4,1.59.41,2.51a2.44,2.44,0,0,0-.8,2.06c.23,5.61.51,11.22.65,16.83a23.85,23.85,0,0,1-.46,5.79A6,6,0,0,1,199,69.48a1.28,1.28,0,0,1-1.45-1.06,4.9,4.9,0,0,0-3.72-3.8c-.26-.07-.43-.43-.64-.65a2.77,2.77,0,0,1,.82-.45,21.44,21.44,0,0,0,2.41-.3c1.45-.43,1.74-1,1.67-2.52q-.37-8.19-.73-16.38c-.05-1.12,0-2.24,0-3.52l-6.69.39c.12,2.17.22,4.23.37,6.28a.82.82,0,0,0,.44.56c.1,0,.36-.19.52-.32s.11-.2.18-.3c.62-.85,1.19-1.84,2.49-1.56.76.16,1.91,2.08,1.91,3.06,0,.77-.51.87-1.11.86s-1.4-.05-2.1-.06h-2v5.56l.31.25a6.43,6.43,0,0,0,.84-.71c.31-.39.49-.9.83-1.25a1.63,1.63,0,0,1,2.62.17,4.45,4.45,0,0,1,.45.68c1,1.77.67,2.35-1.32,2.42-1.17,0-2.33.13-3.5.19,0,1.74-.05,3.37,0,5,0,1.06-.26,1.75-1.39,1.92s-2.45.46-3.68.55-1.61-.37-1.62-1.58c0-1.71,0-3.42,0-5.26-1.13.13-2.09.31-3,.32-.36,0-.72-.37-1.08-.57.31-.29.58-.72.94-.82.94-.23,1.92-.32,2.86-.46V49.59a27.76,27.76,0,0,1-3,.09c-.4,0-.78-.41-1.17-.64.36-.31.7-.81,1.1-.87a19.26,19.26,0,0,1,2.86,0c-.19-2.34-.35-4.38-.51-6.42h-5c.16,3.39.37,6.65.44,9.92s0,6.48,0,9.72c0,.66-.21,1.18-.93,1.25q-2.32.24-4.65.42c-1.14.08-1.55-.44-1.55-1.61q0-6.55-.18-13.12c-.09-2.92-.28-5.85-.53-8.76-.1-1.09.34-1.57,1.28-1.68a38.13,38.13,0,0,1,3.85-.29c1.6,0,1.78.2,2,1.78C178.59,39.57,178.65,39.79,178.74,40.25Z"/><path d="M167.36,64.53c-1.1,1.38-2.12,2.64-3.12,3.92s-2.27,2.86-3.38,4.31c-.74,1-1.6,1.11-2.32.16C157.08,71,155.71,69,154.41,67c-.59-.93-.25-1.49.82-1.81,1.68-.51,3.37-1,5-1.51a1.18,1.18,0,0,0,.73-.84c0-3.7,0-7.4,0-11.19l-5.54.83a2.5,2.5,0,0,1-1,.08,5.36,5.36,0,0,1-1.19-.66c.34-.3.65-.78,1-.86,1.87-.39,3.75-.69,5.64-1,.91-.13,1.34-.47,1.33-1.49s.72-1.72,1.77-1.4a50.14,50.14,0,0,1,5.8,2.09c1.27.56,1.35,1.46.3,2.36a2.6,2.6,0,0,0-.95,2.13c0,2.69-.06,5.38-.13,8.07a2.67,2.67,0,0,0,1.24,2.34,20.55,20.55,0,0,0,11,3.87,34,34,0,0,0,10.92-.81.91.91,0,0,1,.35-.07c.42.07.83.17,1.25.25a6.91,6.91,0,0,1-.59,1.15,12.41,12.41,0,0,0-1.66,1.93,10.31,10.31,0,0,0-1,3.29c-.19,1.66-.64,2.24-2.3,2.28a29.69,29.69,0,0,1-9.15-1,15.53,15.53,0,0,1-10.36-9.42C167.65,65.29,167.53,65,167.36,64.53Z"/><path d="M190,32.4c.75.42,1.42.71,2,1.12s1.09,1.23.55,1.92a16.45,16.45,0,0,1-3,3.19c-1,.8-2.05.52-2.89-.51a27.08,27.08,0,0,0-6.12-5.73c-.22-.14-.29-.49-.43-.74.29-.14.59-.39.87-.38,1.75.07,3.5.22,5.25.29a1.47,1.47,0,0,0,1.07-.37c1.09-1.47,2.1-3,3.28-4.72-1.46-.14-2.67-.22-3.88-.37-3.2-.42-6.4-.87-9.61-1.31a.8.8,0,0,1-.33-.08c-.37-.32-.72-.65-1.07-1,.42-.16.86-.5,1.25-.45,3.25.4,6.49.87,9.73,1.31.54.07,1.1,0,1.62.16,2,.43,3.55.33,4.28-2a1.25,1.25,0,0,1,2.11-.55,52.49,52.49,0,0,1,4.95,4.22c1.16,1.17.65,2-.92,2.55-2.53.86-5,1.93-7.48,2.92Z"/><path d="M159.1,33.59a19.61,19.61,0,0,1,7.79,1.91c2.31,1.26,2.69,2.59,1.15,4.72a11.77,11.77,0,0,1-2.87,2.67c-1.3.88-2.39.29-3-1.13-1.08-2.32-2.32-4.56-3.47-6.85-.17-.32-.43-.77-.32-1S159,33.63,159.1,33.59Z"/><path d="M115.54,68.87l-9.39,4.29a2.24,2.24,0,0,1-.88.27c-.27,0-.68-.11-.76-.29a.93.93,0,0,1,.23-.8c.31-.34.76-.55,1.09-.88,1.91-1.94,3.8-3.9,5.71-5.84.48-.49.35-.86.07-1.42-1.25-2.51-2.44-5.05-3.59-7.6a3.23,3.23,0,0,1,0-1.27,4.6,4.6,0,0,1,1.2.65c1.66,1.62,3.29,3.29,5.08,5.09A10.29,10.29,0,0,0,115,60c.93-2.56,1.87-5.12,2.76-7.69.37-1.07,1-1.6,2-1.17a55,55,0,0,1,6.16,3c1.21.7,1,2-.32,2.64a3.66,3.66,0,0,0-1.75,1.87c-1,1.77-2.06,3.48-3.16,5.31A28.46,28.46,0,0,0,128,65.46c1.51.13,3,.17,4.55.33a3.62,3.62,0,0,1,1.14.58c-.27.34-.47.84-.82,1-2.2.88-3.14,2.68-3.63,4.83-.43,1.93-1,2.25-3,1.8A24.35,24.35,0,0,1,115.54,68.87Z"/><path d="M107.8,35.31c6.42.37,12.57.72,18.72,1.12a1.76,1.76,0,0,0,1.75-.8,11.11,11.11,0,0,1,2-2.09,1.94,1.94,0,0,1,2.85.14,15.82,15.82,0,0,1,2.28,3.06c.66,1.18.14,1.87-1.2,1.78-5-.32-10-.74-15.06-1-6.47-.3-12.94-.46-19.41-.68a2.86,2.86,0,0,1-.93,0,8.09,8.09,0,0,1-1.17-.68c.39-.28.77-.79,1.17-.8C101.9,35.28,105,35.31,107.8,35.31Z"/><path d="M112.17,45.74c-.54.43-1,.83-1.5,1.17a12.94,12.94,0,0,0-1.45.87,23.2,23.2,0,0,1-8.68,5.13,3.37,3.37,0,0,1-1.1,0,3.11,3.11,0,0,1,.22-1.05,39.28,39.28,0,0,0,4.49-9.6c.27-.87.89-1.23,1.59-.9,1.88.9,3.71,1.93,5.51,3C111.6,44.56,111.76,45.1,112.17,45.74Z"/><path d="M123.25,42.43c2.1.36,4.23.6,6.29,1.1a2.22,2.22,0,0,1,1.66,3.32,18.36,18.36,0,0,1-2.63,3.93,1.63,1.63,0,0,1-2.62-.23A25.86,25.86,0,0,0,119.82,44a.91.91,0,0,1-.34-.75,1,1,0,0,1,.7-.49c1-.1,2-.12,3-.17Z"/><path d="M117.05,33.69a2,2,0,0,1-2.24-1.48c-.85-2.5-1.72-5-2.59-7.49-.25-.68,0-1,.7-.92,2.65.47,5.31,1,7.48,2.77,1.94,1.59,2,3.14.31,5A6.38,6.38,0,0,1,117.05,33.69Z"/><path d="M245.6,64.56c-3,.18-5.71.34-8.47.52-.15,0-.38,0-.43.14-.85,1.7-2.52,1.19-3.89,1.4a11.76,11.76,0,0,1-2.22,0A1.47,1.47,0,0,1,229,65q-.37-8.59-.81-17.19c-.06-1.09.33-1.72,1.41-1.9s2.45-.51,3.68-.61c2-.16,2.31.15,2.58,2.25,1.59.09,3.21.23,4.83.28s3.35,0,5,0c.7,0,1-.23,1-.91.18-1.54.51-1.91,2-1.62A32.11,32.11,0,0,1,254.49,47c1.44.58,1.42,1.81.24,2.82a2,2,0,0,0-.67,1.24c-.27,4.36-.52,8.72-.67,13.09,0,1.24-.47,2-1.67,2.09-1.5.17-3,.3-4.53.32C246.15,66.55,245.35,66.13,245.6,64.56Zm-9-4.37v3.3l9-.5c.26-4.54.51-9.07.77-13.71H236l.28,3.9c1.07-.31,2.09.44,2.88-.77,1.37-2.12,2.94-1.95,4.08.32.71,1.42.33,2-1.27,2-1.86,0-3.72,0-5.63,0l.24,3.93c1.21-.18,2.3,0,3.14-1.22,1.09-1.58,2.33-1.43,3.57.23a2.29,2.29,0,0,1,.5,1.63c-.07.3-.94.51-1.47.56C240.44,60,238.57,60.07,236.61,60.19Z"/><path d="M249.75,36.79A9.67,9.67,0,0,0,255,38.48c2.53.08,5.07,0,7.6,0a4.16,4.16,0,0,1,1.21.39c-.25.38-.41.94-.75,1.12a4.83,4.83,0,0,0-2.74,3.94c-.25,1.68-1.08,2.27-2.76,1.93a11.72,11.72,0,0,1-8.49-6.35l-.54-1c-2.8,3.21-6.49,4.67-10.42,5.65a4.3,4.3,0,0,1-1.36-.15,4,4,0,0,1,.53-1.19,21.48,21.48,0,0,0,5.29-9.62A1.41,1.41,0,0,1,244.48,32c1.92.5,3.83,1,5.7,1.65.53.18,1.25.85,1.23,1.28s-.7,1-1.11,1.53A3.73,3.73,0,0,1,249.75,36.79Z"/><path d="M255.13,30c-3.72-.27-7.21-.54-10.71-.74-.37,0-.8.35-1.16.6-2.23,1.47-4.45,3-6.69,4.44-.28.18-.71.1-1.08.14a3.71,3.71,0,0,1,.09-1.17,48.64,48.64,0,0,0,3.91-11.48c.2-1,.84-1.49,1.74-1.19,2.1.71,4.16,1.52,6.18,2.4a1.75,1.75,0,0,1,.92,1.3c0,.42-.59.87-1,1.25-.69.66-1.43,1.28-2.15,1.91l.2.41c2,.11,4,.24,5.92.34.78,0,1.56,0,2.34,0,1.14.08,2.14.13,2.25-1.48.06-.84.87-.92,1.56-.69a13.66,13.66,0,0,1,5.82,3.77,1.17,1.17,0,0,1-.33,2c-2.59,1.15-5.17,2.31-7.77,3.43a5.32,5.32,0,0,1-1.4.18,7.09,7.09,0,0,1,.1-1.31C254.26,32.74,254.7,31.38,255.13,30Z"/><path d="M221.24,37.44c.43-.33.81-.86,1.28-1,3.33-.8,6.68-1.52,10-2.23a4,4,0,0,1,1.18.1c-.06.42,0,1-.2,1.26-1.46,2-3,3.91-4.48,5.83-.62.79-1.3,1.54-2,2.31s-1.27,1.09-2,.39a14.31,14.31,0,0,1-3.61-6.07,1.34,1.34,0,0,1,0-.35Z"/><path d="M226.05,75.44a10.66,10.66,0,0,1,.82-1c2.12-2.06,4.29-4.07,6.37-6.16,1-1,1.75-1.37,2.94-.51A26.46,26.46,0,0,1,240,71.22a1.2,1.2,0,0,1-.73,2.06c-3.31.82-6.62,1.64-9.95,2.37a18.67,18.67,0,0,1-3,.18Z"/><path d="M247.55,68c2.13.41,4.29.7,6.37,1.27a1.93,1.93,0,0,1,1.14,3.28,15.41,15.41,0,0,1-3.18,3.17c-1,.76-1.78.35-2.56-.65-1.45-1.87-3-3.66-4.5-5.5a4.66,4.66,0,0,1-.45-.86,2.93,2.93,0,0,1,.9-.39c.74-.06,1.48,0,2.23,0Z"/><path d="M226.12,24.8c1.46.2,2.94.33,4.39.62a2.21,2.21,0,0,1,1.78,3.24,6.36,6.36,0,0,1-2.84,3.58,1.52,1.52,0,0,1-2.29-.56c-1.22-1.7-2.5-3.36-3.74-5.05-.21-.29-.53-.78-.43-.95a1.64,1.64,0,0,1,1-.64,16.06,16.06,0,0,1,2.09-.15Z"/><path d="M319.33,32.68c.69-3.26,1.29-2.52,3.36-1.91a41.43,41.43,0,0,1,4.13,1.6,1.19,1.19,0,0,1,.56,2c-1.27,1.32-1.31,3-1.56,4.54a45.1,45.1,0,0,0,.35,17.44,28.5,28.5,0,0,0,1.68,4.6c.46,1.07,1,1.08,1.69.17.41-.52.76-1.08,1.19-1.59a3.92,3.92,0,0,1,.77-.54,4.9,4.9,0,0,1,.23,1,18.17,18.17,0,0,0-.15,2.42,4.34,4.34,0,0,0,.78,1.9c1.16,1.64,1.47,3.48.66,4.68s-2.82,1.73-4.6,1.24a10.93,10.93,0,0,1-6.28-4.6,25.52,25.52,0,0,1-3.7-11.1c-.87-6.41-.25-12.78.62-19.13,0-.34.06-.69.1-1.16-1.88-.22-3.73-.4-5.57-.66-3.16-.46-6.32-1-9.47-1.47-.59-.09-1.44-.14-1.3-1s1-.65,1.64-.56l13.06,2C318.09,32.66,318.67,32.65,319.33,32.68Z"/><path d="M304.29,50c-1.28.17-2.43.35-3.59.44-.57,0-1.41.35-1.53-.57s.65-1,1.35-1.06c1.19-.13,2.38-.29,3.67-.45-.13-2.78-.25-5.46-.41-8.15-.09-1.51.21-1.93,1.66-1.65a49.51,49.51,0,0,1,5.65,1.38c1.45.45,1.56,1.27.61,2.47a2.36,2.36,0,0,0-.49,1.33c0,1.36.16,2.71.28,4.42.41-.48.65-.71.84-1,.35-.51.57-1.19,1-1.52s1.48-.67,1.75-.43a11.69,11.69,0,0,1,2.42,2.87c.38.65-.25,1-1,1-1.63.08-3.26.2-5,.32.07,1.28.13,2.48.18,3.67.14,3.59.24,7.18.41,10.77a1.74,1.74,0,0,1-1.6,2,35.69,35.69,0,0,1-3.7.49c-1.51.1-1.93-.37-2-1.88q-.24-6.8-.49-13.58C304.36,50.69,304.33,50.43,304.29,50Z"/><path d="M290.76,64.44l-3.22.17c0,.71,0,1.32,0,1.92A1.2,1.2,0,0,1,286.36,68c-1.52.12-3,.22-4.55.25a1.19,1.19,0,0,1-1.33-1.29c-.19-4.08-.45-8.17-.59-12.26a1.71,1.71,0,0,1,1-1.3,43.6,43.6,0,0,1,5-.56c.78-.06,1.11.48,1.1,1.2s.35,1.08,1.14,1c1.09-.06,2.18,0,3.13,0,.18-.2.26-.25.28-.31.58-2.27.84-2.46,3.15-1.86a25.89,25.89,0,0,1,3.75,1.28,1.29,1.29,0,0,1,.47,2.25,3.41,3.41,0,0,0-1,2.63c-.12,2-.2,4-.2,6.08,0,.88-.24,1.49-1.13,1.6-1.54.2-3.09.36-4.64.46-.73,0-1.14-.42-1.13-1.19C290.77,65.51,290.76,65.05,290.76,64.44Zm.51-7.82h-3.86v6.5l3.34-.28Z"/><path d="M285.56,36.16c2.26,0,4.51,0,6.77,0a3.35,3.35,0,0,0,1.26-.56c.13-.07.2-.24.3-.35.88-.94,1.74-2.12,3.2-1.77s2.28,1.8,2.82,3.2c.4,1,0,1.45-1.23,1.41l-18-.71c-.59,0-1.17,0-1.75,0s-1.52.33-1.5-.75.87-.69,1.45-.69c2.22,0,4.44,0,6.66,0Z"/><path d="M285.73,26.12a14.11,14.11,0,0,1,6.2,1.94c1.28.87,1.65,2.05.59,3.14A16.91,16.91,0,0,1,288.71,34c-.77.44-1.43,0-1.77-.92-.71-2-1.5-3.89-2.28-5.83C284.34,26.4,284.64,26.07,285.73,26.12Z"/><path d="M288.72,50c-1.91.1-3.82.25-5.73.29-.39,0-1.05-.31-1.13-.6-.19-.73.43-.82,1-.86,2.33-.15,4.67-.29,7-.53a2.21,2.21,0,0,0,1.34-.8c.67-.84,1.25-1.76,2.51-1.58a4.31,4.31,0,0,1,2.49,2.76c.09,1-.62,1.07-1.31,1.08-2.06,0-4.13,0-6.2,0Z"/><path d="M282.63,44.27l-.67-.65c.3-.29.57-.8.89-.83,2.28-.22,4.58-.38,6.87-.47a1.56,1.56,0,0,0,1.5-.81c.53-.86,1.14-1.74,2.37-1.6a4.38,4.38,0,0,1,2.55,2.56c.2.9-.31,1.19-1.11,1.21-2.14,0-4.29.09-6.43.19C286.74,44,284.87,44.12,282.63,44.27Z"/><g id="CiRaRh.tif"><path class="cls-1" d="M57.92,79.53A2.48,2.48,0,0,1,56,77.34a3.39,3.39,0,0,1,.28-1.5c1.48-3.26,3-6.51,4.5-9.77a2,2,0,0,0,.18-.86c-.12-2.72-.26-5.43-.39-8.15,0-.13,0-.27,0-.4a1.65,1.65,0,0,1,.7-1.58,4.08,4.08,0,0,0,1.62-3.27c0-.43,0-.87.11-1.3a1.29,1.29,0,0,1,.27-.66c1.07-1.18,2.17-2.34,3.24-3.52a4.3,4.3,0,0,0-1.83-7.14c-.3-.09-.61-.14-1-.22l-.08-.68,2.79.17c1.26.08,2.51.19,3.76.26A3,3,0,0,1,73,42a1.58,1.58,0,0,0,.45,1.34c.7.75,1.34,1.56,2,2.31a1.37,1.37,0,0,0,.66.4c1.69.45,3.37.91,5.07,1.28a2.48,2.48,0,0,1,2.24,2v.3a2.16,2.16,0,0,1-2.74,1.79c-2.13-.56-4.29-1-6.42-1.64A5,5,0,0,1,73,49c-.11-.07-.15-.24-.22-.37-.13.16-.15.21-.15.26q-.3,4.29-.59,8.59a1.64,1.64,0,0,0,.09.53c.45,1.35.92,2.7,1.36,4.05a17.26,17.26,0,0,1,.77,2.7c.22,1.56.3,3.14.44,4.71.21,2.44.43,4.88.64,7.32a2.36,2.36,0,0,1-1,2.19,6.82,6.82,0,0,1-1,.51h-.91a2.54,2.54,0,0,1-2-2.24c-.29-3.14-.54-6.29-.82-9.43a13,13,0,0,0-.29-2.59c-.8-2.59-1.7-5.15-2.58-7.72a.55.55,0,0,0-.37-.31,5,5,0,0,0-.78-.07,1.64,1.64,0,0,0,0,.19c.14,2.7.25,5.4.41,8.1a4.12,4.12,0,0,1-.37,2.05c-1.56,3.34-3.12,6.68-4.64,10a3.15,3.15,0,0,1-2.1,2Z"/><path class="cls-1" d="M52.38,53.66a3,3,0,0,1-2-1.28c-.81-1.12-.68-3.89.89-4.84a1.34,1.34,0,0,1,.31-.17c.59-.13.67-.54.7-1.07q.21-3.86.5-7.69A3,3,0,0,1,56,35.94c1.27.11,2.54.24,3.8.38a3,3,0,0,1,2.64,2.91c0,1.25,0,1.25-1.11,1.64-1.33.46-2.65.94-4,1.36a2.3,2.3,0,0,0-1.5,1.43c-1,2.36-2,4.7-2.94,7.05A4.34,4.34,0,0,0,52.38,53.66Z"/><path class="cls-1" d="M63.12,48c.05-.79.07-1.59.17-2.37,0-.2.32-.37.5-.54a2,2,0,0,0,.5-.56,15.55,15.55,0,0,1-1.85,1,4.75,4.75,0,0,0-3,3.23c-.54,1.67-1.32,3.26-2,4.88a2,2,0,0,1-2.16,1.31,2,2,0,0,1-1.76-1.61,2.61,2.61,0,0,1,.14-1.27c1-2.56,2.09-5.12,3.2-7.65a2.63,2.63,0,0,1,1-1.11c1.63-.93,3.29-1.79,4.95-2.66a2.28,2.28,0,0,1,2.65.41,3.08,3.08,0,0,1,.36,4.08c-.82,1-1.76,2-2.64,2.94Z"/><path class="cls-1" d="M64,32.47a4.5,4.5,0,1,1,9,0,4.5,4.5,0,1,1-9,0Z"/><path class="cls-1" d="M58.25,54.91c1.06-2.53,2.11-5,3.18-7.55a3.52,3.52,0,0,1,.4-.63l.14.06c0,.54-.07,1.09-.11,1.63-.07,1.16-.15,2.31-.22,3.47A3.19,3.19,0,0,1,58.25,54.91Z"/></g><g id="_7jvAsa.tif" data-name="7jvAsa.tif"><path class="cls-1" d="M387.39,66.7H382V45H363V66.7h-5.43V45h-2.7c0-2,0-4,0-5.94a3.12,3.12,0,0,1,.11-.67,5.68,5.68,0,0,1,5.32-4.22c1.68,0,3.36,0,5,0h19a5.54,5.54,0,0,1,5.05,2.79,11.54,11.54,0,0,1,.75,2v6h-2.71Z"/><path class="cls-1" d="M349.37,66.7V61.28h-2.69V47.74h8.1V61.27h-2.69V66.7Z"/><path class="cls-1" d="M368.38,66.7V64c-.49,0-.95,0-1.41,0a2.7,2.7,0,0,1-2.57-2,2.6,2.6,0,0,1,1.21-3,3.1,3.1,0,0,1,1.45-.4q5.38,0,10.77,0a2.71,2.71,0,1,1,0,5.42h-1.28V66.7Z"/></g></svg>