<svg id="圖層_1" data-name="圖層 1" xmlns="http://www.w3.org/2000/svg" viewBox="0 0 85 220"><path d="M72.45,197.57a.32.32,0,0,0-.13.07c-.58,1.28-1.17,1.52-2.87.82a5.85,5.85,0,0,1-1.84-1.22,5.49,5.49,0,0,0-2.5-1.39c-2.86-.85-4.86-2.88-6.82-5-.32-.34-.28-.68.1-.89a7.94,7.94,0,0,1,1.66-.74,10.21,10.21,0,0,1,4.79.07,9.89,9.89,0,0,1,6.77,5.1,13.1,13.1,0,0,0,.84,1.16Z"/><path d="M26.93,205.14c-.1-1.76-.26-3.52-.29-5.28,0-.87.19-1.73.25-2.6a3.31,3.31,0,0,0-.2-.91,3.24,3.24,0,0,0-.81.47,6.77,6.77,0,0,0-.74,1.07c-1,1.61-1.93,3.26-3,4.83a9.54,9.54,0,0,1-1.59,1.51c-.33.31-.65.64-1,.94-1,.87-2,1.75-3,2.57a1.72,1.72,0,0,1-1.06.4,2.19,2.19,0,0,1-1.22-.49c-.11-.09.05-.68.24-.93,1.14-1.61,2.4-3.15,3.48-4.8,1.38-2.09,2.61-4.28,3.93-6.41.83-1.34,1.71-2.65,2.56-4a3.79,3.79,0,0,0,.48-.79.67.67,0,0,0-.14-.57c-.08-.09-.4-.06-.53,0-1,.72-2.06,1.44-3,2.21a7.5,7.5,0,0,1-5,1.73,4.5,4.5,0,0,1-3.15-1.88,2.17,2.17,0,0,1,.74-3.41c.18-.08.42-.21.58-.16,1.12.34,1.87-.34,2.63-.93a2.91,2.91,0,0,1,1.76-.59,6.45,6.45,0,0,0,2.2-.53c1.46-.68,2.87-1.48,4.3-2.23a3.63,3.63,0,0,1,1-.49c2.09-.33,2.63-2,2.66-3.61a54.49,54.49,0,0,1,1.42-9.27,3.89,3.89,0,0,0-.28-2.39,1.51,1.51,0,0,1,.38-1.75c.44-.47.94-.3,1.41,0a9.76,9.76,0,0,1,1.68.93,3.4,3.4,0,0,1,1.06,4.44c-.83,1.84-1.53,3.74-2.23,5.65a1.72,1.72,0,0,0,1.53,2.43c1,.17,1.93.29,2.87.53a5.72,5.72,0,0,1,1.69.71,1.19,1.19,0,0,1-.16,2.25,8.39,8.39,0,0,1-1.91.56,3.09,3.09,0,0,0-1.92,1.16,11,11,0,0,0-2.36,6.39,1.11,1.11,0,0,0,1.23,1.19,17.72,17.72,0,0,0,2.52-.21c1-.14,1.47.1,1.71,1.05a16.89,16.89,0,0,1,.54,2.52,1.32,1.32,0,0,1-.54,1,8.35,8.35,0,0,1-1.87.86,1,1,0,0,1-.79-.25c-.52-.56-.94-1.22-1.47-1.77a3.76,3.76,0,0,0-1-.51c-.06.33-.15.65-.18,1s0,.86-.07,1.27a23.69,23.69,0,0,0-.23,8.88,8.69,8.69,0,0,1,.12,1.53,1.29,1.29,0,0,1-.72,1.41,2.05,2.05,0,0,1-2.1,0C27.19,208.47,26.76,207.68,26.93,205.14Z"/><path d="M47.57,195c-.89,1-1.69,1.82-2.49,2.68-1.21,1.3-2.41,2.6-3.62,3.89-.47.51-1,1-1.4,1.53a4.42,4.42,0,0,1-2.82,1.44c-.67.09-1-.38-1-1a4.09,4.09,0,0,1,1.22-3.78c1.62-1.4,3.15-2.92,4.65-4.45.78-.8,1.42-1.73,2.13-2.59s1.71-2,2.51-3a2.84,2.84,0,0,0-.35-3.36,7.62,7.62,0,0,1-.76-1c-.41-.72-.19-1.15.6-1.36,1.17-.31,2.09.32,3.06.76.36.17.85.56,1.07.45a5,5,0,0,0,1.35-1.22c.35-.42,0-.71-.38-.79-2-.48-3.3-1.89-4.53-3.39-.6-.72-.6-1.11.24-1.52A40.71,40.71,0,0,1,52.35,176c2.31-.74,4.7-1.21,7.06-1.77a1.63,1.63,0,0,1,1,0c.21.1.49.54.43.69-.23.5.07.76.3,1.1a19.55,19.55,0,0,1,1.49,2.22c.49.94.33,1.44-.48,2.16-2.29,2-4.63,4-6.86,6-1.38,1.28-2.59,2.71-3.87,4.09a.63.63,0,0,0-.17.4c.23,1.64.48,3.28.72,4.91.26,1.85.6,3.69.75,5.54a2.67,2.67,0,0,1-1.2,2.66c-1,.63-1.82.41-2.15-.74-.49-1.75-.87-3.53-1.25-5.31-.1-.49,0-1,0-1.51A11.57,11.57,0,0,0,47.57,195Z"/><path d="M31.3,121.07c-.94.67-1.92,1.31-2.83,2-1.08.83-2,1.84-3.16,2.57a3.8,3.8,0,0,1-5.26-1.38,3.23,3.23,0,0,1,1.76-4q3.5-1.14,7-2.42c2.16-.79,4.25-1.83,6.47-2.43,1.42-.39,2.95-.91,4.51-.26s1.76,1.67.5,2.79-2.5,2-3.63,3.11A15.32,15.32,0,0,0,34.29,124a2.42,2.42,0,0,0-.08,1.78,13.06,13.06,0,0,0,4.43,6.66c.27-.4.55-.81.81-1.23,1.16-2,2.41-3.87,3.44-5.9s2.52-3.85,3.18-6.11a8.74,8.74,0,0,1,1.42-2.61,1.14,1.14,0,0,0,.11-1.45c-.45-.79-.32-1.14.5-1.56,1.55-.79,2.29-.65,3.42.67.51.59,1,1.21,1.47,1.79a1.53,1.53,0,0,1,.18,1.92,5.75,5.75,0,0,1-.88,1.15,41.66,41.66,0,0,0-5.54,7.35c-.64,1-1.42,2-2.13,2.93a21.89,21.89,0,0,0-1.29,1.9c-.39.66,0,1.12.88,1.27a5.75,5.75,0,0,1,1.83.49,2.27,2.27,0,0,1,1.06,1.21c.23.87.79.9,1.44.89,1,0,2-.07,2.92-.1a1.92,1.92,0,0,1,.76,0c.5.2,1.21.38,1.36.76s-.17,1.07-.47,1.48a10.56,10.56,0,0,1-1.47,1.35,2.28,2.28,0,0,0-.52.45,10.57,10.57,0,0,0-.56,1,6.28,6.28,0,0,0,1.06.48c.84.21,1.71.32,2.56.54a1.12,1.12,0,0,1,.64,1.95,3,3,0,0,1-.79.72c-.48.32-.39.66,0,.91a9.91,9.91,0,0,0,2,1,2.09,2.09,0,0,1,1.46,1.54,3.45,3.45,0,0,1-1,3.59,2.17,2.17,0,0,1-3,.42,1.32,1.32,0,0,0-1.81.11c-.38.34-.79.65-1.19,1-1.43,1.17-3.18,1.3-4.91,1.56a23.34,23.34,0,0,0-3.85,1,3.35,3.35,0,0,1-4.09-1.56.81.81,0,0,1-.14-.43c.2-1.28-.26-2.71,1-3.74l-.12-.22a2.68,2.68,0,0,0-.91.07c-1.34.68-2.69,1.38-4,2.13a3.33,3.33,0,0,1-3,.41c-.9-.33-1.33.17-1.15,1.12a11.25,11.25,0,0,1,.15,1.74c0,.92,0,1.83,0,2.74a2,2,0,0,1-1.12,2.16,1.76,1.76,0,0,1-2.16-1.16,14.92,14.92,0,0,1-1.71-6.34c-.08-2.36-.32-4.72-.22-7.07s.52-4.62.79-6.93c.09-.74.17-1.48.25-2.22a6.88,6.88,0,0,1,.21-1.52,7.38,7.38,0,0,0,.31-3.32,9.92,9.92,0,0,1,.64-4.52,1.64,1.64,0,0,1,1.42-1.13,1.58,1.58,0,0,1,1.71.77,2.81,2.81,0,0,1,.18,3.22,10.05,10.05,0,0,0-.92,2.74c-.51,1.87-1,3.75-1.44,5.64-.18.79-.23,1.62-.34,2.42-.37,2.53-1.21,5-1,7.6a3.94,3.94,0,0,0,.16,1,4.41,4.41,0,0,1,.26,2.41c0,.26.2.57.3.86.28-.12.65-.17.82-.38a7.54,7.54,0,0,0,2-3.84.81.81,0,0,1,1.15-.74c1.73.52,3.42-.17,5.12-.1a.42.42,0,0,0,.28-.1,14.94,14.94,0,0,1,4.67-1.93c.78-.24,1.55-.55,2.3-.86a2.07,2.07,0,0,0,1.35-2.12c0-.72,0-1.44,0-2.15,0-.18-.11-.45-.24-.49a.67.67,0,0,0-.54.15c-.29.21-.51.51-.79.73-1.4,1.12-2.78,2.25-4.23,3.3a1.57,1.57,0,0,1-1.26,0c-.15-.06-.22-.7-.12-1a8.57,8.57,0,0,1,1.52-3,14.54,14.54,0,0,0,1.6-3.29.47.47,0,0,0-.15-.36c-.26,0-.6,0-.73.21-.56.69-1.06,1.43-1.55,2.17a8.51,8.51,0,0,1-.58,1.08,2.17,2.17,0,0,1-1.06.62c-.46.09-.69-.4-.44-.81.92-1.54.74-1.79-1.08-2a17,17,0,0,1-3-.78c-.56-.18-.79-1.54-.43-2.12a1.78,1.78,0,0,1,.23-.31,2.84,2.84,0,0,0,.41-3.6,10.6,10.6,0,0,1-.57-1.81c-.12-.41-.3-.81-.4-1.23a7.25,7.25,0,0,1,.18-4.69c.14-.33.21-.7.32-1Zm8.25,27.71c.23.16.32.28.43.29a3,3,0,0,1,2.61,2.11,1.06,1.06,0,0,0,.73.53,7.26,7.26,0,0,0,1.68-.08,2.77,2.77,0,0,0,.72-.34c-.15-.24-.24-.56-.45-.71A1.9,1.9,0,0,1,44.4,148a.59.59,0,0,0-.58-.9A6.08,6.08,0,0,0,39.55,148.78Zm10.34.85c1-.24,2.09-1.21,2.14-1.8s.13-1.38.16-2.07c0-.53.14-1.15-.62-1.27s-1.66.62-1.67,1.18C49.87,147,49.89,148.27,49.89,149.63Z"/><path d="M57.24,159.83c-.62-.15-1.25-.27-1.85-.48a1,1,0,0,1-.56-1.53c.6-1.24,1.14-2.5,1.76-3.73a17.19,17.19,0,0,1,1.14-1.73,7.51,7.51,0,0,0,1.51-4.57,3.29,3.29,0,0,1,.1-.68c.37-2.37.82-4.74,1.1-7.12.32-2.64.48-5.29.7-7.93a2.35,2.35,0,0,1,.09-.53c.57-1.46-.13-2.79-.4-4.17,0-.12-.18-.24-.3-.33a4.29,4.29,0,0,0-4.68,0,6.44,6.44,0,0,1-4.51,1.37c-.71,0-1.43.08-2.14.12a2.09,2.09,0,0,1-.83,0c-.26-.09-.59-.33-.63-.55s.23-.54.45-.67c.7-.42,1.47-.71,2.15-1.15s1.47-1.17,2.25-1.7a13.74,13.74,0,0,1,5.88-2.66,21.86,21.86,0,0,1,3.33-.25c1.66,0,2.7,1.15,3,3.1a6.06,6.06,0,0,1,0,3.53c-.13.29.09.73.13,1.11a11.09,11.09,0,0,1,.16,2c-.15,2.1-.33,4.19-.59,6.28-.2,1.62-.56,3.22-.79,4.84-.13,1-.07,1.95-.25,2.89-.45,2.37-1,4.72-1.49,7.08a13.22,13.22,0,0,1-1.31,4.48c-.29.48-.55,1-.84,1.47A2.65,2.65,0,0,1,57.24,159.83Z"/><path d="M39.87,70.68c0,1.24,0,2.48,0,3.72,0,.19.31.46.52.52,1,.29,3-.85,3.24-1.86.35-1.76.59-3.53.86-5.3.13-.85.23-1.71.34-2.57a2.41,2.41,0,0,0,0-.53c-.18-1-.35-2.11-.58-3.15a.89.89,0,0,1,.81-1.16,3.92,3.92,0,0,1,3.21,1c.34.27.34,1.16.26,1.74-.32,2.33-.77,4.65-1.08,7a1.85,1.85,0,0,0,.4,1.5,1.64,1.64,0,0,0,1.53-.11,11.66,11.66,0,0,1,3.42-1.3,13.64,13.64,0,0,0,1.64-.65,2.69,2.69,0,0,1,2.51-.1c1.09.58,2.19,1.14,3.22,1.81a2.58,2.58,0,0,1,.85,1.23,9.72,9.72,0,0,1,.4,1.87.66.66,0,0,1-.12.49c-1.81,2.19-2.11,5-2.89,7.54-.58,1.93-1.25,3.82-1.81,5.75a2,2,0,0,0,.13,1.42c.11.19.82.09,1.24,0A27.56,27.56,0,0,0,60.75,89a29.81,29.81,0,0,0,4.17-1.23c1.85-.8,3.62-1.27,5.48-.1a1.26,1.26,0,0,1,0,2.25,4.32,4.32,0,0,1-1.3.43c-2.1.42-4.21.84-6.33,1.22-1.38.25-2.78.46-4.18.61s-3,.22-4.45.36a1.21,1.21,0,0,0-.69.37c-1.08,1.13-1.8,1.31-2.88.24a2,2,0,0,0-2.75-.23,13.15,13.15,0,0,1-5.63,1.29,5.7,5.7,0,0,0-2.39.74,3.42,3.42,0,0,1-2.49.41,17.75,17.75,0,0,0-6.21.1,28.84,28.84,0,0,1-4,.62,20.5,20.5,0,0,0-6.11,1.34,27.86,27.86,0,0,1-4.77,1.15c-.64.1-1.38-.39-2.07-.63a.44.44,0,0,1-.17-.24A2.84,2.84,0,0,1,16.68,94c2.07,0,4.14-.11,6.21-.07a25.56,25.56,0,0,0,6.17-.63c1-.23,2-.36,2.95-.52.68-.12.87-.47.66-1.16a46.91,46.91,0,0,0-2.49-5.56A44.64,44.64,0,0,1,28,80.85a11.38,11.38,0,0,1-.28-3.51c0-.89.68-1.2,1.41-.68a11.09,11.09,0,0,1,1.69,1.44,1.52,1.52,0,0,0,1.74.49A32.14,32.14,0,0,0,36,77a1.89,1.89,0,0,0,1-2.07c-.22-1.67-.32-3.37-.67-5a8.86,8.86,0,0,0-1.17-2.29c-.53-1-.29-1.58.71-2A3.09,3.09,0,0,1,39,65.9a1.78,1.78,0,0,1,.69,1.16c.09,1.2,0,2.41,0,3.62Zm14,5.87c0-.78-.38-1-1-.73-1.53.7-3,1.43-4.6,2.09a2.15,2.15,0,0,0-1.36,2,4.88,4.88,0,0,0,.82,3,1.66,1.66,0,0,1-.57,2.38A2.43,2.43,0,0,0,46,86.88c-.29,1.07-.66,2.13-1,3.18-.22.63,0,1.16.52,1a9.87,9.87,0,0,0,1.76-.72,5.22,5.22,0,0,1,1.23-.61c1.5-.18,2-.57,2.39-2,.31-1.21.64-2.41.91-3.63a7.56,7.56,0,0,0,0-1.35,2.32,2.32,0,0,1,.06-.65c.35-.87.78-1.72,1.09-2.6S53.62,77.47,53.89,76.55ZM38,91.22c-.07-.54-.11-1-.21-1.45-.28-1.35-.08-2.85-1.19-4-.1-.1-.09-.38-.06-.57.12-.73.24-1.46.43-2.18a1.08,1.08,0,0,0-.77-1.44c-.79-.29-1.6-.54-2.41-.75-.29-.08-.76-.14-.89,0a1,1,0,0,0,0,.9c.45.83,1,1.59,1.49,2.4a12.66,12.66,0,0,1,1.15,2.14c.6,1.68,1.1,3.4,1.64,5.14ZM43,79.6c-.68.22-1.27.4-1.84.62a.46.46,0,0,0-.25.33c0,.7.09,1.4.15,2.15a9.45,9.45,0,0,0,1.25-.23.71.71,0,0,0,.44-.42C42.83,81.27,42.89,80.48,43,79.6ZM42.08,90h.19l.41-3.38L41.59,87Z"/><path d="M31.25,108.83c-1.28-.25-2.37-.41-3.43-.71a1.24,1.24,0,0,1-.72-.84,37.38,37.38,0,0,1-.39-4,2.85,2.85,0,0,1,.35-1.31c.39-.85.86-1,1.5-.3,1.47,1.52,3.45,1.53,5.31,1.93a8.68,8.68,0,0,0,3.62-.38c.54-.1,1.19-.38,1.53.24s-.22,1-.6,1.45a11.46,11.46,0,0,1-5.17,3.18C32.53,108.35,31.82,108.63,31.25,108.83Z"/><path d="M65.26,102.05a8.92,8.92,0,0,1-.5,1.09c-.32.52-.69,1-1.05,1.51-.51.68-1,.71-1.71.29a20.3,20.3,0,0,1-5.22-4.46,10.92,10.92,0,0,1-1.26-1.82c-.43-.77-.05-1.35.83-1.35s1.94,0,2.91,0a6.46,6.46,0,0,1,5.65,3.6C65.06,101.25,65.13,101.63,65.26,102.05Z"/><path d="M18.26,47.05c-.35.68-.1,1,.43,1.23q3.36,1.2,6.74,2.37a4.26,4.26,0,0,0,.65.11c.1-.91.19-1.79.3-2.68,0-.3.09-.6.14-.9l.09-.67a2.44,2.44,0,0,0-.68.2,1.82,1.82,0,0,1-2.07.14,32,32,0,0,0,12.51-9.62l-.21-.32a7.35,7.35,0,0,0-.77.32c-1.63.85-3.25,1.75-4.91,2.55a1.76,1.76,0,0,1-2.63-1A4.86,4.86,0,0,1,28.51,34c1.77-2,3.55-4,5.35-5.95.86-1,1.81-1.83,2.66-2.8a2.13,2.13,0,0,0,.65-1.89,6.32,6.32,0,0,0-.55.34,50.27,50.27,0,0,0-8.52,7.77,8.86,8.86,0,0,0-.83.91c-.54.84-1.36.83-2.25.88a4.83,4.83,0,0,0-.23-.89c-.1-.23-.27-.54-.47-.6a.71.71,0,0,1-.55-1,15.17,15.17,0,0,1,.91-2.58A16,16,0,0,1,29,23.32c2.58-2.2,5.07-4.5,7.63-6.72.92-.81,1.94-1.51,2.88-2.3,1.45-1.22,3.06-2.27,4-4,.33-.6.8-.69,1.27-.11.84,1,1.74,2,2.5,3.1a1.61,1.61,0,0,1-.26,2.23c-.56.59-1.18,1.13-1.77,1.69-.4.37-.77.76-1.2,1.09-1.47,1.11-2.94,2.22-4.44,3.29-.66.47-.74.71,0,1.05,2.36,1.13,2.21,5.13.67,6.41a4.94,4.94,0,0,0-.72,1,4.29,4.29,0,0,1-.4.55c-.83.76-.82.73.16,1.38a16.8,16.8,0,0,1,2.35,1.74,2,2,0,0,1,.56,1.41,7.77,7.77,0,0,1-4.77,7c-2,1-3.89,2.07-5.87,3-.41.2-1,.05-1.48.11a3.12,3.12,0,0,0-.7.26c.15.24.25.61.46.7,1.16.49,2.34.91,3.51,1.36.63.24.71-.17.86-.63a17,17,0,0,1,1-2.48,1.38,1.38,0,0,1,1.52-.66,7.66,7.66,0,0,1,4.38,2c.59.54,1.28,1,1.81,1.54.88,1,1.67,2,2.48,3a1.44,1.44,0,0,1,.25,1.78,2.13,2.13,0,0,1-1.54.57A4.66,4.66,0,0,1,40.3,51c-1-1.35-2-2.66-3-4-.32-.44-.51-1-.85-1.41a3.08,3.08,0,0,0-.83-.55,3.2,3.2,0,0,0-.44.75,6.94,6.94,0,0,0,.91,5.38,1.4,1.4,0,0,1-.84,1.94,2.67,2.67,0,0,1-2.67-.77c-.72-.9-1.47-1.79-2.26-2.63A16.06,16.06,0,0,0,28.38,48c-.49-.38-1-.18-1.09.43a3.47,3.47,0,0,0,0,1.57,18.18,18.18,0,0,0,1,2.66,1.34,1.34,0,0,1-.69,2.05c-.4.22-.75.63-1.16.69a3.52,3.52,0,0,1-2-.09c-2.35-1.25-4.66-2.57-6.89-4C16.34,50.48,16.42,47.61,18.26,47.05Z"/><path d="M47.42,26.42c.43,1.38,1.2,1.77,2.86,1.09,2-.82,3.86-1.85,5.78-2.82a1.05,1.05,0,0,0,.53-.59c.25-1.12.44-2.26.68-3.55-.79.1-1.49.16-2.17.27a5.74,5.74,0,0,1-4.64-1,10.76,10.76,0,0,1-1.8-2c-.29-.38-.14-.62.35-.74,2.93-.71,5.85-1.49,8.78-2.17a50.47,50.47,0,0,1,6-1.13,2.56,2.56,0,0,1,2.92,2.19c-.66.24-1.35.44-2,.72a4.76,4.76,0,0,0-1.32.75,8,8,0,0,1-2.79,1.71c-1.56.54-2,1.29-2,3q0,1.64,0,3.27c-.09,2.48-.21,5-.32,7.56.62-.3,1.26-.57,1.87-.92,1.71-1,4,.13,5.06,1.26.34.36.14.67-.23.94-1.23.88-2.46,1.75-3.64,2.7-.52.42-.89,1-1.38,1.51-.26.26-.72.36-.91.65a14.69,14.69,0,0,0-1.13,2.15c-.19.46.17.62.56.52,1.23-.33,2.44-.76,3.68-1a5,5,0,0,1,2.24-.05A13.09,13.09,0,0,1,67,41.86a1.44,1.44,0,0,1,.8,1.8c-.07.27-.09.55-.16.83a2.11,2.11,0,0,1-2.4,1.83,20.24,20.24,0,0,0-5.58.86l-2.39.59,2.32-1.83-.08-.25c-.33,0-.66.05-1,.11-.93.18-1.84.47-2.78.57-2.26.22-2.93-1.17-2.4-3.11a29.91,29.91,0,0,1,1.35-3.34,2,2,0,0,0,.21-.56c.11-.9,0-1-.88-.74s-1.58.43-2.18-.34a1.11,1.11,0,0,1-.21-.86,15.25,15.25,0,0,1,.87-1.7l.46,1.2c.42-1-.11-2,.44-2.68a6.79,6.79,0,0,0,1.61,0c.24-.06.48-.46.53-.74.15-.83.21-1.68.31-2.52.18-1.51.37-3,.54-4.55a2.7,2.7,0,0,0-.08-.62c-.22.09-.56.12-.64.28-.29.58-.49,1.22-.74,1.83A8.14,8.14,0,0,1,52,32.08a4.73,4.73,0,0,1-3,.7c-.53-.05-1.07-.07-1.6-.07a1.15,1.15,0,0,1-1.31-1.25A6,6,0,0,1,46.74,28,13,13,0,0,0,47.42,26.42Z"/><path d="M63.13,22c.81.19,1,.06.92-.62s-.06-1.25-.09-2a5.87,5.87,0,0,1,1,.4c.9.64,1.78,1.31,2.64,2a1.07,1.07,0,0,1,.34.58,5.39,5.39,0,0,1,0,3.46,1.18,1.18,0,0,1-.84.57,3.82,3.82,0,0,1-3.78-3C63.3,22.87,63.22,22.45,63.13,22Z"/></svg>