<svg id="圖層_1" data-name="圖層 1" xmlns="http://www.w3.org/2000/svg" viewBox="0 0 220 60"><path d="M77.63,25.38c0,1.62-.25,1.94-1.69,2.21a27.43,27.43,0,0,1-3.51.33c-.84,0-1.25-.37-1.33-1.27-.39-4.54-.83-9.07-1.29-13.6-.07-.73.12-1.24.83-1.36,1.42-.26,2.85-.48,4.28-.62.75-.08,1.18.39,1.25,1.16,0,.4.14.79.23,1.33l9.5.37a1.7,1.7,0,0,0,.17-.32c.33-2.26.57-2.39,3-1.88a16.6,16.6,0,0,1,3.58,1.33c1.16.54,1.17,1.31.32,2.22a3.11,3.11,0,0,0-.76,1.64c-.38,3-.71,6-1,9-.09,1-.45,1.5-1.46,1.52-1.17,0-2.36.13-3.52.05-1.47-.11-1.56-.29-1.58-1.75v-.86Zm8.09-10.33H76.61l.91,9,7.18-.46C85,20.78,85.37,18,85.72,15.05Z"/><path d="M94.32,46l-3.07.33c-.25,1.61-.39,1.83-2,2.16a17.22,17.22,0,0,1-3.2.35c-1.14,0-1.37-.33-1.46-1.44-.39-4.43-.77-8.86-1.22-13.29-.1-.89.17-1.41,1-1.58,1.28-.27,2.58-.47,3.88-.64a1.29,1.29,0,0,1,1.62,1.35c0,.79.42.93,1.1.91,1.44,0,2.88,0,4.33,0,.1-.68.19-1.21.25-1.74.09-.85.64-1.26,1.39-1.06A48.09,48.09,0,0,1,102.21,33c1.05.41,1,1.23.26,2.09a3.24,3.24,0,0,0-.77,1.74c-.3,3.25-.51,6.52-.74,9.78-.11,1.47-.37,1.79-1.83,1.84-1.17,0-2.35-.05-3.53-.09s-1.44-.58-1.29-1.59A5.93,5.93,0,0,0,94.32,46Zm-3.16-1c.92-.09,1.75-.19,2.58-.26.54,0,.73-.31.76-.84.08-1.58.18-3.16.31-4.73.1-1.26.24-2.51.35-3.71H90.33Z"/><path d="M73.13,45.35l-3.8.3c0,.29-.06.48-.06.68,0,1.8-.12,2-1.87,2.35a23,23,0,0,1-3.42.26c-.66,0-1-.32-1.06-1.06-.4-4.6-.85-9.19-1.29-13.79a1.14,1.14,0,0,1,1-1.42c1.22-.24,2.44-.51,3.67-.63s1.63.25,1.72,1.44c.07.92.45,1.08,1.28,1,1.48-.08,3,0,4.49,0,.08-.63.16-1.06.2-1.49.08-.89.52-1.48,1.43-1.25a40.84,40.84,0,0,1,5.09,1.53c.93.36.9,1.17.25,2A2.94,2.94,0,0,0,80,36.81c-.17,3.06-.26,6.13-.34,9.2,0,1.36-.2,1.7-1.56,1.84a20.56,20.56,0,0,1-3.33,0c-1.38-.08-1.56-.33-1.6-1.76C73.18,45.92,73.16,45.72,73.13,45.35ZM73.22,44l.39-8.19H68.4l.8,8.58Z"/><path d="M38.24,31.19a21.31,21.31,0,0,0,2.32-.26c.28-.06.55-.4.74-.67.51-.7.92-1.5,1.48-2.15a1.64,1.64,0,0,1,2.37-.29A18,18,0,0,1,47.49,30c.25.28.45.92.31,1.14a1.81,1.81,0,0,1-1.2.7c-1.41.16-2.83.16-4.24.28s-2.67.3-4,.44v8.53c1.21,0,2.28,0,3.34,0a1.54,1.54,0,0,0,.78-.52,21.53,21.53,0,0,1,1.77-1.92,2,2,0,0,1,2.94,0,13.45,13.45,0,0,1,2,2.22A1.33,1.33,0,0,1,49.36,42c-.12.25-.66.39-1,.4-3,.09-6,.14-9,.2-.26,0-.53,0-.8.06,0,2,0,3.88,0,5.79.07,2.53-.07,2.73-2.57,3.09-.9.13-1.81.23-2.72.31-1.24.11-1.53-.12-1.55-1.34-.08-5.13-.12-10.26-.21-15.38s-.23-10.06-.34-15.08c0-.16,0-.33-.06-.52a3.16,3.16,0,0,0-3.43,1.14,47.91,47.91,0,0,1-4.84,4.71,2.59,2.59,0,0,1-.87.34,4,4,0,0,1,0-1.14c.74-3,1.56-5.92,2.26-8.91.49-2.13.85-4.29,1.2-6.46.16-.95.69-1.36,1.53-1.08,2.2.72,4.38,1.5,6.52,2.37a1,1,0,0,1,.2,1.85c-1.65.69-2.08,2.17-2.77,3.52-.34.69-.72,1.36-1.18,2.22h1.38c3.58.08,7.15.15,10.72.26a1.64,1.64,0,0,0,1.53-.66,12.39,12.39,0,0,1,2.27-2.13,1.79,1.79,0,0,1,2.69.35A16.4,16.4,0,0,1,50.37,19c.52,1.06.11,1.5-1.07,1.41-3.2-.24-6.39-.5-9.58-.73-.57-.05-1.14,0-1.87,0Z"/><path d="M11.1,29.48c-1.39.89-2.61,1.71-3.88,2.45A3,3,0,0,1,6,32.06,3.5,3.5,0,0,1,6.3,31a60.94,60.94,0,0,0,7.16-14.21c.38-1.06.72-1.28,1.74-.82a37.12,37.12,0,0,1,4.72,2.47c1.22.77,1,1.75-.16,2.53a6.67,6.67,0,0,0-1.43,1.33c-1.2,1.39-2.37,2.81-3.56,4.24.91.26,1.88.49,2.82.8,1.15.38,1.4,1.16.6,2.06a2.26,2.26,0,0,0-.53,1.84c.14,3.33.23,6.66.35,10a1.3,1.3,0,0,1-1.22,1.55c-1.3.18-2.6.37-3.9.48S11.52,43.12,11.5,42c-.05-2.87-.09-5.73-.16-8.59C11.3,32.12,11.19,30.88,11.1,29.48Z"/><path d="M140.28,44.85l-7.59.42c-.09,1.19-.92,1.4-1.84,1.45-1.14.07-2.28.16-3.42.12s-1.38-.39-1.43-1.5c-.24-4.64-.48-9.29-.75-13.93,0-.64.17-1.11.78-1.22,1.48-.28,3-.53,4.46-.7.34,0,1,.24,1,.47.23.95.93.85,1.57.86,2.57,0,5.13.06,7.69,0,.26,0,.53-.34.79-.52.42-.28.89-.85,1.23-.78a32.29,32.29,0,0,1,5,1.35c1.38.51,1.41,1.57.31,2.55a1.72,1.72,0,0,0-.53,1q-.35,4.93-.59,9.88c-.07,1.43-.21,1.73-1.6,2a17,17,0,0,1-3,.29C140.73,46.63,140.68,46.54,140.28,44.85Zm.17-1.23.82-11.41h-9.34l.36,3.49c1.15.13,2.17.3,2.82-1,.31-.6,1.1-1.22,1.77-.72a6.33,6.33,0,0,1,1.64,2.17c.25.49-.12,1-.79,1-.43,0-.87,0-1.31,0h-4.06l.15,3.25c.93-.33,1.85-.37,2.28-.86,1.38-1.56,2.27-1.65,3.56,0a1.55,1.55,0,0,1,.38,1.22c-.11.28-.74.49-1.15.5-1.64,0-3.28,0-5,0V44Z"/><path d="M140,16.3h8.87c.08-.09.14-.13.16-.19.52-2.06.85-2.28,2.84-1.39a21.69,21.69,0,0,1,3.36,2,1.53,1.53,0,0,1,.6,1.24,1.9,1.9,0,0,1-1.06,1c-1.91.82-3.86,1.57-5.81,2.31a4,4,0,0,1-1,.1,4.6,4.6,0,0,1,0-1.05c.22-.91.5-1.8.76-2.7l-24.75-.45c-.32,1.48-.55,3-1,4.47-.6,1.94-1.84,2.39-3.45,1.19a12.56,12.56,0,0,1-2.42-2.66,1.27,1.27,0,0,1,.4-1.87,19,19,0,0,0,5.19-5c.08-.12.27-.16.64-.36l.53,2.77,9.4.44c-.29-3.15-.55-6.13-.85-9.1-.13-1.2.16-1.63,1.33-1.48,1.93.24,3.87.54,5.78.92a1.85,1.85,0,0,1,1.21,1c.11.32-.44.85-.69,1.28s-.5.61-.49.89C139.63,11.84,139.82,14,140,16.3Z"/><path d="M138.43,26.94h-4.15c-.09,1-.8,1.31-1.73,1.38-1.11.09-2.21.25-3.31.32-.77,0-1.13-.38-1.26-1.15q-.51-3-1.13-6c-.2-1,.07-1.63,1-1.83a23.26,23.26,0,0,1,3.59-.55,1.75,1.75,0,0,1,1.35.75,1.17,1.17,0,0,0,1.27.7c1.65-.05,3.3,0,5-.11.28,0,.53-.36.82-.52.46-.24,1-.72,1.4-.64a31.35,31.35,0,0,1,4.26,1.21,1.79,1.79,0,0,1,1,1.08c.07.3-.49.73-.76,1.12a3.32,3.32,0,0,0-.61,1c-.24,1.22-.42,2.45-.58,3.69-.09.69-.36,1.15-1.12,1.18-1.31,0-2.62.13-3.93.09C138.72,28.57,138.56,28.25,138.43,26.94Zm.82-5h-5.77l.58,3.63h4.57Z"/><path d="M125.79,54.45a2.42,2.42,0,0,1-.49,0c-.34-.06-.68-.15-1-.23a5.54,5.54,0,0,1,.59-.94c1.85-1.81,3.76-3.55,5.56-5.4a1.71,1.71,0,0,1,2.22-.51,8.75,8.75,0,0,1,3.64,3.1,1,1,0,0,1-.6,1.72q-4.14,1.07-8.29,2.07A14.41,14.41,0,0,1,125.79,54.45Z"/><path d="M141.69,47.42c1.74.35,3.5.6,5.2,1.07A1.72,1.72,0,0,1,148,51.18a6.77,6.77,0,0,1-2.94,3,1.44,1.44,0,0,1-2.08-.53c-1.31-1.66-2.68-3.27-4-4.92-.15-.18-.35-.48-.29-.65a.79.79,0,0,1,.62-.36c.77,0,1.55,0,2.32,0Z"/><path d="M142.39,14.66c-.33-.17-.71-.25-.86-.47s0-.56.12-.8c.86-1.6,1.74-3.19,2.61-4.78.33-.6.84-1,1.48-.61a49,49,0,0,1,4.4,3.16c.74.61.39,1.39-.53,1.62-1.1.27-2.18.62-3.28.9C145,14,143.72,14.33,142.39,14.66Z"/><path d="M131.64,11.33c-.24.55-.3,1-.55,1.19A23.44,23.44,0,0,1,128,14.9c-.95.55-1.67.07-2.1-1-.62-1.49-1.3-2.95-2-4.41-.33-.71-.15-1.13.57-1a14.07,14.07,0,0,1,5.9,1.56A6.55,6.55,0,0,1,131.64,11.33Z"/><path d="M197.14,17.12c2.09-2.06,4.1-4,6.1-6,.34-.33.61-.72.93-1.07a1.46,1.46,0,0,1,2-.32A11.74,11.74,0,0,1,210.22,14c.36.64.39,1.28-.49,1.52-2.66.72-5.31,1.45-8,2.1-1.18.29-2.4.35-3.58.6-.3.06-.75.41-.76.64-.17,3.13-.27,6.25-.39,9.47h1.32c2.56,0,5.13,0,7.69,0,.68,0,1.18-.12,1.43-.8a.24.24,0,0,1,.06-.08c.83-1.08,1.69-2.29,3.21-2.13s2.3,1.44,2.93,2.68.17,2-1.27,2-2.88,0-4.48,0c0,.62-.1,1.28-.1,1.94q.09,8.19.21,16.39c0,1.58-.13,1.85-1.66,2.06a21.69,21.69,0,0,1-3.22.22c-1.55,0-2-.46-2-2,0-5.9,0-11.8,0-17.7V29.78c-1.38,0-2.68-.05-4,0-.26,0-.62.53-.69.87-.78,3.37-1.93,6.56-4.41,9.06a45.07,45.07,0,0,1-4.21,3.44c-.18.14-.49.1-.74.15,0-.28-.16-.62-.05-.83,3.43-6.88,3.67-14.27,3.53-21.72,0-1-.07-2-.13-2.93a1.75,1.75,0,0,1,1.62-2.13C193.9,15.33,195.64,15.23,197.14,17.12Z"/><path d="M173.41,22c-.14-2-.3-4-.42-6.09-.09-1.5.16-1.78,1.65-1.53a48,48,0,0,1,4.92,1.12c1.27.36,1.47,1.23.79,2.34a3.24,3.24,0,0,0-.45,1.57c0,1.1.14,2.21.26,3.65a5,5,0,0,0,1.33-.72c.71-.74,1.22-1.83,2.5-1.52s1.68,1.57,2.08,2.66c.34.92-.26,1.53-1.29,1.41-1.47-.18-2.93-.38-4.56-.6.1,2,.22,3.91.3,5.82.17,4.18.29,8.36.48,12.54a1.55,1.55,0,0,1-1.34,1.81c-1.26.25-2.52.44-3.78.64-.94.15-1.36-.27-1.39-1.23-.1-3.13-.23-6.27-.35-9.4a3.41,3.41,0,0,0-.2-1.09,19.51,19.51,0,0,1-7,6.15l-.26-.18a2.48,2.48,0,0,1,.11-.73,30.18,30.18,0,0,0,2.13-8c.18-1.19.54-1.46,1.7-1.2s2.08.54,3.12.82c0-1.12,0-2.24,0-3.37,0-.6-.09-1.21-.12-1.81-.07-1.58-.06-1.57-1.6-1.64-1-.05-2-.06-3-.2-.29,0-.52-.45-.78-.69.28-.18.55-.51.83-.52C170.45,22,171.86,22,173.41,22Z"/><path d="M182.32,29.9c1.59.59,3.23,1.08,4.76,1.78a1.47,1.47,0,0,1,.54,2.44,11.36,11.36,0,0,1-2.19,2.19c-.76.58-1.4.23-1.77-.68-.63-1.54-1.3-3.08-2-4.58C181.3,30.31,181.58,30.14,182.32,29.9Z"/></svg>