<svg id="圖層_1" data-name="圖層 1" xmlns="http://www.w3.org/2000/svg" viewBox="0 0 80 220"><defs><style>.cls-1{fill:#fff;}</style></defs><path class="cls-1" d="M56.32,195.78c.82,0,1.46,0,2.09,0,1.09,0,1.91.38,1.94,1.53s-.84,1.67-2,1.67H54.71l2.86,4.83c.27.47.56.93.83,1.4a1.58,1.58,0,0,1-.5,2.42,1.56,1.56,0,0,1-2.25-.75c-1.24-2-2.54-4-3.61-6.11a3,3,0,0,0-3.22-1.83c-6.81.1-13.61,0-20.39,0a43.16,43.16,0,0,1-2.07,4.61A21.32,21.32,0,0,1,23.61,207c-.72.81-1.67,1.19-2.57.26s-.45-1.81.38-2.55A11.27,11.27,0,0,0,24.87,199h-3c-1.14,0-2.19-.2-2.21-1.58s1-1.67,2.15-1.62c.49,0,1,0,1.69,0v-1.62q0-10.51,0-21c0-4.58,2.34-6.91,7-6.91h19.1c4.51,0,6.79,2.32,6.79,6.86q0,10.44,0,20.88Zm-3.28-22c.26-3.44-.59-4.38-3.83-4.38q-9.47,0-18.94,0c-2.92,0-4.05,1.49-3.34,4.38Zm0,3.37H26.82v4H53.06Zm0,18.52v-4H26.81v4Zm0-11.09H26.82v3.68H53.06Z"/><path class="cls-1" d="M23.57,93.64c0,2.37-.06,4.58,0,6.78.05,1.45,1.21,2.37,2.86,2.39,2.17,0,4.34,0,6.51,0h24a11.62,11.62,0,0,1,1.18,0,1.51,1.51,0,0,1,1.57,1.61c0,1-.63,1.5-1.59,1.59a11.76,11.76,0,0,1-1.19,0H27.31q-7,0-7-7,0-7.92,0-15.84c0-4.33,2.44-6.75,6.81-6.75,6.36,0,12.73,0,19.09,0a1.66,1.66,0,0,0,1.8-1.1c.58-1.28,1.28-2.51,2-4H25.14c-2.47,0-3-.86-1.89-3.11.62-1.29,1.24-2.58,1.88-3.85.5-1,1.28-1.43,2.31-.87A1.51,1.51,0,0,1,28,65.89c-.36.69-.71,1.39-1.15,2.26.65,0,1.16.08,1.68.08H51.73c2.7,0,3.22.85,2,3.23-.84,1.61-1.69,3.21-2.55,4.85,5,.74,6.74,2.75,6.74,7.83,0,1.08,0,2.17,0,3.25a6.09,6.09,0,0,1-6.29,6.24q-13.09,0-26.19,0Zm16.94-3.2c3.9,0,7.63,0,11.37,0a2.75,2.75,0,0,0,2.77-2.85c0-1.57,0-3.15,0-4.73a2.85,2.85,0,0,0-3.14-3.1c-3.3,0-6.6,0-9.9,0-.37,0-.74.07-1.11.1Zm-3.36-10.7c-3.72,0-7.27,0-10.82,0-1.38,0-2.58.71-2.66,2.08-.19,2.83-.06,5.68-.06,8.5H37.15Z"/><path class="cls-1" d="M47.16,15.44c.33-1.38-.49-3.32,1.71-3.31s1.46,1.89,1.74,3.31h8.51a1.5,1.5,0,0,1,1.68,1.5,1.51,1.51,0,0,1-1.66,1.67c-1.92.05-3.85,0-5.77,0H50.62v6.27h7.47c.49,0,1.08-.16,1.46.05.61.34,1.38.83,1.55,1.41.27.95-.46,1.52-1.43,1.65-.34.05-.68.08-1.11.13V33.7c1.12.17,2.67,0,2.58,1.79C61.07,37,59.81,37.08,58.47,37c0,2.94,0,5.79,0,8.64a33,33,0,0,1-.11,4,5.75,5.75,0,0,1-5.58,5.14c-.93.05-1.87,0-2.81,0a1.53,1.53,0,0,1-1.7-1.49c-.07-1.07.63-1.62,1.65-1.68s1.88,0,2.81,0a2.47,2.47,0,0,0,2.51-2.42c.06-4,0-8,0-12.14H38.64c-1.56,0-2.38-.57-2.3-1.65.12-1.46,1.18-1.63,2.36-1.58.29,0,.59,0,.89,0H55.18V28.13c-.53,0-1-.07-1.56-.07H39.26c-.44,0-.89,0-1.33,0-1-.1-1.62-.56-1.58-1.59A1.47,1.47,0,0,1,38,24.93c2.47,0,4.94,0,7.4,0h1.75V18.64h-7.1a14.62,14.62,0,0,1-1.48,0c-1-.1-1.69-.62-1.63-1.71a1.5,1.5,0,0,1,1.71-1.45c2.22,0,4.44,0,6.66,0Z"/><path class="cls-1" d="M30.15,38.37c1.09-.47,2.08-.88,3.05-1.31s1.87-.35,2.35.74-.14,1.76-1.08,2.21a1.59,1.59,0,0,1-.4.18c-3.54.74-4.59,2.93-4.09,6.38A43.35,43.35,0,0,1,30,52.92c0,1.11-.36,2-1.62,2s-1.59-.91-1.59-2c0-3.09,0-6.18,0-9.48l-5.18,2.25c-1.05.46-2.07.62-2.63-.63s.33-1.88,1.35-2.33c1.84-.81,3.72-1.58,5.53-2.46A1.8,1.8,0,0,0,26.8,39c.06-4.74,0-9.47,0-14.42h-5c-2,0-2.46-.61-2.11-2.55s.75-3.77,1.13-5.65c.2-1,.72-1.7,1.82-1.47a1.57,1.57,0,0,1,1.23,2c-.23,1.41-.48,2.81-.74,4.33h3.69c0-2.38-.09-4.74.06-7.09a2.67,2.67,0,0,1,1.17-1.91c1-.52,1.93.45,2,1.85,0,2.36,0,4.72,0,7.26.95,0,1.77,0,2.59,0,1.08,0,1.87.52,1.82,1.68s-.79,1.52-1.83,1.51c-.79,0-1.57,0-2.47,0Z"/><path class="cls-1" d="M52.7,117.81c2.09,0,4.2,0,6.31,0,1.18,0,2.16.29,2.14,1.64s-1,1.57-2.07,1.57H52.71c-.44,1.36.48,3.55-1.78,3.53s-1.35-2.07-1.67-3.42H30.76c-.41,1.25.52,3.53-1.86,3.42-2.06-.1-1.25-2.08-1.57-3.52H22.11c-.54,0-1.08,0-1.62,0-1-.09-1.71-.57-1.64-1.69a1.48,1.48,0,0,1,1.67-1.48c1.83,0,3.65,0,5.48,0h1.27c.53-1.37-.62-3.69,1.86-3.59,2.16.08,1.25,2.16,1.62,3.5H49.23c.48-1.22-.66-3.54,1.73-3.52S52.26,116.41,52.7,117.81Z"/><path class="cls-1" d="M38.68,141.14H28.54c-.55,0-1.09,0-1.63,0-1.08,0-1.86-.52-1.8-1.69s.81-1.5,1.84-1.5H38.69c0-1,0-2,0-3s.39-1.87,1.59-1.86,1.59.83,1.61,1.89,0,1.85,0,2.93h7.64c1.14,0,2.27,0,3.41,0s2,.39,2,1.64S54,141.13,53,141.14c-3.11,0-6.22,0-9.33,0H41.89c0,3.13.08,6.13,0,9.12a11.5,11.5,0,0,1-.81,4,6.28,6.28,0,0,1-7.32,3,2,2,0,0,1-1.1-1.47,2.36,2.36,0,0,1,1.3-1.48,6.2,6.2,0,0,1,2-.1,2.62,2.62,0,0,0,2.69-2.45C38.73,148.28,38.68,144.79,38.68,141.14Z"/><path class="cls-1" d="M40,126.21c3.7,0,7.4,0,11.1,0a6.52,6.52,0,0,1,6.59,4.29c.65,1.54,1.37,3.05,2.08,4.57.47,1,.51,2-.65,2.49s-1.84-.16-2.28-1.22c-.63-1.5-1.32-3-2-4.46A3.85,3.85,0,0,0,51,129.33c-7.35.06-14.7,0-22,0a3.75,3.75,0,0,0-3.72,2.37c-.73,1.56-1.41,3.14-2.08,4.73-.43,1-1.18,1.54-2.21,1.1s-1.16-1.35-.71-2.36c.83-1.83,1.59-3.71,2.5-5.51a6.14,6.14,0,0,1,5.91-3.45Z"/><path class="cls-1" d="M19.45,154.23a6.65,6.65,0,0,1,1.2-1.36,31.47,31.47,0,0,0,8.59-8.43c.68-.93,1.5-1.54,2.6-.71s.63,1.71,0,2.58a33.21,33.21,0,0,1-9.41,9,3,3,0,0,1-2,.22C20.05,155.49,19.83,154.79,19.45,154.23Z"/><path class="cls-1" d="M58.16,156a8.4,8.4,0,0,1-1.48-1c-2.72-2.84-5.4-5.72-8.1-8.59-.72-.77-1-1.61-.18-2.45s1.68-.59,2.44.2c2.72,2.86,5.47,5.67,8.13,8.58a2.57,2.57,0,0,1,.51,1.94C59.4,155.21,58.68,155.56,58.16,156Z"/></svg>