<svg id="圖層_1" data-name="圖層 1" xmlns="http://www.w3.org/2000/svg" viewBox="0 0 220 60"><defs><style>.cls-1{stroke:#000;stroke-width:0.5px;}</style></defs><path d="M123,22.26c1.73.14,3.34.31,5,.38a1.3,1.3,0,0,0,.92-.55c.38-.54.62-1.19,1-1.77a1.24,1.24,0,0,1,1.86-.6c1.34.79,2.67,1.58,3.95,2.44a1.3,1.3,0,0,1,.46,1.09c-.07.32-.54.58-.87.81a12.22,12.22,0,0,0-1.28.74,36.47,36.47,0,0,1-8,5.89h4.37a1.34,1.34,0,0,0,0-.2c-.06-.54-.14-1.09-.21-1.63a6.67,6.67,0,0,1,1.82.29,22.4,22.4,0,0,1,3.54,1.92,1.8,1.8,0,0,1,.15,3,13.12,13.12,0,0,1-3.18,1.7c-.6.24-1.09-.15-1.2-.87s-.25-1.58-.39-2.45c-2.22,1.31-4.36,2.54-6.46,3.81-1.21.74-1.82.66-2.42-.61A33.26,33.26,0,0,1,120.54,32c-.3-.89,0-1.34,1-1.48a3.44,3.44,0,0,0,2.3-1.32c1.18-1.5,2.37-3,3.56-4.46l-.21-.21c-1.89,1-3.79,2-5.64,3.07-.77.44-1.43.46-1.76-.36-.59-1.42-1.07-2.9-1.52-4.37-.19-.66.26-1,.89-1.08A2.7,2.7,0,0,0,121.47,20c.84-1.95,1.72-3.88,2.52-5.85.5-1.2.93-1.58,2.14-1.1a32.08,32.08,0,0,1,4.54,2.18c1,.58.85,1.45-.25,1.91a3.69,3.69,0,0,0-.64.29C127.55,19,125.34,20.57,123,22.26Z"/><path d="M145.72,46.47V37.53c-1.56,0-3,0-4.43,0-.56,0-1.45.25-1.45-.62s.86-.66,1.43-.64c3.62.11,7.23.22,10.84.38.7,0,1.27,0,1.63-.69a.24.24,0,0,1,.06-.08c.77-.83,1.6-1.74,2.84-1.37A3.83,3.83,0,0,1,159,37.44c.21.76-.27,1-1,1L152.37,38v8.4c.86,0,1.56,0,2.25,0a1.37,1.37,0,0,0,.66-.37,4.14,4.14,0,0,0,.43-.56c1.82-2.31,4.19-1.95,5.29.79.42,1.05.09,1.53-1,1.49a181.39,181.39,0,0,0-20.46.44c-.61,0-1.63.42-1.69-.52s1-.73,1.66-.78C141.56,46.69,143.65,46.59,145.72,46.47Z"/><path d="M139.85,26.17a31.05,31.05,0,0,1,3.35,1.75c1.61,1.07,1.68,2,.28,3.33a11.13,11.13,0,0,1-2.31,1.61c-.88.47-1.34.13-1.62-.81-.48-1.65-1.05-3.27-1.54-4.91a3.38,3.38,0,0,1-.14-1.37c.33-2.17.73-4.32,1.06-6.49a.89.89,0,0,1,1.11-.87,9.75,9.75,0,0,1,5.06,2.11c.64.53.46,1.18-.28,1.61a11,11,0,0,0-1.67,1.2C142,24.25,141,25.21,139.85,26.17Z"/><path d="M148.61,26.14a31.31,31.31,0,0,1,3.24,1.4c1.65.93,1.72,2,.29,3.25a11.76,11.76,0,0,1-2.08,1.42c-.89.47-1.43.15-1.76-.8-.5-1.5-1.09-3-1.6-4.46a2.55,2.55,0,0,1-.12-1.16c.34-1.93.74-3.84,1.08-5.76.15-.79.55-1.23,1.32-.93,1.49.59,3,1.26,4.4,2A1.16,1.16,0,0,1,154,22c-.07.34-.5.63-.82.88s-.86.5-1.26.79C150.78,24.49,149.69,25.32,148.61,26.14Z"/><path d="M156.53,25.71A31.87,31.87,0,0,1,160.15,27c1.38.67,1.52,1.8.36,2.82a10.74,10.74,0,0,1-2.57,1.57c-.66.31-1.18,0-1.5-.73a34.08,34.08,0,0,0-1.84-3.8,1.88,1.88,0,0,1-.09-2.13,39.85,39.85,0,0,0,1.88-4.15c.35-.87.88-1.16,1.73-.74a37.45,37.45,0,0,1,3.69,1.86c.84.52.61,1.36-.31,1.76C159.84,24.16,158.21,24.94,156.53,25.71Z"/><path d="M144.81,14.51c2.59.15,5.66.35,8.73.49a2,2,0,0,0,1.18-.49c.6-.49,1.07-1.13,1.67-1.61a2.06,2.06,0,0,1,2.93.17A14.62,14.62,0,0,1,161,15.22c.55.84.21,1.48-.79,1.48s-2.22-.14-3.33-.19l-18.14-.76c-.2,0-.44.06-.6,0a6.32,6.32,0,0,1-.83-.66c.28-.18.55-.52.83-.53C140.2,14.49,142.27,14.51,144.81,14.51Z"/><path d="M123.73,42.31c-.16,1.1-.24,2-.43,3a1.49,1.49,0,0,1-2.1,1.26,15.27,15.27,0,0,1-3.46-2.34c-.72-.63-.41-1.81.29-2.52,1.22-1.24,2.37-2.55,3.57-3.81.18-.19.51-.44.71-.39a1,1,0,0,1,.63.62C123.25,39.53,123.49,41,123.73,42.31Z"/><path d="M125.47,41.44c-.09-.95-.16-1.79-.25-2.63s.38-1.35,1.18-1a9.66,9.66,0,0,1,4.15,3.6,1.75,1.75,0,0,1-.45,2.36,5.84,5.84,0,0,1-3.68,1.5c-.86.07-1.31-.49-1.22-1.35S125.38,42.21,125.47,41.44Z"/><path d="M136.92,40.31c-.28.57-.37,1.13-.7,1.36a15.93,15.93,0,0,1-2.85,1.66c-.72.32-1.26,0-1.44-.87-.29-1.48-.66-3-1-4.41-.24-.95,0-1.3.91-1A30.32,30.32,0,0,1,136,39C136.4,39.21,136.61,39.85,136.92,40.31Z"/><path d="M39.28,24.48l-7.06.44c.18,1.5-.84,1.74-1.94,1.87s-2.21.28-3.32.34c-.89.05-1.33-.44-1.41-1.35q-.61-7-1.29-14c-.11-1.14.09-1.57,1.23-1.8S28,9.56,29.3,9.42a1.2,1.2,0,0,1,1.49,1.25c0,.69.31.91,1,.9q4,0,8,0c.64,0,1-.13,1-.87.11-1.39.7-1.83,2-1.42a33.89,33.89,0,0,1,4.81,1.8c1.24.58,1.19,1.58.12,2.47a2,2,0,0,0-.7,1.19c-.37,3.36-.67,6.72-1,10.09-.11,1.24-.36,1.56-1.59,1.63-1,.06-2.09.06-3.14,0C39.6,26.44,39.5,26.32,39.28,24.48ZM31.65,18a1.17,1.17,0,0,0,1.59-.61,4.73,4.73,0,0,1,.59-.82,2,2,0,0,1,3.31-.11A5.53,5.53,0,0,1,38,17.65c.74,1.37.45,1.81-1.1,1.8s-3.34,0-5.09,0l.35,4.16c1.93-.11,3.78-.24,5.64-.32,1.7-.07,1.7-.05,1.85-1.79,0-.2,0-.4.07-.6.23-2.62.47-5.24.71-7.92H31.06Z"/><path d="M42.87,32.44v5.62a8.06,8.06,0,0,0,1.18-.67c.65-.57,1.21-1.27,1.91-1.78a1.6,1.6,0,0,1,2.22.17A12,12,0,0,1,50,38.07c.52.93.1,1.48-1,1.44l-6.07-.27c.14,1.77.32,3.43.37,5.1a27.62,27.62,0,0,1-.11,5.23c-.47,2.78-2.51,3.89-5.22,4.28a1.12,1.12,0,0,1-1.33-1,4.16,4.16,0,0,0-3.53-3.44c-.23,0-.41-.35-.61-.53.22-.2.43-.55.68-.59.63-.1,1.28,0,1.92-.08,1.36-.08,2-.74,1.94-2.07-.1-2.13-.28-4.25-.36-6.38,0-.77-.44-.86-1-.85H25a3.1,3.1,0,0,1-1,0c-.39-.13-1-.37-1-.65-.13-.68.51-.65,1-.66l11.45-.14c.34,0,.67,0,1.06,0V31.9L31,31.66c-1.21,0-2.44,0-3.65-.11-.36,0-.94-.38-1-.67-.13-.62.44-.71.95-.69,4.08.16,8.17.33,12.26.45a1.59,1.59,0,0,0,1.15-.46c2.3-2.9,4.19-2.52,5.94.63.65,1.16.29,1.67-1,1.63C44.73,32.42,43.86,32.44,42.87,32.44Z"/><path d="M10.37,34.65C9,35.13,7.85,35.58,6.63,36a3.22,3.22,0,0,1-.93,0c.12-.35.14-.8.38-1A45.21,45.21,0,0,0,12.94,27c.37-.57.69-1.16,1.05-1.74a1.24,1.24,0,0,1,1.8-.59,28.44,28.44,0,0,1,3.72,2.73c.84.75.58,1.47-.43,2a10.37,10.37,0,0,0-1.5,1c-1.15.83-2.28,1.68-3.51,2.59.81.17,1.57.3,2.33.48,1.57.37,1.79,1,.9,2.34A2,2,0,0,0,17,36.87c.07,2.57.19,5.14.27,7.7.05,1.39-.05,1.58-1.43,1.86a27.35,27.35,0,0,1-3.61.43c-1.07.07-1.33-.26-1.36-1.38l-.36-9.31C10.51,35.7,10.43,35.24,10.37,34.65Z"/><path d="M18.88,19.11a7.83,7.83,0,0,1-1.13.86,23.93,23.93,0,0,1-2.19,1c-2.73,1.13-5.46,2.25-8.21,3.34-.24.1-.59-.09-.89-.14a2.29,2.29,0,0,1,.28-.81,38.65,38.65,0,0,0,6-8.33,1.07,1.07,0,0,1,1.64-.47c1.39,1.09,2.7,2.3,4,3.5C18.62,18.22,18.66,18.58,18.88,19.11Z"/><path d="M27.09,41.35a40.66,40.66,0,0,1,4.12.85c1.5.48,2,1.53,1.4,2.91A9.62,9.62,0,0,1,30.24,48c-.78.68-1.8.22-2.38-.69-1-1.56-2-3.09-3.06-4.62-.42-.61-.3-1,.43-1.12a15.77,15.77,0,0,1,1.82,0Z"/><path d="M183.31,14.81c-.09,1.72-.15,3.4-.26,5.07-.32,5.18-1,10.3-3.05,15.12a23.32,23.32,0,0,1-6.14,8.46,3.51,3.51,0,0,1-1,.39,2.74,2.74,0,0,1,0-1,68.69,68.69,0,0,0,3.62-20.38c.14-3.07.06-6.15.07-9.22,0-1.52.16-1.78,1.63-2a17.71,17.71,0,0,1,2.52-.2c2.19,0,2.44.18,2.59,2.37l2.47.14c5.13.32,10.25.66,15.38,1a1.67,1.67,0,0,0,1-.43c.37-.29.61-.73,1-1,.8-.61,1.61-1.34,2.74-.82a4.19,4.19,0,0,1,2.53,3.21c.13.79-.43,1-1.09.93-3.27-.28-6.53-.62-9.8-.84-4.55-.29-9.1-.5-13.66-.74C183.7,14.77,183.54,14.8,183.31,14.81Z"/><path d="M200.52,45.26a5.15,5.15,0,0,0,1.26-.81c1.83-2.26,3.43-2.13,4.8.44a5.6,5.6,0,0,1,.27.55c.36.9.05,1.34-.92,1.3l-2.74-.11-2.74-.14v5.32c.74,0,1.34,0,1.93,0,.21,0,.41-.24.6-.39s.1-.18.15-.27c1.63-2.81,4.45-2.81,6.12,0,.71,1.19.41,1.75-1,1.8-4,.15-8,.23-11.95.47-4.58.28-9.16.7-13.74,1.07-.2,0-.44.13-.59,0a5.9,5.9,0,0,1-.79-.63c.24-.23.46-.59.74-.65.79-.15,1.61-.17,2.41-.26.36,0,.72-.1,1.21-.18-.24-2.52-.48-5-.71-7.42-.13-1.34.13-1.75,1.44-1.64a29.69,29.69,0,0,1,4.77.8c1.24.33,1.37,1.09.69,2.16a3,3,0,0,0-.42,1.56c0,1.34.15,2.68.23,4.12l2.57-.19c0-1.5.06-3,0-4.38-.13-2.47-.36-4.93-.52-7.39-.07-1,.34-1.49,1.36-1.36,1.7.21,3.41.48,5.08.85,1.36.31,1.65,1.25.67,2.21s-.41,1.88-.47,2.83Z"/><path d="M186.72,26.57V22.91c-.77.16-1.43.32-2.09.4a1.78,1.78,0,0,1-.69-.24,2.56,2.56,0,0,1,.28-.7c1.55-1.73,3.13-3.43,4.67-5.18.48-.54,1-.75,1.59-.35a24.24,24.24,0,0,1,3,2.26c.83.78.5,1.64-.59,1.95-.93.27-1.86.58-3,.93.85.28,1.47.5,2.1.69.83.24.92.82.48,1.39-.72.93-.36,1.9-.18,3l.72-.71c1.39-1.37,2.74-1.08,3.41.74.51,1.39.1,1.89-1.38,1.7-.93-.13-1.87-.23-2.9-.35l.06,1.44a31.74,31.74,0,0,1,3.13.56c1.56.44,1.89,1.55.92,2.84a4.67,4.67,0,0,1-.86.86c-1.18.94-1.67.8-2.23-.57-.2-.48-.45-.94-.68-1.42l-.28,0c0,1.22,0,2.45,0,3.67,0,1.43-.24,1.71-1.64,2a20.55,20.55,0,0,1-2.61.17c-.76,0-1-.38-1-1.07,0-1.21,0-2.41,0-3.48-1.62,1-3.22,2-4.84,3a2.81,2.81,0,0,1-.94.2,4.26,4.26,0,0,1,.1-1c.57-1.62,1.2-3.22,1.78-4.85.41-1.15.61-1.3,1.77-1,.68.18,1.33.45,2.06.7V27.93a24.72,24.72,0,0,1-2.73,0c-.32,0-.59-.45-.89-.69.32-.21.62-.57,1-.6A24,24,0,0,1,186.72,26.57Z"/><path d="M201.36,31.23V28.61c-.94.07-1.81.19-2.67.17-.35,0-.69-.34-1-.52.32-.28.6-.73,1-.8a26.65,26.65,0,0,1,2.8-.23v-4c-.71.08-1.44.18-2.17.21a1,1,0,0,1-.73-.31c-.08-.1.08-.52.25-.67,1.74-1.64,3.47-3.3,5.29-4.85a1.59,1.59,0,0,1,1.52-.1A16.73,16.73,0,0,1,208.3,20c.72.83.29,1.68-.82,1.9-.7.14-1.4.31-2.09.46v.27c.44.11.89.2,1.32.34a1,1,0,0,1,.62,1.52c-.34.75-.54,1.56-.81,2.34l.4.31a5.71,5.71,0,0,0,.94-.53c.39-.32.65-.9,1.07-1a2,2,0,0,1,1.65.12,10,10,0,0,1,1.27,2.21c-.33.17-.66.48-1,.49-1.34.06-2.69,0-4.24,0,0,.7,0,1.36,0,2,0,2,0,3.92.11,5.88,0,.87-.29,1.41-1.11,1.53a28.72,28.72,0,0,1-3.22.26c-.63,0-.88-.39-.88-1,0-1,0-1.95,0-2.93l-.28-.12a7.83,7.83,0,0,1-.72.57c-1.23.76-2.46,1.52-3.71,2.23-.21.12-.55,0-.83,0a3.17,3.17,0,0,1,.1-.76c.61-1.56,1.28-3.11,1.86-4.69.31-.84.81-1.13,1.63-.83C200.14,30.75,200.7,31,201.36,31.23Z"/><path d="M210.8,37.56a6.33,6.33,0,0,1-1-.57c-1.61-1.24-2-3.06-2.19-4.93a7.06,7.06,0,0,1,.22-1.69,12.06,12.06,0,0,1,1.4.8,8.9,8.9,0,0,0,4.11,1.58,2.87,2.87,0,0,1,1,.53c-.26.27-.46.66-.77.79-1.11.43-1.24,1.41-1.46,2.36C211.94,37,211.86,37.6,210.8,37.56Z"/><path class="cls-1" d="M78.87,12.06a41.16,41.16,0,0,0-4.08-.55c-.19,0-.28.07-.28.23a2.15,2.15,0,0,1,0,.4v8.48H70.7V14.83c.32-.42.66-.85,1-1.3,0-.35-.35-.6-1.07-.76a32.82,32.82,0,0,0-3.72-.55c-.19,0-.28,0-.28.24a2.21,2.21,0,0,0,0,.63v9.79A1.17,1.17,0,0,0,67.37,24a3.43,3.43,0,0,0,2.54,0,1.44,1.44,0,0,0,.79-1.31V21.69h3.85v4.48H67.93l-2.7-.24c-.26,0-.39,0-.39.16.1.42.22.87.36,1.34,0,.11.14.14.35.08l2.14-.23q0,5.87-3.09,9c-.18.19-.24.34-.16.48s.24.13.48.07a12.14,12.14,0,0,0,5-3.56,10.15,10.15,0,0,0,1.86-6.06h2.78v8a1.38,1.38,0,0,0,.63,1.19,3,3,0,0,0,2.5.12A1.56,1.56,0,0,0,78.63,35V14.4a.65.65,0,0,1,.39-.64c.58-.18.89-.47.91-.87S79.58,12.22,78.87,12.06Z"/><path class="cls-1" d="M88.93,32.59A1.71,1.71,0,0,0,90.3,31.3a4.24,4.24,0,0,0,0-2.18,3.33,3.33,0,0,0-1.75-2,6.78,6.78,0,0,0-2.9-.7.34.34,0,0,0-.37.25.61.61,0,0,0,.2.54,6.44,6.44,0,0,1,1.21,3C86.77,31.93,87.52,32.73,88.93,32.59Z"/><path class="cls-1" d="M106.31,24.06a12.72,12.72,0,0,0-2.45-3.32c-.36-.33-.65-.27-.87.19-.61.93-1.12,1.76-1.54,2.49V21c0-.42.11-.66.33-.69a1.11,1.11,0,0,0,.79-1q0-.64-1.08-1c-.77-.14-1.5-.23-2.19-.3a38.4,38.4,0,0,0,4.48-4.66,2.38,2.38,0,0,1,1-.9c.53-.13.82-.39.87-.79a1.32,1.32,0,0,0-.54-1A16.88,16.88,0,0,0,102,7.94a.46.46,0,0,0-.54-.05,5.78,5.78,0,0,0-1.08,1.44,1.74,1.74,0,0,1-.49.49H94.61s0-.06.08-.1c.42-.39.75-.57,1-.54a.7.7,0,0,0,.83-.5c.11-.43-.13-.82-.71-1.19a37.92,37.92,0,0,0-3.65-2c-.16-.1-.29,0-.37.2a20.27,20.27,0,0,1-8.59,8.63.59.59,0,0,0-.29.49c0,.2.2.28.5.25.61-.13,1.27-.3,2-.49a5.28,5.28,0,0,1,.33,2.23c-.25,1.59.34,2.51,1.75,2.78a1.5,1.5,0,0,0,1.49-1,4.17,4.17,0,0,0,.33-2A3.61,3.61,0,0,0,87.14,14c1.5-.69,2.41-1.09,2.74-1.19a4.6,4.6,0,0,1,.62,2.13c0,1.62.71,2.4,2.12,2.33A1.52,1.52,0,0,0,94,16.07,4.2,4.2,0,0,0,94,14a3,3,0,0,0-1.58-1.79,6.26,6.26,0,0,0-.79-.34,6.78,6.78,0,0,1,.92-.55l1.07-.15H100q-4.52,7.89-16.17,10.27c-.67,0-1,.22-1,.65a.52.52,0,0,0,.54.49A30.49,30.49,0,0,0,97,19.3v4.81H86.31l-3-.35c-.28,0-.4,0-.38.2.11.6.23,1.18.34,1.74q0,.3.33.15l2.69-.4H97v4.27q0,1.08-1.32,1c-.53,0-1-.08-1.5-.15-.19,0-.32.08-.37.35s.07.48.29.54A5,5,0,0,1,96.52,36c0,.19.11.29.33.29a6.55,6.55,0,0,0,2.67-.76l.32-.23h0a2.27,2.27,0,0,0,.62-.59,4.48,4.48,0,0,0,1-3.08v-6.2h4.44a.57.57,0,0,0,.62-.4A1.08,1.08,0,0,0,106.31,24.06Z"/><path class="cls-1" d="M88,36.14a5.21,5.21,0,0,1,1.19,2.65c0,1.45.77,2.15,2.3,2.09a1.72,1.72,0,0,0,1.5-1.06A2.35,2.35,0,0,0,93,38a3.13,3.13,0,0,0-1.76-1.8,7.19,7.19,0,0,0-3.1-.72.31.31,0,0,0-.39.21A.48.48,0,0,0,88,36.14Z"/><path class="cls-1" d="M104.55,48.36c-.09-.17-.33-.23-.71-.17Q92.85,49.72,86.4,44a17.74,17.74,0,0,1-1.28-1.36h17a.81.81,0,0,0,.75-.3q.13-.26-.18-.6a13.41,13.41,0,0,0-4.15-3.68.83.83,0,0,0-.61-.08l-.27.17a30.15,30.15,0,0,0-2.38,3,.92.92,0,0,1-.8.38H85.21c.18-.68.34-1.31.49-1.88a.72.72,0,0,1,.57-.6c.74-.17,1.13-.44,1.19-.81s-.29-.65-1-.85q-2.52-.69-4.9-1.24c-.26,0-.4.07-.4.3-.44,3.33-.66,5-.66,5.08H68.35l-3-.3c-.38-.08-.54,0-.49.17a11.54,11.54,0,0,0,.45,1.54c0,.2.19.24.48.13l2.61-.38H80.22a16.2,16.2,0,0,1-4.77,6.53,35.13,35.13,0,0,1-11.21,4.06.48.48,0,0,0-.49.43c0,.2.17.31.49.34q9.54-.14,15.36-3.85a12.86,12.86,0,0,0,4.86-6.49,19.2,19.2,0,0,0,11.26,9.78,17.26,17.26,0,0,0,5.52.9c.38,0,.59-.2.61-.51A6,6,0,0,1,104.28,49Q104.69,48.66,104.55,48.36Z"/></svg>