<?xml version="1.0" encoding="utf-8"?>
<!-- Generator: Adobe Illustrator 24.1.0, SVG Export Plug-In . SVG Version: 6.00 Build 0)  -->
<svg version="1.1" id="圖層_1" xmlns="http://www.w3.org/2000/svg" xmlns:xlink="http://www.w3.org/1999/xlink" x="0px" y="0px"
	 viewBox="0 0 80 220" style="enable-background:new 0 0 80 220;" xml:space="preserve">
<path d="M27.4,154.9h-6.1c-0.5-12.8-1-25.6-1.5-38.4l1.7-0.1c0.1,0.7,0.1,1.4,0.2,2.2c0.3,3.1,1,6.1,2.1,9c0.2,0.7,0.7,1.3,1.3,1.6
	c1.2,0.6,2.6,0.2,3.3-1c0.1-0.2,0.2-0.3,0.2-0.5c0.6-2.2,0.9-4.5,0.7-6.7c-0.1-1.3-1.2-2.2-2.5-2.1c-0.2,0-0.5,0.1-0.7,0.2
	c-0.9,0.4-1.7,0.8-2.5,1.3v-4.2l10.2-0.7c-0.1,1-0.2,2-0.3,3c-0.3,3.2-0.7,6.3-1,9.4c0,0.3-0.2,0.5-0.4,0.7c-0.9,0.7-1.8,1.3-2.8,2
	l2.3,1.3c0.7,0.4,1.3,0.8,2,1.1c0.3,0.1,0.4,0.4,0.3,0.7c-0.4,4.1-0.9,8.3-1.3,12.4c0,0.3-0.1,0.6-0.1,1l-4.7,0.3
	c-1.2,0-2.2,0.9-2.3,2.1c0,0.1,0,0.2,0,0.4c0.1,1.6,0.6,3.1,1.5,4.4L27.4,154.9z M24.2,138.3c0.1,1,0.1,1.8,0.2,2.7
	c0,1.1,0.5,2.1,1.2,2.8c0.8,0.9,2.2,0.9,3,0.1c0.2-0.2,0.3-0.4,0.5-0.6c0.2-0.3,0.3-0.6,0.4-0.9c0.5-2.1,0.7-4.3,0.5-6.5
	c0-1.5-1.3-2.7-2.8-2.7c-1.5,0-2.7,1.2-2.8,2.7C24.2,136.7,24.2,137.5,24.2,138.3z"/>
<path d="M60.2,119c-0.8,12-1.5,24-2.3,36.1l-10.5-4c0-0.1,0-0.3,0-0.4l0.4-1.1c0.8,0.2,1.7,0.4,2.5,0.5c2.1,0.3,3.4-0.6,3.8-2.6
	c0.6-2.8,1.1-5.6,1.4-8.4c0.5-4.2,0.7-8.5,0.5-12.7c0.1-1.6-1.1-3-2.8-3.2c-3.4-0.5-6.9-0.4-10.2,0.3c-3.4,0.9-6.4,3-8.3,6
	c-0.1,0.1-0.1,0.2-0.2,0.3c-0.3-0.2-0.6-0.4-0.9-0.7c-0.1-0.1-0.1-0.4,0-0.6c1.1-2.5,2.3-5,3.5-7.6c1.1-2.3,2.2-4.6,3.4-6.9l0.3-0.5
	l5.2,1.2l-2.9,4.4c-0.1,0.2-0.2,0.4-0.2,0.6c0,0.4,0.4,0.4,0.7,0.3l5.6-0.4l9.5-0.7L60.2,119z"/>
<path d="M54.1,134.4c-0.1,1.5-0.2,2.9-0.4,4.4c-1.7-0.6-3.5-0.7-5.3-0.4c-1.1,0.1-2,0.9-2.1,2c-0.1,1.1-0.1,2.3-0.1,3.4
	c0,0.8,0.6,1.6,1.4,1.6c0,0,0,0,0,0c0.9,0,1.7-0.6,1.9-1.4c0.2-0.8,0.1-1.7-0.2-2.5c-0.1-0.3-0.2-0.6-0.4-0.9l3.8-0.2
	c-0.2,2.6-0.3,5.2-0.5,7.9l-15.5,1.1c-0.2-2.7-0.4-5.3-0.6-7.9h3.4c-0.1,1-0.2,2-0.2,3s0.5,1.7,1.4,1.8c0.9,0.1,1.7-0.5,1.8-1.4
	c0,0,0-0.1,0-0.1c0.2-1.3,0.2-2.7,0.1-4c-0.1-1.4-0.9-1.9-2.2-1.9c-1.8-0.1-3.6,0.2-5.2,0.9c-0.1,0-0.2,0.1-0.3,0.1v-4.3
	c0.5,0.2,1,0.3,1.5,0.3c1.6,0,3.2,0,4.8,0c0.8,0,1.4-0.7,1.5-1.4c0.3-0.8,0.1-1.7-0.6-2.1c-0.4-0.2-0.8-0.3-1.2-0.3
	c-1.5,0.3-2.9,1.1-3.9,2.2c-0.1,0.1-0.2,0.3-0.4,0.5l-1-1.2c0.5-0.8,1-1.7,1.5-2.5c1.3-2,2.6-4,3.9-5.9c0.1-0.3,0.5-0.4,0.8-0.3
	c0,0,0,0,0,0c1.3,0.4,2.6,0.7,3.9,1.1c-0.5,0.5-1,0.9-1.4,1.3c-0.2,0.3-0.5,0.5-0.7,0.8c-0.3,0.4-0.1,0.7,0.4,0.8
	c2.3,0.2,4.6,0.1,6.8-0.3l2.1-0.4l-0.3,4.1c-1.6-0.4-3.3-0.5-4.9-0.3c-1,0.1-1.8,1-1.8,2c0,0.9,0.8,1.7,1.7,1.7c0,0,0,0,0.1,0
	c1.9,0,3.9-0.2,5.8-0.8L54.1,134.4z"/>
<path d="M60.6,53.7l-1.1,1c-0.5-0.4-0.9-0.8-1.4-1.3c-3.6-3.4-7.3-6.5-11.2-9.5c-0.7-0.5-0.9-0.4-1,0.4c-0.5,3.8-0.9,7.7-1.4,11.6
	c0,0.2-0.1,0.4-0.1,0.7l-10-3.6c0-0.3,0.1-0.7,0.1-1c0-0.1,0.3-0.3,0.5-0.3c1.5,0,3,0.1,4.4,0.1s2-0.4,2.2-1.8
	c0.2-1,0.4-1.9,0.6-2.9s-0.1-1.1-1-0.8c-4.7,1.6-9.2,3.5-13.7,5.6c-2.3,1-4.6,2.2-6.8,3.2l-0.3,0.1l-0.7-1.3l3.6-2.1l18.3-10.3
	c0.9-0.6,1.2-1.7,0.6-2.6c-0.1-0.1-0.2-0.3-0.3-0.4c-0.3-0.1-0.6-0.1-0.9,0c-3,1.3-6.1,2.6-9.1,4c-3.9,1.8-7.7,3.7-11.6,5.6
	l-0.7-1.2l2.1-1.3l15.9-10.2c0.2-0.1,0.3-0.2,0.5-0.3c0.3-0.3,0.4-0.8,0.1-1.1c-0.1-0.1-0.3-0.2-0.5-0.3c-0.4-0.1-0.9,0-1.3,0.1
	c-3.6,1.2-7.1,2.6-10.5,4.3l-5.8,2.8l-0.7-1.3l14-8.7c-0.7-0.6-5.9-0.1-9.2,0.9V27c0.6,0,1.1,0.1,1.6,0.1c3.2,0,6.4,0,9.6-0.1
	c4.2-0.1,8.3-0.3,12.5-0.4c2.4-0.1,4.9-0.3,7.2-0.8c0.2,0,0.3,0,0.5,0l-0.3,4.8c-3-1-6-0.6-8.9-0.5c-1.1,0-2.2,0.1-3.2,0.3
	c-0.6,0.1-1.2,0.4-1.7,0.7c-0.4,0.2-0.6,0.7-0.4,1.1c0.1,0.2,0.3,0.3,0.4,0.4c1.4,0.8,2.9,1.7,4.3,2.4c0.3,0.1,0.5,0.5,0.5,0.9
	c-0.1,1,0,2,0.1,3c0.3,1.7,1.7,2.6,3.1,2c0.7-0.4,1.2-0.9,1.6-1.5c0.9-1.6,1.6-3.2,2-5c0.1-0.2,0.1-0.4,0.2-0.8l4.3,3.3
	c-0.8,0.7-1.6,1.3-2.3,2.1c-0.8,0.8-1.5,1.7-2.2,2.6c-0.7,0.9-0.7,2.3,0.1,3.2c2.3,3.1,4.8,6,7.5,8.8C60.5,53.5,60.6,53.6,60.6,53.7
	z"/>
<path d="M37.2,15.7h5.4c-0.1,0.3-0.2,0.6-0.2,1c-0.4,1.8,0.3,2.6,2.1,2.6L54.6,19l5.1-0.1c0.2,0,0.3,0,0.5,0l-1.3,9.4h-1.5
	c-0.2-0.6-0.3-1.2-0.5-1.9c-0.7-2.5-2.1-3.6-4.6-3.7c-3.9-0.1-7.7-0.1-11.6,0c-4.1,0.1-8.2,0.4-12.3,0.7c-2.1,0-4.1,1-5.4,2.7
	c-0.6,1-1.1,2-1.5,3.1l-1.3-0.1V20l4.1-0.1c3.6-0.1,7.3-0.2,10.9-0.4c0.4,0,0.8-0.1,1.1-0.2c0.7-0.2,1.1-0.9,1.1-1.6
	C37.4,17,37.3,16.4,37.2,15.7z"/>
<path d="M51.6,170c-0.3,0.9-0.7,1.7-1,2.6c-0.2,0.7-0.2,0.8,0.6,0.7l5.5-0.4l1.3-0.1c-0.2,1.4-0.5,2.6-0.7,3.9
	c-0.3,2.6-0.6,5.2-0.9,7.8c0,0.1,0,0.2,0,0.3c-0.1,0.7,0.4,1.3,1,1.4c0.7,0.1,1.3-0.3,1.5-0.9c0.3-0.7,0.5-1.4,0.7-2.1l1.3,0.1
	c-0.3,1.8-0.5,3.6-0.8,5.5l-7.4,0.5c0.2-1.9,0.3-3.7,0.5-5.5c0.2-2.1,0.3-4.2,0.4-6.3c0.1-0.8-0.4-1.5-1.2-1.7c-0.1,0-0.2,0-0.3,0
	c-1.3-0.1-2.7,0.1-3.2,2c-0.2,0.7-0.4,1.4-0.6,2.1c-0.3,0.7,0,1.6,0.7,2c0,0,0,0,0,0c0.9,0.6,1.9,1,2.8,1.5c0.2,0.1,0.4,0.2,0.7,0.3
	c-0.7,1.1-1.4,2.1-2.1,3.2c-0.8-0.7-1.6-1.4-2.5-2s-1.2-0.4-1.5,0.5c-0.5,1.4-1.1,2.9-1.6,4.3c-0.2,0.5-0.4,0.8-0.9,0.5
	c-0.2-0.1-0.5-0.1-0.7-0.2c0.2-0.7,0.3-1.3,0.5-2c0.2-1.2,0.5-2.4,0.7-3.7s0.1-1.5-1-2c-0.8-0.4-1.8-0.8-2.7-1.2l2.1-3.2
	c0.6,0.5,1.2,1.1,1.8,1.6s0.9,0.5,1.2-0.4c0.1-0.5,0.3-1,0.4-1.6c0.1-0.8-0.3-1.2-1.1-1.2c-1.2,0.1-2.3,0.5-3.2,1.3v-3.8
	c1-0.1,1.9-0.2,2.8-0.2c1.4-0.1,1.7-0.3,2.1-1.7c0.1-0.4,0.2-0.8,0.2-1.3h-2.3c0.1-0.3,0.2-0.6,0.3-0.9c0.3-1.1-0.2-1.9-1.3-1.9
	c-1.6-0.1-3.2-0.1-4.8-0.1c-1.2,0-2.5,0.1-3.7,0.2s-1.5,0.6-1.2,1.6c0.1,0.4,0.2,0.7,0.4,1.1H33c-0.4,0-0.8-0.1-0.8,0.5
	c-0.1,0.4,0.2,0.9,0.7,0.9c0,0,0.1,0,0.1,0c0.9,0,1.7,0,2.6-0.1c1-0.1,2-0.2,3.2-0.4l-0.2,2.5h-2.9H33c-0.1,0-0.3,0-0.4,0.1
	c-0.5,0.1-0.8,0.6-0.7,1.1c0,0.5,0.5,0.7,0.9,0.6c1.3,0,2.5-0.1,3.8-0.1c1.4-0.1,2.9-0.2,4.4-0.4l-0.2,2.8c-0.5-0.1-1-0.1-1.5-0.2
	c-1.2-0.1-2.4-0.1-3.5-0.1c-0.7,0-1.3,0.6-1.3,1.3c0,0.1,0,0.2,0.1,0.4c0.1,0.3,0.4,0.5,0.7,0.6c0.9,0,1.8-0.1,2.8-0.2
	c0.2,0,0.4-0.3,0.6-0.5c0.5-0.6,0.5-0.6,1.3-0.5c-0.1,1-0.2,2-0.3,3.1c-1.2,0-2.5,0-3.7,0s-2.2,0-3.4,0.1c-0.3,0-0.8-0.2-0.8,0.5
	s0.3,1,0.8,1c0.9,0,1.8,0,2.7-0.1c1.1-0.1,2.3-0.3,3.5-0.5l-0.3,2.7c-1,0-2,0-3,0s-2.1,0-3.1,0.2c-0.4,0.1-0.7,0.3-0.9,0.6
	c-0.1,0.2,0.1,0.6,0.2,0.8c0.2,0.2,0.4,0.2,0.7,0.2c2.4-0.1,4.8-0.2,7.2-0.3c0.6,0,1.2-0.1,1.8-0.1l0.2,1.5l-22.1,2.7l-0.6-3.2
	c1.3,0,2.5,0.1,3.7,0c1.5-0.1,3.1-0.2,4.6-0.4c0.5,0,0.9-0.4,0.9-0.9c0,0,0,0,0,0c0-0.5-0.4-0.7-1-0.8c-2,0-4,0.2-5.9,0.7v-2.4
	l-0.1-0.1l-1.1,1.3l-1.2-1l2.2-3.2c0.5-0.7,1-1.5,1.5-2.2c0.1-0.2,0.2-0.4,0.2-0.6c-0.2,0-0.5-0.1-0.7-0.1c-1,0.2-2,0.5-2.9,0.7
	v-2.8c0.3,0,0.6,0,0.9,0c2.4-0.1,4.9-0.2,7.3-0.3c0.3,0,0.7-0.2,0.9-0.4c0.1-0.3,0.1-0.6,0-0.9c-0.2-0.2-0.5-0.4-0.8-0.4
	c-1.9,0.2-3.9,0.4-5.8,0.6l-0.4,0.1v-2.7c0.4,0,0.7,0,1.1,0c1.5,0,3.1,0.1,4.6,0c1.1-0.1,1.4-0.7,1-1.7l-0.3-0.6
	c0.5,0,0.9,0,1.4,0.1c0.3,0.1,0.6-0.1,0.7-0.4c0,0,0-0.1,0-0.1c0-0.1,0.1-0.2,0.1-0.3c0.2-0.9-0.2-1.4-1.1-1.3
	c-1.5,0.1-3,0.2-4.4,0.4c-1.7,0.2-3.5,0.6-5.2,0.9v-4.1h1.6c2.6,0,5.2,0,7.9,0c1.2,0,1.5-0.6,1.1-1.7c-0.1-0.2-0.2-0.5-0.3-0.7h4.9
	c-0.1,0.4-0.3,0.8-0.4,1.2c-0.2,0.5,0.1,1,0.5,1.2c0.1,0,0.2,0.1,0.4,0.1c3,0.2,6.1,0.2,9.1-0.1c0.6,0,1-0.5,0.9-1.1
	c0-0.1,0-0.1,0-0.2c-0.1-0.2-0.1-0.4-0.2-0.7c-0.1-0.2-0.2-0.4-0.3-0.6h5.1c-0.1,0.3-0.3,0.6-0.4,0.9c-0.2,0.8,0.1,1.3,0.9,1.3
	c1.3,0,2.7,0,4.1-0.2c2-0.2,4-0.5,6-0.8l-0.3,4.6c-0.9-0.2-1.8-0.4-2.6-0.5c-2.4-0.3-4.8-0.3-7.2-0.1c-0.5,0-0.9,0.3-0.9,0.7
	c0,0.4,0,0.9,0.2,1.3c0,0.1,0.3,0.1,0.5,0.1C50.4,170,50.9,170,51.6,170z M31.1,180.9c0-0.7,0-1.4,0-2.1c-0.1-0.2-0.3-0.4-0.5-0.5
	c-0.9-0.1-1.8,0.1-2.6,0.6c-1.2,0.9-2.4,1.8-3.5,2.8c-0.8,0.7-1.6,1.4-2.4,2.1c1.9,0.3,3.8,0.2,5.7-0.1c0.4-0.1,0.6-0.4,0.6-0.8
	c0,0,0-0.1,0-0.1c-0.1-0.6-0.3-1.3-0.4-2L31.1,180.9z"/>
<path d="M23.9,204.2l-0.9-2.5c1.9-0.7,3.9-1.3,5.3-3c-3,0.1-6,0.5-8.9,1.2v-3.5c13.5-0.1,27-0.6,40.5-1.6l-0.3,3.7
	c-2-0.5-4.1-0.6-6.2-0.4c1.1,1.5,2.4,2.7,4,3.7l-3.5,2.6c-0.2-0.4-0.5-0.8-0.8-1.1c-0.5-0.5-1.2-0.8-2-0.8c-3.1,0-6.2,0-9.3,0
	c-4.1,0-8.2,0.3-12.2,0.8c-1.7,0.2-3.3,0.6-5,0.9L23.9,204.2z M36,200.8c3.9-0.2,7.2-0.4,10.5-0.6c0.8-0.1,1.7-0.1,2.5-0.2
	c0.3,0,0.5-0.2,0.7-0.4c0.1-0.1-0.1-0.5-0.3-0.7c-0.3-0.3-0.6-0.5-1-0.6c-0.7-0.2-1.3-0.2-2-0.2c-3.6-0.1-7.1,0-10.7,0.5
	c-1.3,0.1-2.5,0.7-3.5,1.5c-0.1,0.2-0.2,0.4-0.3,0.6c0.2,0.1,0.4,0.1,0.6,0.2C33.9,200.8,35.3,200.8,36,200.8z"/>
<path d="M23.8,194.6v-3.1c1,0,2,0,3,0l18.7-0.4c3.3,0,6.6-0.4,9.8-1h0.3l-0.3,3.3C44.8,193.2,34.3,193.6,23.8,194.6z"/>
<path d="M46.2,77.8L45.9,82l-3-0.3c-4.2-0.4-8.4-0.4-12.6-0.1c-1,0-1.8,0.8-1.8,1.7c0,0.2,0,0.5,0.1,0.7c0.3,0.7,0.9,1.1,1.6,1.1
	c5,0,10,0.3,15-0.6l1.1-0.2l-0.4,4.3l-2.4-0.3c-4.1-0.4-8.3-0.4-12.5-0.1c-0.5,0-1,0.2-1.4,0.4c-0.8,0.4-1.2,1.4-0.8,2.2
	c0.2,0.4,0.5,0.6,0.8,0.8c0.5,0.3,1,0.4,1.5,0.4c5.1,0.4,10.3,0.4,15.4-0.2c1.6-0.2,2.9-1.5,3.3-3.1c0.7-3.2,1-6.5,1-9.8
	c0-2.3-0.1-4.7-0.2-7c-0.1-2.4-1.5-3.8-4-3.9C44.4,68,42.2,68,40,68c-2.9,0-5.7,0.3-8.5,1c-0.6,0.2-1.2,0.3-1.8,0.5v-4.1l25-1
	c0,1.7,0,3.3,0,5c-0.2,5.4-0.3,10.8-0.5,16.2L54,90c-0.1,0.7,0.4,1.4,1.1,1.6c0.1,0,0.2,0,0.3,0c1.7,0.2,3.4-0.1,5-0.9
	c-0.1,1.8-0.2,3.5-0.3,5.3l-1.6-0.2c-3.5-0.4-7-0.6-10.6-0.4c-5.8,0.2-11.5,0.2-17.3,0.4c-3.6,0-7.2,0.3-10.8,1c-0.1,0-0.2,0-0.3,0
	v-4.7c0.6,0.1,1.2,0.3,1.8,0.3c0.7,0.1,1.5,0.2,2.2,0.2c1.1,0,1.5-0.5,1.5-1.6c-0.2-8.1-0.3-16.2-0.5-24.2c0-0.3,0-0.7,0-1.1
	l1.8-0.1c0.1,0.8,0.1,1.4,0.3,2.1c0.2,2.2,2.1,3.9,4.3,3.8c2.9,0.1,5.7,0,8.6-0.1c2-0.1,4.1-0.4,6.1-0.6c0.1,0,0.3,0,0.5,0l-0.4,4.3
	L43.2,75c-4.2-0.4-8.4-0.4-12.6,0c-0.3,0-0.5,0.1-0.8,0.1c-0.9,0.2-1.5,1-1.3,1.9c0.1,0.8,0.8,1.3,1.6,1.3c1.5,0.1,2.9,0.1,4.4,0.1
	c3.5,0.1,6.9-0.1,10.3-0.5L46.2,77.8z"/>
<path d="M59.3,102.1c-1.9,0.7-3.5,2.1-4.3,4c-1.5-1.7-3.4-3.2-5.4-4.2c-2.1-1-4.2-1.8-6.3-2.7c2-0.5,3.7-1.7,4.8-3.5
	C51.3,98.8,55.2,100.6,59.3,102.1z"/>
<path d="M36.5,99l-15,6.8l-0.9-1.1c1.5-1.3,3-2.5,4.6-3.7c2-1.5,4-3,5.9-4.5c0.2-0.1,0.4-0.2,0.6-0.2C33.4,97.2,35,98.1,36.5,99z"/>
</svg>
